<?xml version="1.0" encoding="utf-8"?>
<!-- Generator: Adobe Illustrator 26.0.3, SVG Export Plug-In . SVG Version: 6.00 Build 0)  -->
<svg version="1.0" id="Layer_1" xmlns="http://www.w3.org/2000/svg" xmlns:xlink="http://www.w3.org/1999/xlink" x="0px" y="0px"
	 viewBox="0 0 862 601.2" style="enable-background:new 0 0 862 601.2;" xml:space="preserve">
<style type="text/css">
	.st0{fill:#0B0E35;}
</style>
<g>
	<g>
		<path class="st0" d="M344.3,298.4v-21h-30.2v-24.2h-24.5v24.2h-25.5v21h25.5v31.7c0,15,2.9,23.9,9.1,30.1
			c8.4,8.4,19.8,10.5,29.4,10.5c11.5,0,15.2-1.9,15.2-1.9v-20.7c-4.7,0.7-9.5,1-14.3,0.9c-2.9,0-8-0.6-11.3-4
			c-2.9-2.9-3.6-7.6-3.6-11.6v-35H344.3z"/>
		<path class="st0" d="M412.3,275.5c-10.3,0-19.4,3.6-25,9.2c-0.6,0.6-1.2,1.2-1.7,1.9v-9.2H362v91.5h24.5v-57.2
			c5.1-8.4,14.1-13.5,24-13.5c3.4,0,6.7,0.3,10,1v-22.8C417.7,275.8,415,275.6,412.3,275.5L412.3,275.5z"/>
		<path class="st0" d="M636,277.4h-25.8L585.3,332l-26.6-54.5h-27l40.9,82.2l0,0L554.1,399h25.6L636,277.4z"/>
		<path class="st0" d="M497.9,277.4v7.3c-7.7-5.9-17.1-9.1-26.8-9.1c-24.7,0-45,20.5-45,47.7s20.9,47.5,46.1,47.5
			c15.7,0,24.7-8.3,25.6-9.1v7.2h23.5v-91.5H497.9z M474.8,348.2c-13.2,0-24.1-10-24.1-24.9c0-14.2,10.1-25.1,23.5-25.1
			c8.8,0.1,17.1,4.1,22.6,10.9v28.1C491.7,344.2,483.5,348.2,474.8,348.2L474.8,348.2z"/>
		<path class="st0" d="M634.8,338.6c8.8,0.2,15.8,7.5,15.6,16.4c-0.2,8.8-7.5,15.8-16.4,15.6s-15.8-7.5-15.6-16.4
			c0.1-6.4,4.1-12.1,10.1-14.5C630.6,338.9,632.7,338.6,634.8,338.6z"/>
		<path class="st0" d="M680,231.1c8.6,0.2,15.5,7.3,15.4,15.9c-0.2,8.6-7.3,15.5-15.9,15.4s-15.5-7.3-15.4-15.9
			c0.1-6.3,4-11.9,9.9-14.3C675.8,231.4,677.9,231,680,231.1z"/>
		<path class="st0" d="M692.2,277.4h-24.5v91.5h24.5L692.2,277.4z"/>
		<path class="st0" d="M757.3,275.5c-26.9,0-48.7,20.7-48.7,47.6s21.8,47.6,48.7,47.6s48.7-20.8,48.7-47.6S784.2,275.5,757.3,275.5z
			 M757.3,348.2c-13.3,0-24.2-10.1-24.2-25c0-14.7,10.8-25,24.2-25s24.2,10.3,24.2,25C781.5,338.1,770.7,348.2,757.3,348.2z"/>
		<path class="st0" d="M178.4,202.2c-27.1,0-49,21.9-49,49l0,0v9.2h24.5v-9.2c0-13.5,11-24.5,24.5-24.5c13.5,0,24.5,11,24.5,24.5
			c0,13.5-11,24.5-24.5,24.5H105c-27,1.3-47.9,24.3-46.5,51.4c1.2,25.2,21.4,45.3,46.5,46.5h9.2v-24.5H105
			c-13.5,0-24.5-11-24.5-24.5c0-13.5,11-24.5,24.5-24.5h24.5v73.5h24.5v-73.4h24.5c27,0.9,49.7-20.4,50.5-47.4s-20.4-49.7-47.4-50.5
			C180.5,202.2,179.5,202.2,178.4,202.2z"/>
	</g>
</g>
</svg>
