<?xml version="1.0" encoding="UTF-8"?>
<!DOCTYPE svg PUBLIC "-//W3C//DTD SVG 1.1//EN" "http://www.w3.org/Graphics/SVG/1.1/DTD/svg11.dtd">
<!-- Creator: CorelDRAW -->
<svg xmlns="http://www.w3.org/2000/svg" xml:space="preserve" width="3.70933in" height="2.08319in" version="1.1" style="shape-rendering:geometricPrecision; text-rendering:geometricPrecision; image-rendering:optimizeQuality; fill-rule:evenodd; clip-rule:evenodd"
viewBox="0 0 3709.33 2083.19"
 xmlns:xlink="http://www.w3.org/1999/xlink"
 xmlns:xodm="http://www.corel.com/coreldraw/odm/2003">
 <defs>
  <style type="text/css">
   <![CDATA[
    .fil0 {fill:#E6E7E8}
    .fil5 {fill:#373435;fill-rule:nonzero}
    .fil4 {fill:#969696;fill-rule:nonzero}
    .fil3 {fill:#96CA2D;fill-rule:nonzero}
    .fil2 {fill:#373435;fill-opacity:0.031373}
    .fil1 {fill:#373435;fill-opacity:0.101961}
   ]]>
  </style>
 </defs>
 <g id="Layer_x0020_1">
  <metadata id="CorelCorpID_0Corel-Layer"/>
  <polygon class="fil0" points="-0,0 3709.33,0 3709.33,2083.19 -0,2083.19 "/>
  <polygon class="fil1" points="985.73,2083.19 983.12,2083.19 960.28,2083.19 941.39,2083.19 939.19,2083.19 934.82,2083.19 933.66,2083.19 924.78,2083.19 916.02,2083.19 909.75,2083.19 909.74,2083.19 887.63,2083.19 882.39,2083.19 880.57,2083.19 873.8,2083.19 870.79,2083.19 868.93,2083.19 868.36,2083.19 832.2,2083.19 828.44,2083.19 819.38,2083.19 799.79,2083.19 799.59,2083.19 797.01,2083.19 789.11,2083.19 788.73,2083.19 767.62,2083.19 765.07,2083.19 675.41,2083.19 647.37,2083.19 641.93,2083.19 636.54,2083.19 635.47,2083.19 610.31,2083.19 544.11,2083.19 500.67,2083.19 476.22,2083.19 462.38,2083.19 429.82,2083.19 374.19,2083.19 342.33,2083.19 290.56,2083.19 282.08,2083.19 241.87,2083.19 241.8,2083.19 207.84,2083.19 207.8,2083.19 63.46,2083.19 58.35,2083.19 53.23,2083.19 4.93,2083.19 -0,2083.19 -0,2018.31 -0,2011.81 -0,1965.4 -0,1943.39 -0,1943.38 -0,1943.37 -0,1933.37 -0,1919.21 -0,1864.48 -0,1862.03 -0,1859.6 -0,1836.56 -0,1825.46 -0,1765.66 -0,1750.75 -0,1725.64 -0,1690.22 -0,1662.42 -0,1616.78 -0,1614.19 -0,1611.61 -0,1575.63 -0,1565.73 -0,1512.87 -0,1489.93 -0,1405.6 -0,1314.67 -0,1306.02 -0,1229.13 -0,1225.8 -0,1225.8 -0,1112.1 -0,1076.36 -0,1075.28 1386.92,280.8 1380.03,284.78 1373.22,288.9 1366.49,293.16 1359.85,297.56 1354.73,301.43 1349.94,305.34 1345.48,309.27 1341.36,313.23 1337.56,317.22 1334.09,321.23 1330.96,325.27 1328.15,329.34 1325.68,333.43 1323.53,337.55 1321.71,341.7 1320.23,345.87 1319.07,350.07 1318.25,354.3 1317.75,358.56 1317.59,362.83 1317.59,493.49 1854.64,195 1854.67,194.99 1317.59,493.5 1317.59,497.33 1317.75,501.64 1318.25,505.92 1319.07,510.17 1320.23,514.39 1321.71,518.57 1323.53,522.73 1325.68,526.85 1328.15,530.95 1330.96,535.01 1334.09,539.04 1337.56,543.04 1341.35,547.01 1345.48,550.95 1349.94,554.86 1354.72,558.74 1359.84,562.58 1366.48,566.98 1373.22,571.24 1380.03,575.37 1386.92,579.35 1393.89,583.19 1400.94,586.89 1408.05,590.44 1415.24,593.86 1422.49,597.13 1429.81,600.25 1437.19,603.22 1444.63,606.05 1452.13,608.73 1459.69,611.26 1467.29,613.64 1474.95,615.87 1480.16,617.42 1485.39,618.95 1490.62,620.45 1495.87,621.92 1501.13,623.37 1506.39,624.79 1511.67,626.18 1516.96,627.55 1522.25,628.89 1527.56,630.2 1532.87,631.48 1538.19,632.74 1543.52,633.96 1548.85,635.16 1554.19,636.33 1559.54,637.47 1564.89,638.58 1570.26,639.66 1575.62,640.72 1580.99,641.74 1586.37,642.74 1591.75,643.7 1597.13,644.63 1602.52,645.54 1607.92,646.41 1613.31,647.26 1618.71,648.07 1624.11,648.85 1629.52,649.6 1634.92,650.32 1640.33,651.01 1645.74,651.67 1652.04,652.47 1658.34,653.24 1664.65,653.99 1670.97,654.72 1677.28,655.42 1683.61,656.1 1689.93,656.75 1696.26,657.38 1702.59,657.99 1708.92,658.57 1715.26,659.13 1721.59,659.66 1727.94,660.16 1734.28,660.64 1740.63,661.1 1746.97,661.53 1753.32,661.94 1759.67,662.31 1766.02,662.67 1772.37,663 1778.73,663.3 1785.08,663.58 1791.44,663.83 1797.79,664.06 1804.15,664.26 1810.5,664.43 1816.86,664.58 1823.21,664.7 1829.57,664.79 1835.93,664.86 1842.28,664.9 1848.63,664.91 1849.37,664.91 1850.13,664.91 1850.91,664.91 1851.7,664.91 1852.48,664.91 1853.25,664.91 1854,664.91 1854.71,664.91 1855.44,664.91 1856.21,664.91 1856.99,664.91 1857.78,664.91 1858.57,664.91 1859.35,664.91 1860.11,664.91 1860.85,664.91 1867.2,664.9 1873.55,664.86 1879.9,664.79 1886.26,664.7 1892.61,664.58 1898.96,664.43 1905.32,664.26 1911.68,664.06 1918.04,663.83 1924.39,663.58 1930.75,663.31 1937.1,663 1943.46,662.68 1949.81,662.32 1956.16,661.94 1962.51,661.54 1968.86,661.11 1975.2,660.66 1981.55,660.19 1987.89,659.68 1994.22,659.15 2000.56,658.6 2006.89,658.03 2013.22,657.43 2019.54,656.8 2025.85,656.16 2032.17,655.48 2038.48,654.79 2044.78,654.07 2051.07,653.33 2057.37,652.57 2063.65,651.78 2069.06,651.11 2074.46,650.42 2079.86,649.69 2085.26,648.94 2090.65,648.15 2096.05,647.33 2101.44,646.48 2106.82,645.6 2112.2,644.69 2117.58,643.76 2122.96,642.79 2128.33,641.79 2133.69,640.76 2139.05,639.7 2144.41,638.62 2149.75,637.5 2155.09,636.36 2160.43,635.19 2165.76,633.99 2171.08,632.76 2176.4,631.5 2181.7,630.22 2187,628.91 2192.3,627.56 2197.58,626.2 2202.85,624.8 2208.12,623.38 2213.38,621.93 2218.62,620.45 2223.86,618.95 2229.09,617.42 2234.3,615.86 2241.97,613.63 2249.59,611.24 2257.15,608.7 2264.66,606.01 2272.11,603.17 2279.5,600.18 2286.82,597.04 2294.08,593.75 2301.28,590.31 1591.96,943.54 1597.13,944.44 1602.52,945.36 1607.91,946.24 1613.3,947.09 1618.7,947.92 1624.1,948.71 1629.5,949.47 1634.91,950.2 1640.32,950.91 1645.73,951.57 1652.03,952.37 1658.33,953.15 1664.65,953.89 1665.46,953.99 2391.72,595.57 2391.56,599.89 2391.07,604.17 2390.24,608.42 2389.09,612.63 2387.61,616.82 2385.79,620.98 2383.65,625.1 2381.18,629.2 2378.38,633.26 2375.24,637.29 2371.78,641.3 2368,645.26 2363.87,649.2 2359.43,653.11 2354.65,656.98 2349.54,660.83 2342.89,665.22 2336.16,669.48 2329.35,673.6 2322.45,677.58 2315.47,681.43 2308.42,685.13 2301.3,688.69 1744.1,961.24 1746.96,961.43 1753.31,961.83 1759.66,962.22 1766.02,962.57 1772.37,962.9 1778.72,963.2 1785.07,963.48 1791.43,963.73 1797.78,963.96 1804.14,964.16 1810.5,964.33 1816.85,964.48 1823.2,964.59 1829.56,964.69 1835.92,964.76 1842.27,964.8 1848.62,964.81 1849.36,964.81 1850.12,964.81 1850.9,964.81 1851.69,964.81 1852.47,964.81 1853.24,964.81 1853.99,964.81 1854.7,964.81 1855.44,964.81 1856.2,964.81 1856.98,964.81 1857.77,964.81 1858.56,964.81 1859.34,964.81 1860.11,964.81 1860.84,964.81 1867.19,964.8 1873.54,964.76 1879.89,964.69 1886.25,964.6 1892.6,964.48 1898.96,964.33 1905.31,964.16 1911.67,963.96 1918.03,963.74 1924.39,963.48 1930.74,963.21 1937.1,962.91 1943.46,962.58 1949.81,962.23 1956.17,961.85 1962.52,961.44 1968.87,961.02 1975.21,960.57 1981.56,960.09 1987.91,959.59 1994.24,959.06 2000.58,958.51 2006.92,957.94 2013.25,957.34 2019.57,956.71 2025.9,956.07 2032.22,955.4 2038.53,954.7 2044.84,953.98 2051.15,953.24 2057.44,952.48 2063.74,951.69 2069.15,951.01 2074.55,950.3 2079.94,949.56 2085.34,948.78 2090.74,947.98 2096.13,947.15 2101.52,946.29 2106.91,945.41 2112.29,944.48 2117.67,943.54 2123.04,942.56 2128.41,941.56 2133.77,940.52 2139.13,939.46 2144.48,938.37 2149.83,937.24 2155.17,936.1 2160.5,934.92 2165.83,933.71 2171.15,932.48 2176.47,931.22 2181.78,929.93 2187.07,928.61 2192.37,927.26 2197.65,925.89 2202.92,924.49 2208.19,923.06 2213.44,921.61 2218.69,920.12 2223.93,918.61 2229.15,917.07 2234.37,915.51 2242.02,913.29 2249.62,910.91 2257.17,908.39 2264.67,905.7 2272.12,902.88 2279.51,899.9 2286.83,896.78 2294.09,893.5 1563.3,1237.75 1564.85,1238.07 1570.21,1239.17 1575.57,1240.22 1580.94,1241.26 1586.31,1242.26 1591.69,1243.23 1597.07,1244.18 1602.46,1245.09 1607.85,1245.98 1613.24,1246.83 1618.64,1247.66 1624.04,1248.45 1629.44,1249.22 1632.96,1249.69 2391.75,895.5 2391.58,899.81 2391.09,904.09 2390.26,908.34 2389.11,912.56 2387.63,916.75 2385.82,920.91 2383.68,925.03 2381.21,929.13 2378.41,933.19 2375.28,937.22 2371.82,941.22 2368.03,945.19 2363.91,949.13 2359.46,953.04 2354.69,956.92 2349.58,960.76 2342.94,965.16 2336.2,969.41 2329.39,973.54 2322.48,977.51 2315.51,981.35 2308.45,985.05 2301.33,988.61 2294.13,992.02 1716.69,1258.91 1721.52,1259.31 1727.87,1259.82 1734.21,1260.3 1740.56,1260.76 1746.9,1261.19 1753.25,1261.59 1759.6,1261.98 1765.95,1262.33 1772.31,1262.66 1778.66,1262.96 1785.02,1263.24 1791.37,1263.49 1797.72,1263.72 1804.08,1263.92 1810.44,1264.09 1816.8,1264.24 1823.15,1264.36 1829.5,1264.45 1835.86,1264.52 1842.21,1264.56 1848.57,1264.57 1849.3,1264.57 1850.07,1264.57 1850.85,1264.57 1851.64,1264.57 1852.44,1264.57 1853.22,1264.57 1853.99,1264.57 1854.73,1264.57 1855.46,1264.57 1856.23,1264.57 1857.01,1264.57 1857.8,1264.57 1858.59,1264.57 1859.37,1264.57 1860.13,1264.57 1860.87,1264.57 1867.22,1264.56 1873.57,1264.52 1879.92,1264.45 1886.27,1264.36 1892.63,1264.24 1898.98,1264.09 1905.34,1263.92 1911.7,1263.72 1918.06,1263.5 1924.41,1263.24 1930.77,1262.97 1937.13,1262.67 1943.48,1262.34 1949.83,1261.98 1956.19,1261.61 1962.54,1261.2 1968.89,1260.77 1975.24,1260.32 1981.58,1259.84 1987.93,1259.33 1994.26,1258.81 2000.6,1258.26 2006.93,1257.68 2013.26,1257.08 2019.59,1256.45 2025.91,1255.81 2032.22,1255.13 2038.54,1254.44 2044.84,1253.72 2051.15,1252.97 2057.44,1252.21 2063.73,1251.42 2069.14,1250.74 2074.54,1250.04 2079.94,1249.3 2085.34,1248.53 2090.74,1247.74 2096.13,1246.91 2101.52,1246.06 2106.91,1245.17 2112.29,1244.25 2117.67,1243.31 2123.04,1242.33 2128.41,1241.33 2133.78,1240.3 2139.14,1239.24 2144.49,1238.15 2149.84,1237.03 2155.18,1235.89 2160.52,1234.71 2165.85,1233.51 2171.17,1232.28 2176.48,1231.02 2181.79,1229.73 2187.09,1228.42 2192.38,1227.07 2197.67,1225.7 2202.94,1224.31 2208.21,1222.88 2213.46,1221.43 2218.71,1219.95 2223.95,1218.44 2229.17,1216.91 2234.39,1215.35 2242.04,1213.13 2249.65,1210.76 2257.2,1208.24 2264.7,1205.56 2272.14,1202.73 2279.53,1199.75 2286.85,1196.63 1533.63,1531.13 1538.24,1532.23 1543.56,1533.46 1548.89,1534.67 1554.22,1535.84 1559.57,1536.98 1564.91,1538.1 1570.27,1539.19 1575.63,1540.25 1581,1541.28 1586.37,1542.28 1591.74,1543.25 1597.12,1544.19 1598.47,1544.42 2391.72,1195.33 2391.56,1199.65 2391.06,1203.93 2390.24,1208.17 2389.08,1212.39 2387.6,1216.58 2385.79,1220.73 2383.65,1224.86 2381.17,1228.95 2378.37,1233.02 2375.24,1237.05 2371.78,1241.05 2367.99,1245.02 2363.87,1248.96 2359.42,1252.86 2354.64,1256.74 2349.54,1260.59 2342.89,1264.98 2336.16,1269.24 2329.34,1273.36 2322.44,1277.34 2315.47,1281.18 2308.41,1284.88 2301.29,1288.44 2294.09,1291.85 2286.83,1295.13 1687.18,1556.12 1689.92,1556.41 1696.24,1557.04 1702.57,1557.64 1708.91,1558.22 1715.24,1558.78 1721.58,1559.31 1727.93,1559.82 1734.27,1560.3 1740.61,1560.76 1746.96,1561.19 1753.31,1561.59 1759.66,1561.97 1766.01,1562.33 1772.36,1562.66 1778.71,1562.96 1785.07,1563.24 1791.43,1563.49 1797.78,1563.72 1804.13,1563.91 1810.49,1564.09 1816.85,1564.24 1823.2,1564.35 1829.56,1564.45 1835.91,1564.52 1842.26,1564.56 1848.62,1564.57 1849.35,1564.57 1850.12,1564.57 1850.9,1564.57 1851.69,1564.57 1852.47,1564.57 1853.24,1564.57 1853.98,1564.57 1854.7,1564.57 1855.43,1564.57 1856.2,1564.57 1856.98,1564.57 1857.77,1564.57 1858.56,1564.57 1859.34,1564.57 1860.1,1564.57 1860.84,1564.57 1867.19,1564.56 1873.54,1564.52 1879.89,1564.45 1886.24,1564.36 1892.6,1564.24 1898.95,1564.09 1905.31,1563.92 1911.67,1563.72 1918.02,1563.49 1924.38,1563.24 1930.74,1562.97 1937.09,1562.67 1943.45,1562.34 1949.81,1561.98 1956.16,1561.61 1962.51,1561.2 1968.86,1560.78 1975.21,1560.32 1981.56,1559.85 1987.9,1559.35 1994.24,1558.82 2000.58,1558.27 2006.91,1557.69 2013.24,1557.09 2019.57,1556.47 2025.89,1555.82 2032.21,1555.15 2038.53,1554.46 2044.84,1553.74 2051.14,1553 2057.44,1552.24 2063.74,1551.45 2069.14,1550.77 2074.54,1550.06 2079.94,1549.31 2085.34,1548.54 2090.74,1547.74 2096.13,1546.91 2101.52,1546.05 2106.9,1545.16 2112.28,1544.24 2117.66,1543.3 2123.04,1542.32 2128.4,1541.31 2133.77,1540.28 2139.13,1539.21 2144.48,1538.12 2149.83,1537 2155.17,1535.85 2160.5,1534.68 2165.83,1533.47 2171.15,1532.24 2176.46,1530.98 2181.77,1529.69 2187.07,1528.37 2192.36,1527.02 2197.65,1525.65 2202.92,1524.25 2208.18,1522.82 2213.44,1521.36 2218.69,1519.88 2223.92,1518.37 2229.15,1516.83 2234.36,1515.27 2242.01,1513.05 2249.62,1510.67 2257.17,1508.14 2264.67,1505.46 2272.12,1502.63 2279.5,1499.66 1754.11,1718.81 1754.11,1722.02 1733.74,1730.51 1733.74,1743.34 1754.11,1743.34 1754.11,1754.76 1781.71,1743.34 1809.3,1743.34 1754.11,1766.11 1754.11,1767.61 2014.38,1660.24 2014.38,1698.77 2044.2,1686.58 2091.29,1686.58 2097.68,1686.65 2103.62,1686.87 2109.1,1687.22 2114.13,1687.72 2118.7,1688.37 2122.82,1689.16 2126.49,1690.1 2129.7,1691.18 2133.76,1692.98 2137.66,1695.18 2141.4,1697.77 2143.15,1699.22 2239.59,1660.24 2239.59,1698.52 2269.37,1686.59 2314.27,1686.59 2320.08,1686.64 2325.46,1686.79 2330.39,1687.03 2334.88,1687.37 2338.93,1687.81 2342.53,1688.35 2345.69,1688.99 2348.39,1689.72 2350.81,1690.59 2353.09,1691.63 2355.22,1692.84 2357.2,1694.22 2359.05,1695.77 2360.75,1697.49 2362.3,1699.38 2363.71,1701.43 2364.98,1703.59 2366.07,1705.84 2367,1708.18 2367.76,1710.6 2368.34,1713.11 2368.76,1715.7 2369.01,1718.37 2369.09,1721.13 2369,1724.03 2368.73,1726.8 2368.28,1729.44 2367.65,1731.96 2366.84,1734.35 2365.85,1736.62 2364.69,1738.76 2363.34,1740.78 2361.83,1742.67 2360.13,1744.43 2358.26,1746.04 2356.21,1747.52 2353.99,1748.85 2351.59,1750.05 2349.01,1751.1 2272.8,1780.98 2321.32,1780.98 2326.52,1781.04 2331.4,1781.21 2335.98,1781.51 2340.24,1781.92 2344.18,1782.44 2347.81,1783.09 2351.13,1783.85 2354.13,1784.74 2356.92,1785.76 2359.55,1786.96 2362.02,1788.33 2364.33,1789.88 2366.49,1791.59 2368.49,1793.49 2370.33,1795.56 2372.01,1797.8 2373.54,1800.18 2374.85,1802.66 2375.96,1805.24 2376.87,1807.93 2377.58,1810.71 2378.09,1813.6 2378.39,1816.59 2378.49,1819.7 2378.42,1822.34 2378.21,1824.91 2377.87,1827.4 2377.39,1829.81 2376.76,1832.14 2376,1834.39 2375.09,1836.57 2374.05,1838.67 2372.9,1840.66 2371.67,1842.54 2370.37,1844.29 2368.99,1845.92 2367.54,1847.42 2366.01,1848.81 2364.4,1850.07 2362.72,1851.21 2360.94,1852.25 2359.05,1853.21 2357.06,1854.09 2354.97,1854.9 2276.86,1884.78 2325.24,1884.78 2330.5,1884.72 2335.56,1884.54 2340.4,1884.25 2345.04,1883.83 2349.47,1883.3 2353.69,1882.66 2357.7,1881.89 2361.51,1881.01 2365.12,1880.01 2368.57,1878.9 2371.88,1877.68 1830.99,2083.19 1829.45,2083.19 1804.34,2083.19 1758.22,2083.19 1756.43,2083.19 1736.2,2083.19 1722.69,2083.19 1722.67,2083.19 1693.91,2083.19 1685.89,2083.19 1685.85,2083.19 1634.72,2083.19 1612.56,2083.19 1610.3,2083.19 1586.63,2083.19 1585.24,2083.19 1547.1,2083.19 1541.11,2083.19 1531.66,2083.19 1508.02,2083.19 1507.98,2083.19 1501.94,2083.19 1498.76,2083.19 1490.89,2083.19 1478.75,2083.19 1472.39,2083.19 1450.21,2083.19 1444.89,2083.19 1436.63,2083.19 1436.61,2083.19 1406.88,2083.19 1399.59,2083.19 1390.79,2083.19 1390.77,2083.19 1390.72,2083.19 1381.85,2083.19 1358.68,2083.19 1356.74,2083.19 1355.6,2083.19 1327.9,2083.19 1320.42,2083.19 1320.23,2083.19 1315.42,2083.19 1301.51,2083.19 1279.53,2083.19 1268.01,2083.19 1267.54,2083.19 1245.81,2083.19 1244.36,2083.19 1244.29,2083.19 1227.77,2083.19 1227.41,2083.19 1226.16,2083.19 1216.26,2083.19 1194.14,2083.19 1193.01,2083.19 1186.91,2083.19 1182.07,2083.19 1177.82,2083.19 1169.81,2083.19 1162.61,2083.19 1158.91,2083.19 1155.43,2083.19 1147.9,2083.19 1128.77,2083.19 1125.65,2083.19 1117.3,2083.19 1116.51,2083.19 1097.38,2083.19 1093.01,2083.19 1092.26,2083.19 1074.41,2083.19 1066.45,2083.19 1065.8,2083.19 1063.81,2083.19 1053.43,2083.19 1050.7,2083.19 1039.49,2083.19 1011.89,2083.19 1002.81,2083.19 997.57,2083.19 989.09,2083.19 "/>
  <path class="fil2" d="M217.02 1826.17c7,11 12,21 16,33 3,7 5,19 21,19 4,0 11,-1 17,-5 7,-3 12,-9 14,-17l6 -21 15 -8 1 1c-2,8 -3,15 -3,21 0,18 15,24 27,24 7,0 13,-3 13,-10 0,-8 -4,-23 -8,-35 7,-7 14,-14 22,-20l1 1c4,15 6,30 6,40 0,10 -4,20 -8,27 -7,14 -20,25 -36,25 -12,0 -25,-6 -34,-17l-1 0c-9,11 -22,20 -43,20l-7 0c-1,14 -4,24 -9,33 -13,25 -50,42 -85.01,42 -49,0 -74.01,-28 -74.01,-66 0,-23 8,-45 19,-60l10 4c-7,14 -12,27 -12,40 0,35 29,52 62,52 31,0 68.01,-20 75.01,-42 -3,-25 -12,-36 -26,-59 4,-8 10,-15 17,-23l1 0 0 0 3 1 0.02 -0.01 -0.01 0.01 0 0zm565.05 -133.01c10,6 21,14 30,23 -6,8 -12,15 -21,21 -10,-8 -20,-15 -30,-22 7,-8 14,-15 21,-22l0 0 0 0 0 0 0 0 0 0 0 0 0 0zm5 96.01c-17,0 -30,11 -30,19 0,17 33,23 73.01,23 -5,-20 -23,-42 -43,-42l0 0 0 0 0 0 0 0 -0.01 0zm-37 93.01c22,0 41,-1 55,-4 16,-4 30,-12 30,-18 0,-1 0,-3 -1,-5 -9,1 -19,1 -29,1 -29,0 -52,-7 -61,-23 -2,-4 -4,-10 -4,-15 0,-16 7,-31 19,-42 10,-9 21,-14 33,-14 21,0 37,17 48,43 6,14 11,31 11,51 0,14 -4,25 -12,34 -16,16 -45,21 -90.01,21l-21 0 0 0 -5 0c-11,0 -19,-2 -26,-7l-1 0c0,3 1,5 1,8 0,10 -3,23 -10,33 -20,30 -42,43 -60,43 -19,0 -42,-7 -63,-17l4 -7c7,3 16,5 29,5 34,0 78.01,-33 84.01,-64 -1,-3 -4,-6 -7,-10 -10,-12 -16,-22 -22,-32 5,-10 10,-18 14,-25l2 0c14,29 28,46 57,46l5 0 0 0 21 0 0 0 0 0 0 0 0 0 0 0 -1 -2 0 0zm-147.01 31c3,-14 3,-29 3,-43l0 -21c0,-39 -5,-96.01 -9,-134.01 7,-8 17,-17 25,-23l2 1c5,47 7,101.01 7,151.01 0,13 -1,26 -2,35 -1,12 -8,21 -22,35l-3 -1 0 0 0 0 0 0 0 0 0 0 -1 0 0 0zm-151.02 -62.01c1,18 10,33 41,33 20,0 36,-5 55,-14 3,-1 5,-3 5,-5 0,-12 -9,-27 -24,-41 -14,-13 -34,-25 -52,-32 -6,-3 -8,-5 -8,-8 0,-5 7,-17 13,-24l2 0c21,11 44,27 60,44 15,16 25,33 25,51 0,13 -4,26 -11,37 -23,11 -47,20 -70.01,20 -29,0 -49,-14 -49,-45 0,-3 0,-9 1,-16l10 0 0 0 0 0 0 0 0 0 2 0 0 0 0.01 0zm-52 -53l18 29c7,11 13,22 13,41l0 23c0,19 -12,40 -32,60 -15,14 -29,19 -42,19 -19,0 -40,-6 -65,-16l3 -7c8,2 17,4 28,4 36,0 72.01,-26 89.01,-58 2,-4 3,-7 3,-9 0,-4 -2,-8 -4,-11 -9,-17 -19,-33 -30,-47 6,-9 12,-18 18,-27l1 0 0 0 0 0 0 0 0 0 0 0 0 -1 0 0 -0.01 0z"/>
  <g id="_2828646691696">
   <g>
    <path class="fil3" d="M1854.67 194.99c1.96,-0.01 4.26,-0.01 6.18,-0.01 67.7,0 135.79,4.61 202.92,13.24 57.62,7.04 115.04,19.28 170.59,36.11 40.94,11.39 79.98,29.45 115.18,53.24 28.12,20.43 42.19,42.19 42.19,65.26l0 134.24c0,22.91 -14.06,44.67 -42.18,65.28 -35.28,23.87 -74.21,42.03 -115.24,53.52 -55.58,16.74 -113,29 -170.65,35.92 -67.01,8.52 -135.1,13.13 -202.8,13.13 -1.92,0 -4.22,0 -6.14,0 -1.85,0 -4.16,0 -6.08,0 -67.76,0 -135.7,-4.61 -202.89,-13.24 -57.69,-6.84 -115.24,-19.09 -170.79,-35.8 -40.97,-11.47 -79.89,-29.45 -115.11,-53.28 -28.16,-20.43 -42.25,-42.18 -42.25,-65.25l0 -134.5c0,-22.9 14.09,-44.67 42.26,-65.28 35.21,-23.81 74.13,-41.79 115.08,-53.23 55.58,-16.81 112.99,-29.06 170.65,-36.12 67.26,-8.61 135.2,-13.22 202.96,-13.22 1.92,0 4.22,0 6.14,0l-0.03 0.01 0.03 -0.02z"/>
    <path class="fil4" d="M1854.67 763.41c1.96,0.01 4.26,0.01 6.18,0.01 67.7,0 135.79,-4.61 202.92,-13.24 57.62,-7.04 115.04,-19.28 170.59,-36.11 40.94,-11.39 79.98,-29.45 115.18,-53.24 28.12,-20.43 42.19,-42.18 42.19,-65.26l0 201.4c0,22.91 -14.06,44.67 -42.18,65.27 -35.22,23.77 -74.26,41.83 -115.18,53.26 -55.58,16.84 -112.98,29.07 -170.63,36.19 -67.11,8.52 -135.19,13.12 -202.9,13.12 -1.92,0 -4.22,0 -6.14,0 -1.85,0 -4.16,0 -6.08,0 -67.76,0 -135.7,-4.61 -202.89,-13.24 -57.73,-6.99 -115.13,-19.22 -170.66,-36.07 -41.01,-11.45 -79.93,-29.44 -115.15,-53.27 -28.16,-20.43 -42.25,-42.18 -42.25,-65.25l0 -201.4c0,22.9 14.09,44.67 42.26,65.28 35.21,23.81 74.14,41.79 115.09,53.23 55.57,16.81 112.99,29.06 170.65,36.12 67.26,8.61 135.2,13.22 202.96,13.22 1.92,0 4.03,0 5.95,0l0.07 -0.01 0.02 -0z"/>
    <path class="fil4" d="M1854.67 1063.24c2.17,0.01 4.66,0.01 6.78,0.01 67.55,0 135.28,-4.41 202.25,-13.05 57.74,-7.07 114.98,-19.32 170.62,-36.26 41.02,-11.37 80.04,-29.39 115.26,-53.19 28.11,-20.43 42.17,-42.19 42.17,-65.26l0 201.32c0,22.9 -14.06,44.67 -42.18,65.28 -35.22,23.76 -74.25,41.83 -115.18,53.25 -55.58,16.77 -113,29.02 -170.66,36.06 -67.07,8.55 -135.16,13.16 -202.87,13.16 -1.92,0 -4.22,0 -6.14,0 -1.93,0 -4.24,0 -6.16,0 -67.76,0 -135.72,-4.61 -202.9,-13.25 -57.73,-7.02 -115.14,-19.27 -170.69,-36.1 -40.98,-11.42 -79.89,-29.41 -115.11,-53.24 -28.17,-20.43 -42.25,-42.18 -42.25,-65.25l0 -201.24c0,22.9 14.09,44.67 42.26,65.28 35.14,23.78 74.18,41.85 115.1,53.17 55.69,16.93 112.94,29.18 170.68,36.23 66.95,8.67 134.73,13.08 202.31,13.08 2.11,0 4.61,0 6.72,0l0 -0.01 -0.02 -0z"/>
    <path class="fil4" d="M1854.67 1363.07c2.02,0.01 4.71,0.01 6.82,0.01 67.51,0 135.21,-4.41 202.15,-13.05 57.75,-7.14 115.16,-19.39 170.71,-36.21 40.94,-11.39 79.98,-29.45 115.18,-53.24 28.12,-20.43 42.19,-42.18 42.19,-65.25l0 201.41c0,22.9 -14.06,44.67 -42.18,65.28 -35.22,23.75 -74.26,41.81 -115.18,53.25 -55.58,16.83 -112.98,29.06 -170.63,36.18 -67.11,8.52 -135.19,13.12 -202.9,13.12 -1.92,0 -4.22,0 -6.14,0 -1.85,0 -4.16,0 -6.08,0 -67.76,0 -135.7,-4.61 -202.89,-13.25 -57.74,-6.99 -115.13,-19.22 -170.66,-36.06 -41.01,-11.45 -79.93,-29.44 -115.15,-53.28 -28.16,-20.43 -42.25,-42.18 -42.25,-65.25l0 -201.41c0,22.9 14.09,44.67 42.26,65.28 35.21,23.8 74.14,41.79 115.09,53.22 55.57,16.81 112.99,29.06 170.65,36.12 66.99,8.71 134.75,13.13 202.32,13.13 2.11,0 4.61,0 6.72,0l-0.05 -0.01 0.03 0z"/>
   </g>
   <path class="fil5" d="M1386.86 1884.77l-86.76 -224.53 32.19 0 58.32 163.17c4.65,13.07 8.63,25.3 11.76,36.75 3.45,-12.28 7.47,-24.51 12.07,-36.75l60.53 -163.17 30.3 0 -87.54 224.53 -30.89 0 0.01 0zm136.09 -193.17l0 -31.37 27.6 0 0 31.37 -27.6 0zm0 193.17l0 -162.74 27.6 0 0 162.74 -27.6 0zm58.69 -48.6l27.28 -4.4c1.51,10.93 5.8,19.28 12.81,25.14 7,5.8 16.83,8.72 29.37,8.72 12.7,0 22.11,-2.56 28.28,-7.74 6.12,-5.13 9.2,-11.19 9.2,-18.14 0,-6.22 -2.78,-11.12 -8.25,-14.68 -3.87,-2.46 -13.28,-5.54 -28.23,-9.35 -20.17,-5.07 -34.13,-9.46 -41.96,-13.17 -7.79,-3.77 -13.69,-8.88 -17.72,-15.47 -4.02,-6.53 -6.07,-13.8 -6.07,-21.74 0,-7.27 1.67,-13.96 4.96,-20.12 3.35,-6.16 7.84,-11.3 13.54,-15.37 4.28,-3.14 10.14,-5.81 17.51,-8 7.42,-2.2 15.31,-3.29 23.79,-3.29 12.75,0 23.93,1.83 33.55,5.54 9.67,3.66 16.78,8.68 21.38,14.95 4.55,6.32 7.74,14.74 9.46,25.3l-26.96 3.76c-1.21,-8.47 -4.76,-15.11 -10.61,-19.86 -5.85,-4.76 -14.11,-7.11 -24.82,-7.11 -12.6,0 -21.64,2.09 -27.02,6.26 -5.39,4.18 -8.11,9.09 -8.11,14.69 0,3.56 1.11,6.79 3.35,9.67 2.25,2.93 5.75,5.38 10.56,7.31 2.77,1.05 10.81,3.4 24.3,7.06 19.44,5.17 33.03,9.46 40.76,12.75 7.74,3.3 13.8,8.16 18.19,14.42 4.44,6.32 6.63,14.16 6.63,23.57 0,9.15 -2.67,17.77 -8.05,25.87 -5.38,8.1 -13.12,14.37 -23.21,18.82 -10.14,4.44 -21.58,6.63 -34.33,6.63 -21.11,0 -37.26,-4.39 -48.35,-13.12 -11.08,-8.78 -18.14,-21.74 -21.21,-38.93l-0.01 0.03zm227.66 23.98l3.77 24.35c-7.74,1.63 -14.69,2.46 -20.74,2.46 -9.98,0 -17.72,-1.57 -23.26,-4.76 -5.49,-3.19 -9.35,-7.31 -11.6,-12.49 -2.25,-5.18 -3.35,-16.05 -3.35,-32.62l0 -93.76 -20.37 0 0 -21.32 20.37 0 0 -40.24 27.6 -16.56 0 56.81 27.58 0 0 21.32 -27.58 0 0 95.33c0,7.89 0.47,12.96 1.46,15.2 0.94,2.25 2.51,4.03 4.7,5.39 2.19,1.31 5.33,1.98 9.41,1.98 3.03,0 7.06,-0.37 12.02,-1.09l0 0zm133.53 4.23c-10.24,8.72 -20.12,14.85 -29.58,18.44 -9.46,3.61 -19.59,5.39 -30.47,5.39 -17.88,0 -31.61,-4.33 -41.23,-13.06 -9.63,-8.68 -14.42,-19.81 -14.42,-33.34 0,-7.94 1.83,-15.21 5.44,-21.79 3.65,-6.59 8.41,-11.81 14.27,-15.79 5.9,-3.98 12.49,-7 19.86,-9.04 5.44,-1.41 13.65,-2.76 24.57,-4.13 22.26,-2.61 38.72,-5.81 49.23,-9.46 0.1,-3.76 0.16,-6.17 0.16,-7.16 0,-11.18 -2.61,-19.07 -7.83,-23.68 -7.05,-6.21 -17.56,-9.3 -31.46,-9.3 -13.02,0 -22.63,2.3 -28.79,6.84 -6.22,4.55 -10.77,12.59 -13.75,24.2l-26.97 -3.76c2.46,-11.55 6.49,-20.91 12.13,-28.02 5.65,-7.11 13.8,-12.54 24.46,-16.41 10.6,-3.82 23,-5.76 37,-5.76 13.9,0 25.24,1.62 33.97,4.91 8.67,3.3 15.1,7.37 19.18,12.34 4.07,4.96 6.95,11.23 8.62,18.82 0.89,4.7 1.36,13.17 1.36,25.35l0 36.58c0,25.56 0.58,41.7 1.72,48.55 1.1,6.85 3.4,13.39 6.75,19.65l-28.85 0c-2.77,-5.81 -4.54,-12.6 -5.33,-20.39l-0.02 -0.02zm-2.19 -61.14c-10.04,4.07 -25.08,7.53 -45.16,10.35 -11.39,1.61 -19.44,3.44 -24.15,5.48 -4.7,2.04 -8.31,5.02 -10.87,8.88 -2.56,3.91 -3.87,8.26 -3.87,13.07 0,7.26 2.77,13.37 8.36,18.23 5.59,4.86 13.74,7.31 24.46,7.31 10.61,0 20.06,-2.3 28.38,-6.95 8.25,-4.6 14.37,-10.93 18.23,-18.93 2.98,-6.22 4.44,-15.36 4.44,-27.44l0.15 -10.04 0.02 0.02zm73.75 81.53l0 -224.53 77.35 0c17.46,0 30.78,1.05 39.98,3.19 12.86,2.98 23.83,8.37 32.93,16.09 11.86,10.03 20.7,22.79 26.55,38.37 5.91,15.57 8.84,33.39 8.84,53.42 0,17.04 -1.98,32.14 -5.95,45.31 -3.98,13.18 -9.1,24.09 -15.31,32.72 -6.27,8.61 -13.07,15.42 -20.49,20.33 -7.37,4.96 -16.3,8.72 -26.75,11.3 -10.51,2.56 -22.53,3.81 -36.11,3.81l-81 0 -0.03 -0.01zm29.8 -26.34l47.87 0c14.79,0 26.39,-1.36 34.81,-4.13 8.42,-2.77 15.1,-6.63 20.12,-11.66 7,-7.06 12.49,-16.56 16.42,-28.48 3.93,-11.92 5.91,-26.34 5.91,-43.33 0,-23.52 -3.87,-41.6 -11.55,-54.26 -7.68,-12.65 -17.04,-21.11 -28.07,-25.4 -7.95,-3.07 -20.76,-4.6 -38.41,-4.6l-47.09 0 0 171.84 -0.02 0.01zm195.41 26.34l0 -224.53 84.25 0c17.14,0 30.89,2.25 41.28,6.8 10.35,4.54 18.44,11.55 24.3,21.01 5.91,9.41 8.84,19.28 8.84,29.63 0,9.56 -2.61,18.6 -7.79,27.07 -5.17,8.47 -13.02,15.31 -23.52,20.54 13.59,3.97 24.04,10.77 31.3,20.39 7.31,9.56 10.98,20.91 10.98,33.97 0,10.56 -2.25,20.33 -6.69,29.37 -4.44,9.04 -9.93,15.98 -16.47,20.9 -6.53,4.86 -14.74,8.57 -24.56,11.08 -9.88,2.51 -21.95,3.77 -36.27,3.77l-85.65 0 0 -0.01zm29.79 -130.14l48.55 0c13.17,0 22.63,-0.89 28.33,-2.61 7.58,-2.25 13.28,-6 17.09,-11.23 3.81,-5.22 5.75,-11.76 5.75,-19.65 0,-7.47 -1.77,-14.06 -5.38,-19.7 -3.56,-5.7 -8.69,-9.61 -15.32,-11.7 -6.63,-2.09 -18.03,-3.13 -34.13,-3.13l-44.9 0 0 68.05 0 -0.01zm0 103.79l55.93 0c9.61,0 16.35,-0.37 20.27,-1.09 6.8,-1.21 12.54,-3.24 17.15,-6.12 4.6,-2.88 8.35,-7.06 11.33,-12.54 2.97,-5.49 4.44,-11.81 4.44,-18.97 0,-8.42 -2.14,-15.68 -6.48,-21.89 -4.28,-6.22 -10.24,-10.56 -17.88,-13.07 -7.58,-2.51 -18.55,-3.76 -32.81,-3.76l-51.95 0 0 77.46 0 -0.02z"/>
  </g>
 </g>
</svg>
