<?xml version="1.0"?>
<svg xmlns="http://www.w3.org/2000/svg" id="line" viewBox="0 0 64 64"><path d="M45.42529,47a.99974.99974,0,0,0-1,1v8a2.00229,2.00229,0,0,1-2,2H16.5249a2.00229,2.00229,0,0,1-2-2V8a2.00229,2.00229,0,0,1,2-2h5.2298l.77216,2.31641A.99889.99889,0,0,0,23.4751,9h12a.9989.9989,0,0,0,.94824-.68359L37.1955,6h5.22979a2.00229,2.00229,0,0,1,2,2v8a1,1,0,0,0,2,0V8a4.00426,4.00426,0,0,0-4-4H16.5249a4.00427,4.00427,0,0,0-4,4V56a4.00427,4.00427,0,0,0,4,4H42.42529a4.00426,4.00426,0,0,0,4-4V48A.99973.99973,0,0,0,45.42529,47ZM35.08789,6l-.3335,1H24.1958l-.3335-1Z"/><path d="M25.4751,54a1,1,0,1,0,0,2h8a1,1,0,0,0,0-2Z"/><path d="M37.76123,22a3.00328,3.00328,0,0,0-3-3H28.4751a3.00328,3.00328,0,0,0-3,3v6.28564a3.00328,3.00328,0,0,0,3,3h6.28613a3.00328,3.00328,0,0,0,3-3Zm-2,6.28564a1.001,1.001,0,0,1-1,1H28.4751a1.001,1.001,0,0,1-1-1V22a1.001,1.001,0,0,1,1-1h6.28613a1.001,1.001,0,0,1,1,1Z"/><path d="M48.4751,19H42.189a3.00328,3.00328,0,0,0-3,3v6.28564a3.00328,3.00328,0,0,0,3,3H48.4751a3.00328,3.00328,0,0,0,3-3V22A3.00328,3.00328,0,0,0,48.4751,19Zm1,9.28564a1.001,1.001,0,0,1-1,1H42.189a1.001,1.001,0,0,1-1-1V22a1.001,1.001,0,0,1,1-1H48.4751a1.001,1.001,0,0,1,1,1Z"/><path d="M37.76123,42V35.71436a3.00328,3.00328,0,0,0-3-3H28.4751a3.00328,3.00328,0,0,0-3,3V42a3.00328,3.00328,0,0,0,3,3h6.28613A3.00328,3.00328,0,0,0,37.76123,42ZM27.4751,42V35.71436a1.001,1.001,0,0,1,1-1h6.28613a1.001,1.001,0,0,1,1,1V42a1.001,1.001,0,0,1-1,1H28.4751A1.001,1.001,0,0,1,27.4751,42Z"/><path d="M48.4751,32.71436H42.189a3.00328,3.00328,0,0,0-3,3V42a3.00328,3.00328,0,0,0,3,3H48.4751a3.00328,3.00328,0,0,0,3-3V35.71436A3.00328,3.00328,0,0,0,48.4751,32.71436Zm1,9.28564a1.001,1.001,0,0,1-1,1H42.189a1.001,1.001,0,0,1-1-1V35.71436a1.001,1.001,0,0,1,1-1H48.4751a1.001,1.001,0,0,1,1,1Z"/></svg>
