<svg id="Слой_1" enable-background="new 0 0 512 512" height="512" viewBox="0 0 512 512" width="512" xmlns="http://www.w3.org/2000/svg"><g><g><g><path d="m160.278 509.774h-40.07c-9.819 0-17.808-7.989-17.808-17.808v-106.853c0-9.819 7.989-17.808 17.808-17.808h40.07c9.819 0 17.808 7.989 17.808 17.808v106.853c.001 9.819-7.988 17.808-17.808 17.808zm-40.07-17.808h.011zm0 0h40.07v-106.853h-40.07z" fill="rgb(0,0,0)"/></g><g><path d="m57.878 509.774h-40.07c-9.819 0-17.808-7.989-17.808-17.808v-222.609c0-9.82 7.989-17.809 17.808-17.809h40.069c9.819 0 17.808 7.989 17.808 17.809v222.609c.001 9.819-7.988 17.808-17.807 17.808zm-40.07-17.808h.011zm0 0h40.069v-222.609l-40.069-.001z" fill="rgb(0,0,0)"/></g><g><path d="m262.678 509.774h-40.069c-9.819 0-17.808-7.989-17.808-17.808v-155.827c0-9.819 7.989-17.808 17.808-17.808h40.069c9.821 0 17.81 7.989 17.81 17.808v155.827c-.001 9.819-7.99 17.808-17.81 17.808zm-40.069-17.808h.011zm0 0h40.069l.001-155.827h-40.07z" fill="rgb(0,0,0)"/></g></g><g><g><path d="m302.784 505.7c-3.826-.08-7.522-2.714-8.573-6.482-1.322-4.737 1.447-9.649 6.183-10.97 92.891-25.925 158.606-109.679 162.453-205.535h-222.43c-4.918 0-8.904-3.986-8.904-8.904v-222.432c-102.375 4.084-189.718 78.244-209.54 179.348-.948 4.827-5.626 7.972-10.452 7.025-4.825-.946-7.971-5.625-7.025-10.451 22.029-112.358 121.248-193.908 235.921-193.908 4.918 0 8.904 3.986 8.904 8.904v222.61h222.61c4.918 0 8.904 3.986 8.904 8.904 0 53.56-17.232 104.244-49.833 146.574-31.572 40.992-76.255 71.185-125.82 85.018-.79.22-1.597.316-2.398.299z" fill="rgb(0,0,0)"/></g><g><path d="m503.096 242.643h-222.609c-4.918 0-8.904-3.986-8.904-8.904v-222.609c0-4.918 3.986-8.904 8.904-8.904 127.657 0 231.513 103.856 231.513 231.513 0 4.918-3.986 8.904-8.904 8.904zm-213.705-17.808h204.618c-4.566-110.767-93.852-200.052-204.618-204.618z" fill="rgb(0,0,0)"/></g></g></g></svg>