<svg id="Layer_1" enable-background="new 0 0 500 500" viewBox="0 0 500 500" xmlns="http://www.w3.org/2000/svg"><path clip-rule="evenodd" d="m130.117 412.916h-29.677v-27.931h29.677zm2.286-40.629h-34.249c-5.744 0-10.413 4.67-10.413 10.413v32.503c0 5.744 4.669 10.413 10.413 10.413h34.249c5.738 0 10.413-4.67 10.413-10.413v-32.503c0-5.744-4.675-10.413-10.413-10.413zm-2.286-50.274h-29.677v-27.937h29.677zm2.286-40.63h-34.249c-5.744 0-10.413 4.669-10.413 10.407v32.509c0 5.738 4.669 10.413 10.413 10.413h34.249c5.738 0 10.413-4.675 10.413-10.413v-32.509c0-5.738-4.675-10.407-10.413-10.407zm60.693 12.693h29.677v27.937h-29.677zm-2.286 40.636h34.249c5.738 0 10.413-4.675 10.413-10.413v-32.509c0-5.738-4.675-10.407-10.413-10.407h-34.249c-5.738 0-10.413 4.669-10.413 10.407v32.509c0 5.738 4.675 10.413 10.413 10.413zm-60.693-103.614h-29.677v-27.937h29.677zm2.286-40.636h-34.249c-5.744 0-10.413 4.675-10.413 10.413v32.509c0 5.744 4.669 10.413 10.413 10.413h34.249c5.738 0 10.413-4.67 10.413-10.413v-32.509c0-5.738-4.675-10.413-10.413-10.413zm60.693 12.699h29.677v27.937h-29.677zm-2.286 40.636h34.249c5.738 0 10.413-4.67 10.413-10.413v-32.509c0-5.738-4.675-10.413-10.413-10.413h-34.249c-5.738 0-10.413 4.675-10.413 10.413v32.509c0 5.743 4.675 10.413 10.413 10.413zm262.16 211.398c0 3.372-2.746 6.128-6.128 6.128h-134.74c.08-.626.132-1.258.132-1.913v-82.518c0-3.509-2.837-6.347-6.347-6.347h-17.007v-13.291c0-42.583 32.618-77.688 74.184-81.662l-26.432 128.409c-.448 2.223.31 4.515 2.005 6.025l28.075 24.95c2.407 2.136 6.034 2.137 8.431 0l28.08-24.95c1.694-1.51 2.458-3.802 1.993-6.025l-26.426-128.409c41.566 3.974 74.179 39.079 74.179 81.662v97.941zm-157.955 6.128c1.695 0 4.526.445 4.526-1.913v-59.032l-28.281 17.656c-9.305 5.809-16.836 4.899-27.064 4.899v3.515c0 3.515-2.849 6.352-6.352 6.352-3.509 0-6.347-2.837-6.347-6.352v-3.515c-10.227 0-17.771.909-27.069-4.899l-28.276-17.656v59.032c0 1.034.873 1.913 1.907 1.913zm-80.886-90.777 4.543-9.534c1.011-2.125 2.86-3.291 5.209-3.291h27.925c2.349 0 4.199 1.166 5.204 3.291l4.549 9.534zm85.412 14.865v-2.165h-123.389v2.165l35.001 21.86c3.285 2.05 6.479 2.964 10.35 2.964h9.994v-3.63c0-3.498 2.837-6.347 6.347-6.347 3.504 0 6.352 2.849 6.352 6.347v3.63h9.994c3.871 0 7.065-.913 10.35-2.964zm-252.516-219.945v295.858h116.566c-.08-.626-.138-1.258-.138-1.913v-82.518c0-3.509 2.843-6.347 6.352-6.347h30.263l7.139-15.002c3.096-6.484 9.477-10.522 16.673-10.522h27.925c7.191 0 13.578 4.038 16.668 10.522l7.151 15.002h.557v-205.08c0-5.904-4.796-10.7-10.689-10.7h-207.773c-5.893 0-10.694 4.796-10.694 10.7zm33.858-49.401h161.44v26.001h-161.44zm33.859-48.366h93.729v35.667h-93.729zm212.196 150.838c0-24.255 19.735-43.99 43.99-43.99 24.25 0 43.99 19.735 43.99 43.99 0 24.249-19.741 43.984-43.99 43.984-24.255 0-43.99-19.735-43.99-43.984zm65.115 184.432-21.125-102.603-21.113 102.603 21.113 18.776zm8.041-135.848c16.473-9.931 27.518-27.988 27.518-48.585 0-31.257-25.427-56.689-56.684-56.689s-56.683 25.433-56.683 56.689c0 20.596 11.045 38.654 27.523 48.585-22.446 7.277-41.25 22.71-52.887 42.801v-144.456c0-12.906-10.494-23.399-23.388-23.399h-10.471v-32.348c0-3.515-2.843-6.353-6.347-6.353h-27.505v-42.02c0-3.509-2.849-6.347-6.353-6.347h-46.862v-22.675c0-3.509-2.837-6.347-6.347-6.347-3.515 0-6.352 2.837-6.352 6.347v22.676h-46.862c-3.503 0-6.352 2.837-6.352 6.347v42.02h-27.505c-3.509 0-6.347 2.837-6.347 6.353v32.348h-10.471c-12.894 0-23.388 10.494-23.388 23.399v302.21c0 3.498 2.838 6.347 6.347 6.347h406.163c10.384 0 18.827-8.455 18.827-18.828v-97.939c.001-42.068-27.557-77.81-65.574-90.136z" fill-rule="evenodd"/></svg>