<svg id="Capa_1" enable-background="new 0 0 512.176 512.176" height="512" viewBox="0 0 512.176 512.176" width="512" xmlns="http://www.w3.org/2000/svg"><g><g id="Page-1_93_"><g id="_x30_94---Forex" transform="translate(-1)"><path id="Shape_591_" d="m376.555 226.212c-2.364 0-4.676.247-7.014.367 15.704-22.667 24.107-49.591 24.081-77.167 0-75.405-61.128-136.533-136.533-136.533s-136.534 61.128-136.534 136.533c-.028 27.536 8.35 54.425 24.013 77.073-2.313-.119-4.617-.273-6.946-.273-66.602-.037-123.511 47.985-134.677 113.644s26.672 129.793 89.542 151.773 132.425-4.608 164.601-62.921c32.177 58.313 101.732 84.901 164.601 62.921 62.87-21.98 100.707-86.114 89.542-151.773s-68.075-113.681-134.676-113.644zm-238.934-76.8c0-65.98 53.487-119.467 119.467-119.467s119.467 53.487 119.467 119.467c-.136 56.305-39.451 104.923-94.481 116.838-15.746 3.31-31.996 3.423-47.787.333-17.932-17.965-40.474-30.632-65.143-36.608-20.313-21.904-31.576-50.689-31.523-80.563zm119.51 147.456c-2.15-3.883-4.446-7.68-6.946-11.281 2.304.111 4.582.358 6.903.358s4.693-.247 7.049-.367c-2.523 3.645-4.861 7.412-7.006 11.29zm-119.51 185.344c-59.976.036-110.683-44.401-118.516-103.863s29.635-115.516 87.574-131.013 118.388 14.366 141.286 69.799c-10.592 29.488-10.592 61.742 0 91.23-18.594 44.557-62.063 73.647-110.344 73.847zm238.934 0c-49.373-.187-93.606-30.559-111.514-76.57-16.398-42.255-7.269-90.162 23.518-123.426 24.777-5.824 47.399-18.546 65.246-36.693 7.493-1.483 15.112-2.235 22.75-2.244 65.98 0 119.467 53.487 119.467 119.467s-53.488 119.466-119.467 119.466z"/><path id="Shape_590_" d="m171.755 328.612c0 4.713 3.821 8.533 8.533 8.533 4.713 0 8.533-3.821 8.533-8.533 0-21.094-18.492-38.622-42.667-42.027v-17.707c0-4.713-3.821-8.533-8.533-8.533-4.713 0-8.533 3.821-8.533 8.533v17.707c-24.175 3.413-42.667 20.932-42.667 42.027 0 21.094 18.492 38.622 42.667 42.027v50.935c-14.677-2.867-25.6-12.8-25.6-24.695 0-4.713-3.821-8.533-8.533-8.533-4.713 0-8.533 3.82-8.533 8.533 0 21.094 18.492 38.622 42.667 42.027v17.707c0 4.713 3.821 8.533 8.533 8.533 4.713 0 8.533-3.82 8.533-8.533v-17.707c24.175-3.413 42.667-20.932 42.667-42.027 0-21.094-18.492-38.622-42.667-42.027v-50.935c14.677 2.867 25.6 12.8 25.6 24.695zm-68.267 0c0-11.895 10.923-21.828 25.6-24.695v49.391c-14.677-2.868-25.6-12.8-25.6-24.696zm68.267 68.267c0 11.895-10.923 21.828-25.6 24.695v-49.391c14.677 2.868 25.6 12.8 25.6 24.696z"/><path id="Shape_589_" d="m385.088 303.012c16.014.29 30.841 8.506 39.578 21.931 2.686 3.874 8.004 4.837 11.878 2.15 3.874-2.686 4.837-8.004 2.15-11.878-11.899-18.053-31.986-29.021-53.606-29.269-30.317 1.177-56.353 21.915-64.282 51.2h-21.052c-4.713 0-8.533 3.82-8.533 8.533s3.821 8.533 8.533 8.533h17.51c-.273 2.807-.444 5.649-.444 8.533s.171 5.726.444 8.533h-17.51c-4.713 0-8.533 3.82-8.533 8.533s3.821 8.533 8.533 8.533h21.052c7.929 29.285 33.965 50.023 64.282 51.2 21.621-.249 41.707-11.216 53.606-29.269 2.686-3.874 1.724-9.192-2.15-11.878s-9.192-1.724-11.878 2.15c-8.736 13.424-23.563 21.64-39.578 21.931-20.917-.892-39.196-14.4-46.191-34.133h46.191c4.713 0 8.533-3.821 8.533-8.533s-3.821-8.533-8.533-8.533h-50.62c-.774-5.663-.774-11.404 0-17.067h50.62c4.713 0 8.533-3.82 8.533-8.533s-3.821-8.533-8.533-8.533h-46.191c6.995-19.734 25.274-33.241 46.191-34.134z"/><path id="Shape_588_" d="m253.103 217.679c18.651 9.867 40.994 9.784 59.571-.222 4.053-2.408 5.386-7.646 2.978-11.699s-7.646-5.386-11.699-2.978c-13.449 7.018-29.496 6.944-42.88-.196-12.698-7.772-28.244-9.342-42.24-4.267 2.234-13.351 3.551-26.84 3.942-40.371h51.379c4.713 0 8.533-3.821 8.533-8.533 0-4.713-3.82-8.533-8.533-8.533h-51.2v-20.386c0-21.208 17.192-38.4 38.4-38.4s38.4 17.192 38.4 38.4c0 4.713 3.82 8.533 8.533 8.533s8.533-3.821 8.533-8.533c0-30.633-24.833-55.467-55.467-55.467s-55.467 24.833-55.467 55.467v20.386h-17.067c-4.713 0-8.533 3.821-8.533 8.533 0 4.713 3.821 8.533 8.533 8.533h16.802c-.598 19.77-3.286 39.42-8.021 58.624-.633 2.549-.057 5.247 1.561 7.315s4.099 3.276 6.725 3.275c.331.002.662-.018.99-.06 2.568-.363 4.876-1.763 6.383-3.874 10.481-12.374 23.511-14.2 39.844-5.547z"/></g></g></g></svg>