<svg id="Capa_1" enable-background="new 0 0 471.872 471.872" height="512" viewBox="0 0 471.872 471.872" width="512" xmlns="http://www.w3.org/2000/svg"><g><g id="Layer_x0020_1_12_"><g id="_336182976"><path id="_336183504" d="m143.866 343.757c-1.101-3.776-5.043-5.952-8.819-4.864-3.776 1.101-5.952 5.043-4.864 8.819 6.106 20.992 20.147 39.168 39.168 51.981 18.432 12.403 41.536 19.802 66.586 19.802 29.914 0 57.075-10.547 76.787-27.584 19.994-17.293 32.358-41.242 32.358-67.75 0-26.842-12.403-47.168-32.55-62.682-19.302-14.874-45.696-25.126-74.867-32.435v-.013c-.192-.051-.384-.09-.576-.115-27.878-6.477-54.234-17.05-72.333-32.691-14.541-12.57-23.68-28.531-23.68-48.435 0-22.195 10.47-42.342 27.392-56.973 17.216-14.886 41.062-24.09 67.482-24.09 22.029 0 42.266 6.387 58.342 17.139 16.256 10.854 28.275 26.15 33.549 43.712 1.126 3.776 5.107 5.926 8.883 4.8s5.926-5.107 4.8-8.883c-6.259-20.8-20.326-38.797-39.309-51.482-18.394-12.288-41.382-19.597-66.278-19.597-29.914 0-57.075 10.547-76.787 27.584-19.994 17.293-32.358 41.242-32.358 67.75 0 24.525 11.059 44.019 28.646 59.226 20.019 17.306 48.512 28.851 78.413 35.814.115.038.23.064.358.102v-.013c27.469 6.874 52.083 16.358 69.619 29.862 16.691 12.851 26.97 29.542 26.97 51.405 0 22.195-10.47 42.342-27.392 56.973-17.203 14.874-41.05 24.077-67.456 24.077-22.17 0-42.522-6.477-58.662-17.344-16.283-10.969-28.277-26.393-33.422-44.095z"/><path id="_336183216" d="m243.104 7.155c0-3.942-3.2-7.155-7.155-7.155-3.942 0-7.155 3.2-7.155 7.155v457.562c0 3.942 3.2 7.155 7.155 7.155 3.942 0 7.155-3.2 7.155-7.155z"/></g></g></g></svg>