<svg fill="none" height="24" viewBox="0 0 24 24" width="24" xmlns="http://www.w3.org/2000/svg"><path clip-rule="evenodd" d="m1.14645 1.14645c.19526-.195266.51184-.195266.7071 0l21.00005 20.99995c.1952.1953.1952.5119 0 .7072-.1953.1952-.5119.1952-.7072 0l-4.5149-4.515c-1.2918 1.127-2.5767 2.0095-3.539 2.6109-.4855.3035-.8915.537-1.1785.6959-.1435.0794-.2575.1403-.3369.182-.0397.0208-.0707.0369-.0926.0481l-.0258.0131-.0075.0038-.004.002c-.2815.1408-.6129.1408-.8944 0l.4472-.8944s2.4487-1.2244 4.9227-3.3702l-13.30643-13.30642c-1.11018 1.10361-1.61627 2.72446-1.61627 4.17661 0 7.50001 10 12.50001 10 12.50001-.4472.8944-.4487.8937-.4487.8937l-.0024-.0013-.0076-.0038-.0258-.0131c-.0218-.0112-.0529-.0273-.0926-.0481-.0794-.0417-.1934-.1026-.3369-.182-.2869-.1589-.693-.3924-1.17849-.6959-.96896-.6056-2.26513-1.4962-3.56601-2.6344-2.55975-2.2398-5.3415-5.6187-5.3415-9.81511 0-1.42996.42505-3.02899 1.39314-4.29495.1582-.20688.33024-.4038.51609-.5887l-1.76278-1.76279c-.195266-.19526-.195266-.51184 0-.7071zm19.27505 14.25365c-.1801.2359-.526.2528-.7359.0429-.1812-.1812-.1958-.4693-.0407-.6733 1.3612-1.7892 2.3551-3.9052 2.3551-6.2697 0-2.5-1.5-5.5-5-5.5-2.2237 0-3.6401 1.21103-4.3774 2.09422-.4231.50688-.6226.90578-.6226.90578s-.1994-.3989-.6226-.90578c-.6847-.82032-1.9554-1.92346-3.91468-2.07636-.13796-.01077-.26933-.06711-.36718-.16497-.32758-.32758-.12639-.86965.33597-.84065.53233.03338 1.06071.12981 1.56848.29068 1.05801.33521 1.88431.90237 2.49081 1.46228.1903.17566.3598.35118.5092.5196.1495-.16842.3189-.34394.5092-.5196.9466-.87376 2.4281-1.7652 4.4908-1.7652 2.0756 0 3.6139.90658 4.6069 2.20505.9681 1.26596 1.3931 2.86499 1.3931 4.29495 0 2.6542-1.1128 4.9814-2.5785 6.9001z" fill="rgb(0,0,0)" fill-rule="evenodd"/></svg>