<svg id="Capa_1" enable-background="new 0 0 512 512" viewBox="0 0 512 512" xmlns="http://www.w3.org/2000/svg"><g><g><path d="m425 200c-14.774 0-26.794 12.02-26.794 26.794v10.262c-7.71 1.675-13.506 8.544-13.506 16.749v26.047c0 9.455 7.691 17.147 17.146 17.147h46.307c9.455 0 17.146-7.692 17.146-17.147v-26.047c0-8.205-5.795-15.074-13.506-16.749v-10.262c.001-14.774-12.019-26.794-26.793-26.794zm-11.794 26.794c0-6.503 5.291-11.794 11.794-11.794s11.794 5.291 11.794 11.794v9.865h-23.588zm37.094 53.059c0 1.184-.963 2.147-2.146 2.147h-46.307c-1.184 0-2.146-.963-2.146-2.147v-26.047c0-1.184.963-2.147 2.146-2.147h46.307c1.184 0 2.146.963 2.146 2.147z"/><path d="m303.744 287.578c3.496-1.093 5.756-4.336 5.756-8.335l-.467-48.315c-.04-4.118-3.39-7.428-7.498-7.428-.024 0-.05 0-.074 0-4.143.04-7.468 3.43-7.428 7.572l.256 26.393-21.154-30.633c-1.864-2.7-5.267-3.875-8.404-2.898-3.133.977-5.268 3.878-5.268 7.16v49.906c0 4.142 3.357 7.5 7.5 7.5s7.5-3.358 7.5-7.5v-25.848l20.075 29.071c2.155 3.112 5.767 4.428 9.206 3.355z"/><path d="m249.463 281v-50c0-4.142-3.357-7.5-7.5-7.5s-7.5 3.358-7.5 7.5v50c0 4.142 3.357 7.5 7.5 7.5s7.5-3.358 7.5-7.5z"/><path d="m195.382 238.5c3.507 0 6.889 1.032 9.779 2.984 3.433 2.319 8.095 1.416 10.413-2.017s1.416-8.095-2.017-10.413c-5.38-3.634-11.665-5.555-18.176-5.555-17.921 0-32.5 14.58-32.5 32.5s14.579 32.5 32.5 32.5c17.122 0 29.081-13.364 29.081-32.5 0-4.142-3.357-7.5-7.5-7.5h-14.957c-4.143 0-7.5 3.358-7.5 7.5s3.357 7.5 7.5 7.5h6.381c-1.739 5.564-5.733 10-13.005 10-9.649 0-17.5-7.851-17.5-17.5s7.851-17.499 17.501-17.499z"/><path d="m60.006 223.5c-4.143 0-7.5 3.358-7.5 7.5v49.958c0 3.653 2.633 6.775 6.233 7.392.54.093.896.154 6.479.154 2.693 0 6.604-.015 12.337-.046 4.142-.023 7.481-3.4 7.458-7.542-.023-4.128-3.377-7.458-7.499-7.458h-.043c-3.393.019-6.966.033-9.966.039v-42.497c.001-4.142-3.357-7.5-7.499-7.5z"/><path d="m90.014 256c0 17.92 14.579 32.5 32.5 32.5s32.5-14.58 32.5-32.5-14.579-32.5-32.5-32.5-32.5 14.58-32.5 32.5zm50 0c0 9.649-7.851 17.5-17.5 17.5s-17.5-7.851-17.5-17.5 7.851-17.5 17.5-17.5 17.5 7.851 17.5 17.5z"/><path d="m266 330h-198.5c-28.948 0-52.5-23.551-52.5-52.5v-43c0-28.949 23.552-52.5 52.5-52.5h51.5c4.143 0 7.5-3.358 7.5-7.5s-3.357-7.5-7.5-7.5h-51.5c-37.22 0-67.5 30.28-67.5 67.5v43c0 37.22 30.28 67.5 67.5 67.5h198.5c4.143 0 7.5-3.358 7.5-7.5s-3.357-7.5-7.5-7.5z"/><path d="m423 167h-269c-4.143 0-7.5 3.358-7.5 7.5s3.357 7.5 7.5 7.5h219.615c-5.688 3.789-10.962 8.245-15.686 13.31-2.826 3.028-2.662 7.774.367 10.6 3.028 2.826 7.775 2.661 10.6-.368 14.165-15.181 33.378-23.542 54.104-23.542 40.804 0 74 33.196 74 74s-33.196 74-74 74-74-33.196-74-74c0-7.857 1.243-15.628 3.696-23.098 1.292-3.936-.851-8.173-4.786-9.465-3.938-1.294-8.174.851-9.466 4.786-2.949 8.982-4.444 18.328-4.444 27.777 0 30.815 15.744 58.019 39.608 74h-72.608c-4.143 0-7.5 3.358-7.5 7.5s3.357 7.5 7.5 7.5h122c49.075 0 89-39.925 89-89s-39.925-89-89-89z"/></g></g><g/><g/><g/><g/><g/><g/><g/><g/><g/><g/><g/><g/><g/><g/><g/></svg>