<svg id="Layer_1" enable-background="new 0 0 24 24" height="512" viewBox="0 0 24 24" width="512" xmlns="http://www.w3.org/2000/svg"><g><g><path d="m9 11h-6c-1.1 0-2-.9-2-2v-6c0-1.1.9-2 2-2h6c1.1 0 2 .9 2 2v6c0 1.1-.9 2-2 2zm-6-8v6h6v-6z" fill="rgb(0,0,0)"/></g><g><path d="m9 23h-6c-1.1 0-2-.9-2-2v-6c0-1.1.9-2 2-2h6c1.1 0 2 .9 2 2v6c0 1.1-.9 2-2 2zm-6-8v6h6v-6z" fill="rgb(0,0,0)"/></g><g><path d="m21 11h-6c-1.1 0-2-.9-2-2v-6c0-1.1.9-2 2-2h6c1.1 0 2 .9 2 2v6c0 1.1-.9 2-2 2zm-6-8v6h6v-6z" fill="rgb(0,0,0)"/></g><g><path d="m22 15h-8c-.6 0-1-.4-1-1s.4-1 1-1h8c.6 0 1 .4 1 1s-.4 1-1 1z" fill="rgb(0,0,0)"/></g><g><path d="m22 19h-4c-.6 0-1-.4-1-1s.4-1 1-1h4c.6 0 1 .4 1 1s-.4 1-1 1z" fill="rgb(0,0,0)"/></g><g><path d="m22 23h-8c-.6 0-1-.4-1-1s.4-1 1-1h8c.6 0 1 .4 1 1s-.4 1-1 1z" fill="rgb(0,0,0)"/></g></g></svg>