<?xml version="1.0"?>
<svg xmlns="http://www.w3.org/2000/svg" viewBox="0 0 32 32"><g id="Layer_2" data-name="Layer 2"><path d="M26,3a4.004,4.004,0,0,0-4,4H9.0483A7.0565,7.0565,0,0,0,2,14.0479v3.9043A7.0565,7.0565,0,0,0,9.0483,25H22a4,4,0,0,0,8,0V7a4.0044,4.0044,0,0,0-4-4Zm0,24a2.0026,2.0026,0,0,1-2-2h4A2.0026,2.0026,0,0,1,26,27Zm2-4H9.0483A5.0539,5.0539,0,0,1,4,17.9521V14.0479A5.0539,5.0539,0,0,1,9.0483,9H28ZM24,7a2,2,0,0,1,4,0Z"/><path d="M15,21a1,1,0,0,0,1-1V17h2a1,1,0,0,0,0-2H16V13h2a1,1,0,0,0,0-2H15a1,1,0,0,0-1,1v8A1,1,0,0,0,15,21Z"/><path d="M22,21a.9994.9994,0,0,0,1-1V17h2a1,1,0,0,0,0-2H23V13h2a1,1,0,0,0,0-2H22a.9994.9994,0,0,0-1,1v8A.9994.9994,0,0,0,22,21Z"/><path d="M6,14v4a3,3,0,0,0,6,0V14a3,3,0,0,0-6,0Zm4,0v4a1,1,0,0,1-2,0V14a1,1,0,0,1,2,0Z"/></g></svg>
