<svg viewBox="0 0 96 96" xmlns="http://www.w3.org/2000/svg"><g id="Layer_1"/><g id="Layer_2"/><g id="Layer_3"/><g id="Layer_4"><path d="m48 4c-24.26 0-43.997 19.737-43.997 44 0 24.262 19.737 44 43.997 44s43.997-19.738 43.997-44c0-24.263-19.737-44-43.997-44zm0 83.54c-21.804 0-39.543-17.736-39.543-39.54s17.739-39.54 39.543-39.54 39.543 17.736 39.543 39.54-17.739 39.54-39.543 39.54z"/><path d="m48 60.77c-6.068 0-11.873 2.904-15.528 7.767-.738.984-.541 2.382.443 3.116.983.745 2.379.549 3.119-.44 2.817-3.747 7.29-5.983 11.966-5.983 4.675 0 9.147 2.235 11.964 5.983.438.582 1.107.892 1.782.892.466 0 .936-.147 1.337-.451.984-.734 1.181-2.132.443-3.116-3.654-4.863-9.458-7.768-15.526-7.768z"/><path d="m36.694 43.611c-.623-1.066-1.982-1.436-3.049-.794-5.039 2.953-8.605 1.523-8.796 1.447-1.109-.495-2.419-.005-2.93 1.104-.514 1.115-.024 2.442 1.093 2.953.125.06 1.79.8 4.427.8 2.235 0 5.17-.533 8.46-2.464 1.061-.62 1.418-1.986.795-3.046z"/><path d="m71.152 44.264c-.148.054-3.726 1.523-8.797-1.447-1.066-.636-2.427-.266-3.049.794-.623 1.061-.266 2.426.794 3.046 3.289 1.931 6.223 2.464 8.458 2.464 2.638 0 4.302-.74 4.427-.8 1.105-.506 1.584-1.806 1.091-2.921-.492-1.109-1.805-1.626-2.924-1.136z"/></g></svg>