<?xml version="1.0"?>
<svg xmlns="http://www.w3.org/2000/svg" viewBox="0 0 100 100"><g id="Layer_2" data-name="Layer 2"><path d="M91,48H61.82a12,12,0,0,0-23.64,0H9a2,2,0,0,0,0,4H38.18a12,12,0,0,0,23.64,0H91a2,2,0,0,0,0-4ZM50,58a8,8,0,0,1-7.74-6,7.82,7.82,0,0,1,0-4,8,8,0,0,1,15.48,0,7.82,7.82,0,0,1,0,4A8,8,0,0,1,50,58Z"/><path d="M19,31A12,12,0,0,0,30.82,21H91a2,2,0,0,0,0-4H30.82A12,12,0,1,0,19,31Zm0-20a8,8,0,0,1,7.74,6,7.82,7.82,0,0,1,0,4,8,8,0,0,1-15.48,0,7.82,7.82,0,0,1,0-4A8,8,0,0,1,19,11Z"/><path d="M81,69A12,12,0,0,0,69.18,79H9a2,2,0,0,0,0,4H69.18A12,12,0,1,0,81,69Zm0,20a8,8,0,0,1-7.74-6,7.82,7.82,0,0,1,0-4,8,8,0,0,1,15.48,0,7.82,7.82,0,0,1,0,4A8,8,0,0,1,81,89Z"/></g></svg>
