<svg viewBox="0 0 512.00885 512" xmlns="http://www.w3.org/2000/svg"><path d="m256.003906 512.003906c-141.171875 0-256.003906-114.832031-256.003906-255.996094 0-141.164062 114.832031-256.00390575 256.003906-256.00390575s256.003906 114.83203175 256.003906 256.00390575c0 141.171876-114.839843 255.996094-256.003906 255.996094zm0-479.242187c-123.09375 0-223.238281 100.144531-223.238281 223.238281s100.144531 223.246094 223.238281 223.246094 223.238282-100.144532 223.238282-223.238282-100.144532-223.246093-223.238282-223.246093zm0 0"/><path d="m335.089844 390c-2.964844 0-5.964844-.804688-8.671875-2.492188-21.949219-13.710937-36.101563-28.027343-49.804688-41.871093-19.988281-20.191407-39.015625-39.421875-83.335937-58.679688v86.660157c0 9.054687-7.332032 16.382812-16.382813 16.382812-9.054687 0-16.382812-7.328125-16.382812-16.382812v-110.578126c-.007813-.152343-.007813-.292968 0-.453124v-124.167969c0-9.054688 7.328125-16.382813 16.382812-16.382813h78.007813c57.769531 0 96.578125 31.574219 96.578125 78.578125 0 36.242188-25.292969 78.578125-96.578125 78.578125h-6.40625c23.136718 14.855469 37.796875 29.667969 51.402344 43.414063 12.949218 13.082031 25.179687 25.4375 43.878906 37.132812 7.667968 4.792969 10 14.902344 5.210937 22.578125-3.089843 4.960938-8.441406 7.683594-13.898437 7.683594zm-141.8125-143.574219h61.625c39.957031 0 63.8125-17.128906 63.8125-45.8125 0-28.257812-24.460938-45.8125-63.8125-45.8125h-61.625zm0 0"/></svg>