<svg id="line" viewBox="0 0 64 64" xmlns="http://www.w3.org/2000/svg"><path d="m32 4.07237a28.03142 28.03142 0 0 0 -28 28c1.53772 37.14583 54.46784 37.135 56-.00025a28.03146 28.03146 0 0 0 -28-27.99975zm-16.88069 47.75056c2.73938-20.08775 31.02664-20.07939 33.76132.00018-9.2738 8.26909-24.48923 8.2683-33.76132-.00018zm16.8806-17.16075a10.04122 10.04122 0 1 1 .00009-20.0781 10.04029 10.04029 0 1 1 -.00009 20.0781zm18.66239 15.48613a19.11569 19.11569 0 0 0 -13.3193-14.70842c11.56475-5.65454 7.666-22.68662-5.34319-22.85581-13.01055.17193-16.90727 17.20036-5.34265 22.85581a19.11559 19.11559 0 0 0 -13.3195 14.70842 25.98079 25.98079 0 0 1 18.66234-44.07594c22.88587-.05988 34.53722 27.92855 18.6623 44.07594z"/></svg>