<svg id="Capa_1" enable-background="new 0 0 512 512" height="512" viewBox="0 0 512 512" width="512" xmlns="http://www.w3.org/2000/svg"><g><path d="m184.993 260.157-63.041-150.379h-72.708c-21.403 0-38.709 17.409-38.709 38.812v343.979c0 17.306 20.891 25.908 33.077 13.722l79.978-79.978h227.749c21.403 0 38.709-17.306 38.709-38.709v-72.708z" fill="#00ad3c"/><path d="m462.756 0h-301.993c-21.403 0-38.709 17.306-38.709 38.709v71.069l170.737 99.046 97.257 105.969h72.708c21.403 0 38.709-17.306 38.709-38.709v-237.375c0-21.403-17.306-38.709-38.709-38.709z" fill="#00b970"/><path d="m351.339 109.778h-229.387v166.306c0 21.403 17.306 38.709 38.709 38.709h229.285v-166.203c.102-21.403-17.204-38.812-38.607-38.812z" fill="#00831e"/></g></svg>