<svg id="Capa_1" enable-background="new 0 0 512 512" height="512" viewBox="0 0 512 512" width="512" xmlns="http://www.w3.org/2000/svg"><g><path d="m416.328 255.367-72.161 158.61-71.799-158.429-43.586 30.917-1.266 68.373 49.193 108.694c13.744 30.383 38.883 48.468 67.458 48.468 28.394 0 53.714-18.085 67.278-48.469l49.916-108.513v-79.208z" fill="#004da9"/><path d="m411.806 48.288c-13.745-30.203-38.702-48.288-67.097-48.288-28.213 0-53.352 18.085-67.097 48.288l-48.834 108.705-41.304 26.629-3.366 72.467-44.85 99.472-44.901-100.123-42.427 16.741-2.557 82.296 29.479 65.289c12.117 26.947 34.724 43.043 60.406 43.043s48.288-16.096 60.406-43.043l145.045-321.741 116.651 256.995 45.575-99.832c.001-.181-95.129-206.898-95.129-206.898z" fill="#0085f7"/><path d="m199.664 92.417c-12.117-26.947-34.724-43.043-60.406-43.043s-48.288 16.095-60.405 43.043l-73.789 162.588 44.309 99.47 89.885-197.855 44.852 99.47 44.671-99.108z" fill="#004da9"/></g></svg>