<svg id="Layer_1" enable-background="new 0 0 24 24" height="512" viewBox="0 0 24 24" width="512" xmlns="http://www.w3.org/2000/svg"><switch><g><circle cx="12" cy="12" fill="#03b8ff" r="12"/><path d="m19.6 15.4-1.7-1 .7-.2c.4-.1.7-.5.6-1-.1-.4-.5-.7-1-.6 0 0 0 0-.1 0l-2.3.6-2.1-1.2 2.2-1.3 2.3.6h.2c.5.1.9-.3.9-.7.1-.5-.3-.9-.7-.9l-.7-.2 1.7-1c.4-.2.5-.7.3-1.1s-.7-.5-1.1-.3l-1.8 1 .2-.9c.1-.4-.1-.9-.5-1s-.9.1-1 .5v.1l-.7 2.5-2.1 1.3v-2.6l1.7-1.7c.3-.3.3-.8 0-1.2-.3-.3-.8-.3-1.2 0l-.5.5v-1.9c0-.5-.4-.8-.8-.8-.5 0-.8.4-.8.8v2l-.7-.7c-.3-.3-.8-.3-1.2 0-.4.4-.4.9-.1 1.3l1.8 1.8v2.5l-2.1-1.3-.6-2.4c-.1-.4-.5-.7-1-.6-.4.1-.7.5-.6 1v.1l.2.8-1.8-1c-.4-.3-.9-.2-1.1.2s-.1 1 .3 1.2l1.7.9-.7.2c-.5.1-.8.5-.7.9.1.5.5.8.9.7h.2l2.3-.6 2.2 1.2-2.2 1.3-2.3-.6c-.4-.2-.9.1-1.1.5s.1.9.5 1.1h.2l.7.2-1.7 1c-.4.2-.5.7-.3 1.1s.7.5 1.1.3l1.7-1-.2.9c-.1.4.1.9.5 1h.2c.4 0 .7-.2.8-.6l.7-2.5 2.1-1.3v2.7l-1.7 1.7c-.3.3-.3.8 0 1.2.2.2.4.2.6.2s.4-.1.6-.2l.5-.5v1.9c0 .5.4.8.8.8.5 0 .8-.4.8-.8v-2l.7.7c.3.3.8.3 1.2 0 .3-.3.3-.8 0-1.2l-1.8-1.8v-2.5l2.1 1.2.7 2.5c.1.4.4.6.8.6h.2c.4-.1.7-.6.6-1l-.1-1 1.8 1c.4.2.9.1 1.1-.3.2-.3.1-.9-.3-1.1z" fill="#fff"/></g></switch></svg>