<svg id="Layer_1" enable-background="new 0 0 65 65" height="65" viewBox="0 0 65 65" width="65" xmlns="http://www.w3.org/2000/svg"><g><g><path d="m36.713 62.447c-.543 0-1.087-.207-1.503-.623l-4.992-4.992c-.831-.83-.831-2.178 0-3.008l4.992-4.99c.831-.832 2.177-.832 3.009 0 .832.83.832 2.176 0 3.008l-3.49 3.486 3.489 3.49c.831.83.831 2.176 0 3.006-.416.416-.96.623-1.505.623z" fill="#105fa0"/></g><g><g><path d="m51.386 32.883c-.457.002-.828-.369-.828-.828.003-8.002-6.509-14.512-14.51-14.512-.459-.002-.829-.371-.829-.828 0-.459.37-.83.829-.828 8.916-.002 16.169 7.252 16.166 16.168.005.457-.368.828-.828.828z" fill="#105fa0"/></g><g><path d="m47.259 32.66c-.335 0-.606-.271-.606-.605 0-5.848-4.758-10.605-10.604-10.605-.334 0-.606-.271-.604-.604-.003-.334.27-.605.605-.605 6.514 0 11.812 5.299 11.812 11.812 0 .336-.267.607-.603.607z" fill="#105fa0"/></g><g><path d="m43.654 32.463c-.229 0-.412-.182-.409-.41-.003-3.965-3.229-7.191-7.195-7.191-.229 0-.415-.186-.413-.414-.002-.225.184-.41.413-.41 4.419 0 8.015 3.596 8.015 8.016-.001.229-.184.413-.411.409z" fill="#105fa0"/></g></g><path d="m34.726 28.252h-1.911v-15.639c0-.383-.241-.723-.604-.846-.362-.121-.762-.004-.996.297l-14.97 19.34c-.171.221-.218.504-.151.768-.009 0-.015-.004-.023-.004h-6.84l5.878-7.492c1.277-1.633 2.017-3.01 2.017-5.217 0-4.25-3.694-7.709-8.231-7.709-4.538 0-8.231 3.459-8.231 7.709 0 3.676 2.771 6.775 6.45 7.535l-6.428 8.324c-.207.27-.244.635-.094.939.149.307.461.502.802.502h14.676c.493 0 .893-.402.893-.895v-2.805c0-.078-.025-.146-.045-.221.012 0 .022.004.034.004h10.88v3.021c0 .492.399.895.894.895h3.196c.494 0 .893-.402.893-.895v-3.021h1.911c.493 0 .894-.398.894-.893v-2.805c-.001-.492-.401-.892-.894-.892zm-25.898-11.877c1.69 0 3.118 1.414 3.118 3.084 0 1.674-1.428 3.088-3.118 3.088-1.7 0-3.084-1.385-3.084-3.088 0-1.699 1.384-3.084 3.084-3.084zm19.004 7.424v4.453h-3.398z" fill="#d64505"/><path d="m36.865 2.553c-1.445 0-2.863.111-4.249.328v5.301c1.377-.266 2.797-.416 4.249-.416 12.364 0 22.42 10.057 22.42 22.42s-10.056 22.42-22.42 22.42c-1.438 0-2.606 1.168-2.606 2.607 0 1.441 1.168 2.607 2.606 2.607 15.238 0 27.635-12.396 27.635-27.635s-12.396-27.632-27.635-27.632z" fill="#105fa0"/><path d="m32.14 38.643h-1.177c-.176 0-.316.141-.316.314v3.16h-2.521v-3.16c0-.174-.14-.314-.315-.314h-1.178c-.175 0-.317.141-.317.314v8.084c0 .174.143.316.317.316h1.178c.176 0 .315-.143.315-.316v-3.252h2.521v3.252c0 .174.141.316.316.316h1.177c.176 0 .316-.143.316-.316v-8.084c0-.174-.141-.314-.316-.314z" fill="#55b2ff"/></g></svg>