<svg id="Layer_1" enable-background="new 0 0 65 65" height="65" viewBox="0 0 65 65" width="65" xmlns="http://www.w3.org/2000/svg"><g><g><g fill="#e82b0c"><path d="m5.363 20.967c.328-.369.488-.771.488-1.215 0-1.113-.879-1.986-2-1.986h-3.05c-.168 0-.302.135-.302.301v6.289c0 .164.134.299.302.299h3.09c1.179 0 2.174-.988 2.174-2.158 0-.602-.262-1.159-.702-1.53zm-2.977.959h1.226c.24 0 .446.211.446.461 0 .26-.196.463-.446.463h-1.226zm1.172-1.752h-1.172v-.629h1.172c.179 0 .328.143.328.314 0 .17-.15.315-.328.315z"/><path d="m12.346 17.766h-2.77c-.166 0-.299.135-.299.301v6.289c0 .164.133.299.299.299h1.285c.166 0 .301-.135.301-.299v-1.547h.541c.772 0 1.131.746 1.131 1.252v.295c0 .164.136.299.301.299h1.285c.166 0 .301-.135.301-.299v-.361c0-.635-.219-1.412-.799-1.896.494-.514.799-1.24.799-1.943 0-1.318-1.066-2.39-2.375-2.39zm-1.184 1.779h.85c.402 0 .742.34.742.742 0 .41-.332.742-.742.742h-.85z"/><path d="m22.058 22.85h-2.187v-.896h2.002c.164 0 .3-.135.3-.301v-1.178c0-.166-.136-.301-.3-.301h-2.002v-.602h2.133c.168 0 .301-.137.301-.301v-1.205c0-.166-.133-.301-.301-.301h-3.719c-.166 0-.299.135-.299.301v6.289c0 .164.133.299.299.299h3.772c.166 0 .304-.135.304-.299v-1.205c0-.166-.137-.3-.303-.3z"/><path d="m28.406 17.783c-.048-.107-.156-.178-.275-.178s-.227.07-.274.178l-2.85 6.449c-.041.092-.032.201.023.287.056.084.149.135.251.135h1.352c.121 0 .229-.07.277-.184l.391-.926h1.674l.377.924c.046.111.156.186.28.186h1.349.006c.166 0 .301-.135.301-.299 0-.066-.02-.125-.053-.172zm-.275 3.58.189.443h-.377z"/><path d="m37.494 20.865 1.93-2.621c.067-.092.077-.213.025-.314-.051-.1-.154-.164-.267-.164h-1.446c-.097 0-.189.047-.246.129l-1.354 1.924v-1.752c0-.166-.135-.301-.301-.301h-1.283c-.166 0-.3.135-.3.301v6.289c0 .164.134.299.3.299h1.283c.166 0 .301-.135.301-.299v-1.68l.184-.242 1.438 2.092c.056.08.148.129.248.129h1.618c.112 0 .216-.062.268-.162.052-.102.042-.221-.023-.312z"/><path d="m44.412 17.766h-1.285c-.165 0-.3.135-.3.301v6.289c0 .164.135.299.3.299h1.285c.166 0 .302-.135.302-.299v-6.289c0-.167-.136-.301-.302-.301z"/><path d="m53.763 17.766h-1.203c-.166 0-.3.135-.3.301v2.396l-2.214-2.592c-.058-.068-.14-.105-.229-.105h-1.123c-.166 0-.301.135-.301.301v6.289c0 .164.135.299.301.299h1.205c.165 0 .3-.135.3-.299v-3.652l3.335 4.004c.058.07.144.107.229.107.036 0 .069-.004.104-.018.119-.041.198-.156.198-.281v-6.449c0-.167-.134-.301-.302-.301z"/><path d="m64.456 20.693c-.025-.145-.15-.252-.297-.252h-3.385c-.168 0-.301.133-.301.301v1.178c0 .166.133.299.301.299h1.489c-.268.422-.734.777-1.41.777-.941 0-1.679-.771-1.679-1.76 0-.994.737-1.773 1.679-1.773.552 0 1.059.262 1.357.699.047.068.118.113.197.129.083.014.162-.008.229-.057l1.058-.775c.064-.047.107-.117.118-.197.014-.078-.007-.158-.055-.223-.684-.93-1.688-1.422-2.904-1.422-2.002 0-3.631 1.623-3.631 3.619 0 1.988 1.629 3.605 3.631 3.605 2.011 0 3.646-1.617 3.646-3.605.001-.187-.013-.363-.043-.543z"/></g><g><path d="m14.865 28.312h-2.412c-.325 0-.59.264-.59.592v9.422l-7.946-9.797c-.118-.137-.287-.217-.466-.217h-2.365c-.324 0-.586.264-.586.592v17.6c0 .326.262.59.586.59h2.418c.327 0 .593-.264.593-.59v-11.649l10.317 12.326c.115.139.28.213.451.213.07 0 .137-.008.201-.033.235-.086.391-.309.391-.557v-17.9c0-.328-.267-.592-.592-.592z" fill="#88b3ba"/><g fill="#6c959e"><path d="m28.92 43.396h-7.256v-4.771h6.748c.331 0 .598-.266.598-.596v-2.414c0-.324-.267-.588-.598-.588h-6.748v-3.066h7.104c.326 0 .594-.266.594-.594v-2.463c0-.328-.268-.592-.594-.592h-10.258c-.324 0-.59.264-.59.592v17.6c0 .326.266.59.59.59h10.41c.323 0 .59-.264.59-.59v-2.514c0-.328-.267-.594-.59-.594z"/><path d="m49.832 28.312h-2.688c-.238 0-.455.146-.551.369l-4 9.842-4.002-9.842c-.091-.223-.308-.369-.546-.369h-2.694c-.195 0-.381.098-.49.26-.112.164-.13.369-.055.553l3.403 8.473-.386.936-4.012-9.852c-.089-.223-.305-.369-.545-.369h-2.694c-.194 0-.382.098-.485.26-.11.164-.135.369-.06.555l7.239 17.898c.09.225.307.369.547.369.24 0 .46-.145.553-.367l1.839-4.535 1.841 4.535c.09.223.304.367.547.367.239 0 .459-.145.551-.369l7.235-17.898c.075-.186.054-.391-.054-.555-.112-.163-.297-.261-.493-.261z"/><path d="m58.932 35.83h-2.589c-1.089 0-1.971-.885-1.971-1.971 0-1.088.882-1.975 1.971-1.975h5.303c.325 0 .591-.266.591-.592v-2.389c0-.328-.266-.592-.591-.592h-5.606c-3.012 0-5.465 2.465-5.465 5.492 0 3.047 2.501 5.623 5.465 5.623h2.444c1.206 0 2.119.857 2.119 2 0 1.123-.913 1.969-2.119 1.969h-6.366c-.323 0-.589.266-.589.594v2.514c0 .326.266.59.589.59h6.814c3.068 0 5.568-2.553 5.568-5.691 0-3.074-2.5-5.572-5.568-5.572z"/></g></g></g><g fill="#88b3ba"><g><path d="m33.812 28.682c-.089-.223-.305-.369-.545-.369h-2.694c-.194 0-.382.098-.485.26-.11.164-.135.369-.06.555l2.197 5.433 2.829-2.829z"/><path d="m38.046 28.312h-2.694c-.195 0-.381.098-.49.26-.112.164-.13.369-.055.553l.818 2.035 2.747-2.747c-.095-.063-.208-.101-.326-.101z"/></g><path d="m28.412 35.027h-6.748v-3.066h7.104c.326 0 .594-.266.594-.594v-2.463c0-.328-.268-.592-.594-.592h-10.258c-.324 0-.59.264-.59.592v17.6c0 .326.266.59.59.59h1.182l3.697-3.697h-1.725v-4.771h6.496l.85-.85v-2.16c0-.325-.267-.589-.598-.589z"/></g></g></svg>