<svg id="Layer_1" enable-background="new 0 0 65 65" height="65" viewBox="0 0 65 65" width="65" xmlns="http://www.w3.org/2000/svg"><g><path d="m14.379 12.387c-10.781 10.781-10.781 28.324 0 39.105s28.324 10.781 39.105-.001c10.781-10.781 10.781-28.322 0-39.104s-28.324-10.782-39.105 0zm35.021 35.02c-3.598 3.599-13.959 1.255-23.074-7.861-7.404-7.403-10.338-15.628-9.256-20.383l26.408 26.406 4.084-4.083-26.464-26.465c5.361-1.361 14.297 3.168 20.441 9.312 7.315 7.316 12.344 18.592 7.861 23.074zm-30.935 0c-5.152-5.15-7.168-12.251-6.1-18.947 1.709 5.031 5.07 10.365 9.875 15.171 4.807 4.804 10.139 8.166 15.17 9.875-6.697 1.069-13.795-.946-18.945-6.099zm37.033-11.989c-1.709-5.031-5.07-10.364-9.875-15.168-4.805-4.807-10.139-8.168-15.17-9.877 6.699-1.072 13.797.947 18.947 6.099 5.151 5.15 7.17 12.248 6.098 18.946z" fill="#f94a28"/><ellipse cx="33.625" cy="32.246" fill="#f94a28" rx="25.557" ry="1.588" transform="matrix(.707 -.707 .707 .707 -12.953 33.22)"/><path d="m64.158 59.88c0 2.551-2.068 4.62-4.619 4.62h-51.213c-2.551 0-4.619-2.069-4.619-4.62v-15.788c0-2.551 2.068-4.62 4.619-4.62h51.213c2.551 0 4.619 2.069 4.619 4.62z" fill="#105fa0"/><path d="m59.539 39.472c2.551 0 4.619 2.069 4.619 4.62v15.788c0 2.551-2.068 4.62-4.619 4.62h-51.213c-2.551 0-4.619-2.069-4.619-4.62" fill="#093a56"/><g fill="#fff"><path d="m21.404 54.115h-3.141v-6.728c0-.289-.232-.523-.521-.523h-1.832c-.289 0-.523.234-.523.523v8.967c0 .288.234.523.523.523h5.494c.289 0 .523-.235.523-.523v-1.717c.001-.288-.234-.522-.523-.522z"/><path d="m28.734 46.864h-1.832c-.289 0-.523.234-.523.523v8.967c0 .288.234.523.523.523h1.832c.289 0 .521-.235.521-.523v-8.967c.001-.288-.232-.523-.521-.523z"/><path d="m41.555 46.864h-1.832c-.213 0-.408.131-.486.332l-1.535 3.897-1.535-3.897c-.08-.201-.271-.332-.488-.332h-1.83c-.176 0-.338.089-.434.234-.098.146-.115.33-.049.49l3.854 9.197c.082.194.271.32.482.32s.4-.126.482-.32l3.854-9.197c.068-.16.051-.345-.047-.49-.096-.145-.259-.234-.436-.234z"/><path d="m51.957 54.115h-3.029v-1.093h2.76c.289 0 .523-.233.523-.521v-1.679c0-.289-.234-.523-.523-.523h-2.76v-.671h2.951c.289 0 .523-.234.523-.523v-1.717c0-.289-.234-.523-.523-.523h-5.303c-.289 0-.523.234-.523.523v8.967c0 .288.234.523.523.523h5.381c.289 0 .521-.235.521-.523v-1.717c.001-.289-.232-.523-.521-.523z"/></g><path d="m10.732 44.188c0 1.329-1.078 2.406-2.406 2.406-1.33 0-2.408-1.077-2.408-2.406 0-1.33 1.078-2.406 2.408-2.406 1.328 0 2.406 1.076 2.406 2.406z" fill="#f94a28"/><path d="m8.326 41.782c1.328 0 2.406 1.076 2.406 2.406 0 1.329-1.078 2.406-2.406 2.406" fill="#ff9750"/><g><g><path d="m16.232 1.25c.002.414-.334.75-.75.75-7.246 0-13.14 5.895-13.14 13.142-.002.415-.336.75-.75.75-.416 0-.752-.335-.75-.75-.002-8.075 6.566-14.642 14.64-14.642.414-.003.75.334.75.75z" fill="#105fa0"/></g><g><path d="m16.031 4.988c0 .304-.246.55-.549.55-5.295 0-9.604 4.309-9.604 9.604 0 .302-.246.549-.547.547-.303.001-.549-.245-.549-.549 0-5.898 4.799-10.698 10.697-10.698.306-.001.552.243.552.546z" fill="#105fa0"/></g><g><path d="m15.854 8.253c0 .207-.166.373-.373.372-3.59.001-6.512 2.923-6.512 6.515 0 .207-.168.374-.375.373-.203.001-.371-.165-.371-.373 0-4.002 3.256-7.259 7.258-7.259.208.001.374.167.373.372z" fill="#105fa0"/></g></g></g></svg>