<svg id="Layer_1" enable-background="new 0 0 65 65" height="65" viewBox="0 0 65 65" width="65" xmlns="http://www.w3.org/2000/svg"><g><path d="m60.294 20.339h-12.23c-.545-5.054-4.82-8.989-10.02-8.989h-11.088c-5.199 0-9.475 3.936-10.02 8.989h-12.229c-1.817 0-3.29 1.474-3.29 3.289v35.303c0 1.815 1.473 3.288 3.29 3.288h55.587c1.818 0 3.289-1.473 3.289-3.288v-35.303c0-1.816-1.471-3.289-3.289-3.289zm-19.756 2.458c0 2.865-2.322 5.188-5.186 5.188h-5.705c-2.865 0-5.186-2.322-5.186-5.188v-1.555c0-2.865 2.32-5.187 5.186-5.187h5.705c2.863 0 5.186 2.321 5.186 5.187z" fill="#c63205"/><path d="m60.294 22.859h-12.23c-.545-5.052-4.82-8.988-10.02-8.988h-11.088c-5.199 0-9.475 3.937-10.02 8.988h-12.229c-1.817 0-3.29 1.473-3.29 3.289v32.782c0 1.815 1.473 3.288 3.29 3.288h55.587c1.818 0 3.289-1.473 3.289-3.288v-32.782c0-1.816-1.471-3.289-3.289-3.289zm-19.756-.062c0 2.865-2.322 5.188-5.186 5.188h-5.705c-2.865 0-5.186-2.322-5.186-5.188v-1.555c0-2.865 2.32-5.187 5.186-5.187h5.705c2.863 0 5.186 2.321 5.186 5.187z" fill="#aa2102"/><path d="m60.058 56.349c0 1.501-1.219 2.718-2.721 2.718h-49.674c-1.502 0-2.72-1.217-2.72-2.718v-23.798c0-1.502 1.218-2.719 2.72-2.719h49.674c1.502 0 2.721 1.217 2.721 2.719z" fill="#d1e6ed"/><path d="m38.884 20.256v-11.09c0-3.526-2.859-6.385-6.385-6.385s-6.383 2.858-6.383 6.385v11.09z" fill="#177add"/><path d="m38.884 20.256v-11.09c0-3.526-2.859-6.385-6.385-6.385s-6.383 2.858-6.383 6.385" fill="#085bbf"/><g><path d="m8.138 32.64h23.199v22.16h-23.199z" fill="#97b8bf"/><g><path d="m24.489 37.65c0 2.106-1.709 3.813-3.814 3.813h-1.877c-2.104 0-3.812-1.707-3.812-3.813 0-2.107 1.708-3.814 3.812-3.814h1.877c2.105 0 3.814 1.707 3.814 3.814z" fill="#00233f"/><path d="m16.569 43.23h6.336v5.249h-6.336z" fill="#f9bda0"/><path d="m22.905 48.479h-3.178l-3.158-5.249h6.336z" fill="#e28f71"/><path d="m24.437 39.03c0 3.722-2.297 7.089-4.701 7.089-2.401 0-4.699-3.367-4.699-7.089s2.298-4.341 4.699-4.341c2.404 0 4.701.62 4.701 4.341z" fill="#fcccb9"/><path d="m19.735 34.689c2.404 0 4.701.619 4.701 4.341s-2.297 7.089-4.701 7.089" fill="#f9bda0"/><path d="m21.157 34.433c0 .476-.385.862-.859.862h-1.121c-.477 0-.861-.387-.861-.862 0-.476.385-.861.861-.861h1.121c.474-.001.859.385.859.861z" fill="#00233f"/><g><g><path d="m16.39 46.895-8.2 2.982v6.383h11.228z" fill="#0c537a"/><path d="m16.39 46.895-6.694 3.82-1.506 5.545h11.228z" fill="#00233f"/><path d="m16.407 46.367-1.926.808 1.368 3.665 3.569 5.42v-7.719z" fill="#d6d6d6"/><path d="m16.407 46.367 3.228 2.174-3.786 1.988z" fill="#fff"/></g><g><path d="m23.083 46.895 8.199 2.982v6.383h-11.226z" fill="#0c537a"/><path d="m23.083 46.895 6.695 3.82 1.504 5.545h-11.226z" fill="#00233f"/><path d="m23.067 46.367 1.926.808-1.366 3.665-3.571 5.42v-7.719z" fill="#d6d6d6"/><path d="m23.067 46.367-3.23 2.174 3.79 1.988z" fill="#fff"/></g></g><g><path d="m18.89 49.039.435.683-.683 5.59.779.948h.34v-7.719z" fill="#0c537a"/><path d="m20.584 49.039-.437.683.684 5.59-.777.948h-.34v-7.719z" fill="#00233f"/></g></g></g><path d="m34.286 9.48c-.629.984-1.935 1.275-2.924.649-.984-.628-1.273-1.937-.646-2.921.629-.985 1.937-1.276 2.924-.648.98.628 1.271 1.934.646 2.92z" fill="#97b8bf"/><g fill="#97b8bf"><path d="m56.288 49.615c0 .359-.424.65-.945.65h-18.903c-.521 0-.945-.291-.945-.65 0-.357.424-.648.945-.648h18.902c.522 0 .946.291.946.648z"/><path d="m56.288 54.783c0 .357-.424.648-.945.648h-18.903c-.521 0-.945-.291-.945-.648 0-.359.424-.65.945-.65h18.902c.522 0 .946.291.946.65z"/></g><g fill="#aa2102"><path d="m37.755 35.196h-1.941c-.071 0-.127.058-.127.129v4.409c0 .071.056.128.127.128h.901c.07 0 .128-.057.128-.128v-1.298h.912c.858 0 1.584-.756 1.584-1.649 0-.877-.709-1.591-1.584-1.591zm-.912 1.083h.746c.295 0 .537.24.537.537 0 .296-.242.538-.537.538h-.746z"/><path d="m42.317 35.196h-1.945c-.07 0-.126.058-.126.129v4.409c0 .071.056.128.126.128h.902c.071 0 .127-.057.127-.128v-1.167h.465c.597 0 .875.572.875.96v.207c0 .071.057.128.128.128h.901c.071 0 .127-.057.127-.128v-.254c0-.45-.16-1.007-.602-1.32.371-.349.602-.868.602-1.373 0-.877-.709-1.591-1.58-1.591zm-.916 1.083h.681c.326 0 .603.276.603.603 0 .333-.27.604-.603.604h-.681z"/><path d="m47.72 38.76h-1.615v-.793h1.484c.07 0 .13-.057.13-.128v-.824c0-.072-.06-.13-.13-.13h-1.484v-.587h1.578c.072 0 .129-.058.129-.129v-.844c0-.071-.057-.129-.129-.129h-2.608c-.071 0-.128.058-.128.129v4.409c0 .071.057.128.128.128h2.646c.072 0 .13-.057.13-.128v-.844c-.001-.072-.059-.13-.131-.13z"/><path d="m50.609 36.923h-.524c-.182 0-.33-.149-.33-.332 0-.182.148-.331.33-.331h1.305c.069 0 .129-.058.129-.129v-.806c0-.071-.06-.129-.129-.129h-1.36c-.774 0-1.404.631-1.404 1.404s.63 1.404 1.404 1.404h.515c.219 0 .398.178.398.396s-.18.396-.398.396h-1.547c-.071 0-.129.058-.129.13v.807c0 .071.058.128.129.128h1.612c.771 0 1.472-.701 1.472-1.47-.001-.824-.647-1.468-1.473-1.468z"/><path d="m54.627 36.923h-.526c-.183 0-.332-.149-.332-.332 0-.182.149-.331.332-.331h1.304c.072 0 .13-.058.13-.129v-.806c0-.071-.058-.129-.13-.129h-1.358c-.775 0-1.405.631-1.405 1.404s.63 1.404 1.405 1.404h.516c.219 0 .396.178.396.396s-.178.396-.396.396h-1.549c-.071 0-.129.058-.129.13v.807c0 .071.058.128.129.128h1.614c.769 0 1.47-.701 1.47-1.47-.001-.824-.648-1.468-1.471-1.468z"/></g></g></svg>