<svg id="Layer_1" enable-background="new 0 0 65 65" height="65" viewBox="0 0 65 65" width="65" xmlns="http://www.w3.org/2000/svg"><g><g><g><g><g><g><path d="m52.794.5h-40.588c-1.725 0-3.121 1.398-3.121 3.123v41.59l20.058 19.287h23.651c1.725 0 3.121-1.397 3.121-3.121v-57.756c0-1.725-1.396-3.123-3.121-3.123z" fill="#0ee0b8"/><path d="m52.794.5h-40.588c-1.725 0-3.121 1.398-3.121 3.123v41.59l20.058 19.287h23.651c1.725 0 3.121-1.397 3.121-3.121v-57.756c0-1.725-1.396-3.123-3.121-3.123z" fill="#d2dbdb"/><path d="m55.915 50.379v-46.756c0-1.725-1.396-3.123-3.121-3.123h-25.587" fill="#c5d3d3"/><path d="m26.609 45.918v15.568c0 .223.03.44.076.651l2.399 2.309c.177.032.355.054.541.054h16.331l-19.323-18.582z" fill="#c5d3d3"/><path d="m26.609 45.918v15.568c0 .223.03.44.076.651l2.399 2.309c.177.032.355.054.541.054h8.332l-9.326-15.584z" fill="#acc1c1"/><path d="m29.143 64.5h.022v-16.128c0-1.724-1.397-3.121-3.121-3.121h-16.923z" fill="#acc1c1"/><path d="m9.121 45.251 20.022 19.249h.022v-16.128" fill="#93a4a5"/></g></g></g></g><g fill="#616b6b"><path d="m48.6 31.507c0 .438-.404.796-.899.796h-30.399c-.497 0-.899-.357-.899-.796 0-.438.402-.796.899-.796h30.398c.495 0 .9.357.9.796z"/><path d="m48.6 37.669c0 .439-.404.796-.899.796h-30.399c-.497 0-.899-.356-.899-.796 0-.438.402-.794.899-.794h30.398c.495 0 .9.355.9.794z"/></g></g><path d="m47.861 54.266c0 2.255-1.828 4.083-4.082 4.083h-4.932c-2.254 0-4.081-1.828-4.081-4.083v-4.932c0-2.255 1.827-4.081 4.081-4.081h4.932c2.254 0 4.082 1.826 4.082 4.081z" fill="#c63205"/><g><g><g fill="#c63205"><path d="m18.96 11.869c.165-.183.245-.385.245-.605 0-.554-.438-.99-.998-.99h-1.521c-.082 0-.15.066-.15.15v3.139c0 .081.068.146.15.146h1.542c.589 0 1.083-.49 1.083-1.076 0-.299-.131-.575-.351-.764zm-1.483.48h.608c.122 0 .225.104.225.231 0 .129-.099.229-.225.229h-.608zm.585-.873h-.586v-.313h.586c.087 0 .162.07.162.156.001.083-.075.157-.162.157z"/><path d="m22.446 10.273h-1.384c-.082 0-.149.066-.149.15v3.139c0 .081.067.146.149.146h.641c.084 0 .148-.065.148-.146v-.771h.276c.382 0 .561.373.561.623v.148c0 .081.065.146.149.146h.641c.085 0 .153-.065.153-.146v-.182c0-.316-.11-.705-.399-.945.246-.257.399-.619.399-.971.001-.657-.534-1.191-1.185-1.191zm-.594.889h.426c.202 0 .372.17.372.371 0 .203-.168.369-.372.369h-.426z"/><path d="m27.292 12.809h-1.094v-.445h1c.082 0 .148-.067.148-.15v-.588c0-.083-.066-.149-.148-.149h-1v-.3h1.064c.084 0 .149-.071.149-.15v-.602c0-.084-.065-.15-.149-.15h-1.855c-.081 0-.148.066-.148.15v3.139c0 .081.067.146.148.146h1.885c.08 0 .149-.065.149-.146v-.604c0-.083-.069-.151-.149-.151z"/><path d="m30.457 10.28c-.021-.05-.076-.087-.139-.087-.057 0-.112.037-.136.087l-1.422 3.22c-.018.046-.015.102.012.144.029.042.075.065.126.065h.675c.061 0 .116-.033.139-.09l.194-.463h.834l.189.461c.024.057.078.092.14.092h.674.002c.084 0 .15-.065.15-.146 0-.035-.01-.064-.025-.09zm-.139 1.788.096.223h-.188z"/><path d="m34.989 11.819.966-1.307c.031-.047.04-.106.01-.159-.021-.048-.076-.08-.132-.08h-.72c-.051 0-.096.023-.124.065l-.673.958v-.873c0-.084-.069-.15-.151-.15h-.642c-.08 0-.15.066-.15.15v3.139c0 .081.07.146.15.146h.642c.082 0 .151-.065.151-.146v-.841l.089-.12.717 1.044c.027.04.074.063.126.063h.807c.055 0 .105-.03.131-.08.029-.051.022-.109-.01-.156z"/><path d="m38.443 10.273h-.641c-.084 0-.152.066-.152.15v3.139c0 .081.068.146.152.146h.641c.082 0 .15-.065.15-.146v-3.139c.001-.083-.068-.15-.15-.15z"/><path d="m43.105 10.273h-.599c-.081 0-.149.066-.149.15v1.193l-1.107-1.29c-.024-.035-.066-.054-.111-.054h-.559c-.087 0-.151.066-.151.15v3.139c0 .081.064.146.151.146h.599c.084 0 .15-.065.15-.146v-1.823l1.662 1.997c.032.037.073.055.114.055.021 0 .037-.002.056-.012.057-.02.099-.076.099-.14v-3.216c0-.082-.067-.149-.155-.149z"/><path d="m48.439 11.734c-.01-.073-.07-.125-.144-.125h-1.688c-.086 0-.152.065-.152.148v.588c0 .083.066.149.152.149h.74c-.133.209-.363.387-.703.387-.469 0-.836-.385-.836-.877 0-.495.367-.886.836-.886.275 0 .529.132.678.35.022.034.06.057.098.064.042.008.082-.005.117-.027l.527-.388c.029-.024.053-.06.057-.099.008-.039-.004-.08-.027-.11-.341-.463-.844-.709-1.449-.709-.998 0-1.811.809-1.811 1.805 0 .993.812 1.798 1.811 1.798 1.005 0 1.82-.805 1.82-1.798 0-.093-.009-.18-.026-.27z"/></g><g><path d="m23.701 15.534h-1.203c-.162 0-.295.132-.295.298v4.699l-3.963-4.887c-.06-.069-.146-.11-.233-.11h-1.181c-.161 0-.291.132-.291.298v8.779c0 .161.13.294.291.294h1.207c.162 0 .295-.133.295-.294v-5.811l5.147 6.149c.06.07.141.106.226.106.035 0 .068-.003.101-.018.118-.041.196-.153.196-.276v-8.93c0-.165-.135-.297-.297-.297z" fill="#616b6b"/><g fill="#404949"><path d="m30.715 23.06h-3.62v-2.38h3.364c.165 0 .298-.131.298-.297v-1.205c0-.16-.133-.291-.298-.291h-3.364v-1.531h3.542c.164 0 .297-.131.297-.296v-1.228c0-.166-.133-.298-.297-.298h-5.117c-.16 0-.296.132-.296.298v8.779c0 .161.136.294.296.294h5.195c.161 0 .292-.133.292-.294v-1.254c0-.165-.131-.297-.292-.297z"/><path d="m41.147 15.534h-1.342c-.122 0-.227.073-.274.186l-1.995 4.91-1.999-4.91c-.043-.112-.151-.186-.272-.186h-1.345c-.096 0-.188.05-.24.132-.057.078-.066.183-.03.274l1.699 4.229-.194.465-1.999-4.915c-.044-.112-.153-.186-.274-.186h-1.344c-.096 0-.189.05-.239.132-.057.078-.069.183-.032.275l3.614 8.929c.043.113.15.186.27.186.122 0 .231-.072.278-.183l.915-2.264.921 2.264c.043.11.151.183.272.183.116 0 .229-.072.273-.186l3.61-8.929c.037-.093.028-.197-.027-.275-.055-.081-.151-.131-.246-.131z"/><path d="m45.688 19.285h-1.295c-.541 0-.979-.441-.979-.982s.438-.984.979-.984h2.646c.164 0 .297-.133.297-.296v-1.19c0-.166-.133-.298-.297-.298h-2.795c-1.506 0-2.729 1.229-2.729 2.741 0 1.52 1.249 2.807 2.729 2.807h1.219c.602 0 1.057.425 1.057.997 0 .561-.455.98-1.057.98h-3.178c-.162 0-.291.133-.291.298v1.254c0 .161.129.294.291.294h3.402c1.527 0 2.777-1.272 2.777-2.84.001-1.533-1.249-2.781-2.776-2.781z"/></g></g></g><g fill="#616b6b"><g><path d="m33.155 15.72c-.044-.112-.153-.186-.274-.186h-1.344c-.096 0-.189.05-.239.132-.057.078-.069.183-.032.275l1.097 2.712 1.413-1.412z"/><path d="m35.265 15.534h-1.345c-.096 0-.188.05-.24.132-.057.078-.066.183-.03.274l.408 1.015 1.373-1.371c-.05-.03-.105-.05-.166-.05z"/></g><path d="m30.459 18.887h-3.364v-1.531h3.542c.164 0 .297-.131.297-.296v-1.228c0-.166-.133-.298-.297-.298h-5.117c-.16 0-.296.132-.296.298v8.779c0 .161.136.294.296.294h.589l1.845-1.846h-.858v-2.38h3.238l.424-.424v-1.078c-.001-.159-.134-.29-.299-.29z"/></g></g></g></svg>