<svg enable-background="new 0 0 32 32" height="512" viewBox="0 0 32 32" width="512" xmlns="http://www.w3.org/2000/svg"><g id="Layer_1"><path d="m27.9731 19.1336c.0063-.0456.0269-.0862.0269-.1336v-6c0-6.6167-5.3828-12-12-12-6.6167 0-12 5.3833-12 12v6c0 .0474.0206.088.027.1337-1.7342.4375-3.027 1.9981-3.027 3.8663 0 2.2056 1.7944 4 4 4h6.1011c.4647 2.2793 2.4845 4 4.8989 4s4.4343-1.7207 4.8989-4h6.1011c2.2061 0 4-1.7944 4-4 0-1.8682-1.2924-3.4288-3.0269-3.8664zm-11.9731 9.8664c-1.3019 0-2.4016-.8385-2.8157-2h5.6314c-.4141 1.1615-1.5138 2-2.8157 2zm11-4h-22c-1.103 0-2-.897-2-2s.897-2 2-2h3.9771c.5522 0 1-.4478 1-1s-.4478-1-1-1h-2.9771v-6c0-5.5142 4.4858-10 10-10 5.5137 0 10 4.4858 10 10v6h-3.0645c-.5527 0-1 .4478-1 1s.4473 1 1 1h4.0645c1.1025 0 2 .897 2 2s-.8975 2-2 2z" fill="rgb(0,0,0)"/></g></svg>