<svg height="512" viewBox="0 0 24 24" width="512" xmlns="http://www.w3.org/2000/svg"><g id="Group"><path d="m12 13a3 3 0 1 0 -3-3 3.0033 3.0033 0 0 0 3 3zm0-4a1 1 0 1 1 -1 1 1.0009 1.0009 0 0 1 1-1z"/><circle cx="18" cy="7" r="2"/><path d="m18 11a3.9985 3.9985 0 0 0 -3.93 3.3129 7 7 0 0 0 -4.139 0 3.9945 3.9945 0 0 0 -7.931.6871 1 1 0 0 0 2 0 2 2 0 0 1 4 0 .9655.9655 0 0 0 .05.2462 4.6839 4.6839 0 0 0 -2.05 3.7538 1 1 0 0 0 2 0c0-1.6543 1.7944-3 4-3s4 1.3457 4 3a1 1 0 0 0 2 0 4.6839 4.6839 0 0 0 -2.05-3.7538.9655.9655 0 0 0 .05-.2462 2 2 0 0 1 4 0 1 1 0 0 0 2 0 4.0042 4.0042 0 0 0 -4-4z"/><circle cx="6" cy="7" r="2"/></g></svg>