<?xml version="1.0" encoding="UTF-8"?>
<svg xmlns="http://www.w3.org/2000/svg" viewBox="0 0 24 24" width="512" height="512"><g id="Drag"><path d="M21.9229,12.3821a1.0033,1.0033,0,0,0-.2167-1.09L18.707,8.293a1,1,0,0,0-1.414,1.414L18.5859,11H13V5.4141L14.293,6.707a1,1,0,0,0,1.414-1.414L12.7077,2.2936a1.0033,1.0033,0,0,0-1.4154,0L8.293,5.293A1,1,0,0,0,9.707,6.707L11,5.4141V11H5.4141L6.707,9.707A1,1,0,0,0,5.293,8.293L2.2938,11.2921a1.0033,1.0033,0,0,0,0,1.4158L5.293,15.707a1,1,0,1,0,1.414-1.414L5.4141,13H11v5.5859L9.707,17.293a1,1,0,0,0-1.414,1.414l2.9993,2.9994a1.0035,1.0035,0,0,0,1.4154,0L15.707,18.707a1,1,0,0,0-1.414-1.414L13,18.5859V13h5.5859L17.293,14.293a1,1,0,1,0,1.414,1.414l2.9992-2.9991A.999.999,0,0,0,21.9229,12.3821Z"/></g></svg>
