<svg id="Capa_1" enable-background="new 0 0 512 512" height="512" viewBox="0 0 512 512" width="512" xmlns="http://www.w3.org/2000/svg"><g><path d="m512 256c0 48.71-13.61 94.24-37.22 133h-437.56c-23.61-38.76-37.22-84.29-37.22-133 0-72.76 30.36-138.43 79.09-185.04 14.49-13.86 30.6-26.02 48.03-36.18 14.44-8.44 29.78-15.5 45.84-20.99 6.99-2.41 14.11-4.51 21.36-6.3.09-.03.17-.05.26-.07 7.3-1.8 14.73-3.28 22.26-4.44 12.77-1.96 25.85-2.98 39.16-2.98 5.33 0 10.62.16 15.87.49 133.99 8.19 240.13 119.46 240.13 255.51z" fill="#9dc6fb"/><path d="m194.58 7.42-30.16 88.25-86.53-19.13 1.2-5.58c31.79-30.39 71.39-52.68 115.49-63.54z" fill="#ffddce"/><path d="m164.42 95.67-47.68 139.5-41.61-14.23-26.36-9.01 29.12-135.39z" fill="#eceef1"/><path d="m127.12 34.78-13.85 49.58-35.38-7.82 1.2-5.58c14.49-13.86 30.6-26.02 48.03-36.18z" fill="#ffcbbe"/><path d="m113.27 84.36-38.14 136.58-26.36-9.01 29.12-135.39z" fill="#d6d8e8"/><g><g><path d="m227.753 296.467-17.745 16.498-4.857 4.515-49.199-21.674-22.041-9.707-3.087-80.261 14.381-21.434c2.955-4.396 6.978-7.834 11.58-10.066 1.255-.61 2.556-1.126 3.889-1.549 3.553-1.141 7.347-1.603 11.185-1.308l5.938 71.212.435 5.241z" fill="#e3a12f"/></g><path d="m149.174 248.876-15.263 37.224-3.087-80.261 14.381-21.434c2.955-4.396 6.978-7.834 11.58-10.066 1.255-.61 2.556-1.126 3.889-1.549l-3.442 44.074 20.565 25.83-11.34 3.626z" fill="#de8635"/><path d="m224.38 326.649-118.895-37.533-42.08-13.284-52.332-16.518 22.103-64.422c2.133-6.217 8.228-10.385 14.761-9.666 2.939.324 5.614 1.542 7.725 3.406 1.353 1.197 2.479 2.659 3.288 4.319l4.085 8.345c3.966 8.109 12.96 12.46 21.781 10.537l5.325-1.164 31.043-6.775c6.792-1.481 13.83 1.109 18.043 6.645l5.993 7.871 21.235 27.907 15.36 20.179c5.685 7.472 4.63 18.066-2.423 24.266-.881.776-.391 2.23.78 2.313l47.58 3.391z" fill="#ca245f"/><path d="m63.035 201.298c.48.981 1.036 1.909 1.652 2.776-1.804 1.555-3.231 3.592-4.059 6.006l-20.083 58.536-29.471-9.3 22.221-64.766c2.493-7.266 10.408-11.138 17.674-8.645 1.744.598 3.335 1.53 4.693 2.729 1.353 1.197 2.479 2.659 3.288 4.319z" fill="#b7004f"/><path d="m224.38 326.65-207.506-71.194c-5.401-1.853-11.283 1.023-13.136 6.425l-1.684 4.909c-2.947 8.589 1.627 17.94 10.216 20.887l186.183 63.878c8.589 2.947 17.94-1.627 20.887-10.216z" fill="#eceef1"/><path d="m42.8 298.151-30.53-10.475c-8.587-2.946-13.162-12.3-10.216-20.886l1.684-4.91c1.852-5.399 7.736-8.277 13.136-6.425l30.529 10.474c-5.399-1.852-11.283 1.025-13.136 6.425l-1.684 4.91c-2.945 8.587 1.63 17.941 10.217 20.887z" fill="#d6d8e8"/><g fill="#2e4f5f"><path d="m163.639 282.59c-1.678-.576-3.137-1.792-3.978-3.512-1.683-3.44-.258-7.592 3.182-9.274l27.728-13.562c3.44-1.682 7.592-.258 9.274 3.182 1.683 3.44.258 7.592-3.182 9.274l-27.728 13.562c-1.72.841-3.618.906-5.296.33z"/><path d="m142.852 258.884c-1.932-.663-3.553-2.168-4.289-4.243-1.279-3.609.609-7.572 4.218-8.851l32.995-11.697c3.61-1.279 7.571.609 8.851 4.218 1.279 3.609-.609 7.572-4.218 8.851l-32.995 11.697c-1.534.544-3.133.515-4.562.025z"/><path d="m122.061 235.176c-1.973-.677-3.619-2.232-4.331-4.363-1.213-3.632.748-7.559 4.38-8.773l49.525-16.542c3.632-1.213 7.559.748 8.773 4.38 1.213 3.632-.748 7.559-4.379 8.773l-49.525 16.542c-1.501.5-3.053.459-4.443-.017z"/></g><path d="m183.004 275.383-14.069 6.881c-1.72.841-3.618.904-5.297.328s-3.139-1.79-3.976-3.509c-1.683-3.441-.258-7.594 3.183-9.277l14.005-6.85c-2.52 2.033-3.401 5.611-1.916 8.647.862 1.762 2.359 3.008 4.077 3.598 1.264.433 2.649.512 3.993.182z" fill="#1f3645"/><path d="m164.611 252.765-17.196 6.097c-1.535.543-3.133.513-4.562.023-1.932-.663-3.552-2.167-4.291-4.243-1.278-3.61.609-7.571 4.22-8.853l16.75-5.937c-2.68 1.744-3.919 5.155-2.803 8.298.753 2.12 2.41 3.656 4.387 4.334 1.101.379 2.299.492 3.495.281z" fill="#1f3645"/><path d="m142.333 229.905-15.83 5.29c-1.501.501-3.05.459-4.44-.018-1.972-.676-3.621-2.234-4.332-4.365-1.212-3.631.746-7.558 4.381-8.768l17.275-5.771c-3.223 1.533-4.871 5.268-3.712 8.739.735 2.202 2.435 3.811 4.473 4.51.696.239 1.437.371 2.185.383z" fill="#1f3645"/></g><path d="m474.78 389c-44.93 73.75-126.11 123-218.78 123-16.3 0-32.25-1.52-47.7-4.44-19.6-3.69-38.41-9.62-56.16-17.52-1.51-.66-3.02-1.34-4.51-2.04-8.6-4.03-16.94-8.52-24.98-13.44-34.84-21.3-64.19-50.69-85.43-85.56z" fill="#426b7b"/><path d="m241.19 486.53-30.85 3.75c-1.55.19-2.7 1.54-2.64 3.11l.6 14.17c-19.6-3.69-38.41-9.62-56.16-17.52-.41-.81-1.19-1.43-2.15-1.61l-2.36-.43c-8.6-4.03-16.94-8.52-24.98-13.44l21.87-14.01c1.32-.85 1.77-2.57 1.03-3.95l-14.65-27.4c-1.29-2.41 1.04-5.15 3.62-4.27l29.42 10c1.49.51 3.11-.21 3.73-1.66l12.29-28.53c1.08-2.51 4.67-2.4 5.59.17l10.52 29.23c.53 1.48 2.11 2.3 3.63 1.89l29.97-8.19c2.63-.72 4.79 2.16 3.35 4.48l-16.29 26.46c-.83 1.33-.49 3.08.78 4l25.09 18.33c2.2 1.61 1.3 5.09-1.41 5.42z" fill="#2e4f5f"/><path d="m510.422 185.375-27.332 14.778c-1.381.747-1.955 2.429-1.32 3.864l12.581 28.41c1.105 2.495-1.416 5.054-3.928 3.987l-28.595-12.155c-1.445-.614-3.118-.014-3.844 1.378l-14.368 27.549c-1.262 2.42-4.835 2.044-5.566-.585l-8.326-29.935c-.421-1.512-1.933-2.447-3.474-2.147l-30.497 5.943c-2.679.522-4.612-2.505-3.013-4.716l18.213-25.173c.92-1.272.708-3.037-.488-4.054l-23.661-20.138c-2.078-1.769-.917-5.168 1.809-5.296l31.037-1.456c1.568-.074 2.816-1.34 2.866-2.909l.992-31.055c.087-2.728 3.469-3.939 5.268-1.888l20.49 23.358c1.035 1.18 2.803 1.366 4.061.427l24.898-18.587c2.187-1.632 5.243.256 4.761 2.942l-5.487 30.583c-.277 1.545.68 3.043 2.198 3.441l30.056 7.878c2.64.692 3.069 4.258.669 5.556z" fill="#80b4fb"/><g><g><path d="m332.763 341.111 81.788-47.29 16.826 48.884-62.788 21.612c-13.746 4.732-28.725-2.576-33.457-16.322z" fill="#1f3645"/><circle cx="434.598" cy="352.061" fill="#efc64c" r="43.498"/><path d="m457.63 388.977c-2.736 1.705-5.7 3.128-8.876 4.221-22.706 7.816-47.467-4.264-55.286-26.98s4.264-47.467 26.97-55.282c3.175-1.093 6.387-1.796 9.593-2.136-16.822 10.475-24.82 31.521-18.094 51.061s25.987 31.214 45.693 29.116z" fill="#e3a12f"/><circle cx="434.598" cy="352.061" fill="#2e4f5f" r="16.418"/><path d="m450.122 346.717c2.951 8.572-1.601 17.918-10.182 20.872-2.825.972-5.736 1.125-8.471.584 3.714-4.275 5.105-10.364 3.127-16.111s-6.822-9.691-12.381-10.774c1.823-2.109 4.211-3.781 7.036-4.753 8.581-2.954 17.921 1.61 20.871 10.182z" fill="#1f3645"/><path d="m213.643 382.113-93.567 13.069 16.826 48.884 62.788-21.612c13.746-4.732 21.054-19.711 16.322-33.457z" fill="#1f3645"/><circle cx="140.122" cy="453.422" fill="#efc64c" r="43.498"/><path d="m163.154 490.338c-2.736 1.705-5.7 3.128-8.876 4.221-22.706 7.816-47.467-4.264-55.286-26.98s4.264-47.467 26.97-55.282c3.175-1.093 6.387-1.796 9.593-2.136-16.822 10.475-24.82 31.521-18.094 51.061s25.987 31.214 45.693 29.116z" fill="#e3a12f"/><circle cx="140.122" cy="453.422" fill="#2e4f5f" r="16.418"/><path d="m155.646 448.079c2.951 8.572-1.601 17.918-10.182 20.872-2.825.972-5.736 1.125-8.471.584 3.714-4.275 5.105-10.364 3.127-16.111s-6.822-9.691-12.381-10.774c1.823-2.109 4.211-3.781 7.036-4.753 8.581-2.955 17.921 1.61 20.871 10.182z" fill="#1f3645"/></g><path d="m428.237 308.248-310.069 106.729c-3.378 1.163-6.96 1.614-10.521 1.325l-71.952-5.834c-14.255-1.156-24.874-13.649-23.719-27.904 1.157-14.256 13.652-24.875 27.904-23.718l66.553 5.396 299.824-103.203 49.132-45.216c10.526-9.685 26.906-9.005 36.591 1.519s9.005 26.906-1.519 36.591l-53.118 48.884c-2.628 2.419-5.728 4.268-9.106 5.431z" fill="#905f43"/><path d="m461.655 280.447-24.31 22.368c-2.622 2.417-5.722 4.268-9.102 5.432l-310.072 106.73c-3.38 1.163-6.963 1.612-10.517 1.321l-71.952-5.827c-14.258-1.161-24.877-13.652-23.726-27.907.945-11.624 9.424-20.828 20.243-23.201-1.106 14.228 9.5 26.681 23.731 27.828l71.945 5.84c3.564.288 7.146-.161 10.526-1.324z" fill="#784536"/></g><g><path d="m286.21 36.54-82.18 34.66-26.79-49.5 17.08-14.21c.09-.03.17-.05.26-.07 19.68-4.85 40.25-7.42 61.42-7.42 5.33 0 10.62.16 15.87.49z" fill="#ffddce"/><path d="m341.2 174.79-37.67 14.99-29.07 11.55-70.43-130.13 82.18-34.66z" fill="#eceef1"/><path d="m241.22 55.51-37.19 15.69-31.07-57.41c6.99-2.41 14.11-4.51 21.36-6.3.09-.03.17-.05.26-.07 7.3-1.8 14.73-3.28 22.26-4.44z" fill="#ffcbbe"/><path d="m303.53 189.78-29.07 11.55-70.43-130.13 37.19-15.69z" fill="#d6d8e8"/><g><g><path d="m456.534 222.364-12.791 20.578-3.501 5.632-53.164-7.996-23.816-3.58-24.051-76.635 8.249-24.458c1.697-5.017 4.677-9.391 8.531-12.753 1.051-.918 2.171-1.758 3.345-2.516 3.129-2.034 6.669-3.476 10.449-4.199l24.426 67.155 1.796 4.943z" fill="#e3a12f"/></g><path d="m368.217 197.072-4.955 39.925-24.051-76.635 8.249-24.458c1.697-5.017 4.677-9.391 8.531-12.753 1.051-.918 2.171-1.758 3.345-2.516l8.25 43.431 26.625 19.525-9.99 6.476z" fill="#de8635"/><path d="m461.204 252.372-223.502-8.97 4.414-67.965c.426-6.559 5.213-12.181 11.706-13.202 2.921-.459 5.822.014 8.348 1.259 1.62.8 3.09 1.914 4.306 3.304l6.133 6.98c5.956 6.783 15.777 8.621 23.783 4.449l4.833-2.521 28.175-14.687c6.165-3.212 13.636-2.561 19.155 1.675l7.849 6.022 27.817 21.353 20.119 15.438c7.447 5.718 9.211 16.217 4.033 24.051-.647.98.208 2.254 1.36 2.027l46.801-9.219z" fill="#ca245f"/><path d="m272.609 173.778c.72.82 1.501 1.57 2.323 2.244-1.333 1.975-2.175 4.315-2.34 6.861l-4.011 61.755-30.879-1.236 4.437-68.328c.498-7.666 7.119-13.48 14.785-12.982 1.84.12 3.62.601 5.245 1.401 1.62.8 3.09 1.915 4.306 3.304z" fill="#b7004f"/><path d="m461.204 252.373-218.918-14.217c-5.699-.37-10.618 3.949-10.988 9.648l-.336 5.179c-.588 9.061 6.28 16.884 15.341 17.472l196.423 12.756c9.061.588 16.884-6.28 17.472-15.341z" fill="#eceef1"/><path d="m278.512 272.546-32.208-2.092c-9.059-.588-15.929-8.413-15.341-17.472l.336-5.18c.37-5.696 5.292-10.018 10.988-9.648l32.208 2.092c-5.696-.37-10.618 3.952-10.988 9.648l-.336 5.18c-.589 9.059 6.282 16.884 15.341 17.472z" fill="#d6d8e8"/><g fill="#2e4f5f"><path d="m391.026 225.806c-1.771-.115-3.497-.905-4.76-2.344-2.527-2.877-2.242-7.258.635-9.784l23.194-20.366c2.877-2.526 7.258-2.242 9.784.635 2.527 2.877 2.242 7.258-.635 9.784l-23.195 20.366c-1.438 1.263-3.252 1.824-5.023 1.709z"/><path d="m364.745 208.388c-2.038-.132-3.998-1.159-5.252-2.968-2.182-3.147-1.4-7.466 1.746-9.648l28.767-19.95c3.147-2.182 7.466-1.4 9.648 1.746 2.182 3.147 1.4 7.466-1.746 9.648l-28.767 19.95c-1.338.928-2.889 1.32-4.396 1.222z"/><path d="m338.459 190.971c-2.081-.135-4.078-1.204-5.324-3.073-2.124-3.186-1.263-7.491 1.923-9.615l43.445-28.964c3.186-2.124 7.49-1.263 9.615 1.923 2.124 3.186 1.263 7.491-1.923 9.615l-43.445 28.964c-1.317.877-2.825 1.245-4.291 1.15z"/></g><path d="m407.82 213.767-11.769 10.333c-1.439 1.264-3.254 1.822-5.025 1.707s-3.499-.903-4.758-2.342c-2.527-2.878-2.243-7.26.636-9.788l11.715-10.286c-1.898 2.623-1.808 6.307.421 8.846 1.294 1.474 3.066 2.283 4.879 2.401 1.333.088 2.69-.199 3.901-.871z" fill="#1f3645"/><path d="m384.134 196.772-14.992 10.398c-1.339.927-2.888 1.318-4.396 1.22-2.039-.132-3.996-1.158-5.254-2.967-2.181-3.148-1.4-7.465 1.748-9.65l14.604-10.126c-2.128 2.386-2.428 6.003-.526 8.743 1.283 1.848 3.286 2.895 5.371 3.031 1.161.074 2.346-.132 3.445-.649z" fill="#1f3645"/><path d="m356.636 180.563-13.886 9.261c-1.317.878-2.823 1.243-4.289 1.148-2.08-.135-4.081-1.205-5.326-3.074-2.123-3.186-1.265-7.488 1.926-9.611l15.154-10.104c-2.708 2.325-3.317 6.362-1.287 9.407 1.287 1.932 3.351 3.038 5.5 3.178.733.046 1.483-.021 2.208-.205z" fill="#1f3645"/></g></g><g fill="#ca245f"><path d="m311.542 463.985c-.018 0-.037 0-.056 0-3.688.021-7.563.036-10.922.044v-49.401c0-5.375-4.357-9.732-9.732-9.732s-9.732 4.357-9.732 9.732v59.089c0 4.741 3.416 8.792 8.09 9.592.695.119 1.133.194 7.833.194 3.196 0 7.819-.017 14.573-.054 5.375-.03 9.707-4.411 9.678-9.786-.031-5.356-4.383-9.678-9.732-9.678z"/><path d="m341.485 404.897c-5.375 0-9.732 4.357-9.732 9.732v59.138c0 5.375 4.357 9.732 9.732 9.732s9.732-4.357 9.732-9.732v-59.138c0-5.375-4.357-9.732-9.732-9.732z"/><path d="m464.346 464.035h-14.959v-9.835h13.138c5.375 0 9.732-4.357 9.732-9.732s-4.357-9.732-9.732-9.732h-13.138v-9.835h14.959c5.375 0 9.732-4.357 9.732-9.732s-4.357-9.732-9.732-9.732h-24.691c-5.375 0-9.732 4.357-9.732 9.732v58.598c0 5.375 4.357 9.732 9.732 9.732h24.691c5.375 0 9.732-4.357 9.732-9.732s-4.357-9.732-9.732-9.732z"/><path d="m414.663 405.501c-5.102-1.696-10.61 1.067-12.304 6.167l-11.512 34.653-12.109-34.885c-1.763-5.078-7.31-7.766-12.386-6.002-5.078 1.762-7.765 7.308-6.003 12.385l20.243 58.314c1.566 4.413 5.751 7.365 10.428 7.365h.074c4.707-.031 8.888-3.047 10.426-7.569l19.309-58.125c1.696-5.1-1.065-10.608-6.166-12.303z"/></g></g></svg>