<svg id="Capa_1" enable-background="new 0 0 512 512" height="512" viewBox="0 0 512 512" width="512" xmlns="http://www.w3.org/2000/svg"><g><path d="m512 256c0 35.544-7.244 69.397-20.336 100.162-8.18 19.221-46.065 13.842-58.47 30.312-13.348 17.722-1.521 57.049-18.943 70.767-43.554 34.297-98.513 54.759-158.251 54.759-141.385 0-256-114.615-256-256s114.615-256 256-256 256 114.615 256 256z" fill="#9ddea3"/><path d="m491.66 117.13v239.03c-2.5 5.88-5.21 11.64-8.13 17.28-2.81 5.44-5.82 10.77-9 15.97-6.88 11.24-14.59 21.91-23.07 31.92h-418.71v-304.2c0-31.45 25.49-56.94 56.94-56.94h345.02c31.45 0 56.95 25.49 56.95 56.94z" fill="#b8bede"/><path d="m483.53 373.44c-2.81 5.44-5.82 10.77-9 15.97-6.88 11.24-20.441 21.91-28.921 31.92h-412.859v-47.89z" fill="#a8acd3"/><path d="m116.629 60.192c-31.45 0-56.94 25.49-56.94 56.94v304.2h-26.94v-304.2c0-31.45 25.49-56.94 56.94-56.94z" fill="#a8acd3"/><path d="m474.53 389.41c-15.93 26.04-36.39 49.02-60.28 67.83h-380.33c-9.36 0-17.84-3.8-23.98-9.93-6.14-6.14-9.94-14.62-9.94-23.99 0-18.73 15.19-33.91 33.92-33.91z" fill="#d6d8e8"/><path d="m84.97 447.305c6.14 6.14 14.62 9.94 23.99 9.94h-75.04c-9.36 0-17.84-3.8-23.98-9.94s-9.94-14.62-9.94-23.98c0-18.73 15.19-33.92 33.92-33.92h75.04c-18.74 0-33.92 15.19-33.92 33.92 0 9.36 3.8 17.84 9.93 23.98z" fill="#b8bede"/><path d="m332.31 389.41c-.15 14.35-11.83 25.93-26.21 25.93h-100.2c-14.38 0-26.06-11.58-26.21-25.93z" fill="#b8bede"/><path d="m72.749 333.851v-216.719c0-9.357 7.585-16.942 16.942-16.942h345.021c9.357 0 16.942 7.585 16.942 16.942v216.718c0 12.189-9.882 22.071-22.071 22.071h-334.763c-12.189.001-22.071-9.881-22.071-22.07z" fill="#2e4f5f"/><path d="m355.166 298.683h-285.559c-26.197 0-47.434-21.237-47.434-47.434v-172.495c0-26.197 21.237-47.434 47.434-47.434h285.559c26.197 0 47.434 21.237 47.434 47.434v172.495c0 26.197-21.237 47.434-47.434 47.434z" fill="#ca245f"/><path d="m99.593 298.684h-29.99c-26.19 0-47.43-21.23-47.43-47.43v-172.5c0-26.19 21.24-47.43 47.43-47.43h29.99c-26.2 0-47.44 21.24-47.44 47.43v172.5c0 26.2 21.24 47.43 47.44 47.43z" fill="#b7004f"/><g fill="#efc64c"><path d="m163.48 90.05c-.042-.111-.086-.221-.131-.331-2.337-5.678-7.812-9.345-13.951-9.345-.006 0-.012 0-.018 0-6.146.007-11.62 3.687-13.946 9.375-.037.09-.073.181-.107.272l-51.137 134.267c-2.359 6.193.749 13.126 6.942 15.485 1.406.535 2.85.789 4.27.789 4.835 0 9.393-2.945 11.216-7.732l9.792-25.71h65.597l9.69 25.676c2.34 6.201 9.263 9.329 15.465 6.99 6.2-2.34 9.33-9.264 6.99-15.464zm-37.929 93.07 23.809-62.512 23.591 62.512z"/><path d="m280.063 84.403h-37.43c-3.187 0-6.242 1.268-8.493 3.523s-3.513 5.313-3.507 8.5c0 .001.266 131.697.268 132.176.012 3.183 1.287 6.231 3.546 8.474 2.248 2.231 5.287 3.483 8.454 3.483h.046c1.129-.004 27.788-.107 38.421-.293 18.938-.331 35.798-8.907 47.476-24.148 10.697-13.96 16.588-33.009 16.588-53.637 0-46.701-26.27-78.078-65.369-78.078zm29.73 117.118c-7.236 9.446-17.211 14.546-28.845 14.749-5.938.104-17.309.183-26.088.231-.051-15.441-.177-92.09-.205-108.098h25.408c30.501 0 41.368 27.935 41.368 54.078.001 15.38-4.132 29.245-11.638 39.04z"/></g></g></svg>