<svg id="Capa_1" enable-background="new 0 0 512 512" height="512" viewBox="0 0 512 512" width="512" xmlns="http://www.w3.org/2000/svg"><g><path d="m512 256c0 134.87-104.3 245.38-236.64 255.27-6.39.49-34.455-20.875-40.965-20.875-34.25 0-45.335-33.735-75.195-45.945-11.58-4.73-22.73 38.33-33.38 32.02-75.32-44.57-125.82-126.62-125.82-220.47 0-141.04 114.06-255.44 254.97-255.99.34-.01.69-.01 1.03-.01 22.3 0 43.93 50.275 64.55 55.635 30.58 7.94 58.94-26.025 83.95-8.185 65.07 46.42 107.5 122.53 107.5 208.55z" fill="#1f3645"/><path d="m213.705 48.818 31.207 79.048c1.577 3.993 5.958 6.103 10.063 4.846l81.259-24.887c7.137-2.186 13.263 5.496 9.544 11.968l-42.345 73.684c-2.139 3.722-1.057 8.464 2.485 10.889l70.122 48.014c6.159 4.217 3.972 13.796-3.406 14.924l-84.01 12.835c-4.244.648-7.276 4.451-6.964 8.733l6.181 84.76c.543 7.444-8.31 11.707-13.791 6.642l-62.414-57.679c-3.153-2.914-8.016-2.914-11.169 0l-62.414 57.679c-5.482 5.066-14.334.803-13.791-6.642l6.181-84.76c.312-4.282-2.72-8.084-6.964-8.733l-84.01-12.835c-7.378-1.127-9.565-10.707-3.406-14.924l70.122-48.014c3.542-2.426 4.625-7.167 2.485-10.889l-42.345-73.684c-3.719-6.472 2.407-14.154 9.544-11.968l81.259 24.887c4.105 1.257 8.487-.853 10.063-4.846l31.207-79.048c2.74-6.943 12.566-6.943 15.307 0z" fill="#2e4f5f"/><path d="m359.977 142.046 8.817 84.526c.445 4.27 4.099 7.48 8.391 7.372l84.958-2.135c7.462-.188 11.298 8.858 5.977 14.092l-60.588 59.595c-3.061 3.011-3.293 7.868-.532 11.157l54.64 65.092c4.799 5.717.119 14.356-7.291 13.459l-84.369-10.213c-4.262-.516-8.205 2.332-9.055 6.54l-16.823 83.303c-1.478 7.316-11.15 9.044-15.069 2.691l-44.619-72.33c-2.254-3.654-6.939-4.961-10.759-3.001l-75.618 38.786c-6.641 3.406-14.023-3.079-11.499-10.103l28.73-79.981c1.451-4.04-.448-8.518-4.361-10.283l-77.471-34.938c-6.804-3.069-6.336-12.883.729-15.29l80.445-27.405c4.064-1.384 6.38-5.661 5.32-9.821l-20.987-82.353c-1.843-7.233 6.122-12.986 12.409-8.963l71.583 45.808c3.616 2.314 8.404 1.459 10.995-1.964l51.301-67.754c4.508-5.951 13.972-3.311 14.746 4.113z" fill="#2e4f5f"/><g fill="#ca245f"><path d="m45.028 108.229c-.018 0-.037 0-.056 0-3.688.021-7.563.036-10.922.044v-49.401c0-5.375-4.357-9.732-9.732-9.732s-9.732 4.357-9.732 9.732v59.089c0 4.741 3.416 8.792 8.09 9.592.695.119 1.134.194 7.833.194 3.196 0 7.819-.017 14.573-.054 5.375-.03 9.707-4.411 9.678-9.786-.031-5.357-4.383-9.678-9.732-9.678z"/><path d="m74.971 49.14c-5.375 0-9.732 4.357-9.732 9.732v59.138c0 5.375 4.357 9.732 9.732 9.732s9.732-4.357 9.732-9.732v-59.138c0-5.375-4.357-9.732-9.732-9.732z"/><path d="m197.832 108.278h-14.959v-9.835h13.138c5.375 0 9.732-4.357 9.732-9.732s-4.357-9.732-9.732-9.732h-13.138v-9.835h14.959c5.375 0 9.732-4.357 9.732-9.732s-4.357-9.732-9.732-9.732h-24.692c-5.375 0-9.732 4.357-9.732 9.732v58.598c0 5.375 4.357 9.732 9.732 9.732h24.691c5.375 0 9.732-4.357 9.732-9.732.001-5.374-4.357-9.732-9.731-9.732z"/><path d="m148.149 49.745c-5.102-1.696-10.61 1.067-12.304 6.167l-11.512 34.653-12.109-34.885c-1.763-5.078-7.31-7.766-12.386-6.002-5.078 1.762-7.765 7.308-6.003 12.385l20.243 58.314c1.566 4.413 5.751 7.365 10.428 7.365h.074c4.707-.031 8.888-3.047 10.426-7.569l19.309-58.125c1.696-5.1-1.065-10.609-6.166-12.303z"/></g><g><path d="m438.9 203.345h-105.517v-147.719h54.621c45.978 0 83.25 37.272 83.25 83.25v32.115c0 17.868-14.485 32.354-32.354 32.354z" fill="#80b4fb"/><path d="m404.5 47.45v61.05h-149.53v-108.49c.34-.01.69-.01 1.03-.01 55.36 0 106.62 17.58 148.5 47.45z" fill="#9dc6fb"/><path d="m320.55 8.21v100.29h-65.58v-108.49c.34-.01.69-.01 1.03-.01 22.3 0 43.93 2.85 64.55 8.21z" fill="#80b4fb"/><path d="m210.83 206.894v-44.301c0-59.075 47.898-106.962 106.973-106.962h25.688c59.086 0 106.973 47.887 106.973 106.962v44.301c0 59.075-47.887 106.962-106.973 106.962h-25.688c-52.922 0-96.871-38.433-105.449-88.909-1.009-5.867-1.524-11.9-1.524-18.053z" fill="#9dc6fb"/><path d="m361.27 57.111c-50.618 8.463-89.198 52.46-89.198 105.489v44.295c0 6.161.515 12.187 1.523 18.058 7.597 44.701 42.927 79.95 87.675 87.431-5.782.975-11.727 1.476-17.78 1.476h-25.688c-52.921 0-96.877-38.431-105.442-88.907-1.016-5.864-1.53-11.903-1.53-18.051v-44.308c0-59.068 47.897-106.951 106.972-106.958h25.688c6.053-.001 11.998.5 17.78 1.475z" fill="#80b4fb"/></g><path d="m254.646 116.587 32.765 68.539c1.655 3.462 5.694 5.07 9.276 3.693l70.906-27.267c6.228-2.395 12.17 4.073 9.258 10.076l-33.158 68.35c-1.675 3.453-.414 7.613 2.896 9.555l65.528 38.436c5.755 3.376 4.404 12.054-2.105 13.52l-74.112 16.692c-3.744.843-6.21 4.423-5.665 8.222l10.805 75.196c.949 6.604-6.679 10.959-11.883 6.784l-59.257-47.535c-2.994-2.401-7.33-2.098-9.96.698l-52.054 55.332c-4.572 4.86-12.732 1.611-12.713-5.061l.218-75.968c.011-3.838-2.93-7.039-6.755-7.352l-75.715-6.198c-6.65-.544-9.198-8.95-3.969-13.095l59.53-47.195c3.007-2.384 3.676-6.68 1.536-9.866l-42.362-63.061c-3.721-5.539 1.263-12.771 7.763-11.268l74.015 17.117c3.739.865 7.515-1.291 8.671-4.95l22.891-72.438c2.011-6.362 10.772-6.976 13.65-.956z" fill="#efc64c"/><path d="m259.578 174.415 21.65 46.098c1.094 2.329 3.794 3.425 6.202 2.518l47.659-17.953c4.186-1.577 8.14 2.786 6.16 6.797l-22.543 45.668c-1.139 2.307-.312 5.102 1.898 6.419l43.752 26.068c3.843 2.29 2.897 8.101-1.474 9.054l-49.76 10.849c-2.514.548-4.184 2.937-3.835 5.486l6.898 50.46c.606 4.432-4.528 7.316-7.997 4.493l-39.507-32.139c-1.996-1.624-4.904-1.44-6.68.422l-35.15 36.854c-3.087 3.237-8.543 1.021-8.499-3.451l.495-50.926c.025-2.573-1.932-4.732-4.495-4.96l-50.729-4.503c-4.455-.396-6.125-6.042-2.601-8.797l40.125-31.365c2.027-1.584 2.495-4.461 1.075-6.607l-28.108-42.47c-2.469-3.73.905-8.556 5.256-7.518l49.539 11.815c2.503.597 5.044-.831 5.836-3.278l15.679-48.455c1.376-4.257 7.252-4.628 9.154-.579z" fill="#e3a12f"/><g><path d="m319.495 319.808v44.301c0 59.075-47.898 106.962-106.973 106.962h-25.688c-59.086 0-106.973-47.887-106.973-106.962v-44.301c0-59.075 47.887-106.962 106.973-106.962h25.688c52.922 0 96.871 38.433 105.449 88.909 1.008 5.868 1.524 11.9 1.524 18.053z" fill="#ca245f"/><path d="m229.588 469.715c-5.55.899-11.253 1.36-17.067 1.36h-25.688c-59.086 0-106.973-47.887-106.973-106.962v-44.301c0-59.075 47.887-106.962 106.973-106.962h25.688c5.813 0 11.517.461 17.067 1.36-50.969 8.16-89.918 52.329-89.918 105.602v44.301c0 53.273 38.948 97.441 89.918 105.602z" fill="#b7004f"/><path d="m275.36 444.45v66.82c-6.39.49-12.85.73-19.36.73-9.29 0-18.47-.49-27.51-1.47-2.5-.26-5.134-2.605-7.614-2.945-2.41-.33-4.81-.69-7.2-1.09-9.05-1.49-16.39-4.776-25.09-7.196-2.35-.65-4.68-1.34-7-2.06-6.41-1.98-14.116-.869-20.296-3.339-12.32-4.9-24.17-10.74-35.47-17.43v-32.02z" fill="#ca245f"/><path d="m159.2 444.45v48.61c-11.58-4.73-22.73-10.28-33.38-16.59v-32.02z" fill="#b7004f"/><path d="m91.424 323.358h105.517v147.719h-54.621c-45.978 0-83.25-37.272-83.25-83.25v-32.115c0-17.869 14.486-32.354 32.354-32.354z" fill="#ca245f"/><path d="m102.844 387.827v-32.115c0-.1 0-.201.001-.301.125-13.696 11.507-24.631 25.204-24.631h5.256c14.444 0 26.647 11.82 26.403 26.262-.237 14.033-11.727 25.377-25.816 25.377h-12.426c-6.058 0-10.968 4.911-10.968 10.968 0 6.058 4.911 10.968 10.968 10.968h11.579c26.722 0 49.053-21.868 48.595-48.586-.445-25.951-21.693-46.926-47.749-46.926h-43.062v14.538c-17.591.32-31.759 14.663-31.759 32.33v32.115c0 45.977 37.272 83.249 83.249 83.249h43.774c-45.979 0-83.249-37.27-83.249-83.248z" fill="#b7004f"/><path d="m319.495 319.808v23.231c-12.175 15.355-30.788 24.525-50.816 24.525h-98.001v-21.936h98.001c15.827 0 30.327-8.654 37.829-22.584l11.462-21.289c1.009 5.868 1.525 11.9 1.525 18.053z" fill="#b7004f"/><path d="m221.01 460.5v47.62c-2.41-.33-4.81-.69-7.2-1.09-9.05-1.49-17.94-3.47-26.64-5.89-2.35-.65-4.68-1.34-7-2.06v-38.58c0-6.52 3.05-12.32 7.8-16.05 3.48-2.75 7.86-4.38 12.62-4.38s9.14 1.63 12.62 4.38c4.75 3.73 7.8 9.53 7.8 16.05z" fill="#426b7b"/><path d="m235.65 497.2-18.873 9.791-22.654-7.96 33.467-17.371c1.29-.67 2.66-.98 4.02-.98 3.16 0 6.22 1.72 7.78 4.72 2.23 4.29.55 9.57-3.74 11.8z" fill="#b8bede"/><path d="m228.49 510.53c-4.93-.52-9.83-1.19-14.68-2-9.05-1.49-17.94-3.47-26.64-5.89-8.83-2.46-17.47-5.38-25.88-8.74-1.48-2.51-1.68-5.72-.23-8.5 1.56-3 4.61-4.72 7.78-4.72 1.35 0 2.73.31 4.02.98z" fill="#d6d8e8"/></g><path d="m266.661 324.441c-7.346 0-13.302-5.955-13.302-13.302v-38.575c0-7.346 5.955-13.302 13.302-13.302 7.346 0 13.302 5.955 13.302 13.302v38.575c-.001 7.347-5.956 13.302-13.302 13.302z" fill="#df6892"/><path d="m412.314 227.339c-7.346 0-13.302-5.955-13.302-13.302v-80.508c0-7.346 5.955-13.302 13.302-13.302 7.346 0 13.302 5.955 13.302 13.302v80.508c-.001 7.347-5.956 13.302-13.302 13.302z" fill="#bed8fb"/><path d="m266.661 410.557c-7.346 0-13.302-5.955-13.302-13.302v-6.367c0-7.346 5.955-13.302 13.302-13.302 7.346 0 13.302 5.955 13.302 13.302v6.367c-.001 7.347-5.956 13.302-13.302 13.302z" fill="#df6892"/></g></svg>