<svg id="Capa_1" enable-background="new 0 0 512 512" height="512" viewBox="0 0 512 512" width="512" xmlns="http://www.w3.org/2000/svg"><g><path d="m512 256c0 7.89-.36 15.7-1.06 23.41-5.65 62.33-33.64 118.21-75.9 159.57-15.31 14.98-32.49 28.05-51.16 38.84-37.63 21.74-81.3 34.18-127.88 34.18-50.53 0-97.65-14.65-137.33-39.92-18.08-11.51-3.937-41.383-18.547-56.933-8.04-8.55-46.173-1.487-52.983-11.077-29.68-41.8-47.14-92.9-47.14-148.07 0-141.38 114.62-256 256-256 134.01 0 243.98 102.98 255.08 234.12.61 7.21.92 14.51.92 21.88z" fill="#2e4f5f"/><g fill="#1f3645"><path d="m59.104 334.567c-6.234-6.234-6.234-16.34 0-22.574l108.121-108.121c6.234-6.234 16.34-6.234 22.574 0 6.234 6.234 6.234 16.34 0 22.574l-108.121 108.121c-6.234 6.233-16.34 6.233-22.574 0z"/><path d="m512 256c0 7.89-.36 15.7-1.06 23.41l-26.22 26.23c-6.24 6.23-16.34 6.23-22.58 0-6.23-6.24-6.23-16.34 0-22.58l48.94-48.94c.61 7.21.92 14.51.92 21.88z"/><path d="m59.437 259.08c-6.234-6.234-6.234-16.34 0-22.574l108.121-108.121c6.234-6.234 16.34-6.234 22.574 0 6.234 6.234 6.234 16.34 0 22.574l-108.121 108.121c-6.234 6.233-16.341 6.233-22.574 0z"/></g><g fill="#ca245f"><path d="m297.195 450.75c-.018 0-.037 0-.056 0-3.688.021-7.563.036-10.922.044v-49.401c0-5.375-4.357-9.732-9.732-9.732s-9.732 4.357-9.732 9.732v59.089c0 4.741 3.416 8.792 8.09 9.592.695.119 1.134.194 7.833.194 3.197 0 7.819-.017 14.573-.054 5.375-.03 9.707-4.411 9.678-9.786-.031-5.356-4.382-9.678-9.732-9.678z"/><path d="m327.138 391.662c-5.375 0-9.732 4.357-9.732 9.732v59.138c0 5.375 4.357 9.732 9.732 9.732s9.732-4.357 9.732-9.732v-59.138c.001-5.375-4.357-9.732-9.732-9.732z"/><path d="m449.999 450.8h-14.959v-9.835h13.138c5.375 0 9.732-4.357 9.732-9.732s-4.357-9.732-9.732-9.732h-13.138v-9.835h14.959c5.375 0 9.732-4.357 9.732-9.732s-4.357-9.732-9.732-9.732h-24.691c-5.375 0-9.732 4.357-9.732 9.732v58.599c0 5.375 4.357 9.732 9.732 9.732h24.691c5.375 0 9.732-4.357 9.732-9.732 0-5.376-4.357-9.733-9.732-9.733z"/><path d="m400.316 392.267c-5.102-1.696-10.61 1.067-12.304 6.167l-11.512 34.653-12.109-34.885c-1.763-5.078-7.31-7.766-12.386-6.002-5.078 1.762-7.765 7.308-6.003 12.385l20.243 58.314c1.566 4.413 5.751 7.365 10.428 7.365h.074c4.707-.031 8.888-3.047 10.426-7.569l19.309-58.125c1.697-5.1-1.065-10.609-6.166-12.303z"/></g><g><path d="m475.141 155.641-153.496 153.495c-7.734 7.734-17.061 12.888-26.922 15.468-17.914 4.691-34.744 12.808-49.208 24.373l-111.257 88.923-24.788 19.816-50.952-39.96 24.7-30.897 88.922-111.257c11.565-14.465 19.682-31.295 24.373-49.208 2.581-9.861 7.734-19.188 15.468-26.922l153.496-153.495c23.218-23.218 60.877-23.218 84.096 0l25.568 25.568c23.218 23.218 23.218 60.877 0 84.096z" fill="#d6d8e8"/><path d="m197.906 301.375-123.642 132.133-15.747-15.747 113.622-142.153c11.565-14.465 19.674-31.303 24.373-49.208 2.581-9.861 7.734-19.188 15.468-26.922l153.496-153.496c23.218-23.218 60.877-23.218 84.096 0l8.977 8.977c-6.906-6.906-31.343 6.316-54.561 29.535l-153.496 153.495c-7.734 7.734-14.353 15.596-19.491 22.9-9.335 13.269-20.51 27.041-33.095 40.486z" fill="#b8bede"/><path d="m134.258 437.9-23.874 19.086-51.866-39.229 24.699-30.897z" fill="#b8bede"/><path d="m122.94 459.25c0 4.52-1.42 9.04-4.27 12.83-28.02-17.84-52.33-40.98-71.53-68.01 8.37-7.99 21.61-7.87 29.82.35l39.73 39.73c4.17 4.17 6.25 9.63 6.25 15.1z" fill="#d6d8e8"/><path d="m101.6 429.05c-8.33-8.33-21.86-8.33-30.2.01-.71.71-1.36 1.46-1.95 2.25-8.04-8.55-15.5-17.65-22.31-27.24 8.37-7.99 21.61-7.87 29.83.35z" fill="#b8bede"/></g><path d="m214.726 15.487 27.049 68.516c1.366 3.461 5.164 5.29 8.722 4.201l70.432-21.571c6.186-1.895 11.496 4.764 8.272 10.373l-36.703 63.867c-1.854 3.226-.916 7.336 2.154 9.439l60.779 41.617c5.338 3.655 3.443 11.958-2.952 12.935l-72.817 11.125c-3.679.562-6.307 3.858-6.036 7.569l5.357 73.467c.471 6.452-7.203 10.148-11.954 5.757l-54.098-49.994c-2.733-2.526-6.948-2.526-9.681 0l-54.098 49.994c-4.751 4.391-12.424.696-11.954-5.757l5.357-73.467c.271-3.711-2.358-7.007-6.036-7.569l-72.817-11.125c-6.395-.977-8.29-9.28-2.952-12.935l60.779-41.617c3.07-2.102 4.008-6.212 2.154-9.439l-36.702-63.868c-3.224-5.609 2.086-12.268 8.272-10.373l70.432 21.571c3.558 1.09 7.356-.739 8.722-4.201l27.049-68.516c2.377-6.017 10.894-6.017 13.27.001z" fill="#efc64c"/><path d="m228.471 83.315 12.7 32.168c1.108 2.806 4.187 4.289 7.072 3.406l33.068-10.128c5.015-1.536 9.32 3.862 6.707 8.41l-17.232 29.986c-1.503 2.616-.743 5.948 1.747 7.652l28.536 19.539c4.328 2.963 2.791 9.695-2.394 10.487l-34.188 5.223c-2.982.456-5.113 3.128-4.894 6.137l2.515 34.493c.381 5.231-5.839 8.227-9.691 4.667l-25.399-23.472c-2.216-2.048-5.633-2.048-7.849 0l-25.399 23.472c-3.852 3.56-10.073.564-9.691-4.667l2.515-34.493c.219-3.009-1.911-5.681-4.894-6.137l-34.188-5.223c-5.185-.792-6.721-7.524-2.394-10.487l28.536-19.539c2.489-1.704 3.25-5.036 1.747-7.652l-17.232-29.986c-2.613-4.548 1.692-9.946 6.707-8.41l33.068 10.128c2.885.883 5.964-.599 7.072-3.406l12.7-32.168c1.924-4.879 8.829-4.879 10.755 0z" fill="#e3a12f"/><g><path d="m305.671 78.499c29.581 29.581 29.589 77.543 0 107.132-29.581 29.581-77.543 29.574-107.125-.008-21.281-21.281-27.261-52.077-17.902-78.696 1.16-3.321 11.947-1.206 13.589-4.37 1.919-3.698-5.219-12.64-2.647-16.04 2.101-2.79 4.421-5.471 6.96-8.011 2.547-2.547 5.228-4.868 8.018-6.968 4.062-3.073 13.122 4.561 17.597 2.421 2.475-1.184.248-12.467 2.814-13.363 26.619-9.358 57.415-3.377 78.696 17.903z" fill="#eceef1"/><path d="m317.303 170.676c-3.167 5.33-7.039 10.362-11.632 14.955-29.581 29.581-77.543 29.574-107.125-.008-21.281-21.281-27.261-52.077-17.902-78.696 1.062-3.039 12.124-1.461 13.589-4.37 2.007-3.986-5.406-12.393-2.647-16.04 2.101-2.79 4.421-5.471 6.96-8.011 2.547-2.547 5.228-4.868 8.018-6.968 2.25-1.701 2.319.799 4.701-.612-.793 1.336.703-1.37 0 0-1.569 3.06-2.915 6.204-4.035 9.414-9.359 26.619-3.378 57.415 17.902 78.695 24.997 24.998 63.114 28.878 92.171 11.641z" fill="#d9dee8"/><path d="m261.503 83.053c-9.202-1.427-18.2-6.129-25.317-13.247l-9.21-9.21c-4.64 1.615-9.155 3.715-13.466 6.271-2.383 1.411-4.703 2.978-6.945 4.672l13.944 13.944c10.574 10.574 23.577 17.307 37.6 19.478 6.098.941 11.632 3.762 16.006 8.136 5.62 5.62 8.638 13.09 8.481 21.038-.149 7.956-3.457 15.308-9.304 20.732-10.997 10.182-28.241 10.213-39.261.055-4.899-4.507-8.019-10.354-9.022-16.876-2.163-13.999-8.873-26.979-19.423-37.529l-13.999-13.999c-4.773 6.31-8.426 13.207-10.942 20.411l9.265 9.265c7.094 7.094 11.773 16.053 13.184 25.223 1.779 11.546 7.282 21.861 15.912 29.801 14.791 13.631 35.93 16.883 53.746 9.774 5.636-2.25 10.934-5.542 15.606-9.868.502-.455.98-.917 1.458-1.395 9.406-9.406 14.697-21.814 14.947-35.17.267-14.03-5.048-27.214-14.971-37.137-7.73-7.73-17.512-12.699-28.289-14.369z" fill="#ca245f"/><g fill="#b7004f"><path d="m180.644 106.928c2.516-7.203 6.169-14.101 10.942-20.411l11.71 11.71c-2.085 21.727 5.205 44.176 21.837 60.809 13.278 13.278 30.255 20.599 47.617 21.955-17.816 7.109-38.956 3.856-53.746-9.774-8.63-7.94-14.132-18.255-15.912-29.801-1.411-9.171-6.09-18.13-13.184-25.223z"/><path d="m213.509 66.867c-1.474 2.492-2.806 5.048-3.966 7.65l-2.979-2.979c2.242-1.692 4.562-3.26 6.945-4.671z"/></g></g><path d="m373.117 207.758c-6.234-6.234-6.234-16.34 0-22.574l66.78-66.78c6.234-6.234 16.34-6.234 22.574 0 6.234 6.234 6.234 16.34 0 22.574l-66.78 66.78c-6.234 6.233-16.341 6.233-22.574 0z" fill="#eceef1"/><path d="m356.396 339.222c-6.234-6.234-6.234-16.34 0-22.574l108.121-108.121c6.234-6.234 16.34-6.234 22.574 0 6.234 6.234 6.234 16.34 0 22.574l-108.121 108.121c-6.234 6.234-16.34 6.234-22.574 0z" fill="#1f3645"/><path d="m336.205 244.67c-6.234-6.234-6.234-16.34 0-22.574 6.234-6.234 16.34-6.234 22.574 0 6.234 6.234 6.234 16.34 0 22.574-6.234 6.233-16.341 6.233-22.574 0z" fill="#eceef1"/></g></svg>