<svg id="Capa_1" enable-background="new 0 0 512 512" height="512" viewBox="0 0 512 512" width="512" xmlns="http://www.w3.org/2000/svg"><g><path d="m512 256c0 81.16-37.77 153.5-96.69 200.4-5.459 4.346-24.64-5.067-30.45-1.172-6.355 4.261.629 21.784-6.111 25.472-36.449 19.95-78.269 31.3-122.749 31.3-44.47 0-86.28-11.35-122.73-31.29-.01 0-.01-.01-.02-.01-7.316-4.004-2.124-20.647-8.986-25.323-5.237-3.57-22.627 4.962-27.574 1.023-58.92-46.9-96.69-119.24-96.69-200.4 0-141.38 114.62-256 256-256s256 114.62 256 256z" fill="#efc64c"/><path d="m333.834 447.071h-155.668l14.857-56.865h125.954z" fill="#1f3645"/><path d="m435.205 408.496h-358.41c-34.363 0-62.22-27.857-62.22-62.22v-258.648c0-34.363 27.857-62.22 62.22-62.22h358.41c34.363 0 62.22 27.857 62.22 62.22v258.648c0 34.363-27.857 62.22-62.22 62.22z" fill="#2e4f5f"/><path d="m108.715 408.496h-31.92c-34.36 0-62.22-27.86-62.22-62.22v-258.65c0-34.36 27.86-62.22 62.22-62.22h31.92c-34.36 0-62.22 27.86-62.22 62.22v258.65c0 34.36 27.86 62.22 62.22 62.22z" fill="#1f3645"/><path d="m76.795 368.496c-12.252 0-22.22-9.968-22.22-22.219v-258.649c0-12.252 9.968-22.219 22.22-22.219h358.41c12.252 0 22.22 9.968 22.22 22.219v258.648c0 12.252-9.968 22.219-22.22 22.219h-358.41z" fill="#9dc6fb"/><path d="m161.005 368.496h-84.21c-12.25 0-22.22-9.97-22.22-22.22v-258.65c0-12.25 9.97-22.22 22.22-22.22h84.21c-36.79 0-66.61 29.82-66.61 66.61v169.86c0 36.79 29.82 66.62 66.61 66.62z" fill="#80b4fb"/><path d="m415.31 456.4c-11.43 9.1-23.66 17.24-36.56 24.3h-245.5c-12.9-7.06-25.13-15.2-36.56-24.3 1.52-10.2 10.32-18.02 20.94-18.02h276.74c5.85 0 11.14 2.37 14.97 6.2 3.13 3.12 5.28 7.23 5.97 11.82z" fill="#2e4f5f"/><path d="m158.53 474.51c3.83 3.83 9.11 6.2 14.96 6.2h-40.22c-.01 0-.01-.01-.02-.01-12.9-7.06-25.13-15.2-36.56-24.3 1.52-10.19 10.32-18.02 20.94-18.02h55.86c-11.69 0-21.16 9.48-21.16 21.16 0 5.85 2.37 11.14 6.2 14.97z" fill="#1f3645"/><g><path d="m287.64 282.857h-63.28c-30.33 0-55.005-24.675-55.005-55.005v-94.971c0-47.776 38.869-86.645 86.645-86.645s86.645 38.869 86.645 86.645v94.971c0 30.33-24.675 55.005-55.005 55.005zm-31.64-193.738c-24.13 0-43.762 19.632-43.762 43.762v94.971c0 6.684 5.438 12.122 12.122 12.122h63.28c6.684 0 12.122-5.438 12.122-12.122v-94.971c0-24.13-19.632-43.762-43.762-43.762z" fill="#eceef1"/><g fill="#d6d8e8"><path d="m287.64 239.974h21.391c6.684 0 12.122-5.438 12.122-12.122v-94.971c0-24.13-19.632-43.762-43.762-43.762-3.689 0-7.271.464-10.695 1.327 18.977 4.785 33.067 21.994 33.067 42.435v94.971c-.001 6.684-5.439 12.122-12.123 12.122z"/><path d="m190.746 227.852v-94.971c0-44.155 33.201-80.699 75.95-85.985-3.505-.433-7.074-.66-10.695-.66-47.776 0-86.645 38.869-86.645 86.645v94.971c0 30.33 24.675 55.005 55.005 55.005h21.391c-30.331 0-55.006-24.675-55.006-55.005z"/></g><path d="m330.015 347.834h-148.03c-23.389 0-42.35-18.961-42.35-42.35v-88.136c0-23.389 18.961-42.35 42.35-42.35h148.03c23.389 0 42.35 18.961 42.35 42.35v88.136c0 23.389-18.961 42.35-42.35 42.35z" fill="#ca245f"/><path d="m228.189 347.833h-46.202c-23.389 0-42.352-18.963-42.352-42.351v-88.134c0-23.389 18.963-42.351 42.352-42.351h46.202c-23.389 0-42.352 18.963-42.352 42.351v88.134c0 23.388 18.963 42.351 42.352 42.351z" fill="#b7004f"/><path d="m285.84 293.063-14.57-25.236c9.133-5.285 15.294-15.137 15.294-26.449 0-16.88-13.684-30.564-30.564-30.564s-30.564 13.684-30.564 30.564c0 11.311 6.16 21.163 15.294 26.449l-14.57 25.236c-4.864 8.424 1.216 18.954 10.943 18.954h37.794c9.727 0 15.807-10.53 10.943-18.954z" fill="#1f3645"/><path d="m274.897 317.523h-37.794c-6.558 0-12.432-3.391-15.712-9.071-3.279-5.68-3.279-12.462 0-18.142l12.032-20.839c-8.432-6.791-13.493-17.13-13.493-28.093 0-19.889 16.18-36.07 36.07-36.07s36.07 16.181 36.07 36.07c0 10.963-5.061 21.302-13.493 28.093l12.032 20.839c3.279 5.68 3.279 12.462 0 18.142-3.28 5.68-9.154 9.071-15.712 9.071zm-18.897-101.203c-13.817 0-25.057 11.241-25.057 25.057 0 8.896 4.807 17.205 12.546 21.683 2.63 1.522 3.529 4.887 2.01 7.518l-14.57 25.236c-1.858 3.218-.619 6.058 0 7.13s2.46 3.565 6.175 3.565h37.794c3.715 0 5.556-2.493 6.175-3.565s1.858-3.913 0-7.13l-14.57-25.236c-1.519-2.632-.619-5.996 2.01-7.518 7.739-4.478 12.546-12.787 12.546-21.683-.002-13.816-11.242-25.057-25.059-25.057z" fill="#b7004f"/></g></g></svg>