<svg id="Capa_1" enable-background="new 0 0 512 512" height="512" viewBox="0 0 512 512" width="512" xmlns="http://www.w3.org/2000/svg"><g><path d="m512 256c0 82.08-38.63 155.14-98.71 201.99-7.78 6.07-32.26-10.142-40.73-4.992-6.33 3.85 3.5 29.282-3.17 32.572-34.18 16.92-72.67 26.43-113.39 26.43-141.38 0-256-114.62-256-256s114.62-256 256-256 256 114.62 256 256z" fill="#9dc6fb"/><path d="m334.746 77.45 29.762 75.387c1.504 3.808 5.682 5.821 9.597 4.622l77.497-23.734c6.806-2.085 12.649 5.242 9.102 11.414l-40.384 70.271c-2.04 3.55-1.008 8.072 2.37 10.385l66.875 45.791c5.873 4.022 3.788 13.157-3.248 14.233l-80.12 12.241c-4.047.618-6.939 4.245-6.642 8.328l5.895 80.835c.518 7.1-7.925 11.165-13.153 6.334l-59.524-55.008c-3.007-2.779-7.645-2.779-10.652 0l-59.524 55.008c-5.228 4.831-13.671.766-13.153-6.334l5.895-80.835c.298-4.084-2.594-7.71-6.642-8.328l-80.12-12.241c-7.037-1.075-9.122-10.211-3.248-14.233l66.875-45.791c3.378-2.313 4.41-6.835 2.37-10.385l-40.384-70.272c-3.547-6.172 2.296-13.498 9.102-11.414l77.497 23.734c3.915 1.199 8.094-.813 9.597-4.622l29.762-75.387c2.614-6.621 11.984-6.621 14.598.001z" fill="#bed8fb"/><g fill="#ca245f"><path d="m342.556 78.518c-.018 0-.037 0-.056 0-3.688.021-7.563.036-10.922.044v-49.4c0-5.375-4.357-9.732-9.732-9.732s-9.732 4.357-9.732 9.732v59.088c0 4.741 3.416 8.792 8.09 9.592.695.119 1.133.194 7.833.194 3.196 0 7.819-.017 14.573-.054 5.375-.03 9.707-4.411 9.678-9.786-.031-5.356-4.382-9.678-9.732-9.678z"/><path d="m372.499 19.43c-5.375 0-9.732 4.357-9.732 9.732v59.138c0 5.375 4.357 9.732 9.732 9.732s9.732-4.357 9.732-9.732v-59.138c0-5.375-4.357-9.732-9.732-9.732z"/><path d="m495.36 78.568h-14.959v-9.835h13.138c5.375 0 9.732-4.357 9.732-9.732s-4.357-9.732-9.732-9.732h-13.138v-9.835h14.959c5.375 0 9.732-4.357 9.732-9.732s-4.357-9.732-9.732-9.732h-24.691c-5.375 0-9.732 4.357-9.732 9.732v58.598c0 5.375 4.357 9.732 9.732 9.732h24.691c5.375 0 9.732-4.357 9.732-9.732s-4.357-9.732-9.732-9.732z"/><path d="m445.677 20.034c-5.102-1.696-10.61 1.067-12.304 6.167l-11.512 34.653-12.108-34.884c-1.763-5.078-7.31-7.766-12.386-6.002-5.078 1.762-7.765 7.308-6.003 12.385l20.243 58.314c1.566 4.413 5.751 7.365 10.428 7.365h.074c4.707-.031 8.888-3.047 10.426-7.569l19.309-58.125c1.695-5.1-1.066-10.609-6.167-12.304z"/></g><g><g fill="#d9dee8"><path d="m57.408 275.287h297.739v15h-297.739z" transform="matrix(.707 -.707 .707 .707 -139.543 228.687)"/><path d="m97.965 310.324h286.7v15h-286.7z" transform="matrix(.707 -.707 .707 .707 -154.056 263.724)"/><path d="m157.632 345.361h237.44v15h-237.44z" transform="matrix(.707 -.707 .707 .707 -168.569 298.761)"/><path d="m-6.76 205.22h285.94v15h-285.94z" transform="matrix(.707 -.707 .707 .707 -110.52 158.619)"/><path d="m22.378 240.257h297.739v15h-297.739z" transform="matrix(.707 -.707 .707 .707 -125.033 193.656)"/><path d="m-16.526 170.183h235.399v15h-235.399z" transform="matrix(.707 -.707 .707 .707 -96.008 123.582)"/></g><g fill="#eceef1"><path d="m179.298 85.668h15v363.136h-15z" transform="matrix(.707 -.707 .707 .707 -134.252 210.358)"/><path d="m214.804 57.936h15v349.47h-15z" transform="matrix(.707 -.707 .707 .707 -99.412 225.341)"/><path d="m249.841 50.749h15v293.77h-15z" transform="matrix(.707 -.707 .707 .707 -64.375 239.853)"/><path d="m109.692 195.867h15v283.83h-15z" transform="matrix(.707 -.707 .707 .707 -204.523 181.802)"/><path d="m144.73 129.97h15v345.55h-15z" transform="matrix(.707 -.707 .707 .707 -169.486 196.315)"/></g><path d="m413.29 457.99c-13.6 10.6-28.3 19.87-43.9 27.58l-60.79-60.79 35.74-35.74z" fill="#d6d8e8"/><path d="m388.89 474.84c-6.33 3.85-12.83 7.44-19.5 10.73l-60.79-60.79 15.12-15.11z" fill="#b8bede"/><path d="m47.475 128.572c-64.174 64.532-62.897 169.285 1.456 233.638l44.961 44.961c45.139 45.139 110.18 58.53 167.135 40.186 18.905-6.089 39.509-3.756 56.291 6.866l6.596 4.175c15.483 9.799 35.69 7.556 48.646-5.4 12.956-12.956 15.2-33.164 5.4-48.646l-4.175-6.596c-10.622-16.782-12.955-37.387-6.866-56.291 18.344-56.955 4.953-121.996-40.186-167.135l-46.088-46.088c-64.304-64.304-169.003-64.195-233.17.33zm258.045 66.971c52.497 52.497 52.497 137.917 0 190.414s-137.917 52.498-190.414 0l-46.089-46.087c-52.497-52.497-52.497-137.918 0-190.415s137.917-52.498 190.415 0z" fill="#905f43"/><g fill="#784536"><path d="m311.849 379.167c2.317-2.02 4.585-4.125 6.79-6.33 52.497-52.497 52.498-137.917 0-190.414l-46.088-46.088c-52.497-52.498-137.918-52.497-190.415 0-2.205 2.205-4.31 4.473-6.33 6.79 52.831-46.066 133.332-43.962 183.625 6.33l46.088 46.088c50.293 50.292 52.397 130.794 6.33 183.624z"/><path d="m337.034 445.278-6.596-4.175c-16.782-10.622-37.387-12.955-56.291-6.866-56.955 18.344-121.996 4.953-167.135-40.186l-44.961-44.961c-62.251-62.251-65.475-162.306-7.53-227.188-2.396 2.144-4.75 4.361-7.046 6.67-64.174 64.532-62.897 169.285 1.456 233.639l44.961 44.961c45.139 45.139 110.18 58.53 167.135 40.186 18.905-6.089 39.509-3.755 56.291 6.866l6.596 4.175c15.482 9.799 35.69 7.556 48.646-5.4 2.251-2.251 4.171-4.725 5.769-7.351-12.488 7.595-28.502 7.727-41.295-.37z"/></g></g><g><path d="m342.074 186.764c32.281 32.281 32.289 84.619 0 116.909-32.281 32.281-84.619 32.272-116.9-.009-23.223-23.223-29.749-56.829-19.536-85.877 1.287-3.684 8.511-3.551 10.341-7.057 2.075-3.974-1.168-11.558 1.6-15.216 2.292-3.045 4.824-5.97 7.595-8.742 2.78-2.78 5.705-5.312 8.75-7.604 4.914-3.718 13.179 4.431 18.634 1.965 2.189-.989 1.388-13.12 3.639-13.906 29.048-10.212 62.654-3.685 85.877 19.537z" fill="#efc64c"/><path d="m354.767 287.353c-3.456 5.816-7.681 11.308-12.693 16.32-32.281 32.281-84.619 32.272-116.9-.009-23.223-23.223-29.749-56.829-19.536-85.877 1.239-3.548 8.598-3.673 10.341-7.057 2.119-4.113-1.258-11.438 1.6-15.216 2.292-3.045 4.824-5.97 7.595-8.742 2.78-2.78 5.705-5.312 8.75-7.604 2.455-1.856 7.636-.9 10.237-2.44-1.143 1.926-4.858 1.227-5.83 3.218-1.406 2.881-2.633 5.827-3.68 8.827-10.213 29.048-3.686 62.654 19.536 85.877 27.277 27.278 68.873 31.512 100.58 12.703z" fill="#e3a12f"/><path d="m293.875 191.734c-10.042-1.557-19.861-6.689-27.628-14.455l-10.05-10.05c-5.064 1.762-9.99 4.054-14.695 6.843-2.6 1.54-5.132 3.25-7.578 5.098l15.217 15.217c11.539 11.539 25.729 18.886 41.031 21.255 6.655 1.026 12.693 4.106 17.466 8.878 6.133 6.133 9.426 14.284 9.255 22.958-.163 8.682-3.772 16.705-10.153 22.624-12 11.111-30.818 11.145-42.844.06-5.346-4.918-8.75-11.299-9.845-18.416-2.361-15.277-9.682-29.441-21.195-40.954l-15.276-15.276c-5.209 6.886-9.195 14.413-11.941 22.273l10.11 10.11c7.741 7.741 12.847 17.518 14.387 27.525 1.942 12.599 7.946 23.856 17.364 32.52 16.14 14.874 39.209 18.424 58.651 10.666 6.15-2.455 11.932-6.047 17.03-10.769.547-.496 1.069-1.001 1.591-1.523 10.264-10.264 16.038-23.804 16.311-38.379.291-15.311-5.508-29.698-16.337-40.526-8.435-8.434-19.11-13.857-30.871-15.679z" fill="#eceef1"/><g fill="#d6d8e8"><path d="m205.638 217.788c2.746-7.861 6.732-15.388 11.941-22.273l12.779 12.779c-2.275 23.71 5.679 48.207 23.83 66.358 14.49 14.49 33.016 22.478 51.962 23.958-19.442 7.758-42.511 4.208-58.651-10.666-9.417-8.665-15.422-19.921-17.364-32.52-1.54-10.008-6.646-19.784-14.387-27.525z"/><path d="m241.503 174.071c-1.608 2.72-3.062 5.508-4.328 8.348l-3.25-3.25c2.445-1.848 4.977-3.558 7.578-5.098z"/></g></g></g></svg>