<svg id="Capa_1" enable-background="new 0 0 512 512" height="512" viewBox="0 0 512 512" width="512" xmlns="http://www.w3.org/2000/svg"><g><path d="m512 256c0 85.877-42.286 161.879-107.172 208.318-41.939 30.016-40.988-16.319-96.495-16.319-87.536 0-217.144 20.067-263.308-46.955-28.399-41.229-45.025-91.195-45.025-145.044 0-141.385 114.615-256 256-256s256 114.615 256 256z" fill="#5e54ac"/><g><circle cx="256" cy="207.069" fill="#9ddea3" r="207.069"/><circle cx="256" cy="207.069" fill="#88c98b" r="169.023"/><path d="m271.515 413.57c-5.125.379-10.298.574-15.52.574-114.365 0-207.065-92.71-207.065-207.075 0-114.356 92.7-207.065 207.065-207.065 5.222 0 10.395.195 15.52.574-107.111 7.935-191.545 97.358-191.545 206.491 0 109.144 84.434 198.567 191.545 206.501z" fill="#88c98b"/><circle cx="256" cy="207.07" fill="#cbe2ff" r="150.311"/><path d="m276.38 356.007c-6.662.91-13.463 1.375-20.379 1.375-83.012 0-150.311-67.299-150.311-150.312 0-83.012 67.299-150.311 150.311-150.311 6.916 0 13.717.464 20.379 1.375-73.383 9.936-129.932 72.831-129.932 148.937s56.549 139 129.932 148.936z" fill="#bed8fb"/><path d="m256 108.199c-6.752 0-12.226 5.474-12.226 12.226v79.761h24.452v-79.761c0-6.752-5.474-12.226-12.226-12.226z" fill="#9dc6fb"/><path d="m304.338 255.408c4.775-4.775 4.775-12.516 0-17.29l-33.401-33.401c-.787-.787-2.063-.787-2.85 0l-14.441 14.441c-.787.787-.787 2.063 0 2.85l33.401 33.401c4.775 4.773 12.516 4.773 17.291-.001z" fill="#9dc6fb"/><circle cx="256" cy="207.07" fill="#80b4fb" r="22.467"/><g fill="#9dc6fb"><g><circle cx="256" cy="83.175" r="16.073"/><circle cx="256" cy="330.964" r="16.073"/></g><g><circle cx="194.053" cy="99.774" r="8.218"/><circle cx="317.947" cy="314.366" r="8.218"/></g><g><circle cx="148.704" cy="145.122" r="8.218"/><circle cx="363.296" cy="269.017" r="8.218"/></g><g><circle cx="148.704" cy="269.017" r="8.218"/><circle cx="363.296" cy="145.122" r="8.218"/></g><g><circle cx="194.053" cy="314.366" r="8.218"/><circle cx="317.947" cy="99.774" r="8.218"/></g><g><circle cx="379.895" cy="207.07" r="16.073"/><circle cx="132.105" cy="207.07" r="16.073"/></g></g><path d="m367.978 129.467c0 2.854-.525 5.576-1.488 8.088-1.917 5.042-5.576 9.218-10.242 11.792-3.248 1.803-6.986 2.827-10.969 2.827-12.544 0-22.707-10.163-22.707-22.707 0-12.536 10.163-22.699 22.707-22.699 12.536.001 22.699 10.164 22.699 22.699z" fill="#fff"/><path d="m366.49 137.556c-1.917 5.042-5.576 9.218-10.242 11.792-.026-.035-.044-.079-.07-.114-2.267-3.931-.919-8.955 3.011-11.231 2.32-1.34 5.017-1.419 7.301-.447z" fill="#ddeafb"/><circle cx="364.615" cy="169.458" fill="#fff" r="11.353"/></g><g><path d="m475.22 435.6c0 42.2-34.2 76.4-76.39 76.4h-142.83c-43.5 0-84.46-10.85-120.34-30-13.87-7.4-26.99-16.04-39.19-25.78-10.44-8.33-20.22-17.46-29.21-27.29-8.05-8.76-15.48-18.07-22.23-27.89 12.61-24.82 38.39-41.83 68.14-41.83h285.66c21.09 0 40.19 8.55 54.02 22.37 5.67 5.68 10.46 12.24 14.12 19.46 5.28 10.38 8.25 22.12 8.25 34.56z" fill="#ca245f"/><path d="m93.65 435.6c0 7.14.98 14.06 2.82 20.62-19.74-15.74-37.09-34.35-51.44-55.18 12.61-24.82 38.39-41.83 68.14-41.83h56.88c-42.19 0-76.4 34.2-76.4 76.39z" fill="#b7004f"/><path d="m445.22 435.6c0 25.59-20.81 46.4-46.39 46.4h-263.17c-13.87-7.4-26.99-16.04-39.19-25.78-10.44-8.33-20.22-17.46-29.21-27.29 3.24-22.43 22.59-39.72 45.91-39.72h285.66c23.32 0 42.68 17.3 45.91 39.74.32 2.17.48 4.39.48 6.65z" fill="#b7004f"/><g fill="#eceef1"><path d="m189.952 455.39c-.018 0-.037 0-.056 0-3.688.021-7.563.036-10.922.044v-49.401c0-5.375-4.357-9.732-9.732-9.732s-9.732 4.357-9.732 9.732v59.089c0 4.741 3.416 8.792 8.09 9.592.695.119 1.133.194 7.833.194 3.197 0 7.819-.017 14.573-.054 5.375-.03 9.707-4.411 9.678-9.786-.031-5.357-4.382-9.678-9.732-9.678z"/><path d="m219.896 396.301c-5.375 0-9.732 4.357-9.732 9.732v59.138c0 5.375 4.357 9.732 9.732 9.732s9.732-4.357 9.732-9.732v-59.138c0-5.374-4.358-9.732-9.732-9.732z"/><path d="m342.756 455.44h-14.959v-9.835h13.138c5.375 0 9.732-4.357 9.732-9.732s-4.357-9.732-9.732-9.732h-13.138v-9.835h14.959c5.375 0 9.732-4.357 9.732-9.732s-4.357-9.732-9.732-9.732h-24.691c-5.375 0-9.732 4.357-9.732 9.732v58.599c0 5.375 4.357 9.732 9.732 9.732h24.691c5.375 0 9.732-4.357 9.732-9.732 0-5.376-4.357-9.733-9.732-9.733z"/><path d="m293.073 396.906c-5.102-1.696-10.61 1.067-12.304 6.167l-11.512 34.653-12.109-34.885c-1.763-5.078-7.31-7.766-12.386-6.002-5.078 1.762-7.765 7.308-6.003 12.385l20.243 58.314c1.566 4.413 5.751 7.365 10.428 7.365h.074c4.707-.031 8.888-3.047 10.426-7.569l19.309-58.125c1.697-5.1-1.064-10.609-6.166-12.303z"/></g></g></g></svg>