<svg id="Capa_1" enable-background="new 0 0 512 512" height="512" viewBox="0 0 512 512" width="512" xmlns="http://www.w3.org/2000/svg"><g><path d="m512 256c0 94.7-51.43 177.4-127.88 221.67-5.946 3.45-33.499-14.79-39.738-11.822-7.181 3.417 6.907 27.962-.622 30.712-21.11 7.7-43.52 12.71-66.81 14.59-6.91.56-13.9-16.727-20.95-16.727s-14.04 17.287-20.95 16.727c-23.29-1.88-45.7-6.89-66.81-14.59-9.682-3.537 3.03-18.456-6.067-23.087-4.123-2.099-30.304 6.511-34.293 4.197-76.45-44.27-127.88-126.97-127.88-221.67 0-141.38 114.62-256 256-256s256 114.62 256 256z" fill="#bed8fb"/><path d="m70.13 345.416h371.74c32.123 0 58.164-26.041 58.164-58.164v-191.498c0-32.123-26.041-58.164-58.164-58.164h-371.74c-32.123 0-58.164 26.041-58.164 58.164v191.498c0 32.123 26.041 58.164 58.164 58.164z" fill="#2e4f5f"/><path d="m89.086 345.424h-18.96c-32.12 0-58.16-26.04-58.16-58.17v-191.5c0-32.12 26.04-58.16 58.16-58.16h18.96c-32.12 0-58.17 26.04-58.17 58.16v191.5c0 32.13 26.05 58.17 58.17 58.17z" fill="#1f3645"/><path d="m442.61 157.22v68.57c0 15.39 12.18 27.94 27.42 28.53v32.93c0 15.53-12.63 28.17-28.16 28.17h-71.526l-18.955-8.384-14.964 8.384h-16.525l-85.43-18.6-85.43 18.6h-78.91c-15.53 0-28.16-12.64-28.16-28.17v-191.5c0-15.53 12.63-28.16 28.16-28.16h70.17l99.133 6.723 99.527-6.723h102.91c15.53 0 28.16 12.63 28.16 28.16v32.93c-15.24.59-27.42 13.14-27.42 28.54z" fill="#9dc6fb"/><path d="m99.06 315.42h-28.93c-15.53 0-28.16-12.64-28.16-28.17v-191.5c0-15.53 12.63-28.16 28.16-28.16h28.93c-15.53 0-28.16 12.63-28.16 28.16v191.5c0 15.53 12.63 28.17 28.16 28.17z" fill="#80b4fb"/><path d="m297.606 54.471h-83.213c-12.559 0-22.74-10.181-22.74-22.74v-8.99c0-12.559 10.181-22.74 22.74-22.74h83.213c12.559 0 22.74 10.181 22.74 22.74v8.99c.001 12.559-10.181 22.74-22.74 22.74z" fill="#d6d8e8"/><path d="m249.313 54.471h-34.92c-12.56 0-22.74-10.18-22.74-22.74v-8.99c0-12.56 10.18-22.74 22.74-22.74h34.92c-12.56 0-22.74 10.18-22.74 22.74v8.99c0 12.56 10.18 22.74 22.74 22.74z" fill="#b8bede"/><path d="m297.606 383.01-44.646 15.64-38.566-15.64c-12.559 0-22.74-10.181-22.74-22.74v-8.99c0-12.559 10.181-22.74 22.74-22.74h83.213c12.559 0 22.74 10.181 22.74 22.74v8.99c0 12.559-10.182 22.74-22.741 22.74z" fill="#d6d8e8"/><path d="m249.313 383.01h-34.92c-12.56 0-22.74-10.18-22.74-22.74v-8.99c0-12.56 10.18-22.74 22.74-22.74h34.92c-12.56 0-22.74 10.18-22.74 22.74v8.99c0 12.56 10.18 22.74 22.74 22.74z" fill="#b8bede"/><path d="m276.95 398.65v112.5c-6.91.56-13.9.85-20.95.85-1.01 0-2.03-.01-3.04-.02-6.02-.07-11.99-.35-17.91-.83v-112.5z" fill="#2e4f5f"/><path d="m252.96 398.65v113.33c-6.02-.07-11.99-.35-17.91-.83v-112.5z" fill="#1f3645"/><g fill="#2e4f5f"><path d="m244.75 420.05-76.51 76.51c-9.68-3.54-19.1-7.64-28.19-12.27-4.12-2.1-8.18-4.31-12.17-6.62l87.24-87.25z"/><path d="m384.12 477.67c-9.04 5.24-18.43 9.94-28.12 14.05-4.03 1.72-8.11 3.33-12.24 4.84l-76.51-76.51 29.63-29.63z"/></g><g fill="#1f3645"><path d="m356 491.72c-4.03 1.72-8.11 3.33-12.24 4.84l-76.51-76.51 8.54-8.54z"/><path d="m224.52 399.82-84.47 84.47c-4.12-2.1-8.18-4.31-12.17-6.62l87.24-87.25z"/><path d="m469.043 225.424c4.132 0 7.482-3.35 7.482-7.482v-52.874c0-4.132-3.35-7.482-7.482-7.482-4.132 0-7.482 3.35-7.482 7.482v52.874c0 4.132 3.35 7.482 7.482 7.482z"/></g><path d="m314.848 418.603h-117.696c-9.829 0-17.797-7.968-17.797-17.797 0-9.829 7.968-17.797 17.797-17.797h117.696c9.829 0 17.797 7.968 17.797 17.797 0 9.829-7.968 17.797-17.797 17.797z" fill="#5e54ac"/><path d="m234.885 418.596h-37.73c-9.83 0-17.8-7.96-17.8-17.79 0-4.91 1.99-9.37 5.21-12.59 3.23-3.22 7.67-5.21 12.59-5.21h37.73c-4.91 0-9.36 1.99-12.58 5.21s-5.21 7.68-5.21 12.59c0 9.83 7.96 17.79 17.79 17.79z" fill="#453d81"/><g><path d="m319.9 315.42h-72.24l-12.217-5.225-14.163 5.225h-72.24c4.52-8.47 10.26-16.18 16.98-22.9 7.73-7.73 16.77-14.17 26.75-18.92h.01c10.19-4.89 21.38-8.03 33.17-9.05 2.81-.25 5.65-.38 8.53-.38 2.87 0 5.72.13 8.53.37 11.78 1.03 22.96 4.17 33.16 9.05 18.66 8.91 34.02 23.64 43.73 41.83z" fill="#eceef1"/><path d="m249.04 265.26c-20.89 3.16-39.6 12.99-53.87 27.26-6.72 6.72-12.47 14.44-16.99 22.9h-29.14c4.52-8.47 10.26-16.18 16.98-22.9 17.53-17.52 41.71-28.35 68.45-28.35 4.96 0 9.82.37 14.57 1.09z" fill="#d9dee8"/><path d="m266.26 296.82-18.6 18.6h-26.38l-18.59-18.6 31.78-31.79z" fill="#ca245f"/><path d="m234.47 296.82-27.13 18.6h-12.12c-1.51-1.36-2.58-3.25-2.85-5.53l-2.51-20.81c-.67-5.51.44-10.88 2.91-15.48h.01c3.19-5.97 8.69-10.66 15.58-12.71l15.41-4.58 2.18 8.24z" fill="#d9dee8"/><path d="m279.09 289.08-2.51 20.81c-.27 2.28-1.34 4.17-2.85 5.53h-12.12l-27.14-18.6 8.54-32.28 2.17-8.23 15.41 4.58c6.89 2.05 12.38 6.73 15.58 12.7 2.48 4.6 3.59 9.98 2.92 15.49z" fill="#d9dee8"/><path d="m262.094 219.698v49.5c0 15.251-12.372 27.623-27.623 27.623-3.737 0-7.317-.743-10.562-2.093-10.007-4.156-17.051-14.016-17.051-25.53v-49.5z" fill="#ffddce"/><path d="m223.905 219.697v75.027c-10.005-4.152-17.046-14.016-17.046-25.521v-49.505h17.046z" fill="#ffcbbe"/><path d="m306.358 203.807h-143.767c-22.941 0-41.539-18.598-41.539-41.539 0-14.346 11.63-25.976 25.976-25.976h174.893c14.346 0 25.976 11.63 25.976 25.976-.001 22.942-18.598 41.539-41.539 41.539z" fill="#ffddce"/><path d="m162.591 189.804c-15.183 0-27.535-12.352-27.535-27.535 0-6.601 5.37-11.972 11.972-11.972h174.893c6.601 0 11.972 5.371 11.972 11.972 0 15.183-12.352 27.535-27.535 27.535z" fill="#ffcbbe"/><path d="m262.094 219.698v49.218c-8.615 3.151-17.92 4.867-27.623 4.867s-18.998-1.717-27.613-4.857v-49.228z" fill="#ffcbbe"/><path d="m234.474 75.643c-44.479 0-80.536 2.285-80.536 46.764v59.236c0 44.479 36.057 80.536 80.536 80.536 44.479 0 80.536-36.057 80.536-80.536v-59.236c0-44.479-36.057-46.764-80.536-46.764z" fill="#ffddce"/><path d="m255.28 259.46c-6.63 1.77-13.61 2.72-20.81 2.72-44.48 0-80.53-36.05-80.53-80.54v-59.23c0-16.35 4.87-30.32 13.25-41.45h39.83c-7.28 12.11-11.47 26.29-11.47 41.45v59.23c0 37.29 25.34 68.66 59.73 77.82z" fill="#ffcbbe"/><path d="m234.474 185.991c-4.611 0-8.348-3.738-8.348-8.348v-78.92h16.697v78.919c0 4.611-3.738 8.349-8.349 8.349z" fill="#ffcbbe"/><path d="m254.235 213.32c-13.047 2.576-26.474 2.576-39.521 0-3.901-.77-6.347-4.667-5.297-8.503.012-.044.024-.089.036-.133.939-3.434 4.366-5.588 7.858-4.896 11.331 2.247 22.995 2.247 34.326 0 3.492-.692 6.919 1.462 7.858 4.896.012.044.024.089.036.133 1.05 3.836-1.395 7.733-5.296 8.503z" fill="#fff"/><path d="m338.96 67.59c-.98 20.16-17.63 36.2-38.03 36.2h-66.92c-20.41 0-37.06-16.04-38.04-36.2z" fill="#efc64c"/><path d="m175.963 69.392h-22.025v66.197c12.164 0 22.025-9.861 22.025-22.025z" fill="#e3a12f"/><path d="m292.986 69.392h22.025v66.197c-12.164 0-22.025-9.861-22.025-22.025z" fill="#efc64c"/><path d="m201.97 67.59v5.36c0 8.51-3.45 16.23-9.03 21.81s-13.29 9.03-21.81 9.03c-17.03 0-30.83-13.81-30.83-30.84v-5.36z" fill="#e3a12f"/><g><circle cx="201.442" cy="135.5" fill="#fff" r="21.504"/><path d="m207.537 156.12c-1.93.57-3.98.88-6.1.88-11.87 0-21.5-9.62-21.5-21.5s9.63-21.5 21.5-21.5c2.12 0 4.17.31 6.1.88-8.91 2.62-15.41 10.86-15.41 20.62s6.5 18 15.41 20.62z" fill="#eceef1"/><circle cx="201.442" cy="135.5" fill="#1f3645" r="7.759"/><circle cx="267.507" cy="135.5" fill="#fff" r="21.504"/><path d="m273.602 156.12c-1.93.57-3.98.88-6.1.88-11.87 0-21.5-9.62-21.5-21.5s9.63-21.5 21.5-21.5c2.12 0 4.17.31 6.1.88-8.91 2.62-15.41 10.86-15.41 20.62s6.5 18 15.41 20.62z" fill="#eceef1"/><circle cx="267.507" cy="135.5" fill="#1f3645" r="7.759"/></g></g><g><path d="m364.345 303.988h-22.475c-8.517 0-15.421-6.904-15.421-15.421v-17.279l6.318 1.945v-17.796h46.999v33.13c0 8.516-6.905 15.421-15.421 15.421z" fill="#ffcbbe"/><g><path d="m364.752 263.658-17.531-8.041 19.548-42.619c2.221-4.841 7.945-6.965 12.786-4.745 4.841 2.221 6.966 7.945 4.745 12.786z" fill="#ffddce"/><path d="m383.061 210.987c-3.522.123-6.858 2.19-8.43 5.617l-19.545 42.611-7.862-3.606 19.545-42.611c2.222-4.845 7.95-6.97 12.794-4.748 1.41.646 2.592 1.595 3.498 2.737z" fill="#ffcbbe"/></g><g><path d="m352.054 257.654h-19.287v-46.888c0-5.326 4.318-9.644 9.644-9.644 5.326 0 9.644 4.318 9.644 9.644v46.888z" fill="#ffddce"/><path d="m346.737 202.145c-3.15 1.58-5.32 4.85-5.32 8.62v46.88h-8.65v-46.88c0-5.33 4.32-9.65 9.65-9.65 1.549 0 3.019.37 4.32 1.03z" fill="#ffcbbe"/></g><path d="m355.379 269.625c0 2.21-.89 4.2-2.34 5.64-1.44 1.45-3.44 2.34-5.64 2.34h-6.65c0 5.39-4.37 9.76-9.76 9.76-5.38 0-9.75-4.37-9.75-9.76v-7.5c0-4.67 3.79-8.46 8.46-8.46h17.7c4.41 0 7.98 3.57 7.98 7.98z" fill="#ffddce"/><path d="m335.289 286.375c-1.3.63-2.76.99-4.3.99-5.38 0-9.75-4.37-9.75-9.76v-7.5c0-4.67 3.79-8.46 8.46-8.46h8.59c-4.67 0-8.46 3.79-8.46 8.46v7.5c0 3.849 2.23 7.179 5.46 8.77z" fill="#ffcbbe"/><g><path d="m363.006 287.367c-2.283-4.285-.66-9.609 3.625-11.892l13.636-7.265c4.285-2.283 9.609-.66 11.892 3.625 2.283 4.285.66 9.609-3.625 11.892l-13.636 7.265c-4.285 2.283-9.609.66-11.892-3.625z" fill="#ffddce"/><path d="m365.005 289.882c-.787-.691-1.471-1.528-1.998-2.516-2.285-4.289-.665-9.606 3.624-11.891l13.635-7.265c4.28-2.281 9.605-.665 11.891 3.625.527.988.84 2.023.965 3.066-2.659-2.311-6.584-2.872-9.884-1.113l-13.635 7.265c-3.309 1.763-5.024 5.328-4.598 8.829z" fill="#ffcbbe"/></g><g><path d="m361.688 279.455c-3.932-2.848-4.811-8.344-1.964-12.276l9.063-12.514c2.848-3.932 8.344-4.811 12.276-1.964 3.932 2.848 4.811 8.344 1.964 12.276l-9.063 12.514c-2.848 3.932-8.344 4.811-12.276 1.964z" fill="#ffddce"/><path d="m364.587 280.837c-1.011-.275-1.992-.727-2.899-1.384-3.936-2.851-4.814-8.339-1.963-12.275l9.062-12.513c2.845-3.928 8.339-4.814 12.275-1.963.907.657 1.642 1.449 2.213 2.331-3.404-.909-7.176.31-9.37 3.339l-9.062 12.513c-2.2 3.037-2.175 6.993-.256 9.952z" fill="#ffcbbe"/></g><path d="m336.424 293.568h33.919v21.852h-33.919z" fill="#ffcbbe"/></g></g></svg>