<svg id="Capa_1" enable-background="new 0 0 512 512" height="512" viewBox="0 0 512 512" width="512" xmlns="http://www.w3.org/2000/svg"><g><path d="m512 256c0 23.33-3.12 45.92-8.97 67.4-26.36 96.86-108.18 170.88-209.24 185.83-7.85 1.16-15.81 1.96-23.88 2.39-4.61.25 66.796-117.091 62.126-117.091-124.07 0-250.544 1.446-274.014-115.724-1.52-7.59-55.732 12.455-56.562 4.625-.97-9.01-1.46-18.16-1.46-27.43 0-141.38 114.62-256 256-256 34.73 0 67.84 6.92 98.04 19.45 5.58 2.31 11.05 4.82 16.42 7.52 78.18 39.14 133.54 117.14 140.74 208.68.53 6.72.8 13.5.8 20.35z" fill="#9dc6fb"/><g><path d="m511.2 235.65c-2.74 30.65-12.55 60.78-29.43 87.75-7.86 12.55-17.24 24.42-28.16 35.33-20.74 20.74-102.85 89.09-183.7 152.89-4.61.25-9.24.38-13.91.38-10.31 0-20.49-.61-30.48-1.8-6.09-.72-12.11-1.65-18.06-2.8-13.25-2.54-26.13-6.1-38.57-10.6-3.99-1.45-7.93-2.99-11.82-4.62-11.75-4.92-23.05-10.7-33.82-17.25h-.01c-3.43-2.08-6.79-4.24-10.11-6.48-26.17-17.63-48.9-39.97-66.98-65.8-6.94-9.91-13.19-20.34-18.69-31.21-5.36-10.58-10-21.59-13.87-32.95-1.43-4.2-2.75-8.46-3.97-12.76-1.78-6.29-3.32-12.69-4.62-19.17-1.52-7.59-2.71-15.3-3.54-23.13 77.4-100.55 145.07-181.42 170.25-206.6 44.04-44.05 103.57-63.17 161.07-57.38 12.72 1.29 25.35 3.79 37.68 7.52 30.43 9.18 59.1 25.8 83.15 49.86 43.47 43.47 62.67 102.03 57.59 158.82z" fill="#e3a12f"/><path d="m432.51 337.63-144.61 144.6 5.42-64.19-124.43 78.76c-3.99-1.45-7.93-2.99-11.82-4.62l50.66-116.46-109.69 68.7 50.43-103.5-102.32 61.73c-6.94-9.91-13.19-20.34-18.69-31.21l91.85-144.33-63.58 7.9 137.08-137.08c66.19-66.18 173.51-66.18 239.7 0 66.18 66.19 66.18 173.51 0 239.7z" fill="#efc64c"/><path d="m178.434 201.574-53.878 103.169 109.407-61.521" fill="#e3a12f"/><path d="m290.168 302.667-53.879 103.169 109.408-61.522" fill="#e3a12f"/><g><path d="m433.22 199.341c0 3.733 29.737 25.871 29.475 29.535-1.775 24.323-9.329 47.029-21.29 66.771-8.494 14.017-31.128 14.622-43.582 25.152-17.671 14.94-26.921 37.791-50.179 43.325-11.226 2.675-22.933 4.092-34.981 4.092s-23.755-1.416-34.981-4.092c-18.337-4.363-29.446-27.624-44.494-38.018-17.491-12.081-38.223-12.233-49.268-30.459-11.961-19.742-19.515-42.448-21.29-66.771-.262-3.663 11.827-15.916 11.827-19.649 0-37.456 13.116-51.495 24.09-89.483 15.379-17.88 34.885-32.096 57.032-41.189 17.6-7.222 36.783 0 56.988 0s39.58-7.222 57.18 0c22.146 9.093 41.652 23.309 57.032 41.189 9.998 38.961 6.441 42.141 6.441 79.597z" fill="#d6d8e8"/><path d="m334.668 364.124c2.142.507 4.31.979 6.487 1.399-9.224 1.766-18.745 2.693-28.494 2.693-12.048 0-23.755-1.416-34.981-4.092-13.77-3.276-23.76-24.266-35.771-31.04-22.576-12.731-44.579-15.306-57.99-37.437-11.961-19.742-19.515-42.448-21.289-66.771-.262-3.663 15.804-23.568 15.804-27.302 0-37.456 7.071-43.519 20.113-81.83 15.379-17.88 34.885-32.096 57.032-41.189 17.6-7.222 36.879-5.979 57.084-5.979 9.74 0 20.185.697 29.409 2.471-9.915 1.897-20.395-.235-29.505 3.508-22.146 9.093-41.653 23.309-57.032 41.189-22.636 26.326-36.319 60.581-36.319 98.037 0 3.733.14 7.432.402 11.095 1.775 24.323 9.329 47.029 21.29 66.771 20.545 33.906 54.11 59.043 93.76 68.477z" fill="#b8bede"/><path d="m436.677 186.678-5.403-16.63-109.869 35.699v-117.471h-17.486v117.471l-110.948-36.049-5.403 16.63 110.947 36.049-67.349 92.698 14.146 10.278 67.35-92.698 66.071 90.94 14.146-10.279-66.071-90.939z" fill="#a8acd3"/><path d="m301.302 150.388-47.626 34.602c-6.774 4.921-9.608 13.645-7.021 21.608l18.191 55.988c2.587 7.963 10.008 13.354 18.381 13.354h58.869c8.373 0 15.794-5.391 18.381-13.354l18.191-55.988c2.587-7.963-.247-16.687-7.021-21.608l-47.626-34.602c-6.773-4.922-15.945-4.922-22.719 0z" fill="#ca245f"/><g><path d="m369.746 78.555c-.586.568-1.215 1.093-1.88 1.583l-44.573 32.385c-6.339 4.599-14.924 4.599-21.263 0l-21.718-15.783-22.855-16.603c-.664-.49-1.294-1.014-1.88-1.583 17.6-7.222 36.879-11.209 57.084-11.209 9.731 0 19.244.927 28.459 2.693.009 0 .026.009.035.009 9.915 1.898 19.48 4.766 28.591 8.508z" fill="#ca245f"/></g><g><path d="m277.68 364.124c-39.65-9.434-73.215-34.57-93.762-68.476 1.18-.245 2.396-.367 3.637-.367h55.091c7.834 0 14.785 5.045 17.207 12.503l6.199 19.078 10.824 33.32c.42 1.301.691 2.621.804 3.942z" fill="#ca245f"/></g><path d="m276.876 360.18c.42 1.303.691 2.623.804 3.943-39.65-9.434-73.215-34.57-93.762-68.476 1.18-.245 2.396-.367 3.637-.367h53.132c.07.122.149.245.219.367 6.968 11.506 15.441 21.998 25.145 31.213z" fill="#b7004f"/><path d="m341.156 70.048c-9.915 1.897-19.48 4.765-28.59 8.507-11.541 4.739-22.356 10.868-32.254 18.186l-22.855-16.603c-.664-.49-1.294-1.014-1.88-1.583 17.6-7.222 36.879-11.209 57.084-11.209 9.731 0 19.244.927 28.459 2.693.01 0 .027.009.036.009z" fill="#b7004f"/><g><path d="m210.009 194.821-44.573 32.385c-.892.647-1.836 1.207-2.807 1.67-.262-3.663-.402-7.362-.402-11.095 0-37.456 13.683-71.711 36.319-98.037.393.787.726 1.609 1.005 2.466l17.023 52.398c2.422 7.448-.227 15.614-6.565 20.213z" fill="#b7004f"/></g><g><path d="m441.405 295.647c-20.546 33.906-54.111 59.043-93.762 68.476.114-1.32.385-2.64.804-3.943l17.023-52.398c2.422-7.458 9.373-12.503 17.207-12.503h55.091c1.241.001 2.456.123 3.637.368z" fill="#ca245f"/></g><g><path d="m463.097 217.781c0 3.733-.14 7.432-.402 11.095-.97-.463-1.915-1.023-2.807-1.67l-44.573-32.385c-6.339-4.599-8.988-12.765-6.566-20.214l17.023-52.398c.28-.857.612-1.679 1.005-2.466 22.636 26.326 36.32 60.582 36.32 98.038z" fill="#ca245f"/></g></g><g fill="#efc64c"><path d="m41.15 302.06-27.56 36.43c-1.43-4.2-2.75-8.46-3.97-12.76z"/><path d="m149.1 439.09-25.85 35.84h-.01c-3.43-2.08-6.79-4.24-10.11-6.48z"/><path d="m261.56 469.68-36.04 40.52c-6.09-.72-12.11-1.65-18.06-2.8z"/></g></g><g fill="#ca245f"><path d="m49.887 73.666c-.018 0-.037 0-.056 0-3.688.021-7.563.036-10.922.044v-49.401c0-5.375-4.357-9.732-9.732-9.732s-9.732 4.357-9.732 9.732v59.089c0 4.741 3.416 8.792 8.09 9.592.695.119 1.134.194 7.833.194 3.196 0 7.819-.017 14.573-.054 5.375-.03 9.707-4.411 9.678-9.786-.031-5.357-4.382-9.678-9.732-9.678z"/><path d="m79.831 14.577c-5.375 0-9.732 4.357-9.732 9.732v59.138c0 5.375 4.357 9.732 9.732 9.732s9.732-4.357 9.732-9.732v-59.138c0-5.375-4.358-9.732-9.732-9.732z"/><path d="m202.691 73.716h-14.959v-9.836h13.138c5.375 0 9.732-4.357 9.732-9.732s-4.357-9.732-9.732-9.732h-13.138v-9.835h14.959c5.375 0 9.732-4.357 9.732-9.732s-4.357-9.732-9.732-9.732h-24.691c-5.375 0-9.732 4.357-9.732 9.732v58.598c0 5.375 4.357 9.732 9.732 9.732h24.691c5.375 0 9.732-4.357 9.732-9.732s-4.357-9.731-9.732-9.731z"/><path d="m153.008 15.182c-5.102-1.696-10.61 1.067-12.304 6.167l-11.512 34.653-12.109-34.885c-1.763-5.078-7.31-7.766-12.386-6.002-5.078 1.762-7.765 7.308-6.003 12.385l20.243 58.314c1.566 4.413 5.751 7.365 10.428 7.365h.074c4.707-.031 8.888-3.047 10.426-7.569l19.309-58.125c1.697-5.1-1.065-10.609-6.166-12.303z"/></g></g></svg>