<svg id="Capa_1" enable-background="new 0 0 512 512" height="512" viewBox="0 0 512 512" width="512" xmlns="http://www.w3.org/2000/svg"><g><path d="m512 256c0 29.93-5.14 58.66-14.58 85.35-3.129 8.851-16.087 10.288-20.129 18.661-5.326 11.029-2.062 28.806-8.861 38.879-6.31 9.37-13.23 18.31-20.7 26.74-9.95 11.24-20.87 21.59-32.63 30.93-43.69 34.71-98.97 55.44-159.1 55.44-88.47 0-166.45-44.88-212.44-113.11-11.95-17.73-21.73-37.03-28.98-57.54-9.44-26.69-14.58-55.42-14.58-85.35s5.14-58.66 14.58-85.35c22.56-63.84 69.73-116.05 130.11-145.24 33.66-16.28 71.42-25.41 111.31-25.41s77.65 9.13 111.31 25.41c60.38 29.19 107.55 81.4 130.11 145.24 9.44 26.69 14.58 55.42 14.58 85.35z" fill="#efc64c"/><g fill="#1f3645"><path d="m84.152 456.555c8.699 0 16.472-5.433 19.461-13.602l20.369-55.674h-56.229l-4.238 46.681c-1.102 12.134 8.453 22.595 20.637 22.595z"/><path d="m447.73 425.63c-9.95 11.24-20.87 21.59-32.63 30.93h-1.74l-25.34-69.28h56.23z"/></g><path d="m497.42 87.63v253.72c-7.25 20.51-17.03 39.82-28.99 57.54-9.61 6.09-21 9.61-33.22 9.61h-358.42c-12.22 0-23.62-3.52-33.23-9.61-17.42-11.03-28.98-30.47-28.98-52.61v-258.65c0-34.36 27.85-62.22 62.21-62.22h358.42c34.36 0 62.21 27.86 62.21 62.22z" fill="#2e4f5f"/><path d="m108.715 408.496h-31.92c-34.36 0-62.22-27.86-62.22-62.22v-258.65c0-34.36 27.86-62.22 62.22-62.22h31.92c-34.36 0-62.22 27.86-62.22 62.22v258.65c0 34.36 27.86 62.22 62.22 62.22z" fill="#1f3645"/><path d="m76.795 368.496c-12.252 0-22.22-9.968-22.22-22.219v-258.649c0-12.252 9.968-22.219 22.22-22.219h358.41c12.252 0 22.22 9.968 22.22 22.219v258.648c0 12.252-9.968 22.219-22.22 22.219h-358.41z" fill="#b8bede"/><path d="m161.005 368.496h-84.21c-12.25 0-22.22-9.97-22.22-22.22v-258.65c0-12.25 9.97-22.22 22.22-22.22h84.21c-36.79 0-66.61 29.82-66.61 66.61v169.86c0 36.79 29.82 66.62 66.61 66.62z" fill="#a8acd3"/><path d="m154.799 199.726h-49.081c-15.097 0-27.336-12.239-27.336-27.336v-49.081c0-15.097 12.239-27.336 27.336-27.336h49.081c15.097 0 27.336 12.239 27.336 27.336v49.081c0 15.097-12.238 27.336-27.336 27.336z" fill="#ca245f"/><path d="m280.54 199.726h-49.08c-15.097 0-27.336-12.239-27.336-27.336v-49.081c0-15.097 12.239-27.336 27.336-27.336h49.081c15.097 0 27.336 12.239 27.336 27.336v49.081c-.001 15.097-12.239 27.336-27.337 27.336z" fill="#9ddea3"/><path d="m406.282 199.726h-49.081c-15.097 0-27.336-12.239-27.336-27.336v-49.081c0-15.097 12.239-27.336 27.336-27.336h49.081c15.097 0 27.336 12.239 27.336 27.336v49.081c-.001 15.097-12.239 27.336-27.336 27.336z" fill="#9dc6fb"/><g><path d="m154.799 324.761h-49.081c-15.097 0-27.336-12.239-27.336-27.336v-49.081c0-15.097 12.239-27.336 27.336-27.336h49.081c15.097 0 27.336 12.239 27.336 27.336v49.081c0 15.098-12.238 27.336-27.336 27.336z" fill="#d6d8e8"/><path d="m280.54 324.761h-49.08c-15.097 0-27.336-12.239-27.336-27.336v-49.081c0-15.097 12.239-27.336 27.336-27.336h49.081c15.097 0 27.336 12.239 27.336 27.336v49.081c-.001 15.098-12.239 27.336-27.337 27.336z" fill="#efc64c"/><path d="m406.282 324.761h-49.081c-15.097 0-27.336-12.239-27.336-27.336v-49.081c0-15.097 12.239-27.336 27.336-27.336h49.081c15.097 0 27.336 12.239 27.336 27.336v49.081c-.001 15.098-12.239 27.336-27.336 27.336z" fill="#ca245f"/></g><ellipse cx="256" cy="147.85" fill="#905f43" rx="50.318" ry="29.062" transform="matrix(.707 -.707 .707 .707 -29.565 224.324)"/><g><path d="m418.736 137.384h-73.99v20.93c0 10.31 8.358 18.667 18.667 18.667h36.656c10.31 0 18.667-8.358 18.667-18.667z" fill="#1f3645"/><path d="m400.069 118.717h-36.656c-10.31 0-18.667 8.358-18.667 18.667 0 10.31 8.358 18.667 18.667 18.667h36.656c10.31 0 18.667-8.358 18.667-18.667 0-10.309-8.357-18.667-18.667-18.667z" fill="#2e4f5f"/></g><path d="m291.58 112.27-71.16 71.16c-5.18-19.38-.18-40.92 15.03-56.13s36.75-20.21 56.13-15.03z" fill="#784536"/><ellipse cx="130.26" cy="147.85" fill="#eceef1" rx="34.35" ry="34.35" transform="matrix(.987 -.16 .16 .987 -22.001 22.775)"/><path d="m130.26 113.5v68.7c-18.97 0-34.35-15.38-34.35-34.35s15.38-34.35 34.35-34.35z" fill="#d6d8e8"/><path d="m126.601 129.219-13.087 9.508c-2.181 1.585-3.094 4.394-2.261 6.958l4.999 15.385c.833 2.564 3.222 4.3 5.918 4.3h16.177c2.696 0 5.085-1.736 5.918-4.3l4.999-15.385c.833-2.564-.08-5.373-2.261-6.958l-13.087-9.508c-2.18-1.584-5.134-1.584-7.315 0z" fill="#2e4f5f"/><path d="m290.59 281.26c-1.49 6.15-4.63 11.99-9.43 16.78-4.8 4.8-10.63 7.94-16.77 9.43-2.19.53-4.42.84-6.66.95-1.15.06-2.3.06-3.46.01-8.52-.41-16.93-3.88-23.43-10.38-6.51-6.51-9.98-14.92-10.38-23.44-.16-3.39.15-6.8.95-10.11 1.49-6.15 4.63-11.98 9.43-16.78 4.8-4.79 10.63-7.94 16.78-9.42 3.32-.8 6.72-1.12 10.11-.96 8.52.41 16.93 3.88 23.43 10.38 6.51 6.51 9.98 14.92 10.38 23.44.17 3.38-.15 6.78-.95 10.1z" fill="#eceef1"/><path d="m257.73 237.34v71.08c-1.15.06-2.3.06-3.46.01-8.52-.41-16.93-3.88-23.43-10.38-6.51-6.51-9.98-14.92-10.38-23.44-.16-3.39.15-6.8.95-10.11 1.49-6.15 4.63-11.98 9.43-16.78 4.8-4.79 10.63-7.94 16.78-9.42 3.32-.8 6.72-1.12 10.11-.96z" fill="#d6d8e8"/><g fill="#ca245f"><path d="m291.543 271.156c-8.931 1.011-18.229-1.909-25.067-8.747s-9.758-16.136-8.747-25.067c-3.387-.163-6.788.156-10.105.955-.693 11.201 3.231 22.634 11.78 31.183s19.983 12.473 31.183 11.78c.8-3.316 1.118-6.717.956-10.104z"/><path d="m252.602 276.283c-8.549-8.549-19.983-12.473-31.19-11.788-.799 3.316-1.11 6.725-.955 10.119 8.938-1.018 18.236 1.902 25.074 8.74s9.758 16.136 8.74 25.074c3.394.156 6.802-.155 10.119-.955.686-11.208-3.239-22.641-11.788-31.19z"/></g><path d="m166.77 272.88c0 20.17-16.35 36.51-36.51 36.51s-36.51-16.34-36.51-36.51c0-20.16 16.35-36.5 36.51-36.5s36.51 16.34 36.51 36.5z" fill="#e3a12f"/><circle cx="381.741" cy="272.885" fill="#2e4f5f" r="35.582"/><circle cx="381.741" cy="272.885" fill="#d6d8e8" r="19.287"/><circle cx="381.741" cy="272.885" fill="#2e4f5f" r="5.516"/><path d="m130.26 236.38v73.01c-20.16 0-36.51-16.34-36.51-36.51 0-20.16 16.35-36.5 36.51-36.5z" fill="#de8635"/><g><path d="m414.4 512h-65.926c-18.894 0-34.21-15.316-34.21-34.21v-141.056c0-18.894 15.316-34.21 34.21-34.21h65.926c18.894 0 34.21 15.316 34.21 34.21v141.056c0 18.894-15.317 34.21-34.21 34.21z" fill="#426b7b"/><path d="m364.873 512h-16.4c-18.89 0-34.21-15.32-34.21-34.21v-141.06c0-18.89 15.32-34.21 34.21-34.21h16.4c-18.89 0-34.21 15.32-34.21 34.21v141.06c0 18.89 15.32 34.21 34.21 34.21z" fill="#2e4f5f"/><circle cx="348.847" cy="341.419" fill="#ca245f" r="16.627"/><path d="m354.38 357.099c-1.73.62-3.6.95-5.54.95-9.18 0-16.62-7.44-16.62-16.63 0-9.18 7.44-16.62 16.62-16.62 1.94 0 3.81.33 5.54.95-6.46 2.28-11.08 8.43-11.08 15.67s4.62 13.4 11.08 15.68z" fill="#b7004f"/><g fill="#d6d8e8"><path d="m376.94 361.986-11.532 11.636c-3.961 3.997-1.13 10.788 4.497 10.788h23.063c5.627 0 8.458-6.791 4.497-10.788l-11.532-11.636c-2.477-2.5-6.516-2.5-8.993 0z"/><path d="m385.933 446.685 11.532-11.636c3.961-3.997 1.13-10.788-4.497-10.788h-23.063c-5.627 0-8.458 6.791-4.497 10.788l11.532 11.636c2.477 2.5 6.516 2.5 8.993 0z"/><path d="m423.786 399.838-11.636-11.532c-3.997-3.961-10.788-1.13-10.788 4.497v23.063c0 5.627 6.791 8.458 10.788 4.497l11.636-11.532c2.5-2.476 2.5-6.516 0-8.993z"/><path d="m339.087 408.832 11.636 11.532c3.997 3.961 10.788 1.13 10.788-4.497v-23.063c0-5.627-6.791-8.458-10.788-4.497l-11.636 11.532c-2.5 2.476-2.5 6.516 0 8.993z"/></g><g fill="#a8acd3"><path d="m371.727 373.628c-3.96 3.99-1.13 10.79 4.5 10.79h-6.32c-5.63 0-8.46-6.8-4.5-10.79l11.53-11.64c2.07-2.09 5.23-2.43 7.66-1.02-.48.27-.93.61-1.34 1.02z"/><path d="m384.597 447.708c-2.43 1.41-5.59 1.07-7.66-1.02l-11.53-11.63c-3.96-4-1.13-10.79 4.5-10.79h6.32c-5.63 0-8.46 6.79-4.5 10.79l11.53 11.63c.41.41.86.75 1.34 1.02z"/><path d="m410.857 421.358c-4 2.37-9.49-.43-9.49-5.49v-23.06c0-5.06 5.49-7.86 9.49-5.49-1.84 1.04-3.18 2.99-3.18 5.49v23.06c0 2.5 1.34 4.45 3.18 5.49z"/><path d="m357.037 420.368c.4.4.84.73 1.29.99-2.3 1.31-5.38 1.21-7.6-.99l-11.64-11.53c-2.5-2.48-2.5-6.52 0-9l11.64-11.53c2.22-2.2 5.3-2.3 7.6-.99-.45.26-.89.59-1.29.99l-11.63 11.53c-2.5 2.48-2.5 6.52 0 9z"/></g><circle cx="381.436" cy="404.335" fill="#d6d8e8" r="13.745"/><path d="m385.421 417.495c-1.26.38-2.6.59-3.99.59-7.59 0-13.74-6.16-13.74-13.75s6.15-13.74 13.74-13.74c1.39 0 2.73.21 3.99.59-5.65 1.71-9.75 6.95-9.75 13.15s4.1 11.45 9.75 13.16z" fill="#a8acd3"/><path d="m390.304 344.645h-12.415c-3.306 0-5.986-2.68-5.986-5.986 0-3.306 2.68-5.986 5.986-5.986h12.415c3.306 0 5.986 2.68 5.986 5.986 0 3.307-2.68 5.986-5.986 5.986z" fill="#d6d8e8"/><path d="m384.654 344.65h-6.77c-3.3 0-5.98-2.68-5.98-5.99 0-1.65.67-3.14 1.75-4.23 1.08-1.08 2.58-1.75 4.23-1.75h6.77c-1.66 0-3.15.67-4.24 1.75-1.08 1.09-1.75 2.58-1.75 4.23 0 3.31 2.68 5.99 5.99 5.99z" fill="#a8acd3"/><path d="m420.228 343.426h-12.415c-3.306 0-5.986-2.68-5.986-5.986 0-3.306 2.68-5.986 5.986-5.986h12.415c3.306 0 5.986 2.68 5.986 5.986-.001 3.306-2.68 5.986-5.986 5.986z" fill="#d6d8e8"/><path d="m414.577 343.43h-6.77c-3.3 0-5.98-2.68-5.98-5.99 0-1.65.67-3.14 1.75-4.23 1.08-1.08 2.58-1.75 4.23-1.75h6.77c-1.66 0-3.15.67-4.24 1.75-1.08 1.09-1.75 2.58-1.75 4.23 0 3.31 2.68 5.99 5.99 5.99z" fill="#a8acd3"/></g><circle cx="217.576" cy="105.284" fill="#ca245f" r="15.962"/></g></svg>