<svg id="Capa_1" enable-background="new 0 0 512 512" height="512" viewBox="0 0 512 512" width="512" xmlns="http://www.w3.org/2000/svg"><g><path d="m512 256c0 35.544-7.244 69.397-20.336 100.162-7.922 18.614-57.348 17.204-69.242 33.248-13.603 18.349 9.762 53.71-8.17 67.831-43.555 34.297-98.514 54.759-158.252 54.759-141.385 0-256-114.615-256-256s114.615-256 256-256 256 114.615 256 256z" fill="#5e54ac"/><path d="m491.66 117.13v239.03c-2.5 5.88-5.21 11.64-8.13 17.28-2.81 5.44-5.82 10.77-9 15.97-6.88 11.24-14.59 21.91-23.07 31.92h-418.71v-304.2c0-31.45 25.49-56.94 56.94-56.94h345.02c31.45 0 56.95 25.49 56.95 56.94z" fill="#b8bede"/><path d="m483.53 373.44c-2.81 5.44-5.82 10.77-9 15.97-6.88 11.24-14.59 21.91-23.07 31.92h-418.71v-47.89z" fill="#a8acd3"/><path d="m116.629 60.192c-31.45 0-56.94 25.49-56.94 56.94v304.2h-26.94v-304.2c0-31.45 25.49-56.94 56.94-56.94z" fill="#a8acd3"/><path d="m72.749 333.851v-216.719c0-9.357 7.585-16.942 16.942-16.942h345.021c9.357 0 16.942 7.585 16.942 16.942v216.718c0 12.189-9.882 22.071-22.071 22.071h-334.763c-12.189.001-22.071-9.881-22.071-22.07z" fill="#2e4f5f"/><path d="m128.359 355.922h-33.54c-12.19 0-22.07-9.88-22.07-22.07v-216.72c0-9.35 7.59-16.94 16.95-16.94h33.53c-9.36 0-16.94 7.59-16.94 16.94v216.72c0 12.19 9.88 22.07 22.07 22.07z" fill="#1f3645"/><path d="m474.53 389.41c-15.93 26.04-36.39 49.02-60.28 67.83h-380.33c-9.36 0-17.84-3.8-23.98-9.93-6.14-6.14-9.94-14.62-9.94-23.99 0-18.73 15.19-33.91 33.92-33.91z" fill="#d6d8e8"/><path d="m84.97 447.305c6.14 6.14 14.62 9.94 23.99 9.94h-75.04c-9.36 0-17.84-3.8-23.98-9.94s-9.94-14.62-9.94-23.98c0-18.73 15.19-33.92 33.92-33.92h75.04c-18.74 0-33.92 15.19-33.92 33.92 0 9.36 3.8 17.84 9.93 23.98z" fill="#b8bede"/><path d="m332.31 389.41c-.15 14.35-11.83 25.93-26.21 25.93h-100.2c-14.38 0-26.06-11.58-26.21-25.93z" fill="#b8bede"/><g><path d="m161.002 217.74h-49.081c-15.097 0-27.336-12.239-27.336-27.336v-49.081c0-15.097 12.239-27.336 27.336-27.336h49.081c15.097 0 27.336 12.239 27.336 27.336v49.081c-.001 15.097-12.239 27.336-27.336 27.336z" fill="#ca245f"/><path d="m286.743 217.74h-49.081c-15.097 0-27.336-12.239-27.336-27.336v-49.081c0-15.097 12.239-27.336 27.336-27.336h49.081c15.097 0 27.336 12.239 27.336 27.336v49.081c0 15.097-12.239 27.336-27.336 27.336z" fill="#9ddea3"/><path d="m412.484 217.74h-49.081c-15.097 0-27.336-12.239-27.336-27.336v-49.081c0-15.097 12.239-27.336 27.336-27.336h49.081c15.097 0 27.336 12.239 27.336 27.336v49.081c0 15.097-12.239 27.336-27.336 27.336z" fill="#9dc6fb"/><g><path d="m161.002 342.775h-49.081c-15.097 0-27.336-12.239-27.336-27.336v-49.081c0-15.097 12.239-27.336 27.336-27.336h49.081c15.097 0 27.336 12.239 27.336 27.336v49.081c-.001 15.097-12.239 27.336-27.336 27.336z" fill="#d6d8e8"/><path d="m286.743 342.775h-49.081c-15.097 0-27.336-12.239-27.336-27.336v-49.081c0-15.097 12.239-27.336 27.336-27.336h49.081c15.097 0 27.336 12.239 27.336 27.336v49.081c0 15.097-12.239 27.336-27.336 27.336z" fill="#efc64c"/><path d="m412.484 342.775h-49.081c-15.097 0-27.336-12.239-27.336-27.336v-49.081c0-15.097 12.239-27.336 27.336-27.336h49.081c15.097 0 27.336 12.239 27.336 27.336v49.081c0 15.097-12.239 27.336-27.336 27.336z" fill="#ca245f"/></g><ellipse cx="262.202" cy="165.864" fill="#905f43" rx="50.318" ry="29.062" transform="matrix(.707 -.707 .707 .707 -40.486 233.986)"/><g><path d="m424.938 155.398h-73.99v20.93c0 10.31 8.358 18.667 18.667 18.667h36.656c10.31 0 18.667-8.358 18.667-18.667z" fill="#1f3645"/><path d="m406.271 136.731h-36.656c-10.31 0-18.667 8.358-18.667 18.667 0 10.31 8.358 18.667 18.667 18.667h36.656c10.31 0 18.667-8.358 18.667-18.667 0-10.309-8.357-18.667-18.667-18.667z" fill="#2e4f5f"/></g><path d="m297.782 130.284-71.16 71.16c-5.18-19.38-.18-40.92 15.03-56.13s36.75-20.21 56.13-15.03z" fill="#784536"/><ellipse cx="136.462" cy="165.864" fill="#eceef1" rx="34.35" ry="34.35" transform="matrix(.987 -.16 .16 .987 -24.806 24.001)"/><path d="m136.462 131.514v68.7c-18.97 0-34.35-15.38-34.35-34.35s15.38-34.35 34.35-34.35z" fill="#d6d8e8"/><path d="m132.803 147.233-13.087 9.508c-2.181 1.585-3.094 4.394-2.261 6.958l4.999 15.385c.833 2.564 3.222 4.3 5.918 4.3h16.177c2.696 0 5.085-1.736 5.918-4.3l4.999-15.385c.833-2.564-.08-5.373-2.261-6.958l-13.087-9.508c-2.18-1.584-5.134-1.584-7.315 0z" fill="#2e4f5f"/><path d="m296.792 299.274c-1.49 6.15-4.63 11.99-9.43 16.78-4.8 4.8-10.63 7.94-16.77 9.43-2.19.53-4.42.84-6.66.95-1.15.06-2.3.06-3.46.01-8.52-.41-16.93-3.88-23.43-10.38-6.51-6.51-9.98-14.92-10.38-23.44-.16-3.39.15-6.8.95-10.11 1.49-6.15 4.63-11.98 9.43-16.78 4.8-4.79 10.63-7.94 16.78-9.42 3.32-.8 6.72-1.12 10.11-.96 8.52.41 16.93 3.88 23.43 10.38 6.51 6.51 9.98 14.92 10.38 23.44.17 3.38-.15 6.78-.95 10.1z" fill="#eceef1"/><path d="m263.932 255.354v71.08c-1.15.06-2.3.06-3.46.01-8.52-.41-16.93-3.88-23.43-10.38-6.51-6.51-9.98-14.92-10.38-23.44-.16-3.39.15-6.8.95-10.11 1.49-6.15 4.63-11.98 9.43-16.78 4.8-4.79 10.63-7.94 16.78-9.42 3.32-.8 6.72-1.12 10.11-.96z" fill="#d6d8e8"/><g fill="#ca245f"><path d="m297.745 289.17c-8.931 1.011-18.229-1.909-25.067-8.747s-9.758-16.136-8.747-25.067c-3.387-.163-6.788.156-10.105.955-.693 11.201 3.231 22.634 11.78 31.183s19.983 12.473 31.183 11.78c.8-3.316 1.118-6.717.956-10.104z"/><path d="m258.804 294.297c-8.549-8.549-19.983-12.473-31.19-11.788-.799 3.316-1.11 6.725-.955 10.119 8.938-1.018 18.236 1.902 25.074 8.74s9.758 16.136 8.74 25.074c3.394.156 6.802-.155 10.119-.955.686-11.208-3.239-22.642-11.788-31.19z"/></g><path d="m172.972 290.894c0 20.17-16.35 36.51-36.51 36.51s-36.51-16.34-36.51-36.51c0-20.16 16.35-36.5 36.51-36.5s36.51 16.34 36.51 36.5z" fill="#e3a12f"/><circle cx="387.943" cy="290.899" fill="#2e4f5f" r="35.582"/><circle cx="387.943" cy="290.899" fill="#d6d8e8" r="19.287"/><path d="m136.462 254.394v73.01c-20.16 0-36.51-16.34-36.51-36.51 0-20.16 16.35-36.5 36.51-36.5z" fill="#de8635"/></g></g></svg>