<svg id="Capa_1" enable-background="new 0 0 512 512" height="512" viewBox="0 0 512 512" width="512" xmlns="http://www.w3.org/2000/svg"><g><path d="m512 256c0 86.22-42.63 162.49-107.96 208.88-41.79 29.67-92.88 6.992-148.04 6.992-65.02 0-124.39 15.879-169.54-24.061-53.03-46.901-86.46-115.451-86.46-191.811 0-76.38 33.45-144.95 86.51-191.86 31.74-28.06 70.5-48.37 113.32-57.95 18.07-4.05 36.87-6.19 56.17-6.19s38.1 2.14 56.17 6.19c32.65 7.3 62.94 20.85 89.56 39.31 66.64 46.22 110.27 123.27 110.27 210.5z" fill="#9dc6fb"/><g><path d="m405.48 66.47v385.25c0 4.521-.5 8.92-1.44 13.16-41.79 29.67-92.88 47.12-148.04 47.12h-109.26c-33.29 0-60.28-26.99-60.28-60.28v-385.25c0-.78.01-1.56.05-2.33 1.22-32.22 27.72-57.95 60.23-57.95h198.46c25.92 0 48.02 16.35 56.53 39.31 2.43 6.53 3.75 13.6 3.75 20.97z" fill="#2e4f5f"/><path d="m170.098 511.996h-23.36c-33.29 0-60.28-26.99-60.28-60.28v-385.25c0-33.3 26.99-60.28 60.28-60.28h23.36c-33.29 0-60.27 26.98-60.27 60.28v385.25c0 33.29 26.98 60.28 60.27 60.28z" fill="#1f3645"/><path d="m374.39 66.47v160.17l-74.76 104.56 74.76 103.48v17.04c0 16.1-13.1 29.19-29.19 29.19h-198.47c-16.09 0-29.18-13.09-29.18-29.19v-385.25c0-16.1 13.09-29.19 29.18-29.19h34.13c.61 15.8 13.62 28.42 29.58 28.42h71.06c15.95 0 28.96-12.62 29.57-28.42h34.13c16.09 0 29.19 13.09 29.19 29.19z" fill="#5e54ac"/><path d="m136.5 66.47v385.25c0 16.1 13.09 29.19 29.18 29.19h-18.95c-16.09 0-29.18-13.09-29.18-29.19v-385.25c0-16.1 13.09-29.19 29.18-29.19h18.95c-16.09 0-29.18 13.09-29.18 29.19z" fill="#453d81"/><path d="m281.122 38.305c0-4.283-3.472-7.754-7.754-7.754h-54.796c-4.283 0-7.754 3.472-7.754 7.754 0 4.283 3.472 7.754 7.754 7.754h54.796c4.282 0 7.754-3.472 7.754-7.754z" fill="#1f3645"/></g><g><path d="m374.39 226.64v209.15c-23.87 20.4-53.09 31.29-82.66 32.68-6.78.3-13.57.12-20.31-.56-27.26-2.73-53.86-13.62-75.86-32.63-2.55-2.19-5.04-4.5-7.45-6.91-2.41-2.42-4.72-4.89-6.91-7.45-19.01-21.99-29.89-48.59-32.63-75.85-.68-6.75-.86-13.53-.55-20.31 1.4-29.82 12.46-59.28 33.19-83.27 2.19-2.55 4.5-5.03 6.91-7.44s4.89-4.72 7.45-6.91c23.98-20.73 53.43-31.79 83.25-33.18 6.78-.31 13.58-.14 20.33.55 27.02 2.72 53.37 13.43 75.24 32.13z" fill="#e3a12f"/><path d="m323.081 463.357c-12.006 3.424-24.688 5.265-37.804 5.265-75.892 0-137.41-61.518-137.41-137.41 0-75.879 61.518-137.397 137.41-137.397 13.116 0 25.798 1.841 37.804 5.265-57.498 16.418-99.606 69.368-99.606 132.131 0 62.778 42.108 115.727 99.606 132.146z" fill="#de8635"/><path d="m374.39 227.73-45.01 45.01c-19.23-22.54-29.31-50.26-30.23-78.23-6.75-.69-13.55-.86-20.33-.55.84 33.35 12.89 66.49 36.16 93.18l-29.7 29.71-89.71-89.71c-2.56 2.19-5.04 4.5-7.45 6.91s-4.72 4.89-6.91 7.44l89.71 89.71-29.72 29.72c-26.69-23.27-59.83-35.33-93.18-36.16-.31 6.78-.13 13.56.55 20.31 27.97.94 55.7 11.02 78.24 30.24l-45.61 45.61c2.19 2.56 4.5 5.03 6.91 7.45 2.41 2.41 4.9 4.72 7.45 6.91l45.6-45.61c19.24 22.55 29.32 50.28 30.26 78.24 6.74.68 13.53.86 20.31.56-.84-33.36-12.9-66.49-36.17-93.19l29.72-29.72 89.11 89.12v-28.72l-74.76-74.76 29.71-29.71c13.61 11.88 28.9 20.83 45.05 26.86v-21.92c-10.89-4.83-21.23-11.28-30.66-19.33l30.66-30.66z" fill="#efc64c"/></g><g><circle cx="130.07" cy="187.94" fill="#e3a12f" r="26.877"/><path d="m131.772 30.637c-9.747 0-17.648 7.901-17.648 17.648v25.491h35.296v-25.491c0-9.747-7.901-17.648-17.648-17.648z" fill="#e3a12f"/><path d="m187.813 110.959v41.371h-112.079v-41.371c0-30.945 25.087-56.031 56.032-56.031 30.96 0 56.047 25.086 56.047 56.031z" fill="#efc64c"/><path d="m150.462 58.123c-21.748 7.701-37.323 28.457-37.323 52.835v41.371h-37.402v-41.371c0-30.945 25.087-56.031 56.032-56.031 6.551-.001 12.851 1.118 18.693 3.196z" fill="#e3a12f"/><path d="m187.813 129.322v23.009h-112.079v-23.009c.346-.032.693-.032 1.055-.032h109.969c.347 0 .709 0 1.055.032z" fill="#e3a12f"/><path d="m186.76 140.808h-109.975c-13.015 0-23.566 10.551-23.566 23.566 0 13.015 10.551 23.566 23.566 23.566h109.975c13.015 0 23.566-10.551 23.566-23.566 0-13.015-10.551-23.566-23.566-23.566z" fill="#efc64c"/><path d="m109.345 181.035c4.268 4.252 10.157 6.898 16.661 6.898h-49.213c-6.52 0-12.409-2.646-16.677-6.898-4.268-4.268-6.898-10.157-6.898-16.661 0-13.024 10.551-23.575 23.575-23.575h49.213c-13.008 0-23.559 10.552-23.559 23.575 0 6.504 2.63 12.394 6.898 16.661z" fill="#e3a12f"/></g><path d="m293.004 249.143-53.024-30.613c-13.99-8.077-31.478 2.019-31.478 18.174v61.226c0 16.154 17.488 26.251 31.478 18.174l53.024-30.613c13.991-8.078 13.991-28.271 0-36.348z" fill="#eceef1"/></g></svg>