<svg id="Capa_1" enable-background="new 0 0 512 512" height="512" viewBox="0 0 512 512" width="512" xmlns="http://www.w3.org/2000/svg"><g><path d="m70.527 368.189c-4.17-8.94-54.417-22.059-57.557-31.519-8.41-25.35-12.97-52.48-12.97-80.67 0-141.38 114.62-256 256-256s256 114.62 256 256c0 28.19-4.56 55.31-12.98 80.67" fill="#2e4f5f"/><path d="m438.57 182.57c0 20.104-3.252 39.445-9.257 57.531-4.664 14.056-10.983 27.35-18.735 39.652-.62.991-1.255 1.975-1.904 2.952-3.166 4.828-6.561 9.499-10.17 13.992-1.626 2.032-3.302 4.029-5.014 5.991-24.889 28.47-58.479 49.13-96.626 57.859-9.906 2.268-20.125 3.73-30.573 4.308-3.402.193-6.839.285-10.291.285-6.205 0-12.338-.307-18.385-.913-41.035-4.108-78.077-21.801-106.539-48.531-4.4-4.129-8.594-8.472-12.566-13.015-3.509-4.001-6.839-8.159-9.984-12.466-1.797-2.453-3.53-4.956-5.199-7.495-4.792-7.296-9.079-14.955-12.808-22.928-2.974-6.376-5.598-12.944-7.838-19.69-5.998-18.079-9.25-37.427-9.25-57.531-.001-100.828 81.742-182.571 182.569-182.571s182.57 81.743 182.57 182.57z" fill="#426b7b"/><path d="m470.08 343.26v53.15c-4.44 6.77-9.2 13.32-14.26 19.62-2.28 2.85-55.672-1.375-58.072 1.375-34.9 39.92-42.282 19.019-95.772 31.259-13.89 3.18-16.896 62.127-31.546 62.937-4.77.27-9.59.4-14.43.4-8.7 0-17.3-.43-25.78-1.28-57.54-5.76-45.631-41.576-85.541-79.056-6.17-5.79-12.05-11.88-17.62-18.25-4.92-5.61-73.439-.434-77.849-6.474-2.52-3.44-4.95-6.95-7.29-10.51v-53.17c0-24.25 19.65-43.91 43.9-43.91h340.36c24.25-.001 43.9 19.659 43.9 43.909z" fill="#905f43"/><g fill="#784536"><path d="m139.809 350.784h229.34v28.711h-229.34z"/><path d="m139.809 438.884h229.34v28.711h-229.34z"/><path d="m119.51 299.35c-24.25 0-43.9 19.66-43.9 43.91v94.36c-4.29-4.25-8.42-8.65-12.4-13.2-4.92-5.61-9.59-11.44-14-17.48-2.52-3.44-4.95-6.95-7.29-10.51v-53.17c0-24.25 19.65-43.91 43.9-43.91z"/></g><path d="m63.21 362.2v47.55c-4.92-5.61-9.59 3.23-14-2.81-15.49-21.19-27.8-44.84-36.24-70.27 5.22-3.82 11.67-6.08 18.64-6.08 8.73 0 16.63 3.54 22.34 9.26 5.72 5.72 9.26 13.62 9.26 22.35z" fill="#905f43"/><path d="m43.59 332.94c-11.52 4.72-19.63 16.04-19.63 29.26v2.08c-4.17-8.94-7.85-18.15-10.99-27.61 5.22-3.82 11.67-6.08 18.64-6.08 4.24 0 8.29.84 11.98 2.35z" fill="#784536"/><path d="m499.02 336.67c-9.66 29.13-24.41 55.93-43.2 79.36-2.28 2.85-4.63-1.767-7.03.983v-54.813c0-17.46 14.15-31.61 31.6-31.61 6.97 0 13.41 2.26 18.63 6.08z" fill="#905f43"/><path d="m492.38 332.94c-11.52 4.72-19.63 16.04-19.63 29.26v30.07c-5.19 8.25-10.85 16.18-16.93 23.76-2.28 2.85-4.63-1.767-7.03.983v-54.813c0-17.46 14.15-31.61 31.61-31.61 4.24 0 8.29.84 11.98 2.35z" fill="#784536"/><g><path d="m230.22 453.24v57.48c-5.36-.54-10.66-1.24-15.91-2.1-10.81-1.77-13.093-15.642-23.403-18.722-5.63-1.68-19.477 7.871-24.937 5.811-47.08-17.68-87.56-48.84-116.76-88.77 16.38-29.87 48.12-50.12 84.59-50.12 53.25.001 96.42 43.171 96.42 96.421z" fill="#5e54ac"/><path d="m155.23 359.22c-39.59 8.98-69.93 42.34-74.4 83.45-11.61-10.89-22.2-22.85-31.62-35.73 16.37-29.87 48.11-50.11 84.59-50.11 7.37 0 14.54.82 21.43 2.39z" fill="#453d81"/><g><path d="m9.262 223.112c10.627 26.834 40.996 39.973 67.831 29.346 26.834-10.627 39.973-40.996 29.345-67.831z" fill="#e3a12f"/><path d="m9.651 188.998c4.512 28.507 31.28 47.959 59.787 43.447s47.959-31.28 43.447-59.787z" fill="#e3a12f"/><g fill="#efc64c"><path d="m258.334 223.112c-10.627 26.834-40.996 39.973-67.831 29.346-26.834-10.627-39.973-40.996-29.345-67.831z"/><path d="m257.946 188.998c-4.512 28.507-31.28 47.959-59.787 43.447s-47.959-31.28-43.447-59.787z"/></g></g><path d="m161.664 311.951v49.947c0 15.389-12.484 27.873-27.862 27.873-3.781 0-7.383-.75-10.667-2.112-10.097-4.193-17.205-14.142-17.205-25.76v-49.947h55.734z" fill="#ffddce"/><path d="m123.133 311.95v75.704c-10.095-4.189-17.2-14.143-17.2-25.752v-49.952z" fill="#ffcbbe"/><path d="m206.331 295.917h-145.065c-23.148 0-41.914-18.765-41.914-41.914 0-14.475 11.735-26.21 26.21-26.21h176.472c14.475 0 26.21 11.735 26.21 26.21 0 23.149-18.765 41.914-41.913 41.914z" fill="#ffddce"/><path d="m61.266 281.787c-15.32 0-27.783-12.464-27.783-27.784 0-6.661 5.419-12.08 12.08-12.08h176.472c6.661 0 12.08 5.419 12.08 12.08 0 15.32-12.464 27.784-27.783 27.784z" fill="#ffcbbe"/><path d="m161.664 311.951v49.197c-8.693 3.179-18.072 4.911-27.862 4.911s-19.18-1.732-27.873-4.911v-49.197z" fill="#ffcbbe"/><path d="m133.798 132.519c-44.881 0-81.263 36.383-81.263 81.263v59.771c0 44.88 36.383 81.263 81.263 81.263 44.88 0 81.263-36.383 81.263-81.263v-59.771c0-44.881-36.382-81.263-81.263-81.263z" fill="#ffddce"/><path d="m154.796 352.075c-6.698 1.787-13.735 2.741-20.998 2.741-44.885 0-81.263-36.378-81.263-81.263v-59.771c0-44.878 36.378-81.263 81.263-81.263 7.263 0 14.3.954 20.998 2.741-34.704 9.255-60.273 40.907-60.273 78.522v59.771c0 37.622 25.569 69.273 60.273 78.522z" fill="#ffcbbe"/><path d="m133.798 270.959c-4.652 0-8.424-3.771-8.424-8.424v-118.629h16.848v118.629c0 4.652-3.771 8.424-8.424 8.424z" fill="#ffcbbe"/><g><circle cx="99.174" cy="227.084" fill="#fff" r="24.072"/><path d="m105.216 250.389c-1.937.499-3.955.764-6.045.764-13.297 0-24.069-10.772-24.069-24.069s10.772-24.069 24.069-24.069c2.09 0 4.108.265 6.045.764-10.378 2.677-18.04 12.091-18.04 23.305s7.661 20.628 18.04 23.305z" fill="#eceef1"/><circle cx="103.194" cy="227.084" fill="#1f3645" r="9.612"/><circle cx="168.423" cy="227.084" fill="#fff" r="24.072"/><path d="m174.465 250.389c-1.937.499-3.955.764-6.045.764-13.297 0-24.069-10.772-24.069-24.069s10.772-24.069 24.069-24.069c2.09 0 4.108.265 6.045.764-10.378 2.677-18.04 12.091-18.04 23.305s7.661 20.628 18.04 23.305z" fill="#eceef1"/><circle cx="162.172" cy="227.084" fill="#1f3645" r="9.612"/></g><path d="m227.918 39.267-13.082 85.446-81.038 7.806-81.042-7.806-13.071-85.446 93.629-9.657z" fill="#5e54ac"/><path d="m107.744 133.255c19.566 21.218 18.226 54.28-2.992 73.846s-54.28 18.226-73.846-2.992z" fill="#e3a12f"/><path d="m157.301 133.255c-19.566 21.218-18.226 54.28 2.992 73.846s54.28 18.226 73.846-2.992z" fill="#efc64c"/><path d="m75.102 132.518-22.346-7.805-13.071-85.446 20.008-9.652 23.294 9.652 13.071 85.446z" fill="#453d81"/><path d="m52.756 124.713h162.08l-7.242 47.316h-147.596z" fill="#efc64c"/><path d="m228.321 36.634-.404 2.633h-188.232l-.404-2.633c-2.951-19.262 11.957-36.634 31.452-36.634h126.125c19.496 0 34.404 17.372 31.463 36.634z" fill="#efc64c"/><path d="m103.3 172.029h-43.302l-7.242-47.316h43.302z" fill="#e3a12f"/><path d="m82.584 36.634.404 2.633h-43.303l-.404-2.633c-2.951-19.262 11.957-36.634 31.452-36.634h43.302c-19.495 0-34.403 17.372-31.451 36.634z" fill="#e3a12f"/><path d="m251.736 185.45h-235.875c-7.021 0-12.712-5.691-12.712-12.712 0-7.021 5.691-12.712 12.712-12.712h235.875c7.021 0 12.712 5.691 12.712 12.712-.001 7.021-5.692 12.712-12.712 12.712z" fill="#5e54ac"/><path d="m73.581 185.449h-57.722c-7.019 0-12.71-5.691-12.71-12.71 0-3.504 1.423-6.69 3.727-8.983 2.294-2.304 5.469-3.727 8.983-3.727h57.722c-3.515 0-6.69 1.423-8.983 3.727-2.304 2.293-3.727 5.479-3.727 8.983 0 7.018 5.691 12.71 12.71 12.71z" fill="#453d81"/><path d="m158.192 73.533-13.802-13.802c-5.848-5.848-15.329-5.848-21.177 0l-13.802 13.802c-5.848 5.848-5.848 15.329 0 21.177l13.802 13.802c5.848 5.848 15.329 5.848 21.177 0l13.802-13.802c5.848-5.847 5.848-15.329 0-21.177z" fill="#efc64c"/><g><path d="m190.295 268.773h-22.599c-3.9 0-7.062-3.162-7.062-7.062 0-3.9 3.162-7.062 7.062-7.062h22.599c3.9 0 7.062 3.162 7.062 7.062 0 3.9-3.162 7.062-7.062 7.062z" fill="#5e54ac"/><path d="m106.96 261.71c0 1.95-.79 3.71-2.07 4.99-1.27 1.28-3.04 2.07-4.99 2.07h-22.6c-3.9 0-7.06-3.16-7.06-7.06 0-1.95.79-3.71 2.07-4.99 1.27-1.28 3.04-2.07 4.99-2.07h22.6c3.9 0 7.06 3.16 7.06 7.06z" fill="#5e54ac"/><path d="m94.52 254.65v14.12h-17.22c-3.9 0-7.06-3.16-7.06-7.06 0-1.95.79-3.71 2.07-4.99 1.27-1.28 3.04-2.07 4.99-2.07z" fill="#453d81"/></g><path d="m171.937 275.495c0 11.585-5.171 21.97-13.326 28.956-6.668-5.734-15.344-1.299-24.815-1.299-9.472 0-18.136-4.435-24.805 1.299-8.155-6.987-13.326-17.372-13.326-28.956z" fill="#1f3645"/><path d="m158.611 304.451c-6.668 5.723-15.344 9.174-24.815 9.174-9.472 0-18.136-3.451-24.805-9.174 6.668-5.734 15.333-9.185 24.805-9.185s18.147 3.451 24.815 9.185z" fill="#ca245f"/></g><g><path d="m455.82 416.03c-44.1 55-110.44 91.4-185.39 95.57v-58.36c0-53.25 43.17-96.42 96.42-96.42 40.06 0 74.41 24.43 88.97 59.21z" fill="#efc64c"/><path d="m388.28 359.22c-42.93 9.74-74.98 48.14-74.98 94.02v52.32c-13.89 3.18-28.22 5.23-42.87 6.04v-58.36c0-53.25 43.16-96.41 96.42-96.41 7.37 0 14.54.82 21.43 2.39z" fill="#e3a12f"/><path d="m394.714 311.951v49.947c0 15.389-12.484 27.873-27.862 27.873-3.781 0-7.383-.75-10.667-2.112-10.097-4.193-17.205-14.142-17.205-25.76v-49.947h55.734z" fill="#ffddce"/><path d="m356.183 311.95v75.704c-10.095-4.189-17.2-14.143-17.2-25.752v-49.952z" fill="#ffcbbe"/><path d="m439.38 295.917h-145.064c-23.148 0-41.914-18.765-41.914-41.914 0-14.475 11.735-26.21 26.21-26.21h176.472c14.475 0 26.21 11.735 26.21 26.21 0 23.149-18.765 41.914-41.914 41.914z" fill="#ffddce"/><path d="m294.316 281.787c-15.32 0-27.783-12.464-27.783-27.784 0-6.661 5.419-12.08 12.08-12.08h176.472c6.661 0 12.08 5.419 12.08 12.08 0 15.32-12.464 27.784-27.783 27.784z" fill="#ffcbbe"/><path d="m394.714 311.951v49.197c-8.693 3.179-18.072 4.911-27.862 4.911s-19.18-1.732-27.873-4.911v-49.197z" fill="#ffcbbe"/><path d="m366.848 132.519c-44.881 0-81.263 36.383-81.263 81.263v59.771c0 44.88 36.383 81.263 81.263 81.263 44.88 0 81.263-36.383 81.263-81.263v-59.771c0-44.881-36.383-81.263-81.263-81.263z" fill="#ffddce"/><path d="m387.845 352.075c-6.698 1.787-13.735 2.741-20.998 2.741-44.885 0-81.263-36.378-81.263-81.263v-59.771c0-44.878 36.378-81.263 81.263-81.263 7.263 0 14.3.954 20.998 2.741-34.704 9.255-60.273 40.907-60.273 78.522v59.771c.001 37.622 25.57 69.273 60.273 78.522z" fill="#ffcbbe"/><path d="m366.848 270.959c-4.652 0-8.424-3.771-8.424-8.424v-118.629h16.848v118.629c0 4.652-3.772 8.424-8.424 8.424z" fill="#ffcbbe"/><g><circle cx="332.224" cy="227.084" fill="#fff" r="24.072"/><path d="m338.266 250.389c-1.937.499-3.955.764-6.045.764-13.297 0-24.069-10.772-24.069-24.069s10.772-24.069 24.069-24.069c2.09 0 4.108.265 6.045.764-10.378 2.677-18.04 12.091-18.04 23.305s7.661 20.628 18.04 23.305z" fill="#eceef1"/><circle cx="336.243" cy="227.084" fill="#1f3645" r="9.612"/><circle cx="401.472" cy="227.084" fill="#fff" r="24.072"/><path d="m407.515 250.389c-1.937.499-3.955.764-6.045.764-13.297 0-24.069-10.772-24.069-24.069s10.772-24.069 24.069-24.069c2.09 0 4.108.265 6.045.764-10.378 2.677-18.04 12.091-18.04 23.305s7.661 20.628 18.04 23.305z" fill="#eceef1"/><circle cx="395.222" cy="227.084" fill="#1f3645" r="9.612"/></g><g><path d="m423.345 268.773h-22.599c-3.9 0-7.062-3.162-7.062-7.062 0-3.9 3.162-7.062 7.062-7.062h22.599c3.9 0 7.062 3.162 7.062 7.062 0 3.9-3.162 7.062-7.062 7.062z" fill="#efc64c"/><path d="m340.01 261.71c0 1.95-.79 3.71-2.07 4.99s-3.04 2.07-4.99 2.07h-22.6c-3.9 0-7.06-3.16-7.06-7.06 0-1.95.79-3.71 2.07-4.99s3.04-2.07 4.99-2.07h22.6c3.9 0 7.06 3.16 7.06 7.06z" fill="#efc64c"/><path d="m327.57 254.65v14.12h-17.22c-3.9 0-7.06-3.16-7.06-7.06 0-1.95.79-3.71 2.07-4.99s3.04-2.07 4.99-2.07z" fill="#e3a12f"/></g><path d="m482.643 128.005-64.698 64.698c-4.523-4.534-7.9-9.78-10.141-15.375l-58.157 1.359-40.541.956-74.828-74.828c20.44-20.43 52.614-21.959 74.828-4.619v-48.219c29.402 0 54.207 19.612 62.096 46.466 5.978-4.056 13.188-6.424 20.95-6.424v10.459c10.926-10.948 27.141-16.087 43.259-12.147l-7.337 30.029c17.415-9.674 39.788-7.136 54.569 7.645z" fill="#5e54ac"/><path d="m350.125 175.172c-.149 1.189-.297 2.357-.478 3.515l-40.541.956-74.828-74.828c20.44-20.43 52.614-21.959 74.828-4.619v-48.219s54.43 13.347 41.019 123.195z" fill="#453d81"/><path d="m441.886 203.778h-150.076c-7.976 0-14.442-6.466-14.442-14.442l4.957-6.711-4.957-7.451c0-7.976 6.466-14.442 14.442-14.442h150.077c7.976 0 14.442 6.466 14.442 14.442l-7.809 6.509 7.809 7.653c-.001 7.976-6.467 14.442-14.443 14.442z" fill="#e3a12f"/><path d="m277.368 175.175h178.961v14.162h-178.961z" fill="#d6d8e8"/><path d="m333.39 203.781h-41.582c-7.974 0-14.441-6.466-14.441-14.441l4.957-6.714-4.957-7.451c0-7.974 6.466-14.441 14.441-14.441h41.582c-7.974 0-14.441 6.466-14.441 14.441l-3.519 7.395 3.519 6.77c0 7.974 6.467 14.441 14.441 14.441z" fill="#de8635"/><path d="m277.368 175.175h41.582v14.165h-41.582z" fill="#b8bede"/><circle cx="382.96" cy="289.013" fill="#ffcbbe" r="16.815"/><path d="m468.425 267.839v42.346c-19.113-9.185-40.053-13.942-61.268-13.942h-24.199c-3.993 0-7.22-3.239-7.22-7.231 0-3.993 3.228-7.221 7.22-7.221h24.199c21.215 0 42.155-4.767 61.268-13.952z" fill="#5e54ac"/><path d="m468.425 289.012v21.173c-19.113-9.185-40.053-13.942-61.268-13.942h-24.199c-3.993 0-7.22-3.239-7.22-7.231z" fill="#453d81"/><path d="m480.9 280.31v17.41c0 6.88-5.58 12.46-12.47 12.46-2.16 0-4.2-.55-5.97-1.52-3.87-2.11-6.5-6.22-6.5-10.94v-17.41c0-3.45 1.4-6.56 3.65-8.82.84-.84 1.8-1.56 2.85-2.13 1.77-.97 3.81-1.52 5.97-1.52 6.89 0 12.47 5.58 12.47 12.47z" fill="#efc64c"/><path d="m468.97 280.31v17.41c0 4.72-2.63 8.83-6.51 10.94-3.87-2.11-6.5-6.22-6.5-10.94v-17.41c0-3.45 1.4-6.56 3.65-8.82.84-.84 1.8-1.56 2.85-2.13 3.88 2.11 6.51 6.22 6.51 10.95z" fill="#e3a12f"/></g><path d="m132.558 433.855 51.366 23.132 9.976-30.936-9.976-28.931-51.366 23.132c-5.862 2.639-5.862 10.963 0 13.603z" fill="#efc64c"/><path d="m183.924 397.12h15.962v92.779h-15.962z" fill="#905f43"/><path d="m216.2 484.61v16.21c0 2.81-.68 5.46-1.89 7.8-16.72-2.74-32.88-7.09-48.34-12.91v-11.1c0-9.4 7.62-17.01 17.01-17.01h16.21c9.39 0 17.01 7.61 17.01 17.01z" fill="#ffddce"/><path d="m182.6 484.61v16.21c0 .17 0 .33.01.5-5.63-1.68-11.18-3.55-16.64-5.61v-11.1c0-9.4 7.62-17.01 17.02-17.01h16.41c-9.29.11-16.8 7.68-16.8 17.01z" fill="#ffcbbe"/><path d="m393.54 428.296-13.802-13.802c-5.848-5.848-15.329-5.848-21.177 0l-13.802 13.802c-5.848 5.848-5.848 15.329 0 21.177l13.802 13.802c5.848 5.848 15.329 5.848 21.177 0l13.802-13.802c5.848-5.848 5.848-15.329 0-21.177z" fill="#5e54ac"/></g></svg>