<svg id="Capa_1" enable-background="new 0 0 512 512" height="512" viewBox="0 0 512 512" width="512" xmlns="http://www.w3.org/2000/svg"><g><path d="m512 256c0 99.6-56.88 185.91-139.93 228.23-2.341 1.192-5.756-.741-8.141.383-3.035 1.431-5.052 5.897-8.149 7.207-11.88 5.04-24.23 9.2-36.95 12.41-4.377 1.107-10.625-4.364-15.091-3.489-6.462 1.266-11.186 8.75-17.809 9.519-9.82 1.15-19.81 1.74-29.93 1.74h-.22c-6.69-.005-14.479-7.422-21.043-7.933s-11.902 5.883-18.317 4.883c-10.24-1.58-20.28-3.77-30.08-6.55-.19-.05-.39-.1-.58-.16-5.39-1.53-10.71-38.352-15.94-40.232-15.52-5.54-30.34-12.54-44.3-20.82-9.59-5.7-18.77 23.122-27.5 16.262-59.68-46.87-98.02-119.69-98.02-201.45 0-141.38 114.62-256 256-256s256 114.62 256 256z" fill="#5e54ac"/><path d="m433.497 407.221h-326.327c-38.948 0-70.521-31.573-70.521-70.521v-252.213c0-38.948 31.573-70.521 70.521-70.521h326.326c38.948 0 70.521 31.573 70.521 70.521v252.213c0 38.948-31.573 70.521-70.52 70.521z" fill="#eceef1"/><path d="m125.13 407.217h-17.96c-38.95 0-70.52-31.57-70.52-70.52v-252.21c0-38.95 31.57-70.52 70.52-70.52h17.96c-38.95 0-70.52 31.57-70.52 70.52v252.21c0 38.95 31.57 70.52 70.52 70.52z" fill="#d9dee8"/><path d="m348.63 328.482h-156.593c-22.842 0-41.425-18.583-41.425-41.425v-121.35c0-22.842 18.583-41.425 41.425-41.425h156.593c22.842 0 41.425 18.583 41.425 41.425v121.35c0 22.842-18.583 41.425-41.425 41.425zm-156.593-186.199c-12.917 0-23.425 10.508-23.425 23.425v121.35c0 12.917 10.508 23.425 23.425 23.425h156.593c12.917 0 23.425-10.508 23.425-23.425v-121.35c0-12.917-10.508-23.425-23.425-23.425z" fill="#9dc6fb"/><path d="m433.496 383.507h-326.326c-25.809 0-46.806-20.997-46.806-46.806v-252.214c0-25.809 20.997-46.806 46.806-46.806h326.326c25.809 0 46.806 20.997 46.806 46.806v252.214c.001 25.809-20.997 46.806-46.806 46.806zm-326.326-330.016c-17.091 0-30.996 13.905-30.996 30.996v252.214c0 17.091 13.905 30.996 30.996 30.996h326.326c17.091 0 30.996-13.905 30.996-30.996v-252.214c0-17.091-13.905-30.996-30.996-30.996z" fill="#9dc6fb"/><g><path d="m323.643 233.14c1.878 1.878 3.682 3.816 5.381 5.798 14.809 17.134 23.283 37.831 25.414 59.056.537 5.262.671 10.553.432 15.83-1.088 23.223-9.696 46.155-25.839 64.832-1.707 1.99-3.503 3.92-5.381 5.798s-3.808 3.674-5.798 5.381c-18.677 16.143-41.617 24.758-64.839 25.846-5.277.238-10.561.097-15.815-.432-21.226-2.132-41.937-10.605-59.071-25.414-1.982-1.699-3.92-3.503-5.798-5.381s-3.674-3.808-5.381-5.798c-14.801-17.126-23.275-37.838-25.407-59.064-.529-5.254-.671-10.538-.432-15.815 1.088-23.223 9.703-46.163 25.846-64.84 1.707-1.99 3.503-3.92 5.381-5.798s3.808-3.674 5.798-5.381c18.677-16.143 41.609-24.751 64.832-25.839 5.277-.238 10.568-.104 15.83.432 21.226 2.131 41.922 10.605 59.049 25.407 1.99 1.707 3.92 3.504 5.798 5.382z" fill="#e3a12f"/><path d="m277.429 411.702c-9.349 2.666-19.225 4.1-29.438 4.1-59.097 0-107.001-47.904-107.001-107.001 0-59.087 47.904-106.99 107.001-106.99 10.213 0 20.089 1.434 29.438 4.1-44.773 12.785-77.563 54.017-77.563 102.89 0 48.884 32.79 90.116 77.563 102.901z" fill="#de8635"/><path d="m323.643 233.14c-1.878-1.878-3.808-3.674-5.798-5.381l-35.513 35.513c-14.973-17.551-22.82-39.142-23.536-60.919-5.262-.537-10.553-.671-15.83-.432.648 25.973 10.031 51.782 28.157 72.561l-23.134 23.134-69.855-69.855c-1.99 1.707-3.92 3.503-5.798 5.381s-3.674 3.808-5.381 5.798l69.855 69.855-23.141 23.141c-20.786-18.118-46.588-27.508-72.561-28.157-.238 5.277-.097 10.561.432 15.815 21.777.73 43.368 8.578 60.919 23.551l-35.513 35.513c1.707 1.99 3.503 3.92 5.381 5.798s3.816 3.682 5.798 5.381l35.513-35.513c14.98 17.559 22.828 39.15 23.558 60.927 5.254.529 10.538.671 15.815.432-.648-25.973-10.039-51.775-28.164-72.568l23.141-23.141 69.863 69.863c1.99-1.707 3.92-3.503 5.798-5.381s3.674-3.808 5.381-5.798l-69.863-69.863 23.134-23.134c20.786 18.133 46.595 27.516 72.568 28.164.238-5.277.104-10.568-.432-15.83-21.785-.723-43.368-8.563-60.927-23.543l35.513-35.513c-1.698-1.983-3.501-3.921-5.38-5.799z" fill="#efc64c"/></g><path d="m375.43 361.22-5.64-5.64-5.65 5.64h-214.59l20.27 135.9c5.23 1.88 10.55 3.59 15.94 5.12l-1.59-10.64 15-15 24.8 24.8-7.55 7.55c12.83 2 25.98 3.04 39.36 3.05l-10.6-10.6 24.81-24.8 24.8 24.8-8.86 8.86c11.2-1.3 22.19-3.32 32.9-6.03l-2.83-2.83 24.81-24.8 15 14.99-.03.23c5.53-2.34 10.97-4.88 16.29-7.59l18.35-123.01zm-26.29 15-8.33 8.34-8.34-8.34zm-49.61 0h11.73l18.94 18.94-24.8 24.81-24.81-24.8zm-21.21 0-8.33 8.34-8.34-8.34zm-49.61 0h11.73l18.94 18.95-24.8 24.8-24.81-24.81zm-21.21 0-8.34 8.34-8.33-8.34zm-40.55 0h2.67l18.94 18.94-16.34 16.34zm14.46 96.92-2.5-16.81 9.65 9.66zm-6.22-41.74-.22-1.44 24.19-24.19 24.81 24.81-24.8 24.8zm59.39 59.39-24.81-24.8 24.81-24.8 24.8 24.8zm10.6-60.21 24.81-24.81 24.8 24.81-24.8 24.8zm60.22 60.22-24.81-24.81 24.81-24.81 24.8 24.81zm53.16-17.67-7.14-7.14 9.65-9.65zm6.23-41.72-23.98 23.97-24.81-24.8 24.81-24.81 24.19 24.19zm2.97-19.91-16.35-16.34 18.94-18.94h2.67z" fill="#b8bede"/><path d="m391.982 389.511h-243.297c-11.795 0-21.357-9.562-21.357-21.357v-1.768c0-11.795 9.562-21.357 21.357-21.357h243.297c11.795 0 21.357 9.562 21.357 21.357v1.768c0 11.794-9.562 21.357-21.357 21.357z" fill="#2e4f5f"/><path d="m223.838 389.511h-75.15c-11.8 0-21.36-9.56-21.36-21.36v-1.77c0-11.79 9.56-21.35 21.36-21.35h75.15c-11.79 0-21.36 9.56-21.36 21.35v1.77c0 11.8 9.57 21.36 21.36 21.36z" fill="#1f3645"/><g><path d="m182.316 137.388c10.984 4.349 16.363 16.779 12.013 27.764l-30.171 76.197-39.777-15.75 30.171-76.197c4.35-10.985 16.78-16.364 27.764-12.014z" fill="#ffddce"/><path d="m182.309 137.391c2.842 1.125 5.31 2.794 7.327 4.828-8.225.303-15.896 5.359-19.12 13.503l-30.173 76.202-15.964-6.321 30.173-76.202c4.351-10.985 16.772-16.36 27.757-12.01z" fill="#ffcbbe"/><path d="m221.956 150.289c8.354 8.354 8.354 21.898 0 30.251l-57.949 57.949-30.251-30.251 57.949-57.949c8.353-8.354 21.897-8.354 30.251 0z" fill="#ffddce"/><path d="m221.948 150.289c2.161 2.161 3.764 4.673 4.807 7.341-7.669-2.989-16.717-1.394-22.91 4.799l-57.953 57.953-12.141-12.141 57.953-57.953c8.355-8.354 21.889-8.354 30.244.001z" fill="#ffcbbe"/><path d="m119.407 175.271c11.814 0 21.391 9.577 21.391 21.391v71.096h-42.782v-71.096c0-11.814 9.577-21.391 21.391-21.391z" fill="#ffcbbe"/><path d="m251.53 210.86c0 11.82-9.57 21.39-21.39 21.39h-43.8v19.51c2.59 1.45 5.02 3.27 7.22 5.47 12.94 12.94 12.94 33.91 0 46.84-2.2 2.2-4.63 4.02-7.22 5.47v192.86c-.19-.05-.39-.1-.58-.16-5.39-1.53-10.71-3.24-15.94-5.12-26.17-9.35-50.36-22.83-71.8-39.67v-179.65c0-24.39 9.88-46.47 25.87-62.46 15.98-15.98 38.06-25.87 62.45-25.87h43.8c11.82 0 21.39 9.58 21.39 21.39z" fill="#ffddce"/><path d="m213.5 189.48c-24.26.09-46.2 9.95-62.11 25.86-15.98 15.99-25.87 38.06-25.87 62.46v198.5c-9.59-5.7-18.77-11.99-27.5-18.85v-179.65c0-24.39 9.88-46.47 25.86-62.45 15.99-15.99 38.07-25.87 62.46-25.88z" fill="#ffcbbe"/><path d="m192.623 336.244v28.505c0 9.26-7.507 16.766-16.766 16.766h-66.358c-9.26 0-16.766-7.507-16.766-16.766v-28.505c0-9.26 7.506-16.766 16.766-16.766h66.358c9.259 0 16.766 7.506 16.766 16.766z" fill="#ca245f"/><path d="m146.31 319.482c-9.264-.007-16.769 7.498-16.769 16.769v28.5c0 9.256 7.505 16.761 16.769 16.769h-36.817c-9.256 0-16.761-7.505-16.769-16.769l.007-28.507c0-9.256 7.505-16.761 16.761-16.761z" fill="#b7004f"/></g><g fill="#ca245f"><path d="m277.795 88.219c-.018 0-.037 0-.056 0-3.688.021-7.563.036-10.922.044v-49.4c0-5.375-4.357-9.732-9.732-9.732s-9.732 4.357-9.732 9.732v59.089c0 4.741 3.416 8.792 8.09 9.592.695.119 1.133.194 7.833.194 3.196 0 7.819-.017 14.573-.054 5.375-.03 9.707-4.411 9.678-9.786-.031-5.357-4.383-9.679-9.732-9.679z"/><path d="m307.738 29.131c-5.375 0-9.732 4.357-9.732 9.732v59.138c0 5.375 4.357 9.732 9.732 9.732s9.732-4.357 9.732-9.732v-59.138c0-5.375-4.358-9.732-9.732-9.732z"/><path d="m430.598 88.269h-14.959v-9.835h13.138c5.375 0 9.732-4.357 9.732-9.732s-4.357-9.732-9.732-9.732h-13.138v-9.835h14.959c5.375 0 9.732-4.357 9.732-9.732s-4.357-9.732-9.732-9.732h-24.691c-5.375 0-9.732 4.357-9.732 9.732v58.598c0 5.375 4.357 9.732 9.732 9.732h24.691c5.375 0 9.732-4.357 9.732-9.732s-4.357-9.732-9.732-9.732z"/><path d="m380.916 29.736c-5.102-1.696-10.61 1.067-12.304 6.167l-11.512 34.653-12.109-34.885c-1.763-5.078-7.31-7.766-12.386-6.002-5.078 1.762-7.765 7.308-6.003 12.385l20.243 58.314c1.566 4.413 5.751 7.365 10.428 7.365h.074c4.707-.031 8.888-3.047 10.426-7.569l19.309-58.125c1.696-5.1-1.065-10.609-6.166-12.303z"/></g></g></svg>