<svg id="Capa_1" enable-background="new 0 0 512 512" height="512" viewBox="0 0 512 512" width="512" xmlns="http://www.w3.org/2000/svg"><g><path d="m512 256c0 61.815-21.909 118.514-58.386 162.753-46.953 56.945-183.458 27.833-263.027 27.833-68.36 0-31.472 18.054-110.963-5.04-49.048-46.638-79.624-112.521-79.624-185.546 0-141.385 114.615-256 256-256s256 114.615 256 256z" fill="#5e54ac"/><path d="m465.743 316.315h-261.429c-17.617 0-31.898-14.281-31.898-31.898v-214.874c0-17.617 14.281-31.898 31.898-31.898h261.429c17.617 0 31.898 14.281 31.898 31.898v214.873c0 17.617-14.281 31.899-31.898 31.899z" fill="#efc64c"/><path d="m215.626 316.313h-11.31c-17.62 0-31.9-14.28-31.9-31.89v-214.88c0-17.61 14.28-31.89 31.9-31.89h11.31c-17.62 0-31.9 14.28-31.9 31.89v214.88c0 17.61 14.28 31.89 31.9 31.89z" fill="#e3a12f"/><path d="m477.64 69.54v214.88c0 6.56-5.34 11.89-11.9 11.89h-261.43c-6.56 0-11.89-5.33-11.89-11.89v-214.88c0-6.56 5.33-11.89 11.89-11.89h261.43c6.56 0 11.9 5.33 11.9 11.89z" fill="#9ddea3"/><path d="m477.642 69.543v214.88c0 6.56-5.34 11.89-11.9 11.89h-15.96c6.56 0 11.9-5.33 11.9-11.89v-214.88c0-6.56-5.34-11.89-11.9-11.89h15.96c6.56 0 11.9 5.33 11.9 11.89z" fill="#88c98b"/><g fill="#eceef1"><path d="m192.42 130.91v10.46h22.68v77.84h-22.68v10.46h33.15v-98.76zm0-26.9v10.47h59.79v131.63h-59.79v10.46h70.25v-152.56z"/><path d="m477.64 141.37v-10.47h-33.14v98.77h33.14v-10.46h-22.67v-77.84zm0-26.9v-10.46h-70.25v152.55h70.25v-10.46h-59.79v-131.63z"/><path d="m340.26 118.65v-61h-10.46v61c-29.86 2.66-53.35 27.79-53.35 58.33s23.49 55.67 53.35 58.33v61h10.46v-61c29.86-2.66 53.35-27.79 53.35-58.33s-23.49-55.67-53.35-58.33zm-10.46 106.16c-24.08-2.62-42.89-23.07-42.89-47.83s18.81-45.21 42.89-47.83zm10.46 0v-95.66c24.08 2.62 42.89 23.07 42.89 47.83s-18.81 45.21-42.89 47.83z"/></g><g><path d="m234.713 427.716h-198.361c3.434-21.286 13.559-40.315 28.131-54.898 18.193-18.182 43.309-29.43 71.055-29.43 49.989 0 91.449 36.518 99.175 84.328z" fill="#d6d8e8"/><path d="m150.649 344.521c-21.682 3.28-41.096 13.482-55.91 28.296-14.572 14.572-24.697 33.612-28.131 54.898h-30.256c3.434-21.275 13.559-40.315 28.131-54.898 18.193-18.182 43.298-29.43 71.044-29.43 5.151.001 10.192.386 15.122 1.134z" fill="#b8bede"/><path d="m112.206 353.949h46.656v46.656h-46.656z" fill="#ca245f" transform="matrix(.707 .707 -.707 .707 306.472 14.665)"/><path d="m150.704 427.716h-30.332l15.166-45.939z" fill="#ca245f"/><path d="m135.534 377.277-29.295 20.084c-5.727 3.926-13.576.375-14.408-6.518l-2.606-21.593c-1.585-13.132 6.529-25.494 19.209-29.264l15.987-4.753" fill="#b8bede"/><path d="m135.534 377.277 29.295 20.084c5.727 3.926 13.576.375 14.408-6.518l2.606-21.593c1.585-13.132-6.529-25.494-19.209-29.264l-15.987-4.753" fill="#b8bede"/><path d="m164.199 297.236v51.375c0 15.829-12.841 28.67-28.669 28.67-3.878 0-7.594-.771-10.962-2.173-10.386-4.313-17.697-14.547-17.697-26.497v-51.375z" fill="#ffddce"/><path d="m124.564 297.235v77.868c-10.384-4.309-17.692-14.547-17.692-26.488v-51.38z" fill="#ffcbbe"/><path d="m210.139 280.744h-149.211c-23.81 0-43.112-19.302-43.112-43.112 0-14.889 12.07-26.959 26.959-26.959h181.516c14.889 0 26.959 12.07 26.959 26.959.001 23.81-19.301 43.112-43.111 43.112z" fill="#ffddce"/><path d="m60.928 266.21c-15.758 0-28.578-12.82-28.578-28.578 0-6.851 5.574-12.425 12.425-12.425h181.516c6.851 0 12.425 5.574 12.425 12.425 0 15.758-12.82 28.578-28.578 28.578z" fill="#ffcbbe"/><path d="m164.199 297.236v51.082c-8.941 3.27-18.599 5.052-28.669 5.052-10.071 0-19.718-1.782-28.659-5.041v-51.092h57.328z" fill="#ffcbbe"/><path d="m135.534 131.568c-46.163 0-83.586 32.212-83.586 78.375v47.797c0 46.163 37.423 83.586 83.586 83.586 46.163 0 83.586-37.423 83.586-83.586v-47.797c0-46.163-37.423-78.375-83.586-78.375z" fill="#ffddce"/><path d="m157.132 338.507c-6.889 1.839-14.127 2.82-21.598 2.82-46.168 0-83.586-37.418-83.586-83.586v-47.797c0-46.16 37.418-87.712 83.586-87.712 7.471 0 14.709-8.575 21.598-6.736-35.696 9.52-61.995 42.076-61.995 80.766v61.479c-.001 38.696 26.299 71.253 61.995 80.766z" fill="#ffcbbe"/><path d="m146.398 262.253c-4.785 0-8.665-3.879-8.665-8.665v-81.908h17.329v81.908c.001 4.786-3.878 8.665-8.664 8.665z" fill="#ffcbbe"/><path d="m204.503 89.65h-69.453c-21.831 0-39.528 17.697-39.528 39.528v8.231c0 21.831 17.697 39.528 39.528 39.528h69.453c21.831 0 39.528-17.697 39.528-39.528v-8.231c0-21.83-17.697-39.528-39.528-39.528z" fill="#2e4f5f"/><path d="m74.806 141.239h-22.858v68.704c12.624 0 22.859-10.234 22.859-22.859v-45.845z" fill="#1f3645"/><path d="m196.261 141.239h22.859v68.704c-12.624 0-22.859-10.234-22.859-22.859z" fill="#2e4f5f"/><path d="m69.795 89.65c-17.676 0-32.005 14.329-32.005 32.005v23.277c0 17.676 14.329 32.005 32.005 32.005 17.676 0 32.005-14.329 32.005-32.005v-23.277c0-17.676-14.329-32.005-32.005-32.005z" fill="#1f3645"/><path d="m199.593 213.041c0 11.69-9.484 21.174-21.174 21.174s-21.163-9.484-21.163-21.174c0-4.269 1.26-8.245 3.444-11.559h35.449c2.184 3.314 3.444 7.29 3.444 11.559z" fill="#fff"/><path d="m196.975 206.164c0 4.954-4.009 8.963-8.973 8.963-4.954 0-8.963-4.009-8.963-8.963 0-1.717.478-3.324 1.314-4.682h15.307c.837 1.358 1.315 2.966 1.315 4.682z" fill="#2e4f5f"/><path d="m133.324 213.041c0 11.69-9.484 21.174-21.174 21.174s-21.163-9.484-21.163-21.174c0-4.269 1.26-8.245 3.444-11.559h35.449c1.792 2.716 2.966 5.877 3.324 9.289.077.738.12 1.499.12 2.27z" fill="#fff"/><path d="m118.897 233.102c-2.118.717-4.389 1.108-6.746 1.108-11.689 0-21.163-9.484-21.163-21.174 0-4.269 1.26-8.245 3.444-11.559h13.493c-2.184 3.314-3.444 7.29-3.444 11.559 0 9.332 6.029 17.252 14.416 20.066z" fill="#eceef1"/><path d="m185.166 233.102c-2.118.717-4.389 1.108-6.746 1.108-11.689 0-21.163-9.484-21.163-21.174 0-4.269 1.26-8.245 3.444-11.559h13.493c-2.184 3.314-3.444 7.29-3.444 11.559 0 9.332 6.029 17.252 14.416 20.066z" fill="#eceef1"/><path d="m133.205 210.771c-1.564 2.607-4.422 4.356-7.702 4.356-4.954 0-8.973-4.009-8.973-8.963 0-1.717.478-3.324 1.314-4.682h12.037c1.792 2.716 2.965 5.877 3.324 9.289z" fill="#2e4f5f"/><path d="m135.863 293.826c-3.99 0-7.225-3.235-7.225-7.225v-11.166c0-3.99 3.235-7.225 7.225-7.225 3.99 0 7.225 3.235 7.225 7.225v11.166c0 3.991-3.235 7.225-7.225 7.225z" fill="#1f3645"/></g><path d="m432.38 441.55c-8.77 8.34-18.13 16.06-28.01 23.09-41.86 29.82-93.06 47.36-148.37 47.36s-106.51-17.54-148.37-47.36c-9.88-7.03-19.24-14.75-28.01-23.09z" fill="#784536"/><g><circle cx="391.561" cy="260.909" fill="#ca245f" r="12.304"/><path d="m395.637 272.509c-1.27.46-2.65.7-4.08.7-6.79 0-12.3-5.51-12.3-12.3 0-6.8 5.51-12.3 12.3-12.3 1.43 0 2.81.24 4.08.69-4.79 1.68-8.23 6.24-8.23 11.61 0 5.36 3.44 9.93 8.23 11.6z" fill="#b7004f"/></g><g><circle cx="352.653" cy="214.686" fill="#ca245f" r="12.304"/><path d="m356.729 226.286c-1.27.46-2.65.7-4.08.7-6.79 0-12.3-5.51-12.3-12.3 0-6.8 5.51-12.3 12.3-12.3 1.43 0 2.81.24 4.08.69-4.79 1.68-8.23 6.24-8.23 11.61 0 5.36 3.44 9.93 8.23 11.6z" fill="#b7004f"/></g><g><circle cx="394.221" cy="200.719" fill="#ca245f" r="12.304"/><path d="m398.297 212.319c-1.27.46-2.65.7-4.08.7-6.79 0-12.3-5.51-12.3-12.3 0-6.8 5.51-12.3 12.3-12.3 1.43 0 2.81.24 4.08.69-4.79 1.68-8.23 6.24-8.23 11.61 0 5.36 3.44 9.93 8.23 11.6z" fill="#b7004f"/></g><g><circle cx="244.138" cy="194.401" fill="#ca245f" r="12.304"/><path d="m248.214 206.001c-1.27.46-2.65.7-4.08.7-6.79 0-12.3-5.51-12.3-12.3 0-6.8 5.51-12.3 12.3-12.3 1.43 0 2.81.24 4.08.69-4.79 1.68-8.23 6.24-8.23 11.61 0 5.36 3.44 9.93 8.23 11.6z" fill="#b7004f"/></g><g><circle cx="290.468" cy="152.168" fill="#9dc6fb" r="12.304"/><path d="m294.544 163.768c-1.27.46-2.65.7-4.08.7-6.79 0-12.3-5.51-12.3-12.3 0-6.8 5.51-12.3 12.3-12.3 1.43 0 2.81.24 4.08.69-4.79 1.68-8.23 6.24-8.23 11.61 0 5.36 3.44 9.93 8.23 11.6z" fill="#80b4fb"/></g><g><circle cx="317.496" cy="118.65" fill="#9dc6fb" r="12.304"/><path d="m321.572 130.25c-1.27.46-2.65.7-4.08.7-6.79 0-12.3-5.51-12.3-12.3 0-6.8 5.51-12.3 12.3-12.3 1.43 0 2.81.24 4.08.69-4.79 1.68-8.23 6.24-8.23 11.61 0 5.36 3.44 9.93 8.23 11.6z" fill="#80b4fb"/></g><g><g><path d="m308.343 411.742-.06.153c-1.798 4.593-6.986 6.871-11.6 5.066-4.665-1.826-6.927-7.114-5.02-11.747l81.194-197.197c1.086-2.624 4.07-3.904 6.725-2.865 2.644 1.035 3.977 4.005 2.983 6.665z" fill="#905f43"/><path d="m379.582 205.151-82.898 211.809c-4.665-1.826-6.927-7.114-5.02-11.747l81.194-197.197c1.085-2.623 4.07-3.903 6.724-2.865z" fill="#784536"/></g><path d="m290.056 439.364c-11.117-4.351-16.601-16.89-12.251-28.006l4.121-10.529c4.351-11.117 16.89-16.601 28.006-12.251 11.117 4.351 16.601 16.89 12.251 28.006l-4.121 10.529c-4.351 11.117-16.89 16.601-28.006 12.251z" fill="#ffddce"/><path d="m297.511 440.852c-2.483-.048-5.001-.529-7.45-1.488-11.119-4.352-16.605-16.894-12.257-28.003l4.122-10.532c4.352-11.119 16.89-16.595 28.009-12.244 2.449.959 4.625 2.315 6.481 3.965-8.8-.18-17.175 5.059-20.568 13.728l-4.122 10.532c-3.394 8.669-.799 18.2 5.785 24.042z" fill="#ffcbbe"/></g><g><circle cx="273.509" cy="86.325" fill="#9dc6fb" r="12.304"/><path d="m277.584 97.925c-1.27.46-2.65.7-4.08.7-6.79 0-12.3-5.51-12.3-12.3 0-6.8 5.51-12.3 12.3-12.3 1.43 0 2.81.24 4.08.69-4.79 1.68-8.23 6.24-8.23 11.61 0 5.36 3.441 9.93 8.23 11.6z" fill="#80b4fb"/></g><g><circle cx="455.741" cy="180.767" fill="#9dc6fb" r="12.304"/><path d="m459.817 192.367c-1.27.46-2.65.7-4.08.7-6.79 0-12.3-5.51-12.3-12.3 0-6.8 5.51-12.3 12.3-12.3 1.43 0 2.81.24 4.08.69-4.79 1.68-8.23 6.24-8.23 11.61 0 5.36 3.44 9.93 8.23 11.6z" fill="#80b4fb"/></g><path d="m453.61 418.75c-2.5 3.05-5.08 6.04-7.73 8.97-4.33 4.78-8.83 9.39-13.5 13.83-8.77 8.34-18.13 16.06-28.01 23.09h-363.8c-11.88 0-21.51-9.63-21.51-21.5v-2.89c0-11.88 9.63-21.5 21.51-21.5z" fill="#905f43"/><path d="m95.096 464.638h-54.53c-11.88 0-21.51-9.63-21.51-21.5v-2.89c0-11.88 9.63-21.5 21.51-21.5h54.53c-11.87 0-21.5 9.62-21.5 21.5v2.89c0 11.87 9.63 21.5 21.5 21.5z" fill="#784536"/></g></svg>