<svg id="Capa_1" enable-background="new 0 0 512 512" height="512" viewBox="0 0 512 512" width="512" xmlns="http://www.w3.org/2000/svg"><g><path d="m512 256c0 54.35-16.94 104.75-45.83 146.2-6.14 8.81-12.82-6.85-20 1.1-46.84 51.97-114.69 84.63-190.17 84.63s-143.33-32.66-190.17-84.63c-7.18-7.95-13.86 7.71-20-1.1-28.89-41.45-45.83-91.85-45.83-146.2s16.94-104.75 45.83-146.2c30.21-43.35 73.49-76.91 124.13-94.97 26.89-9.6 55.85-14.83 86.04-14.83s59.15 5.23 86.04 14.83c50.64 18.06 93.92 51.62 124.13 94.97 28.89 41.45 45.83 91.85 45.83 146.2z" fill="#9dc6fb"/><path d="m466.17 52.61v349.59c-46.25 66.37-123.14 109.8-210.17 109.8s-163.92-43.43-210.17-109.8v-349.59c0-20.87 16.92-37.78 37.78-37.78h344.78c20.86 0 37.78 16.91 37.78 37.78z" fill="#b8bede"/><path d="m446.17 109.89v317.48c-46.84 51.97-114.69 84.63-190.17 84.63s-143.33-32.66-190.17-84.63v-317.48c0-9.8 7.98-17.77 17.78-17.77h344.78c9.8 0 17.78 7.97 17.78 17.77z" fill="#d6d8e8"/><path d="m85.834 354.333v-219.303c0-12.655 10.259-22.914 22.914-22.914h294.504c12.655 0 22.914 10.259 22.914 22.914v219.303c0 12.655-10.259 22.914-22.914 22.914h-294.504c-12.655 0-22.914-10.259-22.914-22.914z" fill="#9ddea3"/><g fill="#a8acd3"><circle cx="84.456" cy="53.408" r="18.622"/><circle cx="134.803" cy="53.408" r="18.622"/><circle cx="185.15" cy="54.797" r="18.622"/></g><g><path d="m267.688 377.247h-151.458c2.622-16.253 10.353-30.782 21.48-41.917 13.891-13.883 33.068-22.471 54.254-22.471 38.168 0 69.825 27.883 75.724 64.388z" fill="#5e54ac"/><path d="m203.501 313.724c-16.555 2.504-31.379 10.294-42.69 21.606-11.126 11.126-18.858 25.665-21.48 41.917h-23.101c2.622-16.244 10.353-30.782 21.48-41.917 13.891-13.883 33.06-22.471 54.245-22.471 3.933 0 7.782.294 11.546.865z" fill="#453d81"/><path d="m174.148 320.923h35.624v35.624h-35.624z" fill="#efc64c" transform="matrix(.707 .707 -.707 .707 295.746 -36.523)"/><path d="m203.543 377.247h-23.16l11.58-35.076z" fill="#efc64c"/><path d="m191.96 338.735-22.368 15.335c-4.373 2.998-10.366.286-11.001-4.977l-1.99-16.487c-1.21-10.027 4.985-19.466 14.667-22.344l12.207-3.629" fill="#453d81"/><path d="m191.96 338.735 22.368 15.335c4.373 2.998 10.366.286 11.001-4.977l1.99-16.487c1.21-10.027-4.985-19.466-14.667-22.344l-12.207-3.629" fill="#453d81"/><path d="m213.845 277.619v39.231c0 12.084-9.8 21.884-21.884 21.884-2.967 0-5.798-.589-8.376-1.66-7.929-3.29-13.509-11.107-13.509-20.225v-39.231h43.769z" fill="#ffddce"/><path d="m183.584 277.619v59.456c-7.929-3.29-13.509-11.107-13.509-20.225v-39.231z" fill="#ffcbbe"/><path d="m248.925 265.027h-113.93c-18.18 0-32.918-14.738-32.918-32.918 0-11.369 9.216-20.585 20.585-20.585h138.596c11.369 0 20.585 9.216 20.585 20.585 0 18.181-14.738 32.918-32.918 32.918z" fill="#ffddce"/><path d="m134.995 253.93c-12.032 0-21.82-9.789-21.82-21.82 0-5.231 4.256-9.487 9.487-9.487h138.596c5.231 0 9.487 4.256 9.487 9.487 0 12.032-9.789 21.82-21.82 21.82z" fill="#ffcbbe"/><path d="m191.96 151.124c-35.248 0-63.822 24.595-63.822 59.843v36.496c0 35.248 28.574 63.822 63.822 63.822 35.248 0 63.822-28.574 63.822-63.822v-36.496c0-35.247-28.574-59.843-63.822-59.843z" fill="#ffddce"/><path d="m208.451 309.132c-5.26 1.404-10.787 2.153-16.491 2.153-35.251 0-63.822-28.571-63.822-63.822v-46.942c0-35.246 28.571-56.526 63.822-56.526 5.704 0 11.231-6.547 16.491-5.143-27.255 7.269-47.336 32.127-47.336 61.669v46.942c0 29.547 20.081 54.405 47.336 61.669z" fill="#ffcbbe"/><path d="m191.96 250.909c-3.654 0-6.616-2.962-6.616-6.616v-62.541h13.232v62.541c0 3.654-2.962 6.616-6.616 6.616z" fill="#ffcbbe"/><path d="m162.059 294.32h-35.815c-7.918 0-14.36-6.442-14.36-14.36v-22.401h10.925v22.401c0 1.894 1.541 3.435 3.435 3.435h35.815z" fill="#d6d8e8"/><path d="m244.621 119.119h-53.03c-16.669 0-30.181 13.513-30.181 30.181v6.285c0 16.669 13.513 30.181 30.181 30.181h53.03c16.669 0 30.181-13.513 30.181-30.181v-6.285c.001-16.669-13.512-30.181-30.181-30.181z" fill="#2e4f5f"/><path d="m145.592 158.509h-17.454v52.459c9.639 0 17.454-7.814 17.454-17.454z" fill="#1f3645"/><path d="m238.328 158.509h17.454v52.459c-9.639 0-17.454-7.814-17.454-17.454z" fill="#2e4f5f"/><path d="m141.766 119.119c-13.496 0-24.437 10.941-24.437 24.437v17.773c0 13.496 10.941 24.437 24.437 24.437 13.496 0 24.437-10.941 24.437-24.437v-17.773c0-13.497-10.941-24.437-24.437-24.437z" fill="#1f3645"/><path d="m123.946 267.061h4.193v-56.093h-4.193c-14.449 0-26.161 11.713-26.161 26.161v3.77c-.001 14.449 11.712 26.162 26.161 26.162z" fill="#efc64c"/><path d="m128.14 248.091v18.97h-4.19c-14.45 0-26.17-11.71-26.17-26.16v-3.77c0-2.64.39-5.19 1.13-7.6 3.25 10.74 13.23 18.56 25.04 18.56z" fill="#e3a12f"/><path d="m128.138 273.363c-3.481 0-6.303-2.822-6.303-6.303v-56.093c0-3.481 2.822-6.303 6.303-6.303s6.303 2.822 6.303 6.303v56.093c0 3.482-2.822 6.303-6.303 6.303z" fill="#ca245f"/><path d="m134.438 245.783v21.28c0 3.48-2.82 6.3-6.3 6.3s-6.3-2.82-6.3-6.3v-21.28c0 3.48 2.82 6.3 6.3 6.3s6.3-2.82 6.3-6.3z" fill="#b7004f"/><path d="m161.427 303.972c-8.294 0-15.018-6.724-15.018-15.018 0-8.294 6.724-15.018 15.018-15.018 8.294 0 15.018 6.724 15.018 15.018 0 8.294-6.724 15.018-15.018 15.018z" fill="#2e4f5f"/><path d="m166.529 303.084c-1.59.58-3.31.89-5.1.89-8.3 0-15.02-6.72-15.02-15.02 0-4.15 1.68-7.9 4.4-10.61 2.71-2.72 6.47-4.4 10.62-4.4 1.79 0 3.51.31 5.1.89-2.1.75-3.98 1.96-5.52 3.51-2.72 2.71-4.4 6.46-4.4 10.61 0 6.51 4.13 12.05 9.92 14.13z" fill="#1f3645"/><path d="m183.25 215.36c0 4.84-2.11 9.2-5.47 12.19-2.89-2.59-6.69-4.16-10.87-4.16s-7.99 1.57-10.88 4.16c-3.36-2.99-5.47-7.35-5.47-12.19 0-9.03 7.32-16.35 16.35-16.35 9.02 0 16.34 7.32 16.34 16.35z" fill="#fff"/><path d="m159.83 215.36c0 3.19.91 6.17 2.5 8.69-2.37.68-4.52 1.9-6.31 3.5-3.35-2.99-5.46-7.34-5.46-12.19 0-9.04 7.32-16.35 16.34-16.35 1.61 0 3.17.24 4.64.67-6.77 1.99-11.71 8.26-11.71 15.68z" fill="#eceef1"/><circle cx="166.906" cy="215.355" fill="#1f3645" r="5.898"/><path d="m233.47 215.36c0 4.84-2.11 9.2-5.47 12.19-2.89-2.59-6.69-4.16-10.87-4.16s-7.99 1.57-10.88 4.16c-3.36-2.99-5.47-7.35-5.47-12.19 0-9.03 7.32-16.35 16.35-16.35 9.02 0 16.34 7.32 16.34 16.35z" fill="#fff"/><path d="m210.05 215.36c0 3.19.91 6.17 2.5 8.69-2.37.68-4.52 1.9-6.31 3.5-3.35-2.99-5.46-7.34-5.46-12.19 0-9.04 7.32-16.35 16.34-16.35 1.61 0 3.17.24 4.64.67-6.77 1.99-11.71 8.26-11.71 15.68z" fill="#eceef1"/><circle cx="217.126" cy="215.355" fill="#1f3645" r="5.898"/><path d="m173.845 261.95v3.29l13.397 5.317 12.523-5.317c-1.38-4.81-5.81-8.32-11.07-8.32h-9.82c-2.78 0-5.03 2.25-5.03 5.03z" fill="#fff"/><path d="m173.845 265.24v3.21c0 6.37 5.16 11.53 11.53 11.53h3.32c3.18 0 6.07-1.29 8.15-3.38 2.09-2.08 3.38-4.96 3.38-8.15 0-1.12-.16-2.2-.46-3.21z" fill="#1f3645"/></g><path d="m396.332 362.671h-280.664c-4.591 0-8.314-3.722-8.314-8.314 0-4.591 3.722-8.314 8.314-8.314h280.665c4.591 0 8.314 3.722 8.314 8.314-.001 4.592-3.723 8.314-8.315 8.314z" fill="#1f3645"/><path d="m293.662 370.652c-3.857 0-6.983-3.127-6.983-6.983v-20.618c0-3.857 3.127-6.983 6.983-6.983 3.857 0 6.983 3.127 6.983 6.983v20.618c.001 3.856-3.126 6.983-6.983 6.983z" fill="#ca245f"/><g><path d="m451.864 29.904h-117.239c-21.07 0-38.15 17.08-38.15 38.15v69.353c0 21.07 17.08 38.15 38.15 38.15h.425v20.571c0 9.637 11.626 14.492 18.48 7.717l28.617-28.288h69.717c21.07 0 38.15-17.08 38.15-38.15v-69.353c0-21.07-17.08-38.15-38.15-38.15z" fill="#efc64c"/><path d="m354.405 202.984-.88.87c-6.85 6.77-18.48 1.92-18.48-7.72v-20.57h-.42c-21.07 0-38.15-17.08-38.15-38.15v-69.36c0-21.07 17.08-38.15 38.15-38.15h16.96c-21.07 0-38.15 17.08-38.15 38.15v69.36c0 21.07 17.08 38.15 38.15 38.15h.42v20.57c0 2.72.92 5.05 2.4 6.85z" fill="#e3a12f"/><g fill="#2e4f5f"><path d="m423.84 71.673h-94.774c-5.234 0-9.477-4.243-9.477-9.477 0-5.234 4.243-9.477 9.477-9.477h94.774c5.234 0 9.477 4.243 9.477 9.477 0 5.234-4.243 9.477-9.477 9.477z"/><path d="m423.84 103.384h-94.774c-5.234 0-9.477-4.243-9.477-9.477 0-5.234 4.243-9.477 9.477-9.477h94.774c5.234 0 9.477 4.243 9.477 9.477 0 5.234-4.243 9.477-9.477 9.477z"/><path d="m394.074 134.133h-65.008c-5.234 0-9.477-4.243-9.477-9.477 0-5.234 4.243-9.477 9.477-9.477h65.008c5.234 0 9.477 4.243 9.477 9.477.001 5.234-4.243 9.477-9.477 9.477z"/></g></g><path d="m294.992 416.543h-198.849c-5.693 0-10.309-4.615-10.309-10.309 0-5.693 4.615-10.309 10.309-10.309h198.85c5.693 0 10.309 4.615 10.309 10.309-.001 5.693-4.616 10.309-10.31 10.309z" fill="#2e4f5f"/><path d="m239.126 452.457h-142.983c-5.693 0-10.309-4.615-10.309-10.309 0-5.693 4.615-10.309 10.309-10.309h142.983c5.693 0 10.309 4.615 10.309 10.309-.001 5.694-4.616 10.309-10.309 10.309z" fill="#2e4f5f"/><circle cx="118.502" cy="144.613" fill="#ca245f" r="16.716"/></g></svg>