<svg id="Capa_1" enable-background="new 0 0 512 512" height="512" viewBox="0 0 512 512" width="512" xmlns="http://www.w3.org/2000/svg"><g><circle cx="256" cy="256" fill="#9dc6fb" r="256"/><path d="m333.834 427.069h-155.668l14.857-56.864h125.954z" fill="#1f3645"/><path d="m435.205 388.495h-358.41c-34.363 0-62.22-27.857-62.22-62.22v-258.648c0-34.363 27.857-62.22 62.22-62.22h358.41c34.363 0 62.22 27.857 62.22 62.22v258.648c0 34.363-27.857 62.22-62.22 62.22z" fill="#2e4f5f"/><path d="m108.715 388.495h-31.92c-34.36 0-62.22-27.86-62.22-62.22v-258.65c0-34.36 27.86-62.22 62.22-62.22h31.92c-34.36 0-62.22 27.86-62.22 62.22v258.65c0 34.36 27.86 62.22 62.22 62.22z" fill="#1f3645"/><path d="m457.42 67.629v258.65c0 12.25-9.96 22.22-22.21 22.22h-358.42c-12.25 0-22.21-9.97-22.21-22.22v-258.65c0-12.25 9.96-22.22 22.21-22.22h358.42c12.25 0 22.21 9.97 22.21 22.22z" fill="#9ddea3"/><path d="m161.005 348.495h-84.21c-12.25 0-22.22-9.97-22.22-22.22v-258.65c0-12.25 9.97-22.22 22.22-22.22h84.21c-36.79 0-66.61 29.82-66.61 66.61v169.86c0 36.79 29.82 66.62 66.61 66.62z" fill="#88c98b"/><path d="m394.375 418.377h-276.75c-11.688 0-21.163 9.475-21.163 21.163 0 11.688 9.475 21.163 21.163 21.163h276.749c11.688 0 21.163-9.475 21.163-21.163.001-11.688-9.474-21.163-21.162-21.163z" fill="#2e4f5f"/><path d="m158.532 454.51c3.83 3.83 9.11 6.2 14.96 6.2h-55.86c-5.85 0-11.14-2.37-14.97-6.2s-6.2-9.12-6.2-14.97c0-11.68 9.48-21.16 21.17-21.16h55.86c-11.69 0-21.16 9.48-21.16 21.16 0 5.85 2.37 11.14 6.2 14.97z" fill="#1f3645"/><g fill="#eceef1"><path d="m54.575 131.881v14.774h32.034v109.942h-32.034v14.774h46.822v-139.49zm0-37.994v14.788h84.448v185.916h-84.448v14.774h99.222v-215.478z"/><path d="m457.425 146.655v-14.788h-46.808v139.504h46.808v-14.774h-32.02v-109.942zm0-37.994v-14.774h-99.222v215.464h99.222v-14.774h-84.449v-185.916z"/><path d="m263.39 114.569v-69.16h-14.78v69.16c-42.17 3.75-75.35 39.25-75.35 82.38 0 43.14 33.18 78.63 75.35 82.39v69.16h14.78v-69.16c42.17-3.76 75.35-39.25 75.35-82.39 0-43.13-33.18-78.63-75.35-82.38zm-14.78 149.94c-34.01-3.7-60.58-32.59-60.58-67.56s26.57-63.85 60.58-67.55zm14.78 0v-135.11c34.01 3.7 60.58 32.58 60.58 67.55s-26.57 63.86-60.58 67.56z"/></g><g><path d="m221.142 374.191c0 3.047 24.267 21.112 24.052 24.102-1.448 19.849-7.613 38.378-17.373 54.488-6.932 11.439-25.402 11.932-35.565 20.525-14.42 12.192-21.969 30.839-40.948 35.355-9.161 2.183-18.715 3.339-28.546 3.339s-19.385-1.156-28.546-3.339c-14.963-3.56-24.029-22.542-36.309-31.024-14.273-9.859-31.192-9.983-40.205-24.856-9.76-16.11-15.925-34.639-17.373-54.488-.214-2.989 9.651-12.988 9.651-16.035 0-30.565 10.703-42.022 19.659-73.022 12.55-14.591 28.468-26.192 46.54-33.612 14.362-5.893 30.016 0 46.505 0s32.299-5.893 46.662 0c18.072 7.42 33.99 19.021 46.54 33.612 8.159 31.795 5.256 34.39 5.256 64.955z" fill="#d6d8e8"/><path d="m140.72 508.661c1.748.414 3.517.799 5.294 1.142-7.527 1.441-15.297 2.198-23.252 2.198-9.832 0-19.385-1.156-28.546-3.339-11.237-2.673-19.389-19.802-29.191-25.33-18.423-10.389-36.379-12.49-47.323-30.55-9.76-16.11-15.925-34.639-17.373-54.488-.214-2.989 12.897-19.233 12.897-22.279 0-30.565 5.77-35.513 16.413-66.777 12.55-14.591 28.468-26.192 46.54-33.612 14.362-5.893 30.095-4.879 46.583-4.879 7.948 0 16.472.568 23.999 2.017-8.091 1.548-16.643-.191-24.078 2.862-18.072 7.42-33.99 19.021-46.54 33.612-18.472 21.483-29.638 49.437-29.638 80.002 0 3.047.114 6.065.328 9.054 1.448 19.849 7.613 38.378 17.373 54.488 16.767 27.668 44.157 48.18 76.514 55.879z" fill="#b8bede"/><path d="m223.963 363.858-4.409-13.571-89.658 29.132v-95.862h-14.269v95.862l-90.539-29.418-4.409 13.571 90.538 29.418-54.96 75.645 11.544 8.388 54.96-75.646 53.917 74.211 11.544-8.388-53.917-74.21z" fill="#a8acd3"/><path d="m113.491 334.243-38.865 28.237c-5.528 4.016-7.841 11.135-5.729 17.633l14.845 45.688c2.111 6.498 8.167 10.898 15 10.898h48.04c6.833 0 12.888-4.4 15-10.898l14.845-45.688c2.111-6.498-.202-13.617-5.729-17.633l-38.865-28.237c-5.529-4.016-13.014-4.016-18.542 0z" fill="#2e4f5f"/><g><path d="m169.344 275.624c-.478.464-.992.892-1.534 1.291l-36.373 26.427c-5.173 3.753-12.179 3.753-17.352 0l-17.723-12.878-18.65-13.549c-.542-.4-1.056-.828-1.534-1.291 14.362-5.893 30.095-9.147 46.583-9.147 7.941 0 15.704.756 23.224 2.197.007 0 .021.007.029.007 8.09 1.549 15.896 3.89 23.33 6.943z" fill="#2e4f5f"/></g><g><path d="m94.215 508.661c-32.356-7.698-59.747-28.211-76.514-55.88.963-.2 1.955-.3 2.968-.3h44.956c6.393 0 12.065 4.117 14.041 10.203l5.059 15.568 8.833 27.191c.343 1.063.564 2.141.657 3.218z" fill="#2e4f5f"/></g><path d="m93.559 505.443c.342 1.063.564 2.14.656 3.218-32.356-7.698-59.747-28.211-76.514-55.88.963-.2 1.955-.3 2.968-.3h43.358c.057.1.121.2.178.3 5.686 9.389 12.6 17.951 20.52 25.471z" fill="#1f3645"/><path d="m146.014 268.682c-8.091 1.548-15.896 3.888-23.331 6.942-9.418 3.867-18.244 8.869-26.32 14.84l-18.65-13.549c-.542-.4-1.056-.828-1.534-1.291 14.362-5.893 30.095-9.147 46.583-9.147 7.941 0 15.704.756 23.224 2.197.006.001.021.008.028.008z" fill="#1f3645"/><g><path d="m38.992 370.503-36.373 26.427c-.728.528-1.498.985-2.29 1.363-.215-2.99-.329-6.008-.329-9.054 0-30.565 11.166-58.52 29.638-80.002.321.642.592 1.313.821 2.012l13.891 42.759c1.976 6.078-.186 12.742-5.358 16.495z" fill="#1f3645"/></g><g><path d="m227.821 452.781c-16.767 27.669-44.157 48.181-76.514 55.88.093-1.077.314-2.155.656-3.218l13.892-42.759c1.976-6.086 7.648-10.203 14.041-10.203h44.956c1.014.001 2.006.1 2.969.3z" fill="#2e4f5f"/></g><g><path d="m245.523 389.239c0 3.047-.114 6.065-.328 9.054-.792-.378-1.563-.835-2.29-1.363l-36.373-26.427c-5.173-3.753-7.335-10.417-5.358-16.496l13.891-42.759c.228-.699.499-1.37.821-2.012 18.471 21.483 29.637 49.437 29.637 80.003z" fill="#2e4f5f"/></g></g><path d="m307.488 181.389-53.024-30.613c-13.99-8.077-31.478 2.019-31.478 18.174v61.227c0 16.154 17.488 26.251 31.478 18.174l53.024-30.613c13.99-8.079 13.99-28.272 0-36.349z" fill="#ca245f"/></g></svg>