<svg id="Capa_1" enable-background="new 0 0 512 512" height="512" viewBox="0 0 512 512" width="512" xmlns="http://www.w3.org/2000/svg"><g><path d="m512 256c0 53.85-16.63 103.81-45.03 145.04-6.77 9.82-14.2 19.15-22.23 27.91-19.55 21.32-42.66 39.32-68.4 53.05-35.87 19.15-76.84 6.437-120.34 6.437s-136.492-49.686-172.372-68.836c-13.87-7.4 12.2 9.74 0 0-10.44-8.33 8.99 9.83 0 0-8.05-8.76-31.848-8.741-38.598-18.561-28.4-41.23-45.03-91.19-45.03-145.04 0-141.38 114.62-256 256-256s256 114.62 256 256z" fill="#9ddea3"/><g><g><path d="m241.118 305.136h29.764v54.072h-29.764z" fill="#2e4f5f"/><path d="m241.118 305.136h14.882v54.072h-14.882z" fill="#1f3645"/><path d="m308.63 338.156h-105.261c-11.627 0-21.052 9.425-21.052 21.052l73.683 12.674 73.683-12.674c0-11.627-9.426-21.052-21.053-21.052z" fill="#2e4f5f"/><path d="m276.239 368.401-20.24 3.479-73.682-12.672c0-11.627 9.422-21.056 21.049-21.056h40.48c-11.627 0-21.049 9.43-21.049 21.056z" fill="#1f3645"/><path d="m375.865 141.561c-8.082 0-14.659 6.576-14.659 14.658v6.284h-44.604c-8.082 0-14.658 6.576-14.658 14.659 0 8.082 6.575 14.658 14.658 14.658h44.604v25.026c0 40.603-33.033 73.635-73.636 73.635h-63.144c-40.603 0-73.635-33.033-73.635-73.635v-25.026h38.906c8.083 0 14.659-6.576 14.659-14.658 0-8.083-6.575-14.659-14.659-14.659h-38.906v-6.284c0-8.083-6.575-14.658-14.659-14.658-8.082 0-14.659 6.576-14.659 14.658v60.626c0 56.768 46.184 102.952 102.952 102.952h63.144c56.768 0 102.953-46.184 102.953-102.952v-60.626c.002-8.083-6.573-14.658-14.657-14.658z" fill="#2e4f5f"/><g fill="#1f3645"><path d="m377.839 156.219c0-4.995 2.516-9.41 6.343-12.057-2.365-1.636-5.229-2.601-8.316-2.601-8.082 0-14.659 6.576-14.659 14.658v6.284h16.632z"/><path d="m377.839 216.845v-25.026h-16.632v25.026c0 40.603-33.033 73.635-73.636 73.635h16.632c40.602 0 73.636-33.032 73.636-73.635z"/><path d="m138.107 216.845v-60.626c0-4.995 2.516-9.41 6.343-12.057-2.365-1.636-5.228-2.601-8.316-2.601-8.082 0-14.659 6.576-14.659 14.658v60.626c0 56.768 46.184 102.952 102.952 102.952h16.632c-56.768 0-102.952-46.184-102.952-102.952z"/></g><path d="m342.683 75.093v143.441h-173.367v-143.441" fill="#2e4f5f"/><path d="m217.42 75.093v143.441h-48.104v-143.441" fill="#1f3645"/><g fill="#eceef1"><path d="m336.348 85.958h-160.697c-9.034 0-15.078-9.222-11.562-17.543 13.625-32.243 45.542-54.87 82.75-54.87h18.322c37.207 0 69.125 22.628 82.75 54.87 3.515 8.321-2.529 17.543-11.563 17.543z"/><path d="m354.957 120.211c0 6.779-5.495 12.274-12.274 12.274h-173.367c-6.778 0-12.274-5.495-12.274-12.274 0-6.778 5.495-12.274 12.274-12.274h173.368c6.778.001 12.273 5.496 12.273 12.274z"/><path d="m175.648 200.992h160.702c9.033 0 15.078 9.221 11.562 17.542-13.622 32.243-45.545 54.871-82.752 54.871h-18.322c-37.208 0-69.131-22.628-82.752-54.871-3.515-8.321 2.529-17.542 11.562-17.542z"/><path d="m354.957 166.738c0 6.779-5.495 12.274-12.274 12.274h-173.367c-6.778 0-12.274-5.495-12.274-12.274 0-6.778 5.495-12.274 12.274-12.274h173.368c6.778.001 12.273 5.496 12.273 12.274z"/></g><path d="m212.191 68.416c-3.517 8.32 2.528 17.542 11.562 17.542h-48.105c-9.035 0-15.079-9.222-11.562-17.542 13.628-32.246 45.548-54.872 82.755-54.872h18.322c5.077 0 10.046.419 14.891 1.235-30.685 5.113-56.091 25.79-67.863 53.637z" fill="#d9dee8"/><path d="m217.42 132.485h-48.105c-6.781 0-12.27-5.496-12.27-12.27v-.007c0-6.774 5.489-12.27 12.27-12.27h48.105c-6.781 0-12.277 5.496-12.277 12.27v.007c-.001 6.774 5.495 12.27 12.277 12.27z" fill="#d9dee8"/><path d="m280.055 272.171c-4.846.816-9.814 1.235-14.891 1.235h-18.322c-37.214 0-69.135-22.626-82.755-54.872-3.517-8.32 2.528-17.542 11.562-17.542h48.105c-9.035 0-15.079 9.222-11.562 17.542 11.763 27.848 37.177 48.524 67.863 53.637z" fill="#d9dee8"/><path d="m217.42 179.012h-48.105c-6.781 0-12.27-5.496-12.27-12.27v-.007c0-6.774 5.489-12.27 12.27-12.27h48.105c-6.781 0-12.277 5.496-12.277 12.27v.007c-.001 6.774 5.495 12.27 12.277 12.27z" fill="#d9dee8"/></g><path d="m475.22 435.6c0 42.2-34.2 76.4-76.39 76.4h-142.83c-43.5 0-84.46-10.85-120.34-30-13.87-7.4-26.99-16.04-39.19-25.78-10.44-8.33-20.22-17.46-29.21-27.29-8.05-8.76-15.48-18.07-22.23-27.89 12.61-24.82 38.39-41.83 68.14-41.83h285.66c21.09 0 40.19 8.55 54.02 22.37 5.67 5.68 10.46 12.24 14.12 19.46 5.28 10.38 8.25 22.12 8.25 34.56z" fill="#ca245f"/><path d="m93.65 435.6c0 7.14.98 14.06 2.82 20.62-19.74-15.74-37.09-34.35-51.44-55.18 12.61-24.82 38.39-41.83 68.14-41.83h56.88c-42.19 0-76.4 34.2-76.4 76.39z" fill="#b7004f"/><path d="m445.22 435.6c0 25.59-20.81 46.4-46.39 46.4h-263.17c-13.87-7.4-26.99-16.04-39.19-25.78-10.44-8.33-20.22-17.46-29.21-27.29 3.24-22.43 22.59-39.72 45.91-39.72h285.66c23.32 0 42.68 17.3 45.91 39.74.32 2.17.48 4.39.48 6.65z" fill="#b7004f"/><g fill="#eceef1"><path d="m189.952 455.39c-.018 0-.037 0-.056 0-3.688.021-7.563.036-10.922.044v-49.401c0-5.375-4.357-9.732-9.732-9.732s-9.732 4.357-9.732 9.732v59.089c0 4.741 3.416 8.792 8.09 9.592.695.119 1.133.194 7.833.194 3.197 0 7.819-.017 14.573-.054 5.375-.03 9.707-4.411 9.678-9.786-.031-5.357-4.382-9.678-9.732-9.678z"/><path d="m219.896 396.301c-5.375 0-9.732 4.357-9.732 9.732v59.138c0 5.375 4.357 9.732 9.732 9.732s9.732-4.357 9.732-9.732v-59.138c0-5.374-4.358-9.732-9.732-9.732z"/><path d="m342.756 455.44h-14.959v-9.835h13.138c5.375 0 9.732-4.357 9.732-9.732s-4.357-9.732-9.732-9.732h-13.138v-9.835h14.959c5.375 0 9.732-4.357 9.732-9.732s-4.357-9.732-9.732-9.732h-24.691c-5.375 0-9.732 4.357-9.732 9.732v58.599c0 5.375 4.357 9.732 9.732 9.732h24.691c5.375 0 9.732-4.357 9.732-9.732 0-5.376-4.357-9.733-9.732-9.733z"/><path d="m293.073 396.906c-5.102-1.696-10.61 1.067-12.304 6.167l-11.512 34.653-12.109-34.885c-1.763-5.078-7.31-7.766-12.386-6.002-5.078 1.762-7.765 7.308-6.003 12.385l20.243 58.314c1.566 4.413 5.751 7.365 10.428 7.365h.074c4.707-.031 8.888-3.047 10.426-7.569l19.309-58.125c1.697-5.1-1.064-10.609-6.166-12.303z"/></g></g></g></svg>