<svg id="Capa_1" enable-background="new 0 0 512 512" height="512" viewBox="0 0 512 512" width="512" xmlns="http://www.w3.org/2000/svg"><g><path d="m512 256c0 81.16-37.77 153.5-96.69 200.4-11.43 9.1-23.66 17.24-36.56 24.3-36.45 19.95-78.27 31.3-122.75 31.3-44.47 0-86.29-11.34-122.73-31.29-.01 0-.01-.01-.02-.01-6.45-3.53 1.85-21.913-4.248-25.968-6.099-4.055-26.597 6.218-32.312 1.668-58.92-46.9-96.69-119.24-96.69-200.4 0-141.38 114.62-256 256-256s256 114.62 256 256z" fill="#efc64c"/><path d="m333.834 447.071h-155.668l14.857-56.865h125.954z" fill="#1f3645"/><path d="m435.205 408.496h-358.41c-34.363 0-62.22-27.857-62.22-62.22v-258.648c0-34.363 27.857-62.22 62.22-62.22h358.41c34.363 0 62.22 27.857 62.22 62.22v258.648c0 34.363-27.857 62.22-62.22 62.22z" fill="#2e4f5f"/><path d="m108.715 408.496h-31.92c-34.36 0-62.22-27.86-62.22-62.22v-258.65c0-34.36 27.86-62.22 62.22-62.22h31.92c-34.36 0-62.22 27.86-62.22 62.22v258.65c0 34.36 27.86 62.22 62.22 62.22z" fill="#1f3645"/><path d="m76.795 368.496c-12.252 0-22.22-9.968-22.22-22.219v-258.649c0-12.252 9.968-22.219 22.22-22.219h358.41c12.252 0 22.22 9.968 22.22 22.219v258.648c0 12.252-9.968 22.219-22.22 22.219h-358.41z" fill="#9ddea3"/><path d="m161.005 368.496h-84.21c-12.25 0-22.22-9.97-22.22-22.22v-258.65c0-12.25 9.97-22.22 22.22-22.22h84.21c-36.79 0-66.61 29.82-66.61 66.61v169.86c0 36.79 29.82 66.62 66.61 66.62z" fill="#88c98b"/><path d="m415.54 459.54c0 11.69-9.48 21.16-21.17 21.16h-261.12c-12.9-7.06-25.13-15.2-36.56-24.3 1.52-10.2 10.32-18.02 20.94-18.02h276.74c5.85 0 11.14 2.37 14.97 6.2 3.13 3.12 5.28 7.23 5.97 11.82.15 1.02.23 2.07.23 3.14z" fill="#2e4f5f"/><path d="m158.53 474.51c3.83 3.83 9.11 6.2 14.96 6.2h-40.22c-12.91-7.06-25.14-15.21-36.58-24.31 1.52-10.19 10.32-18.02 20.94-18.02h55.86c-11.69 0-21.16 9.48-21.16 21.16 0 5.85 2.37 11.14 6.2 14.97z" fill="#1f3645"/><g fill="#ca245f"><path d="m316.836 131.864c-.014 0-.029 0-.043 0-2.842.016-5.828.028-8.417.034v-38.07c0-4.142-3.358-7.5-7.5-7.5s-7.5 3.358-7.5 7.5v45.537c0 3.654 2.633 6.776 6.234 7.392.536.092.874.15 6.036.15 2.463 0 6.025-.013 11.23-.042 4.142-.023 7.481-3.4 7.458-7.542-.022-4.128-3.376-7.459-7.498-7.459z"/><path d="m339.912 86.328c-4.142 0-7.5 3.358-7.5 7.5v45.575c0 4.142 3.358 7.5 7.5 7.5s7.5-3.358 7.5-7.5v-45.575c0-4.142-3.358-7.5-7.5-7.5z"/><path d="m434.594 131.903h-11.528v-7.58h10.125c4.142 0 7.5-3.358 7.5-7.5s-3.358-7.5-7.5-7.5h-10.125v-7.579h11.528c4.142 0 7.5-3.358 7.5-7.5s-3.358-7.5-7.5-7.5h-19.028c-4.142 0-7.5 3.358-7.5 7.5v45.159c0 4.142 3.358 7.5 7.5 7.5h19.028c4.142 0 7.5-3.358 7.5-7.5s-3.358-7.5-7.5-7.5z"/><path d="m396.306 86.794c-3.932-1.307-8.176.822-9.482 4.753l-8.872 26.705-9.332-26.884c-1.359-3.913-5.634-5.985-9.545-4.626-3.913 1.358-5.984 5.632-4.626 9.545l15.6 44.94c1.207 3.401 4.432 5.676 8.037 5.676h.057c3.627-.024 6.85-2.348 8.035-5.833l14.881-44.794c1.306-3.931-.822-8.177-4.753-9.482z"/></g><g><g fill="#eceef1"><path d="m132.6 244.76c-2.32 13.02-15.34 22.84-30.27 22.84-2.67 0-5.33-.24-7.93-.71-9.48-1.68-18.26-6.34-24.43-13.15-2.78-3.07-2.55-7.81.52-10.59s7.82-2.55 10.6.52c3.4 3.75 8.1 6.49 13.31 7.88 2.55.69 5.23 1.05 7.93 1.05 8.53 0 14.59-5.33 15.51-10.48.91-5.13-3.25-9.8-11.43-12.82-4.3-1.59-8.46-3.23-12.01-4.67-4.19-1.71-7.55-3.16-9.33-3.93-2.03-.89-3.82-2.01-5.32-3.35-6.01-5.39-8.64-13.72-6.86-21.75 1.94-8.72 8.59-15.59 17.8-18.36 1.25-.38 2.49-.67 3.71-.9 18.22-3.45 32.7 8.5 33.35 9.04 3.17 2.66 3.58 7.39.91 10.56-2.65 3.16-7.36 3.58-10.53.94-.21-.17-11.11-8.89-23.11-5.28-.21.06-.42.13-.62.2-3.66 1.29-6.15 3.83-6.87 7.06-.61 2.78.22 5.51 2.23 7.31.3.27.75.54 1.3.78.8.35 1.94.84 3.34 1.44 4.11 1.74 10.47 4.36 17.2 6.84 18.17 6.7 22.77 19.65 21 29.53z"/><path d="m436.47 175.713h-42.464c-4.142 0-7.5 3.358-7.5 7.5s3.358 7.5 7.5 7.5h13.646v69.392c0 4.142 3.358 7.5 7.5 7.5s7.5-3.358 7.5-7.5v-69.392h13.818c4.142 0 7.5-3.358 7.5-7.5s-3.358-7.5-7.5-7.5z"/><path d="m378.459 203.196c0-15.154-12.836-27.483-28.614-27.483h-20.433c-1.993 0-3.905.793-5.312 2.205s-2.194 3.326-2.188 5.319l-.025 76.867c0 4.142 3.358 7.5 7.5 7.5s7.5-3.358 7.5-7.5v-27.361l28.442 32.316c1.482 1.685 3.552 2.545 5.633 2.545 1.76 0 3.527-.616 4.952-1.87 3.109-2.737 3.412-7.476.675-10.585l-21.892-24.874c13.474-2.22 23.762-13.514 23.762-27.079zm-28.614 12.484c-2.959 0-8.347.024-12.834.047-.023-4.406-.062-20.408-.076-25.014h12.91c7.38 0 13.614 5.717 13.614 12.483s-6.234 12.484-13.614 12.484z"/><path d="m177.575 175.713h-21.41c-4.142 0-7.5 3.358-7.5 7.5v76.892c0 4.142 3.358 7.5 7.5 7.5s7.5-3.358 7.5-7.5v-25.941c4.804-.026 10.726-.053 13.91-.053 16.335 0 29.624-13.099 29.624-29.199s-13.289-29.199-29.624-29.199zm0 43.398c-3.184 0-9.097.028-13.91.053v-28.451h13.91c7.927 0 14.624 6.502 14.624 14.199s-6.697 14.199-14.624 14.199z"/><path d="m258.821 175.713c-25.335 0-45.946 20.611-45.946 45.946s20.611 45.946 45.946 45.946c25.334 0 45.946-20.611 45.946-45.946s-20.612-45.946-45.946-45.946zm0 76.892c-17.064 0-30.946-13.882-30.946-30.946s13.882-30.946 30.946-30.946c17.063 0 30.946 13.882 30.946 30.946s-13.883 30.946-30.946 30.946z"/></g><path d="m87.53 198.86c-.61 2.78.22 5.51 2.23 7.31.3.27.75.54 1.3.78.8.35 1.94.84 3.34 1.44v16.24c-4.19-1.71-7.55-3.16-9.33-3.93-2.03-.89-3.82-2.01-5.32-3.35-6.01-5.39-8.64-13.72-6.86-21.75 1.94-8.72 8.59-15.59 17.8-18.36 1.25-.38 2.49-.67 3.71-.9v15.46c-3.66 1.29-6.15 3.83-6.87 7.06z" fill="#d9dee8"/><path d="m94.4 251.55v15.34c-9.48-1.68-18.26-6.34-24.43-13.15-2.78-3.07-2.55-7.81.52-10.59s7.82-2.55 10.6.52c3.4 3.75 8.1 6.49 13.31 7.88z" fill="#d9dee8"/></g><path d="m262.253 294.122 3.135 6.353c1.016 2.058 2.979 3.485 5.25 3.815l7.011 1.019c5.72.831 8.003 7.86 3.865 11.894l-5.073 4.945c-1.643 1.602-2.393 3.91-2.005 6.172l1.198 6.983c.977 5.696-5.002 10.04-10.118 7.351l-6.271-3.297c-2.031-1.068-4.458-1.068-6.49 0l-6.271 3.297c-5.116 2.689-11.095-1.655-10.118-7.351l1.198-6.983c.388-2.262-.362-4.57-2.005-6.172l-5.073-4.945c-4.139-4.034-1.855-11.063 3.865-11.894l7.011-1.019c2.271-.33 4.235-1.757 5.25-3.815l3.136-6.353c2.557-5.182 9.947-5.182 12.505 0z" fill="#9dc6fb"/></g></svg>