<svg id="Capa_1" enable-background="new 0 0 512 512" height="512" viewBox="0 0 512 512" width="512" xmlns="http://www.w3.org/2000/svg"><g><circle cx="256" cy="256" fill="#efc64c" r="256"/><g><path d="m342.589 369.412c0 2.681 21.358 18.582 21.17 21.213-1.275 17.47-6.7 33.778-15.291 47.957-6.101 10.068-22.357 10.502-31.302 18.065-12.692 10.731-19.336 27.143-36.04 31.117-8.063 1.922-16.471 2.939-25.125 2.939-8.653 0-17.062-1.017-25.125-2.939-13.17-3.133-21.149-19.84-31.957-27.305-12.563-8.677-27.453-8.786-35.386-21.877-8.59-14.179-14.016-30.488-15.291-47.957-.188-2.631 8.494-11.431 8.494-14.113 0-26.902 9.421-36.985 17.302-64.269 11.046-12.842 25.056-23.053 40.962-29.583 12.641-5.187 26.418 0 40.931 0s28.428-5.187 41.069 0c15.906 6.531 29.916 16.741 40.962 29.583 7.182 27.983 4.627 30.267 4.627 57.169z" fill="#d6d8e8"/><path d="m271.806 487.765c1.538.364 3.096.703 4.659 1.005-6.625 1.268-13.463 1.934-20.465 1.934-8.653 0-17.062-1.017-25.125-2.939-9.89-2.353-17.065-17.429-25.692-22.294-16.215-9.144-32.018-10.993-41.651-26.888-8.59-14.179-14.016-30.488-15.291-47.957-.188-2.631 11.351-16.928 11.351-19.609 0-26.902 5.078-31.257 14.445-58.773 11.046-12.842 25.056-23.053 40.962-29.583 12.641-5.187 26.487-4.294 41-4.294 6.996 0 14.498.5 21.123 1.775-7.121 1.363-14.648-.168-21.192 2.519-15.906 6.531-29.916 16.741-40.962 29.583-16.258 18.908-26.086 43.511-26.086 70.413 0 2.681.101 5.338.289 7.969 1.275 17.47 6.7 33.778 15.291 47.957 14.758 24.352 38.866 42.406 67.344 49.182z" fill="#b8bede"/><path d="m345.072 360.318-3.881-11.945-78.911 25.64v-84.371h-12.56v84.371l-79.686-25.891-3.88 11.944 79.686 25.892-48.373 66.578 10.16 7.383 48.373-66.579 47.455 65.315 10.16-7.382-47.455-65.315z" fill="#a8acd3"/><path d="m247.841 334.252-34.206 24.852c-4.865 3.535-6.901 9.8-5.043 15.52l13.066 40.212c1.858 5.719 7.188 9.592 13.202 9.592h42.282c6.014 0 11.343-3.872 13.202-9.592l13.066-40.212c1.858-5.719-.177-11.985-5.043-15.52l-34.206-24.852c-4.867-3.535-11.455-3.535-16.32 0z" fill="#2e4f5f"/><g><path d="m297 282.66c-.421.408-.873.785-1.35 1.137l-32.014 23.26c-4.553 3.303-10.719 3.303-15.272 0l-15.599-11.335-16.415-11.925c-.477-.352-.929-.728-1.35-1.137 12.641-5.187 26.487-8.05 41-8.05 6.989 0 13.821.666 20.44 1.934.006 0 .019.006.025.006 7.121 1.362 13.991 3.422 20.535 6.11z" fill="#2e4f5f"/></g><g><path d="m230.875 487.765c-28.478-6.776-52.586-24.83-67.343-49.182.848-.176 1.721-.264 2.612-.264h39.568c5.627 0 10.619 3.623 12.358 8.98l4.452 13.702 7.774 23.932c.303.935.498 1.883.579 2.832z" fill="#2e4f5f"/></g><path d="m230.298 484.932c.301.936.496 1.884.578 2.832-28.478-6.776-52.586-24.83-67.343-49.182.848-.176 1.721-.264 2.612-.264h38.161c.05.088.107.176.157.264 5.005 8.264 11.09 15.8 18.06 22.418z" fill="#1f3645"/><path d="m276.465 276.549c-7.121 1.363-13.991 3.422-20.534 6.11-8.289 3.404-16.057 7.806-23.166 13.062l-16.415-11.925c-.477-.352-.929-.728-1.35-1.137 12.641-5.187 26.487-8.05 41-8.05 6.989 0 13.821.666 20.44 1.934.007 0 .019.006.025.006z" fill="#1f3645"/><g><path d="m182.271 366.166-32.014 23.26c-.64.465-1.319.867-2.016 1.199-.188-2.631-.289-5.287-.289-7.969 0-26.902 9.828-51.505 26.086-70.413.283.565.521 1.155.722 1.771l12.226 37.634c1.74 5.35-.162 11.215-4.715 14.518z" fill="#1f3645"/></g><g><path d="m348.467 438.583c-14.757 24.352-38.865 42.406-67.343 49.182.082-.948.276-1.896.578-2.832l12.226-37.634c1.739-5.357 6.732-8.98 12.358-8.98h39.568c.893 0 1.766.088 2.613.264z" fill="#2e4f5f"/></g><g><path d="m364.047 382.656c0 2.681-.1 5.338-.289 7.969-.697-.333-1.375-.735-2.016-1.199l-32.014-23.26c-4.553-3.303-6.455-9.168-4.716-14.518l12.226-37.634c.201-.615.44-1.206.722-1.771 16.26 18.908 26.087 43.511 26.087 70.413z" fill="#2e4f5f"/></g></g><g fill="#2e4f5f"><path d="m481.812 156.844c-124.513-124.513-327.111-124.513-451.624 0l-30.188-30.188c141.159-141.159 370.841-141.159 512 0z"/><path d="m426.977 211.679c-94.277-94.277-247.677-94.277-341.953 0l-30.188-30.188c110.922-110.923 291.407-110.923 402.33 0z"/><path d="m372.142 266.515c-30.967-30.967-72.213-48.02-116.142-48.02s-85.175 17.054-116.142 48.02l-30.188-30.188c80.686-80.686 211.973-80.686 292.659 0z"/></g></g></svg>