<svg id="Capa_1" enable-background="new 0 0 512 512" height="512" viewBox="0 0 512 512" width="512" xmlns="http://www.w3.org/2000/svg"><g><path d="m512 256c0 88.59-45 166.67-113.39 212.63-40.76 27.38-89.82-7.882-142.61-7.882-24.1 0-47.43-3.33-69.55-9.56-33.71-9.49-28.372 1.467-54.902-19.943-10.16-8.2-19.67-17.16-28.46-26.8-13.53-14.82-61.548-7.165-71.328-24.855-20.24-36.64-31.76-78.77-31.76-123.59 0-141.38 114.62-256 256-256s256 114.62 256 256z" fill="#bed8fb"/><g><path d="m398.61 377.03v91.6c-40.76 27.38-89.82 43.37-142.61 43.37-60.85 0-116.74-21.23-160.67-56.69v-78.28z" fill="#ffcbbe"/><path d="m223.65 438.53c0 27.39-14.98 51.27-37.2 63.91-33.71-9.49-64.59-25.72-91.12-47.13-25.78-20.82-47.44-46.53-63.57-75.72v-112.84c0-13.75 5.57-26.19 14.58-35.2 9-9.01 21.45-14.58 35.2-14.58 27.49 0 49.77 22.29 49.77 49.78v100.77c6.02-1.6 12.35-2.46 18.87-2.46 40.58 0 73.47 32.89 73.47 73.47z" fill="#ffddce"/><path d="m99.09 220.16c-18.83 7.09-32.22 25.27-32.22 46.59v161.76c-13.53-14.82-25.33-31.23-35.11-48.92v-112.84c0-27.49 22.29-49.78 49.77-49.78 6.19 0 12.11 1.12 17.56 3.19z" fill="#ffcbbe"/><path d="m392.685 404.445v-349.725c0-30.221-24.499-54.72-54.72-54.72h-180.158c-30.221 0-54.72 24.499-54.72 54.72v349.725c0 30.221 24.499 54.72 54.72 54.72h180.158c30.221 0 54.72-24.499 54.72-54.72z" fill="#2e4f5f"/><path d="m364.46 54.72v349.73c0 14.61-11.89 26.49-26.5 26.49h-99.72l-61.442-18.998c-14.61 0-28.088 4.218-28.088-10.392l-17.4-346.83c0-14.61 11.88-26.49 26.49-26.49l41.285 42.864c.56 14.33 12.37 25.79 26.85 25.79h64.51c11.42 0 10.875-49.994 14.755-60.034 1.04-2.69 1.66-5.59 1.78-8.62h30.98c14.61 0 26.5 11.88 26.5 26.49z" fill="#9dc6fb"/><g><path d="m238.24 430.94h-80.44c-14.61 0-26.49-11.88-26.49-26.49v-16.59l9.567-32.873c7.46.79 5.363-.647 12.773 1.483 3.68 1.06 7.35 2.28 11 3.68 3.64 1.4 7.19 2.95 10.64 4.63 14.43 7.05 27.08 16.48 37.64 27.65 10.7 11.3 19.24 24.37 25.31 38.51z" fill="#eceef1"/><path d="m221.36 317.22-24.14 62.77c-7.44 19.34-29.17 29-48.51 21.56-4.73-1.82-8.91-4.51-12.37-7.8-1.89-1.8-3.57-3.77-5.03-5.89v-45.58l20-52z" fill="#ffddce"/><path d="m296.17 224.581 41.734 16.05c18.192 6.997 27.268 27.416 20.272 45.609-11.189 29.092-43.843 43.606-72.935 32.418l-43.818-16.852" fill="#ffddce"/><path d="m221.349 216.191 109.725 42.199c8.371 3.219 12.562 12.649 9.343 21.02-7.405 19.254-29.093 28.894-48.347 21.489l-75.907-29.193" fill="#ffcbbe"/><path d="m221.36 317.22-24.01 62.41c-12.46-.2-25.09-2.56-37.4-7.3-4.54-1.74-8.9-3.76-13.06-6.02l-10.55 27.43c-1.89-1.8-3.57-3.771-5.03-5.89v-51.33l20-46.24 21.62 8.31v.01z" fill="#ffcbbe"/><path d="m335.91 219.65-28.89 75.12c-16.72 43.49-58.19 70.17-102.16 70.17-13.05 0-26.33-2.35-39.25-7.32-13.03-5.01-24.55-12.24-34.3-21.1v-194.54l.34-.88c21.69-56.41 68.53-41.72 124.94-20.03 56.4 21.69 101.01 42.18 79.32 98.58z" fill="#ffddce"/><g fill="#ffcbbe"><path d="m155.53 236.5c-18.18 47.29-1.35 99.43 37.8 127.82-9.28-.99-18.59-3.19-27.72-6.7-13.03-5.01-24.55-12.24-34.3-21.1v-194.54l.34-.88c7.98-20.73 20.97-36.07 37.02-46.1l50.51 19.42c-15.14 11.81-27.37 27.75-34.76 46.97z"/><path d="m202.772 261.006c-5.847-2.249-8.764-8.811-6.515-14.658l38.489-100.08 21.174 8.143-38.489 100.08c-2.249 5.847-8.812 8.764-14.659 6.515z"/><path d="m214.502 305.3c-17.802-3.097-34.828-9.645-50.117-19.275-4.572-2.879-5.772-9.014-2.571-13.366.037-.05.074-.101.111-.151 2.866-3.896 8.262-4.957 12.353-2.376 13.274 8.375 28.064 14.064 43.53 16.741 4.766.825 8.061 5.228 7.578 10.041-.006.062-.012.124-.019.186-.54 5.377-5.542 9.126-10.865 8.2z"/></g><path d="m364.46 69.1v98.87c-13.92 15.45-36.43 21.55-57 13.64l-65.19-25.07c-25.88-9.96-39.17-38.42-30.58-64.46l16.28-38.06h52.17c11.42 0 21.18-7.13 25.06-17.17l10.68 1.34c20.69 2.6 38.15 14.39 48.58 30.91z" fill="#5e54ac"/><path d="m185.44 84.61-21.55 56.01c-4.57 11.89-15.91 19.2-27.93 19.2-1.54 0-3.1-.12-4.65-.38v-17.46l26.2-68.11z" fill="#453d81"/><path d="m333.838 141.681 27.93 10.741-32.285 83.947c-15.425-5.932-23.121-23.246-17.188-38.671z" fill="#5e54ac"/><path d="m237.62 54.02-20.94 47.78c-4.15 10.79-12.29 18.9-22.08 23.26-9.8 4.35-21.26 4.97-32.07.81-21.59-8.3-32.36-32.55-24.05-54.14l5.4-12.34c5.59-12.74 14.16-23.29 24.55-31.16h20.35c.56 14.33 12.37 25.79 26.85 25.79z" fill="#453d81"/><g><circle cx="185.507" cy="180.867" fill="#fff" r="29.217"/><path d="m183.181 209.989c-2.725-.218-5.476-.825-8.165-1.859-15.053-5.789-22.573-22.685-16.779-37.75s22.698-22.568 37.75-16.779c2.688 1.034 5.137 2.427 7.306 4.091-12.577-1.023-24.838 6.256-29.598 18.633-4.759 12.377-.535 25.996 9.486 33.664z" fill="#eceef1"/><circle cx="185.507" cy="180.867" fill="#1f3645" r="10.542"/><circle cx="269.286" cy="213.087" fill="#fff" r="29.217"/><path d="m266.959 242.209c-2.725-.218-5.476-.825-8.165-1.859-15.053-5.789-22.573-22.685-16.779-37.75s22.698-22.568 37.75-16.779c2.688 1.034 5.137 2.427 7.306 4.091-12.577-1.023-24.838 6.256-29.598 18.633s-.535 25.996 9.486 33.664z" fill="#eceef1"/><circle cx="269.286" cy="213.087" fill="#1f3645" r="10.542"/></g></g><path d="m279.798 29.156c0-3.888-3.151-7.039-7.039-7.039h-49.743c-3.888 0-7.039 3.152-7.039 7.039 0 3.888 3.152 7.039 7.039 7.039h49.743c3.888 0 7.039-3.152 7.039-7.039z" fill="#1f3645"/><g><path d="m405.955 256.82 36.694-36.694c18.143-18.143 18.143-47.558 0-65.701-18.143-18.143-47.558-18.143-65.701 0l-36.694 36.694c-18.143 18.143-18.143 47.558 0 65.701 18.143 18.143 47.558 18.143 65.701 0z" fill="#ffddce"/><path d="m442.65 154.426c4.267 4.267 7.528 9.147 9.783 14.368-5.879-2.55-12.181-3.828-18.483-3.821-11.894 0-23.78 4.532-32.851 13.603l-36.695 36.695c-13.876 13.876-17.137 34.357-9.783 51.335-5.221-2.254-10.101-5.515-14.368-9.782-18.143-18.143-18.143-47.559 0-65.702l36.695-36.695c9.072-9.072 20.958-13.604 32.851-13.603 11.886-.01 23.779 4.53 32.851 13.602z" fill="#ffcbbe"/></g><g><path d="m405.955 339.336 36.694-36.694c18.143-18.143 18.143-47.558 0-65.701-18.143-18.143-47.558-18.143-65.701 0l-36.694 36.694c-18.143 18.143-18.143 47.558 0 65.701 18.143 18.143 47.558 18.143 65.701 0z" fill="#ffddce"/><path d="m442.65 236.941c4.267 4.267 7.528 9.147 9.783 14.368-5.879-2.55-12.181-3.828-18.483-3.821-11.894 0-23.78 4.532-32.851 13.603l-36.695 36.695c-13.876 13.876-17.137 34.357-9.783 51.335-5.221-2.254-10.101-5.515-14.368-9.783-18.143-18.143-18.143-47.559 0-65.702l36.695-36.695c9.072-9.072 20.958-13.604 32.851-13.603 11.886-.008 23.779 4.532 32.851 13.603z" fill="#ffcbbe"/></g><g><path d="m405.955 424.731 36.694-36.694c18.143-18.143 18.143-47.558 0-65.701-18.143-18.143-47.558-18.143-65.701 0l-36.694 36.694c-18.143 18.143-18.143 47.558 0 65.701 18.143 18.143 47.558 18.143 65.701 0z" fill="#ffddce"/><path d="m442.65 322.336c4.267 4.267 7.528 9.147 9.783 14.368-5.879-2.55-12.181-3.828-18.483-3.821-11.894 0-23.78 4.532-32.851 13.603l-36.695 36.695c-13.876 13.876-17.137 34.357-9.783 51.335-5.221-2.254-10.101-5.515-14.368-9.783-18.143-18.143-18.143-47.559 0-65.702l36.695-36.695c9.072-9.072 20.958-13.604 32.851-13.603 11.886-.008 23.779 4.532 32.851 13.603z" fill="#ffcbbe"/></g></g><circle cx="271.25" cy="28.192" fill="#ca245f" r="12.973"/><g><path d="m38.15 0h117.239c21.07 0 38.15 17.08 38.15 38.15v69.353c0 21.07-17.08 38.15-38.15 38.15h-.425v20.571c0 9.637-11.626 14.492-18.48 7.717l-28.617-28.288h-69.717c-21.07 0-38.15-17.08-38.15-38.15v-69.353c0-21.07 17.08-38.15 38.15-38.15z" fill="#efc64c"/><path d="m19.83 38.153v69.35c0 21.07 17.08 38.15 38.15 38.15h-19.83c-21.07 0-38.15-17.08-38.15-38.15v-69.35c0-21.07 17.08-38.15 38.15-38.15h19.83c-21.07 0-38.15 17.08-38.15 38.15z" fill="#e3a12f"/><path d="m153.7 171.363c-3.18 5.97-11.73 8.01-17.22 2.58l-28.61-28.29h19.82z" fill="#e3a12f"/><g fill="#2e4f5f"><path d="m130.946 41.769h-94.774c-5.234 0-9.477-4.243-9.477-9.477 0-5.234 4.243-9.477 9.477-9.477h94.774c5.234 0 9.477 4.243 9.477 9.477.001 5.234-4.242 9.477-9.477 9.477z"/><path d="m130.946 73.48h-94.774c-5.234 0-9.477-4.243-9.477-9.477 0-5.234 4.243-9.477 9.477-9.477h94.774c5.234 0 9.477 4.243 9.477 9.477.001 5.234-4.242 9.477-9.477 9.477z"/><path d="m101.181 104.229h-65.009c-5.234 0-9.477-4.243-9.477-9.477 0-5.234 4.243-9.477 9.477-9.477h65.008c5.234 0 9.477 4.243 9.477 9.477.001 5.234-4.242 9.477-9.476 9.477z"/></g></g></g></svg>