<svg id="Capa_1" enable-background="new 0 0 512 512" height="512" viewBox="0 0 512 512" width="512" xmlns="http://www.w3.org/2000/svg"><g><path d="m512 256c0 65.07-24.28 124.47-64.27 169.63-5.704 6.443-14.935 3.206-21.253 9.042-4.702 4.344-6.359 17.902-11.378 21.888-43.689 34.71-98.969 55.44-159.099 55.44-141.38 0-256-114.62-256-256s114.62-256 256-256 256 114.62 256 256z" fill="#9ddea3"/><g fill="#1f3645"><path d="m84.152 456.555c8.699 0 16.472-5.433 19.461-13.602l20.369-55.674h-56.229l-4.238 46.681c-1.102 12.134 8.453 22.595 20.637 22.595z"/><path d="m447.73 425.63c-9.95 11.24-20.87 21.59-32.63 30.93h-1.74l-25.34-69.28h56.23z"/></g><path d="m435.205 408.496h-358.41c-34.363 0-62.22-27.857-62.22-62.22v-258.648c0-34.363 27.857-62.22 62.22-62.22h358.41c34.363 0 62.22 27.857 62.22 62.22v258.648c0 34.363-27.857 62.22-62.22 62.22z" fill="#2e4f5f"/><path d="m108.715 408.496h-31.92c-34.36 0-62.22-27.86-62.22-62.22v-258.65c0-34.36 27.86-62.22 62.22-62.22h31.92c-34.36 0-62.22 27.86-62.22 62.22v258.65c0 34.36 27.86 62.22 62.22 62.22z" fill="#1f3645"/><path d="m76.795 368.496c-12.252 0-22.22-9.968-22.22-22.219v-258.649c0-12.252 9.968-22.219 22.22-22.219h358.41c12.252 0 22.22 9.968 22.22 22.219v258.648c0 12.252-9.968 22.219-22.22 22.219h-358.41z" fill="#eceef1"/><path d="m161.005 368.496h-84.21c-12.25 0-22.22-9.97-22.22-22.22v-258.65c0-12.25 9.97-22.22 22.22-22.22h84.21c-36.79 0-66.61 29.82-66.61 66.61v169.86c0 36.79 29.82 66.62 66.61 66.62z" fill="#d6d8e8"/><path d="m298.005 198.779-53.024-30.613c-13.99-8.077-31.478 2.019-31.478 18.174v61.227c0 16.154 17.488 26.251 31.478 18.174l53.024-30.613c13.99-8.079 13.99-28.272 0-36.349z" fill="#ca245f"/><g><circle cx="399.872" cy="103.843" fill="#efc64c" r="103.491"/><path d="m406.862 207.097c-2.31.162-4.64.239-6.988.239-57.154 0-103.493-46.329-103.493-103.493 0-57.154 46.338-103.493 103.493-103.493 2.348 0 4.678.076 6.988.239-53.899 3.58-96.514 48.448-96.514 103.254-.001 54.816 42.615 99.674 96.514 103.254z" fill="#e3a12f"/><circle cx="399.872" cy="103.843" fill="#e3a12f" r="75.262"/><path d="m475.134 103.843c0 41.565-33.699 75.264-75.264 75.264-1.919 0-3.819-.076-5.709-.21 38.892-2.921 69.546-35.408 69.546-75.054s-30.654-72.133-69.546-75.054c1.89-.134 3.79-.21 5.709-.21 41.566 0 75.264 33.699 75.264 75.264z" fill="#de8635"/><path d="m400.973 94.236c-7.396-2.615-16.018-5.249-20.055-9.286-.544-.544-1.48-2.944-1.061-5.168.222-1.181 1.255-5.127 5.208-6.317 8.096-2.437 13.349 1.663 13.92 2.14 1.927 1.602 4.291 2.321 6.613 2.222h10.575v-5.967h-2.023c1.584-3.822.587-8.384-2.761-11.169-3.17-2.636-7.571-5.012-12.782-6.322v-2.255l.756-9.699h-10.455c-5.357 0-9.698 4.342-9.698 9.699v2.868c-9.456 2.957-16.5 11.055-18.413 21.208-1.786 9.474 1.337 18.679 8.15 24.023 6.683 5.241 16.235 9.015 25.562 12.312 7.117 2.516 7.329 7.958 6.822 10.978-.854 5.078-5.127 10.566-12.491 10.615-4.881.038-10.367-5.714-10.367-5.714h-10.633c-3.23-.065-6.42 1.475-8.319 4.378-2.932 4.482-1.676 10.493 2.806 13.426 6.418 4.198 11.251 6.063 16.883 6.829v2.536c0 5.356 4.342 9.699 9.698 9.699h10.455l-.756-13.251c12.236-3.865 20.061-14.654 21.852-25.302 2.429-14.451-5.402-27.504-19.486-32.483z" fill="#de8635"/><path d="m411.428 94.236c-7.396-2.615-16.018-5.249-20.055-9.286-.544-.544-1.48-2.944-1.061-5.168.222-1.181 1.255-5.126 5.208-6.317 8.096-2.437 13.349 1.663 13.92 2.14 4.118 3.424 10.234 2.863 13.659-1.255 3.425-4.119 2.863-10.233-1.255-13.659-3.17-2.636-7.571-5.012-12.782-6.322v-2.255c0-5.356-4.342-9.699-9.699-9.699s-9.698 4.342-9.698 9.699v2.868c-9.455 2.958-16.5 11.055-18.413 21.209-1.786 9.474 1.337 18.679 8.15 24.023 6.683 5.241 16.235 9.015 25.562 12.312 7.117 2.516 7.329 7.958 6.822 10.978-.854 5.078-5.127 10.566-12.491 10.615-7.78.061-10.019-.299-15.893-4.143-4.483-2.933-10.494-1.676-13.426 2.807-2.932 4.482-1.676 10.493 2.806 13.426 6.418 4.198 11.251 6.063 16.883 6.829v2.536c0 5.356 4.342 9.699 9.698 9.699 5.357 0 9.699-4.342 9.699-9.699v-3.553c12.236-3.865 20.062-14.654 21.852-25.302 2.429-14.451-5.402-27.504-19.486-32.483z" fill="#efc64c"/></g><g><path d="m396.332 338.638h-280.664c-4.591 0-8.314-3.722-8.314-8.314 0-4.591 3.722-8.314 8.314-8.314h280.665c4.591 0 8.314 3.722 8.314 8.314-.001 4.592-3.723 8.314-8.315 8.314z" fill="#1f3645"/><path d="m129.801 346.619c-3.857 0-6.983-3.127-6.983-6.983v-20.618c0-3.857 3.127-6.983 6.983-6.983 3.857 0 6.983 3.127 6.983 6.983v20.618c0 3.856-3.127 6.983-6.983 6.983z" fill="#ca245f"/></g></g></svg>