<svg id="Capa_1" enable-background="new 0 0 512 512" height="512" viewBox="0 0 512 512" width="512" xmlns="http://www.w3.org/2000/svg"><g><path d="m512 256c0 29.93-5.14 58.67-14.58 85.37-11.4 32.23-41.534 44.8-64.004 69.63-.82.91-1.65 1.81-2.49 2.71-10.97 11.79-10.586 39.25-23.606 48.79-42.39 31.12-94.71 49.5-151.32 49.5-73.99 0-140.66-31.4-187.4-81.59-23.66-25.41-42.21-55.64-54.02-89.06-9.44-26.69-14.58-55.42-14.58-85.35s5.14-58.66 14.58-85.35c17.61-49.82 50.2-92.55 92.36-122.79 41.98-30.12 93.45-47.86 149.06-47.86s107.08 17.74 149.07 47.86c42.15 30.24 74.74 72.98 92.35 122.79 9.44 26.69 14.58 55.42 14.58 85.35z" fill="#9ddea3"/><g fill="#1f3645"><path d="m84.152 479.009c8.699 0 16.472-5.433 19.461-13.602l20.369-55.674h-56.229l-4.238 46.681c-1.102 12.133 8.453 22.595 20.637 22.595z"/><path d="m445.88 427.7c-11.63 12.86-24.55 24.53-38.56 34.8l-19.3-52.77h56.23z"/></g><path d="m497.42 110.08v231.29c-11.4 32.23-29.07 61.5-51.54 86.33-.82.91-1.65 1.81-2.49 2.71-2.67.36-5.41.54-8.18.54h-358.42c-2.78 0-5.51-.18-8.19-.54-30.49-4.01-54.02-30.1-54.02-61.68v-258.65c0-34.36 27.85-62.22 62.21-62.22h358.42c34.36 0 62.21 27.86 62.21 62.22z" fill="#2e4f5f"/><path d="m108.715 430.95h-31.92c-34.36 0-62.22-27.86-62.22-62.22v-258.65c0-34.36 27.86-62.22 62.22-62.22h31.92c-34.36 0-62.22 27.86-62.22 62.22v258.65c0 34.36 27.86 62.22 62.22 62.22z" fill="#1f3645"/><path d="m76.795 390.949c-12.252 0-22.22-9.968-22.22-22.219v-258.649c0-12.252 9.968-22.219 22.22-22.219h358.41c12.252 0 22.22 9.968 22.22 22.219v258.649c0 12.252-9.968 22.219-22.22 22.219z" fill="#5e54ac"/><path d="m161.005 390.95h-84.21c-12.25 0-22.22-9.97-22.22-22.22v-258.65c0-12.25 9.97-22.22 22.22-22.22h84.21c-36.79 0-66.61 29.82-66.61 66.61v169.86c0 36.79 29.82 66.62 66.61 66.62z" fill="#453d81"/><path d="m388.03 161.47h-24.376v-68.75c0-50.453-40.9-91.352-91.352-91.352-50.452 0-91.352 40.9-91.352 91.352v12.243h-22.788c-44.211 0-80.051 35.84-80.051 80.051 0 44.211 35.84 80.051 80.051 80.051h229.868c28.607 0 51.798-23.191 51.798-51.798 0-28.606-23.191-51.797-51.798-51.797z" fill="#eceef1"/><path d="m304 7.02c-12.484 4.618-23.688 11.888-32.912 21.112-16.531 16.52-26.758 39.358-26.758 64.593v12.243h-22.787c-44.204 0-80.046 35.843-80.046 80.046 0 22.115 8.958 42.123 23.447 56.612s34.498 23.447 56.6 23.447h-63.388c-22.102 0-42.11-8.957-56.599-23.447-14.489-14.489-23.447-34.498-23.447-56.612 0-44.204 35.843-80.046 80.046-80.046h22.787v-12.243c0-25.236 10.226-48.073 26.758-64.593 16.532-16.532 39.382-26.758 64.605-26.758 11.14 0 21.823 1.992 31.694 5.646z" fill="#d9dee8"/><g><path d="m320.578 229.093-52.113-55.602c-5.142-5.486-13.85-5.486-18.992 0l-52.113 55.602c-7.791 8.313-1.897 21.915 9.496 21.915h19.272v88.182c0 9.688 7.853 17.542 17.541 17.542h30.598c9.688 0 17.541-7.854 17.541-17.542v-88.182h19.272c11.395.001 17.289-13.602 9.498-21.915z" fill="#efc64c"/><g fill="#e3a12f"><path d="m258.306 356.739h-14.64c-9.68 0-17.54-7.86-17.54-17.54v-88.19h14.63v88.19c0 9.68 7.86 17.54 17.55 17.54z"/><path d="m266.286 171.629c-.78.53-1.51 1.15-2.18 1.87l-52.11 55.6c-7.8 8.31-1.9 21.91 9.49 21.91h-14.63c-11.39 0-17.29-13.6-9.5-21.91l52.12-55.6c4.47-4.77 11.64-5.4 16.81-1.87z"/></g></g></g></svg>