<svg id="Capa_1" enable-background="new 0 0 512 512" height="512" viewBox="0 0 512 512" width="512" xmlns="http://www.w3.org/2000/svg"><g><path d="m512 256c0 87.466-43.864 164.686-110.795 210.864-41.26 28.467-88.282.676-142.202.676-87.536 0-167.814.526-213.979-66.496-28.398-41.229-45.024-91.195-45.024-145.044 0-141.385 114.615-256 256-256s256 114.615 256 256z" fill="#efc64c"/><g fill="#e3a12f"><path d="m396.347 118.618h-280.694c-5.41 0-9.795-4.386-9.795-9.795 0-5.41 4.386-9.795 9.795-9.795h280.694c5.41 0 9.795 4.386 9.795 9.795 0 5.41-4.385 9.795-9.795 9.795z"/><path d="m396.347 199.774h-280.694c-5.41 0-9.795-4.386-9.795-9.795 0-5.41 4.386-9.795 9.795-9.795h280.694c5.41 0 9.795 4.386 9.795 9.795 0 5.409-4.385 9.795-9.795 9.795z"/><path d="m396.347 311.854h-280.694c-5.41 0-9.795-4.386-9.795-9.796 0-5.41 4.386-9.796 9.795-9.796h280.694c5.41 0 9.795 4.386 9.795 9.796 0 5.41-4.385 9.796-9.795 9.796z"/><path d="m436.964 164.401h-361.928c-5.41 0-9.795-4.386-9.795-9.796 0-5.41 4.386-9.795 9.795-9.795h361.927c5.41 0 9.795 4.386 9.795 9.795.001 5.41-4.384 9.796-9.794 9.796z"/><path d="m436.964 280.929h-361.928c-5.41 0-9.795-4.386-9.795-9.795 0-5.41 4.386-9.795 9.795-9.795h361.927c5.41 0 9.795 4.386 9.795 9.795.001 5.409-4.384 9.795-9.794 9.795z"/></g><g><path d="m379.744 198.681c0 31.67-6.658 61.785-18.649 89.03-3.428 7.797-36.547 15.359-40.82 22.653-4.274 7.295 20.299 14.322 15.239 21.052-20.85 27.771-48.074 50.472-79.514 65.935-31.44-15.463-58.664-38.164-79.514-65.935-4.858-6.461 15.733-13.198 11.599-20.181-4.478-7.563-33.616-15.416-37.18-23.524-11.991-27.246-18.649-57.36-18.649-89.03 0-31.681 6.658-61.796 18.649-89.041 3.428-7.797 26.35-15.359 30.625-22.653 4.275-7.295-10.098-14.322-5.044-21.052 20.85-27.771 48.074-50.462 79.514-65.935 31.44 15.473 58.664 38.164 79.514 65.935 5.054 6.729-18.422 18.231-14.147 25.526s36.3 10.382 39.728 18.179c11.991 27.245 18.649 57.36 18.649 89.041z" fill="#905f43"/><path d="m221.724 331.416c8.991 27.771 20.73 50.472 34.276 65.935-31.44-15.463-58.664-38.164-79.514-65.935-4.555-6.059 15.519-13.662 11.599-20.181-4.788-7.963-33.411-14.95-37.18-23.524-11.991-27.246-18.649-57.36-18.649-89.03 0-31.681 6.658-61.796 18.649-89.041 3.428-7.797 26.35-15.359 30.625-22.653s-10.098-14.322-5.044-21.052c20.85-27.771 48.074-50.462 79.514-65.935-13.546 15.473-25.286 38.164-34.276 65.935-4.358 13.459-8.071 28.111-11.028 43.705-5.169 27.246-8.038 57.36-8.038 89.041 0 31.67 2.869 61.785 8.038 89.03 2.957 15.594 6.669 30.246 11.028 43.705z" fill="#784536"/><g fill="#d6d8e8"><path d="m361.095 109.64h-210.19c6.855-15.594 15.474-30.246 25.581-43.705h159.028c10.108 13.458 18.726 28.111 25.581 43.705z"/><path d="m361.095 287.711c-6.855 15.594-15.462 30.246-25.581 43.705h-159.028c-10.119-13.459-18.726-28.111-25.581-43.705z"/></g><path d="m210.696 287.711c2.957 15.594 6.669 30.246 11.027 43.705h-45.238c-10.119-13.459-18.726-28.111-25.581-43.705z" fill="#b8bede"/><path d="m210.696 109.64h-59.791c6.855-15.594 15.474-30.246 25.581-43.705h45.238c-4.359 13.458-8.071 28.111-11.028 43.705z" fill="#b8bede"/><path d="m256 267.35c-15.329 0-27.756-12.427-27.756-27.756v-86.041c0-15.329 12.427-27.756 27.756-27.756 15.329 0 27.756 12.427 27.756 27.756v86.041c0 15.33-12.427 27.756-27.756 27.756z" fill="#d6d8e8"/><path d="m263.659 266.282c-2.431.701-5.004 1.073-7.655 1.073-15.331 0-27.76-12.429-27.76-27.76v-86.041c0-15.331 12.429-27.749 27.76-27.749 2.65 0 5.224.372 7.655 1.073-11.619 3.307-20.117 13.995-20.117 26.676v86.041c.001 12.681 8.499 23.38 20.117 26.687z" fill="#b8bede"/><g fill="#2e4f5f"><path d="m281.492 163.982h-50.254c-5.732 0-10.379-4.647-10.379-10.379 0-5.732 4.647-10.379 10.379-10.379h50.254c5.732 0 10.379 4.647 10.379 10.379-.001 5.732-4.647 10.379-10.379 10.379z"/><path d="m281.492 206.953h-50.254c-5.732 0-10.379-4.647-10.379-10.379 0-5.732 4.647-10.379 10.379-10.379h50.254c5.732 0 10.379 4.647 10.379 10.379-.001 5.732-4.647 10.379-10.379 10.379z"/><path d="m281.492 249.924h-50.254c-5.732 0-10.379-4.647-10.379-10.379 0-5.732 4.647-10.379 10.379-10.379h50.254c5.732 0 10.379 4.647 10.379 10.379-.001 5.732-4.647 10.379-10.379 10.379z"/></g><g fill="#1f3645"><path d="m253.02 163.989h-21.785c-5.73 0-10.375-4.655-10.375-10.385 0-2.87 1.166-5.456 3.043-7.333 1.876-1.886 4.473-3.043 7.333-3.043h21.785c-2.86 0-5.456 1.156-7.333 3.043-1.876 1.876-3.043 4.463-3.043 7.333-.001 5.73 4.644 10.385 10.375 10.385z"/><path d="m253.02 206.951h-21.785c-5.73 0-10.375-4.645-10.375-10.375 0-2.86 1.166-5.456 3.043-7.333 1.876-1.876 4.473-3.043 7.333-3.043h21.785c-2.86 0-5.456 1.166-7.333 3.043-1.876 1.876-3.043 4.473-3.043 7.333-.001 5.73 4.644 10.375 10.375 10.375z"/><path d="m253.02 249.922h-21.785c-5.73 0-10.375-4.645-10.375-10.375 0-2.87 1.166-5.456 3.043-7.333 1.876-1.886 4.473-3.043 7.333-3.043h21.785c-2.86 0-5.456 1.156-7.333 3.043-1.876 1.876-3.043 4.463-3.043 7.333-.001 5.73 4.644 10.375 10.375 10.375z"/></g></g><g><path d="m475.22 435.6c0 42.2-34.2 76.4-76.39 76.4h-142.83c-43.5 0-84.46-10.85-120.34-30-13.87-7.4-26.99-16.04-39.19-25.78-10.44-8.33-20.22-17.46-29.21-27.29-8.05-8.76-15.48-18.07-22.23-27.89 12.61-24.82 38.39-41.83 68.14-41.83h285.66c21.09 0 40.19 8.55 54.02 22.37 5.67 5.68 10.46 12.24 14.12 19.46 5.28 10.38 8.25 22.12 8.25 34.56z" fill="#ca245f"/><path d="m93.65 435.6c0 7.14.98 14.06 2.82 20.62-19.74-15.74-37.09-34.35-51.44-55.18 12.61-24.82 38.39-41.83 68.14-41.83h56.88c-42.19 0-76.4 34.2-76.4 76.39z" fill="#b7004f"/><path d="m445.22 435.6c0 25.59-20.81 46.4-46.39 46.4h-263.17c-13.87-7.4-26.99-16.04-39.19-25.78-10.44-8.33-20.22-17.46-29.21-27.29 3.24-22.43 22.59-39.72 45.91-39.72h285.66c23.32 0 42.68 17.3 45.91 39.74.32 2.17.48 4.39.48 6.65z" fill="#b7004f"/><g fill="#eceef1"><path d="m189.952 455.39c-.018 0-.037 0-.056 0-3.688.021-7.563.036-10.922.044v-49.401c0-5.375-4.357-9.732-9.732-9.732s-9.732 4.357-9.732 9.732v59.089c0 4.741 3.416 8.792 8.09 9.592.695.119 1.133.194 7.833.194 3.197 0 7.819-.017 14.573-.054 5.375-.03 9.707-4.411 9.678-9.786-.031-5.357-4.382-9.678-9.732-9.678z"/><path d="m219.896 396.301c-5.375 0-9.732 4.357-9.732 9.732v59.138c0 5.375 4.357 9.732 9.732 9.732s9.732-4.357 9.732-9.732v-59.138c0-5.374-4.358-9.732-9.732-9.732z"/><path d="m342.756 455.44h-14.959v-9.835h13.138c5.375 0 9.732-4.357 9.732-9.732s-4.357-9.732-9.732-9.732h-13.138v-9.835h14.959c5.375 0 9.732-4.357 9.732-9.732s-4.357-9.732-9.732-9.732h-24.691c-5.375 0-9.732 4.357-9.732 9.732v58.599c0 5.375 4.357 9.732 9.732 9.732h24.691c5.375 0 9.732-4.357 9.732-9.732 0-5.376-4.357-9.733-9.732-9.733z"/><path d="m293.073 396.906c-5.102-1.696-10.61 1.067-12.304 6.167l-11.512 34.653-12.109-34.885c-1.763-5.078-7.31-7.766-12.386-6.002-5.078 1.762-7.765 7.308-6.003 12.385l20.243 58.314c1.566 4.413 5.751 7.365 10.428 7.365h.074c4.707-.031 8.888-3.047 10.426-7.569l19.309-58.125c1.697-5.1-1.064-10.609-6.166-12.303z"/></g></g></g></svg>