<svg id="Capa_1" enable-background="new 0 0 512 512" height="512" viewBox="0 0 512 512" width="512" xmlns="http://www.w3.org/2000/svg"><g><path d="m512 256c0 141.38-114.62 256-256 256s-256-114.62-256-256 114.62-256 256-256c63.03 0 120.74 22.78 165.35 60.56 5.22 4.42 2.565 33.156 7.415 37.986 6.26 6.22 19.905-11.346 25.495-4.506 36.09 44.12 57.74 100.51 57.74 161.96z" fill="#9ddea3"/><g fill="#88c98b"><path d="m197.637 168.538c-4.959 0-8.979-4.02-8.979-8.979v-35.249c0-4.959 4.02-8.979 8.979-8.979 4.959 0 8.979 4.02 8.979 8.979v35.249c0 4.959-4.02 8.979-8.979 8.979z"/><path d="m222.149 168.538c-4.959 0-8.979-4.02-8.979-8.979v-15.663c0-4.959 4.02-8.979 8.979-8.979 4.959 0 8.979 4.02 8.979 8.979v15.663c0 4.959-4.02 8.979-8.979 8.979z"/></g><g fill="#88c98b"><path d="m357.873 87.556c-4.959 0-8.979-4.02-8.979-8.979v-35.249c0-4.959 4.02-8.979 8.979-8.979 4.959 0 8.979 4.02 8.979 8.979v35.249c0 4.96-4.02 8.979-8.979 8.979z"/><path d="m382.385 87.556c-4.959 0-8.979-4.02-8.979-8.979v-15.662c0-4.959 4.02-8.979 8.979-8.979 4.959 0 8.979 4.02 8.979 8.979v15.663c0 4.959-4.02 8.978-8.979 8.978z"/></g><path d="m271.98 355.75c0 11.15-3.51 21.47-9.5 29.93-9.39 13.28-24.87 21.95-42.37 21.95h-65.18l-21.29-23.947c-6.562 0-12.841 22.727-18.622 20.502-6.834-2.631-12.971-6.667-18.058-11.754-2.08-2.08-3.99-4.34-5.69-6.75-5.98-8.46-9.5-18.78-9.5-29.93 0-28.65 23.22-51.88 51.87-51.88h86.47c14.33 0 27.29 5.81 36.68 15.2 9.39 9.389 15.19 22.349 15.19 36.679z" fill="#2e4f5f"/><g><path d="m454.26 94.04-52.29 163.62-39.57-12.65 58.95-184.45c11.96 10.13 22.98 21.34 32.91 33.48z" fill="#426b7b"/><path d="m436.47 74.44-56.33 176.24-17.74-5.67 58.95-184.45c5.22 4.42 10.27 9.05 15.12 13.88z" fill="#2e4f5f"/><path d="m410.628 143.121-75.94-24.271c-32.036-10.239-66.308 7.431-76.547 39.468l-7.87 24.625c-10.239 32.036 7.431 66.308 39.468 76.547l75.94 24.271c32.036 10.239 66.308-7.431 76.547-39.468l7.87-24.625c10.238-32.036-7.432-66.308-39.468-76.547z" fill="#426b7b"/><path d="m323.955 270.426-34.215-10.935c-32.034-10.238-49.71-44.506-39.469-76.549l7.87-24.623c10.238-32.034 44.516-49.707 76.549-39.469l34.215 10.935c-32.043-10.241-66.311 7.435-76.549 39.469l-7.87 24.623c-10.241 32.043 7.426 66.308 39.469 76.549z" fill="#2e4f5f"/></g><path d="m288.147 165.757 3.224 30.903c.163 1.561 1.499 2.735 3.068 2.695l31.061-.781c2.728-.069 4.131 3.239 2.185 5.152l-22.151 21.788c-1.119 1.101-1.204 2.877-.195 4.079l19.977 23.798c1.755 2.09.043 5.249-2.666 4.921l-30.846-3.734c-1.558-.189-3 .852-3.31 2.391l-6.151 30.456c-.54 2.675-4.077 3.306-5.509.984l-16.313-26.444c-.824-1.336-2.537-1.814-3.933-1.097l-27.646 14.18c-2.428 1.245-5.127-1.126-4.204-3.694l10.504-29.242c.531-1.477-.164-3.114-1.594-3.759l-28.324-12.774c-2.488-1.122-2.316-4.71.267-5.59l29.409-10.018c1.486-.506 2.333-2.07 1.945-3.591l-7.673-30.109c-.674-2.644 2.238-4.748 4.537-3.277l26.171 16.748c1.322.846 3.072.533 4.02-.718l18.756-24.771c1.648-2.176 5.108-1.21 5.391 1.504z" fill="#efc64c"/><path d="m262.48 385.68c-9.39 13.28-24.87 21.95-42.37 21.95h-65.18l-21.29-23.947c-6.56 0-12.84 22.728-18.62 20.498-6.84-2.63-12.97-6.66-18.06-11.75-2.08-2.08-3.99-4.34-5.69-6.75 5.87-8.3 14.12-14.8 23.75-18.51 5.78-2.22 12.06-3.44 18.62-3.44h86.47c14.33 0 27.29 5.81 36.68 15.2 2.08 2.079 3.99 4.339 5.69 6.749z" fill="#1f3645"/><g><circle cx="245.058" cy="303.2" fill="#eceef1" r="80.988"/><g fill="#d6d8e8"><path d="m272.638 379.357c-8.608 3.126-17.9 4.833-27.59 4.833-44.721 0-80.978-36.258-80.978-80.99s36.257-80.99 80.978-80.99c6.203 0 12.25.697 18.045 2.02-31.136 11.277-53.388 41.114-53.388 76.158-.001 38.528 26.892 70.771 62.933 78.969z"/><circle cx="274.007" cy="265.456" r="11.593"/><circle cx="295.641" cy="289.263" r="11.593"/><circle cx="265.558" cy="295.391" r="11.593"/></g></g><path d="m282.792 91.445-127.865 57.582-24.834-77.009 24.834-72.018 127.865 57.582c14.592 6.572 14.592 27.292 0 33.863z" fill="#ca245f"/><path d="m154.93 0v407.63h-21.29c-6.56 0-12.84-1.22-18.62-3.45v-404.18z" fill="#905f43"/><path d="m134.97 0v407.63h-1.33c-6.56 0-12.84-1.22-18.62-3.45v-404.18z" fill="#784536"/><g fill="#88c98b"><g><path d="m28.325 280.927c-4.959 0-8.979-4.02-8.979-8.979v-35.249c0-4.959 4.02-8.979 8.979-8.979 4.959 0 8.979 4.02 8.979 8.979v35.249c0 4.959-4.02 8.979-8.979 8.979z"/><path d="m52.837 280.927c-4.959 0-8.979-4.02-8.979-8.979v-15.663c0-4.959 4.02-8.979 8.979-8.979 4.959 0 8.979 4.02 8.979 8.979v15.663c0 4.959-4.02 8.979-8.979 8.979z"/></g><g><path d="m357.541 416.047c-4.959 0-8.979-4.02-8.979-8.979v-35.249c0-4.959 4.02-8.979 8.979-8.979 4.959 0 8.979 4.02 8.979 8.979v35.249c-.001 4.959-4.021 8.979-8.979 8.979z"/><path d="m382.053 416.047c-4.959 0-8.979-4.02-8.979-8.979v-15.663c0-4.959 4.02-8.979 8.979-8.979 4.959 0 8.979 4.02 8.979 8.979v15.663c-.001 4.959-4.021 8.979-8.979 8.979z"/></g><g><path d="m217.873 492.423c-4.959 0-8.979-4.02-8.979-8.979v-35.249c0-4.959 4.02-8.979 8.979-8.979 4.959 0 8.979 4.02 8.979 8.979v35.249c0 4.959-4.02 8.979-8.979 8.979z"/><path d="m242.385 492.423c-4.959 0-8.979-4.02-8.979-8.979v-15.663c0-4.959 4.02-8.979 8.979-8.979 4.959 0 8.979 4.02 8.979 8.979v15.663c0 4.959-4.02 8.979-8.979 8.979z"/></g><g><path d="m421.389 357.077c-4.959 0-8.979-4.02-8.979-8.979v-35.249c0-4.959 4.02-8.979 8.979-8.979 4.959 0 8.979 4.02 8.979 8.979v35.249c-.001 4.959-4.021 8.979-8.979 8.979z"/><path d="m445.9 357.077c-4.959 0-8.979-4.02-8.979-8.979v-15.663c0-4.959 4.02-8.979 8.979-8.979 4.959 0 8.979 4.02 8.979 8.979v15.663c0 4.959-4.02 8.979-8.979 8.979z"/></g></g><g fill="#ca245f"><path d="m328.353 464.325c-.018 0-.037 0-.056 0-3.688.021-7.563.036-10.922.044v-49.401c0-5.375-4.357-9.732-9.732-9.732s-9.732 4.357-9.732 9.732v59.089c0 4.741 3.416 8.792 8.09 9.592.695.119 1.134.194 7.833.194 3.197 0 7.819-.017 14.573-.055 5.375-.03 9.707-4.411 9.678-9.786-.031-5.356-4.383-9.677-9.732-9.677z"/><path d="m358.296 405.236c-5.375 0-9.732 4.357-9.732 9.732v59.138c0 5.375 4.357 9.732 9.732 9.732s9.732-4.357 9.732-9.732v-59.138c0-5.375-4.357-9.732-9.732-9.732z"/><path d="m481.157 464.375h-14.959v-9.835h13.138c5.375 0 9.732-4.357 9.732-9.732s-4.357-9.732-9.732-9.732h-13.138v-9.835h14.959c5.375 0 9.732-4.357 9.732-9.732s-4.357-9.732-9.732-9.732h-24.691c-5.375 0-9.732 4.357-9.732 9.732v58.598c0 5.375 4.357 9.732 9.732 9.732h24.691c5.375 0 9.732-4.357 9.732-9.732s-4.358-9.732-9.732-9.732z"/><path d="m431.474 405.841c-5.102-1.696-10.61 1.067-12.304 6.167l-11.512 34.653-12.109-34.885c-1.763-5.078-7.31-7.766-12.386-6.002-5.078 1.762-7.765 7.308-6.003 12.385l20.243 58.314c1.566 4.413 5.751 7.365 10.428 7.365h.074c4.707-.031 8.888-3.047 10.426-7.569l19.309-58.125c1.696-5.1-1.065-10.609-6.166-12.303z"/></g></g></svg>