<svg id="Capa_1" enable-background="new 0 0 512 512" height="512" viewBox="0 0 512 512" width="512" xmlns="http://www.w3.org/2000/svg"><g><path d="m512 256c0 79.529-36.265 150.588-93.16 197.542-44.252 36.52-14.228 1.898-76.083 1.898-87.536 0-251.567 12.625-297.732-54.396-28.399-41.229-45.025-91.195-45.025-145.044 0-141.385 114.615-256 256-256s256 114.615 256 256z" fill="#9dc6fb"/><path d="m416.25 64.39v387.05c0 1.46-.05 2.9-.16 4.33-43.84 35.18-99.51 11.769-160.09 11.769l-99.69-2.417c-31.99 0-58.19-24.8-60.4-56.23-.11-1.43-.16-344.502-.16-344.502 0-2.89.2-5.73.6-8.52 4.13-29.41 29.4-52.04 59.96-52.04h199.38c30.56 0 55.83 22.63 59.96 52.04.4 2.79.6 5.63.6 8.52z" fill="#2e4f5f"/><path d="m182.337 455.39h-26.03c-33.45 0-60.56-27.11-60.56-60.56v-330.44c0-33.45 27.11-60.56 60.56-60.56h26.03c-33.45 0-60.56 27.11-60.56 60.56v330.44c0 33.45 27.11 60.56 60.56 60.56z" fill="#1f3645"/><path d="m385.02 64.39v387.05c0 10.94-6.02 20.49-14.92 25.52-4.25 2.42-9.17 3.8-14.41 3.8h-199.39c-1.68 0-3.32-.14-4.92-.42-13.84-2.34-24.4-14.41-24.4-28.9v-387.05c0-14.49 10.56-26.56 24.4-28.9 1.6-.28 3.24-.42 4.92-.42h34.29c.4 10.31 6.05 19.27 14.35 24.28 4.48 2.71 9.74 4.27 15.36 4.27h71.4c10.38 0 19.53-5.33 24.84-13.4 2.89-4.38 4.65-9.57 4.86-15.15h34.29c5.24 0 10.16 1.38 14.41 3.8 8.9 5.03 14.92 14.58 14.92 25.52z" fill="#9ddea3"/><path d="m175.33 480.34c1.6.28 3.24.42 4.92.42h-23.95c-1.68 0-3.32-.14-4.92-.42-13.84-2.34-24.4-14.41-24.4-28.9v-387.05c0-14.49 10.56-26.56 24.4-28.9 1.6-.28 3.24-.42 4.92-.42h23.95c-1.68 0-3.32.14-4.92.42-13.84 2.34-24.4 14.41-24.4 28.9v387.05c0 14.49 10.56 26.56 24.4 28.9z" fill="#88c98b"/><path d="m291.318 36.096c0-4.303-3.488-7.79-7.79-7.79h-55.052c-4.302 0-7.79 3.488-7.79 7.79 0 4.302 3.488 7.79 7.79 7.79h55.052c4.302 0 7.79-3.487 7.79-7.79z" fill="#1f3645"/><g><path d="m475.22 435.6c0 42.2-34.2 76.4-76.39 76.4h-142.83c-43.5 0-84.46-10.85-120.34-30-13.87-7.4-26.99-16.04-39.19-25.78-10.44-8.33-20.22-17.46-29.21-27.29-8.05-8.76-15.48-18.07-22.23-27.89 12.61-24.82 38.39-41.83 68.14-41.83h285.66c21.09 0 40.19 8.55 54.02 22.37 5.67 5.68 10.46 12.24 14.12 19.46 5.28 10.38 8.25 22.12 8.25 34.56z" fill="#ca245f"/><path d="m93.65 435.6c0 7.14.98 14.06 2.82 20.62-19.74-15.74-37.09-34.35-51.44-55.18 12.61-24.82 38.39-41.83 68.14-41.83h56.88c-42.19 0-76.4 34.2-76.4 76.39z" fill="#b7004f"/><path d="m445.22 435.6c0 25.59-20.81 46.4-46.39 46.4h-263.17c-13.87-7.4-26.99-16.04-39.19-25.78-10.44-8.33-20.22-17.46-29.21-27.29 3.24-22.43 22.59-39.72 45.91-39.72h285.66c23.32 0 42.68 17.3 45.91 39.74.32 2.17.48 4.39.48 6.65z" fill="#b7004f"/><g fill="#eceef1"><path d="m189.952 455.39c-.018 0-.037 0-.056 0-3.688.021-7.563.036-10.922.044v-49.401c0-5.375-4.357-9.732-9.732-9.732s-9.732 4.357-9.732 9.732v59.089c0 4.741 3.416 8.792 8.09 9.592.695.119 1.133.194 7.833.194 3.197 0 7.819-.017 14.573-.054 5.375-.03 9.707-4.411 9.678-9.786-.031-5.357-4.382-9.678-9.732-9.678z"/><path d="m219.896 396.301c-5.375 0-9.732 4.357-9.732 9.732v59.138c0 5.375 4.357 9.732 9.732 9.732s9.732-4.357 9.732-9.732v-59.138c0-5.374-4.358-9.732-9.732-9.732z"/><path d="m342.756 455.44h-14.959v-9.835h13.138c5.375 0 9.732-4.357 9.732-9.732s-4.357-9.732-9.732-9.732h-13.138v-9.835h14.959c5.375 0 9.732-4.357 9.732-9.732s-4.357-9.732-9.732-9.732h-24.691c-5.375 0-9.732 4.357-9.732 9.732v58.599c0 5.375 4.357 9.732 9.732 9.732h24.691c5.375 0 9.732-4.357 9.732-9.732 0-5.376-4.357-9.733-9.732-9.733z"/><path d="m293.073 396.906c-5.102-1.696-10.61 1.067-12.304 6.167l-11.512 34.653-12.109-34.885c-1.763-5.078-7.31-7.766-12.386-6.002-5.078 1.762-7.765 7.308-6.003 12.385l20.243 58.314c1.566 4.413 5.751 7.365 10.428 7.365h.074c4.707-.031 8.888-3.047 10.426-7.569l19.309-58.125c1.697-5.1-1.064-10.609-6.166-12.303z"/></g></g><g><path d="m340.34 207.192c0 2.612 20.803 18.099 20.62 20.662-1.242 17.016-6.526 32.901-14.894 46.712-5.943 9.806-21.776 10.229-30.49 17.596-12.362 10.452-18.834 26.438-35.105 30.309-7.854 1.872-16.044 2.863-24.472 2.863s-16.619-.991-24.472-2.863c-12.828-3.052-20.6-19.325-31.127-26.596-12.236-8.452-26.74-8.558-34.467-21.309-8.367-13.811-13.652-29.696-14.894-46.712-.184-2.563 8.274-11.135 8.274-13.746 0-26.203 9.176-36.025 16.853-62.601 10.759-12.508 24.405-22.454 39.898-28.815 12.313-5.052 25.732 0 39.868 0 14.135 0 27.69-5.052 40.002 0 15.493 6.361 29.139 16.307 39.898 28.815 6.997 27.257 4.508 29.482 4.508 55.685z" fill="#d6d8e8"/><path d="m271.395 322.472c1.499.355 3.015.685 4.538.979-6.453 1.236-13.114 1.884-19.934 1.884-8.428 0-16.619-.991-24.472-2.863-9.633-2.292-16.622-16.976-25.025-21.715-15.794-8.906-31.187-10.708-40.569-26.19-8.367-13.811-13.652-29.696-14.894-46.712-.184-2.563 11.057-16.488 11.057-19.1 0-26.203 4.947-30.445 14.07-57.247 10.759-12.508 24.405-22.454 39.898-28.815 12.313-5.052 25.8-4.183 39.935-4.183 6.814 0 14.121.487 20.574 1.729-6.936 1.327-14.268-.164-20.641 2.454-15.493 6.361-29.139 16.307-39.898 28.815-15.836 18.417-25.408 42.382-25.408 68.585 0 2.612.098 5.199.281 7.762 1.242 17.016 6.526 32.901 14.894 46.712 14.374 23.72 37.856 41.305 65.594 47.905z" fill="#b8bede"/><path d="m342.759 198.334-3.78-11.634-76.862 24.974v-82.181h-12.234v82.181l-77.617-25.22-3.779 11.635 77.616 25.219-47.116 64.85 9.896 7.191 47.117-64.851 46.222 63.62 9.897-7.19-46.222-63.62z" fill="#a8acd3"/><path d="m248.053 172.945-33.318 24.207c-4.739 3.443-6.722 9.546-4.912 15.117l12.726 39.168c1.81 5.571 7.001 9.343 12.859 9.343h41.184c5.858 0 11.049-3.772 12.859-9.343l12.726-39.168c1.81-5.571-.173-11.674-4.912-15.117l-33.318-24.207c-4.739-3.443-11.155-3.443-15.894 0z" fill="#2e4f5f"/><g><path d="m295.935 122.692c-.41.398-.85.765-1.315 1.107l-31.182 22.656c-4.435 3.217-10.441 3.217-14.875 0l-15.194-11.04-15.989-11.615c-.465-.343-.905-.71-1.315-1.107 12.313-5.052 25.8-7.841 39.935-7.841 6.808 0 13.463.648 19.909 1.884.006 0 .018.006.024.006 6.937 1.326 13.629 3.332 20.002 5.95z" fill="#2e4f5f"/></g><g><path d="m231.528 322.472c-27.739-6.6-51.22-24.185-65.594-47.905.826-.171 1.676-.257 2.544-.257h38.54c5.48 0 10.343 3.529 12.037 8.747l4.337 13.346 7.572 23.31c.295.911.484 1.835.564 2.759z" fill="#2e4f5f"/></g><path d="m230.965 319.713c.294.911.483 1.835.563 2.759-27.739-6.6-51.22-24.185-65.594-47.905.826-.171 1.676-.257 2.544-.257h37.17c.049.086.104.171.153.257 4.875 8.049 10.802 15.389 17.591 21.836z" fill="#1f3645"/><path d="m275.934 116.741c-6.936 1.327-13.628 3.334-20.001 5.951-8.074 3.315-15.64 7.603-22.564 12.722l-15.989-11.615c-.465-.343-.905-.71-1.315-1.107 12.313-5.052 25.8-7.841 39.935-7.841 6.808 0 13.463.648 19.909 1.884.007 0 .019.006.025.006z" fill="#1f3645"/><g><path d="m184.185 204.03-31.182 22.656c-.624.453-1.284.844-1.963 1.168-.184-2.563-.281-5.15-.281-7.762 0-26.203 9.573-50.168 25.408-68.585.275.55.508 1.125.703 1.725l11.909 36.657c1.694 5.211-.159 10.924-4.594 14.141z" fill="#1f3645"/></g><g><path d="m346.066 274.567c-14.374 23.72-37.855 41.305-65.594 47.905.08-.924.269-1.847.563-2.759l11.909-36.657c1.694-5.217 6.557-8.747 12.037-8.747h38.54c.87.001 1.72.086 2.545.258z" fill="#2e4f5f"/></g><g><path d="m361.242 220.092c0 2.612-.098 5.199-.281 7.762-.679-.324-1.34-.716-1.963-1.168l-31.182-22.656c-4.435-3.217-6.288-8.93-4.593-14.141l11.909-36.657c.196-.599.428-1.174.703-1.725 15.834 18.417 25.407 42.382 25.407 68.585z" fill="#2e4f5f"/></g></g></g></svg>