<svg id="Capa_1" enable-background="new 0 0 512 512" height="512" viewBox="0 0 512 512" width="512" xmlns="http://www.w3.org/2000/svg"><g><path d="m512 256c0 53.019-16.118 102.274-43.721 143.132-46.005 68.096-123.913 67.484-212.279 67.484-87.031 0-163.918 1.954-210.173-64.415-28.887-41.449-45.827-91.847-45.827-146.201 0-141.385 114.615-256 256-256s256 114.615 256 256z" fill="#5e54ac"/><path d="m466.17 52.61v349.59c-46.25 66.37-123.14 109.8-210.17 109.8s-163.92-43.43-210.17-109.8v-349.59c0-20.87 16.92-37.78 37.78-37.78h344.78c20.86 0 37.78 16.91 37.78 37.78z" fill="#b8bede"/><path d="m446.17 109.89v317.48c-6.3 6.99-12.97 13.63-20 19.88-45.22 40.28-104.84 64.75-170.17 64.75s-124.95-24.47-170.17-64.75c-7.03-6.25-13.7-12.89-20-19.88v-317.48c0-9.8 7.98-17.77 17.78-17.77h344.78c9.8 0 17.78 7.97 17.78 17.77z" fill="#d6d8e8"/><path d="m426.17 141.47v170.17c0 17.28-14.008 31.288-31.288 31.288h-277.764c-17.28 0-31.288-14.008-31.288-31.288v-170.17c0-16.209 13.14-29.35 29.35-29.35h281.64c16.21 0 29.35 13.14 29.35 29.35z" fill="#1f3645"/><path d="m309.424 303.339h-106.848c-12.366 0-22.39-10.024-22.39-22.39v-106.849c0-12.366 10.024-22.39 22.39-22.39h106.849c12.366 0 22.39 10.024 22.39 22.39v106.849c-.001 12.365-10.025 22.39-22.391 22.39z" fill="#ca245f"/><g fill="#2e4f5f"><path d="m219.536 181.629h17.05v45.182h-17.05z"/><path d="m273.027 181.629h17.05v45.182h-17.05z"/><path d="m303.546 284.49h-16.663c0-17.029-13.854-30.883-30.883-30.883s-30.883 13.854-30.883 30.883h-16.663c0-26.217 21.329-47.546 47.546-47.546 26.217-.001 47.546 21.328 47.546 47.546z"/></g><g fill="#a8acd3"><circle cx="84.456" cy="53.408" r="18.622"/><circle cx="134.803" cy="53.408" r="18.622"/><circle cx="185.15" cy="54.797" r="18.622"/></g><path d="m341.281 395.785h-242.482c-7.163 0-12.969-5.806-12.969-12.969 0-7.163 5.806-12.969 12.969-12.969h242.482c7.163 0 12.969 5.806 12.969 12.969 0 7.163-5.806 12.969-12.969 12.969z" fill="#2e4f5f"/><path d="m269.102 438.683h-170.303c-7.163 0-12.969-5.806-12.969-12.969 0-7.163 5.806-12.969 12.969-12.969h170.303c7.163 0 12.969 5.806 12.969 12.969 0 7.163-5.807 12.969-12.969 12.969z" fill="#2e4f5f"/></g></svg>