<svg id="Capa_1" enable-background="new 0 0 512 512" height="512" viewBox="0 0 512 512" width="512" xmlns="http://www.w3.org/2000/svg"><g><path d="m512 256c0 35.54-7.25 69.39-20.34 100.16-2.5 5.88-46.301 11.64-49.22 17.28-2.81 5.44 3.18 10.77 0 15.97-6.88 11.24-50.047 19.914-58.527 29.924-11.16 13.18 43.918 27.216 30.338 37.906-43.551 34.29-98.511 54.76-158.251 54.76s-114.7-20.47-158.25-54.76c-13.58-10.69-26.05-22.73-37.21-35.91-8.48-10.01-16.19-20.68-23.07-31.92-1.62-2.65-3.2-5.34-4.72-8.05-20.86-37.05-32.75-79.82-32.75-125.36s11.9-88.31 32.75-125.36c15.11-26.86 34.93-50.72 58.34-70.45 44.55-37.55 102.09-60.19 164.91-60.19s120.36 22.64 164.91 60.19c30.5 25.71 54.91 58.42 70.75 95.66 13.1 30.76 20.34 64.61 20.34 100.15z" fill="#ca245f"/><path d="m491.66 117.13v239.03c-2.5 5.88-5.21 11.64-8.13 17.28-2.81 5.44-5.82 10.77-9 15.97-6.88 11.24-14.59 21.91-23.07 31.92h-418.71v-304.2c0-31.45 25.49-56.94 56.94-56.94h345.02c31.45 0 56.95 25.49 56.95 56.94z" fill="#b8bede"/><path d="m483.53 373.44c-2.81 5.44-5.82 10.77-9 15.97-6.88 11.24-14.59 21.91-23.07 31.92h-418.71v-47.89z" fill="#a8acd3"/><path d="m116.629 60.192c-31.45 0-56.94 25.49-56.94 56.94v304.2h-26.94v-304.2c0-31.45 25.49-56.94 56.94-56.94z" fill="#a8acd3"/><path d="m72.749 333.851v-216.719c0-9.357 7.585-16.942 16.942-16.942h345.021c9.357 0 16.942 7.585 16.942 16.942v216.718c0 12.189-9.882 22.071-22.071 22.071h-334.763c-12.189.001-22.071-9.881-22.071-22.07z" fill="#9dc6fb"/><path d="m128.359 355.922h-33.54c-12.19 0-22.07-9.88-22.07-22.07v-216.72c0-9.35 7.59-16.94 16.95-16.94h33.53c-9.36 0-16.94 7.59-16.94 16.94v216.72c0 12.19 9.88 22.07 22.07 22.07z" fill="#80b4fb"/><path d="m474.53 389.41c-15.93 26.04-36.39 49.02-60.28 67.83h-380.33c-9.36 0-17.84-3.8-23.98-9.93-6.14-6.14-9.94-14.62-9.94-23.99 0-18.73 15.19-33.91 33.92-33.91z" fill="#d6d8e8"/><path d="m84.97 447.305c6.14 6.14 14.62 9.94 23.99 9.94h-75.04c-9.36 0-17.84-3.8-23.98-9.94s-9.94-14.62-9.94-23.98c0-18.73 15.19-33.92 33.92-33.92h75.04c-18.74 0-33.92 15.19-33.92 33.92 0 9.36 3.8 17.84 9.93 23.98z" fill="#b8bede"/><path d="m332.31 389.41c-.15 14.35-11.83 25.93-26.21 25.93h-100.2c-14.38 0-26.06-11.58-26.21-25.93z" fill="#b8bede"/><g><path d="m402.534 325.026h-280.664c-4.591 0-8.314-3.722-8.314-8.314 0-4.591 3.722-8.314 8.314-8.314h280.665c4.591 0 8.314 3.722 8.314 8.314-.001 4.592-3.723 8.314-8.315 8.314z" fill="#1f3645"/><path d="m299.864 333.007c-3.857 0-6.983-3.127-6.983-6.983v-20.618c0-3.857 3.127-6.983 6.983-6.983 3.857 0 6.983 3.127 6.983 6.983v20.618c.001 3.856-3.126 6.983-6.983 6.983z" fill="#ca245f"/></g><g><circle cx="262.202" cy="207.641" fill="#ca245f" r="65.375"/><path d="m275.735 271.602c-4.361.926-8.892 1.412-13.536 1.412-36.098 0-65.372-29.274-65.372-65.373 0-36.11 29.274-65.384 65.372-65.384 4.644 0 9.174.486 13.536 1.412-29.624 6.225-51.86 32.494-51.86 63.971.001 31.467 22.236 57.736 51.86 63.962z" fill="#b7004f"/><path d="m290.039 197.278-30.235-17.456c-7.977-4.606-17.949 1.151-17.949 10.363v34.912c0 9.211 9.972 14.969 17.949 10.363l30.235-17.456c7.978-4.605 7.978-16.12 0-20.726z" fill="#eceef1"/></g></g></svg>