<svg id="Capa_1" enable-background="new 0 0 512 512" height="512" viewBox="0 0 512 512" width="512" xmlns="http://www.w3.org/2000/svg"><g><path d="m512 256c0 44.75-11.49 86.82-31.67 123.42l-84.718 17.231-62.102-17.231v-131.71l172.67-46.24c3.81 17.57 5.82 35.82 5.82 54.53z" fill="#1f3645"/><path d="m480.33 379.42c-5.87 10.64-12.47 20.82-19.75 30.47-6.88 9.14-14.36 17.81-22.4 25.94-6.73 6.83-13.86 13.29-21.33 19.32-12.08 9.78-25.07 18.48-38.82 25.94-36.28 19.72-77.84 30.91-122.03 30.91-60.73 0-116.52-21.15-160.41-56.49-9.88-7.95-19.16-16.62-27.75-25.94-14.04-15.2-26.25-32.1-36.29-50.36-7.89-14.35-14.46-29.55-19.51-45.42l321.47-86.08v131.71z" fill="#426776"/><path d="m178.13 442.54c0 7.16-5.8 12.97-12.96 12.97h-69.58c-9.88-7.95-19.16-16.62-27.75-25.94h97.33c3.58 0 6.82 1.45 9.17 3.8 2.34 2.34 3.79 5.59 3.79 9.17z" fill="#1f3645"/><path d="m506.18 201.47-464.453 118.636c-7.82-24.53-18.955-36.986-18.955-64.106 0-52.898-6.726-102.055 20.766-142.859 11.748-17.435 25.585-33.346 41.152-47.371 30.18-27.2 66.86-47.31 107.44-57.73 20.42-5.25 41.82 15.772 63.87 15.772 103.97 0 131.848 63.147 171.918 152.177 7.22 16.01 74.452 7.921 78.262 25.481z" fill="#9dc6fb"/><path d="m250.698 244.998-9.889-28.127-76.806-47.574c7.405-7.711 11.962-18.173 11.962-29.708 0-23.699-19.214-42.92-42.92-42.92-9.26 0-17.818 2.944-24.836 7.929-1.396-12.906-12.318-22.948-25.595-22.948-4.961 0-9.583 1.404-13.519 3.84 1.226-3.589 1.896-7.437 1.896-11.438 0-4.799-.952-9.373-2.678-13.543-5.324-12.883-18.012-21.949-32.814-21.949-17.552 0-32.12 12.737-34.983 29.466l-.516-.323v146.248c0 36.024 9.228 69.902 25.449 99.384l249.391.298z" fill="#a8acd3"/><path d="m489.54 151.02-3.21 31.49-323.23-41.31 19.66-115.88c1.16-6.85 4.56-12.84 9.37-17.28 5.45-5.02 12.72-8.04 20.59-8.04h43.28c103.97 0 193.47 61.99 233.54 151.02z" fill="#ca245f"/><path d="m486.99 176.08-.66 6.43-323.23-41.31 19.66-115.88c1.16-6.85 4.56-12.84 9.37-17.28 5.45-5.02 12.72-8.04 20.59-8.04h43.28c1.94 0 3.87.02 5.8.07-7.14.43-13.68 3.36-18.69 7.97-4.81 4.44-8.21 10.43-9.37 17.28l-19.66 115.88z" fill="#b7004f"/><path d="m340.73 379.58-297.05-.36-12.13-.01c-20.11-36.55-31.55-78.55-31.55-123.21v-120.14c4.27-1.02 8.73-1.56 13.32-1.56 31.54 0 57.11 25.57 57.11 57.11 0 3.26-.29 6.45-.81 9.56 7.07-3.56 15.04-5.57 23.49-5.57 23.63 0 43.6 15.66 50.12 37.17 4.19-1.61 8.73-2.5 13.48-2.5 20.8 0 37.66 16.86 37.66 37.66l116.43 26.76 21.16 60.16z" fill="#b8bede"/><path d="m260.4 119.916h-111.816c-13.851 0-25.08 11.229-25.08 25.08v35.059c0 13.851 11.229 25.08 25.08 25.08h111.816c13.851 0 25.08-11.229 25.08-25.08v-35.059c0-13.851-11.229-25.08-25.08-25.08z" fill="#eceef1"/><g><circle cx="340.726" cy="208.31" fill="#2e4f5f" r="171.274"/><path d="m352.059 379.212c-3.745.244-7.526.37-11.334.37-94.593 0-171.272-76.679-171.272-171.272s76.679-171.272 171.272-171.272c3.808 0 7.589.126 11.334.37-89.304 5.83-159.937 80.118-159.937 170.902s70.633 165.072 159.937 170.902z" fill="#1f3645"/><circle cx="340.726" cy="208.31" fill="#d9dee8" r="140.394"/><circle cx="340.726" cy="208.31" fill="#eceef1" r="121.404"/><g fill="#1f3645"><g><path d="m356.331 181.282 55.963-32.31c-13.902-16.749-33.572-28.534-55.963-32.319z"/><path d="m427.918 240.631c3.733-10.067 5.776-20.955 5.776-32.321s-2.043-22.254-5.776-32.321l-55.982 32.321z"/><path d="m325.122 181.282v-64.629c-22.391 3.785-42.061 15.57-55.963 32.319z"/><path d="m325.122 235.338-55.963 32.31c13.902 16.749 33.572 28.534 55.963 32.319z"/><path d="m356.331 235.338v64.629c22.391-3.785 42.061-15.57 55.963-32.319z"/><path d="m253.535 175.989c-3.733 10.067-5.776 20.955-5.776 32.321s2.043 22.254 5.776 32.321l55.982-32.321z"/></g><circle cx="340.726" cy="208.31" r="18.633"/></g></g><circle cx="103.49" cy="150.011" fill="#b8bede" r="19.612"/><circle cx="115.093" cy="40.106" fill="#a8acd3" r="29.259"/><path d="m299.427 366.44c-7.12-9.12-17.42-15.64-29.23-17.9-.81-10.8-9.8-19.32-20.81-19.32-1.86 0-3.65.26-5.37.72.31-1.43.49-2.92.49-4.45 0-11.53-9.35-20.88-20.89-20.88-5.13 0-9.82 1.86-13.46 4.93.1-.95.16-1.92.16-2.9 0-14.71-11.92-26.63-26.63-26.63-4.44 0-8.63 1.1-12.32 3.03-.87-21-18.16-37.76-39.36-37.76-21.77 0-39.41 17.65-39.41 39.41 0 6.42 1.55 12.48 4.27 17.84-17.61 7.35-29.98 24.74-29.98 45.01 0 12.09 4.4 23.16 11.7 31.68l223.521.271z" fill="#d6d8e8"/><path d="m348.09 375.31c0 1.41-.16 2.79-.48 4.11h-89.81c-.17-1.35-.25-2.72-.25-4.11 0-18.74 15.18-33.92 33.92-33.92 13.02 0 24.32 7.34 30 18.11 2.56-1.4 5.5-2.2 8.62-2.2 9.94 0 18 8.06 18 18.01z" fill="#d6d8e8"/><g fill="#ca245f"><path d="m116.276 424.144c-.018 0-.037 0-.056 0-3.688.021-7.563.036-10.922.044v-49.401c0-5.375-4.357-9.732-9.732-9.732s-9.732 4.357-9.732 9.732v59.089c0 4.741 3.416 8.792 8.09 9.592.695.119 1.134.194 7.833.194 3.196 0 7.819-.017 14.573-.054 5.375-.03 9.707-4.411 9.678-9.786-.031-5.356-4.383-9.678-9.732-9.678z"/><path d="m146.219 365.056c-5.375 0-9.732 4.357-9.732 9.732v59.138c0 5.375 4.357 9.732 9.732 9.732s9.732-4.357 9.732-9.732v-59.138c0-5.375-4.357-9.732-9.732-9.732z"/><path d="m269.08 424.194h-14.96v-9.835h13.138c5.375 0 9.732-4.357 9.732-9.732s-4.357-9.732-9.732-9.732h-13.138v-9.835h14.959c5.375 0 9.732-4.357 9.732-9.732s-4.357-9.732-9.732-9.732h-24.691c-5.375 0-9.732 4.357-9.732 9.732v58.599c0 5.375 4.357 9.732 9.732 9.732h24.691c5.375 0 9.732-4.357 9.732-9.732.001-5.376-4.357-9.733-9.731-9.733z"/><path d="m219.397 365.66c-5.102-1.696-10.61 1.067-12.304 6.167l-11.512 34.653-12.109-34.885c-1.763-5.078-7.31-7.766-12.386-6.002-5.078 1.762-7.765 7.308-6.003 12.385l20.243 58.314c1.566 4.413 5.751 7.365 10.428 7.365h.074c4.707-.031 8.888-3.047 10.426-7.569l19.309-58.125c1.696-5.1-1.065-10.608-6.166-12.303z"/></g><g fill="#1f3645"><path d="m460.58 409.89c-6.88 9.14-14.36 17.81-22.4 25.94h-121.11c-7.16 0-12.97-5.81-12.97-12.97 0-3.58 1.45-6.82 3.8-9.17s5.59-3.8 9.17-3.8z"/><path d="m416.85 455.15c-12.08 9.78-25.07 18.48-38.82 25.94h-102.5c-7.16 0-12.96-5.81-12.96-12.97 0-3.58 1.45-6.83 3.79-9.17 2.35-2.35 5.59-3.8 9.17-3.8z"/></g></g></svg>