<svg id="Capa_1" enable-background="new 0 0 512 512" height="512" viewBox="0 0 512 512" width="512" xmlns="http://www.w3.org/2000/svg"><g><path d="m512 256c0 22.16-2.82 43.66-8.11 64.17-4.74 18.37-44.393 3.021-52.87 19.552-5.921 11.545 20.228 55.503 12.69 65.948-46.49 64.41-122.21 106.33-207.71 106.33s-161.22-41.92-207.71-106.33c-18.33-25.4-32.13-54.3-40.18-85.5-5.29-20.51-8.11-42.01-8.11-64.17s2.82-43.66 8.11-64.17c9.03-34.97 25.26-67.04 47.01-94.54 46.89-59.26 119.45-97.29 200.88-97.29s153.99 38.03 200.88 97.29c21.75 27.5 37.98 59.57 47.01 94.54 5.29 20.51 8.11 42.01 8.11 64.17z" fill="#efc64c"/><g><path d="m503.89 155.14v165.03c-8.05 31.2-21.85 60.1-40.18 85.5-5.94 2-12.29 3.08-18.9 3.08h-377.62c-6.61 0-12.96-1.08-18.9-3.08-23.36-7.89-40.18-29.98-40.18-56v-194.53c0-28.49 20.17-52.28 47.01-57.85 3.9-.81 7.94-1.23 12.07-1.23h377.62c4.13 0 8.17.42 12.07 1.23 26.84 5.57 47.01 29.36 47.01 57.85z" fill="#2e4f5f"/><path d="m86.446 408.763h-19.26c-32.628 0-59.08-26.452-59.08-59.09v-194.53c0-32.628 26.452-59.08 59.08-59.08h19.26c-32.628 0-59.09 26.452-59.09 59.08v194.529c0 32.639 26.462 59.091 59.09 59.091z" fill="#1f3645"/><path d="m445.562 217.581v69.655c0 15.633 12.373 28.382 27.854 28.981v33.451c0 15.776-12.83 28.616-28.605 28.616h-377.621c-15.775 0-28.605-12.84-28.605-28.616v-194.529c0-15.776 12.83-28.605 28.605-28.605h377.62c15.775 0 28.605 12.83 28.605 28.605v33.451c-15.481.599-27.853 13.348-27.853 28.991z" fill="#9dc6fb"/><path d="m96.578 378.284h-29.388c-15.776 0-28.605-12.84-28.605-28.616v-194.529c0-15.776 12.83-28.605 28.605-28.605h29.388c-15.776 0-28.606 12.83-28.606 28.605v194.529c0 15.776 12.83 28.616 28.606 28.616z" fill="#80b4fb"/><path d="m472.413 286.864c4.198 0 7.601-3.403 7.601-7.6v-53.71c0-4.198-3.403-7.601-7.6-7.601-4.198 0-7.601 3.403-7.601 7.601v53.71c-.001 4.198 3.402 7.6 7.6 7.6z" fill="#1f3645"/></g><g><g fill="#d6d8e8"><path d="m197.045 309.209h-90.882c-17.16 0-31.071-13.911-31.071-31.071v-106.083c0-17.16 13.911-31.071 31.071-31.071h90.882c17.16 0 31.071 13.911 31.071 31.071v106.083c0 17.16-13.911 31.071-31.071 31.071z"/><path d="m393.645 309.209h-90.882c-17.16 0-31.071-13.911-31.071-31.071v-106.083c0-17.16 13.911-31.071 31.071-31.071h90.882c17.16 0 31.071 13.911 31.071 31.071v106.083c0 17.16-13.911 31.071-31.071 31.071z"/></g><g fill="#b8bede"><path d="m124.288 309.211h-18.122c-17.167 0-31.074-13.907-31.074-31.074v-106.082c0-17.157 13.907-31.064 31.074-31.064h18.122c-17.167 0-31.074 13.906-31.074 31.064v106.082c0 17.167 13.907 31.074 31.074 31.074z"/><path d="m320.889 309.211h-18.132c-17.157 0-31.064-13.907-31.064-31.074v-106.082c0-17.157 13.907-31.064 31.064-31.064h18.132c-17.167 0-31.074 13.906-31.074 31.064v106.082c0 17.167 13.907 31.074 31.074 31.074z"/></g><g><path d="m353.137 281.214c-19.318.001-35.771-14.234-38.447-33.414-.249-1.782-.375-3.6-.375-5.405 0-4.208 3.411-7.619 7.619-7.619s7.619 3.411 7.619 7.619c0 1.103.077 2.213.228 3.299 1.625 11.641 11.623 20.283 23.361 20.283.162 0 .321-.001.483-.005 12.294-.247 22.423-10.048 23.059-22.312.34-6.544-1.95-12.758-6.448-17.495-4.501-4.741-10.575-7.352-17.101-7.352-8.681 0-12.433 1.387-16.786 3.346-.557.251-.899.421-.971.458-2.561 1.305-5.648 1.063-7.969-.635-2.32-1.698-3.496-4.552-3.027-7.388l7.593-45.829c.609-3.677 3.789-6.373 7.516-6.373h38.328c4.208 0 7.619 3.411 7.619 7.619s-3.411 7.619-7.619 7.619h-31.869l-4.456 26.898c3.285-.621 7.014-.951 11.639-.951 10.592 0 20.852 4.409 28.151 12.098 7.404 7.798 11.174 18.017 10.615 28.776-1.049 20.204-17.727 36.349-37.969 36.757-.263.004-.531.006-.793.006z" fill="#ca245f"/></g><g><path d="m148.445 279.464c-19.46 0-20.849-.464-21.868-.804-2.59-.863-4.522-2.811-5.3-5.343-1.375-4.47.497-6.921 6.7-15.043 5.198-6.806 14.873-19.474 31.079-42.629 4.999-7.142 8.221-13.582 9.582-19.147l.386-3.022c-.237-9.988-8.436-18.041-18.48-18.041-8.814 0-16.443 6.264-18.137 14.893-.811 4.129-4.82 6.817-8.944 6.008-4.129-.811-6.819-4.815-6.008-8.944 3.095-15.758 17.011-27.194 33.089-27.194 18.595 0 33.722 15.128 33.722 33.722 0 .323-.02.646-.062.966l-.504 3.946c-.032.253-.077.505-.135.754-1.751 7.554-5.797 15.895-12.026 24.794-14.051 20.077-23.26 32.373-28.919 39.817 10.043.037 24.638-.054 38.255-.225 4.206-.05 7.661 3.315 7.714 7.522s-3.315 7.661-7.522 7.714c-14.42.183-24.933.256-32.622.256zm-18.105-15.515" fill="#453d81"/></g><g fill="#2e4f5f"><path d="m248.379 214.764c-4.208 0-7.619-3.411-7.619-7.619v-18.242c0-4.208 3.411-7.619 7.619-7.619s7.619 3.411 7.619 7.619v18.242c0 4.208-3.411 7.619-7.619 7.619z"/><path d="m248.379 268.908c-4.208 0-7.619-3.411-7.619-7.619v-18.241c0-4.208 3.411-7.619 7.619-7.619s7.619 3.411 7.619 7.619v18.241c0 4.208-3.411 7.619-7.619 7.619z"/></g></g><g><path d="m213.229 367.249h-123.251c-8.221 0-14.886-6.665-14.886-14.886v-12.539c0-8.221 6.665-14.886 14.886-14.886h123.251c8.221 0 14.886 6.665 14.886 14.886v12.539c.001 8.221-6.664 14.886-14.886 14.886z" fill="#d6d8e8"/><path d="m110.067 367.251h-20.093c-8.218 0-14.882-6.674-14.882-14.892v-12.535c0-8.228 6.664-14.892 14.882-14.892h20.093c-8.218 0-14.892 6.664-14.892 14.892v12.535c0 8.218 6.674 14.892 14.892 14.892z" fill="#b8bede"/><path d="m99.414 349.034h78.37c4.104 0 7.432-3.327 7.432-7.432 0-4.104-3.327-7.432-7.432-7.432h-78.37c-4.104 0-7.432 3.327-7.432 7.432 0 4.105 3.327 7.432 7.432 7.432z" fill="#453d81"/></g><g><path d="m409.83 367.249h-123.252c-8.221 0-14.886-6.665-14.886-14.886v-12.539c0-8.221 6.665-14.886 14.886-14.886h123.252c8.221 0 14.886 6.665 14.886 14.886v12.539c0 8.221-6.665 14.886-14.886 14.886z" fill="#d6d8e8"/><path d="m306.667 367.251h-20.093c-8.218 0-14.882-6.674-14.882-14.892v-12.535c0-8.228 6.664-14.892 14.882-14.892h20.093c-8.218 0-14.892 6.664-14.892 14.892v12.535c0 8.218 6.674 14.892 14.892 14.892z" fill="#b8bede"/><path d="m296.014 349.034h78.37c4.104 0 7.432-3.327 7.432-7.432 0-4.104-3.327-7.432-7.432-7.432h-78.37c-4.104 0-7.432 3.327-7.432 7.432 0 4.105 3.327 7.432 7.432 7.432z" fill="#ca245f"/></g></g></svg>