<svg id="Capa_1" enable-background="new 0 0 512 512" height="512" viewBox="0 0 512 512" width="512" xmlns="http://www.w3.org/2000/svg"><g><path d="m512 256c0 61.198-21.477 117.383-57.304 161.427-46.94 57.706-46.63 44.882-126.812 44.882-87.533 0-236.692 5.754-282.858-61.267-28.399-41.229-45.026-91.195-45.026-145.042 0-61.18 21.46-117.34 57.27-161.38 46.93-57.73 118.53-94.62 198.73-94.62s151.8 36.89 198.73 94.62c35.81 44.04 57.27 100.2 57.27 161.38z" fill="#2e4f5f"/><path d="m478.42 194.6c0 122.84-99.58 222.42-222.42 222.42s-222.42-99.58-222.42-222.42c0-35.96 8.54-69.93 23.69-99.98 46.93-57.73 118.53-94.62 198.73-94.62s151.8 36.89 198.73 94.62c15.15 30.05 23.69 64.02 23.69 99.98z" fill="#426b7b"/><path d="m311.808 16.623h-111.616c-20.551 0-37.905 15.262-40.531 35.645l-36.012 279.604h264.703l-36.013-279.604c-2.625-20.383-19.979-35.645-40.531-35.645z" fill="#ca245f"/><path d="m238.921 16.618c-6.3 0-11.61 15.27-12.41 35.65l-11.03 279.6h-91.83l36.01-279.6c2.63-20.38 19.98-35.65 40.53-35.65h38.73z" fill="#b7004f"/><path d="m397.945 317.24h-283.89c-14.325 0-25.938 11.613-25.938 25.938 0 14.325 11.613 25.938 25.938 25.938h283.889c14.325 0 25.938-11.613 25.938-25.938.001-14.325-11.612-25.938-25.937-25.938z" fill="#d6d8e8"/><path d="m181.677 361.518c4.69 4.7 11.18 7.6 18.34 7.6h-85.96c-7.16 0-13.65-2.9-18.34-7.6-4.7-4.7-7.6-11.18-7.6-18.34 0-14.33 11.61-25.94 25.94-25.94h85.96c-14.33 0-25.94 11.61-25.94 25.94 0 7.16 2.9 13.64 7.6 18.34z" fill="#b8bede"/><g><path d="m475.22 435.6c0 42.2-34.2 76.4-76.39 76.4h-142.83c-43.5 0-84.46-10.85-120.34-30-13.87-7.4-26.99-16.04-39.19-25.78-10.44-8.33-20.22-17.46-29.21-27.29-8.05-8.76-15.48-18.07-22.23-27.89 12.61-24.82 38.39-41.83 68.14-41.83h285.66c21.09 0 40.19 8.55 54.02 22.37 5.67 5.68 10.46 12.24 14.12 19.46 5.28 10.38 8.25 22.12 8.25 34.56z" fill="#9dc6fb"/><path d="m93.65 435.6c0 7.14.98 14.06 2.82 20.62-19.74-15.74-37.09-34.35-51.44-55.18 12.61-24.82 38.39-41.83 68.14-41.83h56.88c-42.19 0-76.4 34.2-76.4 76.39z" fill="#80b4fb"/><path d="m445.22 435.6c0 25.59-20.81 46.4-46.39 46.4h-263.17c-13.87-7.4-26.99-16.04-39.19-25.78-10.44-8.33-20.22-17.46-29.21-27.29 3.24-22.43 22.59-39.72 45.91-39.72h285.66c23.32 0 42.68 17.3 45.91 39.74.32 2.17.48 4.39.48 6.65z" fill="#80b4fb"/><g fill="#efc64c"><path d="m306.041 404.427c-.025-.068-.052-.135-.079-.202-1.366-3.326-4.572-5.474-8.168-5.474-.002 0-.005 0-.007 0-3.6.003-6.805 2.157-8.167 5.488-.022.056-.045.112-.066.169l-22.044 57.88c-1.475 3.871.469 8.204 4.34 9.678 3.865 1.475 8.203-.468 9.678-4.339l3.65-9.584h25.065l3.609 9.563c1.133 3.003 3.987 4.854 7.018 4.854.88 0 1.775-.156 2.647-.485 3.875-1.462 5.831-5.79 4.368-9.665zm-15.15 38.615 6.877-18.056 6.814 18.056z"/><path d="m228.133 398.75c-.025 0-.05 0-.074 0-4.143.04-7.468 3.43-7.428 7.572l.342 35.25-27.26-39.474c-1.864-2.701-5.267-3.873-8.404-2.898-3.133.977-5.268 3.878-5.268 7.16v58.597c0 4.142 3.357 7.5 7.5 7.5s7.5-3.358 7.5-7.5v-34.538l25.949 37.576c2.198 3.177 5.866 4.525 9.346 3.44 3.55-1.108 5.844-4.428 5.844-8.529l-.549-56.729c-.04-4.117-3.39-7.427-7.498-7.427z"/><path d="m341.267 398.75c-4.143 0-7.5 3.358-7.5 7.5v58.707c0 4.142 3.357 7.5 7.5 7.5s7.5-3.358 7.5-7.5v-58.707c0-4.142-3.358-7.5-7.5-7.5z"/><path d="m390.5 443.244c9.617-2.881 16.619-11.536 16.619-21.737 0-12.548-10.596-22.757-23.62-22.757h-15.601c-1.993 0-3.905.793-5.312 2.206-1.407 1.412-2.194 3.326-2.188 5.319l-.02 58.682c0 4.142 3.357 7.5 7.5 7.5s7.5-3.358 7.5-7.5v-16.19l18.61 21.146c1.482 1.685 3.553 2.545 5.633 2.545 1.76 0 3.527-.616 4.952-1.87 3.109-2.736 3.411-7.476.675-10.585zm-7.001-29.494c4.673 0 8.62 3.552 8.62 7.757s-3.947 7.757-8.62 7.757c-1.882 0-5.049.013-8.034.027-.015-2.908-.035-12.491-.044-15.542h8.078z"/><path d="m136.072 398.75c-20.32 0-36.853 16.532-36.853 36.854s16.532 36.854 36.853 36.854 36.854-16.532 36.854-36.854-16.532-36.854-36.854-36.854zm0 58.707c-12.05 0-21.853-9.803-21.853-21.854s9.803-21.854 21.853-21.854 21.854 9.803 21.854 21.854-9.804 21.854-21.854 21.854z"/></g></g><g fill="#df6892"><path d="m338.02 220.085c-7.432 0-13.884-5.519-14.858-13.085l-14.353-111.427c-1.059-8.217 4.744-15.735 12.961-16.793 8.223-1.064 15.734 4.745 16.793 12.96l14.353 111.427c1.059 8.217-4.744 15.735-12.961 16.793-.65.085-1.298.125-1.935.125z"/><path d="m318.874 71.794c-8.284 0-15-6.716-15-15v-.5c0-8.284 6.716-15 15-15s15 6.716 15 15v.5c0 8.284-6.716 15-15 15z"/></g></g></svg>