<svg id="Capa_1" enable-background="new 0 0 512 512" height="512" viewBox="0 0 512 512" width="512" xmlns="http://www.w3.org/2000/svg"><g><path d="m512 256c0 81.16-37.77 153.5-96.69 200.4-4.531 3.608-35.869-1.991-40.643 1.308-7.269 5.022 11.869 18.731 4.083 22.992-36.45 19.95-78.27 31.3-122.75 31.3s-86.3-11.35-122.75-31.3c-12.9-7.06-25.13-15.2-36.56-24.3-58.92-46.9-96.69-119.24-96.69-200.4 0-141.38 114.62-256 256-256s256 114.62 256 256z" fill="#9dc6fb"/><path d="m333.834 447.071h-155.668l14.857-56.865h125.954z" fill="#1f3645"/><path d="m435.205 408.496h-358.41c-34.363 0-62.22-27.857-62.22-62.22v-258.648c0-34.363 27.857-62.22 62.22-62.22h358.41c34.363 0 62.22 27.857 62.22 62.22v258.648c0 34.363-27.857 62.22-62.22 62.22z" fill="#2e4f5f"/><path d="m108.715 408.496h-31.92c-34.36 0-62.22-27.86-62.22-62.22v-258.65c0-34.36 27.86-62.22 62.22-62.22h31.92c-34.36 0-62.22 27.86-62.22 62.22v258.65c0 34.36 27.86 62.22 62.22 62.22z" fill="#1f3645"/><path d="m457.42 87.63v258.65c0 12.25-9.96 22.22-22.21 22.22h-95.31l-83.95-49.462-71.31 49.462h-107.85c-12.25 0-22.21-9.97-22.21-22.22v-258.65c0-12.25 9.96-22.22 22.21-22.22h358.42c12.25 0 22.21 9.97 22.21 22.22z" fill="#9ddea3"/><path d="m161.005 368.496h-84.21c-12.25 0-22.22-9.97-22.22-22.22v-258.65c0-12.25 9.97-22.22 22.22-22.22h84.21c-36.79 0-66.61 29.82-66.61 66.61v169.86c0 36.79 29.82 66.62 66.61 66.62z" fill="#88c98b"/><path d="m415.31 456.4c-11.43 9.1-23.66 17.24-36.56 24.3h-261.12c-5.85 0-11.14-2.37-14.97-6.2-3.83-3.82-6.2-9.12-6.2-14.96 0-1.07.08-2.12.23-3.14 1.52-10.2 10.32-18.02 20.94-18.02h276.74c5.85 0 11.14 2.37 14.97 6.2 3.13 3.12 5.28 7.23 5.97 11.82z" fill="#2e4f5f"/><path d="m158.532 474.511c3.83 3.83 9.11 6.2 14.96 6.2h-55.86c-5.85 0-11.14-2.37-14.97-6.2s-6.2-9.12-6.2-14.97c0-11.68 9.48-21.16 21.17-21.16h55.86c-11.69 0-21.16 9.48-21.16 21.16 0 5.85 2.37 11.14 6.2 14.97z" fill="#1f3645"/><path d="m410.07 223.56v32.99c0 33.99-13.64 64.8-35.74 87.23-9.93 10.09-21.56 18.48-34.43 24.72h-28.03l-48.937-24.521-50.263 24.521h-28.03c-12.87-6.24-24.5-14.63-34.43-24.72-22.1-22.43-35.74-53.24-35.74-87.23v-59.46l35.74 42.62 33-156.74 44 79.74 29.45-97.3 19.8-65.41 13.96 65.41 27.53 128.93 34.37-75.62 23.38 139.21z" fill="#ca245f"/><path d="m295.961 217.128-48.279-27.874c-12.738-7.354-28.661 1.839-28.661 16.547v55.748c0 14.709 15.923 23.902 28.661 16.547l48.279-27.874c12.738-7.354 12.738-25.739 0-33.094z" fill="#eceef1"/><path d="m333.89 338.47c0 3.65-1.14 7.2-3.24 10.18-5.59 7.94-11.91 14.65-18.78 19.85h-99.2c-4.46-3.37-8.69-7.4-12.64-11.97-6.05-7-9.38-15.94-9.38-25.19l17.32 11.48 15.99-82.49 21.32 61.74 23.87-98.86 20.1 107.38 16.66-44.13 11.32 61.28z" fill="#efc64c"/></g></svg>