<svg id="Capa_1" enable-background="new 0 0 512 512" height="512" viewBox="0 0 512 512" width="512" xmlns="http://www.w3.org/2000/svg"><g><path d="m512 256c0 121.37-84.47 223.01-197.82 249.35-18.69 4.35-38.17-26.71-58.18-26.71-20.35 0-40.14 30.99-59.11 26.49-112.89-26.67-196.89-128.1-196.89-249.13 0-141.38 114.62-256 256-256s256 114.62 256 256z" fill="#9ddea3"/><path d="m314.18 409.02v96.33c-18.69 4.35-38.17 6.65-58.18 6.65-20.35 0-40.14-2.37-59.11-6.87v-96.11z" fill="#2e4f5f"/><path d="m403.766 224.187v155.424c0 33.761-27.365 61.126-61.116 61.126h-173.301c-33.751 0-61.116-27.365-61.116-61.126v-155.424c0-33.761 27.365-61.126 61.116-61.126h173.302c33.751 0 61.115 27.365 61.115 61.126z" fill="#426b7b"/><g><path d="m188.16 391.811c-16.374 0-31.066-10.955-35.729-26.64-1.025-3.416-1.551-7.008-1.551-10.64s.525-7.224 1.562-10.675c1.727-5.85 4.969-11.294 9.359-15.685 7.062-7.046 16.42-10.92 26.359-10.92h135.68c16.369 0 31.061 10.954 35.729 26.637 1.026 3.419 1.552 7.011 1.552 10.643s-.525 7.224-1.562 10.675c-1.727 5.85-4.969 11.294-9.359 15.685-7.062 7.046-16.419 10.92-26.359 10.92z" fill="#2e4f5f"/><path d="m347.12 354.531c0 2.31-.34 4.55-.97 6.65-1.11 3.76-3.15 7.11-5.85 9.81-4.22 4.21-10.04 6.82-16.46 6.82h-135.68c-10.54 0-19.45-7.01-22.31-16.63-.63-2.1-.97-4.34-.97-6.65s.34-4.55.97-6.65c1.11-3.76 3.15-7.11 5.85-9.81 4.22-4.21 10.04-6.82 16.46-6.82h135.68c10.54 0 19.45 7.02 22.31 16.63.63 2.1.97 4.34.97 6.65z" fill="#d6d8e8"/><g fill="#b8bede"><path d="m347.12 354.531c0 2.31-.34 4.55-.97 6.65h-180.3c-.63-2.1-.97-4.34-.97-6.65s.34-4.55.97-6.65h180.3c.63 2.1.97 4.34.97 6.65z"/><path d="m249.35 331.251h13.3v46.56h-13.3z"/><g><path d="m296.57 331.251h13.3v46.56h-13.3z"/><path d="m202.13 331.251h13.3v46.56h-13.3z"/></g></g></g><path d="m403.766 248.711v57.499c0-41.977-34.03-76.007-76.007-76.007h-143.519c-41.977 0-76.007 34.03-76.007 76.007v-57.499c0-33.761 27.365-61.126 61.116-61.126h173.302c33.751 0 61.115 27.365 61.115 61.126z" fill="#2e4f5f"/><path d="m55.23 217.157v119.45c0 15.954 12.934 28.888 28.888 28.888 15.955 0 28.888-12.934 28.888-28.888v-66.487c0-40.623 32.932-73.555 73.555-73.555h138.875c40.623 0 73.555 32.932 73.555 73.555v66.488c0 15.954 12.934 28.888 28.888 28.888 15.955 0 28.888-12.934 28.888-28.888v-119.451c0-110.882-89.888-200.769-200.769-200.769-110.88-.001-200.768 89.887-200.768 200.769z" fill="#ca245f"/><path d="m256 16.387c16.24 0 32.04 1.93 47.16 5.57-36.51 8.78-69.13 27.54-94.83 53.23-33.96 33.96-55.81 80.04-58.51 131.19-22 12.71-36.81 36.5-36.81 63.74v66.49c0 7.97-3.23 15.19-8.46 20.42s-12.45 8.46-20.43 8.46c-15.95 0-28.89-12.93-28.89-28.88v-119.45c0-55.44 22.47-105.64 58.8-141.97 36.34-36.33 86.53-58.8 141.97-58.8z" fill="#b7004f"/><g><path d="m230.15 259.551c0 18.73-15.19 33.92-33.92 33.92-18.74 0-33.92-15.19-33.92-33.92 0-12.4 6.65-23.25 16.58-29.16 5.07-3.03 11-4.76 17.34-4.76 6.21 0 12.02 1.66 17.02 4.57 10.11 5.88 16.9 16.82 16.9 29.35z" fill="#eceef1"/><path d="m344.76 259.551c0 18.73-15.18 33.92-33.91 33.92-18.74 0-33.92-15.19-33.92-33.92 0-12.54 6.79-23.48 16.9-29.35 5-2.91 10.82-4.57 17.02-4.57 6.21 0 12.02 1.66 17.02 4.57 10.1 5.88 16.89 16.82 16.89 29.35z" fill="#eceef1"/><g fill="#d6d8e8"><path d="m319.32 292.401c-2.71.7-5.55 1.07-8.47 1.07-18.74 0-33.92-15.19-33.92-33.92 0-12.54 6.79-23.48 16.9-29.35 5-2.91 10.82-4.57 17.02-4.57 2.93 0 5.78.37 8.48 1.07-3.03.78-5.9 1.96-8.54 3.5-10.11 5.87-16.9 16.81-16.9 29.35 0 15.8 10.8 29.08 25.43 32.85z"/><path d="m204.7 292.401c-2.71.7-5.55 1.07-8.47 1.07-18.74 0-33.92-15.19-33.92-33.92 0-12.54 6.79-23.48 16.9-29.35 5-2.91 10.82-4.57 17.02-4.57 2.93 0 5.78.37 8.48 1.07-3.03.78-5.9 1.96-8.54 3.5-10.11 5.87-16.9 16.81-16.9 29.35 0 15.8 10.8 29.08 25.43 32.85z"/><path d="m196.23 225.631c6.21 0 12.02 1.66 17.02 4.57h-29.01c-1.8 0-3.58.06-5.35.19 5.07-3.03 11-4.76 17.34-4.76z"/><path d="m327.87 230.201h-34.04c5-2.91 10.82-4.57 17.02-4.57 6.21 0 12.02 1.66 17.02 4.57z"/></g><circle cx="310.845" cy="259.547" fill="#2e4f5f" r="16.286"/><circle cx="196.228" cy="259.547" fill="#2e4f5f" r="16.286"/></g><path d="m420.28 253.47c-5.53 0-10 4.48-10 10v71.06c0 28.43-23.13 51.56-51.56 51.56h-205.72c-28.3-.15-51.28-23.22-51.28-51.56v-71.06c0-5.52-4.47-10-10-10-5.52 0-10 4.48-10 10v163.62c0 39.36 31.95 71.4 71.28 71.55h205.72c39.46 0 71.56-32.1 71.56-71.55v-163.62c0-5.52-4.48-10-10-10zm-234.8 225.17h-32.48c-28.3-.15-51.28-23.22-51.28-51.55v-43.01c12.97 13.49 31.15 21.93 51.28 22.01h32.48zm121.04 0h-101.04v-72.55h101.04zm103.76-51.55c0 28.42-23.13 51.55-51.56 51.55h-32.2v-72.55h32.2c20.24 0 38.53-8.46 51.56-22.01z" fill="#eceef1"/><g><path d="m38.15 0h117.239c21.07 0 38.15 17.08 38.15 38.15v69.353c0 21.07-17.08 38.15-38.15 38.15h-.425v20.571c0 9.637-11.626 14.492-18.48 7.717l-28.617-28.288h-69.717c-21.07 0-38.15-17.08-38.15-38.15v-69.353c0-21.07 17.08-38.15 38.15-38.15z" fill="#efc64c"/><path d="m19.83 38.153v69.35c0 21.07 17.08 38.15 38.15 38.15h-19.83c-21.07 0-38.15-17.08-38.15-38.15v-69.35c0-21.07 17.08-38.15 38.15-38.15h19.83c-21.07 0-38.15 17.08-38.15 38.15z" fill="#e3a12f"/><path d="m153.7 171.363c-3.18 5.97-11.73 8.01-17.22 2.58l-28.61-28.29h19.82z" fill="#e3a12f"/><g fill="#2e4f5f"><path d="m130.946 41.769h-94.774c-5.234 0-9.477-4.243-9.477-9.477 0-5.234 4.243-9.477 9.477-9.477h94.774c5.234 0 9.477 4.243 9.477 9.477.001 5.234-4.242 9.477-9.477 9.477z"/><path d="m130.946 73.48h-94.774c-5.234 0-9.477-4.243-9.477-9.477 0-5.234 4.243-9.477 9.477-9.477h94.774c5.234 0 9.477 4.243 9.477 9.477.001 5.234-4.242 9.477-9.477 9.477z"/><path d="m101.181 104.229h-65.009c-5.234 0-9.477-4.243-9.477-9.477 0-5.234 4.243-9.477 9.477-9.477h65.008c5.234 0 9.477 4.243 9.477 9.477.001 5.234-4.242 9.477-9.476 9.477z"/></g></g><path d="m101.72 384.08v43.01c0 28.33 22.98 51.4 51.28 51.55v20c-39.33-.15-71.28-32.19-71.28-71.55v-163.62c0-5.52 4.48-10 10-10 5.53 0 10 4.48 10 10v71.06c0 28.34 22.98 51.41 51.28 51.56v20c-20.13-.08-38.31-8.52-51.28-22.01z" fill="#d6d8e8"/><g fill="#2e4f5f"><circle cx="378.362" cy="281.159" r="12.47"/><circle cx="378.362" cy="321.23" r="12.47"/><circle cx="378.362" cy="361.302" r="12.47"/><circle cx="133.638" cy="281.159" r="12.47"/><circle cx="133.638" cy="321.23" r="12.47"/><circle cx="133.638" cy="361.302" r="12.47"/></g></g></svg>