<svg id="Capa_1" enable-background="new 0 0 512 512" height="512" viewBox="0 0 512 512" width="512" xmlns="http://www.w3.org/2000/svg"><g><path d="m512 256c0 80.801-37.434 152.858-95.905 199.776-43.842 35.179-116.783-16.292-177.367-16.292-26.51 0-34.806 68.487-58.854 61.007-104.21-32.413-179.874-129.616-179.874-244.491 0-141.385 114.615-256 256-256s256 114.615 256 256z" fill="#9ddea3"/><path d="m416.25 64.39v387.05c0 1.46-.05 2.9-.16 4.33-43.84 35.18-99.51 56.23-160.09 56.23h-99.69c-31.99 0-58.19-24.8-60.4-56.23-.11-1.43-.16-2.87-.16-4.33v-387.05c0-2.89.2-5.73.6-8.52 4.13-29.41 29.4-52.04 59.96-52.04h199.38c30.56 0 55.83 22.63 59.96 52.04.4 2.79.6 5.63.6 8.52z" fill="#2e4f5f"/><path d="m182.337 512h-26.03c-33.45 0-60.56-27.11-60.56-60.56v-387.05c0-33.45 27.11-60.56 60.56-60.56h26.03c-33.45 0-60.56 27.11-60.56 60.56v387.05c0 33.45 27.11 60.56 60.56 60.56z" fill="#1f3645"/><path d="m385.02 64.39v51.45l-46.34 94.29 46.34 220.38v20.93c0 10.94-6.02 20.49-14.92 25.52-4.25 2.42-9.17 3.8-14.41 3.8h-199.39c-1.68 0-3.32-.14-4.92-.42-13.84-2.34-24.4-14.41-24.4-28.9v-20.93l39.036-73.428-39.036-241.242v-51.45c0-14.49 10.56-26.56 24.4-28.9 1.6-.28 3.24-.42 4.92-.42h34.29c.4 10.31 6.05 19.27 14.35 24.28 4.48 2.71 9.74 4.27 15.36 4.27h71.4c10.38 0 19.53-5.33 24.84-13.4 2.89-4.38 4.65-9.57 4.86-15.15h34.29c5.24 0 10.16 1.38 14.41 3.8 8.9 5.03 14.92 14.58 14.92 25.52z" fill="#80b4fb"/><path d="m291.318 36.096c0-4.303-3.488-7.79-7.79-7.79h-55.052c-4.303 0-7.79 3.488-7.79 7.79 0 4.302 3.488 7.79 7.79 7.79h55.052c4.302 0 7.79-3.487 7.79-7.79z" fill="#1f3645"/><path d="m385.02 115.84v17.34l-5.794 27.634 5.794 7.946v42.96l-6.792 21.089 6.792 14.481v183.22h-258.04v-112.39l2.674-40.473-2.674-28.147v-18.37l11.098-43.934-11.098-54.026v-17.33z" fill="#426b7b"/><g><path d="m245.405 264.73 31.697 31.697 22.805-22.805c4.911-4.911 12.872-4.911 17.783 0 4.911 4.911 4.911 12.872 0 17.783l-31.697 31.697c-4.911 4.911-12.872 4.911-17.783 0l-21.094-21.094" fill="#ffddce"/><path d="m238.819 244.231-4.194 15.432-13.586 2.354-10.351-10.351-22.805 22.805c-4.909 4.909-12.871 4.909-17.786 0-2.455-2.454-3.682-5.674-3.682-8.893 0-3.214 1.227-6.433 3.682-8.893l31.698-31.698c4.914-4.909 12.871-4.909 17.786 0z" fill="#ffddce"/><path d="m228.024 248.699h25.151v30.191h-25.151z" fill="#ca245f" transform="matrix(.707 -.707 .707 .707 -116.061 247.394)"/><path d="m265.91 288.993c-.71 7.78-9.561 9.839-15.521 15.789l-.699 11.741-18.45 18.46-10.14-5.8-10.21-34.76 39.06-39.06 5.96 5.96c7.57 7.57 10.91 17.78 10 27.67z" fill="#ca245f"/><path d="m203.717 337.168-19.914 19.914c-2.457 2.457-5.67 3.681-8.893 3.681-3.213 0-6.436-1.224-8.893-3.681l-26.563-26.574c-4.915-4.915-4.915-12.872 0-17.787 2.457-2.447 5.67-3.681 8.883-3.681 3.223 0 6.447 1.234 8.893 3.681l17.68 17.68 11.021-11.021 14.054 4.143z" fill="#ffddce"/><path d="m189.785 303.533h34.406v25.154h-34.406z" fill="#80b4fb" transform="matrix(.707 -.707 .707 .707 -162.898 238.948)"/><path d="m272.788 276.72c-13.947-.004-25.255-11.312-25.255-25.255v-13.525c0-13.948 11.307-15.937 25.255-15.938v-9.319c13.95-.001 25.259 11.307 25.259 25.257v13.521c-.001 13.951-11.309 25.259-25.259 25.259z" fill="#ffddce"/><path d="m257.268 346.721v41.658c0 6.946-5.627 12.574-12.574 12.574-6.936 0-12.574-5.628-12.574-12.574v-36.445l-5.51-5.51 4.633-11.444 13.154-6.343 9.191 9.202c2.361 2.35 3.68 5.552 3.68 8.882z" fill="#ffddce"/><path d="m244.396 328.636-17.787 17.787-16.074-16.074c-9.819-9.829-9.819-25.754 0-35.573z" fill="#9dc6fb"/><g fill="#e3a12f"><path d="m310.38 210.315-11.755 11.755c.237-1.112.368-2.263.368-3.446 0-9.085-7.365-16.45-16.45-16.45v7.007c-4.82-4.49-12.077-5.826-18.366-2.787l4.171 8.631c-.273-.135-.539-.28-.823-.402-8.354-3.569-18.02.31-21.59 8.664l4.235 1.809c-8.22 2.037-13.644 10.062-12.271 18.572l49.903-9.471c6.459 5.777 16.373 5.582 22.576-.621 6.426-6.422 6.426-16.837.002-23.261z"/><path d="m262.009 247.349h1.898c3.642 0 6.863-2.364 7.955-5.839l3.353-10.67-16.155 2.358"/><path d="m253.243 264.33h3.814v-25.234h-11.084v17.964c-.001 4.014 3.254 7.27 7.27 7.27z"/></g><circle cx="281.525" cy="249.649" fill="#2e4f5f" r="4.776"/><path d="m259.061 233.199c-3.061 0-5.542 2.481-5.542 5.542v6.603c0 3.061 2.481 5.542 5.542 5.542 3.061 0 5.542-2.481 5.542-5.542v-6.603c0-3.061-2.481-5.542-5.542-5.542z" fill="#ffddce"/><path d="m265.91 288.993c-.71 7.78-4.04 15.36-10 21.31l-6.22 6.22-7.21-7.22c-1.98-1.98-1.98-5.19 0-7.17l14.69-14.7c1.98-1.98 5.19-1.98 7.18 0z" fill="#eceef1"/></g><g><path d="m385.02 133.18v35.58l-6.8 6.8c-4.91 4.9-12.87 4.9-17.78 0-2.46-2.46-3.69-5.68-3.69-8.9 0-3.21 1.23-6.43 3.69-8.89z" fill="#ffddce"/><path d="m385.02 223.05v24.24l-10.88 10.88c-2.46 2.45-5.67 3.68-8.89 3.68-3.21 0-6.44-1.23-8.89-3.68l-26.57-26.58c-4.91-4.91-4.91-12.87 0-17.78 2.46-2.45 5.67-3.68 8.89-3.68s6.44 1.23 8.89 3.68l17.68 17.68 11.02-11.02z" fill="#ffddce"/><path d="m385.02 211.72v17.5l-8.75-8.75z" fill="#80b4fb"/></g><g><path d="m135.359 197.84 16.116 16.116 22.805-22.805c4.911-4.911 12.872-4.911 17.783 0 4.911 4.911 4.911 12.872 0 17.783l-31.697 31.697c-4.911 4.911-12.872 4.911-17.783 0l-13.785-13.785" fill="#ffddce"/><path d="m140.28 206.52c-.63 6.86-7.58 9.27-13.3 13.82v-44.79l3.3 3.3c7.57 7.57 10.91 17.78 10 27.67z" fill="#9ddea3"/><path d="m172.42 155.47v13.52c0 13.95-11.31 25.26-25.26 25.26-8.25 0-15.57-3.95-20.18-10.07v-40.5c4.61-3.45 11.93-4.15 20.18-4.15v-9.32c13.95 0 25.26 11.31 25.26 25.26z" fill="#ffddce"/><path d="m136.52 264.25v41.66c0 5.9-4.06 10.85-9.54 12.21v-68.62l5.86 5.87c2.36 2.35 3.68 5.55 3.68 8.88z" fill="#ffddce"/><g fill="#1f3645"><path d="m184.75 151.11c-6.2 6.2-16.11 6.4-22.57.62l-14.51 2.75-12.95 2.46-3.29.62-4.45.85v-25.24c4.37-2.62 9.88-3.17 14.92-1.02.28.13.55.27.82.41l-4.17-8.64c6.29-3.03 13.55-1.7 18.37 2.79v-7.01c9.08 0 16.45 7.37 16.45 16.45 0 1.19-.13 2.34-.37 3.45l11.75-11.76c6.43 6.43 6.43 16.84 0 23.27z"/><path d="m136.382 164.879h1.898c3.642 0 6.863-2.364 7.955-5.839l3.353-10.67-16.155 2.358z"/><path d="m131.43 156.62v25.24h-3.81c-.22 0-.43-.01-.64-.03v-25.21z"/></g><circle cx="155.898" cy="167.179" fill="#2e4f5f" r="4.776"/><path d="m133.434 150.729c-3.061 0-5.542 2.481-5.542 5.542v6.603c0 3.061 2.481 5.542 5.542 5.542 3.061 0 5.542-2.481 5.542-5.542v-6.603c0-3.061-2.481-5.542-5.542-5.542z" fill="#ffddce"/><path d="m140.28 206.52c-.71 7.78-4.04 15.36-10 21.31l-3.3 3.3v-21.61l4.56-4.56c1.98-1.98 5.19-1.98 7.18 0z" fill="#eceef1"/></g><g fill="#ca245f"><path d="m341.881 421.992-.964.964-.964-.964c-5.858-5.858-15.356-5.858-21.215 0s-5.858 15.356 0 21.215l.964.964 21.215 21.215 21.215-21.215.964-.964c5.858-5.858 5.858-15.356 0-21.215-5.859-5.859-15.357-5.859-21.215 0z"/><path d="m304.87 360.379-.964.964-.964-.964c-5.858-5.858-15.356-5.858-21.215 0-5.858 5.858-5.858 15.356 0 21.215l.964.964 21.215 21.215 21.215-21.215.964-.964c5.858-5.858 5.858-15.356 0-21.215-5.859-5.858-15.357-5.858-21.215 0z"/><path d="m353.753 314.488-.964.964-.964-.964c-5.858-5.858-15.356-5.858-21.215 0s-5.858 15.356 0 21.215l.964.964 21.215 21.215 21.215-21.215.964-.964c5.858-5.858 5.858-15.356 0-21.215s-15.356-5.858-21.215 0z"/><g><path d="m189.953 130.474c-.018 0-.037 0-.056 0-3.688.021-7.563.036-10.922.044v-49.4c0-5.375-4.357-9.732-9.732-9.732s-9.732 4.357-9.732 9.732v59.089c0 4.741 3.416 8.792 8.09 9.592.695.119 1.134.194 7.833.194 3.197 0 7.819-.017 14.573-.054 5.375-.03 9.707-4.411 9.678-9.786-.031-5.357-4.383-9.679-9.732-9.679z"/><path d="m219.896 71.386c-5.375 0-9.732 4.357-9.732 9.732v59.138c0 5.375 4.357 9.732 9.732 9.732s9.732-4.357 9.732-9.732v-59.138c0-5.375-4.357-9.732-9.732-9.732z"/><path d="m342.757 130.524h-14.959v-9.835h13.138c5.375 0 9.732-4.357 9.732-9.732s-4.357-9.732-9.732-9.732h-13.138v-9.835h14.959c5.375 0 9.732-4.357 9.732-9.732s-4.357-9.732-9.732-9.732h-24.691c-5.375 0-9.732 4.357-9.732 9.732v58.598c0 5.375 4.357 9.732 9.732 9.732h24.691c5.375 0 9.732-4.357 9.732-9.732s-4.357-9.732-9.732-9.732z"/><path d="m293.074 71.99c-5.102-1.696-10.61 1.067-12.304 6.167l-11.512 34.653-12.108-34.884c-1.763-5.078-7.31-7.766-12.386-6.002-5.078 1.762-7.765 7.308-6.003 12.385l20.243 58.314c1.566 4.413 5.751 7.365 10.428 7.365h.074c4.707-.031 8.888-3.047 10.426-7.569l19.309-58.125c1.695-5.1-1.066-10.609-6.167-12.304z"/></g></g></g></svg>