<svg id="Capa_1" enable-background="new 0 0 512 512" height="512" viewBox="0 0 512 512" width="512" xmlns="http://www.w3.org/2000/svg"><g><path d="m512 256c0 141.38-114.62 256-256 256-66.85 0-127.71-25.63-173.31-67.59-.83-.77 19.287-22.486 18.467-23.267-10.42-9.84-8.556-28.117-17.196-39.587-18.571-24.59-65.201-24.116-73.961-54.476-6.51-22.57-10-46.42-10-71.08 0-141.38 114.62-256 256-256s256 114.62 256 256z" fill="#efc64c"/><g><path d="m126.473 157.409-51.416-7.574c-4.973-.733-9.436 3.121-9.436 8.148v19.183h67.887v-11.609c.001-4.085-2.993-7.553-7.035-8.148z" fill="#ca245f"/><path d="m214.377 192.292h-30v-61.393c0-18.151 14.767-32.918 32.918-32.918h92.818v30h-92.818c-1.609 0-2.918 1.309-2.918 2.918z" fill="#5e54ac"/><path d="m234.327 97.979c-18.15 0-32.92 14.76-32.92 32.92v61.39h-17.03v-61.39c0-18.16 14.77-32.92 32.92-32.92z" fill="#453d81"/><path d="m367.968 310.422-17.06 29.783-7.778 13.588-24.848 15.906-17.06-33.903-12.774-25.374 29.834-59.266 24.848 15.906z" fill="#5e54ac"/><path d="m350.908 340.205-7.778 13.588-24.848 15.906-17.06-33.903 41.908-10.137z" fill="#453d81"/><path d="m397.652 310.422-11.136 26.579-13.701 32.698-29.685-15.906v-86.731l29.685-15.906z" fill="#2e4f5f"/><path d="m386.516 337.001-13.701 32.698-29.685-15.906v-28.134l29.685 11.342z" fill="#1f3645"/><path d="m383.748 383.076h38.747l22.022-78.94-22.022-66.359h-38.747c-6.041 0-10.938 4.897-10.938 10.938v123.424c0 6.039 4.897 10.937 10.938 10.937z" fill="#5e54ac"/><path d="m383.748 383.076h38.747l22.022-25.034-22.022-21.044h-49.685v35.14c0 6.04 4.897 10.938 10.938 10.938z" fill="#453d81"/><path d="m501.999 220.488h-62.217c-9.548 0-17.288 7.74-17.288 17.288v145.3c0 9.548 7.74 17.288 17.288 17.288h62.217c0-21.528-13.553-39.884-32.59-47.019 18.794-5.23 32.59-22.458 32.59-42.919 0-20.461-13.796-37.688-32.59-42.919 19.037-7.135 32.59-25.491 32.59-47.019z" fill="#d6d8e8"/><path d="m492.837 371.457c5.769 8.169 9.158 18.141 9.158 28.907h-62.213c-9.55 0-17.297-7.747-17.297-17.297v-46.07c0 9.55 7.747 17.286 17.297 17.286h31.946c8.52 3.689 15.814 9.674 21.109 17.174z" fill="#b8bede"/><path d="m281.73 202.99h-7.28c0-20.19-16.36-36.55-36.55-36.55h-184.11c-24.18 0-43.79 19.61-43.79 43.8v116.84c13.16 45.63 38.68 86.03 72.69 117.33h191.8c24.19 0 43.79-19.6 43.79-43.79v-161.08c0-20.19-16.36-36.55-36.55-36.55zm-108.81 47c-4.7 4.72-11.23 7.63-18.43 7.63h-81.75c-14.39 0-26.06-11.67-26.06-26.06 0-7.2 2.91-13.72 7.63-18.44s11.24-7.63 18.43-7.63h81.75c14.41 0 26.07 11.67 26.07 26.07 0 7.19-2.92 13.71-7.64 18.43z" fill="#2e4f5f"/><path d="m177.368 205.481h-22.88c14.41 0 26.07 11.68 26.07 26.08 0 7.19-2.92 13.71-7.64 18.43-4.7 4.72-11.23 7.63-18.43 7.63h22.88c7.2 0 13.72-2.91 18.43-7.63 4.72-4.72 7.63-11.24 7.63-18.43-.001-14.401-11.661-26.08-26.06-26.08z" fill="#1f3645"/><g><path d="m50.52 217.92c-2.44 3.97-3.84 8.64-3.84 13.64s1.4 9.66 3.84 13.63v155.43c0 3.25.35 6.41 1.03 9.45-18.57-24.59-32.79-52.63-41.55-82.99v-116.84c0-24.19 19.61-43.8 43.79-43.8h40.52c-24.18 0-43.79 19.61-43.79 43.8z" fill="#1f3645"/></g><path d="m353.509 148.396h-86.793c-19.559 0-35.416-15.856-35.416-35.416 0-19.559 15.856-35.416 35.416-35.416h86.793c19.559 0 35.416 15.856 35.416 35.416 0 19.56-15.856 35.416-35.416 35.416z" fill="#2e4f5f"/><path d="m388.916 112.986c0 9.78-3.96 18.63-10.37 25.04s-15.26 10.37-25.04 10.37h-86.79c-19.56 0-35.42-15.85-35.42-35.41 0-4.01.67-7.87 1.9-11.47 4.77 13.93 17.98 23.94 33.52 23.94h86.79c9.78 0 18.63-3.96 25.04-10.38 3.78-3.77 6.7-8.4 8.47-13.56 1.23 3.6 1.9 7.46 1.9 11.47z" fill="#1f3645"/><path d="m270.208 158.372c-5.51 0-9.976-4.467-9.976-9.976v-70.831c0-5.51 4.466-9.976 9.976-9.976 5.51 0 9.976 4.467 9.976 9.976v70.831c0 5.51-4.467 9.976-9.976 9.976z" fill="#d6d8e8"/><path d="m340.041 158.372c-5.51 0-9.976-4.467-9.976-9.976v-70.831c0-5.51 4.466-9.976 9.976-9.976 5.51 0 9.976 4.467 9.976 9.976v70.831c0 5.51-4.466 9.976-9.976 9.976z" fill="#d6d8e8"/><path d="m280.181 123.312v25.09c0 5.51-4.46 9.97-9.97 9.97s-9.98-4.46-9.98-9.97v-25.09c0 5.51 4.47 9.97 9.98 9.97s9.97-4.46 9.97-9.97z" fill="#b8bede"/><path d="m350.021 123.312v25.09c0 5.51-4.47 9.97-9.98 9.97s-9.98-4.46-9.98-9.97v-25.09c0 5.51 4.47 9.97 9.98 9.97s9.98-4.46 9.98-9.97z" fill="#b8bede"/><path d="m224.073 407.827h-100.272c-18.317 0-33.165-14.849-33.165-33.165v-52.436c0-18.317 14.849-33.165 33.165-33.165h100.273c18.317 0 33.165 14.849 33.165 33.165v52.436c-.001 18.316-14.849 33.165-33.166 33.165z" fill="#1f3645"/><path d="m123.8 387.827c-7.259 0-13.165-5.906-13.165-13.165v-52.436c0-7.259 5.906-13.165 13.165-13.165h100.272c7.26 0 13.166 5.906 13.166 13.165v52.436c0 7.259-5.906 13.165-13.166 13.165z" fill="#d6d8e8"/><g><circle cx="236.406" cy="246.045" fill="#ca245f" r="13.468"/><path d="m240.398 258.895c-1.26.4-2.6.61-3.99.61-7.44 0-13.47-6.03-13.47-13.46 0-7.44 6.03-13.47 13.47-13.47 1.39 0 2.73.21 3.99.61-5.48 1.7-9.46 6.81-9.46 12.86 0 6.04 3.98 11.15 9.46 12.85z" fill="#b7004f"/></g><g><circle cx="270.824" cy="246.045" fill="#9ddea3" r="13.468"/><path d="m274.816 258.895c-1.26.4-2.6.61-3.99.61-7.44 0-13.47-6.03-13.47-13.46 0-7.44 6.03-13.47 13.47-13.47 1.39 0 2.73.21 3.99.61-5.48 1.7-9.46 6.81-9.46 12.86 0 6.04 3.98 11.15 9.46 12.85z" fill="#88c98b"/></g><g fill="#b8bede"><path d="m131.181 350.962c-3.673 0-6.651-2.978-6.651-6.651v-15.962c0-3.673 2.978-6.651 6.651-6.651 3.673 0 6.651 2.978 6.651 6.651v15.962c0 3.673-2.978 6.651-6.651 6.651z"/><path d="m149.798 350.962c-3.673 0-6.651-2.978-6.651-6.651v-15.962c0-3.673 2.978-6.651 6.651-6.651 3.673 0 6.651 2.978 6.651 6.651v15.962c0 3.673-2.977 6.651-6.651 6.651z"/><path d="m186.175 350.962c-3.673 0-6.651-2.978-6.651-6.651v-15.962c0-3.673 2.978-6.651 6.651-6.651 3.673 0 6.651 2.978 6.651 6.651v15.962c0 3.673-2.978 6.651-6.651 6.651z"/><path d="m204.569 350.962c-3.673 0-6.651-2.978-6.651-6.651v-15.962c0-3.673 2.978-6.651 6.651-6.651 3.673 0 6.651 2.978 6.651 6.651v15.962c-.001 3.673-2.978 6.651-6.651 6.651z"/><path d="m222.962 350.962c-3.673 0-6.651-2.978-6.651-6.651v-15.962c0-3.673 2.978-6.651 6.651-6.651 3.673 0 6.651 2.978 6.651 6.651v15.962c0 3.673-2.978 6.651-6.651 6.651z"/></g></g></g></svg>