<svg id="Capa_1" enable-background="new 0 0 512 512" height="512" viewBox="0 0 512 512" width="512" xmlns="http://www.w3.org/2000/svg"><g><path d="m512 256c0 35.346-7.163 69.019-20.118 99.647-10.143 23.981-49.017 14.175-65.602 33.763-11.161 13.181 1.549 57.139-12.029 67.831-43.554 34.297-98.513 54.759-158.251 54.759-141.385 0-256-114.615-256-256s114.615-256 256-256 256 114.615 256 256z" fill="#efc64c"/><path d="m491.66 117.13v239.03c-2.5 5.88-5.21 11.64-8.13 17.28-2.81 5.44-5.82 10.77-9 15.97-6.88 11.24-28.629 21.91-37.109 31.92h-404.671v-304.2c0-31.45 25.49-56.94 56.94-56.94h345.02c31.45 0 56.95 25.49 56.95 56.94z" fill="#b8bede"/><path d="m483.53 373.44c-2.81 5.44-5.82 10.77-9 15.97-6.88 11.24-14.59 21.91-23.07 31.92h-418.71v-47.89z" fill="#a8acd3"/><path d="m116.629 60.192c-31.45 0-56.94 25.49-56.94 56.94v304.2h-26.94v-304.2c0-31.45 25.49-56.94 56.94-56.94z" fill="#a8acd3"/><path d="m72.749 333.851v-216.719c0-9.357 7.585-16.942 16.942-16.942h345.021c9.357 0 16.942 7.585 16.942 16.942v216.718c0 12.189-9.882 22.071-22.071 22.071h-334.763c-12.189.001-22.071-9.881-22.071-22.07z" fill="#9dc6fb"/><path d="m128.359 355.922h-33.54c-12.19 0-22.07-9.88-22.07-22.07v-216.72c0-9.35 7.59-16.94 16.95-16.94h33.53c-9.36 0-16.94 7.59-16.94 16.94v216.72c0 12.19 9.88 22.07 22.07 22.07z" fill="#80b4fb"/><path d="m474.53 389.41c-15.93 26.04-36.39 49.02-60.28 67.83h-380.33c-9.36 0-17.84-3.8-23.98-9.93-6.14-6.14-9.94-14.62-9.94-23.99 0-18.73 15.19-33.91 33.92-33.91z" fill="#d6d8e8"/><path d="m84.97 447.305c6.14 6.14 14.62 9.94 23.99 9.94h-75.04c-9.36 0-17.84-3.8-23.98-9.94s-9.94-14.62-9.94-23.98c0-18.73 15.19-33.92 33.92-33.92h75.04c-18.74 0-33.92 15.19-33.92 33.92 0 9.36 3.8 17.84 9.93 23.98z" fill="#b8bede"/><path d="m332.31 389.41c-.15 14.35-11.83 25.93-26.21 25.93h-100.2c-14.38 0-26.06-11.58-26.21-25.93z" fill="#b8bede"/><path d="m321.19 290.41-47.87 1.58-16.14 59.75-29.02-54.66-56.77 24.63 12.19-28.09 12.44-28.68-15.9-5.17-73.34-23.85 62.97-10.78 18.04-3.09 11.01-1.88 2.31-.39-1.03-2.3-4.95-10.99-8.09-17.98-16.07-35.7 25.43 15.86 12.81 7.99 7.83 4.88 22.55 14.06 40.46-46.83-10.31 74.59 31.35 14.79 12.13 5.73-33.61 14.75z" fill="#1f3645"/><path d="m460.2 101.27c0 37.72-21.76 72.06-55.88 88.16l-103.23 48.72-117.51 55.47 12.44-28.68-15.9-5.17 18.68-39.6 1.28-2.69 16.96-35.94 57.52-121.87c16.1-34.12 50.43-55.88 88.16-55.88 26.92 0 51.28 10.91 68.93 28.55 17.64 17.64 28.55 42.01 28.55 68.93z" fill="#ca245f"/><path d="m287.943 75.618-65.843 141.663 51.877-37.91-40.903 68.836 158.603-72.157z" fill="#b7004f"/><g><circle cx="364.097" cy="99.892" fill="#eceef1" r="80.988"/><g fill="#d6d8e8"><path d="m391.677 176.05c-8.608 3.126-17.9 4.833-27.59 4.833-44.721 0-80.978-36.258-80.978-80.99s36.257-80.99 80.978-80.99c6.203 0 12.25.697 18.045 2.02-31.136 11.277-53.388 41.114-53.388 76.158-.001 38.528 26.892 70.77 62.933 78.969z"/><circle cx="393.046" cy="62.148" r="11.593"/><circle cx="414.68" cy="85.956" r="11.593"/><circle cx="384.597" cy="92.083" r="11.593"/></g></g><g fill="#80b4fb"><path d="m363.467 281.124-3.695-29.565-46.26 20.39z"/><path d="m295.667 307.446-14.655 43.602 31.081 17.995z"/><path d="m334.03 335.334 4.659-24.037-30.841-5.978z"/><path d="m161.893 150.606-21.609 17.632 34.905 32.337z"/><path d="m113.752 191.976 5.228 27.396 45.05-15.316z"/><path d="m106.472 272.048 12.251 25.055 39.433-26.629z"/></g><path d="m249.961 292.631c-2.812 0-5.507-1.589-6.787-4.301-1.768-3.746-.165-8.215 3.581-9.983l104.104-49.138c3.744-1.769 8.215-.166 9.983 3.581 1.768 3.746.165 8.215-3.581 9.983l-104.104 49.138c-1.033.488-2.123.72-3.196.72z" fill="#ca245f"/><path d="m169.75 225.14 18.04-3.09-6.31 13.37c-1.28 2.71-3.97 4.3-6.78 4.3-1.08 0-2.17-.23-3.2-.72-3.75-1.77-5.35-6.24-3.58-9.98z" fill="#ca245f"/><path d="m241.27 108.74-32.06 67.92-14.08 29.83-8.09-17.98 9.36-19.84 31.3-66.33c1.77-3.74 6.24-5.35 9.99-3.58 3.74 1.77 5.35 6.24 3.58 9.98z" fill="#ca245f"/></g></svg>