<svg id="Capa_1" enable-background="new 0 0 512 512" height="512" viewBox="0 0 512 512" width="512" xmlns="http://www.w3.org/2000/svg"><g><path d="m511.72 243.95-265.944 37.909-245.496-37.909c6.29-135.79 118.38-243.95 255.72-243.95s249.43 108.16 255.72 243.95z" fill="#2e4f5f"/><g><path d="m464.51 183.823-19.819 19.819c-12.374 12.374-27.441 20.424-43.313 24.142l-67.892-42.528-41.079-66.443c3.718-15.872 11.768-30.939 24.142-43.313l19.819-19.819c35.386-35.386 92.755-35.386 128.142 0s35.386 92.756 0 128.142z" fill="#5e54ac"/><path d="m303.818 130.224 36.778 59.486-7.112-4.452-41.077-66.445c3.718-15.872 11.768-30.939 24.142-43.313l19.819-19.819c35.386-35.386 92.755-35.386 128.142 0 1.921 1.921 3.737 3.908 5.458 5.953-35.601-29.824-88.723-28.008-122.188 5.458l-19.82 19.819c-12.374 12.374-20.424 27.441-24.142 43.313z" fill="#453d81"/><path d="m401.378 227.784c-17.135 4.018-35.219 2.989-51.873-3.084-12.479-4.557-26.454-1.563-35.844 7.827l-20.663 20.663c-3.589 3.589-8.294 5.386-12.998 5.381-4.7 0-9.404-1.797-12.993-5.386-7.178-7.178-7.183-18.813-.005-25.991l20.663-20.663c9.39-9.39 12.383-23.365 7.827-35.844-6.073-16.654-7.102-34.738-3.084-51.873z" fill="#efc64c"/><path d="m274.032 257.57c-2.569-.872-4.976-2.336-7.026-4.385-7.178-7.178-7.183-18.813-.005-25.991l20.663-20.663c9.39-9.39 12.383-23.365 7.827-35.844-6.073-16.654-7.102-34.738-3.084-51.873l11.411 11.411c-4.018 17.135-2.989 35.219 3.084 51.873 4.557 12.479 1.563 26.454-7.827 35.844l-20.663 20.663c-5.128 5.127-6.591 12.539-4.38 18.965z" fill="#e3a12f"/><g fill="#453d81"><circle cx="460.766" cy="108.361" r="8.727"/><circle cx="466.002" cy="134.412" r="8.727"/><circle cx="444.368" cy="124.855" r="8.727"/><circle cx="324.626" cy="123.564" r="8.727"/><circle cx="337.619" cy="143.408" r="8.727"/></g></g><path d="m512 256c0 45.189-11.708 87.638-32.259 124.49-.796 1.428-4.908 2.847-5.73 4.258-1.212 2.079-2.155 1.137-3.423 3.179-3.22 5.18-3.607 13.233-7.187 18.163-3.6 4.98-7.39 9.82-11.34 14.52-2.888 3.435-10.458 4.066-13.521 7.346-1.975 2.116.607 6.928-1.439 8.974-4.47 4.47-9.1 8.78-13.89 12.91-4.456 3.847-9.046 2.068-13.763 5.606-8.76 6.569-17.956 18.067-27.537 23.494-4.67 2.64-9.43 5.14-14.27 7.49-2.575 1.248-4.068-1.114-6.694.053-2.381 1.058-5.89 5.653-8.306 6.637-2.19.9-4.4 1.76-6.63 2.6-7.78 2.92-22.21-.99-33.93-2.43-4.51-.55-8.62-.73-11.79-.02-9.49 2.15-6.75 12.337-16.61 13.387-9.09.98-18.33-.222-27.68-.222-22.05 0-43.45 2.775-63.86-2.475-4.57-1.17-9.09-2.46-13.56-3.88-.01 0-.02-.01-.03-.01-8.81-2.79-17.41-6.04-25.77-9.74-89.971-39.68-152.781-129.68-152.781-234.33 0-4.04.09-8.06.28-12.05h511.44c.19 3.99.28 8.01.28 12.05z" fill="#9ddea3"/><path d="m450.025 308.366 1.969 18.871c.099.953.915 1.67 1.873 1.646l18.967-.477c1.666-.042 2.522 1.978 1.334 3.146l-13.527 13.305c-.683.672-.735 1.757-.119 2.491l12.199 14.532c1.071 1.276.026 3.205-1.628 3.005l-18.836-2.28c-.952-.115-1.832.521-2.021 1.46l-3.756 18.598c-.33 1.633-2.489 2.019-3.364.601l-9.961-16.148c-.503-.816-1.549-1.108-2.402-.67l-16.882 8.659c-1.483.761-3.131-.687-2.567-2.256l6.414-17.856c.324-.902-.1-1.902-.974-2.296l-17.296-7.8c-1.519-.685-1.415-2.876.163-3.414l17.96-6.118c.907-.309 1.424-1.264 1.188-2.193l-4.685-18.386c-.412-1.615 1.367-2.899 2.77-2.001l15.981 10.227c.807.517 1.876.326 2.455-.438l11.453-15.126c1.006-1.329 3.119-.74 3.292.918z" fill="#88c98b"/><path d="m463.77 390.93v11.31c0 1.32-.13 2.61-.37 3.85 3.58-4.93 6.97-9.98 10.19-15.16zm-40.56 11.31v-11.31h-15v11.31c0 11.18-9.1 20.28-20.29 20.28-11.18 0-20.28-9.1-20.28-20.28v-11.31h-15v11.31c0 11.18-9.09 20.28-20.28 20.28-11.18 0-20.28-9.1-20.28-20.28v-11.31h-15v53.25c0 11.18-9.1 20.28-20.28 20.28s-20.28-9.1-20.28-20.28v-53.25h-15v93.11c0 11.19-9.1 20.28-20.28 20.28s-20.28-9.09-20.28-20.28h-15c0 7.39 2.28 14.25 6.18 19.92 20.41 5.25 41.81 8.04 63.86 8.04 9.35 0 18.59-.5 27.68-1.48 9.86-1.05 7.12-15.1 16.61-17.25 3.17-.71 7.28-.53 11.79.02v-20.27c5.74 4.05 12.74 6.44 20.28 6.44 7.55 0 14.54-2.39 20.28-6.44v20.1c5.08-2.07 10.09-4.31 15-6.69v-13.41c4.19 2.95 9.03 5.02 14.27 5.92 14.74-8.35 28.57-18.11 41.3-29.1v-18.76c4.08 2.88 8.79 4.92 13.89 5.85 5.22-5.22 10.21-10.67 14.96-16.32-2.6 1.23-5.51 1.91-8.57 1.91-11.19 0-20.28-9.1-20.28-20.28zm-126.13 81.8c0 11.19-9.1 20.28-20.28 20.28s-20.28-9.09-20.28-20.28v-11.02c5.74 4.05 12.74 6.44 20.28 6.44 7.55 0 14.54-2.39 20.28-6.44zm55.56-39.86c0 11.18-9.09 20.28-20.28 20.28-11.18 0-20.28-9.1-20.28-20.28v-13.1c5.74 4.05 12.74 6.44 20.28 6.44 7.55 0 14.54-2.39 20.28-6.44zm55.57 0c0 11.18-9.1 20.28-20.29 20.28-11.18 0-20.28-9.1-20.28-20.28v-13.1c5.75 4.05 12.74 6.44 20.28 6.44 7.55 0 14.54-2.39 20.29-6.44z" fill="#eceef1"/><path d="m479.74 380.49c-3.37 6.05-6.97 11.94-10.81 17.67h-425.86c-3.84-5.73-7.44-11.62-10.81-17.67z" fill="#d6d8e8"/><g fill="#ca245f"><path d="m60.98 127.589c-.018 0-.037 0-.056 0-3.688.021-7.563.036-10.922.044v-49.401c0-5.375-4.357-9.732-9.732-9.732s-9.732 4.357-9.732 9.732v59.089c0 4.741 3.416 8.792 8.09 9.592.695.119 1.134.194 7.833.194 3.196 0 7.819-.017 14.573-.054 5.375-.03 9.707-4.411 9.678-9.786-.031-5.357-4.383-9.678-9.732-9.678z"/><path d="m90.923 68.5c-5.375 0-9.732 4.357-9.732 9.732v59.138c0 5.375 4.357 9.732 9.732 9.732s9.732-4.357 9.732-9.732v-59.138c0-5.374-4.357-9.732-9.732-9.732z"/><path d="m213.784 127.639h-14.959v-9.835h13.138c5.375 0 9.732-4.357 9.732-9.732s-4.357-9.732-9.732-9.732h-13.138v-9.835h14.959c5.375 0 9.732-4.357 9.732-9.732s-4.357-9.732-9.732-9.732h-24.691c-5.375 0-9.732 4.357-9.732 9.732v58.598c0 5.375 4.357 9.732 9.732 9.732h24.691c5.375 0 9.732-4.357 9.732-9.732s-4.357-9.732-9.732-9.732z"/><path d="m164.101 69.105c-5.102-1.696-10.61 1.067-12.304 6.167l-11.512 34.653-12.109-34.885c-1.763-5.078-7.31-7.766-12.386-6.002-5.078 1.762-7.765 7.308-6.003 12.385l20.243 58.314c1.566 4.413 5.751 7.365 10.428 7.365h.074c4.707-.031 8.888-3.047 10.426-7.569l19.309-58.125c1.696-5.1-1.065-10.609-6.166-12.303z"/></g><path d="m386.341 18.052 3.224 30.903c.163 1.561 1.499 2.735 3.068 2.695l31.061-.781c2.728-.069 4.131 3.239 2.185 5.152l-22.151 21.789c-1.119 1.101-1.204 2.877-.195 4.079l19.977 23.798c1.755 2.09.043 5.249-2.666 4.921l-30.846-3.734c-1.558-.189-3 .852-3.31 2.391l-6.151 30.456c-.54 2.675-4.077 3.306-5.509.984l-16.313-26.444c-.824-1.336-2.537-1.814-3.933-1.097l-27.646 14.18c-2.428 1.245-5.127-1.126-4.204-3.694l10.504-29.242c.531-1.477-.164-3.114-1.594-3.759l-28.324-12.774c-2.488-1.122-2.316-4.71.267-5.59l29.411-10.019c1.486-.506 2.333-2.07 1.945-3.591l-7.673-30.109c-.674-2.644 2.238-4.748 4.537-3.277l26.171 16.748c1.322.846 3.072.533 4.02-.718l18.756-24.771c1.646-2.176 5.106-1.21 5.389 1.504z" fill="#b8bede"/><path d="m445.302 355.694c-1.344 0-2.68-.539-3.662-1.592-.394-.423-39.823-42.318-75.601-42.953-11.35-.21-20.858 3.696-29.078 11.917-1.953 1.952-5.118 1.952-7.071 0-1.953-1.953-1.953-5.119 0-7.071 10.104-10.103 22.333-15.084 36.347-14.844 19.465.353 39.147 10.83 54.435 21.717-14.845-22.668-35.782-55.581-56.075-90.712-50.197-86.899-72.713-145.52-66.924-174.232 1.618-8.025 5.406-13.985 11.258-17.716 9.201-5.865 18.216-7.137 26.796-3.781 9.496 3.715 17.893 12.976 24.957 27.526 5.051 10.403 7.528 19.71 7.63 20.101.704 2.67-.892 5.405-3.562 6.108-2.666.704-5.403-.89-6.107-3.559-2.502-9.458-12.154-35.236-26.571-40.867-5.512-2.152-11.325-1.203-17.768 2.905-3.521 2.245-5.755 5.927-6.831 11.259-3.638 18.046 4.815 61.702 65.75 167.202 36.822 63.752 75.796 120.186 76.185 120.748 1.492 2.156 1.065 5.097-.977 6.74-.919.741-2.027 1.104-3.131 1.104z" fill="#eceef1"/><g><circle cx="333.427" cy="319.53" fill="#d6d8e8" r="39.157"/><path d="m347.11 356.22c-4.26 1.59-8.87 2.46-13.68 2.46-21.62 0-39.16-17.53-39.16-39.15 0-21.63 17.54-39.16 39.16-39.16 4.81 0 9.42.87 13.68 2.46-14.88 5.54-25.48 19.88-25.48 36.7 0 16.81 10.6 31.15 25.48 36.69z" fill="#b8bede"/></g><g><path d="m243.036 241.209 29.402 29.402c18.356 18.356 30.299 40.708 35.815 64.255l-63.09 100.718-98.568 60.941c-23.547-5.515-45.898-17.458-64.255-35.815l-29.402-29.402c-52.496-52.496-52.496-137.603 0-190.099s137.602-52.496 190.098 0z" fill="#9dc6fb"/><path d="m163.521 479.596 88.247-54.56-6.604 10.55-98.571 60.938c-23.547-5.515-45.898-17.458-64.255-35.815l-29.402-29.402c-52.496-52.496-52.496-137.603 0-190.099 2.85-2.85 5.798-5.544 8.832-8.096-44.244 52.814-41.55 131.621 8.096 181.267l29.402 29.402c18.357 18.357 40.708 30.3 64.255 35.815z" fill="#80b4fb"/><path d="m346.01 495.72c-19.73 7.42-40.62 12.47-62.33 14.8l-6.96-6.96c-13.93-13.93-34.66-18.37-53.17-11.61-14.51 5.29-29.74 8-45 8.12-10.73.1-21.46-1.09-31.96-3.55l161.66-161.66c5.96 25.43 4.44 52.25-4.57 76.96-6.76 18.51-2.32 39.24 11.61 53.17l30.65 30.66c.02.02.05.05.07.07z" fill="#efc64c"/><path d="m312.71 505.69c-9.49 2.15-19.17 3.78-29.03 4.83l-6.96-6.96c-13.93-13.93-34.66-18.37-53.17-11.61-14.5 5.28-29.73 8-44.97 8.13-10.74.09-21.49-1.09-31.99-3.56l6.19-6.19 10.74-10.73c25.42 5.96 52.25 4.43 76.96-4.58 18.51-6.76 39.24-2.32 53.17 11.61z" fill="#e3a12f"/><g fill="#80b4fb"><circle cx="131.087" cy="246.763" r="12.947"/><circle cx="169.734" cy="238.996" r="12.947"/><circle cx="155.556" cy="271.09" r="12.947"/><circle cx="153.641" cy="448.728" r="12.947"/><circle cx="183.079" cy="429.452" r="12.947"/></g></g></g></svg>