<svg id="Capa_1" enable-background="new 0 0 512 512" height="512" viewBox="0 0 512 512" width="512" xmlns="http://www.w3.org/2000/svg"><g><path d="m512 256c0 40.54-9.42 78.87-26.2 112.94-1.26 2.56-18.81 5.09-20.15 7.6-2.68 5.02 10.73 9.93 7.73 14.73-4.77 7.65-9.92 15.02-15.45 22.09-3.24 4.15-14.74 8.2-18.22 12.14-3.48 3.93 1.07 7.76-2.65 11.48-2.92 2.92-5.91 5.77-8.96 8.55-3.29 2.98-6.65-3.93-10.09-1.12-3.18 2.6-6.42 14.93-9.73 17.38-42.56 31.55-95.24 50.21-152.28 50.21-54.21 0-104.48-16.85-145.86-45.6-28.47-19.78-52.74-45.18-71.19-74.61-8.01-12.78-14.93-26.32-20.61-40.49-11.83-29.45-18.34-61.62-18.34-95.3 0-35.73 7.32-69.75 20.55-100.64 39.09-91.35 129.8-155.36 235.45-155.36 45.31 0 87.86 11.77 124.78 32.42 46.5 26.01 84.05 66.1 106.87 114.5 15.62 33.09 24.35 70.07 24.35 109.08z" fill="#9ddea3"/><path d="m275.34 351.3v115.1h-165.2c-28.47-19.78-52.74-45.18-71.19-74.61-8.01-12.78-14.93-26.32-20.61-40.49z" fill="#88c98b"/><path d="m122.01 155.36v236.43h-83.06c-24.68-39.36-38.95-85.91-38.95-135.79 0-35.73 7.32-69.75 20.55-100.64z" fill="#88c98b"/><g fill="#ca245f"><path d="m312.434 112.069c-.018 0-.037 0-.056 0-3.688.021-7.563.036-10.922.044v-49.401c0-5.375-4.357-9.732-9.732-9.732s-9.732 4.357-9.732 9.732v59.089c0 4.741 3.416 8.792 8.09 9.592.695.119 1.134.194 7.833.194 3.197 0 7.819-.017 14.573-.054 5.375-.03 9.707-4.411 9.678-9.786-.031-5.357-4.383-9.678-9.732-9.678z"/><path d="m342.377 52.98c-5.375 0-9.732 4.357-9.732 9.732v59.138c0 5.375 4.357 9.732 9.732 9.732s9.732-4.357 9.732-9.732v-59.138c0-5.375-4.357-9.732-9.732-9.732z"/><path d="m465.238 112.118h-14.959v-9.835h13.138c5.375 0 9.732-4.357 9.732-9.732s-4.357-9.732-9.732-9.732h-13.138v-9.835h14.959c5.375 0 9.732-4.357 9.732-9.732s-4.357-9.732-9.732-9.732h-24.691c-5.375 0-9.732 4.357-9.732 9.732v58.598c0 5.375 4.357 9.732 9.732 9.732h24.691c5.375 0 9.732-4.357 9.732-9.732s-4.357-9.732-9.732-9.732z"/><path d="m415.555 53.585c-5.102-1.696-10.61 1.067-12.304 6.167l-11.512 34.653-12.109-34.885c-1.763-5.078-7.31-7.766-12.386-6.002-5.078 1.762-7.765 7.308-6.003 12.385l20.243 58.314c1.566 4.413 5.751 7.365 10.428 7.365h.074c4.707-.031 8.888-3.047 10.426-7.569l19.31-58.125c1.695-5.1-1.066-10.609-6.167-12.303z"/></g><g><path d="m244.022 195.898c0 31.226-6.565 60.919-18.388 87.783-3.38 7.688-36.035 15.143-40.249 22.336-4.214 7.192 20.014 14.122 15.026 20.757-20.558 27.382-47.401 49.765-78.4 65.011-30.999-15.246-57.842-37.629-78.4-65.011-4.79-6.371 15.513-13.013 11.436-19.898-4.415-7.457-33.145-15.2-36.659-23.194-11.823-26.865-18.388-56.558-18.388-87.784 0-31.237 6.565-60.93 18.388-87.794 3.38-7.688 25.981-15.143 30.196-22.336s-9.956-14.122-4.973-20.757c20.558-27.382 47.401-49.754 78.4-65.011 30.999 15.257 57.842 37.629 78.4 65.011 4.983 6.635-18.164 17.976-13.949 25.169 4.215 7.192 35.792 10.236 39.171 17.924 11.824 26.864 18.389 56.557 18.389 87.794z" fill="#905f43"/><path d="m88.215 326.774c8.865 27.382 20.439 49.765 33.796 65.011-30.999-15.246-57.842-37.629-78.4-65.011-4.491-5.974 15.302-13.47 11.436-19.898-4.721-7.851-32.943-14.74-36.659-23.194-11.823-26.865-18.388-56.558-18.388-87.784 0-31.237 6.565-60.93 18.388-87.794 3.38-7.688 25.981-15.143 30.196-22.336s-9.956-14.122-4.973-20.757c20.558-27.382 47.401-49.754 78.4-65.011-13.356 15.257-24.931 37.629-33.796 65.011-4.297 13.27-7.958 27.717-10.873 43.093-5.096 26.864-7.925 56.557-7.925 87.794 0 31.226 2.829 60.919 7.925 87.783 2.915 15.376 6.576 29.823 10.873 43.093z" fill="#784536"/><g fill="#d6d8e8"><path d="m225.634 108.104h-207.246c6.759-15.376 15.257-29.823 25.223-43.093h156.801c9.966 13.27 18.463 27.717 25.222 43.093z"/><path d="m225.634 283.681c-6.759 15.376-15.246 29.823-25.223 43.093h-156.8c-9.977-13.27-18.464-27.717-25.223-43.093z"/></g><path d="m77.342 283.681c2.915 15.376 6.576 29.823 10.873 43.093h-44.604c-9.977-13.27-18.464-27.717-25.223-43.093z" fill="#b8bede"/><path d="m77.342 108.104h-58.954c6.759-15.376 15.257-29.823 25.223-43.093h44.604c-4.297 13.27-7.958 27.717-10.873 43.093z" fill="#b8bede"/><path d="m122.011 263.606c-15.114 0-27.367-12.253-27.367-27.367v-84.836c0-15.114 12.253-27.367 27.367-27.367 15.114 0 27.367 12.253 27.367 27.367v84.836c0 15.114-12.253 27.367-27.367 27.367z" fill="#d6d8e8"/><path d="m129.563 262.552c-2.397.691-4.934 1.058-7.547 1.058-15.116 0-27.371-12.255-27.371-27.372v-84.836c0-15.116 12.255-27.361 27.371-27.361 2.613 0 5.15.367 7.547 1.058-11.456 3.261-19.835 13.799-19.835 26.303v84.836c0 12.504 8.379 23.053 19.835 26.314z" fill="#b8bede"/><g fill="#2e4f5f"><path d="m147.146 161.685h-49.55c-5.652 0-10.233-4.582-10.233-10.233 0-5.652 4.582-10.233 10.233-10.233h49.55c5.652 0 10.233 4.582 10.233 10.233 0 5.652-4.582 10.233-10.233 10.233z"/><path d="m147.146 204.054h-49.55c-5.652 0-10.233-4.582-10.233-10.233 0-5.652 4.582-10.233 10.233-10.233h49.55c5.652 0 10.233 4.582 10.233 10.233 0 5.652-4.582 10.233-10.233 10.233z"/><path d="m147.146 246.423h-49.55c-5.652 0-10.233-4.582-10.233-10.233 0-5.652 4.582-10.233 10.233-10.233h49.55c5.652 0 10.233 4.582 10.233 10.233 0 5.652-4.582 10.233-10.233 10.233z"/></g><g fill="#1f3645"><path d="m119.072 161.692h-21.48c-5.65 0-10.23-4.59-10.23-10.24 0-2.83 1.15-5.38 3-7.23 1.85-1.86 4.41-3 7.23-3h21.48c-2.82 0-5.38 1.14-7.23 3-1.85 1.85-3 4.4-3 7.23 0 5.65 4.58 10.24 10.23 10.24z"/><path d="m119.072 204.052h-21.48c-5.65 0-10.23-4.58-10.23-10.23 0-2.82 1.15-5.38 3-7.23s4.41-3 7.23-3h21.48c-2.82 0-5.38 1.15-7.23 3s-3 4.41-3 7.23c0 5.65 4.58 10.23 10.23 10.23z"/><path d="m119.072 246.422h-21.48c-5.65 0-10.23-4.58-10.23-10.23 0-2.83 1.15-5.38 3-7.23 1.85-1.86 4.41-3 7.23-3h21.48c-2.82 0-5.38 1.14-7.23 3-1.85 1.85-3 4.4-3 7.23 0 5.65 4.58 10.23 10.23 10.23z"/></g></g><g><path d="m363.715 381.568c-20.637 0-37.367-16.73-37.367-37.367v-.1c0-30.5 24.725-55.225 55.225-55.225h78.102c-21.648-57.812-77.393-98.971-142.764-98.971-84.149 0-152.377 68.229-152.377 152.389 0 36.34 12.724 69.711 33.953 95.903 11.212 13.833 28.029 21.917 45.835 21.917h52.251 29.775 37.367c21.69 0 39.273-17.583 39.273-39.273 0-21.69-17.583-39.273-39.273-39.273z" fill="#5e54ac"/><path d="m319.978 460.119h-75.656c-17.813 0-34.624-8.09-45.835-21.916-21.235-26.194-33.953-59.564-33.953-95.909 0-84.154 68.227-152.391 152.371-152.391 13.058 0 25.718 1.643 37.813 4.735-65.845 16.84-114.529 76.57-114.529 147.656 0 36.345 12.728 69.715 33.953 95.909 11.212 13.826 28.033 21.916 45.836 21.916z" fill="#453d81"/><path d="m363.716 471.924c-6.522 0-11.81-5.288-11.81-11.81 0-6.523 5.288-11.81 11.81-11.81 15.142 0 27.463-12.32 27.463-27.462 0-15.143-12.32-27.463-27.463-27.463-27.117 0-49.178-22.061-49.178-49.177 0-37.064 30.071-67.136 67.035-67.136h78.102c6.522 0 11.81 5.288 11.81 11.81 0 6.523-5.288 11.81-11.81 11.81h-78.102c-23.939 0-43.415 19.476-43.415 43.415 0 14.193 11.466 25.657 25.557 25.657 28.167 0 51.083 22.916 51.083 51.083.001 28.168-22.915 51.083-51.082 51.083z" fill="#d6d8e8"/><path d="m362.202 460.114c0-6.523 5.288-11.81 11.811-11.81 15.142 0 27.462-12.32 27.462-27.462 0-15.143-12.32-27.463-27.462-27.463-27.117 0-49.178-22.061-49.178-49.177 0-37.064 30.071-67.136 67.035-67.136h-10.297c-36.964 0-67.035 30.072-67.035 67.136 0 27.117 22.061 49.177 49.178 49.177 15.142 0 27.463 12.32 27.463 27.463s-12.32 27.462-27.463 27.462c-6.522 0-11.81 5.288-11.81 11.81 0 6.523 5.288 11.81 11.81 11.81 2.361 0 4.681-.175 6.958-.486-4.896-1.441-8.472-5.962-8.472-11.324z" fill="#b8bede"/><path d="m485.8 368.94-83.22-9.65-27.23-91.96h90.07c6.52 0 11.81-5.29 11.81-11.81 0-6.53-5.29-11.81-11.81-11.81h-111.78c-49.69 0-90.12 40.42-90.12 90.1v91.36c0 6.53 5.29 11.81 11.81 11.81h125.61l7.34 24.81c6.88-5.09 13.49-10.52 19.82-16.26l-2.53-8.55h11.49c7.43-7.43 14.4-15.32 20.87-23.62h-39.35l-8.72-29.45 63.52 7.36c4.5-7.21 8.64-14.66 12.42-22.33zm-198.66-35.13c0-35.69 28.28-64.89 63.6-66.41l26.33 88.93-89.93-10.42zm0 79.55v-43.67l97.22 11.27 9.59 32.4z" fill="#2e4f5f"/><g fill="#1f3645"><path d="m350.742 267.401 26.325 88.931 12.397 1.437-26.751-90.368z"/><path d="m396.327 380.956h-11.971l9.593 32.407h11.971z"/><path d="m418.01 454.22c-3.18 2.6-6.42 5.12-9.73 7.57l-7.34-24.81h11.97z"/><path d="m275.495 425.173v-91.365c0-49.682 40.424-90.101 90.113-90.101h-11.972c-49.689 0-90.113 40.419-90.113 90.101v91.365c0 6.523 5.288 11.81 11.81 11.81h11.972c-6.522.001-11.81-5.287-11.81-11.81z"/></g><circle cx="275.333" cy="425.173" fill="#d6d8e8" r="41.228"/><path d="m281.986 465.863c-2.16.36-4.39.54-6.65.54-22.77 0-41.23-18.46-41.23-41.23s18.46-41.22 41.23-41.22c2.26 0 4.49.18 6.65.53-19.61 3.18-34.57 20.18-34.57 40.69s14.96 37.52 34.57 40.69z" fill="#b8bede"/><circle cx="275.333" cy="425.173" fill="#2e4f5f" r="19.51"/><path d="m281.704 443.613c-1.99.7-4.14 1.07-6.37 1.07-10.78 0-19.51-8.73-19.51-19.51 0-10.77 8.73-19.51 19.51-19.51 2.23 0 4.38.37 6.37 1.07-7.64 2.64-13.14 9.9-13.14 18.44 0 8.55 5.5 15.81 13.14 18.44z" fill="#1f3645"/></g></g></svg>