<svg id="Capa_1" enable-background="new 0 0 512 512" height="512" viewBox="0 0 512 512" width="512" xmlns="http://www.w3.org/2000/svg"><g><path d="m512 256c0 46.29-12.29 89.7-33.78 127.17-17.582 30.661-66.151 16.493-94.373 37.494-24.474 18.213-27.492 73.002-57.597 81.576-22.32 6.36-45.89 9.76-70.25 9.76-141.38 0-256-114.62-256-256s114.62-256 256-256 256 114.62 256 256z" fill="#efc64c"/><g><path d="m370.457 180.442c0 5.104 40.651 35.367 40.293 40.375-2.426 33.251-12.753 64.291-29.104 91.279-11.612 19.162-42.553 19.989-59.579 34.384-24.157 20.424-36.802 51.661-68.597 59.226-15.347 3.657-31.351 5.594-47.821 5.594s-32.474-1.936-47.821-5.594c-25.067-5.964-40.253-37.763-60.825-51.971-23.911-16.515-52.253-16.723-67.351-41.638-16.349-26.989-26.676-58.029-29.102-91.28-.359-5.008 16.168-21.758 16.168-26.862 0-51.203 17.931-70.395 32.932-122.326 21.024-24.442 47.689-43.877 77.964-56.307 24.06-9.873 50.283 0 77.905 0s54.108-9.873 78.168 0c30.275 12.43 56.94 31.865 77.964 56.307 13.67 53.263 8.806 57.61 8.806 108.813z" fill="#d6d8e8"/><path d="m235.734 405.706c2.928.693 5.892 1.339 8.868 1.912-12.61 2.414-25.625 3.681-38.952 3.681-16.47 0-32.474-1.936-47.821-5.594-18.824-4.479-32.481-33.173-48.901-42.432-30.862-17.403-60.941-20.923-79.275-51.177-16.35-26.988-26.677-58.028-29.103-91.279-.359-5.008 21.605-32.219 21.605-37.322 0-51.203 9.666-59.492 27.495-111.865 21.024-24.442 47.689-43.877 77.964-56.307 24.06-9.873 50.414-8.173 78.036-8.173 13.315 0 27.594.952 40.204 3.378-13.554 2.594-27.881-.321-40.335 4.795-30.275 12.43-56.941 31.865-77.964 56.307-30.944 35.988-49.65 82.817-49.65 134.02 0 5.104.191 10.159.55 15.167 2.426 33.251 12.753 64.291 29.104 91.279 28.087 46.351 73.971 80.714 128.175 93.61z" fill="#b8bede"/><path d="m375.184 163.132-7.387-22.734-150.195 48.801v-160.587h-23.904v160.587l-151.67-49.28-7.386 22.734 151.669 49.28-92.069 126.722 19.339 14.051 92.069-126.722 90.322 124.318 19.338-14.051-90.321-124.318z" fill="#a8acd3"/><path d="m190.12 113.521-65.106 47.303c-9.26 6.728-13.135 18.653-9.598 29.539l24.868 76.537c3.537 10.886 13.681 18.256 25.127 18.256h80.476c11.446 0 21.59-7.37 25.127-18.256l24.868-76.537c3.537-10.886-.338-22.811-9.598-29.539l-65.106-47.303c-9.259-6.728-21.798-6.728-31.058 0z" fill="#5e54ac"/><g><path d="m283.686 15.323c-.801.777-1.661 1.494-2.57 2.163l-60.933 44.271c-8.665 6.287-20.402 6.287-29.068 0l-29.689-21.574-31.243-22.697c-.908-.669-1.769-1.386-2.57-2.163 24.061-9.873 50.415-15.323 78.037-15.323 13.303 0 26.307 1.267 38.905 3.681.012 0 .036.012.048.012 13.553 2.594 26.629 6.514 39.083 11.63z" fill="#5e54ac"/></g><g><path d="m157.829 405.706c-54.203-12.896-100.088-47.259-128.176-93.61 1.614-.335 3.275-.502 4.972-.502h75.311c10.709 0 20.211 6.896 23.522 17.092l8.474 26.08 14.797 45.55c.574 1.781.945 3.585 1.1 5.39z" fill="#5e54ac"/></g><path d="m156.73 400.316c.574 1.781.944 3.586 1.1 5.39-54.203-12.896-100.088-47.259-128.176-93.61 1.614-.335 3.275-.502 4.972-.502h72.634c.096.167.203.335.299.502 9.526 15.729 21.108 30.072 34.375 42.669z" fill="#453d81"/><path d="m244.602 3.693c-13.554 2.594-26.63 6.514-39.084 11.63-15.777 6.478-30.562 14.857-44.092 24.861l-31.243-22.697c-.908-.669-1.769-1.386-2.57-2.163 24.061-9.874 50.415-15.324 78.037-15.324 13.303 0 26.307 1.267 38.905 3.681.011 0 .035.012.047.012z" fill="#453d81"/><g><path d="m65.319 174.263-60.932 44.271c-1.219.884-2.51 1.649-3.837 2.283-.359-5.008-.55-10.064-.55-15.167 0-51.203 18.705-98.032 49.65-134.02.538 1.076.992 2.199 1.375 3.371l23.271 71.63c3.31 10.182-.312 21.345-8.977 27.632z" fill="#453d81"/></g><g><path d="m381.646 312.096c-28.088 46.351-73.972 80.713-128.176 93.61.155-1.805.526-3.61 1.1-5.39l23.271-71.63c3.311-10.195 12.813-17.092 23.522-17.092h75.311c1.698 0 3.359.168 4.972.502z" fill="#5e54ac"/></g><g><path d="m411.3 205.65c0 5.104-.191 10.159-.55 15.167-1.327-.633-2.618-1.398-3.837-2.283l-60.933-44.271c-8.665-6.287-12.287-17.45-8.976-27.634l23.272-71.629c.382-1.171.837-2.295 1.375-3.371 30.944 35.989 49.649 82.818 49.649 134.021z" fill="#5e54ac"/></g></g><g><path d="m478.22 190.03v193.14c-6.46 11.26-13.75 21.99-21.79 32.09-8.906 11.199-26.668 9.664-37.3 19.22-14.545 13.074-22.662 36.472-39.93 45.97-16.61 9.15-34.35 16.49-52.95 21.79h-29.34c-23.33 0-42.24-18.91-42.24-42.24v-269.97c0-23.33 18.91-42.24 42.24-42.24h139.07c23.33 0 42.24 18.91 42.24 42.24z" fill="#2e4f5f"/><path d="m315.065 502.237h-18.155c-23.331 0-42.24-18.909-42.24-42.24v-269.964c0-23.331 18.909-42.24 42.24-42.24h18.156c-23.331 0-42.24 18.909-42.24 42.24v269.963c-.001 23.332 18.908 42.241 42.239 42.241z" fill="#1f3645"/><path d="m456.43 190.03v225.23c-3.34 4.2-6.81 8.29-10.4 12.26-3.38 3.75-6.86 7.39-10.46 10.92-5.26 5.19-10.75 10.14-16.44 14.86-3.41 2.82-6.9 5.56-10.46 8.21-9.35 6.95-19.2 13.29-29.47 18.94h-82.3c-1.17 0-2.31-.1-3.43-.3-9.65-1.63-17.02-10.05-17.02-20.15v-269.97c0-10.1 7.37-18.52 17.02-20.15 1.12-.2 2.26-.3 3.43-.3h23.92c.28 7.19 4.22 13.44 10.01 16.94 3.13 1.89 6.79 2.98 10.71 2.98h49.8c7.24 0 13.63-3.72 17.33-9.35 2.02-3.06 3.24-6.68 3.39-10.57h23.92c3.65 0 7.08.97 10.05 2.65 6.21 3.51 10.4 10.17 10.4 17.8z" fill="#9ddea3"/><path d="m308.351 480.154c1.116.195 2.26.293 3.432.293h-14.877c-1.172 0-2.316-.098-3.432-.293-9.653-1.632-17.019-10.051-17.019-20.157v-269.964c0-10.107 7.366-18.525 17.019-20.157 1.116-.195 2.26-.293 3.432-.293h14.877c-1.172 0-2.316.098-3.432.293-9.653 1.632-17.019 10.051-17.019 20.157v269.963c0 10.107 7.365 18.526 17.019 20.158z" fill="#88c98b"/><path d="m391.078 170.299c0-3.001-2.433-5.434-5.434-5.434h-38.398c-3.001 0-5.434 2.433-5.434 5.434 0 3.001 2.433 5.434 5.434 5.434h38.398c3.002-.001 5.434-2.433 5.434-5.434z" fill="#1f3645"/><g fill="#eceef1"><path d="m320.37 434.48v45.97h10.46v-35.5h77.84v16.56c3.56-2.65 7.05-5.39 10.46-8.21v-18.82zm-26.9-37.1v82.77c1.12.2 2.26.3 3.43.3h7.04v-72.61h131.63v30.6c3.6-3.53 7.08-7.17 10.46-10.92v-30.14z"/><path d="m412.06 169.58c-.15 3.89-1.37 7.51-3.39 10.57v24.93h-77.84v-18.56c-5.79-3.5-9.73-9.75-10.01-16.94h-.45v45.96h98.76v-45.96zm23.92 0h-.41v72.61h-131.63v-72.61h-7.04c-1.17 0-2.31.1-3.43.3v82.77h152.56v-80.42c-2.97-1.68-6.4-2.65-10.05-2.65z"/><path d="m424.78 319.78c-2.66-29.85-27.8-53.34-58.34-53.34-30.53 0-55.67 23.49-58.33 53.34h-31.66v10.46h31.66c2.66 29.86 27.8 53.35 58.33 53.35 30.54 0 55.68-23.49 58.34-53.35h31.65v-10.46zm-58.34 53.35c-24.76 0-45.21-18.8-47.82-42.89h95.65c-2.61 24.09-23.06 42.89-47.83 42.89zm-47.82-53.35c2.61-24.08 23.06-42.88 47.82-42.88 24.77 0 45.22 18.8 47.83 42.88z"/></g><g fill="#d6d8e8"><path d="m303.94 478.88v1.57h-7.04c-1.17 0-2.31-.1-3.43-.3v-11.05c2.19 4.39 5.92 7.89 10.47 9.78z"/><path d="m276.45 319.78h14.88v10.46h-14.88z"/><path d="m303.94 169.58v1.57c-4.55 1.89-8.28 5.39-10.47 9.78v-11.05c1.12-.2 2.26-.3 3.43-.3z"/></g><circle cx="366.444" cy="325.015" fill="#ca245f" r="40.358"/><path d="m374.799 364.5c-2.692.572-5.489.872-8.356.872-22.285 0-40.357-18.072-40.357-40.357 0-22.292 18.072-40.364 40.357-40.364 2.867 0 5.664.3 8.356.872-18.288 3.843-32.015 20.06-32.015 39.492 0 19.425 13.727 35.642 32.015 39.485z" fill="#b7004f"/><path d="m383.629 318.618-18.665-10.776c-4.925-2.843-11.081.711-11.081 6.397v21.553c0 5.687 6.156 9.241 11.081 6.397l18.665-10.776c4.925-2.844 4.925-9.952 0-12.795z" fill="#eceef1"/></g></g></svg>