<svg id="Capa_1" enable-background="new 0 0 512 512" height="512" viewBox="0 0 512 512" width="512" xmlns="http://www.w3.org/2000/svg"><g><path d="m512 256c0 141.38-114.62 256-256 256s-256-114.62-256-256c0-97.45 54.45-182.18 134.59-225.43 21.75-11.74 45.39-20.42 70.36-25.47 16.5-3.35 33.57-5.1 51.05-5.1 13.92 0 27.57 1.11 40.89 3.26 121.94 19.56 215.11 125.28 215.11 252.74z" fill="#efc64c"/><g fill="#ca245f"><path d="m349.464 172.398c-.018 0-.037 0-.056 0-3.688.021-7.563.036-10.922.044v-49.401c0-5.375-4.357-9.732-9.732-9.732s-9.732 4.357-9.732 9.732v59.089c0 4.741 3.416 8.792 8.09 9.592.695.119 1.134.194 7.833.194 3.197 0 7.819-.017 14.573-.054 5.375-.03 9.707-4.411 9.678-9.786-.031-5.356-4.382-9.678-9.732-9.678z"/><path d="m379.407 113.31c-5.375 0-9.732 4.357-9.732 9.732v59.138c0 5.375 4.357 9.732 9.732 9.732s9.732-4.357 9.732-9.732v-59.138c0-5.375-4.357-9.732-9.732-9.732z"/><path d="m502.268 172.448h-14.959v-9.835h13.138c5.375 0 9.732-4.357 9.732-9.732s-4.357-9.732-9.732-9.732h-13.138v-9.835h14.959c5.375 0 9.732-4.357 9.732-9.732s-4.357-9.732-9.732-9.732h-24.691c-5.375 0-9.732 4.357-9.732 9.732v58.599c0 5.375 4.357 9.732 9.732 9.732h24.691c5.375 0 9.732-4.357 9.732-9.732s-4.357-9.733-9.732-9.733z"/><path d="m452.585 113.914c-5.102-1.696-10.61 1.067-12.304 6.167l-11.512 34.653-12.109-34.885c-1.763-5.078-7.31-7.766-12.386-6.002-5.078 1.762-7.765 7.308-6.003 12.385l20.243 58.314c1.566 4.413 5.751 7.365 10.428 7.365h.074c4.707-.031 8.888-3.047 10.426-7.569l19.309-58.125c1.696-5.1-1.065-10.608-6.166-12.303z"/></g><g><path d="m138.666 45.588h154.149v331.081h-154.149z" fill="#ffddce"/><path d="m138.666 45.588h66.283v331.081h-66.283z" fill="#ffcbbe"/><g><path d="m415.586 453.078h-50.936v-217.15h50.936c42.197 0 76.404 34.207 76.404 76.404v64.341c.001 42.198-34.207 76.405-76.404 76.405z" fill="#2e4f5f"/><path d="m364.65 453.078c-42.197 0-76.405-34.207-76.405-76.404v-64.341c0-42.197 34.207-76.404 76.404-76.404 42.197 0 76.404 34.207 76.404 76.404v64.341c.001 42.197-34.206 76.404-76.403 76.404z" fill="#1f3645"/><path d="m332.142 422.265h-177.497v-57.953h219.057v16.393c0 22.953-18.607 41.56-41.56 41.56z" fill="#ffddce"/><path d="m363.497 372.487h-260.284v-69.537h260.284c19.202 0 34.769 15.566 34.769 34.769 0 19.202-15.567 34.768-34.769 34.768z" fill="#2e4f5f"/><path d="m348.904 265.253h-21.172c-11.693 0-21.172 9.479-21.172 21.172 0 10.454 7.584 19.116 17.545 20.839v99.287l49.596-25.846v-90.654c.001-13.696-11.102-24.798-24.797-24.798z" fill="#ffddce"/><path d="m346.009 307.264v57.472c0 9.308-7.545 16.853-16.853 16.853h-5.048v-74.324c-9.956-1.733-17.548-10.386-17.548-20.84 0-11.703 9.486-21.176 21.176-21.176h21.176c.134 0 .255 0 .39.013-11.542.175-20.84 9.567-20.84 21.162 0 10.454 7.591 19.107 17.547 20.84z" fill="#ffcbbe"/><path d="m300.748 265.253h-21.172c-11.693 0-21.172 9.479-21.172 21.172 0 10.454 7.584 19.116 17.545 20.839v99.287h49.596v-116.5c.001-13.696-11.101-24.798-24.797-24.798z" fill="#ffddce"/><path d="m297.854 307.264v57.472c0 9.308-7.545 16.853-16.853 16.853h-5.048v-74.324c-9.956-1.733-17.548-10.386-17.548-20.84 0-11.703 9.486-21.176 21.176-21.176h21.176c.134 0 .255 0 .39.013-11.542.175-20.84 9.567-20.84 21.162-.001 10.454 7.59 19.107 17.547 20.84z" fill="#ffcbbe"/><path d="m254.876 265.253h-21.172c-11.693 0-21.172 9.479-21.172 21.172 0 10.454 7.584 19.116 17.545 20.839v99.287h49.596v-116.5c.001-13.696-11.102-24.798-24.797-24.798z" fill="#ffddce"/><path d="m251.981 307.264v57.472c0 9.308-7.545 16.853-16.853 16.853h-5.048v-74.324c-9.956-1.733-17.548-10.386-17.548-20.84 0-11.703 9.486-21.176 21.176-21.176h21.176c.134 0 .255 0 .39.013-11.542.175-20.84 9.567-20.84 21.162 0 10.454 7.591 19.107 17.547 20.84z" fill="#ffcbbe"/><path d="m207.096 265.249h-21.172c-11.693 0-21.172 9.479-21.172 21.172 0 10.454 7.584 19.116 17.545 20.839v99.287h49.596v-116.5c.001-13.695-11.101-24.798-24.797-24.798z" fill="#ffddce"/><path d="m204.202 307.264v99.28h-21.901v-99.28c-9.956-1.733-17.548-10.386-17.548-20.84 0-11.703 9.486-21.176 21.176-21.176h21.176c.134 0 .255 0 .39.013-11.542.175-20.84 9.567-20.84 21.162-.001 10.455 7.591 19.108 17.547 20.841z" fill="#ffcbbe"/><path d="m127.341 453.078h-50.936v-217.15h50.936c42.197 0 76.404 34.207 76.404 76.404v64.341c0 42.198-34.207 76.405-76.404 76.405z" fill="#2e4f5f"/><path d="m76.405 453.078c-42.198 0-76.405-34.207-76.405-76.404v-64.341c0-42.197 34.207-76.404 76.404-76.404 42.197 0 76.404 34.207 76.404 76.404v64.341c.001 42.197-34.206 76.404-76.403 76.404z" fill="#1f3645"/><path d="m90.476 409.923c-4.327 1.827-9.083 2.848-14.068 2.848-19.912 0-36.103-16.191-36.103-36.103v-64.333c0-19.899 16.191-36.103 36.103-36.103 4.985 0 9.741 1.021 14.068 2.862-12.939 5.496-22.022 18.327-22.022 33.241v64.333c0 14.915 9.083 27.746 22.022 33.255z" fill="#2e4f5f"/></g><path d="m296.89 3.26v181.82h-162.3v-154.51c36.13-19.5 77.48-30.57 121.41-30.57 13.92 0 27.57 1.11 40.89 3.26z" fill="#5e54ac"/><path d="m134.592 134.014h162.298v51.071h-162.298z" fill="#453d81"/><path d="m204.95 5.1v179.98h-70.36v-154.51c21.75-11.74 45.39-20.42 70.36-25.47z" fill="#453d81"/><path d="m280.082 148.322h-128.682c-16.287 0-29.489 13.203-29.489 29.489 0 16.287 13.203 29.489 29.489 29.489h128.681c16.287 0 29.489-13.203 29.489-29.489.001-16.287-13.202-29.489-29.488-29.489z" fill="#5e54ac"/><path d="m193.481 198.661c5.33 5.34 12.7 8.64 20.85 8.64h-62.93c-8.14 0-15.52-3.3-20.85-8.64-5.34-5.33-8.64-12.7-8.64-20.85 0-16.29 13.2-29.49 29.49-29.49h62.93c-16.29 0-29.49 13.2-29.49 29.49 0 8.15 3.3 15.52 8.64 20.85z" fill="#453d81"/></g></g></svg>