<svg id="Capa_1" enable-background="new 0 0 512 512" height="512" viewBox="0 0 512 512" width="512" xmlns="http://www.w3.org/2000/svg"><g><path d="m512 256c0 80.8-37.44 152.86-95.91 199.77-43.84 35.18-99.51 15.441-160.09 15.441s-116.25 19.739-160.09-15.441c-58.47-46.91-95.91-118.97-95.91-199.77 0-81 37.62-153.22 96.35-200.13 32.81-26.21 72.22-44.52 115.33-52.04 14.39-2.52 29.2-3.83 44.32-3.83s29.93 1.31 44.32 3.83c43.11 7.52 82.52 25.83 115.33 52.04 58.73 46.91 96.35 119.13 96.35 200.13z" fill="#5e54ac"/><path d="m416.25 64.39v387.05c0 1.46-.05 2.9-.16 4.33-43.84 35.18-99.51 56.23-160.09 56.23h-99.69c-31.99 0-58.19-24.8-60.4-56.23-.11-1.43-.16-2.87-.16-4.33v-387.05c0-2.89.2-5.73.6-8.52 4.13-29.41 29.4-52.04 59.96-52.04h199.38c30.56 0 55.83 22.63 59.96 52.04.4 2.79.6 5.63.6 8.52z" fill="#2e4f5f"/><path d="m182.337 512h-26.03c-33.45 0-60.56-27.11-60.56-60.56v-387.05c0-33.45 27.11-60.56 60.56-60.56h26.03c-33.45 0-60.56 27.11-60.56 60.56v387.05c0 33.45 27.11 60.56 60.56 60.56z" fill="#1f3645"/><path d="m385.02 64.39v387.05c0 10.94-6.02 20.49-14.92 25.52-4.25 2.42-9.17 3.8-14.41 3.8h-199.39c-1.68 0-3.32-.14-4.92-.42-13.84-2.34-24.4-14.41-24.4-28.9v-387.05c0-14.49 10.56-26.56 24.4-28.9 1.6-.28 3.24-.42 4.92-.42h34.29c.4 10.31 6.05 19.27 14.35 24.28 4.48 2.71 9.74 4.27 15.36 4.27h71.4c10.38 0 19.53-5.33 24.84-13.4 2.89-4.38 4.65-9.57 4.86-15.15h34.29c5.24 0 10.16 1.38 14.41 3.8 8.9 5.03 14.92 14.58 14.92 25.52z" fill="#9ddea3"/><path d="m172.71 480.34c1.6.28 3.24.42 4.92.42h-21.33c-1.68 0-3.32-.14-4.92-.42-13.84-2.34-24.4-14.41-24.4-28.9v-387.05c0-14.49 10.56-26.56 24.4-28.9 1.6-.28 3.24-.42 4.92-.42h21.33c-1.68 0-3.32.14-4.92.42-13.84 2.34-24.4 14.41-24.4 28.9v387.05c0 14.49 10.56 26.56 24.4 28.9z" fill="#88c98b"/><path d="m291.318 36.096c0-4.303-3.488-7.79-7.79-7.79h-55.052c-4.303 0-7.79 3.488-7.79 7.79 0 4.302 3.488 7.79 7.79 7.79h55.052c4.302 0 7.79-3.487 7.79-7.79z" fill="#1f3645"/><g fill="#eceef1"><path d="m151.38 361.66v118.68c1.6.28 3.24.42 4.92.42h10.08v-104.1h188.72v104.1h.59c5.24 0 10.16-1.38 14.41-3.8v-115.3zm38.56 53.2v65.9h15v-50.9h111.6v50.9h15v-65.9z"/><path d="m321.4 35.07c-.21 5.58-1.97 10.77-4.86 15.15v35.74h-111.6v-26.61c-8.3-5.01-13.95-13.97-14.35-24.28h-.65v65.89h141.6v-65.89zm34.29 0h-.59v104.1h-188.72v-104.1h-10.08c-1.68 0-3.32.14-4.92.42v118.68h218.72v-115.3c-4.25-2.42-9.17-3.8-14.41-3.8z"/><path d="m339.63 250.41c-3.81-42.8-39.85-76.48-83.63-76.48s-79.82 33.68-83.63 76.48h-45.39v15h45.39c3.81 42.81 39.85 76.49 83.63 76.49s79.82-33.68 83.63-76.49h45.39v-15zm-83.63 76.49c-35.5 0-64.82-26.96-68.57-61.49h137.14c-3.75 34.53-33.07 61.49-68.57 61.49zm-68.57-76.49c3.75-34.52 33.07-61.48 68.57-61.48s64.82 26.96 68.57 61.48z"/></g><g fill="#d6d8e8"><path d="m166.38 478.51v2.25h-10.08c-1.68 0-3.32-.14-4.92-.42v-15.86c3.13 6.3 8.47 11.31 15 14.03z"/><path d="m126.98 250.41h21.33v15h-21.33z"/><path d="m166.38 35.07v2.25c-6.53 2.72-11.87 7.73-15 14.02v-15.85c1.6-.28 3.24-.42 4.92-.42z"/></g><circle cx="256" cy="257.915" fill="#ca245f" r="57.862"/><path d="m267.978 314.525c-3.86.82-7.87 1.25-11.98 1.25-31.95 0-57.86-25.91-57.86-57.86 0-31.96 25.91-57.87 57.86-57.87 4.11 0 8.12.43 11.98 1.25-26.22 5.51-45.9 28.76-45.9 56.62 0 27.85 19.68 51.1 45.9 56.61z" fill="#b7004f"/><path d="m280.638 248.743-26.76-15.45c-7.061-4.076-15.886 1.019-15.886 9.172v30.9c0 8.153 8.826 13.249 15.886 9.172l26.76-15.45c7.061-4.076 7.061-14.268 0-18.344z" fill="#eceef1"/></g></svg>