<svg id="Capa_1" enable-background="new 0 0 512 512" height="512" viewBox="0 0 512 512" width="512" xmlns="http://www.w3.org/2000/svg"><g><path d="m512 256c0 89.74-46.18 168.71-116.08 214.41-40.22 26.3-88.28 1.461-139.92 1.461-19.43 0-38.34-2.16-56.53-6.26-30.16-6.8-58.3 21.208-83.39 4.798-69.9-45.699-116.08-124.669-116.08-214.409 0-141.38 114.62-256 256-256s256 114.62 256 256z" fill="#5e54ac"/><path d="m395.92 470.41c-40.22 26.3-88.28 41.59-139.92 41.59s-99.7-15.29-139.92-41.59l43.15-127.23h193.54z" fill="#d6d8e8"/><path d="m222.27 343.18-1.17 31.92-21.63 130.64c-30.16-6.8-58.3-18.92-83.39-35.33l43.15-127.23z" fill="#b8bede"/><path d="m455.52 199.52c0 4.36-.14 8.69-.41 12.97-6.69 104.16-93.28 186.55-199.11 186.55s-192.42-82.39-199.11-186.55c-.27-4.28-.41-8.61-.41-12.97s.14-8.69.41-12.97c6.69-104.15 93.28-186.55 199.11-186.55s192.42 82.4 199.11 186.55c.27 4.28.41 8.61.41 12.97z" fill="#eceef1"/><path d="m455.52 199.52c0 4.36-.14 8.69-.41 12.97h-398.22c-.27-4.28-.41-8.61-.41-12.97s.14-8.69.41-12.97h398.22c.27 4.28.41 8.61.41 12.97z" fill="#d6d8e8"/><path d="m297.4 394.74c-13.36 2.82-27.21 4.3-41.4 4.3-105.83 0-192.42-82.39-199.11-186.55-.27-4.28-.41-8.61-.41-12.97s.14-8.69.41-12.97c6.69-104.15 93.28-186.55 199.11-186.55 14.19 0 28.04 1.48 41.4 4.3-86.22 18.19-151.92 92.08-157.7 182.25-.28 4.29-.42 8.61-.42 12.97s.14 8.68.42 12.97c5.78 90.18 71.48 164.06 157.7 182.25z" fill="#d6d8e8"/><path d="m139.28 199.52c0 4.36.14 8.68.42 12.97h-82.81c-.27-4.28-.41-8.61-.41-12.97s.14-8.69.41-12.97h82.81c-.28 4.29-.42 8.61-.42 12.97z" fill="#b8bede"/><circle cx="256" cy="199.522" fill="#d6d8e8" r="94.772"/><circle cx="256" cy="199.522" fill="#b8bede" r="67.306"/><circle cx="256" cy="199.522" fill="#426b7b" r="37.724"/><circle cx="256" cy="199.522" fill="#2e4f5f" r="19.95"/><g><circle cx="255.998" cy="321.224" fill="#ca245f" r="13.468"/><path d="m259.99 334.074c-1.26.4-2.6.61-3.99.61-7.44 0-13.47-6.03-13.47-13.46 0-7.44 6.03-13.47 13.47-13.47 1.39 0 2.73.21 3.99.61-5.48 1.7-9.46 6.81-9.46 12.86 0 6.04 3.98 11.15 9.46 12.85z" fill="#b7004f"/></g><g fill="#ca245f"><path d="m189.953 467.408c-.018 0-.037 0-.056 0-3.688.021-7.563.036-10.922.044v-49.401c0-5.375-4.357-9.732-9.732-9.732s-9.732 4.357-9.732 9.732v59.089c0 4.741 3.416 8.792 8.09 9.592.695.119 1.133.194 7.833.194 3.197 0 7.819-.017 14.573-.054 5.375-.03 9.707-4.411 9.678-9.786-.031-5.356-4.383-9.678-9.732-9.678z"/><path d="m219.896 408.32c-5.375 0-9.732 4.357-9.732 9.732v59.138c0 5.375 4.357 9.732 9.732 9.732s9.732-4.357 9.732-9.732v-59.138c0-5.375-4.357-9.732-9.732-9.732z"/><path d="m342.757 467.458h-14.959v-9.835h13.138c5.375 0 9.732-4.357 9.732-9.732s-4.357-9.732-9.732-9.732h-13.138v-9.835h14.959c5.375 0 9.732-4.357 9.732-9.732s-4.357-9.732-9.732-9.732h-24.691c-5.375 0-9.732 4.357-9.732 9.732v58.599c0 5.375 4.357 9.732 9.732 9.732h24.691c5.375 0 9.732-4.357 9.732-9.732 0-5.376-4.357-9.733-9.732-9.733z"/><path d="m293.074 408.924c-5.102-1.696-10.61 1.067-12.304 6.167l-11.512 34.653-12.108-34.884c-1.763-5.078-7.31-7.766-12.386-6.002-5.078 1.762-7.765 7.308-6.003 12.385l20.243 58.314c1.566 4.413 5.751 7.365 10.428 7.365h.074c4.707-.031 8.888-3.047 10.426-7.569l19.309-58.125c1.695-5.101-1.066-10.609-6.167-12.304z"/></g></g></svg>