<svg id="Capa_1" enable-background="new 0 0 512 512" height="512" viewBox="0 0 512 512" width="512" xmlns="http://www.w3.org/2000/svg"><g><path d="m512 256c0 103.43-61.34 192.53-149.63 232.91-32.39 14.83-68.42-2.341-106.37-2.341s-73.98 17.171-106.37 2.341c-88.29-40.38-149.63-129.48-149.63-232.91 0-141.38 114.62-256 256-256s256 114.62 256 256z" fill="#9ddea3"/><path d="m366.24 471.66c0 6.17-1.39 12.02-3.87 17.25-32.39 14.83-68.42 23.09-106.37 23.09s-73.98-8.26-106.37-23.09c-2.49-5.23-3.87-11.08-3.87-17.25 0-3.03.33-5.99.97-8.82 4.02-18.04 20.12-31.52 39.37-31.52h139.8c11.13 0 21.23 4.51 28.52 11.81 7.31 7.31 11.82 17.38 11.82 28.53z" fill="#426b7b"/><path d="m261.45 431.316-5.45 31.524h-109.271c4.018-18.038 20.119-31.524 39.374-31.524z" fill="#2e4f5f"/><path d="m450.346 194.346c0-107.334-87.011-194.346-194.345-194.346-106.661 0-192.98 85.175-194.331 191.828-1.006 79.446 45.668 148.097 113.209 179.161 24.741 11.379 42.128 34.394 45.973 61.353v.003c2.495 17.494 17.476 30.49 35.147 30.49 17.671 0 32.652-12.996 35.147-30.49 3.808-26.702 20.76-49.874 45.308-61.052 67.185-30.592 113.892-98.311 113.892-176.947z" fill="#ca245f"/><path d="m256.003 462.837c-8.839 0-16.998-3.255-23.261-8.684-6.264-5.439-10.632-13.063-11.888-21.809-3.843-26.96-21.232-49.974-45.967-61.357-67.549-31.06-114.216-99.711-113.217-179.159 1.35-105.965 86.577-190.738 192.283-191.81-86.669 1.309-156.484 85.989-157.586 191.81-.824 79.448 37.519 148.099 93.005 179.159 20.315 11.383 34.604 34.398 37.756 61.357h.01c2.04 17.492 14.35 30.493 28.865 30.493z" fill="#b7004f"/><circle cx="256.001" cy="194.338" fill="#eceef1" r="134.419"/><path d="m273.121 327.684c-5.604.711-11.322 1.081-17.121 1.081-74.235 0-134.418-60.183-134.418-134.428 0-74.235 60.183-134.418 134.418-134.418 5.8 0 11.517.371 17.121 1.082-66.148 8.417-117.276 64.912-117.276 133.337.001 68.435 51.129 124.93 117.276 133.346z" fill="#d6d8e8"/><g><path d="m335.577 114.749c1.976 1.976 3.873 4.014 5.66 6.099 15.577 18.023 24.49 39.793 26.732 62.119.564 5.535.706 11.101.455 16.651-1.145 24.428-10.199 48.549-27.179 68.195-1.795 2.093-3.685 4.124-5.66 6.099-1.976 1.976-4.006 3.865-6.099 5.66-19.646 16.98-43.775 26.043-68.203 27.187-5.55.251-11.108.102-16.635-.455-22.327-2.242-44.112-11.155-62.135-26.732-2.085-1.787-4.123-3.685-6.099-5.66-1.976-1.976-3.865-4.006-5.66-6.099-15.569-18.015-24.482-39.801-26.724-62.127-.557-5.527-.706-11.085-.455-16.635 1.145-24.428 10.207-48.557 27.187-68.203 1.795-2.093 3.684-4.124 5.66-6.099 1.975-1.975 4.006-3.865 6.099-5.66 19.645-16.98 43.767-26.035 68.195-27.179 5.55-.251 11.116-.11 16.651.455 22.327 2.242 44.097 11.155 62.111 26.724 2.093 1.795 4.123 3.684 6.099 5.66z" fill="#e3a12f"/><path d="m286.966 302.573c-9.834 2.805-20.222 4.313-30.965 4.313-62.162 0-112.551-50.388-112.551-112.551 0-62.151 50.388-112.54 112.551-112.54 10.743 0 21.131 1.508 30.965 4.313-47.096 13.448-81.586 56.819-81.586 108.227 0 51.419 34.49 94.79 81.586 108.238z" fill="#de8635"/><path d="m335.577 114.749c-1.976-1.976-4.006-3.865-6.099-5.66l-37.355 37.355c-15.749-18.462-24.004-41.172-24.757-64.079-5.535-.564-11.101-.706-16.651-.455.682 27.32 10.552 54.468 29.617 76.324l-24.333 24.333-73.479-73.479c-2.093 1.795-4.124 3.685-6.099 5.66-1.976 1.976-3.865 4.006-5.66 6.099l73.479 73.479-24.341 24.341c-21.864-19.058-49.004-28.935-76.324-29.617-.251 5.55-.102 11.108.455 16.635 22.907.768 45.617 9.023 64.079 24.772l-37.355 37.355c1.795 2.093 3.685 4.123 5.66 6.099 1.976 1.976 4.014 3.873 6.099 5.66l37.355-37.355c15.757 18.47 24.012 41.18 24.78 64.087 5.527.557 11.085.706 16.635.455-.682-27.32-10.56-54.46-29.625-76.332l24.341-24.341 73.486 73.486c2.093-1.795 4.124-3.684 6.099-5.66 1.975-1.975 3.865-4.006 5.66-6.099l-73.486-73.486 24.333-24.333c21.864 19.073 49.012 28.943 76.332 29.625.251-5.55.11-11.116-.455-16.651-22.915-.76-45.617-9.007-64.087-24.765l37.355-37.355c-1.786-2.084-3.684-4.122-5.659-6.098z" fill="#efc64c"/></g><path d="m285.677 182.217-35.364-20.417c-9.331-5.387-20.994 1.347-20.994 12.121v40.834c0 10.774 11.663 17.508 20.994 12.121l35.363-20.417c9.331-5.387 9.331-18.855.001-24.242z" fill="#eceef1"/></g></svg>