<svg id="Capa_1" enable-background="new 0 0 512 512" height="512" viewBox="0 0 512 512" width="512" xmlns="http://www.w3.org/2000/svg"><g><circle cx="256" cy="256" fill="#9dc6fb" r="256"/><g fill="#1f3645"><path d="m69.941 368.492c6.922 0 13.107-4.323 15.486-10.824l16.208-44.303h-44.743l-3.373 37.146c-.877 9.657 6.726 17.981 16.422 17.981z"/><path d="m359.257 343.883c-7.918 8.944-16.607 17.18-25.965 24.612h-1.385l-20.164-55.129h44.745z"/></g><path d="m349.291 330.249h-285.205c-27.344 0-49.511-22.167-49.511-49.511v-205.819c0-27.344 22.167-49.511 49.511-49.511h285.204c27.344 0 49.511 22.167 49.511 49.511v205.819c.001 27.344-22.166 49.511-49.51 49.511z" fill="#2e4f5f"/><path d="m89.487 330.249h-25.4c-27.342 0-49.511-22.17-49.511-49.511v-205.82c0-27.342 22.17-49.511 49.511-49.511h25.4c-27.342 0-49.511 22.17-49.511 49.511v205.82c0 27.342 22.169 49.511 49.511 49.511z" fill="#1f3645"/><path d="m64.086 298.419c-9.749 0-17.681-7.932-17.681-17.681v-205.819c0-9.749 7.932-17.681 17.681-17.681h285.204c9.749 0 17.681 7.932 17.681 17.681v205.819c0 9.749-7.932 17.681-17.681 17.681z" fill="#9ddea3"/><path d="m131.097 298.419h-67.01c-9.748 0-17.682-7.934-17.682-17.682v-205.819c0-9.748 7.934-17.682 17.682-17.682h67.01c-29.276 0-53.005 23.729-53.005 53.005v135.166c0 29.275 23.729 53.012 53.005 53.012z" fill="#88c98b"/><g><path d="m496.893 208.588v170.85c-1.47 3.457-23.048 7.344-23.513 7.873-.041.041-.082.088-.123.135h-246.186v-178.858c0-18.491 14.987-33.479 33.479-33.479h202.859c18.491 0 33.484 14.987 33.484 33.479z" fill="#b8bede"/><path d="m496.893 359.289v19.162c-9.055 2.646-18.121 5.221-22.09 7.738-.006 0-247.733 1.258-247.733 1.258v-28.158z" fill="#a8acd3"/><path d="m276.389 175.11c-18.492 0-33.479 14.987-33.479 33.479v178.859h-15.84v-178.859c0-18.492 14.987-33.479 33.479-33.479z" fill="#a8acd3"/><path d="m250.589 336.011v-127.422c0-5.502 4.46-9.962 9.962-9.962h202.86c5.502 0 9.961 4.46 9.961 9.962v127.423c0 7.167-5.81 12.977-12.977 12.977h-196.829c-7.167-.001-12.977-5.811-12.977-12.978z" fill="#9ddea3"/><path d="m283.285 348.988h-19.72c-7.167 0-12.976-5.809-12.976-12.976v-127.423c0-5.497 4.463-9.96 9.966-9.96h19.714c-5.503 0-9.96 4.463-9.96 9.96v127.424c0 7.166 5.809 12.975 12.976 12.975z" fill="#88c98b"/><path d="m488.909 368.678h-2.087-256.976-2.087c-11.013 0-19.944 8.925-19.944 19.938 0 5.509 2.234 10.495 5.844 14.105 3.61 3.604 8.596 5.838 14.099 5.838h37.53 186.091 37.53c5.503 0 10.489-2.234 14.099-5.838 3.61-3.61 5.844-8.596 5.844-14.105 0-11.013-8.931-19.938-19.943-19.938z" fill="#d6d8e8"/><g fill="#b8bede"><path d="m257.774 402.718c3.61 3.61 8.596 5.844 14.105 5.844h-44.121c-5.503 0-10.489-2.234-14.099-5.844s-5.844-8.596-5.844-14.099c0-11.013 8.931-19.944 19.944-19.944h44.121c-11.018 0-19.944 8.931-19.944 19.944 0 5.503 2.234 10.489 5.838 14.099z"/><path d="m403.201 368.678c-.088 8.437-6.956 15.246-15.411 15.246h-58.914c-8.455 0-15.322-6.809-15.411-15.246z"/></g></g><path d="m226.414 167.421-28.264-16.318c-7.457-4.306-16.779 1.076-16.779 9.687v32.637c0 8.611 9.322 13.993 16.779 9.687l28.264-16.318c7.457-4.305 7.457-15.069 0-19.375z" fill="#ca245f"/><path d="m378.059 262.072-28.264-16.318c-7.457-4.306-16.779 1.076-16.779 9.687v32.637c0 8.611 9.322 13.993 16.779 9.687l28.264-16.318c7.457-4.306 7.457-15.069 0-19.375z" fill="#ca245f"/><g><path d="m130.817 500.647h198.023c17.112 0 30.984-13.872 30.984-30.984v-102.01c0-17.112-13.872-30.984-30.984-30.984h-198.023c-17.112 0-30.984 13.872-30.984 30.984v102.01c0 17.112 13.872 30.984 30.984 30.984z" fill="#2e4f5f"/><path d="m140.914 500.651h-10.1c-17.11 0-30.981-13.871-30.981-30.987v-102.011c0-17.11 13.871-30.981 30.981-30.981h10.1c-17.11 0-30.987 13.871-30.987 30.981v102.011c0 17.116 13.877 30.987 30.987 30.987z" fill="#1f3645"/><path d="m329.234 400.396v36.527c0 8.198 6.488 14.883 14.607 15.198v17.542c0 8.273-6.728 15.006-15.001 15.006h-198.024c-8.273 0-15.001-6.733-15.001-15.006v-102.012c0-8.273 6.728-15.001 15.001-15.001h198.024c8.273 0 15.001 6.728 15.001 15.001v17.542c-8.119.314-14.607 6.999-14.607 15.203z" fill="#9ddea3"/><path d="m146.227 484.668h-15.411c-8.273 0-15.001-6.733-15.001-15.006v-102.011c0-8.273 6.728-15.001 15.001-15.001h15.411c-8.273 0-15.001 6.728-15.001 15.001v102.011c.001 8.273 6.729 15.006 15.001 15.006z" fill="#88c98b"/><path d="m343.315 436.728c2.201 0 3.986-1.784 3.986-3.986v-28.166c0-2.201-1.784-3.986-3.986-3.986-2.201 0-3.986 1.784-3.986 3.986v28.166c0 2.201 1.784 3.986 3.986 3.986z" fill="#1f3645"/></g><path d="m258.058 407.849-28.264-16.318c-7.457-4.306-16.779 1.076-16.779 9.687v32.637c0 8.611 9.322 13.993 16.779 9.687l28.264-16.318c7.457-4.306 7.457-15.07 0-19.375z" fill="#ca245f"/></g></svg>