<svg id="Capa_1" enable-background="new 0 0 512 512" height="512" viewBox="0 0 512 512" width="512" xmlns="http://www.w3.org/2000/svg"><g><path d="m512 256c0 81.16-37.77 153.5-96.69 200.4-5.923 4.716-27.811-6.577-34.146-2.393-5.89 3.889 3.801 23.292-2.414 26.693-36.45 19.95-78.27 31.3-122.75 31.3s-86.3-11.35-122.75-31.3c-12.9-7.06-25.13-15.2-36.56-24.3-58.92-46.9-96.69-119.24-96.69-200.4 0-141.38 114.62-256 256-256s256 114.62 256 256z" fill="#ca245f"/><g><path d="m333.834 447.071h-155.668l14.857-56.865h125.954z" fill="#1f3645"/><path d="m435.205 408.496h-358.41c-34.363 0-62.22-27.857-62.22-62.22v-258.648c0-34.363 27.857-62.22 62.22-62.22h358.41c34.363 0 62.22 27.857 62.22 62.22v258.648c0 34.363-27.857 62.22-62.22 62.22z" fill="#2e4f5f"/><path d="m108.715 408.496h-31.92c-34.36 0-62.22-27.86-62.22-62.22v-258.65c0-34.36 27.86-62.22 62.22-62.22h31.92c-34.36 0-62.22 27.86-62.22 62.22v258.65c0 34.36 27.86 62.22 62.22 62.22z" fill="#1f3645"/><path d="m457.42 87.63v258.65c0 8.62-4.93 16.11-12.12 19.79-3.03 1.56-25.522-6.905-29.152-6.905l-66.948 9.335h-272.41c-12.25 0-22.21-9.97-22.21-22.22v-258.65c0-12.25 9.96-22.22 22.21-22.22h154.02l189.329 9.543c3.63 0 22.131-8.673 25.161-7.113 7.19 3.68 12.12 11.17 12.12 19.79z" fill="#eceef1"/><path d="m161.005 368.496h-84.21c-12.25 0-22.22-9.97-22.22-22.22v-258.65c0-12.25 9.97-22.22 22.22-22.22h84.21c-36.79 0-66.61 29.82-66.61 66.61v169.86c0 36.79 29.82 66.62 66.61 66.62z" fill="#d6d8e8"/><path d="m415.31 456.4c-11.43 9.1-23.66 17.24-36.56 24.3h-261.12c-5.85 0-11.14-2.37-14.97-6.2-3.83-3.82-6.2-9.12-6.2-14.96 0-1.07.08-2.12.23-3.14 1.52-10.2 10.32-18.02 20.94-18.02h276.74c5.85 0 11.14 2.37 14.97 6.2 3.13 3.12 5.28 7.23 5.97 11.82z" fill="#2e4f5f"/><path d="m158.532 474.511c3.83 3.83 9.11 6.2 14.96 6.2h-55.86c-5.85 0-11.14-2.37-14.97-6.2s-6.2-9.12-6.2-14.97c0-11.68 9.48-21.16 21.17-21.16h55.86c-11.69 0-21.16 9.48-21.16 21.16 0 5.85 2.37 11.14 6.2 14.97z" fill="#1f3645"/></g><g><g><path d="m427.592 182.534h-136.173c-9.78 0-17.709 7.929-17.709 17.709v33.418c0 9.78 7.929 17.709 17.709 17.709h136.173c9.78 0 17.709-7.929 17.709-17.709v-33.418c0-9.78-7.929-17.709-17.709-17.709z" fill="#e3a12f"/><g fill="#2e4f5f"><path d="m401.406 212.463h-100.256c-4.408 0-7.981-3.573-7.981-7.981 0-4.408 3.573-7.981 7.981-7.981h100.255c4.408 0 7.981 3.573 7.981 7.981.001 4.408-3.573 7.981-7.98 7.981z"/><path d="m362.498 237.404h-61.348c-4.408 0-7.981-3.573-7.981-7.981 0-4.408 3.573-7.981 7.981-7.981h61.348c4.408 0 7.981 3.573 7.981 7.981 0 4.407-3.573 7.981-7.981 7.981z"/></g></g><g><path d="m427.592 263.636h-228.952c-9.78 0-17.709 7.929-17.709 17.709v33.418c0 9.78 7.929 17.709 17.709 17.709h228.952c9.78 0 17.709-7.929 17.709-17.709v-33.418c0-9.781-7.929-17.709-17.709-17.709z" fill="#5e54ac"/><g fill="#2e4f5f"><path d="m401.351 292.107h-196.638c-4.408 0-7.981-3.573-7.981-7.981 0-4.408 3.573-7.981 7.981-7.981h196.638c4.408 0 7.981 3.573 7.981 7.981 0 4.407-3.573 7.981-7.981 7.981z"/><path d="m266.061 317.047h-61.348c-4.408 0-7.981-3.573-7.981-7.981 0-4.408 3.573-7.981 7.981-7.981h61.348c4.408 0 7.981 3.573 7.981 7.981 0 4.408-3.573 7.981-7.981 7.981z"/></g></g><g><path d="m426.356 101.433h-125.721c-10.463 0-18.945 8.482-18.945 18.945v30.947c0 10.463 8.482 18.945 18.945 18.945h125.721c10.463 0 18.945-8.482 18.945-18.945v-30.947c0-10.463-8.482-18.945-18.945-18.945z" fill="#9ddea3"/><g><g><circle cx="410.883" cy="135.109" fill="#efc64c" r="21.781"/><path d="m399.116 140.8c0 6.499 5.268 11.767 11.767 11.767s11.767-5.268 11.767-11.767" fill="#eceef1"/><g fill="#2e4f5f"><circle cx="402.403" cy="130.509" r="6.097"/><circle cx="419.363" cy="130.509" r="6.097"/></g></g><g><circle cx="364.494" cy="135.109" fill="#efc64c" r="21.781"/><path d="m352.726 140.8c0 6.499 5.268 11.767 11.767 11.767s11.767-5.268 11.767-11.767" fill="#eceef1"/><g fill="#2e4f5f"><circle cx="356.014" cy="130.509" r="6.097"/><circle cx="372.973" cy="130.509" r="6.097"/></g></g><g><circle cx="316.109" cy="135.109" fill="#efc64c" r="21.781"/><path d="m304.342 140.8c0 6.499 5.268 11.767 11.767 11.767s11.767-5.268 11.767-11.767" fill="#eceef1"/><g fill="#2e4f5f"><circle cx="307.629" cy="130.509" r="6.097"/><circle cx="324.589" cy="130.509" r="6.097"/></g></g></g></g></g><path d="m445.3 67.84v3.14c0 9.78-7.93 17.71-17.71 17.71h-179.07c-9.78 0-17.71-7.93-17.71-17.71v-5.57h204.4c3.63 0 7.06.87 10.09 2.43z" fill="#efc64c"/><path d="m445.3 366.07c-3.03 1.56-6.46 2.43-10.09 2.43h-86.01v-2.39c0-9.78 7.93-17.71 17.71-17.71h60.68c9.77 0 17.69 7.91 17.71 17.67z" fill="#9dc6fb"/><path d="m247.166 202.531-35.283-20.371c-9.309-5.375-20.946 1.344-20.946 12.093v40.741c0 10.749 11.637 17.468 20.946 12.093l35.283-20.371c9.309-5.374 9.309-18.811 0-24.185z" fill="#d6d8e8"/></g></svg>