<svg id="Capa_1" enable-background="new 0 0 512 512" height="512" viewBox="0 0 512 512" width="512" xmlns="http://www.w3.org/2000/svg"><g><path d="m512 256c0 52.8-15.99 101.87-43.39 142.63-12.41 18.47-58.914 35.23-75.584 49.86-8.63 7.58 13.964 14.58 4.364 20.95-25.55 16.96-54.32 29.45-85.19 36.36-18.08 4.06-36.89-11.468-56.2-11.468-51.09 0-85.467-10.525-125.417-36.315-12.81-8.26-38.053-4.407-49.143-14.757-50.11-46.74-81.44-113.34-81.44-187.26 0-141.38 114.62-256 256-256s256 114.62 256 256z" fill="#9ddea3"/><g fill="#88c98b"><g><path d="m32.884 245.148c-4.959 0-8.979-4.02-8.979-8.979v-35.249c0-4.959 4.02-8.979 8.979-8.979 4.959 0 8.979 4.02 8.979 8.979v35.249c0 4.96-4.02 8.979-8.979 8.979z"/><path d="m57.396 245.148c-4.959 0-8.979-4.02-8.979-8.979v-15.663c0-4.959 4.02-8.979 8.979-8.979 4.959 0 8.979 4.02 8.979 8.979v15.663c0 4.96-4.02 8.979-8.979 8.979z"/></g><g><path d="m323.519 129.662c-4.959 0-8.979-4.02-8.979-8.979v-35.249c0-4.959 4.02-8.979 8.979-8.979 4.959 0 8.979 4.02 8.979 8.979v35.249c-.001 4.959-4.021 8.979-8.979 8.979z"/><path d="m348.03 129.662c-4.959 0-8.979-4.02-8.979-8.979v-15.663c0-4.959 4.02-8.979 8.979-8.979 4.959 0 8.979 4.02 8.979 8.979v15.663c0 4.959-4.02 8.979-8.979 8.979z"/></g><g><path d="m73.787 378.83c-4.959 0-8.979-4.02-8.979-8.979v-35.249c0-4.959 4.02-8.979 8.979-8.979 4.959 0 8.979 4.02 8.979 8.979v35.249c0 4.959-4.02 8.979-8.979 8.979z"/><path d="m98.299 378.83c-4.959 0-8.979-4.02-8.979-8.979v-15.663c0-4.959 4.02-8.979 8.979-8.979 4.959 0 8.979 4.02 8.979 8.979v15.663c0 4.959-4.02 8.979-8.979 8.979z"/></g></g><g><path d="m26.566 165.172c0 44.334 35.94 80.273 80.273 80.273s80.273-35.94 80.273-80.273z" fill="#453d81"/><path d="m169.024 153.2c0 44.334 35.94 80.273 80.273 80.273s80.273-35.94 80.273-80.273z" fill="#453d81"/><path d="m312.2 489.24v16.56c-18.08 4.06-36.89 6.2-56.2 6.2-67.46 0-128.83-26.1-174.56-68.74 7.54-18.13 19.4-34.01 34.28-46.35 26.404-8.436 47.44-27.61 76.54-27.61s55.77 10.37 76.55 27.61c26.51 21.99 43.39 55.19 43.39 92.33z" fill="#9dc6fb"/><path d="m214.11 371.3c-20.55 3.77-39.26 12.8-54.69 25.61-22.15 18.36-37.58 44.55-42.06 74.33-12.81-8.26-24.83-17.63-35.92-27.98 7.54-18.13 19.4-34.01 34.28-46.35 21.915-10.93 47.44-22.071 76.54-22.071 7.46 0 14.77-4.849 21.85-3.539z" fill="#80b4fb"/><path d="m268.805 396.908-76.543 76.543-76.543-76.543c4.204-3.482 8.632-6.687 13.283-9.565 18.367-11.443 40.032-18.039 63.26-18.039 7.41 0 14.649.67 21.678 1.958 15.03 2.746 29.075 8.29 41.582 16.081 4.652 2.877 9.079 6.083 13.283 9.565z" fill="#efc64c"/><path d="m214.111 371.301c-20.548 3.771-39.257 12.797-54.694 25.606-7.962 6.595-15.043 14.202-21.074 22.624l-22.624-22.624c4.204-3.482 8.632-6.687 13.283-9.565 20.771-4.19 40.032-18.039 63.26-18.039 7.41 0 14.649.67 21.678 1.958.053.014.119.027.171.04z" fill="#e3a12f"/><path d="m255.523 387.343-63.26 63.261-43.593-43.592-19.668-19.668c18.367-11.443 40.032-18.039 63.26-18.039 7.423 0 14.689.67 21.731 1.971 15.004 2.745 29.035 8.276 41.53 16.067z" fill="#ffddce"/><path d="m214.111 371.301c-20.548 3.771-39.257 12.797-54.694 25.606-3.797 3.14-7.397 6.516-10.747 10.104l-19.668-19.668c18.367-11.443 40.032-18.039 63.26-18.039 7.423 0 14.689.67 21.731 1.971.039.013.079.013.118.026z" fill="#ffcbbe"/><path d="m226.922 313.488v62.131c0 19.142-15.529 34.672-34.659 34.672-4.703 0-9.184-.933-13.27-2.628-12.56-5.216-21.402-17.592-21.402-32.044v-62.131z" fill="#ffddce"/><path d="m178.992 313.487v94.17c-12.558-5.211-21.396-17.592-21.396-32.033v-62.137z" fill="#ffcbbe"/><path d="m282.483 293.543h-180.45c-28.795 0-52.138-23.343-52.138-52.138 0-18.006 14.597-32.603 32.603-32.603h219.518c18.006 0 32.603 14.597 32.603 32.603.002 28.795-23.341 52.138-52.136 52.138z" fill="#ffddce"/><path d="m102.034 275.966c-19.057 0-34.56-15.504-34.56-34.561 0-8.286 6.741-15.026 15.026-15.026h219.518c8.286 0 15.026 6.741 15.026 15.026 0 19.057-15.504 34.561-34.56 34.561z" fill="#ffcbbe"/><path d="m226.922 313.488v61.198c-10.813 3.955-22.48 6.109-34.659 6.109s-23.859-2.155-34.672-6.109v-61.198z" fill="#ffcbbe"/><path d="m192.258 90.287c-55.828 0-101.085 45.257-101.085 101.085v74.351c0 55.828 45.257 101.085 101.085 101.085 55.828 0 101.085-45.257 101.085-101.085v-74.351c.001-55.827-45.257-101.085-101.085-101.085z" fill="#ffddce"/><path d="m218.378 363.398c-8.331 2.223-17.085 3.41-26.119 3.41-55.833 0-101.085-45.252-101.085-101.085v-74.351c0-55.824 45.252-101.085 101.085-101.085 9.035 0 17.788 1.186 26.119 3.41-43.169 11.513-74.975 50.885-74.975 97.675v74.351c0 46.799 31.806 86.171 74.975 97.675z" fill="#ffcbbe"/><circle cx="154.377" cy="207.919" fill="#fff" r="29.944"/><path d="m161.893 236.909c-2.41.62-4.92.95-7.52.95-16.54 0-29.94-13.4-29.94-29.94s13.4-29.94 29.94-29.94c2.6 0 5.11.33 7.52.95-12.91 3.33-22.44 15.04-22.44 28.99s9.53 25.66 22.44 28.99z" fill="#eceef1"/><circle cx="159.377" cy="207.919" fill="#1f3645" r="11.956"/><circle cx="240.517" cy="207.919" fill="#fff" r="29.944"/><path d="m248.033 236.909c-2.41.62-4.92.95-7.52.95-16.54 0-29.94-13.4-29.94-29.94s13.4-29.94 29.94-29.94c2.6 0 5.11.33 7.52.95-12.91 3.33-22.44 15.04-22.44 28.99s9.53 25.66 22.44 28.99z" fill="#eceef1"/><path d="m198.828 262.496c-5.787 0-10.479-4.691-10.479-10.479v-147.565h20.957v147.566c0 5.787-4.691 10.478-10.478 10.478z" fill="#ffcbbe"/><path d="m323.519 103.059c0 38.715-31.385 70.1-70.1 70.1s-70.1-31.385-70.1-70.1z" fill="#5e54ac"/><path d="m158.579 28.332c-25.335 12.398-35.822 42.986-23.424 68.321s42.986 35.822 68.321 23.424z" fill="#453d81"/><path d="m79.804 16.282c-29.632 29.632-29.632 77.676 0 107.309s77.676 29.632 107.309 0z" fill="#453d81"/><path d="m187.113 10.823c31.691 0 57.382 25.691 57.382 57.382s-25.691 57.382-57.382 57.382z" fill="#5e54ac"/><path d="m286.211 25.81c27.376 27.376 27.376 71.761 0 99.137s-71.761 27.376-99.137 0z" fill="#5e54ac"/><path d="m26.566 121.708c0 44.334 35.94 80.273 80.273 80.273s80.273-35.94 80.273-80.273z" fill="#453d81"/><path d="m155.373 274.885v9.368c0 3.521.565 6.898 1.603 10.064 1.59 4.874 14.068 4.553 17.615 8.087 5.833 5.847 2.015 8.738 10.922 8.738 2.588 0 7.251 5.09 9.655 4.512 14.202-3.39 24.765-16.16 24.765-31.4v-9.368h-64.56z" fill="#1f3645"/><path d="m156.976 294.316c1.59 4.874 4.309 9.223 7.857 12.757 5.833 5.847 13.913 9.46 22.821 9.46 2.588 0 5.111-.302 7.515-.88-1.59-4.874-4.309-9.236-7.857-12.77-5.833-5.846-13.9-9.459-22.821-9.459-2.588-.001-5.111.301-7.515.892z" fill="#ca245f"/><circle cx="232.742" cy="207.919" fill="#1f3645" r="11.956"/></g><g fill="#ca245f"><path d="m349.464 75.326c-.018 0-.037 0-.056 0-3.688.021-7.563.036-10.922.044v-49.401c0-5.375-4.357-9.732-9.732-9.732s-9.732 4.357-9.732 9.732v59.089c0 4.741 3.416 8.792 8.09 9.592.695.119 1.134.194 7.833.194 3.197 0 7.819-.017 14.573-.054 5.375-.03 9.707-4.411 9.678-9.786-.031-5.357-4.382-9.678-9.732-9.678z"/><path d="m379.407 16.237c-5.375 0-9.732 4.357-9.732 9.732v59.138c0 5.375 4.357 9.732 9.732 9.732s9.732-4.357 9.732-9.732v-59.138c0-5.374-4.357-9.732-9.732-9.732z"/><path d="m502.268 75.376h-14.959v-9.836h13.138c5.375 0 9.732-4.357 9.732-9.732s-4.357-9.732-9.732-9.732h-13.138v-9.835h14.959c5.375 0 9.732-4.357 9.732-9.732s-4.357-9.732-9.732-9.732h-24.691c-5.375 0-9.732 4.357-9.732 9.732v58.598c0 5.375 4.357 9.732 9.732 9.732h24.691c5.375 0 9.732-4.357 9.732-9.732 0-5.374-4.357-9.731-9.732-9.731z"/><path d="m452.585 16.842c-5.102-1.696-10.61 1.067-12.304 6.167l-11.511 34.654-12.109-34.885c-1.763-5.078-7.31-7.766-12.386-6.002-5.078 1.762-7.765 7.308-6.003 12.385l20.243 58.314c1.566 4.413 5.751 7.365 10.428 7.365h.074c4.707-.031 8.888-3.047 10.426-7.569l19.309-58.125c1.695-5.101-1.066-10.61-6.167-12.304z"/></g><g><path d="m468.61 398.63c-12.41 18.47-27.17 35.23-43.84 49.86-8.63 7.58-17.78 14.58-27.38 20.95h-49.51v-70.81z" fill="#ffddce"/><path d="m424.77 448.49c-8.63 7.58-17.78 14.58-27.38 20.95h-49.51v-20.95z" fill="#ffcbbe"/><path d="m360.507 486.421h-72.666c-14.086 0-25.506-11.419-25.506-25.506v-36.78c0-14.086 11.419-25.506 25.506-25.506h98.579v61.878c0 14.312-11.602 25.914-25.913 25.914z" fill="#ffddce"/><path d="m314.775 486.416h-26.94c-14.08 0-25.5-11.42-25.5-25.5v-36.78c0-14.09 11.42-25.51 25.5-25.51h26.94c-14.09 0-25.51 11.42-25.51 25.51v36.78c0 14.08 11.42 25.5 25.51 25.5z" fill="#ffcbbe"/><path d="m315.185 350.013h-16.003c-12.877 0-23.316-10.439-23.316-23.316v-55.562c0-12.877 10.439-23.316 23.316-23.316h16.003c12.877 0 23.316 10.439 23.316 23.316v55.562c0 12.877-10.439 23.316-23.316 23.316z" fill="#2e4f5f"/><path d="m318.174 349.814c-.98.132-1.972.198-2.985.198h-16.004c-12.876 0-23.318-10.442-23.318-23.318v-55.559c0-12.887 10.442-23.318 23.318-23.318h16.004c1.013 0 2.005.066 2.985.198-11.466 1.454-20.333 11.246-20.333 23.12v55.559c0 11.863 8.867 21.666 20.333 23.12z" fill="#1f3645"/><path d="m339.682 400.601h-64.996c-7.238 0-13.105-5.867-13.105-13.105v-28.733c0-7.238 5.867-13.105 13.105-13.105h64.996c7.238 0 13.105 5.867 13.105 13.105v28.733c-.001 7.238-5.868 13.105-13.105 13.105z" fill="#ca245f"/><path d="m307.645 400.597h-32.956c-7.237 0-13.108-5.86-13.108-13.107v-28.727c0-7.237 5.871-13.107 13.108-13.107h32.956c-7.237 0-13.097 5.871-13.097 13.107v28.727c0 7.247 5.86 13.107 13.097 13.107z" fill="#b7004f"/><path d="m358.772 486.421h-29.892v-133.749c0-8.254 6.691-14.946 14.946-14.946 8.254 0 14.946 6.691 14.946 14.946z" fill="#ffddce"/><circle cx="353.346" cy="404.092" fill="#ffddce" r="23.444"/><path d="m350.141 339.132c-5.1 2.38-8.63 7.55-8.63 13.54v35.295c0 6.975-5.655 12.63-12.63 12.63v-47.534c0-8.209 6.456-15.181 14.663-15.328 2.362-.043 4.598.461 6.597 1.397z" fill="#ffcbbe"/></g><g fill="#88c98b"><path d="m370.746 248.474c-4.959 0-8.979-4.02-8.979-8.979v-35.249c0-4.959 4.02-8.979 8.979-8.979 4.959 0 8.979 4.02 8.979 8.979v35.249c0 4.959-4.02 8.979-8.979 8.979z"/><path d="m395.258 248.474c-4.959 0-8.979-4.02-8.979-8.979v-15.663c0-4.959 4.02-8.979 8.979-8.979 4.959 0 8.979 4.02 8.979 8.979v15.663c0 4.959-4.02 8.979-8.979 8.979z"/></g><g fill="#88c98b"><path d="m427.278 158.132c-4.959 0-8.979-4.02-8.979-8.979v-35.249c0-4.959 4.02-8.979 8.979-8.979 4.959 0 8.979 4.02 8.979 8.979v35.249c0 4.959-4.02 8.979-8.979 8.979z"/><path d="m451.79 158.132c-4.959 0-8.979-4.02-8.979-8.979v-15.663c0-4.959 4.02-8.979 8.979-8.979 4.959 0 8.979 4.02 8.979 8.979v15.663c0 4.959-4.02 8.979-8.979 8.979z"/></g><g fill="#88c98b"><path d="m389.368 376.17c-4.959 0-8.979-4.02-8.979-8.979v-35.249c0-4.959 4.02-8.979 8.979-8.979 4.959 0 8.979 4.02 8.979 8.979v35.249c0 4.959-4.02 8.979-8.979 8.979z"/><path d="m413.88 376.17c-4.959 0-8.979-4.02-8.979-8.979v-15.663c0-4.959 4.02-8.979 8.979-8.979 4.959 0 8.979 4.02 8.979 8.979v15.663c0 4.959-4.02 8.979-8.979 8.979z"/></g><g><path d="m487.018 205.171c0 1.758 14.005 12.184 13.881 13.909-.836 11.455-4.393 22.149-10.026 31.446-4 6.602-14.66 6.886-20.525 11.845-8.322 7.036-12.679 17.798-23.632 20.404-5.287 1.26-10.8 1.927-16.474 1.927s-11.187-.667-16.475-1.927c-8.636-2.055-13.867-13.009-20.954-17.904-8.237-5.69-18.001-5.761-23.203-14.345-5.633-9.298-9.19-19.991-10.026-31.446-.124-1.725 5.57-7.496 5.57-9.254 0-17.64 6.177-24.252 11.345-42.142 7.243-8.42 16.429-15.116 26.859-19.398 8.289-3.401 17.323 0 26.839 0s18.64-3.401 26.929 0c10.43 4.282 19.616 10.977 26.859 19.398 4.709 18.349 3.033 19.847 3.033 37.487z" fill="#d6d8e8"/><path d="m440.605 282.775c1.009.239 2.03.461 3.055.659-4.344.832-8.828 1.268-13.419 1.268-5.674 0-11.187-.667-16.474-1.927-6.485-1.543-11.19-11.428-16.847-14.618-10.632-5.996-20.995-7.208-27.311-17.631-5.633-9.298-9.19-19.991-10.026-31.446-.124-1.725 7.443-11.1 7.443-12.858 0-17.64 3.33-20.495 9.472-38.538 7.243-8.42 16.429-15.116 26.859-19.398 8.289-3.401 17.368-2.816 26.884-2.816 4.587 0 9.506.328 13.85 1.164-4.669.894-9.605-.11-13.896 1.652-10.43 4.282-19.616 10.977-26.859 19.398-10.661 12.398-17.104 28.531-17.104 46.171 0 1.758.066 3.5.189 5.225.836 11.455 4.393 22.149 10.026 31.446 9.678 15.968 25.485 27.806 44.158 32.249z" fill="#b8bede"/><path d="m488.647 199.207-2.545-7.832-51.743 16.812v-55.323h-8.235v55.323l-52.251-16.977-2.545 7.832 52.251 16.977-31.718 43.657 6.662 4.84 31.718-43.656 31.117 42.828 6.662-4.841-31.116-42.828z" fill="#a8acd3"/><path d="m424.891 182.116-22.429 16.296c-3.19 2.318-4.525 6.426-3.306 10.176l8.567 26.367c1.219 3.75 4.713 6.289 8.657 6.289h27.724c3.943 0 7.438-2.539 8.656-6.289l8.567-26.367c1.219-3.75-.116-7.859-3.306-10.176l-22.429-16.296c-3.191-2.318-7.51-2.318-10.701 0z" fill="#2e4f5f"/><g><path d="m457.125 148.286c-.276.268-.572.515-.885.745l-20.992 15.252c-2.985 2.166-7.029 2.166-10.014 0l-10.228-7.432-10.763-7.819c-.313-.231-.609-.478-.885-.745 8.289-3.401 17.368-5.279 26.884-5.279 4.583 0 9.063.436 13.403 1.268.004 0 .012.004.016.004 4.669.893 9.174 2.244 13.464 4.006z" fill="#2e4f5f"/></g><g><path d="m413.767 282.775c-18.673-4.443-34.481-16.281-44.157-32.249.556-.115 1.128-.173 1.713-.173h25.945c3.689 0 6.963 2.376 8.103 5.888l2.919 8.985 5.098 15.692c.198.614.325 1.235.379 1.857z" fill="#2e4f5f"/></g><path d="m413.388 280.918c.198.613.325 1.235.379 1.857-18.673-4.443-34.481-16.281-44.157-32.249.556-.115 1.128-.173 1.713-.173h25.023c.033.058.07.115.103.173 3.282 5.419 7.272 10.36 11.842 14.7z" fill="#1f3645"/><path d="m443.661 144.28c-4.669.894-9.174 2.244-13.465 4.006-5.435 2.232-10.529 5.118-15.19 8.565l-10.763-7.819c-.313-.231-.609-.478-.885-.745 8.289-3.401 17.368-5.279 26.884-5.279 4.583 0 9.063.436 13.403 1.268.003 0 .012.004.016.004z" fill="#1f3645"/><g><path d="m381.897 203.042-20.992 15.252c-.42.305-.865.568-1.322.786-.124-1.725-.189-3.467-.189-5.225 0-17.64 6.444-33.773 17.105-46.171.185.371.342.758.474 1.161l8.017 24.677c1.14 3.508-.108 7.354-3.093 9.52z" fill="#1f3645"/></g><g><path d="m490.873 250.526c-9.676 15.968-25.484 27.806-44.157 32.249.054-.622.181-1.244.379-1.857l8.017-24.677c1.141-3.512 4.414-5.888 8.103-5.888h25.945c.585 0 1.157.058 1.713.173z" fill="#2e4f5f"/></g><g><path d="m501.089 213.855c0 1.758-.066 3.5-.189 5.225-.457-.218-.902-.482-1.322-.786l-20.992-15.252c-2.985-2.166-4.233-6.012-3.092-9.52l8.017-24.677c.132-.404.288-.791.474-1.161 10.66 12.398 17.104 28.531 17.104 46.171z" fill="#2e4f5f"/></g></g><g fill="#88c98b"><path d="m453.216 317.199c-4.959 0-8.979-4.02-8.979-8.979v-35.249c0-4.959 4.02-8.979 8.979-8.979 4.959 0 8.979 4.02 8.979 8.979v35.249c0 4.959-4.02 8.979-8.979 8.979z"/><path d="m477.728 317.199c-4.959 0-8.979-4.02-8.979-8.979v-15.663c0-4.959 4.02-8.979 8.979-8.979 4.959 0 8.979 4.02 8.979 8.979v15.663c0 4.959-4.02 8.979-8.979 8.979z"/></g></g></svg>