<svg id="Capa_1" enable-background="new 0 0 512 512" height="512" viewBox="0 0 512 512" width="512" xmlns="http://www.w3.org/2000/svg"><g><path d="m512 256c0 7.76-.35 15.44-1.02 23.03-6.28 70.44-41.09 132.66-92.79 175.04-3.86 3.17-7.82 6.22-11.87 9.16-8.55 6.22-17.51 11.92-26.82 17.05h-.01c-33.88 18.7-72.44 29.94-113.49 31.52-3.32.14-6.65.2-10 .2s-6.68-.06-10-.19c-64.57-2.48-123.02-28.88-166.72-70.59-7.71-7.36-14.95-15.19-21.7-23.45-35.99-44.09-57.58-100.41-57.58-161.77 0-2.48.04-4.95.11-7.42.44-15.49 2.25-30.63 5.33-45.31.87-4.16 1.85-8.29 2.92-12.38 2.81-10.72 24.325 22.216 28.445 12.096 4.74-11.67-7.695-66.286-1.345-77.026 9.13-15.47 19.85-29.9 31.93-43.05 4.51-4.92 9.21-9.65 14.09-14.2 45.73-42.63 107.08-68.71 174.52-68.71 67.43 0 128.78 26.08 174.51 68.71 3.04 2.82 6.01 5.73 8.88 8.7 1.78 1.81 1.415 31.934 3.115 33.794 2.77 3.02 5.48 6.11 8.1 9.26 8.54 10.24 18.395-7.144 25.265 4.346 10.34 17.29 18.7 35.89 24.76 55.51 3.57 11.56 6.35 23.47 8.26 35.67.92 5.88 1.65 11.82 2.16 17.82.63 7.31.95 14.71.95 22.19z" fill="#bed8fb"/><g fill="#cbe2ff"><path d="m508.89 215.99-41.19 41.19c-6.24 6.23-16.34 6.23-22.58 0-6.23-6.24-6.23-16.34 0-22.58l51.23-51.22c1.28-1.29 2.73-2.31 4.28-3.06 3.57 11.56 6.35 23.47 8.26 35.67z"/><path d="m512 256c0 7.76-.35 15.44-1.02 23.03l-12.84 12.84c-6.23 6.23-16.34 6.23-22.57 0-6.24-6.24-6.24-16.34 0-22.58l35.48-35.48c.63 7.31.95 14.71.95 22.19z"/><path d="m60.157 232.673c-6.234-6.234-6.234-16.34 0-22.574l51.225-51.225c6.234-6.234 16.34-6.234 22.574 0 6.234 6.234 6.234 16.34 0 22.574l-51.225 51.225c-6.234 6.233-16.34 6.233-22.574 0z"/><path d="m108.16 405.72c0 4.09-1.56 8.18-4.67 11.29l-24.21 24.21c-7.71-7.36-14.95-15.19-21.7-23.45l23.33-23.33c6.24-6.23 16.34-6.23 22.58 0 3.11 3.12 4.67 7.2 4.67 11.28z"/><path d="m65.78 181.46c0 4.09-1.56 8.18-4.68 11.29l-51.22 51.23c-2.73 2.73-6.2 4.26-9.77 4.6.44-15.49 2.25-30.63 5.33-45.31l33.09-33.09c6.23-6.23 16.34-6.23 22.57 0 3.12 3.12 4.68 7.2 4.68 11.28z"/></g><path d="m430.51 68.71c-.18.19-.37.38-.56.57-46.46 46.47-108.24 72.06-173.95 72.06s-127.49-25.59-173.95-72.06l-.57-.57c-4.88 4.55-9.58 9.28-14.09 14.2l.52.52c47.88 47.87 110.79 75.23 178.09 77.7v350.68c3.32.13 6.65.19 10 .19s6.68-.06 10-.2v-350.67c67.3-2.47 130.21-29.83 178.09-77.7.17-.17.34-.34.52-.52-4.51-4.92-9.22-9.66-14.1-14.2z" fill="#9dc6fb"/><path d="m475.87 124.81-75.62 141.22c-21.31 39.8-62.81 64.65-107.96 64.65h-141.07c-19.58 0-36.83-12.86-42.42-31.63l-10.87-36.5c-8.46-28.38 12.81-56.9 42.42-56.9h207.6c14.02 0 26.9-7.72 33.52-20.08l57.92-108.16c1.78 1.81 3.52 3.64 5.22 5.5 11.79 12.83 22.27 26.87 31.26 41.9z" fill="#5e54ac"/><path d="m452.71 92.17-59.27 110.69c-6.62 12.36-19.5 20.08-33.52 20.08h-207.6c-29.62 0-50.88 28.52-42.43 56.9l10.88 36.5c.32 1.08.69 2.15 1.09 3.19-6.04-5.33-10.64-12.35-13.07-20.48l-10.87-36.5c-8.45-28.38 12.81-56.9 42.43-56.9h207.6c14.02 0 26.9-7.72 33.52-20.08l57.92-108.16c1.78 1.81 3.52 3.64 5.22 5.5 2.77 3.02 5.48 6.11 8.1 9.26z" fill="#453d81"/><path d="m310.261 165.212 27.049 68.516c1.366 3.461 5.164 5.29 8.723 4.201l70.432-21.571c6.186-1.895 11.496 4.764 8.272 10.373l-36.703 63.867c-1.854 3.226-.916 7.336 2.154 9.439l60.779 41.617c5.338 3.655 3.443 11.958-2.952 12.935l-72.817 11.125c-3.679.562-6.307 3.858-6.036 7.569l5.357 73.467c.471 6.452-7.203 10.148-11.954 5.757l-54.098-49.994c-2.733-2.526-6.948-2.526-9.681 0l-54.098 49.994c-4.751 4.391-12.424.696-11.954-5.757l5.357-73.467c.271-3.711-2.358-7.007-6.036-7.569l-72.817-11.125c-6.395-.977-8.29-9.28-2.952-12.935l60.779-41.617c3.07-2.102 4.008-6.212 2.154-9.439l-36.703-63.867c-3.224-5.609 2.086-12.268 8.272-10.373l70.432 21.571c3.558 1.09 7.356-.739 8.722-4.201l27.049-68.516c2.378-6.018 10.894-6.018 13.27 0z" fill="#efc64c"/><g><path d="m393.289 302.748h-144.988v41.013c0 20.202 16.377 36.579 36.579 36.579h71.829c20.202 0 36.579-16.377 36.579-36.579v-41.013z" fill="#1f3645"/><path d="m356.71 266.168h-71.829c-20.202 0-36.579 16.377-36.579 36.579 0 20.202 16.377 36.579 36.579 36.579h71.829c20.202 0 36.579-16.377 36.579-36.579 0-20.201-16.377-36.579-36.579-36.579z" fill="#2e4f5f"/><path d="m284.88 319.327c-9.142 0-16.579-7.438-16.579-16.58s7.438-16.579 16.579-16.579h71.829c9.142 0 16.579 7.438 16.579 16.579 0 9.142-7.438 16.58-16.579 16.58z" fill="#1f3645"/></g><path d="m431.05 412.2-10.87 36.49c-.55 1.85-1.22 3.65-1.99 5.38-6.8 15.28-21.75 25.56-38.69 26.21-.58.03-1.16.04-1.74.04h-40.34l-50.544-25.268-50.186 25.268c-45.15 0-86.65-24.84-107.96-64.65l-120.37-224.78c6.05-23.08 15.24-44.88 27.1-64.93l112.05 209.25c6.62 12.36 19.5 20.08 33.52 20.08h106.86l68.819 25.051 31.92-25.051c29.621 0 50.881 28.52 42.421 56.91z" fill="#eceef1"/><path d="m414.76 460.35c-7.72 11.76-20.76 19.37-35.26 19.93 0 0 0 .01-.01 0-.57.03-1.15.04-1.73.04h-40.34l-40.568-10.304-60.162 10.304c-45.15 0-86.65-24.84-107.96-64.65l-120.37-224.78c2.81-10.72 6.3-21.16 10.42-31.28l128.57 240.1c21.32 39.8 62.81 64.65 107.96 64.65h141.07c3.4 0 6.73-.39 9.94-1.13 2.93-.68 5.75-1.65 8.44-2.88z" fill="#d9dee8"/><path d="m388.63 355.29-44.67 109.07-6.54 15.96h-100.73l6.77-16.54 44.43-108.49z" fill="#ca245f"/><path d="m343.96 464.36-6.54 15.96h-100.73l6.77-16.54c3.92.39 7.87.58 11.85.58z" fill="#b7004f"/><g fill="#ca245f"><path d="m189.953 88.411c-.018 0-.037 0-.056 0-3.688.021-7.563.036-10.922.044v-49.4c0-5.375-4.357-9.732-9.732-9.732s-9.732 4.357-9.732 9.732v59.089c0 4.741 3.416 8.792 8.09 9.592.695.119 1.133.194 7.833.194 3.197 0 7.819-.017 14.573-.054 5.375-.03 9.707-4.411 9.678-9.786-.031-5.357-4.383-9.679-9.732-9.679z"/><path d="m219.896 29.323c-5.375 0-9.732 4.357-9.732 9.732v59.138c0 5.375 4.357 9.732 9.732 9.732s9.732-4.357 9.732-9.732v-59.138c0-5.375-4.357-9.732-9.732-9.732z"/><path d="m342.757 88.461h-14.959v-9.835h13.138c5.375 0 9.732-4.357 9.732-9.732s-4.357-9.732-9.732-9.732h-13.138v-9.835h14.959c5.375 0 9.732-4.357 9.732-9.732s-4.357-9.732-9.732-9.732h-24.691c-5.375 0-9.732 4.357-9.732 9.732v58.598c0 5.375 4.357 9.732 9.732 9.732h24.691c5.375 0 9.732-4.357 9.732-9.732s-4.357-9.732-9.732-9.732z"/><path d="m293.074 29.928c-5.102-1.696-10.61 1.067-12.304 6.167l-11.512 34.653-12.108-34.885c-1.763-5.078-7.31-7.766-12.386-6.002-5.078 1.762-7.765 7.308-6.003 12.385l20.243 58.314c1.566 4.413 5.751 7.365 10.428 7.365h.074c4.707-.031 8.888-3.047 10.426-7.569l19.309-58.125c1.695-5.1-1.066-10.609-6.167-12.303z"/></g></g></svg>