<svg id="Capa_1" enable-background="new 0 0 512 512" height="512" viewBox="0 0 512 512" width="512" xmlns="http://www.w3.org/2000/svg"><g><path d="m512 256c0 56.42-18.25 108.58-49.18 150.89-2.95 4.05-39.536 8-42.727 11.86-2.5 3.05 2.65 6.04 0 8.97-4.33 4.78-18.275 9.39-22.945 13.83h-317.528c-7.53-7.16-14.62-14.77-21.23-22.8-36.48-44.24-58.39-100.94-58.39-162.75 0-141.38 114.62-256 256-256s256 114.62 256 256z" fill="#9dc6fb"/><g><path d="m226.827 427.716h-182.589c3.161-19.593 12.481-37.109 25.895-50.533 16.746-16.736 39.865-27.09 65.405-27.09 46.014 0 84.177 33.614 91.289 77.623z" fill="#d6d8e8"/><path d="m149.447 351.136c-19.958 3.019-37.829 12.41-51.465 26.047-13.413 13.413-22.734 30.94-25.895 50.533h-27.85c3.161-19.583 12.481-37.109 25.895-50.533 16.746-16.736 39.855-27.09 65.395-27.09 4.742 0 9.382.354 13.92 1.043z" fill="#b8bede"/><path d="m114.061 359.814h42.946v42.946h-42.946z" fill="#ca245f" transform="matrix(.707 .707 -.707 .707 309.308 15.84)"/><path d="m149.498 427.716h-27.921l13.961-42.287z" fill="#ca245f"/><path d="m135.534 381.287-26.965 18.487c-5.271 3.614-12.497.345-13.262-6l-2.399-19.876c-1.459-12.088 6.01-23.467 17.681-26.937l14.716-4.375" fill="#b8bede"/><path d="m135.534 381.287 26.965 18.487c5.271 3.614 12.497.345 13.262-6l2.399-19.876c1.459-12.088-6.01-23.467-17.681-26.937l-14.716-4.375" fill="#b8bede"/><path d="m161.92 307.61v47.29c0 14.57-11.82 26.39-26.39 26.39-3.57 0-6.99-.71-10.09-2-9.56-3.97-16.29-13.39-16.29-24.39v-47.29z" fill="#ffddce"/><path d="m125.436 307.61v71.676c-9.558-3.967-16.285-13.39-16.285-24.382v-47.294z" fill="#ffcbbe"/><path d="m204.208 292.43h-137.348c-21.917 0-39.684-17.767-39.684-39.684 0-13.705 11.11-24.816 24.816-24.816h167.084c13.705 0 24.816 11.11 24.816 24.816-.001 21.917-17.768 39.684-39.684 39.684z" fill="#ffddce"/><path d="m66.86 279.051c-14.505 0-26.305-11.801-26.305-26.306 0-6.306 5.131-11.437 11.437-11.437h167.084c6.306 0 11.437 5.131 11.437 11.437 0 14.505-11.801 26.306-26.305 26.306z" fill="#ffcbbe"/><path d="m161.92 307.61v47.02c-8.23 3.01-17.12 4.65-26.39 4.65s-18.15-1.64-26.38-4.64v-47.03z" fill="#ffcbbe"/><path d="m135.534 155.115c-42.493 0-76.94 29.651-76.94 72.143v43.997c0 42.493 34.447 76.94 76.94 76.94 42.493 0 76.94-34.447 76.94-76.94v-43.997c0-42.493-34.448-72.143-76.94-72.143z" fill="#ffddce"/><path d="m155.414 345.6c-6.341 1.692-13.004 2.595-19.88 2.595-42.497 0-76.94-34.443-76.94-76.94v-56.591c0-42.49 34.443-68.144 76.94-68.144 6.877 0 13.539-7.893 19.88-6.2-32.858 8.763-57.066 38.731-57.066 74.345v56.591c0 35.619 24.209 65.587 57.066 74.344z" fill="#ffcbbe"/><path d="m145.535 275.409c-4.405 0-7.976-3.571-7.976-7.976v-75.395h15.951v75.395c0 4.405-3.571 7.976-7.975 7.976z" fill="#ffcbbe"/><path d="m159.71 302.326c-10.97 1.61-22.15 1.34-33.05-.81-3.73-.73-6.07-4.46-5.06-8.12.01-.04.02-.09.03-.13.9-3.28 4.17-5.34 7.51-4.68 10.08 2 20.45 2.14 30.57.41.74-.13 3.254 6.607 3.994 6.457" fill="#fff"/><path d="m199.019 116.53h-63.931c-20.095 0-36.385 16.29-36.385 36.385v7.577c0 20.095 16.29 36.385 36.385 36.385h63.931c20.095 0 36.385-16.29 36.385-36.385v-7.577c0-20.095-16.29-36.385-36.385-36.385z" fill="#2e4f5f"/><path d="m79.635 164.017h-21.041v63.241c11.621 0 21.041-9.42 21.041-21.041z" fill="#1f3645"/><path d="m191.433 164.017h21.041v63.241c-11.621 0-21.041-9.42-21.041-21.041z" fill="#2e4f5f"/><path d="m75.022 116.53c-16.27 0-29.46 13.19-29.46 29.46v21.426c0 16.27 13.19 29.46 29.46 29.46 16.27 0 29.46-13.19 29.46-29.46v-21.426c0-16.27-13.189-29.46-29.46-29.46z" fill="#1f3645"/><path d="m194.5 230.106c0 10.76-8.73 19.49-19.49 19.49s-19.48-8.73-19.48-19.49c0-3.93 1.16-7.59 3.17-10.64h32.63c2.01 3.05 3.17 6.71 3.17 10.64z" fill="#fff"/><circle cx="180.067" cy="230.106" fill="#2e4f5f" r="8.259"/><path d="m133.5 230.106c0 10.76-8.73 19.49-19.49 19.49s-19.48-8.73-19.48-19.49c0-3.93 1.16-7.59 3.17-10.64h32.63c2.01 3.05 3.17 6.71 3.17 10.64z" fill="#fff"/><path d="m120.22 248.576c-1.95.66-4.04 1.02-6.21 1.02-10.76 0-19.48-8.73-19.48-19.49 0-3.93 1.16-7.59 3.17-10.64h12.42c-2.01 3.05-3.17 6.71-3.17 10.64 0 8.59 5.55 15.88 13.27 18.47z" fill="#eceef1"/><path d="m181.22 248.576c-1.95.66-4.04 1.02-6.21 1.02-10.76 0-19.48-8.73-19.48-19.49 0-3.93 1.16-7.59 3.17-10.64h12.42c-2.01 3.05-3.17 6.71-3.17 10.64 0 8.59 5.55 15.88 13.27 18.47z" fill="#eceef1"/><g fill="#2e4f5f"><circle cx="122.536" cy="230.106" r="8.259"/><path d="m164.41 301.516c-1.56.31-3.13.58-4.7.81v-13.33c.74-.13 1.48-.26 2.22-.41 3.34-.66 6.61 1.4 7.51 4.68.01.04.02.09.03.13 1.01 3.66-1.33 7.39-5.06 8.12z"/></g></g><g><path d="m171.096.669h117.239c21.07 0 38.15 17.08 38.15 38.15v69.353c0 21.07-17.08 38.15-38.15 38.15h-.425v20.571c0 9.637-11.626 14.492-18.48 7.717l-28.617-28.288h-69.717c-21.07 0-38.15-17.08-38.15-38.15v-69.353c0-21.07 17.08-38.15 38.15-38.15z" fill="#efc64c"/><path d="m152.776 38.822v69.35c0 21.07 17.08 38.15 38.15 38.15h-19.83c-21.07 0-38.15-17.08-38.15-38.15v-69.35c0-21.07 17.08-38.15 38.15-38.15h19.83c-21.07 0-38.15 17.08-38.15 38.15z" fill="#e3a12f"/><path d="m286.646 172.032c-3.18 5.97-11.73 8.01-17.22 2.58l-28.61-28.29h19.82z" fill="#e3a12f"/><g fill="#2e4f5f"><path d="m263.892 42.438h-94.774c-5.234 0-9.477-4.243-9.477-9.477 0-5.234 4.243-9.477 9.477-9.477h94.774c5.234 0 9.477 4.243 9.477 9.477.001 5.234-4.242 9.477-9.477 9.477z"/><path d="m263.892 74.149h-94.774c-5.234 0-9.477-4.243-9.477-9.477 0-5.234 4.243-9.477 9.477-9.477h94.774c5.234 0 9.477 4.243 9.477 9.477.001 5.234-4.242 9.477-9.477 9.477z"/><path d="m234.127 104.898h-65.008c-5.234 0-9.477-4.243-9.477-9.477 0-5.234 4.243-9.477 9.477-9.477h65.008c5.234 0 9.477 4.243 9.477 9.477 0 5.234-4.243 9.477-9.477 9.477z"/></g></g><g><path d="m462.82 406.89c-5.28 7.24-10.94 14.19-16.94 20.83h-159.69c3.16-19.6 12.48-37.11 25.9-50.54 16.74-16.73 39.86-27.09 65.4-27.09 38.43 0 71.37 23.44 85.33 56.8z" fill="#efc64c"/><path d="m391.402 351.136c-19.958 3.019-37.829 12.41-51.465 26.047-13.413 13.413-22.734 30.94-25.895 50.533h-27.85c3.161-19.583 12.481-37.109 25.895-50.533 16.746-16.736 39.855-27.09 65.395-27.09 4.741 0 9.381.354 13.92 1.043z" fill="#e3a12f"/><path d="m403.872 307.61v47.29c0 14.57-11.82 26.39-26.38 26.39-3.58 0-6.99-.71-10.1-2-9.56-3.97-16.29-13.39-16.29-24.39v-47.29z" fill="#ffddce"/><path d="m367.391 307.61v71.676c-9.558-3.967-16.285-13.39-16.285-24.382v-47.294z" fill="#ffcbbe"/><path d="m446.162 277.429h-137.347c-21.917 0-39.684-17.767-39.684-39.684 0-13.705 11.11-24.816 24.816-24.816h167.083c13.705 0 24.816 11.11 24.816 24.816 0 21.917-17.767 39.684-39.684 39.684z" fill="#ffddce"/><path d="m308.815 264.05c-14.505 0-26.305-11.801-26.305-26.306 0-6.306 5.131-11.437 11.437-11.437h167.083c6.306 0 11.437 5.131 11.437 11.437 0 14.505-11.801 26.306-26.305 26.306z" fill="#ffcbbe"/><path d="m403.872 307.61v46.58c-8.23 3.01-17.11 4.65-26.38 4.65s-18.16-1.64-26.39-4.65v-46.58z" fill="#ffcbbe"/><path d="m377.488 137.724c-42.493 0-76.94 34.447-76.94 76.94v56.591c0 42.493 34.447 76.94 76.94 76.94 42.493 0 76.94-34.447 76.94-76.94v-56.591c0-42.493-34.447-76.94-76.94-76.94z" fill="#ffddce"/><path d="m397.369 345.6c-6.341 1.692-13.004 2.595-19.88 2.595-42.497 0-76.94-34.443-76.94-76.94v-56.591c0-42.49 34.443-76.94 76.94-76.94 6.877 0 13.539.903 19.88 2.595-32.858 8.763-57.066 38.731-57.066 74.345v56.591c0 35.62 24.208 65.588 57.066 74.345z" fill="#ffcbbe"/><path d="m367.488 260.112c-4.405 0-7.976-3.571-7.976-7.976v-112.318h15.951v112.318c0 4.405-3.571 7.976-7.975 7.976z" fill="#ffcbbe"/><path d="m272.343 143.639c0 29.468 23.888 53.356 53.356 53.356s53.356-23.888 53.356-53.356z" fill="#453d81"/><path d="m398.195 85.284c19.283 9.436 27.266 32.718 17.829 52.002-9.436 19.283-32.718 27.266-52.002 17.829z" fill="#5e54ac"/><path d="m458.154 77.59c22.554 22.554 22.554 59.122 0 81.677-22.554 22.554-59.122 22.554-81.677 0z" fill="#5e54ac"/><path d="m376.477 72.788c-24.121 0-43.676 19.554-43.676 43.676s19.554 43.676 43.676 43.676z" fill="#453d81"/><path d="m301.852 83.809c-20.837 20.837-20.837 54.62 0 75.457s54.62 20.837 75.457 0z" fill="#453d81"/><path d="m357.91 222.74c0 7.07-3.4 13.35-8.65 17.29-3.62-2.71-8.1-4.32-12.97-4.32s-9.36 1.61-12.97 4.32c-5.24-3.95-8.64-10.22-8.64-17.29 0-11.94 9.68-21.62 21.61-21.62 11.94 0 21.62 9.68 21.62 21.62z" fill="#fff"/><path d="m326.65 222.74c0 5.12 1.78 9.83 4.76 13.53-2.98.68-5.72 1.99-8.09 3.76-5.24-3.95-8.64-10.22-8.64-17.29 0-11.94 9.68-21.62 21.62-21.62 2.08 0 4.09.29 5.99.84-9.03 2.59-15.64 10.92-15.64 20.78z" fill="#eceef1"/><path d="m424.75 222.74c0 7.07-3.4 13.35-8.65 17.29-3.62-2.71-8.1-4.32-12.97-4.32s-9.36 1.61-12.97 4.32c-5.24-3.95-8.64-10.22-8.64-17.29 0-11.94 9.68-21.62 21.61-21.62 11.94 0 21.62 9.68 21.62 21.62z" fill="#fff"/><path d="m393.49 222.74c0 5.12 1.78 9.83 4.76 13.53-2.98.68-5.72 1.99-8.09 3.76-5.24-3.95-8.64-10.22-8.64-17.29 0-11.94 9.68-21.62 21.62-21.62 2.08 0 4.09.29 5.99.84-9.03 2.59-15.64 10.92-15.64 20.78z" fill="#eceef1"/><circle cx="330.64" cy="223.402" fill="#1f3645" r="8.314"/><circle cx="394.57" cy="223.402" fill="#1f3645" r="8.314"/><path d="m511.169 158.685c0 37.194-30.152 67.346-67.346 67.346s-67.346-30.152-67.346-67.346z" fill="#5e54ac"/><path d="m405.582 268.632v7.13c0 2.68-.43 5.25-1.22 7.66-1.21 3.71-10.708 3.465-13.408 6.155-4.44 4.45-1.533 6.651-8.314 6.651-1.97 0-5.519 3.874-7.349 3.434-10.81-2.58-18.85-12.3-18.85-23.9v-7.13z" fill="#1f3645"/><path d="m404.362 283.422c-1.21 3.71-3.28 7.02-5.98 9.71-4.44 4.45-10.59 7.2-17.37 7.2-1.97 0-3.89-.23-5.72-.67 1.21-3.71 3.28-7.03 5.98-9.72 4.44-4.45 10.58-7.2 17.37-7.2 1.97 0 3.89.23 5.72.68z" fill="#ca245f"/></g><path d="m432.38 441.55c-8.77 8.34-18.13 16.06-28.01 23.09-41.86 29.82-93.06 47.36-148.37 47.36s-106.51-17.54-148.37-47.36c-9.88-7.03-19.24-14.75-28.01-23.09z" fill="#784536"/><path d="m453.61 418.75c-2.5 3.05-5.08 6.04-7.73 8.97-4.33 4.78-8.83 9.39-13.5 13.83-8.77 8.34-18.13 16.06-28.01 23.09h-363.8c-11.88 0-21.51-9.63-21.51-21.5v-2.89c0-11.88 9.63-21.5 21.51-21.5z" fill="#905f43"/><path d="m95.096 464.638h-54.53c-11.88 0-21.51-9.63-21.51-21.5v-2.89c0-11.88 9.63-21.5 21.51-21.5h54.53c-11.87 0-21.5 9.62-21.5 21.5v2.89c0 11.87 9.63 21.5 21.5 21.5z" fill="#784536"/></g></svg>