<svg id="Capa_1" enable-background="new 0 0 512 512" height="512" viewBox="0 0 512 512" width="512" xmlns="http://www.w3.org/2000/svg"><g><path d="m512 256c0 52.95-16.08 102.14-43.61 142.97-8.995 13.333-32.629 17.216-43.908 28.605-11.757 11.87-11.25 31.155-25.132 40.555-40.9 27.69-90.24 43.87-143.35 43.87-141.38 0-256-114.62-256-256s114.62-256 256-256 256 114.62 256 256z" fill="#9ddea3"/><g><path d="m465.229 198.681c0 31.67-6.658 61.785-18.649 89.03-3.428 7.797-36.547 15.359-40.82 22.653-4.273 7.295 20.299 14.322 15.239 21.052-20.85 27.771-48.074 50.472-79.514 65.935-31.44-15.463-58.664-38.164-79.514-65.935-4.858-6.461 15.733-13.198 11.599-20.181-4.478-7.563-33.616-15.416-37.18-23.524-11.991-27.246-18.649-57.36-18.649-89.03 0-31.681 6.658-61.796 18.649-89.041 3.428-7.797 26.35-15.359 30.625-22.653 4.275-7.295-10.098-14.322-5.044-21.052 20.85-27.771 48.074-50.462 79.514-65.935 31.44 15.473 58.664 38.164 79.514 65.935 5.054 6.729-18.422 18.231-14.147 25.526s36.3 10.382 39.728 18.179c11.991 27.245 18.649 57.36 18.649 89.041z" fill="#905f43"/><path d="m307.208 331.416c8.991 27.771 20.73 50.472 34.276 65.935-31.44-15.463-58.664-38.164-79.514-65.935-4.555-6.059 15.519-13.662 11.599-20.181-4.788-7.963-33.411-14.95-37.18-23.524-11.991-27.246-18.649-57.36-18.649-89.03 0-31.681 6.658-61.796 18.649-89.041 3.428-7.797 26.35-15.359 30.625-22.653 4.275-7.295-10.098-14.322-5.044-21.052 20.851-27.771 48.075-50.462 79.515-65.935-13.546 15.473-25.286 38.164-34.276 65.935-4.358 13.459-8.071 28.111-11.028 43.705-5.169 27.246-8.038 57.36-8.038 89.041 0 31.67 2.869 61.785 8.038 89.03 2.957 15.594 6.669 30.246 11.027 43.705z" fill="#784536"/><g fill="#d6d8e8"><path d="m446.58 109.64h-210.19c6.855-15.594 15.474-30.246 25.581-43.705h159.028c10.107 13.458 18.725 28.111 25.581 43.705z"/><path d="m446.58 287.711c-6.855 15.594-15.462 30.246-25.581 43.705h-159.028c-10.119-13.459-18.726-28.111-25.581-43.705z"/></g><path d="m296.181 287.711c2.957 15.594 6.669 30.246 11.027 43.705h-45.238c-10.119-13.459-18.726-28.111-25.581-43.705z" fill="#b8bede"/><path d="m296.181 109.64h-59.792c6.855-15.594 15.474-30.246 25.581-43.705h45.238c-4.358 13.458-8.07 28.111-11.027 43.705z" fill="#b8bede"/><path d="m341.485 267.35c-15.329 0-27.756-12.427-27.756-27.756v-86.041c0-15.329 12.427-27.756 27.756-27.756 15.329 0 27.756 12.427 27.756 27.756v86.041c-.001 15.33-12.427 27.756-27.756 27.756z" fill="#d6d8e8"/><path d="m349.144 266.282c-2.431.701-5.004 1.073-7.655 1.073-15.331 0-27.76-12.429-27.76-27.76v-86.041c0-15.331 12.429-27.749 27.76-27.749 2.65 0 5.224.372 7.655 1.073-11.619 3.307-20.117 13.995-20.117 26.676v86.041c0 12.681 8.498 23.38 20.117 26.687z" fill="#b8bede"/><g fill="#2e4f5f"><path d="m366.976 163.982h-50.254c-5.732 0-10.379-4.647-10.379-10.379 0-5.732 4.647-10.379 10.379-10.379h50.254c5.732 0 10.379 4.647 10.379 10.379 0 5.732-4.647 10.379-10.379 10.379z"/><path d="m366.976 206.953h-50.254c-5.732 0-10.379-4.647-10.379-10.379 0-5.732 4.647-10.379 10.379-10.379h50.254c5.732 0 10.379 4.647 10.379 10.379 0 5.732-4.647 10.379-10.379 10.379z"/><path d="m366.976 249.924h-50.254c-5.732 0-10.379-4.647-10.379-10.379 0-5.732 4.647-10.379 10.379-10.379h50.254c5.732 0 10.379 4.647 10.379 10.379 0 5.732-4.647 10.379-10.379 10.379z"/></g><g fill="#1f3645"><path d="m338.504 163.989h-21.785c-5.73 0-10.375-4.655-10.375-10.385 0-2.87 1.166-5.456 3.043-7.333 1.876-1.886 4.473-3.043 7.333-3.043h21.785c-2.86 0-5.456 1.156-7.333 3.043-1.876 1.876-3.043 4.463-3.043 7.333 0 5.73 4.645 10.385 10.375 10.385z"/><path d="m338.504 206.951h-21.785c-5.73 0-10.375-4.645-10.375-10.375 0-2.86 1.166-5.456 3.043-7.333 1.876-1.876 4.473-3.043 7.333-3.043h21.785c-2.86 0-5.456 1.166-7.333 3.043-1.876 1.876-3.043 4.473-3.043 7.333 0 5.73 4.645 10.375 10.375 10.375z"/><path d="m338.504 249.922h-21.785c-5.73 0-10.375-4.645-10.375-10.375 0-2.87 1.166-5.456 3.043-7.333 1.876-1.886 4.473-3.043 7.333-3.043h21.785c-2.86 0-5.456 1.156-7.333 3.043-1.876 1.876-3.043 4.463-3.043 7.333 0 5.73 4.645 10.375 10.375 10.375z"/></g></g><g><path d="m246.854 79.817c32.281 32.281 32.289 84.619 0 116.909-32.281 32.281-84.619 32.272-116.9-.009-23.223-23.223-29.749-56.829-19.536-85.877 1.255-3.593 8.352-1.534 10.124-4.959 2.104-4.067-1.011-13.577 1.817-17.315 2.292-3.045 4.824-5.97 7.595-8.742 2.78-2.78 5.705-5.312 8.75-7.604 3.443-2.605 10.639-1.31 14.364-3.301s3.978-7.267 7.909-8.64c29.048-10.211 62.654-3.685 85.877 19.538z" fill="#eceef1"/><path d="m259.547 180.406c-3.456 5.816-7.681 11.308-12.693 16.32-32.281 32.281-84.619 32.272-116.9-.009-23.223-23.223-29.749-56.829-19.536-85.877 1.18-3.378 8.487-1.728 10.124-4.959 2.172-4.287-1.154-13.388 1.817-17.315 2.292-3.045 4.824-5.97 7.595-8.742 2.78-2.78 5.705-5.312 8.75-7.604 2.455-1.856 7.038-.138 9.638-1.678-.952 1.605-3.905-.187-4.738 1.463-1.614 3.197-3.005 6.475-4.173 9.82-10.213 29.048-3.686 62.654 19.536 85.877 27.277 27.279 68.873 31.513 100.58 12.704z" fill="#d9dee8"/><path d="m198.655 84.787c-10.042-1.557-19.861-6.689-27.628-14.455l-10.05-10.05c-5.064 1.762-9.99 4.054-14.695 6.843-2.6 1.54-5.132 3.25-7.578 5.098l15.217 15.217c11.539 11.539 25.729 18.886 41.031 21.255 6.655 1.026 12.693 4.106 17.466 8.878 6.133 6.133 9.426 14.284 9.255 22.958-.163 8.682-3.772 16.705-10.153 22.624-12 11.111-30.818 11.145-42.844.06-5.346-4.918-8.75-11.299-9.845-18.416-2.361-15.277-9.682-29.441-21.195-40.954l-15.276-15.276c-5.209 6.886-9.195 14.413-11.941 22.273l10.11 10.11c7.741 7.741 12.847 17.518 14.387 27.525 1.942 12.599 7.946 23.856 17.364 32.52 16.14 14.874 39.209 18.424 58.651 10.666 6.15-2.455 11.932-6.047 17.03-10.769.547-.496 1.069-1.001 1.591-1.523 10.264-10.264 16.038-23.804 16.311-38.379.291-15.311-5.508-29.698-16.337-40.526-8.435-8.435-19.11-13.858-30.871-15.679z" fill="#ca245f"/><g fill="#b7004f"><path d="m110.418 110.84c2.746-7.861 6.732-15.388 11.941-22.273l12.779 12.779c-2.275 23.71 5.679 48.207 23.83 66.358 14.49 14.49 33.016 22.478 51.962 23.958-19.442 7.758-42.511 4.208-58.651-10.666-9.417-8.665-15.422-19.921-17.364-32.52-1.54-10.008-6.646-19.784-14.387-27.525z"/><path d="m146.282 67.124c-1.608 2.72-3.062 5.508-4.328 8.348l-3.25-3.25c2.446-1.848 4.978-3.559 7.578-5.098z"/></g></g><g><path d="m468.39 398.97c-18.37 27.23-41.84 50.74-69.04 69.16-25.15 3.89-51.75-3.85-71.13-23.23-32.28-32.28-32.27-84.62.01-116.9 23.22-23.22 56.83-29.75 85.88-19.53 4.551 1.586 5.531 8.618 9.798 11.036 3.103 1.759 9.571-1.29 12.473.904 3.04 2.29 5.97 4.82 8.74 7.59 2.78 2.78 5.31 5.71 7.61 8.75 2.6 3.445.83 11.117 2.821 14.844 1.991 3.726 7.744 3.506 9.119 7.436 4.519 12.85 5.759 26.6 3.719 39.94z" fill="#efc64c"/><path d="m344.541 457.597c-5.816-3.456-11.308-7.681-16.32-12.693-32.281-32.281-32.272-84.619.009-116.9 23.223-23.223 56.829-29.749 85.877-19.536 5.046 1.762 5.112 8.259 9.801 11.039 2.616 1.551 10.006-.963 12.472.902 3.045 2.292 5.97 4.824 8.742 7.595 2.78 2.78 5.312 5.705 7.604 8.75 1.856 2.455.311 8.225 1.851 10.825-2.032-1.206-.856-5.564-2.96-6.579-2.776-1.339-5.611-2.512-8.496-3.519-29.048-10.213-62.654-3.686-85.877 19.536-27.278 27.277-31.512 68.872-12.703 100.58z" fill="#e3a12f"/><path d="m440.16 396.705c1.557-10.042 6.689-19.861 14.455-27.628l10.05-10.05c-1.762-5.064-4.054-9.99-6.843-14.695-1.54-2.6-3.25-5.132-5.098-7.578l-15.217 15.217c-11.539 11.539-18.886 25.729-21.255 41.031-1.026 6.655-4.106 12.693-8.878 17.466-6.133 6.133-14.284 9.426-22.958 9.255-8.682-.163-16.705-3.772-22.624-10.153-11.111-12-11.145-30.818-.06-42.844 4.918-5.346 11.299-8.75 18.416-9.845 15.277-2.361 29.441-9.682 40.954-21.195l15.276-15.276c-6.886-5.209-14.413-9.195-22.273-11.941l-10.11 10.11c-7.741 7.741-17.518 12.847-27.525 14.387-12.599 1.942-23.856 7.946-32.52 17.364-14.874 16.14-18.424 39.209-10.666 58.651 2.455 6.15 6.047 11.932 10.769 17.03.496.547 1.001 1.069 1.523 1.591 10.264 10.264 23.804 16.038 38.379 16.311 15.311.291 29.698-5.508 40.526-16.337 8.434-8.435 13.857-19.11 15.679-30.871z" fill="#eceef1"/><g fill="#d6d8e8"><path d="m414.106 308.468c7.861 2.746 15.388 6.732 22.273 11.941l-12.779 12.779c-23.71-2.275-48.207 5.679-66.358 23.83-14.49 14.49-22.478 33.016-23.958 51.962-7.758-19.442-4.208-42.511 10.666-58.651 8.665-9.417 19.921-15.422 32.52-17.364 10.008-1.54 19.784-6.646 27.525-14.387z"/><path d="m457.823 344.332c-2.72-1.608-5.508-3.062-8.348-4.328l3.25-3.25c1.848 2.446 3.558 4.978 5.098 7.578z"/></g></g><g><path d="m297.564 321.864c0 3.837 30.563 26.591 30.294 30.356-1.824 25-9.588 48.337-21.881 68.628-8.73 14.407-31.993 15.028-44.794 25.851-18.162 15.355-27.67 38.841-51.574 44.529-11.538 2.75-23.571 4.206-35.954 4.206s-24.415-1.456-35.954-4.206c-18.846-4.484-30.264-28.392-45.731-39.074-17.977-12.417-39.286-12.573-50.637-31.306-12.293-20.291-20.057-43.628-21.881-68.628-.27-3.765 12.156-16.359 12.156-20.196 0-38.497 13.481-52.926 24.76-91.97 15.807-18.377 35.855-32.988 58.617-42.334 18.089-7.423 37.805 0 58.572 0s40.68-7.423 58.77 0c22.762 9.346 42.81 23.957 58.617 42.334 10.277 40.045 6.62 43.313 6.62 81.81z" fill="#d6d8e8"/><path d="m196.273 491.227c2.202.521 4.43 1.006 6.668 1.438-9.48 1.815-19.266 2.768-29.286 2.768-12.383 0-24.415-1.456-35.954-4.206-14.152-3.367-24.42-24.941-36.766-31.902-23.204-13.085-45.818-15.731-59.602-38.477-12.293-20.291-20.057-43.628-21.881-68.628-.27-3.765 16.244-24.223 16.244-28.061 0-38.497 7.267-44.729 20.672-84.105 15.807-18.377 35.855-32.988 58.617-42.334 18.089-7.423 37.904-6.145 58.671-6.145 10.011 0 20.746.716 30.227 2.54-10.19 1.95-20.962-.241-30.326 3.605-22.762 9.346-42.81 23.957-58.617 42.334-23.265 27.057-37.329 62.265-37.329 100.762 0 3.837.144 7.638.413 11.403 1.824 25 9.588 48.337 21.881 68.628 21.118 34.849 55.616 60.684 96.368 70.38z" fill="#b8bede"/><path d="m301.118 308.85-5.554-17.093-112.923 36.691v-120.736h-17.972v120.736l-114.032-37.051-5.553 17.093 114.031 37.051-69.221 95.274 14.539 10.564 69.222-95.275 67.908 93.468 14.539-10.564-67.907-93.467z" fill="#a8acd3"/><path d="m161.979 271.55-48.95 35.564c-6.962 5.058-9.875 14.024-7.216 22.209l18.697 57.544c2.659 8.184 10.286 13.726 18.892 13.726h60.505c8.606 0 16.233-5.541 18.892-13.726l18.697-57.544c2.659-8.184-.254-17.15-7.216-22.209l-48.95-35.564c-6.961-5.058-16.389-5.058-23.351 0z" fill="#2e4f5f"/><g><path d="m232.326 197.72c-.602.584-1.249 1.123-1.932 1.626l-45.812 33.285c-6.515 4.727-15.339 4.727-21.854 0l-22.322-16.22-23.49-17.065c-.683-.503-1.33-1.042-1.932-1.626 18.089-7.423 37.904-11.52 58.671-11.52 10.002 0 19.779.953 29.25 2.768.009 0 .027.009.036.009 10.19 1.95 20.021 4.897 29.385 8.743z" fill="#2e4f5f"/></g><g><path d="m137.701 491.227c-40.752-9.696-75.25-35.531-96.368-70.38 1.213-.252 2.462-.377 3.738-.377h56.622c8.052 0 15.196 5.185 17.685 12.85l6.371 19.608 11.125 34.246c.432 1.339.71 2.696.827 4.053z" fill="#2e4f5f"/></g><path d="m136.875 487.174c.431 1.339.71 2.696.827 4.053-40.752-9.696-75.25-35.531-96.368-70.38 1.213-.252 2.462-.377 3.738-.377h54.609c.072.126.153.252.225.377 7.162 11.826 15.87 22.609 25.844 32.081z" fill="#1f3645"/><path d="m202.941 188.977c-10.19 1.95-20.021 4.897-29.385 8.744-11.862 4.87-22.978 11.17-33.15 18.691l-23.49-17.065c-.683-.503-1.33-1.042-1.932-1.626 18.089-7.423 37.904-11.52 58.671-11.52 10.002 0 19.779.953 29.25 2.768.009-.001.027.008.036.008z" fill="#1f3645"/><g><path d="m68.148 317.219-45.812 33.285c-.916.665-1.887 1.24-2.885 1.716-.27-3.765-.413-7.566-.413-11.403 0-38.497 14.064-73.705 37.329-100.762.404.809.746 1.653 1.033 2.534l17.496 53.854c2.49 7.656-.233 16.049-6.748 20.776z" fill="#1f3645"/></g><g><path d="m305.977 420.847c-21.118 34.848-55.616 60.684-96.368 70.38.117-1.357.395-2.714.827-4.053l17.496-53.854c2.489-7.665 9.633-12.85 17.685-12.85h56.622c1.275 0 2.525.126 3.738.377z" fill="#2e4f5f"/></g><g><path d="m328.271 340.816c0 3.837-.144 7.638-.413 11.403-.997-.476-1.968-1.051-2.885-1.716l-45.812-33.285c-6.515-4.727-9.238-13.12-6.749-20.776l17.496-53.854c.288-.881.629-1.725 1.033-2.534 23.267 27.058 37.33 62.265 37.33 100.762z" fill="#2e4f5f"/></g></g><path d="m387.278 333.691h-262.556c-24.515 0-44.389-19.874-44.389-44.389v-65.542c0-24.515 19.874-44.389 44.389-44.389h262.555c24.515 0 44.389 19.874 44.389 44.389v65.542c.001 24.515-19.873 44.389-44.388 44.389z" fill="#1f3645"/><path d="m102.354 290.288v-67.514c0-12.925 10.478-23.403 23.403-23.403h260.486c12.925 0 23.403 10.478 23.403 23.403v67.515c0 12.925-10.478 23.403-23.403 23.403h-260.486c-12.925-.001-23.403-10.479-23.403-23.404z" fill="#ca245f"/><path d="m143.054 313.694h-17.3c-12.92 0-23.4-10.48-23.4-23.4v-67.52c0-12.92 10.48-23.4 23.4-23.4h17.3c-12.93 0-23.41 10.48-23.41 23.4v67.52c0 12.92 10.48 23.4 23.41 23.4z" fill="#b7004f"/><g fill="#efc64c"><path d="m177.155 217.056c-4.142.04-7.467 3.43-7.427 7.572l.415 42.856-32.503-47.067c-1.865-2.702-5.271-3.875-8.403-2.898-3.134.977-5.268 3.878-5.268 7.16v66.061c0 4.142 3.358 7.5 7.5 7.5s7.5-3.358 7.5-7.5v-42.001l30.997 44.885c2.234 3.228 5.949 4.605 9.465 3.507 3.594-1.123 5.917-4.506 5.916-8.693l-.618-63.954c-.042-4.143-3.474-7.494-7.574-7.428z"/><path d="m231.696 232.66c4.142 0 7.5-3.358 7.5-7.5s-3.358-7.5-7.5-7.5h-27.633c-4.142 0-7.5 3.358-7.5 7.5v65.58c0 4.142 3.358 7.5 7.5 7.5h27.633c4.142 0 7.5-3.358 7.5-7.5s-3.358-7.5-7.5-7.5h-20.133v-17.79h18.095c4.142 0 7.5-3.358 7.5-7.5s-3.358-7.5-7.5-7.5h-18.095v-17.79z"/><path d="m368.967 251.133c-7.172-2.646-13.789-5.443-17.095-6.876-.991-.429-1.784-1.038-2.233-1.715-.945-1.422-1.132-3.316-.502-5.064.794-2.202 2.747-3.872 5.498-4.701 9.738-2.931 18.686 4.159 18.926 4.353 3.17 2.633 7.877 2.215 10.533-.944 2.665-3.171 2.255-7.902-.915-10.567-.612-.515-15.184-12.532-32.87-7.204-7.304 2.2-12.874 7.294-15.283 13.976-2.232 6.194-1.441 13.091 2.117 18.449 2.064 3.107 5.096 5.591 8.767 7.181 3.448 1.494 10.355 4.415 17.867 7.186 3.084 1.138 10.152 4.377 9.171 9.872-.716 4.012-5.521 8.162-12.322 8.162-6.793 0-13.337-2.747-17.506-7.347-2.781-3.069-7.524-3.303-10.594-.521-3.069 2.782-3.303 7.524-.521 10.594 6.965 7.686 17.665 12.274 28.622 12.274 13.573 0 24.965-8.632 27.089-20.526 1.59-8.921-2.498-20.588-18.749-26.582z"/><path d="m322.371 217.321c-4.062-.808-8.011 1.83-8.82 5.892l-8.266 41.534-13.062-42.399c-1.092-3.547-4.61-5.761-8.284-5.208-3.164.477-5.617 2.886-6.233 5.919l-12.906 41.692-8.239-41.651c-.804-4.063-4.75-6.705-8.813-5.902-4.063.804-6.706 4.75-5.902 8.813l12.895 65.19c.071.358.168.711.29 1.055 1.281 3.604 4.747 6.015 8.536 5.983 3.825-.026 7.222-2.477 8.454-6.098.022-.065.043-.131.064-.197l12.972-41.909 12.914 41.918c.031.102.064.203.1.303 1.274 3.585 4.674 5.983 8.475 5.983h.061c3.825-.026 7.222-2.477 8.454-6.098.106-.311.191-.629.255-.951l12.946-65.05c.809-4.061-1.829-8.01-5.891-8.819z"/></g></g></svg>