<?xml version="1.0" encoding="UTF-8"?>
<svg width="40" height="40" viewBox="0 0 40 40" fill="none" xmlns="http://www.w3.org/2000/svg">
  <rect width="40" height="40" rx="8" fill="#0078D7" />
  <path d="M29.5 14C29.5 12.067 27.933 10.5 26 10.5H14C12.067 10.5 10.5 12.067 10.5 14V26C10.5 27.933 12.067 29.5 14 29.5H26C27.933 29.5 29.5 27.933 29.5 26V14Z" stroke="white" stroke-width="2"/>
  <circle cx="20" cy="20" r="6" stroke="white" stroke-width="2"/>
  <path d="M20 8V4" stroke="white" stroke-width="2" stroke-linecap="round"/>
  <path d="M20 36V32" stroke="white" stroke-width="2" stroke-linecap="round"/>
  <path d="M32 20L36 20" stroke="white" stroke-width="2" stroke-linecap="round"/>
  <path d="M4 20L8 20" stroke="white" stroke-width="2" stroke-linecap="round"/>
  <path d="M28.5 28.5L31.5 31.5" stroke="white" stroke-width="2" stroke-linecap="round"/>
  <path d="M8.5 8.5L11.5 11.5" stroke="white" stroke-width="2" stroke-linecap="round"/>
  <path d="M28.5 11.5L31.5 8.5" stroke="white" stroke-2" stroke-linecap="round"/>
  <path d="M8.5 31.5L11.5 28.5" stroke="white" stroke-width="2" stroke-linecap="round"/>
</svg>