<svg id="Capa_1" enable-background="new 0 0 512 512" height="512" viewBox="0 0 512 512" width="512" xmlns="http://www.w3.org/2000/svg"><g><g><g><g><g><path d="m483.831 107.573h-455.661c-11.415 0-20.669 9.254-20.669 20.669v218.545c0 11.415 9.254 20.669 20.669 20.669h181.925c4.741 0 9.122 2.529 11.492 6.635l22.921 39.701c5.108 8.847 17.877 8.847 22.985 0l22.921-39.701c2.37-4.106 6.751-6.635 11.492-6.635h181.925c11.415 0 20.669-9.254 20.669-20.669v-218.545c0-11.415-9.254-20.669-20.669-20.669z" fill="#fe7d43"/></g></g></g><g><g><g><path d="m483.831 107.572h-9.331v209.215c0 11.416-9.254 20.67-20.669 20.67h-181.925c-4.741 0-9.122 2.529-11.492 6.635l-22.921 39.701c-1.671 2.895-4.168 4.823-6.943 5.824l13.958 24.176c5.108 8.847 17.877 8.847 22.985 0l22.921-39.701c2.371-4.106 6.751-6.635 11.492-6.635h181.925c11.415 0 20.669-9.254 20.669-20.67v-218.545c0-11.415-9.254-20.67-20.669-20.67z" fill="#fd6930"/></g></g></g></g><g><g><g><path d="m256 42.162c4.143 0 7.5-3.357 7.5-7.5v-15.714c0-4.143-3.357-7.5-7.5-7.5s-7.5 3.357-7.5 7.5v15.714c0 4.143 3.357 7.5 7.5 7.5z"/></g></g><g><g><path d="m326.225 71.25c1.919 0 3.839-.732 5.304-2.196l11.111-11.111c2.929-2.93 2.929-7.678 0-10.607-2.93-2.928-7.678-2.928-10.607 0l-11.111 11.111c-2.929 2.93-2.929 7.678 0 10.607 1.464 1.464 3.384 2.196 5.303 2.196z"/></g></g><g><g><path d="m180.473 69.054c1.465 1.464 3.385 2.196 5.304 2.196s3.839-.732 5.304-2.196c2.929-2.93 2.929-7.678 0-10.607l-11.111-11.111c-2.93-2.928-7.678-2.928-10.607 0-2.929 2.93-2.929 7.678 0 10.607z"/></g></g><g><g><path d="m256 469.838c-4.143 0-7.5 3.357-7.5 7.5v15.714c0 4.143 3.357 7.5 7.5 7.5s7.5-3.357 7.5-7.5v-15.714c0-4.143-3.357-7.5-7.5-7.5z"/></g></g><g><g><path d="m331.528 442.946c-2.93-2.928-7.678-2.928-10.607 0-2.929 2.93-2.929 7.678 0 10.607l11.111 11.111c1.465 1.464 3.385 2.196 5.304 2.196s3.839-.732 5.304-2.196c2.929-2.93 2.929-7.678 0-10.607z"/></g></g><g><g><path d="m180.473 442.946-11.111 11.111c-2.929 2.93-2.929 7.678 0 10.607 1.465 1.464 3.385 2.196 5.304 2.196s3.839-.732 5.304-2.196l11.111-11.111c2.929-2.93 2.929-7.678 0-10.607-2.931-2.927-7.679-2.927-10.608 0z"/></g></g><g><g><path d="m423.533 359.957h-121.627c-7.397 0-14.289 3.979-17.987 10.385l-22.922 39.7c-1.503 2.604-3.995 2.886-4.996 2.886-1.002 0-3.494-.281-4.998-2.886l-22.921-39.7c-3.698-6.405-10.59-10.385-17.987-10.385h-181.925c-7.262 0-13.17-5.908-13.17-13.17v-218.545c0-7.262 5.908-13.17 13.17-13.17h45.519c4.143 0 7.5-3.357 7.5-7.5s-3.357-7.5-7.5-7.5h-45.519c-15.533 0-28.17 12.637-28.17 28.17v218.545c0 15.533 12.637 28.17 28.17 28.17h181.925c2.055 0 3.97 1.105 4.997 2.885l22.921 39.7c3.754 6.503 10.479 10.386 17.988 10.386 7.509-.001 14.232-3.883 17.986-10.386l22.922-39.7c1.027-1.779 2.942-2.885 4.997-2.885h121.627c4.143 0 7.5-3.357 7.5-7.5s-3.357-7.5-7.5-7.5z"/></g></g><g><g><path d="m483.831 100.072h-374.143c-4.143 0-7.5 3.357-7.5 7.5s3.357 7.5 7.5 7.5h374.143c7.262 0 13.169 5.908 13.169 13.17v218.545c0 7.262-5.907 13.17-13.169 13.17h-24.298c-4.143 0-7.5 3.357-7.5 7.5s3.357 7.5 7.5 7.5h24.298c15.532 0 28.169-12.637 28.169-28.17v-218.545c0-15.533-12.637-28.17-28.169-28.17z"/></g></g><g><g><path d="m264.202 182.97c-4.143 0-7.5 3.357-7.5 7.5v96.265c0 3.652 2.632 6.774 6.231 7.392.54.093 1.126.193 11.531.193 5.098 0 12.554-.023 23.516-.085 4.142-.023 7.481-3.399 7.458-7.542-.023-4.128-3.376-7.458-7.499-7.458-.015 0-.028 0-.043 0-7.808.045-18.999.083-26.194.081v-88.846c0-4.143-3.357-7.5-7.5-7.5z"/></g></g><g><g><path d="m68.853 190.47v96.346c0 4.143 3.357 7.5 7.5 7.5s7.5-3.357 7.5-7.5v-42.326h51.672v42.325c0 4.143 3.357 7.5 7.5 7.5s7.5-3.357 7.5-7.5v-96.345c0-4.143-3.357-7.5-7.5-7.5s-7.5 3.357-7.5 7.5v39.021h-51.672v-39.021c0-4.143-3.357-7.5-7.5-7.5s-7.5 3.357-7.5 7.5z"/></g></g><g><g><path d="m227.791 198.41c4.143 0 7.5-3.357 7.5-7.5s-3.357-7.5-7.5-7.5h-40.226c-4.143 0-7.5 3.357-7.5 7.5v95.466c0 4.143 3.357 7.5 7.5 7.5h40.226c4.143 0 7.5-3.357 7.5-7.5s-3.357-7.5-7.5-7.5h-32.726v-32.733h29.76c4.143 0 7.5-3.357 7.5-7.5s-3.357-7.5-7.5-7.5h-29.76v-32.733z"/></g></g><g><g><path d="m344.836 286.815v-34.39c6.241-.035 14.907-.078 19.326-.078 19.421 0 35.222-15.562 35.222-34.688 0-19.128-15.801-34.689-35.222-34.689h-26.826c-4.033-.081-7.569 3.477-7.5 7.5v96.346c0 4.143 3.357 7.5 7.5 7.5s7.5-3.358 7.5-7.501zm19.326-88.845c10.961 0 20.222 9.017 20.222 19.689s-9.261 19.688-20.222 19.688c-4.391 0-12.926.042-19.165.076l-.136-39.454h19.301z"/></g></g><g><g><path d="m435.648 182.408c-4.143 0-7.5 3.357-7.5 7.5v61.78c0 4.143 3.357 7.5 7.5 7.5s7.5-3.357 7.5-7.5v-61.78c0-4.142-3.357-7.5-7.5-7.5z"/></g></g><g><g><path d="m435.646 279.88c-1.97 0-3.91.8-5.3 2.189-1.399 1.4-2.2 3.33-2.2 5.311 0 .49.051.979.15 1.46.09.479.24.95.43 1.4.181.46.42.89.681 1.3.279.41.59.79.939 1.14.34.351.73.66 1.14.93.4.271.841.5 1.29.69.45.19.931.33 1.41.43.48.101.971.141 1.46.141.49 0 .98-.04 1.471-.141.479-.1.949-.239 1.399-.43s.891-.42 1.3-.69c.41-.27.79-.579 1.131-.93.35-.35.659-.729.939-1.14.271-.41.5-.84.69-1.3.18-.45.33-.921.42-1.4.1-.48.149-.97.149-1.46 0-1.98-.8-3.91-2.199-5.311-1.389-1.389-3.319-2.189-5.3-2.189z"/></g></g></g></g></svg>