<svg id="Capa_1" enable-background="new 0 0 512.098 512.098" height="512" viewBox="0 0 512.098 512.098" width="512" xmlns="http://www.w3.org/2000/svg"><g><g><g clip-rule="evenodd" fill-rule="evenodd"><path d="m28.332 382.979c-27.71 27.71-27.71 73.053 0 100.762 27.71 27.71 73.053 27.71 100.763 0l354.672-354.672c27.71-27.709 27.71-73.053 0-100.762-27.71-27.71-73.053-27.71-100.763-.001z" fill="#ffc277"/><path d="m107.556 192.384 59.759 51.61 76.704-76.704-51.61-59.759-68.942-68.942-84.853 84.853zm229.854 83.042-61.959 61.958 65.451 56.526 53.033-53.033z" fill="#ff6a47"/><path d="m150.242 229.249 17.074 14.746 76.704-76.704-14.745-17.074zm201.913 63.251-59.63 59.631-17.074-14.746 61.959-61.958z" fill="#fd3501"/><circle cx="420.452" cy="420.427" fill="#ff6a47" r="37.5"/><path d="m129.094 483.741c-27.709 27.709-73.053 27.71-100.763 0-27.71-27.71-27.709-73.053 0-100.763l15.91-15.91c-27.709 27.71-27.709 73.053 0 100.763 27.71 27.71 73.053 27.709 100.763 0z" fill="#f69500"/><path d="m382.951 420.427c0 20.711 16.79 37.5 37.501 37.5 14.452 0 26.993-8.177 33.254-20.156-32.346 16.905-67.503-18.252-50.598-50.599-11.979 6.261-20.157 18.802-20.157 33.255z" fill="#fd3501"/></g><g><path d="m144.68 112.835-10.606-10.606 10.607-10.606 10.606 10.606zm-21.213-21.213-10.607-10.607 10.607-10.606 10.606 10.606z" fill="#fff"/></g></g><g><path d="m312.116 149.728 29.417 65.608 13.688-6.137-6.99-15.589 16.633-16.633 15.537 7.023 6.179-13.668-65.483-29.6zm38.138 20.646-8.59 8.59-7.014-15.644z"/><path d="m349.714 112.117 50.237 50.238 10.607-10.606-29.296-29.297 46.71 10.661 9.973-9.976-49.697-49.698-10.606 10.606 28.758 28.759-46.707-10.66z"/><path d="m154.477 404.824-57.729-38.842-10.096 10.169 19.824 35.222-35.669-19.417-10.132 10.129 39.661 57.067 12.318-8.561-20.991-30.203 31.648 17.228 9.691-9.692-17.635-31.335 30.737 20.681z"/><path d="m53.359 415.716h15v71.149h-15z" transform="matrix(.707 -.707 .707 .707 -301.284 175.212)"/><path d="m294.557 167.281-32.534 32.534 10.607 10.606 10.919-10.919 39.704 39.704 10.606-10.607-39.704-39.703 11.008-11.008z"/><path d="m235.91 225.927-15.858 15.859 50.301 50.318 10.608-10.604-15.748-15.754 31.274 2.609 1.247-14.948-26.26-2.191c4.345-8.5 3.147-18.991-3.736-25.873-8.612-8.612-22.889-8.352-31.828.584zm21.222 10.022c2.719 2.719 2.451 7.58-.606 10.638l-5.211 5.256-10.052-10.055 5.254-5.254c3.035-3.035 7.896-3.303 10.615-.585z"/><path d="m177.331 385.13-17.27-17.271 5.725-5.778c4.396-4.396 6.864-10.262 6.948-16.518.085-6.357-2.305-12.294-6.728-16.717-4.423-4.424-10.36-6.822-16.718-6.728-6.256.083-12.121 2.55-16.517 6.947l-16.359 16.358 50.312 50.312zm-22.175-33.63-5.702 5.754-11.828-11.829 5.753-5.752c1.616-1.616 3.786-2.523 6.11-2.554 2.261-.068 4.374.798 5.911 2.335 1.536 1.536 2.365 3.635 2.335 5.91-.031 2.325-.938 4.495-2.579 6.136z"/><path d="m209.443 338.264c9.109 0 18.22-3.468 25.155-10.403 13.87-13.871 13.87-36.439 0-50.31h-.001c-13.87-13.87-36.438-13.871-50.311 0-13.87 13.871-13.87 36.439 0 50.31 6.937 6.935 16.047 10.403 25.157 10.403zm-14.548-50.107c4.011-4.011 9.279-6.016 14.548-6.016s10.538 2.005 14.549 6.016c8.022 8.022 8.022 21.075 0 29.097-8.021 8.021-21.075 8.022-29.097 0-8.023-8.022-8.023-21.075 0-29.097z"/><path d="m431.388 30.298-32.534 32.534 10.606 10.606 10.919-10.919 39.704 39.704 10.606-10.607-39.703-39.703 11.008-11.008z"/><path d="m489.069 23.004c-14.818-14.818-34.593-22.979-55.684-22.979-.001 0 0 0-.001 0-21.089 0-40.866 8.161-55.684 22.979l-133.279 133.278-46.336-53.653-74.618-74.646-95.459 95.459 34.471 34.471 10.607-10.606-23.865-23.864 74.246-74.247 63.445 63.445 46.875 54.276-66.845 66.845-54.275-46.874-28.974-28.974-10.608 10.606 29.168 29.168.194.194 53.859 46.515-133.279 133.278c-30.703 30.705-30.703 80.665 0 111.369 15.354 15.354 35.517 23.029 55.686 23.029 20.164 0 40.335-7.678 55.686-23.028l46.454-46.455-10.607-10.606-46.454 46.455c-24.855 24.855-65.301 24.856-90.156 0s-24.855-65.3 0-90.156l354.672-354.674c11.984-11.985 27.993-18.585 45.077-18.585s33.093 6.601 45.077 18.586c24.856 24.856 24.857 65.3.001 90.156l-276.398 276.398 10.607 10.606 63.152-63.152 65.451 56.526 62.892-62.893-56.524-65.451 141.427-141.427c30.704-30.705 30.703-80.665-.001-111.369zm-105.366 317.499-43.175 43.175-54.068-46.695 50.548-50.548z"/><path d="m183.959 413.877h15v15h-15z" transform="matrix(.707 -.707 .707 .707 -241.867 258.76)"/><path d="m388.631 388.607c-17.545 17.546-17.545 46.095 0 63.64 8.5 8.5 19.8 13.181 31.82 13.181s23.321-4.681 31.821-13.181c17.545-17.545 17.545-46.094-.001-63.641-17.544-17.545-46.093-17.545-63.64.001zm53.034 53.033c-5.666 5.666-13.2 8.787-21.214 8.787s-15.547-3.121-21.213-8.787c-11.697-11.697-11.697-30.73 0-42.427 11.695-11.696 30.729-11.696 42.427 0 11.697 11.697 11.697 30.73 0 42.427z"/></g></g></svg>