<svg height="512" viewBox="0 0 512 512" width="512" xmlns="http://www.w3.org/2000/svg"><g id="ESSENTIAL_UI" data-name="ESSENTIAL UI"><path d="m256 0c-141.38 0-256 114.61-256 256s114.62 256 256 256 256-114.62 256-256-114.61-256-256-256z" fill="#f9973e"/><path d="m120.56 400.82c153.63 0 278.17-124.54 278.17-278.16a277.77 277.77 0 0 0 -14.28-88.14 254.83 254.83 0 0 0 -128.45-34.52c-141.38 0-256 114.62-256 256a254.81 254.81 0 0 0 36.57 131.91 278.14 278.14 0 0 0 83.99 12.91z" fill="#fca84c"/><path d="m284.28 408.37a16.48 16.48 0 0 1 -12.69 12.69 101.87 101.87 0 0 1 -31.18 0 16.48 16.48 0 0 1 -12.69-12.69 102.65 102.65 0 0 1 0-31.17 16.51 16.51 0 0 1 12.69-12.69 102.72 102.72 0 0 1 31.18 0 16.51 16.51 0 0 1 12.69 12.69 102.65 102.65 0 0 1 0 31.17zm29.13-145.31c-27.32 16.85-34.16 25.51-34.16 42.36v5.19a26.41 26.41 0 0 1 -26.41 26.39 26.42 26.42 0 0 1 -26.42-26.42v-12c0-27.79 13.21-46.46 44.64-65.13 31-18.22 41-30.52 41-49.19 0-21.86-18.22-36-45.09-36-29 0-47.64 13.87-55.63 39.07a28.57 28.57 0 0 1 -29.34 19.67c-18.47-1.34-31-19.59-25.37-37.22 14.44-45.08 54.82-73.86 110.37-73.86 56.93 0 102 36.89 102 87.44 0 33.25-16.87 56.02-55.59 79.7z" fill="#fff"/></g></svg>