<svg height="512" viewBox="0 0 512 512" width="512" xmlns="http://www.w3.org/2000/svg"><g id="ESSENTIAL_UI" data-name="ESSENTIAL UI"><path d="m256 0c-141.38 0-256 114.61-256 256s114.62 256 256 256 256-114.62 256-256-114.61-256-256-256z" fill="#dd4247"/><path d="m120.56 400.82c153.63 0 278.17-124.54 278.17-278.16a277.77 277.77 0 0 0 -14.28-88.14 254.83 254.83 0 0 0 -128.45-34.52c-141.38 0-256 114.62-256 256a254.81 254.81 0 0 0 36.57 131.91 278.14 278.14 0 0 0 83.99 12.91z" fill="#e55353"/><path d="m227.64 123.94a28.36 28.36 0 0 1 28.36-28.36 28.36 28.36 0 0 1 28.36 28.36v179.06a28.36 28.36 0 0 1 -28.36 28.37 28.36 28.36 0 0 1 -28.36-28.37zm.08 253.26a16.51 16.51 0 0 1 12.69-12.69 102.72 102.72 0 0 1 31.18 0 16.51 16.51 0 0 1 12.69 12.69 102.65 102.65 0 0 1 0 31.17 16.48 16.48 0 0 1 -12.69 12.69 101.87 101.87 0 0 1 -31.18 0 16.48 16.48 0 0 1 -12.69-12.69 102.65 102.65 0 0 1 0-31.17z" fill="#fff"/></g></svg>