<svg id="Layer_1" enable-background="new 0 0 64 64" viewBox="0 0 64 64" xmlns="http://www.w3.org/2000/svg"><g><path d="m58.14 27.12h-52.28c-1.21 0-2.28-.79-2.63-1.95l-3.04-10.2c-.52-1.75.79-3.51 2.63-3.51h58.36c1.83 0 3.15 1.76 2.63 3.51l-3.04 10.2c-.35 1.16-1.42 1.95-2.63 1.95z" fill="#fbd984"/><path d="m63.8 14.97-.02.05c-.35-1.08-1.36-1.88-2.6-1.88h-58.36c-1.25 0-2.26.82-2.61 1.89l-.02-.06c-.52-1.75.79-3.51 2.63-3.51h58.37c1.82 0 3.14 1.76 2.61 3.51z" fill="#e5be70"/><g fill="#f97a70"><path d="m16.34 27.04-.02.08-.96 3.37-7.82 27.36h-3.41l7.83-27.36.95-3.37.03-.08z"/><path d="m59.87 57.85h-3.4l-7.83-27.36-.95-3.37-.03-.08h3.41l.03.08.95 3.37z"/></g><g><g><path d="m23.6 11.46h-1.8c0-1.9-1.55-3.44-3.45-3.44s-3.45 1.54-3.45 3.44h-1.8c0-2.88 2.35-5.23 5.24-5.23 2.91 0 5.26 2.35 5.26 5.23z" fill="#324a5e"/></g><g><path d="m50.88 11.39h-1.8c0-1.9-1.55-3.44-3.45-3.44s-3.45 1.54-3.45 3.44h-1.8c0-2.88 2.35-5.23 5.24-5.23s5.26 2.34 5.26 5.23z" fill="#324a5e"/></g></g><g fill="#dd655b"><path d="m12.91 27.12h3.4l-.95 3.37h-3.41z"/><path d="m52.05 30.49h-3.41l-.95-3.37h3.4z"/></g></g></svg>