<svg id="Layer_1" enable-background="new 0 0 64 64" viewBox="0 0 64 64" xmlns="http://www.w3.org/2000/svg"><g><path d="m63.92 32c0 6.36-1.86 12.27-5.07 17.24-5.69 8.79-15.59 14.6-26.85 14.6s-21.16-5.81-26.85-14.61c-3.21-4.96-5.07-10.87-5.07-17.23s1.86-12.27 5.07-17.24c5.69-8.79 15.59-14.6 26.85-14.6s21.16 5.81 26.85 14.61c3.21 4.96 5.07 10.87 5.07 17.23z" fill="#eff3f5"/><path d="m63.92 32c0 6.36-1.86 12.27-5.07 17.24h-53.7c-3.21-4.97-5.07-10.88-5.07-17.24s1.86-12.27 5.07-17.24h53.7c3.21 4.97 5.07 10.88 5.07 17.24z" fill="#255970"/><ellipse cx="32" cy="32" fill="#f1f3f7" rx="13.5" ry="13.47"/><g><path d="m28.96 31.13c-.93-.39-1.61-.93-2.03-1.62s-.63-1.44-.63-2.26c0-1.4.49-2.55 1.47-3.46s2.37-1.37 4.17-1.37c1.78 0 3.17.46 4.16 1.37s1.48 2.07 1.48 3.46c0 .87-.23 1.64-.68 2.32s-1.09 1.19-1.91 1.55c1.04.42 1.83 1.03 2.38 1.83.54.8.81 1.72.81 2.77 0 1.73-.55 3.14-1.66 4.22s-2.58 1.62-4.41 1.62c-1.71 0-3.13-.45-4.27-1.34-1.34-1.06-2.01-2.5-2.01-4.34 0-1.01.25-1.94.76-2.79.49-.85 1.29-1.5 2.37-1.96zm.41 4.41c0 .99.25 1.76.76 2.31s1.14.83 1.9.83c.74 0 1.36-.27 1.85-.8s.73-1.3.73-2.31c0-.88-.25-1.58-.74-2.11-.5-.53-1.12-.8-1.88-.8-.88 0-1.54.3-1.97.91s-.65 1.26-.65 1.97zm.34-8.03c0 .72.2 1.27.61 1.67s.95.6 1.62.6c.68 0 1.23-.2 1.64-.61.41-.4.62-.96.62-1.68 0-.67-.2-1.21-.61-1.62-.41-.4-.94-.61-1.61-.61-.69 0-1.24.2-1.65.61-.42.43-.62.97-.62 1.64z" fill="#293b4e"/></g></g></svg>