<svg id="Layer_1" enable-background="new 0 0 64 64" viewBox="0 0 64 64" xmlns="http://www.w3.org/2000/svg"><g><ellipse cx="32" cy="32" fill="#687d87" rx="31.92" ry="31.84"/><path d="m63.92 32c0 17.58-14.3 31.84-31.92 31.84-13.38 0-24.83-8.21-29.58-19.85 5.81 7.96 15.21 13.14 25.84 13.14 17.63 0 31.92-14.26 31.92-31.84 0-4.23-.83-8.26-2.32-11.95 3.82 5.24 6.06 11.68 6.06 18.66z" fill="#506c72"/><g fill="#293b4e"><path d="m41.3 18.03c0 1.96-1.59 3.55-3.56 3.55s-3.56-1.59-3.56-3.55 1.59-3.55 3.56-3.55c1.96 0 3.56 1.59 3.56 3.55z"/><path d="m49.24 27.26c0 1.96-1.59 3.55-3.56 3.55s-3.56-1.59-3.56-3.55 1.59-3.55 3.56-3.55 3.56 1.59 3.56 3.55z"/><path d="m53.4 16.45c0 1.96-1.59 3.55-3.56 3.55s-3.56-1.59-3.56-3.55 1.59-3.55 3.56-3.55c1.96 0 3.56 1.59 3.56 3.55z"/></g><g fill="#506c72"><path d="m40.23 20.56c.24-.48.38-1.02.38-1.59 0-1.96-1.59-3.55-3.55-3.55-.98 0-1.86.39-2.49 1.02.58-1.16 1.79-1.96 3.17-1.96 1.97 0 3.56 1.59 3.56 3.55 0 .98-.41 1.89-1.07 2.53z"/><path d="m48.18 29.78c.24-.48.38-1.03.38-1.59 0-1.96-1.6-3.55-3.56-3.55-.98 0-1.85.39-2.49 1.02.59-1.15 1.8-1.95 3.18-1.95 1.97 0 3.56 1.58 3.56 3.54 0 .99-.41 1.89-1.07 2.53z"/><path d="m52.33 18.97c.24-.48.38-1.02.38-1.59 0-1.96-1.6-3.54-3.56-3.54-.98 0-1.85.39-2.49 1.01.59-1.15 1.8-1.95 3.18-1.95 1.97 0 3.56 1.58 3.56 3.54 0 .99-.41 1.9-1.07 2.53z"/></g><ellipse cx="13.22" cy="15.15" fill="#eff3f5" opacity=".4" rx="7.56" ry="2.76" transform="matrix(.629 -.777 .777 .629 -6.871 15.897)"/></g></svg>