<svg id="Layer_1" enable-background="new 0 0 64 64" viewBox="0 0 64 64" xmlns="http://www.w3.org/2000/svg"><g><path d="m61.47 2.6c2.29 2.29 3.3 9.83 1.6 18.94-.45 2.38-1.08 4.89-1.94 7.43-2.29 6.87-6.13 14.03-12.02 20.16-5.4 5.59-12.32 9.35-19.18 11.66-2.87.97-5.73 1.68-8.47 2.17-9.16 1.65-16.97.84-19.15-1.34-.05-.05-.09-.09-.12-.14-.32-.36-.61-.83-.86-1.43-1.4-3.27-1.73-9.86-.39-17.42l.01-.01c.48-2.74 1.21-5.6 2.18-8.49 2.33-6.87 6.08-13.81 11.72-19.2 6.16-5.9 13.36-9.73 20.26-12 2.56-.86 5.09-1.5 7.5-1.94 7.58-1.39 14.06-.92 17.32.59.57.27 1.04.56 1.4.88.05.05.1.1.14.14z" fill="#8e342d"/><g><path d="m61.31 2.46c-27.28 11.42-47.16 31.27-59.13 59.02-.32-.36-.61-.83-.86-1.43 12.03-27.31 31.73-46.97 58.6-58.47.56.26 1.03.56 1.39.88z" fill="#601a21"/></g><g fill="#f1f3f7"><path d="m63.07 21.55c-.45 2.38-1.08 4.89-1.94 7.43-8.31-9.42-16.95-18.18-26.03-26.05 2.56-.86 5.09-1.5 7.5-1.94 7.13 6.09 13.95 12.97 20.47 20.56z"/><path d="m29.93 60.79c-2.87.97-5.73 1.68-8.47 2.17-8.38-6.66-14.95-13.23-20.53-20.33l.01-.01c.48-2.74 1.21-5.6 2.18-8.49 7.22 10.19 16.2 19.06 26.81 26.66z"/></g><g><g><path d="m42.61 13.19c-10.86 7.78-21.71 18.56-29.76 29.57l-2.17-1.58c8.21-11.23 19.28-22.23 30.37-30.17z" fill="#eff3f5"/></g><g><g><g><path d="m15.64 42.6c-1.87-1.41-3.57-3.1-4.77-4.76l1.09-.79c1.13 1.56 2.73 3.15 4.49 4.48z" fill="#eff3f5"/></g><g><path d="m19.06 38.66c-1.09-.82-3.15-2.53-4.77-4.76l1.09-.79c1.13 1.55 2.72 3.14 4.49 4.48z" fill="#eff3f5"/></g><g><path d="m22.47 34.72c-1.87-1.41-3.57-3.1-4.77-4.76l1.09-.79c1.13 1.56 2.73 3.15 4.49 4.48z" fill="#eff3f5"/></g><g><path d="m26.78 29.79-.97.93c-1.08-1.12-2.23-2.26-3.36-3.37l-1.26-1.24.95-.95 1.26 1.24c1.13 1.11 2.3 2.26 3.38 3.39z" fill="#eff3f5"/></g></g><g><g><path d="m42.39 15.91-1.07.81c-1.34-1.76-2.93-3.36-4.49-4.48l.79-1.09c1.66 1.2 3.36 2.89 4.77 4.76z" fill="#eff3f5"/></g><g><path d="m38.45 19.32-1.07.81c-1.34-1.77-2.94-3.36-4.49-4.48l.79-1.09c2.23 1.62 3.94 3.67 4.77 4.76z" fill="#eff3f5"/></g><g><path d="m34.5 22.73-1.07.81c-1.34-1.76-2.93-3.36-4.49-4.48l.79-1.09c1.66 1.2 3.36 2.89 4.77 4.76z" fill="#eff3f5"/></g><g><path d="m29.55 27.02c-1.13-1.08-2.28-2.25-3.4-3.38l-1.24-1.26.95-.95 1.25 1.26c1.11 1.12 2.25 2.28 3.37 3.35z" fill="#eff3f5"/></g></g></g></g></g></svg>