<svg id="Layer_1" enable-background="new 0 0 64 64" viewBox="0 0 64 64" xmlns="http://www.w3.org/2000/svg"><g><path d="m34.36 32.32c-.32.31-.65.62-.97.93.52.52 1.05 1.04 1.57 1.53l.93-.97c-.51-.47-1.02-.98-1.53-1.49z" fill="#8e342d"/><path d="m31.27 29.21-.95.95 1.19 1.2c.32-.31.64-.62.97-.93z" fill="#8e342d"/><path d="m32.52 30.47-.05-.05c-.32.31-.65.62-.97.93l.06.06c.6.61 1.22 1.23 1.83 1.84.32-.31.64-.62.97-.93-.62-.61-1.24-1.23-1.84-1.85z" fill="#eff3f5"/></g><g><path d="m63.92 32c0 8.68-3.48 16.54-9.13 22.29-.87.88-1.77 1.71-2.74 2.48-5.48 4.44-12.46 7.08-20.06 7.08-1.04 0-2.06-.05-3.06-.16-1.06-.08-2.1-.24-3.13-.44-7.26-1.42-13.64-5.3-18.21-10.74-.75-.86-1.43-1.77-2.07-2.71-3.43-5.08-5.44-11.2-5.44-17.8 0-1.25.07-2.49.22-3.7.13-1.16.32-2.3.58-3.41 1.89-8.24 6.98-15.27 13.9-19.7 1.18-.77 2.42-1.45 3.71-2.04 4.1-1.92 8.68-2.99 13.51-2.99 1.36 0 2.7.08 4.01.26.87.09 1.72.24 2.57.41 5.74 1.2 10.91 3.94 15.06 7.78.71.63 1.38 1.32 2.03 2.02 4.46 4.91 7.4 11.22 8.09 18.2.1.89.14 1.79.15 2.7.01.15.01.31.01.47z" fill="#ed7237"/><g fill="#8e342d"><path d="m38.77 5.77c-.25.63-.63 1.25-1.15 1.75-.26.23-.6.48-.84.62l-.67.43-2.71 1.79c-.03.02-.05.03-.08.05-.57.38-1.15.75-1.74 1.11-3.14 1.94-6.48 3.65-10.06 4.78-.53.19-1.07.33-1.62.47-.54.15-1.09.27-1.65.38-.55.12-1.11.21-1.66.27-.57.07-1.11.15-1.61.23-2.04.35-4.1.85-5.98 1.71s-3.64 1.97-5.06 3.49c-1.46 1.48-2.55 3.3-3.41 5.24v.01c-.06.1-.13.17-.22.2.13-1.16.32-2.3.58-3.41.53-1.07 1.18-2.1 1.98-3.01 1.45-1.75 3.31-3.17 5.36-4.17 2.04-1.01 4.21-1.64 6.43-2.09.57-.12 1.11-.2 1.62-.27.53-.06 1.05-.16 1.55-.28.51-.11 1.01-.22 1.51-.37.51-.14 1.01-.28 1.51-.46 3.05-1.02 5.94-2.51 8.74-4.19.61-.37 1.23-.74 1.83-1.13.24-.15.49-.31.73-.46l2.73-1.78.7-.45c.22-.15.33-.22.48-.35.27-.25.49-.57.64-.94.32-.73.37-1.64.16-2.49-.14-.59-.48-1.26-.82-2.01.87.09 1.72.24 2.57.41.14.33.27.67.38 1.05.3 1.24.28 2.6-.22 3.87z"/><path d="m63.91 31.53c-.06-.04-.12-.09-.16-.17l-.02-.03c-1.05-1.68-2.09-3.36-3.38-4.83-1.25-1.46-2.68-2.81-4.36-3.52-.82-.4-1.73-.48-2.62-.53-.89.07-1.8.2-2.67.56-1.5.54-2.94 1.36-4.36 2.24-.25.17-.52.33-.77.5l-.07.04c-.22.13-.45.27-.69.43-.53.37-1.08.81-1.56 1.26-.72.65-1.36 1.39-1.98 2.15-1.19 1.54-2.2 3.25-2.94 5.06-.73 1.82-1.34 3.7-1.66 5.66-.23.96-.29 1.96-.42 2.94l-.37 3.08c-.58 4.12-1.6 8.26-3.51 12.08-.91 1.87-2.06 3.62-3.43 5.24-1.06-.08-2.1-.24-3.13-.44.04-.03.07-.06.12-.11.35-.32.69-.65.99-1.02 1.28-1.42 2.4-3.02 3.27-4.77 1.83-3.47 2.86-7.36 3.5-11.29l.41-2.99c.16-1.04.24-2.09.5-3.12.38-2.07 1.08-4.09 1.9-6.04.83-1.95 1.96-3.77 3.31-5.44.68-.82 1.4-1.61 2.22-2.32.57-.51 1.13-.97 1.77-1.39.29-.19.58-.37.9-.55.22-.14.44-.27.67-.4 1.5-.9 3.04-1.77 4.79-2.36 1-.38 2.1-.55 3.21-.59 1.11.05 2.25.21 3.23.71 2.03.91 3.56 2.43 4.87 4.01.87 1.03 1.61 2.13 2.3 3.25.08.88.13 1.79.14 2.7z"/><path d="m55.67 10.63c-1-.08-2.11.09-3.19.35-1.34.31-2.66.83-3.97 1.36-2.61 1.12-5.12 2.53-7.56 4.05-.3.19-.59.38-.89.58-.54.34-1.07.69-1.6 1.05-3.97 2.67-7.73 5.64-11.32 8.81-4.32 3.84-8.41 7.95-11.99 12.43-1.8 2.24-3.45 4.57-4.86 7.02-1.14 2-2.13 4.11-2.69 6.23-.75-.86-1.43-1.77-2.07-2.71.65-1.72 1.49-3.33 2.39-4.88 1.53-2.6 3.3-5.02 5.17-7.31 3.76-4.6 7.98-8.76 12.42-12.63 3.6-3.11 7.37-6.04 11.36-8.67.54-.37 1.09-.73 1.64-1.06.41-.27.82-.54 1.25-.79 2.52-1.54 5.13-2.97 7.91-4.13 1.4-.55 2.82-1.1 4.34-1.42.54-.12 1.08-.22 1.65-.28.69.61 1.36 1.29 2.01 2z"/><path d="m54.79 54.29c-.87.88-1.77 1.71-2.74 2.48 1.36-2.29 1.82-5.1 1.62-7.86-.17-3-.9-6-1.89-8.88-1.69-4.87-4.11-9.48-6.98-13.79-.33-.5-.65-.98-1-1.46-.21-.32-.44-.63-.67-.95-1.45-2.01-3-3.95-4.67-5.8-.52-.58-1.06-1.16-1.61-1.72-1.66-1.71-3.42-3.31-5.28-4.77-.38-.31-.77-.61-1.17-.91-.27-.2-.55-.4-.82-.59-2.22-1.56-4.58-2.9-7.08-3.8s-5.15-1.36-7.72-1.04c1.18-.77 2.42-1.45 3.71-2.04 1.63.2 3.22.62 4.72 1.18 2.98 1.11 5.69 2.73 8.2 4.57.06.05.12.09.18.14.59.44 1.17.91 1.73 1.38 1.83 1.5 3.55 3.11 5.18 4.82.53.57 1.06 1.14 1.56 1.73 1.63 1.84 3.15 3.78 4.57 5.79.25.35.5.71.73 1.06.34.47.67.96.97 1.44 2.92 4.44 5.36 9.17 7.06 14.21 1.01 3 1.75 6.12 1.92 9.35.11 1.79-.02 3.67-.52 5.46z"/></g></g></svg>