<svg id="Layer_1" enable-background="new 0 0 64 64" viewBox="0 0 64 64" xmlns="http://www.w3.org/2000/svg"><g><path d="m.08 10.84h63.84v42.31h-63.84z" fill="#e5e5e5"/><path d="m.08 10.84v42.31h63.84v-42.31zm62.77 41.3h-61.7v-40.28h61.69v40.28z" fill="#eff3f5"/><path d="m3.62 14.37h56.76v35.25h-56.76z" fill="#5aba3a"/><g><g><path d="m8.45 37.9h-4.83v-.96h3.86v-9.88h-3.86v-.96h4.83z" fill="#fdfefe"/></g><g><path d="m60.38 37.9h-4.83v-11.8h4.83v.96h-3.86v9.88h3.86z" fill="#fdfefe"/></g></g><g><g><path d="m15.19 43.69h-11.57v-.96h10.61v-21.46h-10.61v-.96h11.57z" fill="#fdfefe"/></g><g><path d="m60.38 43.69h-11.57v-23.38h11.57v.96h-10.61v21.46h10.61z" fill="#fdfefe"/></g></g><g><path d="m31.52 14.37h.97v35.25h-.97z" fill="#fdfefe"/></g><g><path d="m32 38.76c-3.74 0-6.78-3.03-6.78-6.76s3.04-6.76 6.78-6.76 6.78 3.03 6.78 6.76-3.04 6.76-6.78 6.76zm0-12.56c-3.21 0-5.81 2.6-5.81 5.8s2.61 5.8 5.81 5.8c3.21 0 5.81-2.6 5.81-5.8s-2.6-5.8-5.81-5.8z" fill="#fdfefe"/></g><g><g><path d="m5.62 14.37c0 1.1-.9 2.01-2 2.01v.97c1.63 0 2.97-1.33 2.97-2.97h-.97z" fill="#fdfefe"/></g><g><path d="m3.62 46.66v.96c1.1 0 2 .9 2 2h.97c0-1.63-1.34-2.96-2.97-2.96z" fill="#fdfefe"/></g><g><path d="m57.41 49.63h.97c0-1.1.9-2 2-2v-.96c-1.63-.01-2.97 1.32-2.97 2.96z" fill="#fdfefe"/></g><g><path d="m58.38 14.37h-.97c0 1.64 1.33 2.97 2.97 2.97v-.97c-1.1.01-2-.89-2-2z" fill="#fdfefe"/></g></g></g></svg>