<svg id="Layer_1" enable-background="new 0 0 64 64" viewBox="0 0 64 64" xmlns="http://www.w3.org/2000/svg"><g><g><path d="m6.33 43.15c-.14 2.48-.43 4.62-2.37 5.07-4.08.94-4.72 3.26-2.97 6.55h52.06v-7.18c-2.46-.02-5.38-1.21-6.8-2.63l-11.23-.39c-.7 2.89-3.38 5.75-9.34 4.39-3.24.32-6.85-1.68-6.81-5.81z" fill="#687d87"/><g><path d="m49.74 52.81c0 3.52 2.86 6.37 6.39 6.37s6.39-2.85 6.39-6.37-2.86-6.37-6.39-6.37-6.39 2.85-6.39 6.37z" fill="#435b6f"/><path d="m53.61 52.81c0 1.38 1.12 2.5 2.51 2.5s2.51-1.12 2.51-2.5-1.12-2.5-2.51-2.5c-1.38 0-2.51 1.12-2.51 2.5z" fill="#e5e5e5"/><g fill="#333842"><path d="m55.32 48.96c0 .44.36.8.8.8s.8-.36.8-.8-.36-.8-.8-.8-.8.36-.8.8z"/><path d="m58.28 49.52c-.31.31-.31.82 0 1.14.31.31.82.31 1.14 0 .31-.31.31-.82 0-1.14-.32-.31-.83-.31-1.14 0z"/><path d="m59.98 52.01c-.44 0-.8.36-.8.8s.36.8.8.8.8-.36.8-.8-.36-.8-.8-.8z"/><ellipse cx="58.85" cy="55.53" rx=".8" ry=".8"/><path d="m56.93 56.65c0-.44-.36-.8-.8-.8s-.8.36-.8.8.36.8.8.8c.44.01.8-.35.8-.8z"/><path d="m53.97 56.1c.31-.31.31-.82 0-1.14-.31-.31-.82-.31-1.14 0-.31.31-.31.82 0 1.14.31.31.82.31 1.14 0z"/><path d="m52.27 53.61c.44 0 .8-.36.8-.8s-.36-.8-.8-.8-.8.36-.8.8c-.01.44.35.8.8.8z"/><path d="m52.83 50.66c.31.31.82.31 1.14 0 .31-.31.31-.82 0-1.14-.31-.31-.82-.31-1.14 0-.32.32-.32.82 0 1.14z"/></g></g><g><path d="m34.15 52.81c0 3.52 2.86 6.37 6.39 6.37s6.39-2.85 6.39-6.37-2.86-6.37-6.39-6.37-6.39 2.85-6.39 6.37z" fill="#435b6f"/><path d="m38.03 52.81c0 1.38 1.12 2.5 2.51 2.5s2.51-1.12 2.51-2.5-1.12-2.5-2.51-2.5-2.51 1.12-2.51 2.5z" fill="#e5e5e5"/><g fill="#333842"><ellipse cx="40.53" cy="48.96" rx=".8" ry=".8"/><path d="m42.69 49.52c-.31.31-.31.82 0 1.14.31.31.82.31 1.14 0 .31-.31.31-.82 0-1.14-.31-.31-.82-.31-1.14 0z"/><path d="m44.39 52.01c-.44 0-.8.36-.8.8s.36.8.8.8.8-.36.8-.8-.36-.8-.8-.8z"/><circle cx="43.26" cy="55.53" r=".8"/><path d="m41.34 56.65c0-.44-.36-.8-.8-.8s-.8.36-.8.8.36.8.8.8c.44.01.8-.35.8-.8z"/><path d="m38.38 56.1c.31-.31.31-.82 0-1.14-.31-.31-.82-.31-1.14 0-.31.31-.31.82 0 1.14.31.31.82.31 1.14 0z"/><path d="m36.68 53.61c.44 0 .8-.36.8-.8s-.36-.8-.8-.8-.8.36-.8.8.36.8.8.8z"/><path d="m37.24 50.66c.31.31.82.31 1.14 0 .31-.31.31-.82 0-1.14-.31-.31-.82-.31-1.14 0-.31.32-.31.82 0 1.14z"/></g></g><g><path d="m18.56 52.81c0 3.52 2.86 6.37 6.39 6.37s6.39-2.85 6.39-6.37-2.86-6.37-6.39-6.37-6.39 2.85-6.39 6.37z" fill="#435b6f"/><path d="m22.44 52.81c0 1.38 1.12 2.5 2.51 2.5s2.51-1.12 2.51-2.5-1.12-2.5-2.51-2.5-2.51 1.12-2.51 2.5z" fill="#e5e5e5"/><g fill="#333842"><path d="m24.14 48.96c0 .44.36.8.8.8s.8-.36.8-.8-.36-.8-.8-.8-.8.36-.8.8z"/><path d="m27.1 49.52c-.31.31-.31.82 0 1.14.31.31.82.31 1.14 0 .31-.31.31-.82 0-1.14-.31-.31-.82-.31-1.14 0z"/><path d="m28.8 52.01c-.44 0-.8.36-.8.8s.36.8.8.8.8-.36.8-.8c.01-.44-.35-.8-.8-.8z"/><ellipse cx="27.67" cy="55.53" rx=".8" ry=".8"/><path d="m25.75 56.65c0-.44-.36-.8-.8-.8s-.8.36-.8.8.36.8.8.8c.44.01.8-.35.8-.8z"/><ellipse cx="22.22" cy="55.53" rx=".8" ry=".8"/><path d="m21.09 53.61c.44 0 .8-.36.8-.8s-.36-.8-.8-.8-.8.36-.8.8.36.8.8.8z"/><path d="m21.65 50.66c.31.31.82.31 1.14 0 .31-.31.31-.82 0-1.14-.31-.31-.82-.31-1.14 0-.31.32-.31.82 0 1.14z"/></g></g><g><path d="m2.97 52.81c0 3.52 2.86 6.37 6.39 6.37s6.39-2.85 6.39-6.37-2.86-6.37-6.39-6.37-6.39 2.85-6.39 6.37z" fill="#435b6f"/><path d="m6.85 52.81c0 1.38 1.12 2.5 2.51 2.5s2.51-1.12 2.51-2.5-1.12-2.5-2.51-2.5-2.51 1.12-2.51 2.5z" fill="#e5e5e5"/><g fill="#333842"><ellipse cx="9.36" cy="48.96" rx=".8" ry=".8"/><path d="m11.52 49.52c-.31.31-.31.82 0 1.14.31.31.82.31 1.14 0 .31-.31.31-.82 0-1.14-.32-.31-.83-.31-1.14 0z"/><path d="m13.21 52.01c-.44 0-.8.36-.8.8s.36.8.8.8.8-.36.8-.8c.01-.44-.35-.8-.8-.8z"/><path d="m12.65 54.96c-.31-.31-.82-.31-1.14 0-.31.31-.31.82 0 1.14.31.31.82.31 1.14 0 .32-.32.32-.83 0-1.14z"/><path d="m10.16 56.65c0-.44-.36-.8-.8-.8s-.8.36-.8.8.36.8.8.8.8-.35.8-.8z"/><path d="m7.2 56.1c.31-.31.31-.82 0-1.14-.31-.31-.82-.31-1.14 0-.31.31-.31.82 0 1.14.32.31.83.31 1.14 0z"/><path d="m5.51 53.61c.44 0 .8-.36.8-.8s-.36-.8-.8-.8-.8.36-.8.8c-.01.44.35.8.8.8z"/><path d="m6.07 50.66c.31.31.82.31 1.14 0 .31-.31.31-.82 0-1.14-.31-.31-.82-.31-1.14 0-.32.32-.32.82 0 1.14z"/></g></g></g><g><path d="m63.41 36.89c.03.18.04.49.03.79-.01.44-.2.87-.5 1.2-6.14 6.74-11.59 8.01-19.71 7.13-4.45-.59-7.58.12-14.17-.83-3.41-.49-8.36-.38-12.9.08-14.42 2.42-17.84-1.65-15.32-9.03l28.08 1.2 25.72-.31z" fill="#324a5e"/><path d="m63.41 36.88c-4.78 3.84-10.78 5.27-17.97 4.41-.1-.01-.19-.02-.29-.03-3.77-.63-7.67-.89-11.66-.89-2.16.02-4.38-.31-6.84-.64-4.72-1.14-7.48-1.62-11.65-1.88-4.02 0-8.48-.6-13.89-1.56-.04-2.26-.09-4.69-.12-7.18-.12-8.12-.08-16.95.91-22.58.35-1.36 1.57-1.57 3.42-.93 6.19 1.56 12.17 1.5 17.93-.62 1.54-.36 2.73-.17 3.22 1.08.9 7.33 3.18 15.05 7.23 17.11 5.3 3.37 10.52 6.65 14.06 8.14 2.67.55 5.72.74 9.28.43.04 0 .08-.01.12-.01 5.62-.4 7.86 1.23 6.25 5.15z" fill="#687d87"/><path d="m53.7 34.4c-3.66.66-6.3 2.58-8.25 6.9-.1-.01-.19-.02-.29-.03-3.77-.63-7.67-.89-11.66-.89-2.16.02-4.38-.31-6.84-.64-4.72-1.14-7.48-1.62-11.65-1.88-4.02 0-8.48-.6-13.89-1.56-.04-2.26-.09-4.69-.12-7.18l10.8 3.57c3.32 1.43 7.07.88 11.3-1.86 3.7-2.51 7.95-2.75 12.85-.31 6.17 2.84 11.51 4.72 11.83.8 2.67.55 5.72.74 9.28.43.04 0 .08-.01.12-.01.87.64.41 2.14-3.48 2.66z" fill="#f5776a"/><g><g><path d="m43.26 31.22c-.08 0-.16-.02-.23-.07-.19-.13-.24-.38-.12-.57l1.18-1.8c.13-.19.38-.24.57-.12.19.13.24.38.12.57l-1.18 1.8c-.07.12-.21.19-.34.19z" fill="#eff3f5"/></g><g><path d="m40.71 29.83c-.08 0-.16-.02-.23-.07-.19-.13-.24-.38-.12-.57l1.18-1.8c.13-.19.38-.24.57-.12.19.13.24.38.12.57l-1.18 1.8c-.07.13-.2.19-.34.19z" fill="#eff3f5"/></g><g><path d="m38.17 28.45c-.08 0-.16-.02-.23-.07-.19-.13-.24-.38-.12-.57l1.18-1.8c.13-.19.38-.24.57-.12.19.13.24.38.12.57l-1.18 1.8c-.08.13-.21.19-.34.19z" fill="#eff3f5"/></g><g><path d="m35.76 26.91c-.08 0-.16-.02-.23-.07-.19-.13-.24-.38-.12-.57l1.18-1.8c.13-.19.38-.24.57-.12.19.13.24.38.12.57l-1.18 1.8c-.07.12-.2.19-.34.19z" fill="#eff3f5"/></g><g><path d="m33.37 25.39c-.08 0-.16-.02-.23-.07-.19-.13-.24-.38-.12-.57l1.18-1.8c.13-.19.38-.24.57-.12.19.13.24.38.12.57l-1.18 1.8c-.08.13-.21.19-.34.19z" fill="#eff3f5"/></g><g><path d="m31.03 23.8c-.08 0-.16-.02-.23-.07-.19-.13-.24-.38-.12-.57l1.18-1.8c.13-.19.38-.24.57-.12.19.13.24.38.12.57l-1.18 1.8c-.07.12-.2.19-.34.19z" fill="#eff3f5"/></g></g></g></g></svg>