<svg id="Layer_1" enable-background="new 0 0 64 64" viewBox="0 0 64 64" xmlns="http://www.w3.org/2000/svg"><g><path d="m.51 10.94h62.98v4.95h-62.98z" fill="#f0582f"/><path d="m63.49 10.94h-62.98l5.77-6.81h51.44z" fill="#e2431e"/><g><g><g><path d="m11.12 15.89h5.72v15.34h-5.72z" fill="#e5e5e5"/><path d="m12.37 31.23h3.22v15.34h-3.22z" fill="#eff3f5"/></g><g><path d="m13.98 46.19c-4.89 0-8.85 3.95-8.85 8.83s3.96 8.83 8.85 8.83 8.85-3.95 8.85-8.83-3.96-8.83-8.85-8.83zm0 14.44c-3.11 0-5.63-2.51-5.63-5.61s2.52-5.61 5.63-5.61 5.63 2.51 5.63 5.61-2.52 5.61-5.63 5.61z" fill="#687d87"/><g fill="#59b5ac"><path d="m22.83 55.01c0 .14 0 .27-.01.41-.24-4.67-4.1-8.37-8.84-8.37-4.73 0-8.6 3.7-8.84 8.37-.01-.14-.01-.27-.01-.41 0-4.87 3.97-8.82 8.85-8.82 4.89 0 8.85 3.95 8.85 8.82z"/><path d="m19.61 55.88c0 3.1-2.52 5.62-5.63 5.62s-5.63-2.51-5.63-5.62c0-.15.01-.28.02-.43.22 2.9 2.65 5.18 5.61 5.18s5.39-2.29 5.61-5.18c.01.14.02.28.02.43z"/></g></g></g><g><g><path d="m47.16 15.89h5.72v15.34h-5.72z" fill="#e5e5e5"/><path d="m48.41 31.23h3.22v15.34h-3.22z" fill="#eff3f5"/></g><g><path d="m50.02 46.19c-4.89 0-8.85 3.95-8.85 8.83s3.96 8.83 8.85 8.83 8.85-3.95 8.85-8.83-3.96-8.83-8.85-8.83zm0 14.44c-3.11 0-5.63-2.51-5.63-5.61s2.52-5.61 5.63-5.61 5.63 2.51 5.63 5.61-2.52 5.61-5.63 5.61z" fill="#687d87"/><g fill="#59b5ac"><path d="m58.87 55.01c0 .14 0 .27-.01.41-.24-4.67-4.1-8.37-8.84-8.37-4.73 0-8.6 3.7-8.84 8.37-.01-.14-.01-.27-.01-.41 0-4.87 3.97-8.82 8.85-8.82 4.89 0 8.85 3.95 8.85 8.82z"/><path d="m55.65 55.88c0 3.1-2.52 5.62-5.63 5.62s-5.63-2.51-5.63-5.62c0-.15.01-.28.02-.43.22 2.9 2.65 5.18 5.61 5.18s5.39-2.29 5.61-5.18c.01.14.02.28.02.43z"/></g></g></g></g><g fill="#324a5e"><path d="m16.78 4.13h-1.98l-1.34-3.97h4.66z"/><path d="m49.2 4.13h-1.98l-1.34-3.97h4.66z"/></g></g></svg>