<svg id="Layer_1" enable-background="new 0 0 64 64" viewBox="0 0 64 64" xmlns="http://www.w3.org/2000/svg"><g><path d="m63.92 32c0 17.59-14.3 31.84-31.93 31.84-13.17 0-24.48-7.96-29.35-19.33-.3-.69-.57-1.39-.81-2.12-.12-.31-.23-.63-.32-.95-.14-.44-.27-.9-.39-1.36-.08-.27-.13-.54-.19-.81-.56-2.33-.85-4.76-.85-7.27 0-10.9 5.5-20.53 13.87-26.28 1.17-.8 2.4-1.53 3.68-2.16.68-.36 1.37-.67 2.08-.96 3.78-1.58 7.93-2.45 12.28-2.45 17.63.01 31.93 14.27 31.93 31.85z" fill="#fbd303"/><path d="m63.92 32.01c0 17.59-14.29 31.84-31.93 31.84-13.16 0-24.48-7.96-29.35-19.33-.28-.66-.54-1.34-.77-2.03 5.69 8.71 15.54 14.47 26.74 14.47 17.63 0 31.93-14.25 31.93-31.84 0-3.65-.62-7.16-1.76-10.43 3.25 4.99 5.14 10.92 5.14 17.32z" fill="#f8b517" opacity=".7"/><path d="m62.31 32.33c-.04 2.14-.34 4.19-.83 6.07-1.79 5.8-3.92 10.48-9.39 14.5-7.15 4.18-15.24 3.01-23.95-1.75-13.69-7.54-22.6-10.16-25.5-6.63-.3-.69-.57-1.39-.81-2.12-.12-.31-.23-.63-.32-.95-.14-.45-.27-.91-.39-1.37-.08-.27-.13-.54-.19-.81.01-.02.03-.04.05-.06.13-.16.27-.3.41-.44 0 0 .01-.01.02-.02.17-.16.35-.3.53-.43.17-.13.36-.24.55-.35.01-.01.03-.02.04-.02.18-.1.37-.18.55-.26.06-.02.14-.05.21-.08.18-.08.38-.13.57-.18.02 0 .04-.01.06-.01.23-.06.48-.12.73-.15.22-.04.45-.06.69-.09.08-.01.15-.01.22-.01.24-.02.49-.03.74-.03 4.37 0 10.35 2.31 16.39 5.66 11.37 6.52 19.62 12.14 27.96 7.36 1.59-1.04 3-2.3 4.21-3.7.3-.36.6-.71.88-1.08s.55-.74.8-1.13c.21-.29.39-.59.57-.91.67-1.1 1.23-2.25 1.7-3.42.1-.24.19-.47.28-.71.14-.39.27-.78.39-1.18.11-.35.21-.68.29-1.03.03-.1.05-.19.09-.3.06-.27.12-.53.17-.8.05-.22.1-.43.13-.65.05-.23.09-.46.12-.7.03-.16.05-.33.06-.5.05-.29.09-.58.1-.87.02-.15.03-.3.04-.44.03-.31.04-.63.04-.93.01-.08.01-.14.01-.22.05-2.44-.31-4.77-1.1-6.8-3.42-8.12-9.06-12.1-16.04-15.08-8.95-3.56-18.95-4.39-29.44-3.97 1.17-.8 2.4-1.53 3.68-2.16.68-.36 1.37-.67 2.08-.96 15.61-1.22 27.17 2.25 34.81 10.26 5.77 5.61 7.93 12.93 7.79 19.45z" fill="#eff3f5"/><g fill="#dededf"><path d="m60.53 31.58c.19 7.05-3.21 15.22-9.89 19.58-8.33 4.77-16.58-.85-27.96-7.36-9.08-5.03-18.01-7.72-21.57-3.72-.08-.27-.13-.54-.19-.81.01-.02.03-.04.05-.06.13-.16.27-.3.41-.44 0 0 .01-.01.02-.02.17-.16.35-.3.53-.43.17-.13.36-.24.55-.35.01-.01.03-.02.04-.02.18-.1.37-.18.55-.26.06-.02.14-.05.21-.08.18-.08.38-.13.57-.18.02 0 .04-.01.06-.01.23-.06.48-.12.73-.15.22-.04.45-.06.69-.09.08-.01.15-.01.22-.01.24-.02.49-.03.74-.03 4.37 0 10.35 2.31 16.39 5.66 11.37 6.52 19.62 12.14 27.96 7.36 1.59-1.04 3-2.3 4.21-3.7.3-.36.6-.71.88-1.08s.55-.74.8-1.13c.21-.29.39-.59.57-.91.67-1.1 1.23-2.25 1.7-3.42.1-.24.19-.47.28-.71.14-.39.27-.78.39-1.18.11-.33.21-.68.29-1.03.03-.1.05-.19.09-.3.06-.26.12-.53.17-.8.05-.22.1-.43.13-.65.04-.23.09-.46.12-.7.03-.16.05-.33.06-.5.04-.29.08-.58.1-.87.02-.15.03-.3.04-.44.02-.31.04-.63.04-.93.02-.09.02-.15.02-.23z"/><path d="m62.31 32.33c-.09-6.25-2.32-13.12-7.79-18.43-7.6-7.96-21.4-11.49-36.88-10.33.68-.36 1.37-.67 2.08-.96 15.6-1.21 27.16 2.26 34.8 10.27 5.77 5.61 7.93 12.93 7.79 19.45z"/></g></g></svg>