<svg id="Layer_1" enable-background="new 0 0 64 64" viewBox="0 0 64 64" xmlns="http://www.w3.org/2000/svg"><g><g><path d="m52.06 40.73c-3.5 3.49-7.15 5.87-10.88 7.05-2.98.95-6.15.8-9.15-.09-.67-.19-1.32-.42-1.97-.68-.03-.01-.05-.02-.08-.03-.17-.07-.34-.14-.51-.2-.5-.18-1-.33-1.5-.45-.18-.04-.36-.09-.55-.12-.56-.1-1.12-.16-1.68-.16l-.01-.01c-.12 0-.22 0-.35.01-.12 0-.25.01-.38.02-.03-.01-.05 0-.08.01-.1 0-.21.02-.31.03-.11.01-.22.02-.32.03-.3.04-.62.1-.92.19-.27.07-.55.15-.81.26-.27.09-.55.2-.8.34-.01-.01-.02 0-.03.02 0 0 0-.02-.01-.01-.21.09-.42.2-.62.32-.32.17-.65.37-.97.6-.02.02-.03.02-.05.03-3.85 2.71-8.99 8.47-14.46 14.42l-5.53-5.52c.07-.07.15-.13.21-.2 5.85-5.35 11.49-10.38 14.2-14.16.02-.02.03-.05.05-.07.32-.48.6-.94.83-1.41.09-.16.17-.32.24-.49.34-.78.57-1.56.68-2.32.03-.2.06-.42.07-.63.02-.17.03-.34.03-.51.01-.13.01-.25 0-.38 0-.31-.02-.58-.06-.86l-.01-.01c0-.22-.03-.41-.08-.62-.03-.22-.09-.44-.14-.67-.16-.69-.39-1.36-.68-2.05l-.01-.01-.69-1.97-.01-.01c-.89-2.98-1.03-6.15-.09-9.12 1.18-3.72 3.58-7.36 7.08-10.84 9.77-9.74 22.87-12.48 32.85-2.52 10 9.96 7.27 23.04-2.5 32.79z" fill="#c2382e"/><path d="m32.03 47.69c-.67-.19-1.32-.42-1.97-.68-.03-.01-.05-.02-.08-.03-.17-.07-.34-.14-.51-.2-.5-.18-1-.33-1.5-.45-.18-.04-.36-.09-.55-.12-.56-.1-1.12-.16-1.68-.16h-.36c-.13.01-.24.02-.37.03-.03-.01-.05 0-.08.01-.1 0-.21.02-.32.03-.1.02-.21.03-.32.04-.3.04-.62.1-.92.19-.26.08-.54.16-.81.26-.26.09-.53.2-.8.34-.03-.01-.03 0-.04.01-.2.09-.41.2-.62.32-.34.19-.68.39-1.03.63-3.85 2.71-8.99 8.47-14.46 14.42l-5.52-5.53c5.97-5.46 11.74-10.59 14.46-14.42.32-.48.6-.94.83-1.41.09-.16.17-.32.24-.49.34-.78.57-1.56.68-2.32.03-.2.06-.42.07-.63.02-.17.03-.34.03-.51l-.01-.01c.02-.14.01-.25.01-.37l-.01-.01c0-.31-.02-.58-.06-.86l-.01-.01c0-.22-.03-.41-.08-.62-.03-.22-.09-.44-.14-.67-.16-.69-.39-1.36-.68-2.05l-.01-.01-.69-1.97z" fill="#f7cfa2"/><path d="m26.15 41.82-6.08 6.06c-3.85 2.71-8.99 8.47-14.46 14.42l-5.53-5.52.21-.2c5.85-5.35 11.49-10.38 14.2-14.16l6.14-6.12z" fill="#f0ba7a"/><path d="m24.88 40.55-6.08 6.06c-3.59 2.97-8.88 8.59-14.46 14.43l-2.98-2.98.21-.2c5.73-5.46 11.23-10.63 14.19-14.16l6.14-6.12z" fill="#eaa860"/></g><g><path d="m61.68 57.19c-2.98 2.98-7.82 2.98-10.8 0s-2.98-7.8 0-10.78 7.82-2.98 10.8 0c2.99 2.98 2.99 7.8 0 10.78z" fill="#e5e5e5"/><path d="m61.68 57.19c-2.98 2.97-7.82 2.97-10.79 0-1.58-1.58-2.33-3.68-2.22-5.75.29 1.38.98 2.7 2.06 3.77 2.99 2.98 7.82 2.98 10.81 0 1.4-1.39 2.14-3.17 2.22-5 .51 2.44-.18 5.09-2.08 6.98z" fill="#dededf"/></g></g></svg>