<svg id="Layer_1" enable-background="new 0 0 64 64" viewBox="0 0 64 64" xmlns="http://www.w3.org/2000/svg"><g><g><g><path d="m37.39 46.61c-.17-.24-.35-.47-.55-.71-.53-.7-1.11-1.43-1.7-2.16-.31-.38-.63-.76-.96-1.15-.66-.78-1.35-1.57-2.05-2.35-.34-.38-.68-.75-1.03-1.12-.82-.9-1.68-1.8-2.56-2.67-.36-.37-.71-.73-1.08-1.09-.86-.85-1.73-1.68-2.6-2.49l-1.12-1.03c-.79-.71-1.58-1.4-2.37-2.06-.38-.33-.76-.66-1.15-.96-.71-.59-1.44-1.17-2.16-1.71-.24-.18-.48-.36-.71-.53l.51-.9c.04.03.08.06.12.09.2.15.35.26.48.37l.05.04h.01c.76.57 1.51 1.17 2.25 1.78.37.3.75.61 1.12.93.88.74 1.69 1.44 2.45 2.14.37.32.74.66 1.1.99.93.86 1.85 1.74 2.76 2.63.36.35.71.71 1.06 1.07.83.83 1.71 1.75 2.68 2.81.34.36.68.73 1 1.09.73.81 1.45 1.63 2.14 2.45.32.37.63.74.92 1.12.64.77 1.24 1.53 1.8 2.27.15.19.26.34.36.48l.12.16z" fill="#bdbdbe"/></g><g><path d="m29.25 51.12c-.22-.28-.44-.55-.67-.82-.36-.47-.74-.92-1.12-1.36-.36-.45-.72-.88-1.1-1.31-.51-.6-.98-1.14-1.46-1.66-.38-.43-.77-.86-1.17-1.27-.55-.6-1.11-1.19-1.68-1.77-.2-.21-.41-.42-.61-.62-.21-.21-.63-.61-.63-.61-.5-.5-1.01-.99-1.53-1.47-.42-.4-.85-.79-1.28-1.17-.53-.49-1.09-.98-1.65-1.46-.43-.38-.87-.75-1.32-1.11-.45-.37-.9-.74-1.36-1.11-.28-.22-.56-.44-.84-.66l.51-.92c.26.2.51.4.76.61.51.4.99.79 1.48 1.2.44.36.87.72 1.29 1.09.6.51 1.18 1.02 1.75 1.55.43.37.84.75 1.25 1.14.57.53 1.13 1.06 1.69 1.62.21.2.41.4.61.6s.4.41.6.61c.6.61 1.2 1.24 1.8 1.89.38.41.77.83 1.14 1.26.53.56 1.03 1.15 1.54 1.75.36.42.73.84 1.08 1.28.41.48.81.97 1.21 1.47.21.25.41.5.61.76z" fill="#bdbdbe"/></g></g><g><g><g><g><g><path d="m56.97 34.61c-3.23 2.11-6.88 3.82-10.74 5.32-1.58.62-4.33 1.2-8.12 1.76l22.56-16.08c-.06 2.65.25 6.43-3.7 9z" fill="#f1f3f7"/><path d="m60.58 25.17-24.25 16c2.25-3.76 4.07-6.38 5.39-7.71 2.88-2.9 5.88-5.53 9.12-7.63 3.72-2.48 7.08-1.49 9.74-.66z" fill="#e5e5e5"/><path d="m60.66 25.62-22.56 16.07c-.72.1-1.48.21-2.26.31.17-.28.34-.56.49-.83l24.25-16c.03.01.06.02.1.03-.01.14-.01.28-.02.42z" fill="#f1f3f7"/><g><path d="m60.87 25.47-.21.15-22.56 16.07-20.08 13.59-1.18-1.59.03-.03 19.47-12.5 24.25-16 .05-.03c.09-.06.2-.03.27.06.05.1.04.21-.04.28z" fill="#dededf"/></g></g><g><g><path d="m57.97 38.82c-3.37 1.84-6.99 3.38-10.74 4.76-1.53.56-4.03 1.16-7.41 1.79l23.78-13.85c-.74 2.07-1.5 5.06-5.63 7.3z" fill="#f1f3f7"/><path d="m63.6 31.18-25.24 13.85c2.95-3.07 5.22-5.22 6.72-6.33 3.28-2.44 6.59-4.67 9.97-6.51 3.85-2.12 6.48-1.54 8.55-1.01z" fill="#e5e5e5"/><path d="m63.61 31.51-23.78 13.86c-.68.12-1.4.25-2.15.38.23-.25.47-.48.69-.72l25.23-13.85c.04.01.08.02.12.03-.04.1-.08.2-.11.3z" fill="#f1f3f7"/><g><path d="m63.81 31.39-.2.12-23.79 13.86-.99.56-1.25.69-6.89 3.82-1.25.69-8.13 4.51-2.8 1.55-.62-1.28c.01-.01.03-.01.04-.03l2.26-1.2 8.5-4.51 1.27-.68 7-3.71 1.27-.67.15-.08 25.25-13.85.09-.05c.09-.05.19-.03.22.05 0 .07-.04.16-.13.21z" fill="#dededf"/></g></g><g><path d="m53.65 29.7c-3 2.4-6.44 4.42-10.12 6.22-1.63.8-4.77 1.47-8.92 2.34l21.84-18.5c.17 2.78 1 6.89-2.8 9.94z" fill="#f1f3f7"/><path d="m56.17 19.53-22.13 17.92c1.81-3.9 3.3-6.62 4.45-8.06 2.58-3.22 5.31-6.15 8.31-8.56 3.37-2.75 6.69-2 9.37-1.3z" fill="#e5e5e5"/><path d="m56.52 19.82-21.91 18.43c-.45.07-.93.13-1.42.19.18-.45.35-.89.51-1.31l22.5-17.57c.1.04.2.07.3.1 0 .05.02.11.02.16z" fill="#f1f3f7"/><g><path d="m56.59 19.76-.07.06-21.91 18.43-18.29 14.49-1.3-1.51c.01-.01.03-.01.04-.03l18.65-14.08 22.49-17.56.13-.1c.08-.07.2-.05.28.04.07.08.06.2-.02.26z" fill="#dededf"/></g></g></g></g><g><g><path d="m29.38 7.1c-2.12 3.23-3.83 6.86-5.33 10.72-.62 1.57-1.21 4.32-1.77 8.1l16.12-22.51c-2.65.06-6.44-.26-9.02 3.69z" fill="#f1f3f7"/><path d="m38.85 3.49-16.04 24.19c3.77-2.25 6.4-4.06 7.73-5.38 2.91-2.87 5.54-5.87 7.65-9.1 2.48-3.7 1.49-7.05.66-9.71z" fill="#e5e5e5"/><path d="m38.4 3.41-16.12 22.5c-.1.72-.21 1.47-.31 2.26.28-.17.56-.34.83-.49l16.05-24.19c-.01-.03-.02-.06-.03-.1-.14.01-.28.01-.42.02z" fill="#f1f3f7"/><g><path d="m38.55 3.21-.15.2-16.12 22.5-13.61 20.04 1.59 1.18.03-.03 12.53-19.42 16.03-24.19.03-.05c.06-.09.03-.2-.06-.27-.09-.06-.2-.04-.27.04z" fill="#dededf"/></g></g><g><g><path d="m25.16 6.1c-1.84 3.36-3.38 6.97-4.77 10.71-.56 1.52-1.16 4.02-1.79 7.39l13.89-23.73c-2.08.75-5.08 1.5-7.33 5.63z" fill="#f1f3f7"/><path d="m32.83.48-13.89 25.18c3.08-2.94 5.23-5.21 6.35-6.7 2.45-3.27 4.68-6.58 6.52-9.94 2.12-3.85 1.55-6.48 1.02-8.54z" fill="#e5e5e5"/><path d="m32.49.47-13.89 23.72c-.12.68-.25 1.39-.38 2.15.25-.23.49-.46.72-.68l13.89-25.18c-.01-.04-.02-.08-.03-.12-.1.04-.2.08-.31.11z" fill="#f1f3f7"/><g><path d="m8.04 46.08-1.29-.62 1.56-2.82 4.53-8.12.7-1.25 3.82-6.87.69-1.23.54-.98 13.9-23.72.11-.2c.05-.09.15-.13.22-.1s.1.14.05.22l-.05.08-13.88 25.19-.07.12-.66 1.26-3.72 6.98-.67 1.26-4.51 8.45-1.24 2.32c-.02.01-.02.02-.03.03z" fill="#dededf"/></g></g><g><path d="m34.31 10.4c-2.41 2.99-4.43 6.42-6.23 10.1-.8 1.63-1.47 4.76-2.35 8.9l18.55-21.79c-2.79-.16-6.92-1-9.97 2.79z" fill="#f1f3f7"/><path d="m44.5 7.89-17.96 22.08c3.91-1.8 6.64-3.29 8.08-4.44 3.23-2.57 6.17-5.3 8.58-8.29 2.75-3.36 2.01-6.68 1.3-9.35z" fill="#e5e5e5"/><path d="m44.21 7.54-18.48 21.85c-.07.45-.13.93-.19 1.41.45-.18.89-.35 1.31-.51l17.63-22.43c-.04-.1-.07-.2-.1-.3-.06 0-.12-.01-.17-.02z" fill="#f1f3f7"/><g><path d="m44.27 7.47-.06.07-18.48 21.85-14.52 18.25 1.51 1.3c.01-.01.01-.03.03-.04l14.11-18.6 17.62-22.44.11-.13c.07-.08.05-.2-.04-.28-.1-.06-.22-.06-.28.02z" fill="#dededf"/></g></g></g></g></g><g><path d="m49.74 23.4c-2.72 2.72-6 5.04-9.57 7.15-1.6.95-4.64 2.01-8.97 3.16l19.55-21.01c.74 2.96 2.42 7.28-1.01 10.7z" fill="#eff3f5"/><path d="m30.28 32.8c1.16-4.32 2.22-7.35 3.17-8.95 2.11-3.57 4.44-6.83 7.17-9.55 3.08-3.13 6.84-2.47 9.86-1.85z" fill="#e5e5e5"/><path d="m31.26 33.77c-.42.09-.85.18-1.3.27.09-.44.18-.88.27-1.29l20.18-20.36c.08.02.15.03.23.06.02.08.05.15.07.23z" fill="#f1f3f7"/><g><path d="m13.43 48.74.03-.03 16.77-15.97 20.18-20.36.08-.08c.08-.08.2-.07.28 0 .08.08.08.2.02.28l-.08.08-19.45 21.1-16.36 16.32z" fill="#dededf"/></g></g></g><path d="m2.86 61.06c-3.71-3.71-3.71-9.71 0-13.42l2.77-2.76 13.46 13.42-2.77 2.76c-3.72 3.71-9.74 3.71-13.46 0z" fill="#dededf"/><path d="m18.95 58.44c-4.91-4.05-9.39-8.52-13.45-13.42l2.61-2.61c2.82 3.11 9.87 10.63 13.45 13.42z" fill="#333842"/></g></g></svg>