<svg id="Layer_1" enable-background="new 0 0 64 64" viewBox="0 0 64 64" xmlns="http://www.w3.org/2000/svg"><g><g><g><path d="m54.56 31.04 1.73-1.72.01.01c.17.17.44.17.6 0 .17-.17.17-.43 0-.6l-.01-.01 4.37-4.35c.17-.17.17-.43 0-.6l-2.03-2.02 1.73-1.75.29.29c.17.17.44.17.6 0 .17-.17.17-.43 0-.6l-.29-.29 2.03-2.02c.17-.17.17-.43 0-.6l-2.04-2.03.88-.88c.17-.17.17-.43 0-.6s-.44-.17-.6 0l-.88.88-1.73-1.72 2.31-2.31c.17-.17.17-.43 0-.6s-.44-.17-.6 0l-2.31 2.31-1.73-1.73 2.97-2.97c.17-.17.17-.43 0-.6s-.44-.17-.6 0l-2.97 2.97-1.73-1.72 2.97-2.97c.17-.17.17-.43 0-.6s-.44-.17-.6 0l-2.97 2.97-1.73-1.73 2.31-2.31c.17-.17.17-.43 0-.6s-.44-.17-.6 0l-2.31 2.31-1.73-1.72.87-.87c.17-.17.17-.43 0-.6s-.44-.17-.6 0l-.87.87-2.04-2.03c-.17-.17-.44-.17-.6 0l-2.04 2-.28-.28c-.17-.17-.44-.17-.6 0-.17.17-.17.43 0 .6l.28.28-1.73 1.73-2.03-2.02c-.17-.17-.44-.17-.6 0l-4.37 4.35c-.17-.17-.44-.17-.6 0-.17.17-.17.43 0 .6l-1.73 1.73c-.17-.16-.43-.16-.6 0-.16.16-.16.43 0 .59l-4.37 4.36c-.17.17-.17.43 0 .6l2.03 2.02-1.73 1.73-.28-.28c-.17-.17-.44-.17-.6 0-.17.17-.17.43 0 .6l.28.28-2.03 2.02c-.17.17-.17.43 0 .6l2.04 2.03-.87.87c-.17.17-.17.43 0 .6s.44.17.6 0l.87-.87 1.73 1.72-2.32 2.31c-.17.17-.17.43 0 .6s.44.17.6 0l2.32-2.31 1.73 1.73-2.97 2.97c-.17.17-.17.43 0 .6s.44.17.6 0l2.97-2.97 1.73 1.72-2.98 2.97c-.17.17-.17.43 0 .6s.44.17.6 0l2.98-2.97 1.73 1.73-2.32 2.31c-.17.17-.17.43 0 .6s.44.17.6 0l2.32-2.31 1.73 1.72-.88.88c-.17.17-.17.43 0 .6s.44.17.6 0l.88-.88 2.04 2.03c.17.17.44.17.6 0l2.03-2.02.28.28c.17.17.44.17.6 0 .17-.17.17-.43 0-.6l-.28-.28 1.73-1.73 2.03 2.02c.17.17.44.17.6 0l4.37-4.35c.17.17.44.17.6 0 .17-.14.17-.41.01-.57zm-.6-.61-1.73-1.72 1.73-1.72 1.73 1.72zm-21-19.74 1.73 1.72-1.73 1.73-1.73-1.72zm2.33 2.33 1.73 1.73-1.73 1.73-1.73-1.73zm7.6 6.38 1.73-1.72 1.73 1.72-1.73 1.72zm1.13 2.33-1.73 1.73-1.73-1.72 1.73-1.74zm-1.73-2.93-1.73-1.73 1.73-1.72 1.73 1.73zm2.93-1.72 1.73-1.73 1.73 1.72-1.73 1.73zm1.73 2.92 1.73 1.73-1.73 1.72-1.73-1.73zm.6-.6 1.73-1.73 1.73 1.73-1.73 1.73zm2.34-2.33 1.73-1.72 1.73 1.73-1.73 1.72zm-.6-.6-1.73-1.72 1.73-1.72 1.73 1.72zm-2.33-2.33-1.73-1.73 1.73-1.72 1.73 1.73zm-.6.61-1.73 1.73-1.73-1.73 1.73-1.73zm-4.07-.61-1.73-1.72 1.73-1.73 1.73 1.72zm-.61.61-1.73 1.72-1.73-1.72 1.73-1.72zm-2.33 2.32-1.73 1.73-1.73-1.72 1.73-1.73zm.61.6 1.73 1.73-1.73 1.73-1.73-1.73zm-.61 4.06-1.73 1.72-1.73-1.73 1.73-1.72zm.61.6 1.73 1.72-1.73 1.72-1.73-1.72zm2.33 2.33 1.73 1.73-1.73 1.72-1.73-1.73zm.6-.6 1.73-1.73 1.73 1.73-1.73 1.73zm4.07.6 1.73 1.72-1.73 1.73-1.73-1.72zm.6-.6 1.73-1.72 1.73 1.72-1.73 1.72zm2.33-2.33 1.74-1.73 1.73 1.72-1.73 1.73zm4.07.6 1.73 1.73-1.73 1.73-1.73-1.73zm.6-.6 1.73-1.73 1.73 1.73-1.73 1.72zm-.6-.61-1.73-1.72 1.73-1.72 1.73 1.72zm.6-4.04 1.73-1.73 1.73 1.72-1.73 1.73zm-.6-.6-1.73-1.73 1.73-1.73 1.73 1.73zm-2.34-2.34-1.73-1.72 1.73-1.73 1.73 1.72zm-2.33-2.32-1.73-1.73 1.73-1.73 1.73 1.73zm-2.34-2.33-1.73-1.72 1.73-1.73 1.73 1.72zm-.6.6-1.73 1.72-1.73-1.72 1.73-1.72zm-4.06-.6-1.73-1.73 1.73-1.72 1.73 1.73zm-.6.6-1.73 1.73-1.73-1.73 1.73-1.73zm-2.34 2.33-1.73 1.72-1.73-1.73 1.73-1.72zm-4.66 4.66-1.73 1.72-1.73-1.73 1.73-1.72zm.6.6 1.73 1.72-1.73 1.72-1.73-1.72zm-.6 4.05-1.73 1.73-1.73-1.72 1.73-1.74zm.6.6 1.73 1.73-1.73 1.73-1.73-1.73zm2.34 2.33 1.73 1.72-1.73 1.73-1.73-1.72zm2.33 2.32 1.73 1.73-1.73 1.73-1.73-1.73zm2.33 2.33 1.73 1.72-1.73 1.73-1.73-1.72zm.6-.6 1.73-1.72 1.73 1.72-1.73 1.72zm4.06.6 1.73 1.73-1.73 1.72-1.73-1.73zm.6-.6 1.73-1.73 1.73 1.73-1.73 1.73zm2.34-2.33 1.73-1.72 1.73 1.73-1.73 1.72zm4.67.01 1.73-1.73 1.73 1.72-1.73 1.73zm5.79-2.33-1.73 1.72-1.73-1.72 1.73-1.72zm-1.73-2.93-1.73-1.73 1.73-1.73 1.73 1.73zm4.07-4.05-1.73 1.72-1.73-1.73 1.73-1.72zm-2.34-2.33-1.73 1.72-1.73-1.72 1.73-1.72zm-2.33-2.33-1.73 1.72-1.73-1.73 1.73-1.72zm-2.34-2.33-1.73 1.72-1.73-1.72 1.73-1.72zm-2.33-2.32-1.73 1.72-1.73-1.73 1.73-1.72zm-2.33-2.34-1.73 1.72-1.73-1.72 1.73-1.72zm-4.07-4.05 1.73 1.73-1.73 1.72-1.73-1.73zm-2.33 2.33 1.73 1.73-1.73 1.73-1.73-1.73zm-4.66 3.45-1.73-1.72 1.73-1.72 1.73 1.72zm-2.33-1.12 1.73 1.72-1.73 1.73-1.73-1.72zm-.61 4.05-1.73 1.72-1.73-1.72 1.73-1.72zm-8.13 4.66 1.73-1.72 1.73 1.72-1.73 1.72zm1.73 2.92 1.73 1.73-1.73 1.73-1.73-1.73zm-4.06 4.06 1.73-1.73 1.73 1.73-1.73 1.72zm2.33 2.33 1.73-1.72 1.73 1.72-1.73 1.72zm2.33 2.32 1.73-1.72 1.73 1.73-1.73 1.72zm2.34 2.33 1.73-1.72 1.73 1.72-1.73 1.72zm2.33 2.33 1.73-1.72 1.73 1.73-1.73 1.72zm2.34 2.33 1.73-1.72 1.73 1.72-1.73 1.72zm4.06 4.05-1.73-1.73 1.73-1.72 1.73 1.73zm2.33-2.32-1.73-1.73 1.73-1.73 1.73 1.73zm4.67-3.46 1.73 1.72-1.73 1.72-1.73-1.72zm2.33 1.13-1.73-1.72 1.73-1.73 1.73 1.72z" fill="#c6c1c1"/><g><path d="m29.56 34.43c-.49-.48-.9-.96-1.26-1.45-.76-1-1.41-2.14-1.89-3.37-.53-1.35-.86-2.77-1-4.23-.1-.82-.12-1.73-.06-2.66.04-.87.15-1.8.33-2.72.1-.56.23-1.11.39-1.65.32-1.21.78-2.45 1.35-3.66.47-1.02 1.05-2.07 1.73-3.09.05-.1.11-.19.18-.27.6-.89 1.29-1.79 2.05-2.66.35-.4.74-.83 1.2-1.28.42-.42.85-.82 1.28-1.2.91-.79 1.78-1.46 2.68-2.05.07-.05.13-.09.19-.13 1-.66 2.06-1.26 3.18-1.77 1.21-.56 2.45-1.02 3.69-1.35.47-.13.98-.25 1.65-.38.94-.18 1.87-.29 2.76-.32.89-.05 1.79-.02 2.65.07 1.48.14 2.9.48 4.22 1 1.21.47 2.36 1.11 3.4 1.9.93.67 1.97 1.71 2.67 2.68.75.97 1.4 2.12 1.88 3.38.52 1.31.86 2.73 1 4.2.1.84.12 1.75.06 2.68-.03.85-.14 1.75-.32 2.71-.1.56-.23 1.13-.38 1.67-.33 1.21-.79 2.45-1.35 3.66-.53 1.12-1.13 2.2-1.8 3.2-.01.02-.03.05-.05.07-.63.94-1.34 1.87-2.11 2.75-.38.44-.79.86-1.21 1.28-.46.45-.88.85-1.31 1.21-.85.76-1.79 1.47-2.76 2.11-.03.02-.07.04-.1.06-1.04.69-2.11 1.29-3.17 1.77-1.19.56-2.43 1.02-3.68 1.35-.56.16-1.11.29-1.67.39-.93.18-1.83.29-2.72.32-.89.05-1.81.03-2.68-.07-1.44-.13-2.87-.47-4.21-1-1.24-.49-2.39-1.13-3.4-1.9-.46-.37-.94-.79-1.41-1.25zm2.56-21.14c-.02.03-.04.06-.06.09-.61.91-1.12 1.83-1.54 2.74-.49 1.04-.88 2.09-1.16 3.14-.13.46-.23.89-.32 1.36-.15.79-.24 1.55-.28 2.28-.04.76-.03 1.47.05 2.13.11 1.19.37 2.3.78 3.34.37.93.85 1.8 1.45 2.57.54.74 1.28 1.47 1.99 2 .77.59 1.64 1.07 2.6 1.45 1.04.41 2.15.67 3.3.78.72.08 1.43.1 2.17.06.75-.03 1.48-.11 2.26-.27.47-.08.91-.19 1.38-.32 1.08-.29 2.13-.67 3.15-1.16.94-.43 1.86-.94 2.77-1.55.04-.02.07-.05.11-.07.82-.54 1.61-1.15 2.35-1.81.38-.32.74-.66 1.13-1.05.37-.36.72-.74 1.05-1.12.67-.77 1.3-1.59 1.85-2.42.02-.02.03-.04.05-.07.57-.86 1.08-1.77 1.53-2.73.48-1.03.87-2.09 1.16-3.13.13-.44.23-.9.31-1.37.16-.81.24-1.54.27-2.25.04-.77.03-1.48-.05-2.16-.11-1.19-.38-2.29-.79-3.32-.37-.97-.86-1.83-1.44-2.58-.56-.76-1.3-1.49-1.99-1.99-.81-.62-1.68-1.1-2.61-1.46-1-.4-2.11-.66-3.29-.77-.7-.08-1.42-.09-2.16-.05-.74.03-1.49.12-2.26.27-.57.11-.99.2-1.37.31-1.07.29-2.13.68-3.16 1.16-.97.45-1.9.97-2.76 1.54-.03.02-.06.04-.09.06-.79.52-1.57 1.12-2.39 1.82-.37.32-.74.68-1.11 1.04-.39.39-.73.75-1.04 1.11-.7.79-1.31 1.59-1.83 2.38-.01.01-.01.01-.01.02z" fill="#506c72"/></g></g><g><path d="m39.49 36.53c-.19-.84-1.02-1.36-1.86-1.18-.37.08-7.35 1.68-14.04 5.04 3.37-6.67 4.97-13.63 5.05-14 .19-.84-.34-1.67-1.18-1.86s-1.67.34-1.86 1.17c-.02.11-2.56 11.13-7.78 18.24l2.21 2.2c7.14-5.21 18.18-7.74 18.29-7.76.83-.18 1.36-1.02 1.17-1.85z" fill="#506c72"/></g><g><path d="m5.35 63.6c-.63.63-2.27.02-3.65-1.36-1.39-1.39-2-3.02-1.37-3.65.18-.18.46-.25.79-.23.45.03.88-.16 1.2-.48l.16-.16c.11-.11.23-.23.36-.37l2.61-2.6c.7-.7 1.46-1.47 2.24-2.25l5.22-5.21c.12-.13.24-.25.36-.36.87-.87 1.63-1.64 2.24-2.24l.36-.36c.62-.62.99-.99.99-.99.61-.6 1.59-.61 2.2 0l1.58 1.57c.61.6.61 1.59 0 2.2 0 0-.86.86-2.17 2.17l-.28.27c-.69.69-1.48 1.48-2.34 2.32l-2.88 2.88c-.79.79-1.58 1.57-2.34 2.32-.09.1-.18.19-.28.27l-2.33 2.33c-.09.09-.19.19-.28.27-.7.71-1.28 1.28-1.69 1.68-.24.24-.4.53-.46.85-.02.11-.03.23-.02.34.01.08 0 .15-.01.23.01.23-.08.42-.21.56z" fill="#e2431e"/><g><g><path d="m18.47 49.27-.28.27c-1.58-1.89-2.52-3.62-2.69-4.86l.36-.36c.01 1.06.81 2.8 2.61 4.95z" fill="#c2382e"/></g><g><path d="m15.86 51.87-.28.27c-1.58-1.88-2.51-3.61-2.68-4.85.12-.13.24-.25.36-.36.01 1.05.8 2.79 2.6 4.94z" fill="#c2382e"/></g><g><path d="m13.25 54.47-.28.27c-1.58-1.88-2.51-3.61-2.68-4.84l.36-.36c.01 1.04.81 2.79 2.6 4.93z" fill="#c2382e"/></g><g><path d="m10.64 57.06c-.09.1-.18.19-.28.27-1.58-1.88-2.51-3.6-2.68-4.84l.36-.36c.02 1.05.81 2.79 2.6 4.93z" fill="#c2382e"/></g><g><path d="m8.03 59.66c-.09.09-.19.19-.28.27-1.57-1.87-2.5-3.59-2.67-4.82l.36-.36c.02 1.05.81 2.79 2.59 4.91z" fill="#c2382e"/></g><g><path d="m2.47 57.72c.12-.12.24-.24.36-.37.02 1.08.86 2.9 2.77 5.12-.02.11-.03.23-.02.34.01.08 0 .15-.01.23-1.82-2.06-2.91-3.98-3.1-5.32z" fill="#c2382e"/></g></g></g></g><g><path d="m63.45 50.03c0 3.95-3.21 7.15-7.17 7.15-2.96 0-5.49-1.79-6.59-4.34-.07-.16-.13-.31-.18-.47-.03-.07-.05-.14-.07-.21-.03-.1-.06-.2-.09-.31-.02-.06-.03-.12-.04-.18-.12-.52-.19-1.07-.19-1.63 0-2.45 1.23-4.61 3.11-5.9.26-.18.54-.34.83-.48.15-.08.31-.15.47-.22.85-.35 1.78-.55 2.76-.55 3.95-.01 7.16 3.19 7.16 7.14z" fill="#fbd303"/><path d="m63.45 50.03c0 3.95-3.21 7.15-7.17 7.15-2.95 0-5.49-1.79-6.59-4.34-.06-.15-.12-.3-.17-.46 1.28 1.96 3.49 3.25 6 3.25 3.96 0 7.17-3.2 7.17-7.15 0-.82-.14-1.61-.4-2.34.74 1.12 1.16 2.45 1.16 3.89z" fill="#f8b517" opacity=".7"/><path d="m63.09 50.1c-.01.48-.08.94-.19 1.36-.4 1.3-.88 2.35-2.11 3.25-1.61.94-3.42.68-5.38-.39-3.07-1.69-5.07-2.28-5.72-1.49-.07-.16-.13-.31-.18-.47-.03-.07-.05-.14-.07-.21-.03-.1-.06-.2-.09-.31-.02-.06-.03-.12-.04-.18 0 0 .01-.01.01-.01.03-.04.06-.07.09-.1.04-.04.08-.07.12-.1s.08-.05.12-.08h.01l.12-.06c.01 0 .03-.01.05-.02.04-.02.08-.03.13-.04h.01c.05-.01.11-.03.16-.03.05-.01.1-.01.16-.02h.05c.05 0 .11-.01.17-.01.98 0 2.32.52 3.68 1.27 2.55 1.46 4.4 2.72 6.27 1.65.36-.23.67-.52.94-.83.07-.08.13-.16.2-.24.06-.08.12-.17.18-.25.05-.07.09-.13.13-.2.15-.25.28-.5.38-.77.02-.05.04-.11.06-.16.03-.09.06-.17.09-.26.02-.08.05-.15.07-.23.01-.02.01-.04.02-.07.01-.06.03-.12.04-.18.01-.05.02-.1.03-.15s.02-.1.03-.16c.01-.04.01-.08.01-.11.01-.07.02-.13.02-.2 0-.03.01-.07.01-.1.01-.07.01-.14.01-.21 0-.02 0-.03 0-.05.01-.55-.07-1.07-.25-1.53-.77-1.82-2.03-2.72-3.6-3.39-2.01-.8-4.25-.99-6.61-.89.26-.18.54-.34.83-.48.15-.08.31-.15.47-.22 3.5-.27 6.1.51 7.81 2.31 1.31 1.25 1.79 2.9 1.76 4.36z" fill="#eff3f5"/><g fill="#dededf"><path d="m62.69 49.93c.04 1.58-.72 3.42-2.22 4.4-1.87 1.07-3.72-.19-6.27-1.65-2.04-1.13-4.04-1.73-4.84-.84-.02-.06-.03-.12-.04-.18 0 0 .01-.01.01-.01.03-.04.06-.07.09-.1.04-.04.08-.07.12-.1s.08-.05.12-.08h.01c.04-.02.08-.04.12-.06.01 0 .03-.01.05-.02.04-.02.08-.03.13-.04h.01c.05-.01.11-.03.16-.03.05-.01.1-.01.16-.02h.05c.05 0 .11-.01.17-.01.98 0 2.32.52 3.68 1.27 2.55 1.46 4.4 2.72 6.27 1.65.36-.23.67-.52.94-.83.07-.08.13-.16.2-.24.06-.08.12-.17.18-.25.05-.07.09-.13.13-.2.15-.25.28-.5.38-.77.02-.05.04-.11.06-.16.03-.09.06-.17.09-.26.02-.08.05-.15.07-.23.01-.02.01-.04.02-.07.01-.06.03-.12.04-.18.01-.05.02-.1.03-.15s.02-.1.03-.16c.01-.04.01-.08.01-.11.01-.07.02-.13.02-.2 0-.03.01-.07.01-.1 0-.07.01-.14.01-.21 0-.02 0-.04 0-.06z"/><path d="m63.09 50.1c-.02-1.4-.52-2.94-1.75-4.14-1.71-1.79-4.8-2.58-8.28-2.32.15-.08.31-.15.47-.22 3.5-.27 6.1.51 7.81 2.31 1.3 1.26 1.78 2.91 1.75 4.37z"/></g></g></g></svg>