<svg id="Layer_1" enable-background="new 0 0 64 64" viewBox="0 0 64 64" xmlns="http://www.w3.org/2000/svg"><g><g fill="#dededf"><path d="m50.26 27.75v-.32l.09.31 7.21-2.02-.17-.62-7.17 2.01h-4.53v-4.37l3.34-7.13-.58-.27-3.37 7.19.29.14h-.32v4.45h-4.71v-4.4l2.01-7.15-.62-.17-2.02 7.19.31.09h-.32v4.45h-4.71v-4.43l.67-7.18-.64-.06-.68 7.19.32.03h-.32v4.45h-4.71v-4.45h-.32l.32-.03-.68-7.19-.64.06.67 7.18v4.43h-4.68v-4.45h-.32l.31-.09-2.02-7.19-.62.17 2.01 7.15v4.4h-4.71v-4.45h-.32l.29-.14-3.37-7.19-.58.27 3.34 7.13v4.37h-4.53l-7.17-2.01-.17.62 7.21 2.02.09-.31v.32h4.58v4.69h-4.56l-7.19-.67-.07.64 7.21.67.03-.32v.32h4.58v4.69h-4.58v.32l-.03-.32-7.21.69.06.64 7.19-.67h4.56v4.69h-4.58v.32l-.09-.31-7.21 2.02.17.62 7.17-2.01h4.53v4.45h.64v-4.45h4.71v4.45h.64v-4.45h4.71v4.45h.64v-4.45h4.71v4.45h.64v-4.45h4.71v4.45h.64v-4.45h4.71v4.45h.64v-4.45h4.53l7.17 2.01.17-.62-7.21-2.02-.09.31v-.32h-4.58v-4.69h4.56l7.19.67.06-.64-7.21-.67-.03.32v-.32h-4.58v-4.69h4.58v-.32l.03.32 7.21-.67-.06-.64-7.19.67h-4.56v-4.69h4.58zm-26.6 15.37h-4.71v-4.69h4.71zm0-5.34h-4.71v-4.69h4.71zm0-5.33h-4.71v-4.69h4.71zm5.35 10.67h-4.71v-4.69h4.71zm0-5.34h-4.71v-4.69h4.71zm0-5.33h-4.71v-4.69h4.71zm5.34 10.67h-4.71v-4.69h4.71zm0-5.34h-4.71v-4.69h4.71zm0-5.33h-4.71v-4.69h4.71zm5.35 10.67h-4.71v-4.69h4.71zm0-5.34h-4.71v-4.69h4.71zm0-5.33h-4.71v-4.69h4.71zm5.35 10.67h-4.71v-4.69h4.71zm0-5.34h-4.71v-4.69h4.71zm0-5.33h-4.71v-4.69h4.71z"/><path d="m13.96 22.44-7.21-7.19-.45.45 7.21 7.2z"/><path d="m57.7 15.7-.45-.45-7.21 7.19.45.46z"/></g><g><path d="m58.59 48.2h-2.24v-31.6h-48.7v31.6h-2.24v-33.84h53.18z" fill="#bdbdbe"/></g><path d="m12.93 21.87v27.13h38.13v-27.13zm36.53 25.53h-34.92v-23.93h34.93v23.93z" fill="#bdbdbe"/><g><path d="m.08 47.4h63.84v2.24h-63.84z" fill="#bdbdbe"/></g></g></svg>