<svg id="Layer_1" enable-background="new 0 0 64 64" viewBox="0 0 64 64" xmlns="http://www.w3.org/2000/svg"><g><path d="m12.08.08h39.84v63.84h-39.84z" fill="#e29960" transform="matrix(0 1 -1 0 64 0)"/><path d="m3.38 15.38h57.24v33.24h-57.24z" fill="#fdc87b"/><g><path d="m61.28 49.28h-58.56v-34.56h58.56zm-57.24-1.32h55.92v-31.92h-55.92z" fill="#fff"/></g><g><g><g><path d="m60.79 46.57c-9.48 0-17.19-6.54-17.19-14.57s7.71-14.57 17.19-14.57v.66c-9.11 0-16.53 6.24-16.53 13.91s7.41 13.91 16.53 13.91z" fill="#fff"/></g><g><path d="m60.78 36.77h-12.4v-.66h11.73v-8.22h-11.73v-.66h12.4z" fill="#fff"/></g><g><path d="m48.71 36.77h-.33c-2.64 0-4.78-2.14-4.78-4.77s2.15-4.77 4.78-4.77h.33zm-.66-8.87c-2.12.17-3.79 1.94-3.79 4.1s1.67 3.93 3.79 4.1z" fill="#fff"/></g><g><g><path d="m48.69 27.9c-.1-.01-.2-.01-.31-.01v-.66c.12 0 .24 0 .35.01z" fill="#fff"/></g><g><path d="m49.44 36.65-.14-.64c.19-.04.38-.1.56-.17l.23.62c-.21.08-.43.15-.65.19zm1.26-.48-.32-.58c.17-.09.33-.2.49-.32l.4.52c-.18.15-.37.27-.57.38zm1.08-.81-.47-.46c.14-.14.27-.29.38-.44l.53.39c-.13.17-.28.34-.44.51zm.81-1.09-.58-.31c.09-.17.17-.35.24-.53l.62.23c-.08.2-.17.41-.28.61zm.47-1.27-.65-.14c.04-.19.07-.39.08-.58l.66.04c-.01.23-.04.46-.09.68zm-.57-1.3c-.01-.2-.04-.39-.08-.58l.65-.14c.05.22.08.44.1.67zm-.25-1.14c-.07-.18-.15-.36-.24-.53l.58-.32c.11.2.21.41.28.62zm-.56-1.02c-.12-.15-.24-.3-.38-.44l.47-.47c.16.16.31.33.45.51zm-.82-.83c-.16-.12-.32-.22-.49-.32l.32-.58c.2.11.39.23.57.37zm-1.03-.56c-.18-.07-.37-.12-.56-.17l.14-.64c.22.05.44.11.65.19z" fill="#fff"/></g><g><path d="m48.38 36.77v-.66c.1 0 .21 0 .31-.01l.05.66c-.12.01-.24.01-.36.01z" fill="#fff"/></g></g><g><g><path d="m58.9 29.51h.66v4.98h-.66z" fill="#fff"/></g><g><path d="m58.3 33.25c-.69 0-1.25-.56-1.25-1.25s.56-1.25 1.25-1.25 1.25.56 1.25 1.25-.56 1.25-1.25 1.25zm0-1.84c-.33 0-.59.27-.59.59s.27.59.59.59c.33 0 .59-.27.59-.59s-.26-.59-.59-.59z" fill="#fff"/></g></g></g><g><g><path d="m3.21 46.57v-.66c9.11 0 16.53-6.24 16.53-13.91s-7.42-13.91-16.53-13.91v-.66c9.48 0 17.19 6.54 17.19 14.57s-7.71 14.57-17.19 14.57z" fill="#fff"/></g><g><path d="m15.62 36.76h-12.4v-9.52h12.4v.66h-11.73v8.2h11.73z" fill="#fff"/></g><g><path d="m15.62 36.77h-.33v-9.54h.33c2.64 0 4.78 2.14 4.78 4.77s-2.15 4.77-4.78 4.77zm.33-8.87v8.2c2.12-.17 3.79-1.94 3.79-4.1s-1.67-3.93-3.79-4.1z" fill="#fff"/></g><g><g><path d="m15.31 27.9-.05-.66c.12-.01.24-.01.35-.01v.66c-.1 0-.2 0-.3.01z" fill="#fff"/></g><g><path d="m14.56 36.66c-.22-.05-.44-.12-.65-.2l.23-.62c.18.07.37.13.56.17zm-1.26-.49c-.2-.11-.39-.23-.57-.37l.4-.52c.16.12.32.23.49.32zm-1.08-.81c-.16-.16-.31-.34-.44-.51l.53-.39c.11.15.24.3.38.44zm-.81-1.09c-.11-.2-.2-.41-.28-.62l.62-.23c.07.18.15.36.24.53zm-.47-1.27c-.05-.22-.08-.45-.09-.67l.66-.04c.01.19.04.39.08.58zm.57-1.3-.66-.05c.02-.23.05-.45.1-.67l.65.14c-.05.19-.08.38-.09.58zm.25-1.14-.62-.23c.08-.21.17-.42.28-.62l.58.32c-.1.17-.18.35-.24.53zm.56-1.02-.53-.39c.13-.18.28-.35.45-.51l.47.47c-.15.12-.28.27-.39.43zm.82-.83-.4-.53c.18-.14.37-.26.57-.37l.32.58c-.17.1-.33.2-.49.32zm1.03-.56-.23-.62c.21-.08.43-.14.65-.19l.14.64c-.19.04-.38.1-.56.17z" fill="#fff"/></g><g><path d="m15.62 36.77c-.12 0-.24 0-.35-.01l.05-.66c.1.01.2.01.31.01v.66z" fill="#fff"/></g></g><g><g><path d="m4.44 29.51h.66v4.98h-.66z" fill="#fff"/></g><g><path d="m5.7 33.25c-.69 0-1.25-.56-1.25-1.25s.56-1.25 1.25-1.25 1.25.56 1.25 1.25-.56 1.25-1.25 1.25zm0-1.84c-.33 0-.59.27-.59.59s.27.59.59.59c.33 0 .59-.27.59-.59s-.27-.59-.59-.59z" fill="#fff"/></g></g></g></g><g><g><path d="m31.67 15.38h.66v33.24h-.66z" fill="#fff"/></g><g><path d="m32 37.09c-2.81 0-5.1-2.28-5.1-5.09s2.29-5.09 5.1-5.09 5.1 2.28 5.1 5.09-2.29 5.09-5.1 5.09zm0-9.52c-2.45 0-4.44 1.99-4.44 4.43s1.99 4.43 4.44 4.43 4.44-1.99 4.44-4.43-1.99-4.43-4.44-4.43z" fill="#fff"/></g></g></g></svg>