<svg id="Layer_1" enable-background="new 0 0 64 64" viewBox="0 0 64 64" xmlns="http://www.w3.org/2000/svg"><g><g><ellipse cx="27.95" cy="36.02" fill="#d44231" rx="27.88" ry="27.81"/><ellipse cx="27.95" cy="36.02" fill="#eff3f5" rx="23.99" ry="23.93"/><ellipse cx="27.95" cy="36.02" fill="#d44231" rx="20.11" ry="20.06"/><ellipse cx="27.95" cy="36.02" fill="#eff3f5" rx="16.23" ry="16.19"/><ellipse cx="27.95" cy="36.02" fill="#d44231" rx="12.34" ry="12.31"/><ellipse cx="27.95" cy="36.02" fill="#eff3f5" rx="8.46" ry="8.44"/><path d="m32.53 36.02c0 2.52-2.05 4.57-4.58 4.57s-4.58-2.04-4.58-4.57c0-2.52 2.05-4.57 4.58-4.57 2.53.01 4.58 2.05 4.58 4.57z" fill="#d44231"/></g><g><path d="m52.9 19.2-7.1-.95-.96-7.09 9.16-10.99 2.6 7.3 7.32 2.6z" fill="#59b5ac"/><path d="m57.97 6.11c-.23-.24-.56-.36-.9-.36-.38 0-.75.16-1.03.43l-29.13 29.06c-.26.26-.42.6-.43.96-.02.37.11.71.36.96.23.24.55.36.9.36.38 0 .75-.16 1.03-.43l29.13-29.06c.55-.55.58-1.41.07-1.92z" fill="#445b69"/></g></g></svg>