<svg id="Layer_1" enable-background="new 0 0 64 64" viewBox="0 0 64 64" xmlns="http://www.w3.org/2000/svg"><g><path d="m36.48 18.94-36.4 36.31c.57 3.12 5.21 8.22 8.61 8.59l36.4-36.31z" fill="#fdc87c"/><path d="m45.09 27.54-8.61-8.59c.89.63 1.87.92 2.72.95.42.02.79-.01 1.12-.1.03-.01.05-.01.07-.02.03-.01.06-.02.08-.03.59-.18 1.02-.49 1.45-.87.34-.3.79-.72 1.32-1.21.14-.12.27-.25.41-.4.14-.13.29-.27.43-.42.16-.14.3-.29.47-.45.79-.76 1.68-1.63 2.64-2.58l.56-.56c.31-.3.62-.61.94-.92l1.49-1.49c.19-.19.37-.37.55-.56.32-.3.63-.61.93-.93l.56-.56c.53-.53 1.05-1.06 1.58-1.59 1.66-1.67 3.32-3.35 4.85-4.92l3.14 3.13c-1.57 1.53-3.25 3.18-4.93 4.84-.53.53-1.07 1.06-1.6 1.58l-.55.55c-.32.31-.63.62-.94.93l-2.04 2.04c-.32.32-.63.63-.93.94l-.56.56c-.37.37-.73.74-1.08 1.09-.36.37-.71.72-1.04 1.06-.32.33-.63.66-.92.95-.22.23-.42.45-.62.64-.09.11-.19.2-.29.3-.18.19-.35.38-.51.54-.17.17-.31.32-.43.47-.07.07-.13.13-.19.2-.38.42-.7.85-.88 1.44-.01.02-.01.05-.02.07-.01.03-.02.06-.02.09-.09.32-.12.71-.09 1.12.03.84.31 1.82.94 2.71z" fill="#e5c06e"/><path d="m44.26 23.62c-1.44-.61-3.25-2.4-3.87-3.84.03-.01.06-.02.08-.03.59-.18 1.02-.49 1.45-.87.34-.3.79-.71 1.31-1.22.14-.12.27-.25.41-.4.14-.13.29-.27.43-.42.9-.85 1.95-1.88 3.11-3.03l.56-.56c.31-.3.62-.61.94-.92l1.49-1.49c.19-.19.37-.37.55-.56.32-.3.63-.61.93-.93l.56-.56c.53-.53 1.05-1.06 1.58-1.59 1.66-1.67 3.32-3.35 4.85-4.92.55-.93 1.31-1.69 1.91-2.02.06-.03.12-.06.19-.07.06-.01.12-.02.19-.03.05 0 .11.01.16.01.03.01.06.01.09.02.04.01.09.02.12.05.02.01.06.03.09.05.04.03.09.07.13.11l2.14 2.14c.04.04.07.09.11.13.03.04.06.09.07.15.05.1.07.21.07.32 0 .05-.01.09-.01.14-.01.04-.02.08-.03.13-.01.04-.02.09-.05.12-.34.59-1.09 1.35-2.03 1.9-1.57 1.53-3.25 3.18-4.93 4.84-.53.53-1.07 1.06-1.6 1.58l-.55.55c-.32.31-.63.62-.94.93l-2.04 2.04c-.32.32-.63.63-.93.94-.19.18-.37.37-.55.55l-1.09 1.09c-.36.37-.71.72-1.04 1.06-.32.33-.63.66-.92.95-.22.23-.42.45-.62.64-.09.11-.19.2-.29.3-.18.19-.35.38-.51.54-.16.17-.3.33-.43.47-.06.07-.12.14-.18.2-.38.42-.7.85-.88 1.44-.02.02-.02.05-.03.07z" fill="#f1f3f7"/><path d="m44.13 24.82c-2-1.3-3.64-2.94-4.94-4.93.42.02.79-.01 1.12-.1.03-.01.05-.01.07-.02.03-.01.06-.02.08-.03.91 1.63 2.18 2.9 3.81 3.8-.01.02-.01.05-.02.07-.01.03-.02.06-.02.09-.09.32-.13.71-.1 1.12z" fill="#293b4e"/><path d="m61.79 5.42c-1.57 1.53-3.25 3.18-4.93 4.84l-3.07-3.06c1.66-1.67 3.32-3.35 4.85-4.92l.01.01c.55-.93 1.31-1.69 1.91-2.02.32-.18.71-.12.97.14l2.14 2.14c.26.25.33.65.15.97-.34.58-1.09 1.35-2.03 1.9z" fill="#d44231"/><path d="m55.26 11.84-.55.55c-.01-.01-.01-.01-.01-.01-1.1-.92-2.12-1.94-3.05-3.04 0 0 0 0-.01-.01l.56-.56c.01.01.01.01.01.01.94 1.15 1.94 2.17 3.05 3.06z" fill="#7da4c3"/><path d="m53.77 13.33-.55.55c-.01-.01-.01-.01-.01-.01-1.1-.92-2.1-1.93-3.03-3.03 0 0 0 0-.01-.01.19-.19.37-.37.55-.56.01.01.01.01.01.01.93 1.13 1.93 2.15 3.04 3.05z" fill="#687d87"/><path d="m52.28 14.81-.55.55c-.01-.01-.01-.01-.01-.01-1.1-.92-2.1-1.93-3.03-3.03 0 0 0 0-.01-.01l.56-.56c.01.01 0 .01 0 .01.93 1.14 1.93 2.16 3.04 3.05z" fill="#5ac8ae"/><path d="m50.8 16.3c-.19.18-.37.37-.55.55-.01 0-.01 0-.01 0-1.09-.93-2.11-1.94-3.05-3.04 0 0 0 0-.01-.01l.56-.56.01.01c.92 1.13 1.93 2.15 3.05 3.05-.01 0-.01 0 0 0z" fill="#5aba3a"/><path d="m61.79 5.42-3.14-3.13c.55-.93 1.31-1.69 1.91-2.02.32-.18.71-.12.97.14l2.14 2.14c.26.25.33.65.15.97-.34.58-1.09 1.34-2.03 1.9z" fill="#e2431e"/></g></svg>