<svg id="Layer_1" enable-background="new 0 0 64 64" viewBox="0 0 64 64" xmlns="http://www.w3.org/2000/svg"><g><g><g fill="#253744"><path d="m6.49 52.1c-3.98 0-6.99-3.57-6.32-7.48l3.03-17.49h21.52l-12.68 21.78c-1.15 1.97-3.26 3.19-5.55 3.19z"/><path d="m57.51 52.1c3.98 0 6.99-3.57 6.32-7.48l-3.03-17.49h-21.51l12.68 21.78c1.14 1.97 3.25 3.19 5.54 3.19z"/></g></g><g><g fill="#253744"><path d="m18.95 20.27h-11.39l.96-5.3c.32-1.77 1.87-3.06 3.68-3.06h2.11c1.81 0 3.36 1.29 3.68 3.06z"/><path d="m56.44 20.27h-11.4l.96-5.3c.32-1.77 1.87-3.06 3.68-3.06h2.11c1.81 0 3.36 1.29 3.68 3.06z"/></g></g><path d="m14.34 18.35h35.32v17.98h-35.32z" fill="#253744"/><path d="m47.21 37.22c-.1.87-.38 1.68-.81 2.39h-28.8c-.43-.71-.71-1.53-.81-2.39 3.26-1.08 5.85-3.64 6.97-6.87.39-1.13.61-2.36.61-3.63 0-1.76-.41-3.44-1.16-4.92h17.57c-.75 1.48-1.16 3.16-1.16 4.92 0 1.27.22 2.49.61 3.63 1.13 3.22 3.72 5.78 6.98 6.87z" fill="#2d404e"/><g fill="#586a73"><path d="m23.39 26.72c0 1.02-.15 1.99-.43 2.92-3.76 0-6.82 3.03-6.87 6.77-.57.16-1.15.28-1.75.34-.35.04-.7.06-1.06.06-5.58 0-10.11-4.52-10.11-10.09s4.53-10.09 10.11-10.09c3.79 0 7.1 2.09 8.83 5.17.81 1.45 1.28 3.13 1.28 4.92z"/><path d="m60.83 26.72c0 5.57-4.52 10.09-10.11 10.09-.36 0-.71-.02-1.05-.05-.6-.06-1.18-.18-1.75-.34-.05-3.74-3.11-6.78-6.87-6.78-.28-.92-.43-1.9-.43-2.92 0-1.78.47-3.46 1.28-4.92 1.73-3.08 5.03-5.17 8.83-5.17 5.58 0 10.1 4.52 10.1 10.09z"/></g><g><g><path d="m29.17 36.49c0 1.13-.31 2.2-.85 3.12-1.07 1.84-3.07 3.07-5.36 3.07-2.28 0-4.28-1.23-5.35-3.07-.43-.71-.71-1.53-.81-2.39-.03-.24-.05-.48-.05-.73 0-.1 0-.2.01-.3.15-3.21 2.76-5.78 5.98-5.89.07-.01.14-.01.22-.01.28 0 .55.02.81.05 3.04.4 5.4 3 5.4 6.15z" fill="#586a73"/><g><path d="m22.96 41.66c-2.86 0-5.18-2.32-5.18-5.17s2.32-5.17 5.18-5.17 5.18 2.32 5.18 5.17-2.33 5.17-5.18 5.17z" fill="#253744"/><path d="m22.96 40.85c-2.41 0-4.37-1.96-4.37-4.36 0-2.41 1.96-4.36 4.37-4.36s4.37 1.96 4.37 4.36-1.96 4.36-4.37 4.36z" fill="#2d404e"/></g></g><g><path d="m47.25 36.49c0 .25-.01.49-.05.73-.1.87-.38 1.68-.81 2.39-1.07 1.84-3.07 3.07-5.36 3.07-2.28 0-4.28-1.23-5.35-3.07-.55-.92-.85-1.99-.85-3.12 0-3.15 2.35-5.75 5.4-6.15.26-.03.53-.05.81-.05.07 0 .15 0 .22.01 3.23.11 5.83 2.68 5.98 5.9.01.09.01.19.01.29z" fill="#586a73"/><g><path d="m41.04 41.66c-2.86 0-5.18-2.32-5.18-5.17s2.32-5.17 5.18-5.17 5.18 2.32 5.18 5.17-2.32 5.17-5.18 5.17z" fill="#253744"/><path d="m41.04 40.85c-2.41 0-4.37-1.96-4.37-4.36 0-2.41 1.96-4.36 4.37-4.36s4.37 1.96 4.37 4.36-1.96 4.36-4.37 4.36z" fill="#2d404e"/></g></g></g><g><path d="m32 33.68c-1.5 0-2.72-1.22-2.72-2.72s1.22-2.72 2.72-2.72 2.72 1.22 2.72 2.72-1.22 2.72-2.72 2.72z" fill="#253744"/><path d="m34.21 30.96c0 1.22-.99 2.2-2.21 2.2s-2.21-.99-2.21-2.2c0-1.22.99-2.2 2.21-2.2 1.22-.01 2.21.98 2.21 2.2z" fill="#586a73"/></g><g><g><path d="m56.83 24.42h-3.81v-3.8c0-.58-.47-1.05-1.05-1.05h-2.5c-.58 0-1.05.47-1.05 1.05v3.8h-3.81c-.58 0-1.05.47-1.05 1.05v2.49c0 .58.47 1.05 1.05 1.05h3.81v3.8c0 .58.47 1.05 1.05 1.05h2.5c.58 0 1.05-.47 1.05-1.05v-3.8h3.81c.58 0 1.05-.47 1.05-1.05v-2.49c0-.58-.47-1.05-1.05-1.05z" fill="#253744"/><g fill="#eff3f5"><g><path d="m52.3 22.23c0 .87-.71 1.58-1.58 1.58-.88 0-1.58-.71-1.58-1.58s.71-1.58 1.58-1.58 1.58.7 1.58 1.58z"/><path d="m52.3 31.21c0 .87-.71 1.58-1.58 1.58-.88 0-1.58-.71-1.58-1.58s.71-1.58 1.58-1.58c.87-.01 1.58.7 1.58 1.58z"/></g><g><path d="m46.22 25.14c.88 0 1.58.71 1.58 1.58s-.71 1.58-1.58 1.58c-.88 0-1.58-.71-1.58-1.58-.01-.88.7-1.58 1.58-1.58z"/><path d="m55.22 25.14c.88 0 1.58.71 1.58 1.58s-.71 1.58-1.58 1.58c-.88 0-1.58-.71-1.58-1.58-.01-.88.7-1.58 1.58-1.58z"/></g></g></g><g><path d="m19.39 24.42h-3.81v-3.8c0-.58-.47-1.05-1.05-1.05h-2.5c-.58 0-1.05.47-1.05 1.05v3.8h-3.81c-.58 0-1.05.47-1.05 1.05v2.49c0 .58.47 1.05 1.05 1.05h3.81v3.8c0 .58.47 1.05 1.05 1.05h2.5c.58 0 1.05-.47 1.05-1.05v-3.8h3.81c.58 0 1.05-.47 1.05-1.05v-2.49c0-.58-.47-1.05-1.05-1.05z" fill="#253744"/><g><g><g><path d="m14.78 24.42-1.5 1.29-1.5-1.29v-2.77h3z" fill="#eff3f5"/><path d="m13.28 20.05-.91 1.05h1.82z" fill="#c6c1c1"/></g><g><path d="m14.78 29.01-1.5-1.29-1.5 1.29v2.77h3z" fill="#eff3f5"/><path d="m13.28 33.38-.91-1.05h1.82z" fill="#c6c1c1"/></g></g><g><g><path d="m10.98 25.22 1.29 1.5-1.29 1.49h-2.77v-2.99z" fill="#eff3f5"/><path d="m6.6 26.72 1.05.91v-1.83z" fill="#c6c1c1"/></g><g><path d="m15.58 25.22-1.29 1.5 1.29 1.49h2.78v-2.99z" fill="#eff3f5"/><path d="m19.96 26.72-1.05.91v-1.83z" fill="#c6c1c1"/></g></g></g></g></g><g><path d="m26.07 23.76h2.38v3.68h-2.38z" fill="#253744" transform="matrix(0 1 -1 0 52.856 -1.656)"/><path d="m25.75 24.74h3.02v1.72h-3.02z" fill="#586a73"/><path d="m35.09 24.05 3.49 1.55-3.49 1.55z" fill="#253744"/><path d="m37.77 25.6-2.35-1.04v2.08z" fill="#586a73"/></g></g></svg>