<svg id="Layer_1" enable-background="new 0 0 64 64" viewBox="0 0 64 64" xmlns="http://www.w3.org/2000/svg"><g><g><path d="m63.92 48.95c0 2.96-2.37 5.59-5.59 5.59h-52.63c-3.19 0-5.62-2.61-5.62-5.55 0-.07 0-.15.01-.21.01-.59.14-1.19.37-1.78 3.37-8.57 13.21-14.52 31.56-14.52 18.22 0 28.05 5.87 31.49 14.34.26.65.39 1.31.41 1.95z" fill="#59b5ac"/><path d="m63.92 48.95v9.23c0 2.37-1.93 4.3-4.31 4.3h-55.23c-2.38 0-4.31-1.92-4.31-4.3v-9.18c0 2.93 2.43 5.55 5.62 5.55h52.62c3.24-.01 5.61-2.65 5.61-5.6z" fill="#445b69"/></g><g><ellipse cx="16.94" cy="49.04" fill="#fbd303" rx="4.7" ry="2.56"/><path d="m19.46 47.55c0 .59-1.13 1.07-2.52 1.07s-2.52-.48-2.52-1.07 1.13-1.07 2.52-1.07 2.52.48 2.52 1.07z" fill="#eff3f5" opacity=".5"/><path d="m22.17 49.32c0 1.59-2.3 2.83-5.23 2.83s-5.23-1.24-5.23-2.83c0-1.54 2.16-2.75 4.96-2.83-2.47.08-4.43 1.19-4.43 2.55 0 1.41 2.1 2.56 4.7 2.56s4.7-1.15 4.7-2.56c0-1.36-1.96-2.47-4.43-2.55 2.81.07 4.96 1.29 4.96 2.83z" fill="#445b69"/></g><g><path d="m16.77 40.89c0 .73-1.09 1.32-2.43 1.32s-2.43-.59-2.43-1.32 1.09-1.32 2.43-1.32 2.43.59 2.43 1.32z" fill="#f0582f"/><path d="m15.64 40.12c0 .3-.58.55-1.3.55s-1.3-.25-1.3-.55.58-.55 1.3-.55 1.3.25 1.3.55z" fill="#eff3f5" opacity=".5"/><path d="m17.04 41.03c0 .82-1.19 1.46-2.7 1.46s-2.7-.64-2.7-1.46c0-.79 1.11-1.42 2.56-1.46-1.28.04-2.29.61-2.29 1.32 0 .73 1.09 1.32 2.43 1.32s2.42-.59 2.42-1.32c0-.7-1.01-1.28-2.28-1.32 1.45.04 2.56.67 2.56 1.46z" fill="#445b69"/></g><g><ellipse cx="47.06" cy="49.04" fill="#fbd303" rx="4.7" ry="2.56"/><ellipse cx="47.06" cy="47.55" fill="#eff3f5" opacity=".5" rx="2.52" ry="1.07"/><path d="m52.29 49.32c0 1.59-2.3 2.83-5.23 2.83s-5.23-1.24-5.23-2.83c0-1.54 2.16-2.75 4.96-2.83-2.47.08-4.43 1.19-4.43 2.55 0 1.41 2.1 2.56 4.7 2.56s4.7-1.15 4.7-2.56c0-1.36-1.96-2.47-4.43-2.55 2.8.07 4.96 1.29 4.96 2.83z" fill="#445b69"/></g><g><path d="m52.94 40.69c0 1.01-1.51 1.83-3.36 1.83-1.86 0-3.36-.82-3.36-1.83s1.51-1.83 3.36-1.83 3.36.82 3.36 1.83z" fill="#3eb9e3"/><path d="m51.37 39.63c0 .42-.81.77-1.8.77s-1.8-.34-1.8-.77c0-.42.81-.77 1.8-.77 1 0 1.8.34 1.8.77z" fill="#eff3f5" opacity=".5"/><path d="m53.32 40.89c0 1.14-1.64 2.03-3.74 2.03s-3.74-.89-3.74-2.03c0-1.1 1.54-1.97 3.55-2.02-1.77.06-3.17.85-3.17 1.83 0 1.01 1.51 1.83 3.37 1.83s3.36-.82 3.36-1.83c0-.97-1.4-1.77-3.17-1.83 1.99.05 3.54.92 3.54 2.02z" fill="#445b69"/></g><path d="m44.36 38.86c0 4.07-5.53 7.37-12.36 7.37s-12.36-3.3-12.36-7.37 5.53-7.37 12.36-7.37 12.36 3.3 12.36 7.37z" fill="#dededf"/><path d="m40 36.26c0 2.63-3.58 4.77-8 4.77s-8-2.14-8-4.77 3.58-4.77 8-4.77 8 2.13 8 4.77z" fill="#f1f3f7"/><path d="m34.38 36.72c-1.16.65-3.58.67-4.79-.04-.31-.18-.49-.54-.49-.92v-27.07h5.8v27.08c0 .4-.2.77-.52.95z" fill="#687d87"/><g><path d="m40.29 9.8c0 4.57-3.71 8.27-8.29 8.27s-8.29-3.7-8.29-8.27 3.71-8.27 8.29-8.27c4.58 0 8.29 3.71 8.29 8.27z" fill="#324a5e"/><path d="m37.06 5.67c1.4 1.76 1.67 3.87.61 4.71s-3.06.1-4.46-1.66-1.67-3.87-.61-4.71c1.06-.85 3.06-.1 4.46 1.66z" fill="#eff3f5" opacity=".4"/></g></g></svg>