<svg id="Layer_1" enable-background="new 0 0 64 64" viewBox="0 0 64 64" xmlns="http://www.w3.org/2000/svg"><g><g><path d="m59.73 60.13h-55.46c-1.51 0-2.87-.78-3.63-2.09-.76-1.31-.76-2.87 0-4.18l27.73-47.9c.76-1.31 2.11-2.09 3.63-2.09 1.51 0 2.87.78 3.63 2.09l27.73 47.91c.76 1.31.76 2.87 0 4.18-.76 1.3-2.12 2.08-3.63 2.08zm-27.73-53.68c-.28 0-.97.08-1.39.8l-27.73 47.91c-.42.72-.14 1.36 0 1.6s.55.8 1.39.8h55.46c.83 0 1.25-.56 1.39-.8s.42-.88 0-1.6l-27.73-47.91c-.42-.73-1.11-.8-1.39-.8z" fill="#c6c1c1"/></g><g><g><path d="m23.62 47.29c.86.24 1.58.71 2.13 1.33.97 1.09 1.38 2.64.95 4.15s-1.58 2.61-2.98 3.04c-.79.24-1.66.27-2.51.03-.86-.24-1.58-.71-2.13-1.33-.97-1.09-1.38-2.64-.95-4.15s1.58-2.61 2.98-3.04c.79-.25 1.66-.27 2.51-.03z" fill="#eff3f5"/><path d="m23.62 47.29c.86.24 1.58.71 2.13 1.33l-2.03 7.19c-.79.24-1.66.27-2.51.03-.86-.24-1.58-.71-2.13-1.33l2.03-7.19c.79-.25 1.66-.27 2.51-.03z" fill="#77d654"/></g><g><path d="m35.15 48.49c.63.63 1.03 1.39 1.2 2.2.31 1.43-.09 2.97-1.2 4.08s-2.66 1.51-4.09 1.2c-.81-.17-1.58-.57-2.2-1.2-.63-.63-1.03-1.39-1.2-2.2-.31-1.43.09-2.97 1.2-4.08s2.66-1.51 4.09-1.2c.8.17 1.57.57 2.2 1.2z" fill="#f0582f"/><path d="m32.8 47.43c1.03.03 1.89.8 1.92 1.72s-.79 1.64-1.82 1.61-1.89-.8-1.92-1.72c-.02-.91.79-1.63 1.82-1.61z" fill="#f1f3f7"/></g><g><path d="m43.32 47.6c.82.35 1.48.91 1.94 1.59.82 1.21 1.03 2.79.42 4.23s-1.9 2.39-3.34 2.64c-.81.14-1.68.06-2.49-.29-.82-.35-1.48-.91-1.94-1.59-.82-1.21-1.03-2.79-.42-4.23s1.9-2.39 3.34-2.64c.81-.14 1.67-.05 2.49.29z" fill="#eff3f5"/><path d="m43.32 47.6c.82.35 1.48.91 1.94 1.59l-2.92 6.88c-.81.14-1.68.06-2.49-.29-.82-.35-1.48-.91-1.94-1.59l2.92-6.88c.81-.14 1.67-.05 2.49.29z" fill="#3582a8"/></g><g><path d="m17.29 51.75c0 .89-.26 1.71-.71 2.4-.03.04-.05.08-.08.12-.81 1.16-2.15 1.92-3.66 1.92-1.53 0-2.88-.77-3.69-1.95-.02-.03-.04-.06-.06-.09-.45-.69-.7-1.51-.7-2.4 0-.85.24-1.63.65-2.3.02-.04.04-.07.06-.1.8-1.23 2.18-2.04 3.75-2.04s2.95.81 3.74 2.04c.02.03.04.06.05.09.41.67.65 1.46.65 2.31z" fill="#eff3f5"/><path d="m17.29 51.75c0 .89-.26 1.71-.71 2.4-.03.04-.05.08-.08.12-2.03 1.41-5.41 1.22-7.34-.03-.02-.03-.04-.06-.06-.09-.45-.69-.7-1.51-.7-2.4 0-.85.24-1.63.65-2.3 1.53 1.49 5.52 1.73 7.6-.01.4.67.64 1.46.64 2.31z" fill="#d44231"/></g><g><path d="m51.17 55.94c-.89 0-1.71-.26-2.41-.71-.04-.03-.08-.05-.12-.08-1.16-.8-1.92-2.14-1.92-3.65 0-1.53.77-2.88 1.95-3.68.03-.02.06-.04.09-.06.69-.44 1.52-.7 2.41-.7.85 0 1.64.24 2.31.64.04.02.07.04.1.06 1.23.79 2.04 2.17 2.04 3.74 0 1.56-.81 2.94-2.04 3.73-.03.02-.06.04-.09.05-.68.42-1.47.66-2.32.66z" fill="#eff3f5"/><path d="m51.17 55.94c-.89 0-1.71-.26-2.41-.71-.04-.03-.08-.05-.12-.08-1.41-2.02-1.22-5.4.03-7.33.03-.02.06-.04.09-.06.69-.44 1.52-.7 2.41-.7.85 0 1.64.24 2.31.64-1.5 1.52-1.73 5.51.01 7.58-.68.42-1.47.66-2.32.66z" fill="#59b5ac"/></g><g><path d="m28.41 38.34c.86.24 1.58.71 2.13 1.33.97 1.09 1.38 2.64.95 4.15s-1.58 2.61-2.98 3.04c-.79.24-1.66.27-2.51.03-.86-.24-1.58-.71-2.13-1.33-.97-1.09-1.38-2.64-.95-4.15s1.58-2.61 2.98-3.04c.79-.24 1.66-.27 2.51-.03z" fill="#7da4c3"/></g><g><path d="m39.94 39.54c.63.63 1.03 1.39 1.2 2.2.31 1.43-.09 2.97-1.2 4.08s-2.66 1.51-4.09 1.2c-.81-.17-1.58-.57-2.2-1.2-.63-.63-1.03-1.39-1.2-2.2-.31-1.43.09-2.97 1.2-4.08s2.66-1.51 4.09-1.2c.8.17 1.57.57 2.2 1.2z" fill="#506c72"/><path d="m39.06 43.91c.95.55.83 1.99-.24 2.71-.54.37-1.21.42-1.69.15-.95-.55-.83-1.99.24-2.71.54-.37 1.21-.43 1.69-.15z" fill="#f1f3f7"/></g><g><path d="m48.11 38.66c.82.35 1.48.91 1.94 1.59.82 1.21 1.03 2.79.42 4.23s-1.9 2.39-3.34 2.64c-.81.14-1.68.06-2.49-.29-.82-.35-1.48-.91-1.94-1.59-.82-1.21-1.03-2.79-.42-4.23s1.9-2.39 3.34-2.64c.81-.14 1.67-.06 2.49.29z" fill="#eff3f5"/><path d="m48.11 38.66c.82.35 1.48.91 1.94 1.59l-2.92 6.88c-.81.14-1.68.06-2.49-.29-.82-.35-1.48-.91-1.94-1.59l2.92-6.88c.81-.14 1.67-.06 2.49.29z" fill="#7da4c3"/></g><g><path d="m38.53 20.89c.82.35 1.48.91 1.94 1.59.82 1.21 1.03 2.79.42 4.23s-1.9 2.39-3.34 2.64c-.81.14-1.68.06-2.49-.29-.82-.35-1.48-.91-1.94-1.59-.82-1.21-1.03-2.79-.42-4.23s1.9-2.39 3.34-2.64c.81-.14 1.67-.05 2.49.29z" fill="#f0582f"/></g><g><path d="m20.77 45.95c-.63.63-1.4 1.02-2.2 1.2-.05.01-.09.02-.14.03-1.39.25-2.88-.16-3.95-1.22-1.08-1.08-1.49-2.58-1.22-3.98.01-.04.01-.07.02-.11.18-.8.58-1.57 1.21-2.19.6-.6 1.33-.99 2.09-1.17.04-.01.07-.02.11-.03 1.43-.3 2.98.09 4.09 1.2s1.51 2.65 1.2 4.08c-.01.03-.02.07-.03.1-.18.76-.57 1.49-1.18 2.09z" fill="#eff3f5"/><path d="m20.77 45.95c-.63.63-1.4 1.02-2.2 1.2-.05.01-.09.02-.14.03-2.43-.43-4.69-2.95-5.17-5.2.01-.04.01-.07.02-.11.18-.8.58-1.57 1.21-2.19.6-.6 1.33-.99 2.09-1.17.02 2.13 2.68 5.11 5.38 5.36-.19.75-.58 1.48-1.19 2.08z" fill="#5ac8ae"/></g><g><path d="m36.45 33.65c0 .89-.25 1.71-.69 2.41-.79 1.23-2.16 2.05-3.73 2.06s-2.96-.79-3.75-2.02c-.45-.69-.72-1.51-.72-2.4s.25-1.71.69-2.41c.79-1.23 2.16-2.05 3.73-2.06s2.96.79 3.75 2.02c.45.69.72 1.51.72 2.4z" fill="#eff3f5"/><path d="m36.45 33.65c0 .89-.25 1.71-.69 2.41l-7.49.04c-.45-.69-.72-1.51-.72-2.4s.25-1.71.69-2.41l7.49-.04c.45.69.72 1.51.72 2.4z" fill="#fbd303"/></g><g><path d="m20.18 37.7c-.77-.45-1.35-1.08-1.73-1.82-.02-.04-.04-.09-.06-.13-.6-1.28-.59-2.81.17-4.12.77-1.32 2.12-2.1 3.54-2.2.04 0 .07-.01.11-.01.82-.04 1.67.15 2.44.6.74.43 1.3 1.02 1.67 1.71.02.03.04.06.06.1.66 1.3.68 2.9-.11 4.26-.79 1.35-2.18 2.14-3.65 2.21-.03 0-.07 0-.1 0-.79.02-1.6-.17-2.34-.6z" fill="#77d654"/></g><g><path d="m44.73 30.59c.63.63 1.03 1.39 1.2 2.2.31 1.43-.09 2.97-1.2 4.08s-2.66 1.51-4.09 1.2c-.81-.17-1.58-.57-2.2-1.2-.63-.63-1.03-1.39-1.2-2.2-.31-1.43.09-2.97 1.2-4.08s2.66-1.51 4.09-1.2c.8.18 1.57.58 2.2 1.2z" fill="#687d87"/><g fill="#f1f3f7"><path d="m40.92 30.48c.65.6.57 1.65-.19 2.35-.75.7-1.9.78-2.55.19-.65-.6-.57-1.65.19-2.35.75-.71 1.89-.79 2.55-.19z"/><path d="m29.54 38.86c.71.7.71 1.84 0 2.55-.71.7-1.85.7-2.55 0-.71-.7-.71-1.84 0-2.55.7-.7 1.85-.7 2.55 0z"/><path d="m25.63 32.53c.73.73.73 1.92 0 2.66-.74.73-1.93.73-2.66 0s-.73-1.92 0-2.66c.73-.73 1.93-.73 2.66 0z"/><path d="m36.66 24.08c.73.73.73 1.92 0 2.65-.74.73-1.93.73-2.66 0-.74-.73-.74-1.92 0-2.66.74-.72 1.93-.72 2.66.01z"/></g></g><g><path d="m30.36 21.78c.63.63 1.03 1.39 1.2 2.2.31 1.43-.09 2.97-1.2 4.08s-2.66 1.51-4.09 1.2c-.81-.17-1.58-.57-2.2-1.2-.63-.63-1.03-1.39-1.2-2.2-.31-1.43.09-2.97 1.2-4.08s2.66-1.51 4.09-1.2c.8.17 1.57.57 2.2 1.2z" fill="#3582a8"/><path d="m27.67 20.95c.6.52.47 1.49-.3 2.17s-1.88.81-2.48.3c-.6-.52-.47-1.49.3-2.17s1.87-.81 2.48-.3z" fill="#f1f3f7"/></g><g><g><path d="m35.15 12.9c.63.63 1.03 1.39 1.2 2.2.31 1.43-.09 2.97-1.2 4.08s-2.66 1.51-4.09 1.2c-.81-.17-1.58-.57-2.2-1.2-.63-.63-1.03-1.39-1.2-2.2-.31-1.43.09-2.97 1.2-4.08s2.66-1.51 4.09-1.2c.8.17 1.57.57 2.2 1.2z" fill="#fbd303"/><path d="m34.79 17.52c.59.5.45 1.46-.32 2.14s-1.87.82-2.46.32-.45-1.46.32-2.14 1.87-.83 2.46-.32z" fill="#f1f3f7"/></g></g></g></g></svg>