<svg id="Layer_1" enable-background="new 0 0 64 64" viewBox="0 0 64 64" xmlns="http://www.w3.org/2000/svg"><g><g><g><g><path d="m62.71 9.23c-8.71 8.7-18.7 18.04-27.85 24.81-1.77 1.35-3.6 2.83-5.47 4.4-7.53 6.36-15.75 14.43-23.49 23.16-.24.28-.48.54-.73.82l-3.47-3.47c.31-.27.62-.54.92-.82 8.72-7.7 16.64-15.97 22.94-23.51 1.57-1.88 3.04-3.71 4.4-5.47 6.79-9.13 16.16-19.09 24.88-27.78 1.62-1.61 4.24-1.62 5.86-.01l2.03 2.03c1.6 1.61 1.59 4.22-.02 5.84z" fill="#fbd984"/><path d="m5.49 63.41c-.84.84-2.64.41-4.02-.96-1.38-1.37-1.81-3.17-.97-4.01s2.64-.41 4.02.96c1.38 1.38 1.81 3.17.97 4.01z" fill="#e5c06e"/></g><path d="m62.71 9.23c-8.71 8.7-18.7 18.04-27.85 24.81-1.77 1.35-3.6 2.83-5.47 4.4l-3.84-3.83c1.57-1.88 3.04-3.71 4.4-5.47 6.79-9.13 16.16-19.09 24.88-27.78 1.62-1.61 4.24-1.62 5.86-.01l2.03 2.03c1.61 1.62 1.6 4.23-.01 5.85z" fill="#5aba3a"/></g><path d="m59.48 4.59-1.13-1.13c-.63-.63-1.64-.64-2.28-.02-3.16 3.06-12.03 11.8-16.67 18.03-5.12 6.87-12.49 14.49-12.49 14.49l.72.72s9.05-9.19 12.94-14.12c4.17-5.26 18.91-17.97 18.91-17.97z" fill="#77d654" opacity=".39"/></g><g><g><g><path d="m9.18 1.36c8.72 8.69 18.08 18.65 24.87 27.78 1.36 1.76 2.83 3.59 4.41 5.45 6.37 7.51 14.45 15.71 23.21 23.43.28.24.55.48.82.72l-3.48 3.47c-.27-.31-.54-.62-.82-.92-7.71-8.7-16.01-16.6-23.57-22.88-1.88-1.56-3.72-3.03-5.49-4.39-9.14-6.75-19.13-16.09-27.84-24.79-1.61-1.61-1.62-4.23 0-5.84l2.03-2.03c1.61-1.61 4.23-1.6 5.86 0z" fill="#fbd984"/><path d="m63.49 58.44c.84.84.41 2.64-.97 4.01s-3.17 1.8-4.02.96c-.84-.84-.41-2.64.97-4.01s3.18-1.8 4.02-.96z" fill="#e5c06e"/></g><path d="m9.18 1.36c8.72 8.69 18.08 18.65 24.87 27.78 1.36 1.76 2.83 3.59 4.41 5.45l-3.84 3.83c-1.88-1.56-3.72-3.03-5.49-4.39-9.14-6.76-19.13-16.1-27.84-24.8-1.61-1.61-1.62-4.23 0-5.84l2.03-2.03c1.61-1.61 4.23-1.6 5.86 0z" fill="#47aa22"/></g><path d="m4.53 4.59-1.13 1.13c-.63.62-.64 1.64-.02 2.27 3.06 3.15 11.83 12 18.08 16.63 6.88 5.11 14.53 12.45 14.53 12.45l.72-.72s-9.22-9.03-14.15-12.91c-5.3-4.15-18.03-18.85-18.03-18.85z" fill="#77d654" opacity=".39"/></g><g><path d="m39.16 7.3c0 1.58-.52 3.05-1.39 4.23-.13.18-.28.36-.43.54-.02.02-.04.04-.06.07-.05.05-.1.11-.15.16-.03.03-.05.06-.08.09-.11.11-.22.21-.33.31-1.26 1.09-2.91 1.76-4.71 1.76s-3.45-.67-4.7-1.76c-.12-.1-.23-.2-.34-.31-.03-.03-.06-.06-.08-.09-.05-.05-.1-.1-.15-.16-.02-.02-.04-.05-.06-.07-.15-.17-.29-.35-.43-.53-.88-1.18-1.39-2.65-1.39-4.23 0-1.64.55-3.14 1.48-4.35.1-.13.2-.25.31-.37.03-.04.06-.08.1-.11.08-.08.15-.16.23-.24 0 0 0 0 .01-.01.13-.13.27-.26.42-.37 1.25-1.05 2.86-1.69 4.62-1.69s3.37.63 4.61 1.68c.15.12.29.24.42.38.08.08.16.16.24.24.03.04.07.08.1.12.11.12.21.24.31.37.9 1.2 1.45 2.71 1.45 4.34z" fill="#eff3f5"/><g><g><g><path d="m36.72 11.39c-.1-.16-.2-.32-.29-.48-.07-.12-.13-.25-.19-.38-.08-.17-.15-.33-.22-.51-.05-.14-.09-.27-.14-.41-.05-.17-.1-.34-.14-.52-.03-.14-.06-.27-.09-.41-.03-.17-.05-.35-.07-.53-.02-.15-.02-.29-.03-.43-.01-.14-.01-.27-.01-.41 0-.04 0-.07 0-.11 0-.14 0-.27.01-.41.01-.17.03-.34.05-.51.01-.14.04-.27.06-.4.03-.17.07-.34.12-.5.03-.13.07-.26.11-.39.05-.17.11-.33.17-.49.05-.13.1-.25.16-.37.07-.16.15-.32.23-.46.06-.12.13-.23.2-.35.09-.15.19-.3.29-.44.08-.11.16-.21.25-.32.03-.03.05-.06.08-.09-.08-.08-.16-.16-.24-.24v.01c-.1.11-.19.23-.28.35-.13.16-.24.32-.35.49-.08.12-.15.25-.23.38-.1.17-.19.35-.27.53-.06.13-.12.27-.17.41-.07.18-.14.36-.19.55-.04.14-.08.28-.11.42-.05.18-.09.37-.12.56-.03.14-.05.28-.06.42-.02.18-.04.37-.05.57 0 .13-.01.26-.01.39v.03c0 .19.01.37.02.56.01.14.02.28.04.41.02.18.05.36.09.54.04.15.06.28.1.42.05.18.09.35.15.52.04.14.09.27.14.39.06.17.14.34.22.5.05.13.12.24.18.36.09.16.18.32.28.48.07.12.15.23.23.34.11.15.23.3.35.44.02.02.04.05.06.07.03-.03.05-.06.08-.09.05-.05.1-.1.15-.16-.11-.13-.22-.26-.32-.4-.09-.09-.17-.21-.24-.33z" fill="#f0582f"/></g><g><path d="m36.37 3.66c-.07 0-.14-.05-.16-.11l-.31-.9c-.03-.09.02-.18.11-.21s.18.02.21.11l.27.79.83-.02c.09-.01.17.07.17.16s-.07.17-.16.17l-.96.01c.01 0 .01 0 0 0z" fill="#f0582f"/></g><g><path d="m35.91 4.52c-.06 0-.12-.04-.15-.09l-.43-.85c-.04-.08-.01-.18.08-.23.08-.04.19-.01.23.08l.36.73.82-.14c.09-.02.18.05.2.14s-.05.18-.14.19l-.94.16c-.01.01-.02.01-.03.01z" fill="#f0582f"/></g><g><path d="m35.56 5.43c-.05 0-.11-.03-.14-.07l-.54-.79c-.05-.08-.03-.18.04-.23.08-.06.19-.04.24.04l.47.68.79-.25c.09-.03.18.02.21.11s-.02.18-.11.21l-.91.29c-.02.01-.03.01-.05.01z" fill="#f0582f"/></g><g><path d="m35.34 6.38c-.05 0-.09-.02-.13-.06l-.64-.71c-.06-.07-.06-.18.01-.24s.18-.06.24.01l.56.62.75-.35c.08-.04.19 0 .23.08s0 .18-.08.22l-.86.41c-.03.01-.05.02-.08.02z" fill="#f0582f"/></g><g><path d="m35.26 7.35c-.04 0-.08-.01-.11-.04l-.73-.61c-.07-.06-.08-.17-.02-.24s.17-.08.24-.02l.64.53.7-.45c.08-.05.18-.03.23.05s.03.18-.05.23l-.8.52c-.04.02-.07.03-.1.03z" fill="#f0582f"/></g><g><path d="m35.31 8.32c-.03 0-.06-.01-.09-.03l-.81-.5c-.08-.05-.1-.15-.05-.23s.15-.1.23-.05l.71.44.63-.54c.07-.06.18-.05.24.02s.05.18-.02.24l-.72.63c-.04.01-.08.02-.12.02z" fill="#f0582f"/></g><g><path d="m35.49 9.28c-.02 0-.05 0-.07-.01l-.87-.39c-.09-.04-.12-.14-.09-.22.04-.08.14-.12.22-.09l.76.34.55-.63c.06-.07.17-.08.24-.02s.08.17.02.24l-.63.72c-.03.04-.08.06-.13.06z" fill="#f0582f"/></g><g><path d="m35.81 10.2c-.02 0-.03 0-.05-.01l-.92-.27c-.09-.03-.14-.12-.12-.21.03-.09.12-.14.21-.12l.8.23.46-.69c.05-.08.16-.1.23-.05.08.05.1.16.05.23l-.52.8c-.04.06-.09.09-.14.09z" fill="#f0582f"/></g><g><path d="m36.24 11.07c-.01 0-.02 0-.02 0l-.95-.14c-.09-.01-.16-.1-.14-.19.01-.09.09-.15.19-.14l.82.12.36-.75c.04-.08.14-.12.23-.08.08.04.12.14.08.22l-.41.86c-.03.06-.09.1-.16.1z" fill="#f0582f"/></g><g><path d="m36.79 11.87-.96-.01c-.09 0-.17-.08-.17-.17s.08-.17.17-.17l.83.01.25-.79c.03-.09.12-.14.21-.11s.14.12.11.21l-.29.91c-.01.08-.07.12-.15.12z" fill="#f0582f"/></g></g><g><g><path d="m28.79 6.92c-.01-.2-.02-.38-.05-.57-.02-.14-.04-.28-.06-.42-.03-.19-.07-.38-.12-.56-.03-.14-.07-.28-.11-.42-.06-.19-.12-.37-.19-.55-.05-.14-.11-.27-.17-.41-.08-.18-.17-.36-.27-.53-.07-.13-.15-.26-.23-.38-.11-.17-.22-.33-.35-.49-.09-.12-.18-.23-.28-.35-.08.08-.16.16-.23.24.03.03.05.06.08.09.09.1.17.21.25.32.1.14.2.29.29.44.07.11.14.23.2.35.08.15.16.31.23.46.06.12.11.24.16.37.06.16.12.32.17.49.04.13.08.26.11.39.05.17.09.33.12.5.02.13.05.27.06.4.03.17.05.34.05.51.01.14.01.27.01.41v.11c0 .14 0 .27-.01.41 0 .14-.01.28-.03.42-.02.18-.04.36-.07.53-.03.14-.05.28-.09.41-.04.18-.09.35-.14.52-.04.14-.09.28-.14.41-.07.18-.14.34-.22.51-.06.13-.12.26-.19.38-.09.17-.19.33-.29.49-.08.12-.16.24-.24.35-.1.14-.21.27-.32.4.05.05.1.11.15.16.02.03.05.06.08.09.02-.02.04-.05.05-.07.12-.14.24-.29.35-.44.08-.11.16-.23.23-.34.1-.15.2-.32.28-.48.06-.12.13-.24.18-.36.08-.16.15-.33.22-.5.05-.13.1-.26.14-.39.05-.17.1-.34.15-.52.05-.17.07-.3.1-.44.04-.18.06-.36.09-.54.02-.14.03-.27.04-.42.01-.18.02-.37.02-.56v-.03c0-.13 0-.26-.01-.39z" fill="#f0582f"/></g><g><path d="m27.63 3.66-.96-.03c-.09 0-.17-.08-.16-.17 0-.09.08-.16.17-.16l.83.02.27-.79c.03-.09.13-.13.21-.11.09.03.14.13.11.21l-.31.9c-.03.09-.09.13-.16.13z" fill="#f0582f"/></g><g><path d="m28.09 4.52c-.01 0-.02 0-.03 0l-.94-.16c-.09-.02-.15-.1-.14-.19.02-.09.1-.16.2-.14l.82.13.37-.74c.04-.08.14-.12.23-.08.08.04.12.14.08.23l-.43.85c-.03.06-.09.1-.16.1z" fill="#f0582f"/></g><g><path d="m28.44 5.43c-.02 0-.03 0-.05-.01l-.91-.29c-.09-.03-.14-.12-.11-.21s.12-.14.21-.11l.79.25.47-.68c.05-.08.16-.1.24-.04.08.05.1.16.04.23l-.54.79c-.03.04-.09.07-.14.07z" fill="#f0582f"/></g><g><path d="m28.66 6.38c-.02 0-.05-.01-.07-.02l-.86-.41c-.08-.04-.12-.14-.08-.22s.14-.12.23-.08l.74.35.56-.61c.06-.07.17-.07.24-.01s.07.17.01.24l-.64.71c-.04.03-.09.05-.13.05z" fill="#f0582f"/></g><g><path d="m28.74 7.35c-.03 0-.06-.01-.09-.03l-.8-.52c-.08-.05-.1-.16-.05-.23.05-.08.16-.1.23-.05l.7.45.64-.53c.07-.06.18-.05.24.02s.05.18-.02.24l-.73.61c-.04.02-.08.04-.12.04z" fill="#f0582f"/></g><g><path d="m28.69 8.32c-.04 0-.08-.01-.11-.04l-.72-.63c-.07-.06-.08-.17-.02-.24s.17-.08.24-.02l.63.54.71-.44c.08-.05.18-.03.23.05s.03.18-.05.23l-.81.5c-.04.04-.07.05-.1.05z" fill="#f0582f"/></g><g><path d="m28.51 9.28c-.05 0-.09-.02-.13-.06l-.63-.72c-.06-.07-.05-.18.02-.24s.18-.05.24.02l.55.63.76-.34c.08-.04.19 0 .22.09.04.09 0 .19-.09.22l-.87.39c-.03 0-.05.01-.07.01z" fill="#f0582f"/></g><g><path d="m28.19 10.2c-.06 0-.11-.03-.14-.08l-.52-.8c-.05-.08-.03-.18.05-.23s.18-.03.23.05l.45.69.8-.23c.09-.03.18.03.21.12s-.03.18-.12.21l-.92.27s-.02 0-.04 0z" fill="#f0582f"/></g><g><path d="m27.76 11.07c-.06 0-.12-.04-.15-.1l-.41-.86c-.04-.08 0-.18.08-.22s.19 0 .23.08l.36.75.82-.12c.09-.01.18.05.19.14s-.05.18-.14.19l-.95.14c-.02 0-.02 0-.03 0z" fill="#f0582f"/></g><g><path d="m27.21 11.87c-.07 0-.14-.05-.16-.12l-.29-.91c-.03-.09.02-.18.11-.21s.18.02.21.11l.25.79.83-.01c.09 0 .17.07.17.17 0 .09-.07.17-.17.17z" fill="#f0582f"/></g></g></g></g></g></svg>