<svg id="Layer_1" enable-background="new 0 0 64 64" viewBox="0 0 64 64" xmlns="http://www.w3.org/2000/svg"><g><path d="m23.68 1.55s-9.33-1.2-17.97 8.69c0 0 8.54-4.7 17.97-1.4z" fill="#d44231"/><g><path d="m22.69.93h1.97v49.98h-1.97z" fill="#bdbdbe"/></g><path d="m16.49 8.85c13.25 7.08 15.67 20.2 9.79 37.94l-22.4-2.79c9.83-8.88 13.97-20.63 12.61-35.15z" fill="#dededf"/><path d="m23.21 8.85s26.46 3.23 36.49 32.63c0 0-23.16-6.15-46.17 8.1 13.48-15.01 16.25-28.52 9.68-40.73z" fill="#eff3f5"/><path d="m63.92 39.29c-1.12 3.56-3.66 9.75-5.05 12.09-.45.78-.92 1.5-1.39 2.16-.19.28-.37.54-.57.79-14.05 3.79-44.59 2.81-53.32 2.43-.02-.03-.04-.07-.06-.1-.03-.05-.05-.09-.07-.14-.66-1.17-1.19-2.41-1.61-3.55-.95-2.58-1.33-4.71-1.33-4.71 15.4 2.47 42.22 2.97 63.4-8.97z" fill="#f8b517"/><path d="m56.91 54.33c-.45.6-.91 1.15-1.35 1.64-1.46 1.65-2.83 2.78-3.92 3.48-.85.56-1.52.87-1.91.98-.22.08-.43.11-.66.11h-.71c-.64-.57-1.21-.92-2.25-.92s-1.61.34-2.25.92h-10.35c-.64-.56-1.21-.92-2.25-.92s-1.61.34-2.25.92h-10.34c-.64-.56-1.21-.92-2.25-.92s-1.61.34-2.25.92h-6.83c-.42 0-.85-.14-1.17-.44-.95-.85-1.76-1.92-2.43-3.08-.06-.09-.11-.18-.16-.27.29.01.59.03.92.04.17.01.34.01.51.02.54.02 1.15.04 1.81.07.32.01.64.02.99.03.29.01.57.02.87.03.24.01.47.02.71.02h.02c.24.01.47.02.71.02.14 0 .29.01.43.01.78.02 1.6.04 2.44.06.37 0 .73.01 1.11.02h.02c.37.01.76.01 1.14.02s.77.01 1.16.02c.39 0 .8.01 1.2.01s.81.01 1.22.01h.02c2.24.03 4.6.03 7.02 0 .66-.01 1.32-.02 1.98-.03.36 0 .72-.01 1.08-.02 1.44-.02 2.87-.06 4.32-.11h.02c.17-.01.35-.01.51-.02.8-.03 1.59-.06 2.38-.1.39-.02.79-.04 1.17-.06.39-.01.79-.03 1.17-.06.78-.04 1.56-.09 2.33-.15.38-.02.77-.05 1.14-.08 1.14-.09 2.27-.19 3.36-.3.37-.03.73-.07 1.09-.11.72-.08 1.43-.16 2.12-.25.64-.08 1.27-.17 1.88-.26.99-.15 1.93-.31 2.84-.47.28-.05.53-.1.8-.16h.01c.1-.02.19-.04.29-.06.22-.04.43-.09.65-.14.07-.02.15-.03.22-.05.29-.06.56-.13.84-.2.29-.04.56-.11.83-.17z" fill="#d44231"/><g><path d="m62.44 58.14c0 .83-.67 1.5-1.5 1.5-1.26 0-1.84.52-2.69 1.32-.96.9-2.28 2.12-4.73 2.12-2.44 0-3.76-1.22-4.73-2.12-.16-.15-.31-.29-.44-.4-.64-.57-1.21-.92-2.25-.92s-1.61.34-2.25.92c-.14.12-.29.26-.44.4-.97.9-2.29 2.12-4.73 2.12-2.45 0-3.76-1.22-4.73-2.12-.16-.15-.31-.28-.44-.4-.64-.56-1.21-.92-2.25-.92s-1.61.34-2.25.92c-.14.12-.29.26-.44.4-.97.9-2.29 2.12-4.73 2.12-2.45 0-3.77-1.22-4.73-2.12-.16-.15-.31-.28-.44-.4-.64-.56-1.21-.92-2.25-.92s-1.61.34-2.25.92c-.14.12-.29.26-.44.4-.97.9-2.29 2.12-4.73 2.12-2.45 0-3.77-1.22-4.73-2.12-.86-.8-1.43-1.32-2.69-1.32-.83 0-1.5-.67-1.5-1.5 0-.82.67-1.49 1.5-1.49.85 0 1.56.15 2.16.37 1.15.43 1.93 1.15 2.57 1.73.86.8 1.42 1.32 2.69 1.32 1.26 0 1.84-.52 2.68-1.31.6-.56 1.35-1.25 2.41-1.69h.02c.64-.26 1.39-.42 2.31-.42.98 0 1.77.2 2.43.48h.02c.99.43 1.7 1.09 2.28 1.62.86.8 1.42 1.32 2.69 1.32 1.26 0 1.84-.52 2.69-1.31.6-.56 1.34-1.25 2.41-1.68.64-.27 1.4-.43 2.32-.43.78 0 1.43.13 2 .32h.02c1.22.42 2.04 1.18 2.7 1.78.86.8 1.42 1.32 2.69 1.32 1.26 0 1.84-.52 2.69-1.31.97-.9 2.28-2.12 4.73-2.12s3.76 1.22 4.73 2.11c.29.27.54.5.81.7.51.39 1.05.62 1.88.62 1.27 0 1.84-.52 2.69-1.32.97-.89 2.29-2.11 4.73-2.11.84.01 1.51.68 1.51 1.5z" fill="#3eb9e3"/></g></g></svg>