<svg id="Layer_1" enable-background="new 0 0 64 64" viewBox="0 0 64 64" xmlns="http://www.w3.org/2000/svg"><g><path d="m1.08 33.99h17.64v29.85h-17.64z" fill="#fbd303"/><path d="m23.18.16h17.64v63.69h-17.64z" fill="#e2431e"/><path d="m45.29 20.06h17.64v43.79h-17.64z" fill="#59b5ac"/><g><path d="m35.26 20.61h-2.85v-10.7c-1.04.97-2.27 1.69-3.68 2.15v-2.57c.74-.24 1.55-.7 2.42-1.38s1.47-1.47 1.79-2.37h2.31v14.87z" fill="#eff3f5"/></g><g><path d="m59.09 37.88v2.64h-9.98c.11-1 .43-1.94.97-2.83s1.61-2.08 3.2-3.55c1.28-1.19 2.07-2 2.36-2.42.39-.59.59-1.17.59-1.74 0-.63-.17-1.12-.51-1.46-.33-.35-.81-.52-1.41-.52-.59 0-1.07.18-1.42.54s-.55.95-.61 1.78l-2.84-.28c.17-1.56.7-2.68 1.59-3.36s2.01-1.02 3.34-1.02c1.47 0 2.62.39 3.45 1.18.84.79 1.26 1.77 1.26 2.94 0 .67-.12 1.3-.36 1.9s-.62 1.23-1.14 1.89c-.34.44-.97 1.07-1.86 1.89-.9.82-1.47 1.37-1.71 1.64s-.43.53-.58.79h5.66z" fill="#eff3f5"/></g><g><path d="m4.96 50.51 2.75-.33c.09.7.32 1.24.71 1.61.38.37.85.56 1.4.56.59 0 1.08-.22 1.48-.67.4-.44.6-1.04.6-1.8 0-.71-.19-1.28-.58-1.7-.38-.42-.85-.63-1.41-.63-.36 0-.8.07-1.31.21l.31-2.31c.77.02 1.36-.15 1.76-.5.41-.35.61-.82.61-1.41 0-.5-.15-.9-.45-1.19-.3-.3-.69-.44-1.19-.44-.49 0-.9.17-1.25.51-.34.34-.55.83-.63 1.48l-2.62-.44c.18-.9.46-1.61.83-2.15s.88-.96 1.54-1.26c.66-.31 1.4-.46 2.21-.46 1.4 0 2.52.44 3.36 1.33.7.73 1.04 1.55 1.04 2.46 0 1.3-.71 2.34-2.14 3.11.85.18 1.53.59 2.04 1.22s.76 1.4.76 2.29c0 1.3-.48 2.41-1.43 3.32-.95.92-2.14 1.37-3.55 1.37-1.34 0-2.46-.39-3.34-1.16-.84-.76-1.36-1.77-1.5-3.02z" fill="#eff3f5"/></g></g></svg>