<svg id="Layer_1" enable-background="new 0 0 64 64" viewBox="0 0 64 64" xmlns="http://www.w3.org/2000/svg"><g><ellipse cx="32" cy="53.97" fill="#5ac8ae" rx="31.92" ry="8.72"/><path d="m63.92 53.97c0 3.14-9.32 5.69-20.83 5.69s-20.83-2.55-20.83-5.69 9.32-5.69 20.83-5.69 20.83 2.55 20.83 5.69z" fill="#54af97" opacity=".5"/><g><path d="m35.59 53.84c0 .9-1.61 1.64-3.59 1.64s-3.59-.73-3.59-1.64c0-.9 1.61-1.64 3.59-1.64s3.59.73 3.59 1.64z" fill="#293b4e"/><path d="m35.59 53.83c0 .91-1.6 1.64-3.59 1.64-1.98 0-3.59-.73-3.59-1.64 0-.13.03-.25.09-.37.37.72 1.79 1.26 3.49 1.26s3.13-.54 3.49-1.26c.07.12.11.25.11.37z" fill="#324a5e"/></g><path d="m30.81 1.31h2.38v52.86h-2.38z" fill="#687d87"/><path d="m58.17 13.27-24.98-9.4v18.8z" fill="#f0582f"/><g><g><path d="m17.03 55.76h-3.67c-.09 0-.16-.07-.16-.16s.07-.16.16-.16h3.67c.09 0 .16.07.16.16s-.07.16-.16.16z" fill="#54af97"/></g><path d="m19.33 53.47c0 1.27-1.03 2.3-2.3 2.3s-2.3-1.03-2.3-2.3 1.03-2.3 2.3-2.3 2.3 1.03 2.3 2.3z" fill="#eff3f5"/></g></g></svg>