<svg id="Layer_1" enable-background="new 0 0 64 64" viewBox="0 0 64 64" xmlns="http://www.w3.org/2000/svg"><g><path d="m1.84.16h60.32v41.26h-60.32z" fill="#59b5ac"/><path d="m15.12 9.24h33.75v23.09h-33.75z" fill="#eff3f5"/><g><path d="m44.56 32.8c-.16-.09-.36-.01-.44.17-.03.07-2 3.03-3.05 8.87-.06.31-.11.62-.16.94-.21 1.31-.41 2.75-.56 4.32-.05.46-.09.93-.13 1.41l-.12.19-.1-.14-.27-.45-2.2-3.63 2.21-3.63 1.17 1.93c.05-.32.11-.64.16-.94l-1.05-1.73c.27-2.73.9-5.1 1.92-7.21.08-.16.01-.34-.15-.42s-.34-.01-.42.15c-1.07 2.22-1.72 4.69-1.99 7.55v.04l-2.23 3.66-.27.44-.1.16-2.21 3.63-2.21-3.63 2.21-3.63 2.21 3.63.1-.16.27-.44-2.23-3.67c.28-2.63.9-4.92 1.89-6.97.08-.16.01-.34-.15-.42s-.34-.01-.42.15c-1.01 2.11-1.65 4.45-1.94 7.14l-2.3 3.78-.27.44-.1.16-2.21 3.63-2.21-3.63 2.21-3.63 2.2 3.63.1-.16.27-.44-2.3-3.79s-.01-.01-.01-.01c-.29-2.68-.93-5.01-1.94-7.11-.08-.16-.26-.22-.42-.15-.16.08-.22.26-.15.42.99 2.06 1.61 4.35 1.89 6.99l-2.22 3.65-.27.44-.1.16-2.21 3.63-.27.44-.1.16-.13-.21v-.01c-.04-.48-.08-.95-.13-1.41-.15-1.56-.35-2.98-.56-4.28l1.19-1.95 2.2 3.63.1-.16.27-.44-2.24-3.69c0-.01 0-.01 0-.02-.27-2.86-.92-5.33-1.99-7.55-.07-.16-.26-.22-.42-.15-.16.08-.22.26-.15.42 1.02 2.13 1.65 4.5 1.92 7.25l-1.05 1.72c-1.05-5.86-3.03-8.84-3.06-8.9-.08-.18-.28-.26-.44-.17s-.23.31-.15.49c.03.07 2.12 3.18 3.16 9.39.05.31.1.62.15.95.1.7.2 1.43.29 2.19v.01c.06.47.11.96.15 1.46v.01c.08.8.14 1.63.2 2.5v.01c.02.36.04.72.06 1.09.07 1.34.11 2.76.1 4.25 0 .4 0 .79-.01 1.2-.01.56-.02 1.13-.04 1.71v.01c-.01.42-.03.84-.05 1.27v.01.01c-.05 1.2-.13 2.44-.24 3.72v.01c-.02.24-.04.49-.07.74h.51.12c.17-1.95.29-3.81.35-5.57l.28-.46 2.21 3.63-1.47 2.41h.73l1.1-1.81 1.1 1.81h.74l-1.46-2.41 2.21-3.63 2.2 3.63-1.47 2.41h.73l1.1-1.81 1.1 1.81h.74l-1.47-2.41 2.21-3.63 2.2 3.63-1.47 2.42h.73l1.1-1.81 1.1 1.81h.73l-1.47-2.42 2.21-3.63.29.47c.06 1.77.17 3.62.35 5.57h.1.53c-.02-.25-.04-.51-.07-.76-.11-1.28-.19-2.52-.24-3.72-.02-.44-.04-.87-.05-1.29-.02-.58-.03-1.15-.04-1.71-.01-.4-.01-.8-.01-1.19 0-1.5.04-2.93.1-4.27.02-.38.04-.74.06-1.11.06-.86.12-1.68.2-2.47.05-.5.1-.99.16-1.46.09-.78.19-1.53.3-2.24.05-.33.1-.65.16-.96 1.04-6.19 3.12-9.29 3.15-9.36.16-.19.1-.41-.07-.5zm-9.99 23.79-2.2-3.63 2.21-3.63 2.2 3.63zm-6.16-1.67-1.18-1.95 2.21-3.63.96 1.58 1.24 2.05-2.21 3.63zm8.75-9.83 2.2 3.63-2.21 3.63-2.2-3.63zm-5.15 0 2.21 3.63-2.22 3.64-2.21-3.63zm-5.15.01 2.2 3.63-1.57 2.59-.63 1.04-2.21-3.63zm-2.97 4.88c0-.01 0-.01 0 0l.39-.65.96 1.58 1.24 2.05-2.21 3.63-.24-.39c.03-2.23-.02-4.31-.14-6.22zm2 9.27-1.24-2.05 2.21-3.63 1.02 1.67 1.19 1.95-2.21 3.63zm3.9-2.05 2.21-3.63 1.02 1.67 1.18 1.95-2.2 3.64zm7.36 3.62-2.2-3.63 2.21-3.63 2.2 3.63-1.15 1.9zm2.81-4.63-.24.4-2.2-3.63 2.21-3.63.38.63c-.12 1.91-.17 3.99-.15 6.23z" fill="#e5e5e5"/><path d="m45.2 33.2h-26.4c-.89 0-1.62-.72-1.62-1.62v-.12c0-.89.72-1.62 1.62-1.62h26.4c.89 0 1.62.72 1.62 1.62v.12c0 .89-.72 1.62-1.62 1.62z" fill="#e2431e"/></g></g></svg>