<svg id="Layer_1" enable-background="new 0 0 64 64" viewBox="0 0 64 64" xmlns="http://www.w3.org/2000/svg"><g><g><path d="m17.43 55.41c-.02 0-.04.01-.06 0-4.44.21-9.72 0-12.85-.92-.04-.01-.07-.02-.1-.03-3.02-.99-4.8-3.26-4.24-7.94.48-3.2 2.14-5.78 5.15-5.25.22.04.44.09.68.16 3.22 1.01 7.58 3.63 11.46 6.75.78.62 1.54 1.26 2.26 1.92 1.12.91 1.8 1.27 2.81.25 1.75-1.8 3.34-3.5 4.72-4.96 1.46-1.55 2.7-2.82 3.65-3.65l1.81 1.76c-.94 1.17-2.04 2.45-3.42 3.93-.94 1.03-2.02 2.15-3.25 3.42-3.58 3.65-5.23 4.35-8.62 4.56z" fill="#bdbdbe"/><path d="m17.37 55.41c-4.44.21-9.73 0-12.85-.92l.81-13.23c.22.04.45.09.68.16 3.22 1 7.58 3.64 11.46 6.75z" fill="#eff3f5"/><g><g><path d="m10.76 47.84h.42v11.31h-.42z" fill="#dededf" transform="matrix(.073 -.997 .997 .073 -43.173 60.539)"/></g><g><path d="m10.88 46.32h.42v11.31h-.42z" fill="#dededf" transform="matrix(.073 -.997 .997 .073 -41.562 59.247)"/></g><g><path d="m10.99 44.81h.42v11.31h-.42z" fill="#dededf" transform="matrix(.073 -.997 .997 .073 -39.95 57.956)"/></g><g><path d="m11.1 43.3h.42v11.31h-.42z" fill="#dededf" transform="matrix(.073 -.997 .997 .073 -38.339 56.665)"/></g><g><path d="m10.26 42.67h.42v9.4h-.42z" fill="#dededf" transform="matrix(.073 -.997 .997 .073 -37.541 54.36)"/></g><g><path d="m9.07 42.36h.42v6.8h-.42z" fill="#dededf" transform="matrix(.073 -.997 .997 .073 -37.037 51.689)"/></g><g><path d="m7.98 41.97h.42v4.4h-.42z" fill="#dededf" transform="matrix(.073 -.997 .997 .073 -36.45 49.121)"/></g></g></g><path d="m30.99 41.98 1.55 1.45 26.17-27.84-1.56-1.45z" fill="#bdbdbe"/><g fill="#445b69"><path d="m51.73 20.55.81.76c.43.4 1.11.38 1.51-.05l9.58-10.19c.4-.43.38-1.1-.05-1.51l-.81-.76c-.43-.4-1.11-.38-1.51.05l-9.58 10.19c-.4.43-.38 1.1.05 1.51z"/><path d="m29.3 47.42-2.04-2.04c1.46-1.55 2.7-2.82 3.65-3.65l1.81 1.76c-.94 1.18-2.04 2.45-3.42 3.93z"/></g></g></svg>