<svg id="Layer_1" enable-background="new 0 0 64 64" viewBox="0 0 64 64" xmlns="http://www.w3.org/2000/svg"><g><path d="m47.28.16c-4.01 0-7.27 3.25-7.27 7.25v7.25h-16.02v-7.25c0-2.07 1.68-3.75 3.76-3.75 2.07 0 3.76 1.68 3.76 3.75 0 .97.79 1.75 1.76 1.75s1.76-.79 1.76-1.75c0-4-3.26-7.25-7.27-7.25s-7.27 3.25-7.27 7.25v38.42c0 .97.79 1.75 1.76 1.75s1.76-.79 1.76-1.75v-5.42h16.02v5.42c0 .97.79 1.75 1.76 1.75s1.76-.79 1.76-1.75v-38.42c0-2.07 1.68-3.75 3.76-3.75 2.07 0 3.76 1.68 3.76 3.75 0 .97.79 1.75 1.76 1.75s1.76-.79 1.76-1.75c-.04-4-3.3-7.25-7.31-7.25zm-7.27 18.01v7.61h-16.02v-7.61zm-16.02 18.73v-7.61h16.02v7.61z" fill="#c6c1c1"/><g><g><path d="m52.69 49.18c-2.41 0-3.7-1.19-4.64-2.06-.79-.73-1.22-1.13-2.25-1.13-1.04 0-1.47.4-2.25 1.13-.94.87-2.23 2.06-4.64 2.06s-3.7-1.19-4.64-2.06c-.79-.73-1.22-1.13-2.25-1.13-1.04 0-1.47.4-2.25 1.13-.94.87-2.23 2.06-4.64 2.06s-3.7-1.19-4.64-2.06c-.79-.73-1.22-1.13-2.25-1.13s-1.47.4-2.25 1.13c-.94.87-2.23 2.06-4.64 2.06s-3.7-1.19-4.64-2.06c-.79-.73-1.22-1.13-2.25-1.13-.97 0-1.76-.79-1.76-1.75 0-.97.79-1.75 1.76-1.75 2.41 0 3.7 1.19 4.64 2.06.79.73 1.22 1.13 2.25 1.13s1.47-.4 2.25-1.13c.94-.87 2.23-2.06 4.64-2.06s3.7 1.19 4.64 2.06c.79.73 1.22 1.13 2.25 1.13 1.04 0 1.47-.4 2.25-1.13.94-.87 2.23-2.06 4.64-2.06s3.7 1.19 4.64 2.06c.79.73 1.22 1.13 2.25 1.13 1.04 0 1.47-.4 2.25-1.13.94-.87 2.23-2.06 4.64-2.06s3.7 1.19 4.64 2.06c.79.73 1.22 1.13 2.25 1.13 1.04 0 1.47-.4 2.25-1.13.94-.87 2.23-2.06 4.64-2.06.97 0 1.76.79 1.76 1.75 0 .97-.79 1.75-1.76 1.75-1.04 0-1.47.4-2.25 1.13-.93.87-2.22 2.06-4.64 2.06z" fill="#59cbef"/></g><g><path d="m52.69 56.51c-2.41 0-3.7-1.19-4.64-2.06-.79-.73-1.22-1.13-2.25-1.13-1.04 0-1.47.4-2.25 1.13-.94.87-2.23 2.06-4.64 2.06s-3.7-1.19-4.64-2.06c-.79-.73-1.22-1.13-2.25-1.13-1.04 0-1.47.4-2.25 1.13-.94.87-2.23 2.06-4.64 2.06s-3.7-1.19-4.64-2.06c-.79-.73-1.22-1.13-2.25-1.13s-1.47.4-2.25 1.13c-.94.87-2.23 2.06-4.64 2.06s-3.7-1.19-4.64-2.06c-.79-.73-1.22-1.13-2.25-1.13-.97 0-1.76-.79-1.76-1.75 0-.97.79-1.75 1.76-1.75 2.41 0 3.7 1.19 4.64 2.06.74.72 1.17 1.12 2.2 1.12s1.47-.4 2.25-1.13c.94-.87 2.23-2.06 4.64-2.06s3.7 1.19 4.64 2.06c.8.73 1.23 1.13 2.27 1.13s1.47-.4 2.25-1.13c.94-.87 2.23-2.06 4.64-2.06s3.7 1.19 4.64 2.06c.8.73 1.23 1.13 2.27 1.13s1.47-.4 2.25-1.13c.94-.87 2.23-2.06 4.64-2.06s3.7 1.19 4.64 2.06c.79.73 1.23 1.13 2.26 1.13 1.04 0 1.47-.4 2.25-1.13.94-.87 2.23-2.06 4.64-2.06.97 0 1.76.79 1.76 1.75 0 .97-.79 1.75-1.76 1.75-1.04 0-1.47.4-2.25 1.13-.93.88-2.22 2.07-4.64 2.07z" fill="#59cbef"/></g><g><path d="m52.69 63.84c-2.41 0-3.7-1.19-4.64-2.06-.79-.73-1.22-1.13-2.25-1.13-1.04 0-1.47.4-2.25 1.13-.94.87-2.23 2.06-4.64 2.06s-3.7-1.19-4.64-2.06c-.79-.73-1.22-1.13-2.25-1.13-1.04 0-1.47.4-2.25 1.13-.94.87-2.23 2.06-4.64 2.06s-3.7-1.19-4.64-2.06c-.79-.73-1.22-1.13-2.25-1.13s-1.47.4-2.25 1.13c-.94.87-2.23 2.06-4.64 2.06s-3.7-1.19-4.64-2.06c-.79-.73-1.22-1.13-2.25-1.13-.97 0-1.76-.79-1.76-1.75 0-.97.79-1.75 1.76-1.75 2.41 0 3.7 1.19 4.64 2.06.79.73 1.22 1.13 2.25 1.13s1.47-.4 2.25-1.13c.94-.87 2.23-2.06 4.64-2.06s3.7 1.19 4.64 2.06c.79.73 1.22 1.13 2.25 1.13 1.04 0 1.47-.4 2.25-1.13.94-.87 2.23-2.06 4.64-2.06s3.7 1.19 4.64 2.06c.79.73 1.22 1.13 2.25 1.13 1.04 0 1.47-.4 2.25-1.13.94-.87 2.23-2.06 4.64-2.06s3.7 1.19 4.64 2.06c.79.73 1.22 1.13 2.25 1.13 1.04 0 1.47-.4 2.25-1.13.94-.87 2.23-2.06 4.64-2.06.97 0 1.76.79 1.76 1.75 0 .97-.79 1.75-1.76 1.75-1.04 0-1.47.4-2.25 1.13-.93.87-2.22 2.06-4.64 2.06z" fill="#59cbef"/></g></g></g></svg>