<svg id="Layer_1" enable-background="new 0 0 64 64" viewBox="0 0 64 64" xmlns="http://www.w3.org/2000/svg"><g><g><path d="m50.23 17.09c-.78.48-1.57.96-2.34 1.42-.52.31-1.04.62-1.56.94-.21.12-.43.25-.65.38-3.7 2.21-7.41 4.36-11.15 6.45-.04.03-.08.05-.12.08-.08.05-.16.09-.24.13h-.01c-1.29.72-2.57 1.43-3.87 2.14-1.01.56-2.01 1.1-3.03 1.64-.28.16-.57.31-.85.47-.23.12-.47.24-.7.37-1.76.94-3.51 1.85-5.27 2.76v.01c-.23.11-.46.23-.68.34-.78.41-1.55.81-2.32 1.19-1.12.58-2.23 1.14-3.36 1.71-.23.11-.46.22-.69.34-1.45.72-2.88 1.42-4.34 2.12-.24.11-.48.23-.72.35-.6.29-1.2.58-1.81.87-1.26.6-2.51 1.19-3.77 1.78-4.69-10.7-3.11-24.18 3.95-33 .37-.47.76-.93 1.16-1.36.2-.21.4-.42.6-.62.15-.15.3-.3.45-.44.15-.16.31-.31.48-.46 1.01-.94 2.1-1.78 3.27-2.53.29-.19.59-.37.88-.54 1.08-.64 2.22-1.17 3.42-1.64 5.68-2.18 11.13-2.22 15.95-.87 1.27.35 2.48.8 3.65 1.33 6.65 3.04 11.65 8.73 13.67 14.64z" fill="#3eb9e3"/><path d="m50.23 17.09c-.78.48-1.57.96-2.34 1.42-.52.31-1.04.62-1.56.94-.21.12-.43.25-.65.38-3.96-9.5-15.49-17.94-28.89-14.96-.42.08-.85.19-1.28.31-.86.24-1.73.52-2.6.86-1.2.46-2.34 1-3.41 1.64-.3.16-.6.34-.88.53-.67.42-1.3.89-1.92 1.37.37-.47.76-.93 1.16-1.36.2-.21.4-.42.6-.62.15-.15.3-.3.45-.44.15-.16.31-.31.48-.46 1.01-.94 2.1-1.78 3.27-2.53.29-.19.59-.37.88-.54 1.08-.64 2.22-1.17 3.42-1.64 5.68-2.18 11.13-2.22 15.95-.87 1.27.35 2.48.8 3.65 1.33 6.65 3.04 11.65 8.73 13.67 14.64z" fill="#41acd8"/><path d="m50.22 17.09c-16.08 9.86-31.87 18.15-47.46 25.48l-.17 3.52c-.06 1.24 1.14 2.16 2.33 1.79 10.31-3.25 39.92-18.1 52.07-27.89 1.22-.98.65-2.93-.91-3.11-2.01-.23-3.95-.15-5.86.21z" fill="#3582a8"/><path d="m62.67 35.91c-.07-.13-.22-.23-.36-.21-2.29.08-4.7.31-7.21.67h-.03c-.02 0-.03.01-.05.02-2.54.37-5.2.89-7.98 1.55-.03 0-.06-.01-.09 0s-.06.03-.09.04c-3.11.75-6.38 1.68-9.82 2.81h-.06c-.03.01-.06.03-.09.05-2.6.85-5.31 1.82-8.1 2.89l-1.1-6.01-1.29-6.99v-.01l-.81-4.41-.31-1.7c-.02-.07-.05-.13-.09-.18-.08-.1-.22-.16-.35-.13-.21.04-.34.24-.31.44l.18.98.18 1 .81 4.39 1.28 6.98 1.09 5.91c-1.03.4-2.06.81-3.11 1.22l-2.03-5.12-2.48-6.24v-.01l-1.49-3.72-.81-2.04c-.07-.19-.3-.29-.49-.21-.2.08-.29.3-.21.49l.85 2.14 1.47 3.69 2.48 6.23 2.01 5.08c-1.09.44-2.18.91-3.3 1.37l-3.08-4.38-3.8-5.4-.01-.01-2.07-2.95-1.29-1.83c-.12-.17-.36-.21-.53-.09s-.21.36-.09.53l1.25 1.77 2.04 2.91.01.01 3.8 5.38 3.07 4.37c-.91.39-1.82.78-2.73 1.18l-3.82-3.97-4.66-4.85-2.3-2.4-.63-.65-.67-.7c-.15-.16-.39-.16-.54-.01-.15.14-.16.38-.01.53l.31.33.86.89 2.26 2.36 4.64 4.82 4.19 4.37h.01v.01l15.01 14.57c.07.07.17.11.27.11.02 0 .04 0 .07-.01l26.42-4.92c1.17-.21 2.11-1.05 2.47-2.2 2.83-9.02 3.29-16.59 1.26-20.74zm-7.89 1.28 1.26 11.16-5.9 1.29-2.64-11.03c2.52-.6 4.95-1.07 7.28-1.42zm-8.02 1.6 2.63 10.97-.01.05-9.11 1.99-2.73-10.38c3.21-1.05 6.28-1.91 9.22-2.63zm-9.94 2.87 2.7 10.31-1.06.23-9.23-7.83c2.61-1 5.15-1.91 7.59-2.71zm-4.25 21.34-14.46-14.05c.89-.39 1.77-.77 2.63-1.14l14.6 14.68zm3.68-.69-14.76-14.82c2.37-1.01 4.69-1.94 6.94-2.82l18.45 15.67zm2.94-9.5.73-.16c.03.01.06.03.1.03.03 0 .06 0 .09-.01.07-.02.12-.05.17-.1l8.96-1.96-1.75 9.24zm9.02 7.29 1.82-9.65 5.95-1.3-2.14 9.91zm12.49-3.67c-.28.88-1 1.52-1.9 1.69l-4.17.78 2.14-9.94 5.97-1.3c-.38 2.7-1.07 5.66-2.04 8.77zm-3.92-8.24-1.26-11.12c2.28-.32 4.47-.53 6.56-.61 1.08 2.39 1.32 6.02.77 10.39z" fill="#c6c1c1"/><g><path d="m26.91 25.56-22.23 12.81c-.2.12-.46.05-.57-.15l-2.04-3.52c-.12-.2-.05-.46.15-.57l22.23-12.81c.2-.12.46-.05.57.15l2.03 3.51c.13.21.07.47-.14.58z" fill="#e5e5e5"/></g><g><path d="m34.56 26.41-.4.08-.34.06c-3.31-17.58-20.81-22.29-21.16-22.38.29-.19.58-.37.88-.54 2.53.76 17.79 6.02 20.99 22.63.01.06.02.1.03.15z" fill="#59cbef"/></g><g><path d="m25.21 24.56c0 .86-.68 1.57-1.52 1.57s-1.52-.7-1.52-1.57c0-.86.68-1.57 1.52-1.57.84.01 1.52.71 1.52 1.57z" fill="#324a5e"/><g><path d="m6.96 35.12c0 .86-.68 1.57-1.52 1.57s-1.52-.7-1.52-1.57.68-1.57 1.52-1.57c.84.01 1.52.71 1.52 1.57z" fill="#324a5e"/></g></g></g><path d="m8.15 15.25c-.72 1.64-2.08 2.63-3.03 2.22-.95-.42-1.14-2.09-.42-3.73s2.08-2.63 3.03-2.22c.95.42 1.14 2.09.42 3.73z" fill="#3582a8"/><path d="m8.14 15.25c-.72 1.64-2.07 2.64-3.03 2.22-.52-.23-.82-.84-.85-1.6.13.38.37.65.69.79.96.42 2.31-.57 3.03-2.21.33-.75.47-1.49.43-2.12.29.73.22 1.82-.27 2.92z" fill="#255970"/><path d="m36.91 3.68c-.26.86-1.69 1.18-3.19.74-1.51-.46-2.52-1.52-2.25-2.39.15-.51.71-.83 1.45-.91 1.27.35 2.48.8 3.65 1.33.32.41.46.85.34 1.23z" fill="#3582a8"/><path d="m36.91 3.68c-.26.86-1.69 1.18-3.19.74-1.51-.46-2.52-1.52-2.25-2.39.01-.02.01-.04.02-.05.22.7 1.09 1.4 2.23 1.75 1.48.44 2.87.13 3.17-.69.07.23.08.45.02.64z" fill="#255970"/></g></svg>