<svg id="Layer_1" enable-background="new 0 0 64 64" viewBox="0 0 64 64" xmlns="http://www.w3.org/2000/svg"><g><g><path d="m32.37 41.44-20.51 7.62c-.22.08-.46-.03-.54-.25l-11.4-30.52c-.08-.22.03-.46.25-.54l20.51-7.62c.22-.08.46.03.54.25l11.4 30.52c.08.22-.03.46-.25.54z" fill="#e5e5e5"/><path d="m17.76 26.56c-1.04-.72-2.31-.85-3.4-2.11 0 1.67-.88 2.59-1.19 3.81-.29 1.1-.47 2.25.12 3.67.72 1.94 3.24 1.97 3.56.16.18.96.36 2.06.38 2.98l1.93-.71c-.51-.66-1.05-1.58-1.55-2.41 1.41.96 3.16-.66 2.46-2.54-.48-1.44-1.38-2.2-2.31-2.85zm-.95 4.48c0-.01 0-.01 0-.02z" fill="#d44231"/><g><g><g><path d="m5.17 20.11c.03.04.06.07.07.1s.02.05.01.07-.03.04-.07.05c-.04.02-.09.04-.15.06-.07.02-.12.04-.16.06-.04.01-.07.02-.09.02s-.04 0-.05-.01-.02-.02-.03-.03l-.36-.44-.95.35.02.55v.05c0 .02-.01.03-.03.04-.02.02-.04.03-.07.05s-.08.03-.13.05c-.06.02-.11.04-.14.05-.04.01-.06.01-.08 0s-.03-.03-.04-.06c-.02-.03-.02-.07-.02-.12l-.06-2.53c0-.03 0-.05.01-.06.01-.02.02-.03.04-.05s.05-.03.09-.05.09-.04.16-.06c.08-.03.14-.05.19-.07s.08-.02.11-.03c.03 0 .05 0 .07.01s.03.03.05.05zm-1.85-1.42.04 1.21.72-.27z" fill="#293b4e"/></g><path d="m5.27 21.71c-.32-.22-.7-.26-1.04-.64 0 .51-.27.79-.36 1.16-.09.33-.14.69.04 1.12.22.59.99.6 1.09.05.05.29.11.63.11.91l.59-.22c-.16-.2-.32-.48-.47-.73.43.29.96-.2.75-.78-.15-.44-.42-.67-.71-.87zm-.29 1.37c0-.01 0-.01 0 0 0-.01.01-.01 0 0z" fill="#d44231"/></g><g><g><path d="m29.7 40.77c0 .03 0 .05-.01.07s-.02.04-.04.05c-.02.02-.06.03-.1.05-.05.02-.11.04-.18.07-.07.02-.12.04-.16.06-.04.01-.07.02-.1.02s-.05 0-.06-.01c-.02-.01-.03-.02-.05-.04l-1.62-1.95c-.03-.04-.06-.07-.07-.1s-.02-.05-.01-.07.03-.04.06-.05c.03-.02.08-.04.14-.06s.1-.04.14-.05.06-.02.09-.02c.02 0 .04 0 .05.01s.03.02.04.04l.35.43.95-.35-.02-.57c0-.02 0-.04 0-.05s.01-.03.03-.04.04-.03.08-.04c.04-.02.09-.04.15-.06s.11-.04.15-.05.07-.01.09 0 .03.03.04.06.01.07.01.12zm-.57-1.45-.72.27.76.94z" fill="#293b4e"/></g><path d="m28.63 35.84c-.21-.57-.94-.6-1.08-.1-.05-.29-.11-.61-.13-.86l-.59.22c.18.22.36.5.51.76-.43-.35-1.01.16-.79.75.15.44.42.67.71.87.32.22.7.26 1.04.64 0-.51.27-.79.36-1.16.1-.34.15-.69-.03-1.12z" fill="#d44231"/></g></g></g><g><path d="m34.58 43.49h-20.73c-.55 0-1-.45-1-1v-31.41c0-.55.45-1 1-1h20.73c.55 0 1 .45 1 1v31.41c0 .56-.45 1-1 1z" fill="#eff3f5"/><path d="m24.21 23.64c.5-3.39 4.64-2.83 4.64 0 .07 1.79-.66 2.99-1.5 4.07-.93 1.21-2.39 2.73-3.14 4.55-.75-1.82-2.22-3.34-3.14-4.55-.84-1.09-1.57-2.28-1.5-4.07 0-2.83 4.14-3.39 4.64 0z" fill="#d44231"/><g><g><g><path d="m17.13 14.06c.02.05.03.09.03.12s0 .05-.02.07c-.02.01-.04.02-.08.03-.04 0-.09.01-.16.01s-.13 0-.17 0-.07-.01-.09-.01c-.02-.01-.04-.01-.04-.03-.01-.01-.02-.03-.02-.04l-.18-.54h-1.02l-.17.53c-.01.02-.01.04-.02.05s-.02.02-.04.03-.05.01-.09.02c-.04 0-.09 0-.15 0s-.11 0-.15-.01-.06-.01-.08-.03c-.01-.02-.02-.04-.01-.07 0-.03.01-.07.03-.12l.83-2.39c.01-.02.02-.04.03-.06.01-.01.03-.03.05-.03.02-.01.06-.01.1-.01h.17.2c.05 0 .09.01.11.01.03.01.05.02.06.03.01.02.02.04.03.06zm-1.24-1.98-.38 1.15h.77z" fill="#293b4e"/></g><path d="m15.92 15.4c.14-.97 1.33-.81 1.33 0 .02.51-.19.85-.43 1.16-.27.35-.68.78-.9 1.3-.21-.52-.63-.95-.9-1.3-.24-.31-.45-.65-.43-1.16 0-.81 1.19-.97 1.33 0z" fill="#d44231"/></g><g><g><path d="m32.88 41.91c-.01.03-.02.05-.03.06-.01.02-.03.03-.06.03-.03.01-.07.01-.11.01-.05 0-.11 0-.2 0-.07 0-.13 0-.17 0s-.08-.01-.1-.01c-.02-.01-.04-.02-.05-.03s-.02-.03-.03-.06l-.83-2.39c-.02-.05-.03-.09-.03-.12s0-.05.01-.07.04-.03.08-.03.09-.01.15-.01h.15c.04 0 .07.01.09.02s.04.02.04.03c.01.01.02.03.02.05l.17.53h1.02l.18-.54c.01-.02.01-.03.02-.04s.02-.02.04-.03.05-.01.09-.01h.17c.07 0 .12 0 .16.01.04 0 .07.01.08.03.02.01.02.04.02.07s-.01.07-.03.12zm-.02-1.56h-.77l.38 1.15z" fill="#293b4e"/></g><path d="m32.51 38.17c.14.97 1.33.81 1.33 0 .02-.51-.19-.85-.43-1.16-.27-.35-.68-.78-.9-1.3-.21.52-.63.95-.9 1.3-.24.31-.45.65-.43 1.16 0 .81 1.18.97 1.33 0z" fill="#d44231"/></g></g></g><g><path d="m40.35 47.7-20.65-7.23c-.22-.08-.34-.32-.26-.54l10.82-30.73c.08-.22.32-.33.54-.26l20.65 7.23c.22.08.34.32.26.54l-10.82 30.74c-.08.22-.32.33-.54.25z" fill="#e5e5e5"/><g><path d="m38.9 29.49-5.14 4.01-1.51-6.34 5.15-4.01z" fill="#d44231"/></g><g><g><g><path d="m33.15 13.91c0 .05 0 .09-.01.12s-.02.05-.04.06-.05.01-.09 0-.09-.03-.15-.05c-.07-.02-.12-.04-.16-.06s-.06-.03-.08-.04-.03-.03-.03-.04-.01-.03-.01-.05l.01-.57-.96-.34-.34.44c-.01.02-.02.03-.04.04-.01.01-.03.01-.05.01s-.05 0-.09-.01-.08-.02-.14-.04-.11-.04-.14-.06-.05-.03-.06-.05 0-.04.01-.07.04-.06.07-.1l1.58-1.98c.02-.02.03-.03.05-.04s.04-.01.06-.01c.03 0 .06.01.1.02s.1.03.16.05c.08.03.14.05.18.07.05.02.08.04.1.05.02.02.04.03.04.05.01.02.01.04.01.07zm-.52-2.28-.74.96.72.25z" fill="#293b4e"/></g><g><path d="m32.36 16.02-1.71 1.33-.5-2.11 1.71-1.34z" fill="#d44231"/></g></g><g><g><path d="m38.72 45.52c-.02.02-.03.04-.05.05s-.04.01-.07.01-.07-.01-.11-.02c-.05-.01-.11-.03-.19-.06-.07-.02-.12-.04-.16-.06s-.07-.03-.09-.05-.03-.03-.04-.05-.01-.04-.01-.06l.01-2.54c0-.05 0-.09.01-.12s.02-.05.04-.06.05-.01.08 0c.04.01.08.02.14.04s.1.04.14.05c.03.01.06.03.08.04s.03.03.03.04c0 .02.01.03 0 .05l-.01.55.96.34.35-.45c.01-.02.02-.03.03-.03.01-.01.03-.01.05-.01s.05.01.09.02.09.03.16.05c.06.02.11.04.15.06s.06.03.07.05.01.04-.01.07c-.01.03-.04.06-.07.1zm.49-1.48-.72-.25-.02 1.21z" fill="#293b4e"/></g><g><path d="m41.01 41.41-.5-2.11-1.72 1.33.5 2.11z" fill="#d44231"/></g></g></g></g><g><path d="m43.75 54.99-17.46-13.15c-.19-.14-.22-.4-.08-.59l19.68-25.99c.14-.19.41-.22.59-.08l17.47 13.16c.19.14.22.4.08.59l-19.69 25.98c-.14.19-.4.22-.59.08z" fill="#eff3f5"/><g><path d="m48.71 36.61c-.46-.62-1.62-1.22-2.55-1.39 0-.03.01-.05 0-.08.94-.15 2.16-.75 2.64-1.38.7-.92.5-2.24-.45-2.96-.94-.71-2.28-.54-2.97.38-.48.64-.73 1.97-.61 2.91-.03 0-.05.02-.07.02-.42-.84-1.31-1.79-2.04-2.06-1.08-.41-2.3.16-2.72 1.27s.12 2.33 1.21 2.74c.68.25 1.86.17 2.72-.13.04.08.12.14.18.21-1 .89-1.97 1.66-3.23 2.45l2.1 1.58c.43-1.33.95-2.51 1.52-3.76.07.03.13.08.21.1-.05.91.19 2.07.62 2.65.69.93 2.02 1.11 2.97.41.94-.71 1.16-2.03.47-2.96z" fill="#d44231"/></g><g><g><g><path d="m45.87 22.18c-.13-.18-.47-.36-.74-.41 0-.01 0-.02 0-.02.27-.04.63-.22.77-.4.2-.27.14-.65-.13-.86-.28-.21-.66-.16-.87.11-.14.19-.21.57-.18.85-.01 0-.01.01-.02.01-.12-.25-.38-.52-.6-.6-.32-.12-.67.05-.79.37s.04.68.35.8c.2.07.54.05.79-.04.01.02.03.04.05.06-.29.26-.58.48-.94.72l.61.46c.13-.39.28-.73.44-1.1l.06.03c-.02.27.05.6.18.77.2.27.59.32.87.12.29-.22.36-.6.15-.87z" fill="#d44231"/></g><g><path d="m47.15 20.67c-.02.05-.03.09-.05.11-.01.03-.03.04-.05.04s-.05-.01-.08-.03-.08-.05-.13-.09c-.06-.04-.1-.08-.13-.1-.03-.03-.05-.05-.06-.06-.01-.02-.02-.03-.02-.05 0-.01 0-.03.01-.05l.18-.54-.82-.61-.46.32c-.02.01-.03.02-.05.03s-.03 0-.05 0c-.02-.01-.05-.02-.08-.04s-.07-.05-.12-.08c-.05-.04-.09-.07-.12-.1s-.04-.05-.04-.07.01-.04.03-.06.05-.05.1-.07l2.11-1.41c.02-.01.04-.02.06-.03.02 0 .04 0 .06.01s.05.02.09.05c.04.02.08.06.14.1.07.05.12.09.16.12s.06.06.08.08.03.04.03.06 0 .04-.01.07zm.2-2.33-1 .68.61.46z" fill="#293b4e"/></g></g><g><g><path d="m44.35 47.99c.13.18.47.36.74.41v.02c-.27.04-.63.22-.77.4-.2.27-.14.65.13.86.28.21.66.16.87-.11.14-.19.21-.57.18-.85.01 0 .01-.01.02-.01.12.25.38.52.6.6.32.12.67-.05.79-.37s-.04-.68-.35-.8c-.2-.07-.54-.05-.79.04-.01-.02-.03-.04-.05-.06.29-.26.58-.48.94-.72l-.61-.46c-.13.39-.28.73-.44 1.1-.02-.01-.04-.02-.06-.03.02-.27-.05-.6-.18-.77-.2-.27-.59-.32-.87-.12-.29.22-.35.6-.15.87z" fill="#d44231"/></g><g><path d="m43.07 49.5c.02-.05.03-.09.05-.11.01-.03.03-.04.05-.04s.05.01.08.03.08.05.13.09c.06.04.1.08.13.1.03.03.05.05.07.06.01.02.02.03.02.05 0 .01 0 .03-.01.05l-.18.54.81.61.46-.32c.02-.01.03-.02.05-.03s.03 0 .05 0c.02.01.05.02.08.04s.07.05.12.08c.05.04.09.07.12.1s.04.05.04.07-.01.04-.03.06-.05.05-.1.07l-2.11 1.41c-.02.01-.04.02-.06.03-.02 0-.04 0-.06-.01s-.05-.03-.09-.05-.08-.06-.14-.1c-.07-.05-.12-.09-.16-.12s-.06-.06-.08-.08-.03-.04-.03-.06 0-.04.01-.07zm-.2 2.33 1-.68-.61-.46z" fill="#293b4e"/></g></g></g></g></g></svg>