<svg id="Layer_1" enable-background="new 0 0 64 64" viewBox="0 0 64 64" xmlns="http://www.w3.org/2000/svg"><g><g><g><g><g><path d="m2.73 47.69c.2.4.55.72.98.84.56.17 1.29.2 1.98.13.33-.04.64-.09.91-.17.46-.13.85-.45 1.07-.88 2.93-5.78 3.66-10.52.82-16.18-.54-1.07-.98-2.19-1.23-3.36-.01-.05-.02-.1-.03-.16-.09-.45-.16-.91-.2-1.39-.05-.54-.07-1.12-.04-1.75.02-.49.06-1.01.13-1.59.01-.16.04-.33.06-.5.17-1.21.52-2.68.67-4.11.23-1.75-.71-3.33-2.68-3.28-1.97-.05-2.9 1.53-2.67 3.28.03.25.06.5.1.76.17 1.18.43 2.36.57 3.36.02.17.05.34.06.5.07.58.11 1.1.13 1.59.02.64.01 1.21-.04 1.75-.05.49-.11.94-.2 1.39-.01.05-.02.1-.03.16-.25 1.17-.69 2.29-1.23 3.36-2.84 5.68-2.1 10.43.87 16.25z" fill="#e5e5e5"/><g fill="#d44231"><path d="m3.1 28.08c.37.04.75.07 1.12.1 1.01.05 2.03.02 3.04-.1-.01-.05-.02-.1-.03-.16-.09-.45-.16-.91-.2-1.39-.9.04-1.81.05-2.71.04-.33-.01-.66-.02-.98-.04-.05.49-.11.94-.2 1.39-.02.06-.03.11-.04.16z"/><path d="m3.24 23.2c.07.58.11 1.1.13 1.59.28.03.55.05.82.06.93.05 1.87.03 2.79-.06.02-.49.06-1.01.13-1.59-1.07.05-2.14.07-3.21.02-.21 0-.44-.01-.66-.02z"/></g></g><path d="m4.62 16.07c.13-.38 1.14-.44 1.83.08.78.62 1.02 2 .5 2.29-.24.13-.71-.56-.91-1.12-.07-.21-.22-.38-.4-.5-.45-.27-1.04-.34-1.02-.75z" fill="#fff" opacity=".5"/><path d="m3.24 23.2c.07.58.11 1.1.13 1.59.28.03.55.05.82.06-.07-.57-.17-1.11-.28-1.62-.22-.01-.45-.02-.67-.03z" fill="#a6422e" opacity=".5"/><path d="m3.24 23.2c.22.01.45.02.67.02-.51-2.26-1.31-3.88-1.31-3.88.17 1.18.43 2.36.57 3.36.03.17.06.33.07.5z" fill="#c6c1c1" opacity=".5"/><path d="m3.1 28.08c.37.04.75.07 1.12.1.07-.54.1-1.07.1-1.61-.33-.01-.66-.02-.98-.04-.05.49-.11.94-.2 1.39-.02.06-.03.11-.04.16z" fill="#a6422e" opacity=".5"/><g fill="#c6c1c1"><path d="m3.33 26.53c.33.02.66.03.98.04-.01-.59-.05-1.17-.12-1.73-.28-.01-.55-.03-.82-.06.02.64.01 1.21-.04 1.75z" opacity=".5"/><path d="m2.73 47.69c.2.4.55.72.98.84.56.17 1.29.2 1.98.13-.45-.65-6.6-9.91-2.57-17.04.62-1.1.96-2.27 1.1-3.45-.37-.02-.75-.05-1.12-.1-.25 1.17-.69 2.29-1.23 3.36-2.85 5.69-2.11 10.44.86 16.26z" opacity=".5"/></g></g><g><g><path d="m9.65 49.78c.23.45.62.82 1.11.95.63.19 1.47.23 2.24.15.37-.04.72-.1 1.04-.2.53-.15.96-.51 1.21-.99 3.32-6.55 4.15-11.92.93-18.33-.61-1.21-1.11-2.48-1.39-3.8-.01-.06-.02-.12-.03-.18-.1-.51-.18-1.03-.23-1.58-.05-.61-.08-1.27-.04-1.99.02-.55.07-1.14.15-1.8.01-.18.04-.37.07-.57.19-1.37.59-3.03.76-4.66.26-1.98-.8-3.77-3.04-3.71-2.23-.05-3.29 1.73-3.03 3.71.03.29.07.57.12.86.19 1.34.49 2.67.65 3.8.03.2.05.39.07.57.08.65.13 1.25.15 1.8.03.73.01 1.37-.04 1.99-.05.55-.13 1.06-.23 1.58-.01.06-.02.12-.03.18-.28 1.33-.78 2.59-1.39 3.8-3.26 6.44-2.41 11.83.95 18.42z" fill="#eff3f5"/><g fill="#d44231"><path d="m10.06 27.56c.42.05.85.08 1.27.11 1.15.05 2.3.02 3.44-.11-.01-.06-.02-.12-.03-.18-.1-.51-.18-1.03-.23-1.58-1.02.05-2.05.06-3.07.04-.37-.01-.74-.02-1.11-.04-.05.55-.13 1.06-.23 1.58-.01.07-.02.12-.04.18z"/><path d="m10.22 22.02c.08.65.13 1.25.15 1.8.31.03.62.05.93.07 1.06.05 2.11.03 3.16-.07.02-.55.07-1.14.15-1.8-1.21.06-2.42.07-3.64.03-.24 0-.5-.01-.75-.03z"/></g></g><path d="m11.79 13.95c.15-.43 1.29-.5 2.08.09.88.7 1.16 2.27.56 2.59-.28.14-.81-.64-1.03-1.27-.08-.23-.25-.43-.46-.56-.51-.31-1.18-.39-1.15-.85z" fill="#fff" opacity=".5"/><path d="m10.22 22.02c.08.65.13 1.25.15 1.8.31.03.62.05.93.07-.08-.65-.19-1.26-.32-1.84-.25 0-.51-.01-.76-.03z" fill="#c2382e" opacity=".5"/><path d="m10.22 22.02c.25.01.51.03.76.03-.57-2.57-1.48-4.4-1.48-4.4.19 1.34.49 2.67.65 3.8.03.2.06.39.07.57z" fill="#e5e5e5" opacity=".5"/><path d="m10.06 27.56c.42.05.85.08 1.27.11.08-.61.11-1.22.11-1.82-.37-.01-.74-.02-1.11-.04-.05.55-.13 1.06-.23 1.58-.01.06-.02.11-.04.17z" fill="#c2382e" opacity=".5"/><g fill="#e5e5e5"><path d="m10.33 25.81c.37.02.74.03 1.11.04-.01-.67-.05-1.33-.14-1.96-.31-.01-.62-.03-.93-.07.03.73.01 1.37-.04 1.99z" opacity=".5"/><path d="m9.65 49.78c.23.45.62.82 1.11.95.63.19 1.47.23 2.24.15-.5-.73-7.48-11.23-2.91-19.31.7-1.25 1.08-2.57 1.25-3.91-.42-.03-.85-.06-1.27-.11-.28 1.33-.78 2.59-1.39 3.8-3.24 6.45-2.39 11.84.97 18.43z" opacity=".5"/></g></g><g><g><path d="m17.85 52.51c.26.52.72.94 1.27 1.1.73.22 1.69.27 2.59.17.42-.05.83-.12 1.2-.23.61-.17 1.11-.59 1.39-1.15 3.83-7.56 4.78-13.75 1.07-21.14-.71-1.4-1.28-2.86-1.61-4.39-.02-.07-.02-.13-.04-.2-.12-.59-.2-1.19-.27-1.82-.06-.71-.09-1.46-.05-2.29.02-.64.08-1.32.17-2.07.02-.21.05-.43.08-.66.22-1.58.68-3.5.88-5.38.3-2.28-.93-4.35-3.5-4.29-2.57-.06-3.79 2-3.49 4.29.04.33.08.66.13.99.22 1.55.57 3.08.75 4.39.03.23.06.45.08.66.09.75.15 1.44.17 2.07.03.84.01 1.59-.05 2.29-.06.64-.15 1.22-.27 1.82-.02.07-.02.13-.04.2-.32 1.53-.9 2.99-1.61 4.39-3.7 7.43-2.73 13.65 1.15 21.25z" fill="#e5e5e5"/><g fill="#d44231"><path d="m18.33 26.88c.49.05.98.09 1.46.13 1.32.06 2.65.02 3.97-.13-.02-.07-.02-.13-.04-.2-.12-.59-.2-1.19-.27-1.82-1.18.06-2.36.07-3.54.05-.42-.01-.86-.02-1.28-.05-.06.64-.15 1.22-.27 1.82 0 .07-.01.13-.03.2z"/><path d="m18.51 20.49c.09.75.15 1.44.17 2.07.36.04.72.06 1.08.08 1.22.06 2.44.04 3.65-.08.02-.64.08-1.32.17-2.07-1.4.07-2.79.09-4.19.03-.29 0-.59-.01-.88-.03z"/></g></g><path d="m20.32 11.18c.17-.5 1.49-.57 2.4.11 1.02.81 1.33 2.62.65 2.99-.32.16-.93-.73-1.19-1.47-.09-.27-.28-.5-.53-.65-.59-.36-1.36-.45-1.33-.98z" fill="#fff" opacity=".5"/><path d="m18.51 20.49c.09.75.15 1.44.17 2.07.36.04.72.06 1.08.08-.09-.75-.22-1.45-.37-2.12-.29 0-.59-.01-.88-.03z" fill="#a6422e" opacity=".5"/><path d="m18.51 20.49c.29.02.59.03.88.03-.66-2.96-1.71-5.08-1.71-5.08.22 1.55.57 3.08.75 4.39.04.23.07.45.08.66z" fill="#c6c1c1" opacity=".5"/><path d="m18.33 26.88c.49.05.98.09 1.46.13.09-.71.13-1.4.13-2.1-.42-.01-.86-.02-1.28-.05-.06.64-.15 1.22-.27 1.82-.01.07-.02.13-.04.2z" fill="#a6422e" opacity=".5"/><path d="m18.64 24.85c.42.02.86.04 1.28.05-.01-.78-.06-1.53-.16-2.26-.36-.02-.72-.04-1.08-.08.04.84.01 1.59-.04 2.29z" fill="#e5e5e5" opacity=".5"/><path d="m17.85 52.51c.26.52.72.94 1.27 1.1.73.22 1.69.27 2.59.17-.58-.85-8.62-12.96-3.36-22.27.81-1.44 1.25-2.97 1.44-4.51-.49-.03-.98-.07-1.46-.13-.32 1.53-.9 2.99-1.61 4.39-3.72 7.43-2.75 13.65 1.13 21.25z" fill="#c6c1c1" opacity=".5"/></g></g><g><g><g><path d="m61.27 47.69c-.2.4-.55.72-.98.84-.56.17-1.29.2-1.98.13-.33-.04-.64-.09-.91-.17-.46-.13-.85-.45-1.07-.88-2.93-5.78-3.66-10.52-.82-16.18.54-1.07.98-2.19 1.23-3.36.01-.05.02-.1.03-.16.09-.45.16-.91.2-1.39.05-.54.07-1.12.04-1.75-.02-.49-.06-1.01-.13-1.59-.01-.16-.04-.33-.06-.5-.17-1.21-.52-2.68-.67-4.11-.23-1.75.71-3.33 2.68-3.28 1.97-.05 2.9 1.53 2.67 3.28-.03.25-.06.5-.1.76-.17 1.18-.43 2.36-.57 3.36-.02.17-.05.34-.06.5-.07.58-.11 1.1-.13 1.59-.02.64-.01 1.21.04 1.75.05.49.11.94.2 1.39.01.05.02.1.03.16.25 1.17.69 2.29 1.23 3.36 2.84 5.68 2.1 10.43-.87 16.25z" fill="#e5e5e5"/><g fill="#d44231"><path d="m60.9 28.08c-.37.04-.75.07-1.12.1-1.01.05-2.03.02-3.04-.1.01-.05.02-.1.03-.16.09-.45.16-.91.2-1.39.9.04 1.81.05 2.71.04.33-.01.66-.02.98-.04.05.49.11.94.2 1.39.02.06.03.11.04.16z"/><path d="m60.76 23.2c-.07.58-.11 1.1-.13 1.59-.28.03-.55.05-.82.06-.93.05-1.87.03-2.79-.06-.02-.49-.06-1.01-.13-1.59 1.07.05 2.14.07 3.21.02.21 0 .44-.01.66-.02z"/></g></g><path d="m59.38 16.07c-.13-.38-1.14-.44-1.83.08-.78.62-1.02 2-.5 2.29.24.13.71-.56.91-1.12.07-.21.22-.38.4-.5.45-.27 1.04-.34 1.02-.75z" fill="#fff" opacity=".5"/><path d="m60.76 23.2c-.07.58-.11 1.1-.13 1.59-.28.03-.55.05-.82.06.07-.57.17-1.11.28-1.62.22-.01.45-.02.67-.03z" fill="#a6422e" opacity=".5"/><path d="m60.76 23.2c-.22.01-.45.02-.67.02.51-2.26 1.31-3.88 1.31-3.88-.17 1.18-.43 2.36-.57 3.36-.03.17-.06.33-.07.5z" fill="#c6c1c1" opacity=".5"/><path d="m60.9 28.08c-.37.04-.75.07-1.12.1-.07-.54-.1-1.07-.1-1.61.33-.01.66-.02.98-.04.05.49.11.94.2 1.39.02.06.03.11.04.16z" fill="#a6422e" opacity=".5"/><g fill="#c6c1c1"><path d="m60.67 26.53c-.33.02-.66.03-.98.04.01-.59.05-1.17.12-1.73.28-.01.55-.03.82-.06-.02.64-.01 1.21.04 1.75z" opacity=".5"/><path d="m61.27 47.69c-.2.4-.55.72-.98.84-.56.17-1.29.2-1.98.13.45-.65 6.6-9.91 2.57-17.04-.62-1.1-.96-2.27-1.1-3.45.37-.02.75-.05 1.12-.1.25 1.17.69 2.29 1.23 3.36 2.85 5.69 2.11 10.44-.86 16.26z" opacity=".5"/></g></g><g><g><path d="m54.35 49.78c-.23.45-.62.82-1.11.95-.63.19-1.47.23-2.24.15-.37-.04-.72-.1-1.04-.2-.53-.15-.96-.51-1.21-.99-3.32-6.55-4.15-11.92-.93-18.33.61-1.21 1.11-2.48 1.39-3.8l.03-.18c.1-.51.18-1.03.23-1.58.05-.61.08-1.27.04-1.99-.02-.55-.07-1.14-.15-1.8-.01-.18-.04-.37-.07-.57-.19-1.37-.59-3.03-.76-4.66-.26-1.98.8-3.77 3.04-3.71 2.23-.05 3.29 1.73 3.03 3.71-.03.29-.07.57-.12.86-.19 1.34-.49 2.67-.65 3.8-.03.2-.05.39-.07.57-.08.65-.13 1.25-.15 1.8-.03.73-.01 1.37.04 1.99.05.55.13 1.06.23 1.58.01.06.02.12.03.18.28 1.33.78 2.59 1.39 3.8 3.26 6.44 2.41 11.83-.95 18.42z" fill="#eff3f5"/><g fill="#d44231"><path d="m53.94 27.56c-.42.05-.85.08-1.27.11-1.15.05-2.3.02-3.44-.11.01-.06.02-.12.03-.18.1-.51.18-1.03.23-1.58 1.02.05 2.05.06 3.07.04.37-.01.74-.02 1.11-.04.05.55.13 1.06.23 1.58.01.07.02.12.04.18z"/><path d="m53.78 22.02c-.08.65-.13 1.25-.15 1.8-.31.03-.62.05-.93.07-1.06.05-2.11.03-3.16-.07-.02-.55-.07-1.14-.15-1.8 1.21.06 2.42.07 3.64.03.24 0 .5-.01.75-.03z"/></g></g><path d="m52.21 13.95c-.15-.43-1.29-.5-2.08.09-.88.7-1.16 2.27-.56 2.59.28.14.81-.64 1.03-1.27.08-.23.25-.43.46-.56.51-.31 1.18-.39 1.15-.85z" fill="#fff" opacity=".5"/><path d="m53.78 22.02c-.08.65-.13 1.25-.15 1.8-.31.03-.62.05-.93.07.08-.65.19-1.26.32-1.84.25 0 .51-.01.76-.03z" fill="#c2382e" opacity=".5"/><path d="m53.78 22.02c-.25.01-.51.03-.76.03.57-2.57 1.48-4.4 1.48-4.4-.19 1.34-.49 2.67-.65 3.8-.03.2-.06.39-.07.57z" fill="#e5e5e5" opacity=".5"/><path d="m53.94 27.56c-.42.05-.85.08-1.27.11-.08-.61-.11-1.22-.11-1.82.37-.01.74-.02 1.11-.04.05.55.13 1.06.23 1.58.01.06.02.11.04.17z" fill="#c2382e" opacity=".5"/><g fill="#e5e5e5"><path d="m53.67 25.81c-.37.02-.74.03-1.11.04.01-.67.05-1.33.14-1.96.31-.01.62-.03.93-.07-.03.73-.01 1.37.04 1.99z" opacity=".5"/><path d="m54.35 49.78c-.23.45-.62.82-1.11.95-.63.19-1.47.23-2.24.15.5-.73 7.48-11.23 2.91-19.31-.7-1.25-1.08-2.57-1.25-3.91.42-.03.85-.06 1.27-.11.28 1.33.78 2.59 1.39 3.8 3.24 6.45 2.39 11.84-.97 18.43z" opacity=".5"/></g></g><g><g><path d="m46.15 52.51c-.26.52-.72.94-1.27 1.1-.73.22-1.69.27-2.59.17-.42-.05-.83-.12-1.2-.23-.61-.17-1.11-.59-1.39-1.15-3.83-7.56-4.78-13.75-1.07-21.14.71-1.4 1.28-2.86 1.61-4.39.02-.07.02-.13.04-.2.12-.59.2-1.19.27-1.82.06-.71.09-1.46.05-2.29-.02-.64-.08-1.32-.17-2.07-.02-.21-.05-.43-.08-.66-.22-1.58-.68-3.5-.88-5.38-.3-2.28.93-4.35 3.5-4.29 2.57-.06 3.79 2 3.49 4.29-.04.33-.08.66-.13.99-.22 1.55-.57 3.08-.75 4.39-.03.23-.06.45-.08.66-.09.75-.15 1.44-.17 2.07-.03.84-.01 1.59.05 2.29.06.64.15 1.22.27 1.82.02.07.02.13.04.2.32 1.53.9 2.99 1.61 4.39 3.7 7.43 2.73 13.65-1.15 21.25z" fill="#e5e5e5"/><g fill="#d44231"><path d="m45.67 26.88c-.49.05-.98.09-1.46.13-1.32.06-2.65.02-3.97-.13.02-.07.02-.13.04-.2.12-.59.2-1.19.27-1.82 1.18.06 2.36.07 3.54.05.42-.01.86-.02 1.28-.05.06.64.15 1.22.27 1.82 0 .07.01.13.03.2z"/><path d="m45.49 20.49c-.09.75-.15 1.44-.17 2.07-.36.04-.72.06-1.08.08-1.22.06-2.44.04-3.65-.08-.02-.64-.08-1.32-.17-2.07 1.4.07 2.79.09 4.19.03.29 0 .59-.01.88-.03z"/></g></g><path d="m43.68 11.18c-.17-.5-1.49-.57-2.4.11-1.02.81-1.33 2.62-.65 2.99.32.16.93-.73 1.19-1.47.09-.27.28-.5.53-.65.59-.36 1.36-.45 1.33-.98z" fill="#fff" opacity=".5"/><path d="m45.49 20.49c-.09.75-.15 1.44-.17 2.07-.36.04-.72.06-1.08.08.09-.75.22-1.45.37-2.12.29 0 .59-.01.88-.03z" fill="#a6422e" opacity=".5"/><path d="m45.49 20.49c-.29.02-.59.03-.88.03.66-2.96 1.71-5.08 1.71-5.08-.22 1.55-.57 3.08-.75 4.39-.04.23-.07.45-.08.66z" fill="#c6c1c1" opacity=".5"/><path d="m45.67 26.88c-.49.05-.98.09-1.46.13-.09-.71-.13-1.4-.13-2.1.42-.01.86-.02 1.28-.05.06.64.15 1.22.27 1.82.01.07.02.13.04.2z" fill="#a6422e" opacity=".5"/><path d="m45.36 24.85c-.42.02-.86.04-1.28.05.01-.78.06-1.53.16-2.26.36-.02.72-.04 1.08-.08-.04.84-.01 1.59.04 2.29z" fill="#e5e5e5" opacity=".5"/><path d="m46.15 52.51c-.26.52-.72.94-1.27 1.1-.73.22-1.69.27-2.59.17.58-.85 8.62-12.96 3.36-22.27-.81-1.44-1.25-2.97-1.44-4.51.49-.03.98-.07 1.46-.13.32 1.53.9 2.99 1.61 4.39 3.72 7.43 2.75 13.65-1.13 21.25z" fill="#c6c1c1" opacity=".5"/></g></g></g><g><g><path d="m35.76 56.1c-.31.61-.84 1.11-1.5 1.29-.86.26-1.99.31-3.04.2-.5-.06-.98-.14-1.41-.27-.71-.2-1.3-.69-1.64-1.35-4.5-8.88-5.62-16.16-1.26-24.84.83-1.64 1.51-3.36 1.89-5.15.02-.08.03-.16.05-.24.14-.69.24-1.39.31-2.14.07-.83.1-1.72.06-2.69-.03-.75-.09-1.55-.2-2.43-.02-.25-.06-.51-.09-.77-.26-1.85-.79-4.11-1.04-6.32-.35-2.69 1.09-5.11 4.11-5.04 3.02-.07 4.46 2.35 4.1 5.03-.05.39-.09.77-.16 1.16-.26 1.82-.67 3.62-.88 5.15-.04.27-.07.53-.09.77-.11.89-.18 1.69-.2 2.43-.04.99-.01 1.86.06 2.69.07.75.18 1.44.31 2.14.02.08.03.16.05.24.38 1.8 1.06 3.51 1.89 5.15 4.38 8.75 3.24 16.06-1.32 24.99z" fill="#eff3f5"/><g fill="#d44231"><path d="m35.19 25.98c-.57.06-1.15.11-1.72.15-1.55.07-3.12.03-4.67-.15.02-.08.03-.16.05-.24.14-.69.24-1.39.31-2.14 1.39.06 2.77.08 4.16.06.5-.01 1.01-.03 1.51-.06.07.75.18 1.44.31 2.14.03.09.04.16.05.24z"/><path d="m34.98 18.48c-.11.89-.18 1.69-.2 2.43-.43.05-.84.07-1.27.09-1.43.07-2.87.05-4.29-.09-.03-.75-.09-1.55-.2-2.43 1.65.08 3.28.1 4.93.04.34 0 .69-.02 1.03-.04z"/></g></g><path d="m32.85 7.53c-.2-.59-1.75-.68-2.82.13-1.2.95-1.57 3.08-.77 3.52.38.19 1.09-.86 1.39-1.72.11-.32.33-.59.62-.76.72-.43 1.63-.54 1.58-1.17z" fill="#fff" opacity=".5"/><path d="m34.98 18.48c-.11.89-.18 1.69-.2 2.43-.43.05-.84.07-1.27.09.11-.88.26-1.71.43-2.49.35.01.7-.01 1.04-.03z" fill="#c2382e" opacity=".5"/><path d="m34.98 18.48c-.34.02-.69.04-1.04.04.78-3.48 2.01-5.97 2.01-5.97-.26 1.82-.67 3.62-.88 5.15-.03.27-.07.53-.09.78z" fill="#e5e5e5" opacity=".5"/><path d="m35.19 25.98c-.57.06-1.15.11-1.72.15-.11-.83-.15-1.65-.15-2.47.5-.01 1.01-.03 1.51-.06.07.75.18 1.44.31 2.14.03.09.04.16.05.24z" fill="#c2382e" opacity=".5"/><g fill="#e5e5e5"><path d="m34.83 23.61c-.5.03-1.01.05-1.51.06.01-.91.07-1.8.18-2.66.43-.02.84-.05 1.27-.09-.03.98 0 1.86.06 2.69z" opacity=".5"/><path d="m35.76 56.1c-.31.61-.84 1.11-1.5 1.29-.86.26-1.99.31-3.04.2.68-1 10.13-15.22 3.95-26.17-.95-1.69-1.47-3.49-1.69-5.29.57-.04 1.15-.08 1.72-.15.38 1.8 1.06 3.51 1.89 5.15 4.37 8.73 3.23 16.04-1.33 24.97z" opacity=".5"/></g></g></g></svg>