<svg id="Layer_1" enable-background="new 0 0 64 64" viewBox="0 0 64 64" xmlns="http://www.w3.org/2000/svg"><g><path d="m63.92 32c0 1.58-.12 3.13-.34 4.65v.01c-.64 4.37-2.17 8.46-4.41 12.06-1.03 1.68-2.22 3.25-3.54 4.7-5.84 6.4-14.25 10.42-23.61 10.42-9.43 0-17.91-4.09-23.74-10.58-1.26-1.39-2.39-2.9-3.38-4.5-.73-1.17-1.38-2.39-1.96-3.66-.75-1.65-1.36-3.38-1.82-5.17v-.01c-.29-1.13-.53-2.3-.69-3.48 0 0 0 0 0-.01-.15-1.09-.25-2.18-.28-3.3-.01-.01-.01-.01 0-.02-.01-.37-.02-.74-.02-1.11 0-1.87.16-3.71.48-5.5.34-1.98.87-3.89 1.56-5.73.2-.53.41-1.05.64-1.56v-.01c.73-1.66 1.6-3.25 2.59-4.74 0 0 0-.01.01-.01 5.7-8.61 15.49-14.3 26.61-14.3 5.96 0 11.53 1.63 16.3 4.47 1.33.79 2.59 1.67 3.78 2.64.01.01.01.01.01.01.82.66 1.6 1.36 2.35 2.1 1.37 1.35 2.62 2.82 3.72 4.4 1.96 2.8 3.48 5.93 4.46 9.29.53 1.81.91 3.7 1.11 5.63.1.99.16 2 .16 3.01.01.1.01.21.01.3z" fill="#eff3f5"/><path d="m56.97 51.85c-.42.54-.88 1.07-1.34 1.57-5.84 6.4-14.25 10.42-23.61 10.42-9.43 0-17.91-4.09-23.74-10.58-1.26-1.39-2.39-2.9-3.38-4.5-.73-1.17-1.38-2.39-1.96-3.66-.75-1.65-1.36-3.38-1.82-5.17v-.01c-.29-1.13-.53-2.3-.69-3.48 0 0 0 0 0-.01-.15-1.09-.25-2.18-.28-3.3-.01-.01-.01-.01 0-.02-.01-.37-.02-.74-.02-1.11 0-1.87.16-3.71.48-5.5.34-1.98.87-3.89 1.56-5.73.2-.53.41-1.05.64-1.56v-.01c.73-1.66 1.6-3.25 2.59-4.74 0 0 0-.01.01-.01 1.84-2.79 4.11-5.26 6.72-7.34-.57.74-1.13 1.5-1.65 2.29-.01 0-.01.01-.01.01-1 1.5-1.86 3.08-2.59 4.74v.01c-.23.51-.45 1.03-.64 1.56-.69 1.84-1.22 3.75-1.56 5.73-.31 1.79-.48 3.63-.48 5.5 0 .37.01.74.03 1.11-.01.01-.01.01 0 .02.03 1.12.13 2.21.28 3.3v.01c.16 1.18.4 2.34.69 3.48v.01c.46 1.79 1.07 3.52 1.82 5.17v.01c.58 1.26 1.23 2.49 1.96 3.66.99 1.6 2.12 3.1 3.38 4.5 5.83 6.49 14.3 10.58 23.74 10.58 7.5-.01 14.42-2.61 19.87-6.95z" fill="#dededf"/><g fill="#e5e5e5"><path d="m16.3 57c1.01 1 1.5 2.13 1.11 2.53-.39.39-1.52-.11-2.53-1.11s-1.5-2.13-1.11-2.53c.4-.39 1.53.1 2.53 1.11z"/><path d="m20.93 57.59c1.21.75 1.9 1.81 1.55 2.38s-1.62.42-2.83-.33-1.9-1.81-1.55-2.38c.36-.56 1.62-.42 2.83.33z"/><path d="m43.02 60.06c-1.23.71-2.5.82-2.83.24s.39-1.62 1.63-2.33c1.23-.71 2.5-.82 2.83-.24s-.4 1.62-1.63 2.33z"/><path d="m48.05 59c-1.08.92-2.31 1.26-2.74.76-.43-.51.09-1.67 1.17-2.59s2.31-1.26 2.74-.76c.43.51-.09 1.67-1.17 2.59z"/><path d="m26.13 58.04c1.15.71 1.72 1.88 1.28 2.6-.45.72-1.74.73-2.9.01-1.15-.71-1.72-1.88-1.28-2.6.45-.72 1.75-.72 2.9-.01z"/><path d="m31.03 57.85c1.36 0 2.46.75 2.46 1.69 0 .93-1.1 1.69-2.46 1.69s-2.46-.76-2.46-1.69c.01-.93 1.11-1.69 2.46-1.69z"/><path d="m36.26 57.79c1.33-.29 2.55.17 2.74 1.03s-.74 1.78-2.06 2.07c-1.33.29-2.55-.17-2.74-1.03-.19-.85.73-1.78 2.06-2.07z"/><path d="m34.3 52.47c1.48-.32 2.89.35 3.14 1.5s-.75 2.35-2.23 2.67-2.89-.35-3.14-1.5c-.26-1.15.74-2.35 2.23-2.67z"/><path d="m26.96 56.33c-1.24-.86-1.68-2.36-.99-3.36.69-.99 2.26-1.1 3.5-.25 1.24.86 1.68 2.36.99 3.36-.7 1-2.26 1.11-3.5.25z"/><path d="m29.44 50.26c-1.29-.9-1.64-2.63-.78-3.86.86-1.24 2.61-1.51 3.9-.62 1.29.9 1.64 2.63.78 3.86-.86 1.24-2.61 1.52-3.9.62z"/><path d="m26.44 42.92c-1.29-.9-1.59-2.69-.68-4.02.92-1.32 2.71-1.67 4.01-.77 1.29.9 1.59 2.69.68 4.02-.92 1.32-2.72 1.66-4.01.77z"/><path d="m33.44 42.92c-1.29-.9-1.59-2.69-.68-4.02.92-1.32 2.71-1.67 4.01-.77 1.29.9 1.59 2.69.68 4.02-.93 1.32-2.72 1.66-4.01.77z"/><path d="m29.59 34.91c-1.29-.9-1.59-2.69-.68-4.02.92-1.32 2.71-1.67 4.01-.77 1.29.9 1.59 2.69.68 4.02-.93 1.32-2.72 1.66-4.01.77z"/><path d="m23.02 34.68c-1.23-.71-1.62-2.34-.87-3.65.75-1.3 2.36-1.78 3.6-1.07 1.23.71 1.62 2.34.87 3.65-.76 1.3-2.37 1.78-3.6 1.07z"/><path d="m17.74 34.48c-1.41-.2-2.38-1.58-2.16-3.07s1.53-2.53 2.94-2.33 2.38 1.58 2.16 3.07c-.21 1.5-1.53 2.54-2.94 2.33z"/><path d="m11.81 33.22c-1.14-.16-1.87-1.61-1.63-3.24s1.35-2.81 2.48-2.65c1.14.16 1.87 1.61 1.63 3.24-.23 1.63-1.34 2.81-2.48 2.65z"/><path d="m7.17 31.96c-1.14-.16-1.87-1.61-1.63-3.24s1.35-2.81 2.48-2.65c1.14.16 1.87 1.61 1.63 3.24-.23 1.63-1.34 2.81-2.48 2.65z"/><path d="m2.96 29.85c-.74-.26-.92-1.72-.38-3.27.53-1.55 1.57-2.61 2.32-2.35.74.26.92 1.72.38 3.27-.54 1.56-1.57 2.61-2.32 2.35z"/><path d="m2.96 24.07c-.43 1.56-1.47 2.64-2.35 2.43.34-1.98.87-3.89 1.56-5.73.86.27 1.21 1.73.79 3.3z"/><path d="m36.31 34.91c-1.29-.9-1.59-2.69-.68-4.02.92-1.32 2.71-1.67 4.01-.77 1.29.9 1.59 2.69.68 4.02-.92 1.32-2.72 1.66-4.01.77z"/><path d="m43.53 34.18c-1.29-.9-1.59-2.69-.68-4.02.92-1.32 2.71-1.67 4.01-.77 1.29.9 1.59 2.69.68 4.02-.93 1.32-2.72 1.67-4.01.77z"/><path d="m51.15 33.6c-1.26 0-2.28-1.23-2.28-2.75s1.02-2.75 2.28-2.75 2.28 1.23 2.28 2.75c-.01 1.52-1.03 2.75-2.28 2.75z"/><path d="m57 31.9c-1.06.29-2.24-.67-2.64-2.14s.14-2.89 1.2-3.17c1.06-.29 2.24.67 2.64 2.14.4 1.46-.14 2.88-1.2 3.17z"/><path d="m60.62 30.84c-.81.22-1.82-.89-2.25-2.48s-.12-3.05.7-3.27c.81-.22 1.82.89 2.25 2.48.42 1.58.11 3.05-.7 3.27z"/><path d="m63.75 28.69c-.05.03-.1.05-.15.06-.81.22-1.81-.9-2.25-2.48-.42-1.59-.12-3.05.7-3.27.18-.05.39-.03.59.05.54 1.82.91 3.71 1.11 5.64z"/><path d="m60.33 22.47c-.54.31-1.65-.59-2.48-2.01-.82-1.42-1.05-2.83-.5-3.15.54-.31 1.65.59 2.48 2.01.82 1.43 1.05 2.84.5 3.15z"/><path d="m57.39 24.17c-.6.35-1.75-.53-2.58-1.95-.82-1.42-1-2.86-.4-3.2.6-.35 1.75.53 2.58 1.95.82 1.42 1 2.85.4 3.2z"/><path d="m53.7 25.57c-.83.48-2.17-.29-2.99-1.71s-.82-2.96.01-3.44 2.17.29 2.99 1.71.82 2.96-.01 3.44z"/><path d="m48.64 26.66c-1.05.6-2.56-.06-3.38-1.49-.82-1.42-.64-3.07.4-3.67 1.05-.6 2.56.06 3.38 1.49.82 1.42.64 3.07-.4 3.67z"/><path d="m42.91 27.35c-1.12.65-2.7.02-3.52-1.41-.82-1.42-.58-3.1.54-3.75s2.7-.02 3.52 1.41c.83 1.43.58 3.1-.54 3.75z"/><path d="m36.51 27.89c-1.17.67-2.78.07-3.61-1.36-.82-1.42-.54-3.12.63-3.8 1.17-.67 2.78-.07 3.61 1.36.82 1.43.54 3.13-.63 3.8z"/><path d="m28.13 28.19c-1.3-.35-2.02-1.92-1.59-3.51s1.83-2.59 3.13-2.24 2.02 1.92 1.59 3.51c-.42 1.58-1.83 2.59-3.13 2.24z"/><path d="m22.03 27.65c-1.3-.35-2.02-1.92-1.59-3.51s1.83-2.59 3.13-2.24 2.02 1.92 1.59 3.51c-.42 1.58-1.82 2.59-3.13 2.24z"/><path d="m16.43 26.89c-1.13-.3-1.7-1.84-1.28-3.42.43-1.59 1.69-2.63 2.82-2.33s1.7 1.84 1.28 3.42c-.43 1.59-1.69 2.63-2.82 2.33z"/><path d="m11.25 25.71c-.98-.38-1.28-1.93-.68-3.46s1.88-2.46 2.86-2.08 1.28 1.93.68 3.46-1.88 2.46-2.86 2.08z"/><path d="m7.55 24.26c-.79-.31-.95-1.8-.35-3.33s1.73-2.52 2.52-2.21.95 1.8.35 3.33-1.73 2.52-2.52 2.21z"/><path d="m4.64 22.52c-.48-.25-.26-1.64.5-3.09.76-1.46 1.76-2.44 2.25-2.19.48.25.26 1.64-.5 3.09-.77 1.46-1.77 2.44-2.25 2.19z"/><path d="m5.51 17.63c-.75 1.46-1.82 2.41-2.38 2.12-.17-.09-.27-.28-.31-.54v-.01c.73-1.66 1.6-3.25 2.59-4.74 0 0 0-.01.01-.01.17-.05.32-.05.45.01.56.3.4 1.72-.36 3.17z"/><path d="m7.58 14.58c-.27-.3.48-1.44 1.69-2.56s2.41-1.78 2.69-1.48c.27.3-.48 1.44-1.69 2.56s-2.41 1.78-2.69 1.48z"/><path d="m12.68 8.99c-.11-.19.96-1.01 2.38-1.83 1.43-.82 2.67-1.33 2.78-1.14s-.96 1.01-2.38 1.83c-1.43.82-2.67 1.33-2.78 1.14z"/><ellipse cx="14.08" cy="6.52" rx="2.98" ry=".4" transform="matrix(.866 -.499 .499 .866 -1.377 7.901)"/><g><path d="m19.45 4.62c-.04-.13 1.19-.65 2.76-1.15s2.87-.8 2.92-.67c.04.13-1.19.65-2.76 1.15-1.58.5-2.88.8-2.92.67z"/><path d="m18.18 3.76c-.04-.13 1.19-.65 2.76-1.15s2.87-.8 2.92-.67c.04.13-1.19.65-2.76 1.15s-2.88.8-2.92.67z"/><path d="m20.03 5.58c-.05-.13 1.15-.72 2.68-1.32s2.82-.98 2.87-.85-1.15.72-2.68 1.32c-1.54.6-2.82.98-2.87.85z"/><path d="m20.78 6.32c-.08-.18 1.05-.86 2.52-1.52s2.73-1.06 2.81-.88-1.05.86-2.52 1.52-2.73 1.05-2.81.88z"/><path d="m26.7 8.02c-.3-.25.04-1.13.74-1.98.71-.85 1.52-1.34 1.82-1.1.3.25-.04 1.13-.74 1.98-.71.86-1.53 1.35-1.82 1.1z"/><path d="m29.25 8.39c-.45-.19-.48-1.1-.08-2.03s1.09-1.52 1.54-1.33.48 1.1.08 2.03c-.41.93-1.1 1.53-1.54 1.33z"/><path d="m32.18 8.54c-.49 0-.88-.82-.88-1.83 0-1.32.88-1.83.88-1.83s.88.52.88 1.83c0 1.01-.4 1.83-.88 1.83z"/><path d="m35.25 8.27c-.43.23-1.17-.3-1.65-1.19-.63-1.16-.09-2.03-.09-2.03s1.03.04 1.65 1.19c.48.89.52 1.8.09 2.03z"/><path d="m37.84 7.93c-.27.25-1.09-.19-1.82-.99-.96-1.04-.84-1.9-.84-1.9s.88-.04 1.83 1c.73.79 1.11 1.64.83 1.89z"/><path d="m39.91 7.25c-.19.26-1.1-.1-2.02-.79-1.2-.9-1.32-1.71-1.32-1.71s.83-.11 2.02.79c.93.69 1.52 1.45 1.32 1.71z"/><path d="m42.17 6.94c-.12.21-1.2-.17-2.41-.85-1.59-.88-2-1.6-2-1.6s.84-.03 2.41.85c1.23.68 2.12 1.39 2 1.6z"/><path d="m43.5 6.27c-.08.18-1.22-.14-2.54-.72-1.72-.75-2.25-1.38-2.25-1.38s.83-.03 2.54.72c1.33.59 2.33 1.2 2.25 1.38z"/><path d="m44.41 5.66c-.06.14-1.26-.18-2.68-.73-1.86-.71-2.48-1.25-2.48-1.25s.84.02 2.68.73c1.43.54 2.54 1.1 2.48 1.25z"/><path d="m45.02 4.62c-.04.15-1.27-.03-2.75-.4-1.93-.48-2.61-.94-2.61-.94s.83-.08 2.75.4c1.47.37 2.64.79 2.61.94z"/><path d="m46.03 3.92c-.04.15-1.27-.03-2.75-.4-1.93-.48-2.61-.94-2.61-.94s.83-.08 2.75.4c1.48.37 2.64.79 2.61.94z"/><path d="m22.37 6.92c-.44-.68.92-1.02 2.32-1.82 1.4-.81 2.63-1.3 2.74-1.09.12.2-.92 1.02-2.32 1.82s-2.31 1.76-2.74 1.09z"/><path d="m24.56 7.4c-.52-.62.5-.92 1.43-1.65s1.8-1.17 1.95-.99c.14.18-.5.92-1.43 1.65s-1.43 1.61-1.95.99z"/></g><g><path d="m25.39 1.42c-.02-.07.64-.35 1.48-.63.84-.27 1.54-.44 1.56-.37s-.64.35-1.48.63c-.83.28-1.53.44-1.56.37z"/><path d="m25.71 1.95c-.03-.07.62-.4 1.44-.73s1.51-.54 1.54-.47-.62.4-1.44.73c-.83.33-1.52.54-1.54.47z"/><path d="m26.11 2.35c-.04-.1.56-.47 1.35-.83s1.46-.58 1.5-.48-.56.47-1.35.83c-.78.36-1.46.58-1.5.48z"/><path d="m29.28 3.29c-.16-.13.02-.62.4-1.09s.81-.74.97-.6c.16.13-.02.62-.4 1.09-.38.46-.81.73-.97.6z"/><path d="m30.64 3.49c-.24-.11-.26-.6-.04-1.11s.58-.84.82-.73.26.6.04 1.11c-.21.51-.58.83-.82.73z"/><path d="m32.22 3.57c-.26 0-.47-.45-.47-1 0-.72.47-1 .47-1s.47.29.47 1c0 .55-.21 1-.47 1z"/><path d="m33.86 3.42c-.23.13-.63-.17-.88-.66-.34-.64-.05-1.11-.05-1.11s.55.02.88.66c.26.49.28.99.05 1.11z"/><path d="m35.25 3.24c-.15.14-.58-.11-.98-.54-.51-.57-.45-1.04-.45-1.04s.47-.02.98.54c.4.43.6.9.45 1.04z"/><path d="m36.36 2.86c-.1.14-.59-.05-1.08-.43-.64-.49-.71-.94-.71-.94s.44-.06 1.08.43c.5.38.82.8.71.94z"/><path d="m37.57 2.69c-.06.11-.64-.09-1.29-.46-.85-.48-1.07-.88-1.07-.88s.45-.01 1.29.46c.66.38 1.14.77 1.07.88z"/><path d="m38.28 2.33c-.04.1-.65-.08-1.36-.39-.92-.41-1.2-.75-1.2-.75s.44-.02 1.36.39c.71.31 1.25.65 1.2.75z"/><path d="m38.77 1.99c-.03.08-.67-.1-1.44-.4-1-.39-1.33-.69-1.33-.69s.45.01 1.44.4c.77.3 1.36.61 1.33.69z"/><path d="m38.92 1.46c-.02.08-.68-.02-1.47-.22-1.03-.27-1.4-.52-1.4-.52s.45-.04 1.47.22c.79.2 1.42.44 1.4.52z"/><path d="m26.96 2.68c-.23-.37.49-.56 1.24-1s1.41-.71 1.47-.6-.49.56-1.24 1-1.24.97-1.47.6z"/><path d="m28.13 2.94c-.28-.34.27-.51.77-.91s.97-.64 1.04-.54c.08.11-.26.51-.76.91s-.77.88-1.05.54z"/></g><path d="m13.82 10.4c-.18-.25.77-1.22 2.11-2.18 1.34-.95 2.57-1.52 2.75-1.27s-.77 1.22-2.11 2.18c-1.34.95-2.58 1.52-2.75 1.27z"/><path d="m15.59 11.68c-.31-.34.41-1.52 1.62-2.64s2.44-1.74 2.76-1.4c.31.34-.41 1.52-1.62 2.64-1.21 1.11-2.45 1.74-2.76 1.4z"/><path d="m18.26 12.4c-.4-.43.19-1.62 1.31-2.65s2.35-1.53 2.75-1.1-.19 1.62-1.31 2.65-2.35 1.52-2.75 1.1z"/><path d="m21.6 13.34c-.48-.4-.08-1.67.89-2.85.98-1.17 2.16-1.8 2.64-1.4s.08 1.67-.89 2.85c-.98 1.17-2.16 1.79-2.64 1.4z"/><path d="m25.34 13.6c-.6-.37-.51-1.58.18-2.68.7-1.11 1.75-1.7 2.34-1.33.6.37.51 1.58-.18 2.68-.7 1.11-1.75 1.71-2.34 1.33z"/><path d="m30.01 14.34c-.81-.13-1.29-1.29-1.08-2.58s1.04-2.23 1.85-2.1 1.29 1.29 1.08 2.58-1.04 2.23-1.85 2.1z"/><path d="m35.05 14.31c-.77.29-1.76-.47-2.22-1.69s-.22-2.45.55-2.74 1.76.47 2.22 1.69c.46 1.23.21 2.45-.55 2.74z"/><path d="m43.15 13.17c-.51.44-1.66-.05-2.58-1.1s-1.25-2.26-.74-2.7 1.66.05 2.58 1.1 1.25 2.25.74 2.7z"/><path d="m46.52 12.52c-.39.39-1.58-.16-2.65-1.23s-1.62-2.25-1.23-2.65c.39-.39 1.58.16 2.65 1.23s1.62 2.26 1.23 2.65z"/><path d="m48.95 11.28c-.29.37-1.49-.09-2.69-1.01-1.2-.93-1.94-1.98-1.65-2.35s1.49.09 2.69 1.01c1.19.94 1.93 1.99 1.65 2.35z"/><path d="m50.46 10.28c-.2.26-1.34-.28-2.53-1.21-1.2-.93-2-1.89-1.8-2.15s1.34.28 2.53 1.21c1.2.93 2 1.89 1.8 2.15z"/><path d="m51.51 8.61c-.2.35-1.43.03-2.75-.73-1.31-.76-2.21-1.66-2.01-2.01s1.43-.03 2.75.73 2.22 1.66 2.01 2.01z"/><path d="m52.11 7.26c-.49-.13-1.11-.4-1.75-.76-1.17-.68-2.01-1.48-2.03-1.88 1.32.79 2.58 1.68 3.78 2.64z"/><path d="m9.35 16.46c-.39-.32.15-1.61 1.2-2.87s2.22-2.03 2.61-1.71-.15 1.61-1.2 2.87c-1.05 1.27-2.22 2.03-2.61 1.71z"/><path d="m12.17 17.79c-.53-.44-.1-1.82.95-3.08s2.33-1.94 2.86-1.5.1 1.82-.95 3.08c-1.05 1.27-2.33 1.94-2.86 1.5z"/><path d="m15.7 18.71c-.65-.54-.33-2 .72-3.27 1.05-1.26 2.43-1.85 3.08-1.31s.33 2-.72 3.27c-1.04 1.27-2.43 1.85-3.08 1.31z"/><path d="m20.55 19.86c-.88-.51-.93-2.07-.11-3.5.82-1.42 2.21-2.17 3.09-1.66s.93 2.07.11 3.5c-.82 1.42-2.2 2.17-3.09 1.66z"/><path d="m25.27 20.05c-.88-.51-1-1.95-.26-3.23.74-1.27 2.05-1.89 2.93-1.38s1 1.95.26 3.23c-.74 1.26-2.05 1.88-2.93 1.38z"/><path d="m32.48 20.56c-1.08.26-2.24-.68-2.59-2.11s.25-2.8 1.34-3.06c1.08-.26 2.24.68 2.59 2.11.34 1.43-.26 2.8-1.34 3.06z"/><path d="m37.42 20.56c-1.08.26-2.24-.68-2.59-2.11s.25-2.8 1.34-3.06c1.08-.26 2.24.68 2.59 2.11s-.25 2.8-1.34 3.06z"/><path d="m43.05 19.72c-1 .43-2.27-.3-2.84-1.63s-.22-2.75.78-3.18 2.27.3 2.84 1.63.22 2.76-.78 3.18z"/><path d="m47.69 18.9c-.81.46-2.05-.17-2.77-1.43-.72-1.25-.66-2.64.15-3.11.81-.46 2.05.17 2.77 1.43.72 1.25.66 2.64-.15 3.11z"/><path d="m52.07 17.9c-.56.49-1.86-.09-2.91-1.29s-1.45-2.57-.89-3.06 1.86.09 2.91 1.29 1.45 2.57.89 3.06z"/><path d="m54.62 16.46c-.42.37-1.61-.31-2.66-1.51s-1.56-2.47-1.14-2.84 1.61.31 2.66 1.51c1.05 1.21 1.56 2.48 1.14 2.84z"/><path d="m56.25 15.04c-.33.29-1.46-.45-2.51-1.65s-1.63-2.41-1.3-2.7 1.46.45 2.51 1.65c1.06 1.2 1.64 2.41 1.3 2.7z"/><path d="m58.18 13.77c-.34.28-1.46-.46-2.51-1.65-1.05-1.2-1.63-2.41-1.29-2.71.03-.02.05-.03.08-.05 1.37 1.36 2.62 2.83 3.72 4.41z"/><path d="m40.61 42.81c-1.19-.82-1.35-2.64-.37-4.05.98-1.42 2.75-1.9 3.93-1.07 1.19.82 1.35 2.64.37 4.05s-2.74 1.89-3.93 1.07z"/><path d="m47.7 41.97c-1.17-.67-1.43-2.39-.59-3.84s2.46-2.08 3.63-1.41 1.43 2.39.59 3.84-2.46 2.08-3.63 1.41z"/><path d="m54.16 41.04c-1.14-.39-1.64-1.98-1.1-3.57.54-1.58 1.9-2.56 3.04-2.17s1.64 1.98 1.1 3.57c-.53 1.58-1.89 2.56-3.04 2.17z"/><path d="m59.31 39.43c-.87-.11-1.4-1.54-1.19-3.2s1.09-2.92 1.95-2.81c.87.11 1.4 1.54 1.19 3.2-.2 1.67-1.08 2.92-1.95 2.81z"/><path d="m63.92 32c0 1.58-.12 3.13-.34 4.65v.01c-.3.62-.66.98-1.02.94-.66-.09-1.01-1.59-.79-3.35.23-1.77.94-3.13 1.6-3.05.22.03.4.21.54.51.01.09.01.2.01.29z"/><path d="m21.4 42.79c-1.33.21-2.6-.82-2.84-2.31-.23-1.48.66-2.85 2-3.06 1.33-.21 2.6.82 2.84 2.31.23 1.48-.66 2.85-2 3.06z"/><path d="m15.2 42.1c-1.33.21-2.62-.94-2.88-2.57-.25-1.63.62-3.12 1.96-3.32s2.62.94 2.88 2.57c.25 1.63-.63 3.11-1.96 3.32z"/><path d="m9.43 40.76c-1.13.18-2.26-1-2.51-2.63s.46-3.09 1.59-3.27 2.26 1 2.51 2.63c.26 1.63-.45 3.09-1.59 3.27z"/><path d="m5.11 39.2c-.9.14-1.84-1.06-2.1-2.69-.25-1.63.27-3.06 1.18-3.2.9-.14 1.84 1.06 2.1 2.69.25 1.63-.28 3.06-1.18 3.2z"/><ellipse cx="1.18" cy="34.22" rx="1.1" ry="2.98"/><path d="m22.47 49.82c-1.29-.9-1.72-2.51-.96-3.61s2.43-1.26 3.72-.36 1.72 2.51.96 3.61c-.76 1.09-2.42 1.25-3.72.36z"/><path d="m35.99 46.45c.9-1.29 2.52-1.72 3.62-.96s1.26 2.43.36 3.72-2.52 1.72-3.62.96c-1.1-.77-1.26-2.43-.36-3.72z"/><path d="m15.98 48.52c-1.2-1.02-1.53-2.6-.74-3.52s2.4-.84 3.6.18 1.53 2.6.74 3.52c-.8.92-2.41.84-3.6-.18z"/><path d="m9.63 46.91c-.82-1.43-.7-3.04.27-3.6s2.43.14 3.26 1.56c.82 1.43.7 3.04-.27 3.6-.98.57-2.44-.13-3.26-1.56z"/><path d="m5.31 45.09c-.74-1.47-.66-3.01.18-3.42.84-.42 2.11.44 2.85 1.91s.66 3.01-.18 3.42c-.84.42-2.11-.44-2.85-1.91z"/><path d="m55.14 43.87c-.79 1.36-.75 2.86.09 3.34s2.15-.23 2.94-1.59.75-2.85-.09-3.34c-.84-.48-2.16.23-2.94 1.59z"/><path d="m59.48 42.77c-.5 1.49-.42 2.86.19 3.07s1.51-.84 2.01-2.32c.5-1.49.42-2.86-.19-3.07s-1.51.83-2.01 2.32z"/><path d="m49.78 45.22c-.9 1.38-.86 3 .08 3.61s2.44-.01 3.34-1.39.86-3-.08-3.61c-.95-.61-2.44.01-3.34 1.39z"/><path d="m43.45 45.54c-1.24 1.23-1.46 3.01-.5 3.97s2.74.73 3.98-.5 1.46-3.01.5-3.97-2.74-.73-3.98.5z"/><path d="m3.75 45.15c-.24.1-.51.07-.79-.05-.75-1.65-1.36-3.38-1.82-5.17v-.01c.1-.14.22-.23.37-.29.79-.31 1.92.66 2.55 2.19.61 1.52.47 3.01-.31 3.33z"/><path d="m20.63 55.78c-1.24-.86-1.71-2.32-1.05-3.27s2.2-1.02 3.44-.16 1.71 2.32 1.05 3.27c-.67.95-2.2 1.02-3.44.16z"/><path d="m15.04 54.51c-1.11-1.02-1.46-2.44-.78-3.17s2.12-.49 3.23.53 1.46 2.44.78 3.17-2.12.49-3.23-.53z"/><path d="m51.87 51.26c-1.06 1.12-1.43 2.49-.83 3.05s1.94.1 3-1.02 1.43-2.49.83-3.05c-.6-.57-1.94-.11-3 1.02z"/><path d="m59.17 48.72c-1.03 1.68-2.22 3.25-3.54 4.7-.02-.01-.04-.03-.06-.04-.66-.49-.39-1.95.6-3.25s2.31-1.95 2.97-1.45c.01.01.02.02.03.04z"/><path d="m46.45 51.98c-1.28.89-1.84 2.3-1.25 3.15s2.11.82 3.39-.07 1.84-2.3 1.25-3.15-2.11-.82-3.39.07z"/><path d="m40.27 52.55c-1.24.86-1.72 2.31-1.07 3.24s2.18.99 3.41.13c1.24-.86 1.72-2.31 1.07-3.24-.64-.93-2.17-.99-3.41-.13z"/><path d="m9.91 53.17c-1.14-1.06-1.59-2.44-.99-3.08s2.01-.31 3.15.75 1.59 2.44.99 3.08-2.01.31-3.15-.75z"/><path d="m8.29 53.26c-1.26-1.39-2.39-2.9-3.38-4.5.71-.43 1.99.12 2.9 1.31.96 1.22 1.17 2.65.48 3.19z"/></g></g></svg>