<svg id="Layer_1" enable-background="new 0 0 64 64" viewBox="0 0 64 64" xmlns="http://www.w3.org/2000/svg"><g><g><path d="m46.49 26.1c-.34 0-.69-.08-1.02-.26-1.03-.56-1.41-1.85-.85-2.87l6.04-11.04c.46-.85.53-1.85.18-2.75s-1.04-1.56-1.94-1.87c-11.22-3.87-22.6-3.87-33.82 0-.9.31-1.59.98-1.94 1.87-.35.9-.28 1.91.18 2.75l6.04 11.04c.56 1.03.18 2.31-.85 2.87s-2.32.18-2.88-.84l-6.03-11.04c-1.06-1.94-1.21-4.25-.41-6.31.79-2.05 2.44-3.63 4.51-4.35 12.14-4.18 24.45-4.18 36.6 0 2.07.71 3.72 2.3 4.51 4.35.8 2.07.65 4.37-.41 6.31l-6.04 11.04c-.39.7-1.12 1.1-1.87 1.1z" fill="#324a5e"/></g><g><path d="m59.15 43.13c0-14.81-12.16-26.82-27.15-26.82s-27.15 12.01-27.15 26.82c0 6.52 2.35 12.49 6.26 17.14 1.93 2.3 4.82 3.57 7.82 3.57h26.12c3.01 0 5.89-1.28 7.82-3.57 3.93-4.65 6.28-10.62 6.28-17.14z" fill="#687d87"/></g><g opacity=".5"><path d="m59.15 43.14c0 .45-.01.89-.04 1.32-.72-14.17-12.58-25.44-27.1-25.44-14.53 0-26.4 11.26-27.11 25.44-.03-.44-.04-.88-.04-1.32 0-14.82 12.15-26.82 27.15-26.82 14.99 0 27.14 12 27.14 26.82z" fill="#506c72"/></g><ellipse cx="32" cy="40.08" fill="#eff3f5" rx="15.02" ry="14.98"/><g fill="#293b4e"><path d="m30.81 43.17c0 .75-.14 1.41-.43 1.98-.29.58-.68 1.06-1.19 1.45s-1.12.69-1.83.89-1.48.31-2.33.31c-.51 0-.99-.04-1.43-.11-.45-.07-.84-.16-1.19-.27-.34-.11-.63-.22-.85-.33-.22-.12-.37-.2-.44-.27-.07-.06-.12-.13-.16-.21-.03-.08-.07-.17-.09-.27-.03-.1-.05-.23-.06-.39s-.02-.35-.02-.57c0-.37.03-.63.09-.77s.15-.21.28-.21c.08 0 .21.05.4.16.19.1.43.22.72.33.29.12.64.23 1.03.33s.84.16 1.34.16c.42 0 .8-.05 1.12-.15s.6-.24.83-.42.4-.4.51-.66.17-.54.17-.86c0-.35-.07-.66-.2-.93-.13-.28-.34-.51-.6-.71-.27-.2-.6-.35-1.01-.46-.4-.11-.88-.16-1.43-.16h-1.3c-.1 0-.19-.01-.25-.04-.07-.03-.13-.08-.17-.17-.05-.08-.08-.2-.1-.35s-.03-.34-.03-.58c0-.22.01-.41.03-.55s.05-.25.09-.33.1-.13.16-.16c.07-.03.14-.05.24-.05h1.31c.45 0 .84-.05 1.19-.16.35-.1.64-.25.87-.44.24-.19.41-.43.54-.7.12-.27.19-.57.19-.91 0-.25-.04-.49-.13-.72-.08-.23-.21-.42-.38-.59s-.38-.3-.64-.39c-.26-.1-.57-.14-.93-.14-.4 0-.78.06-1.13.18s-.67.25-.95.39-.52.27-.72.4c-.2.12-.34.18-.43.18-.06 0-.12-.01-.16-.04-.05-.03-.08-.08-.12-.16-.03-.08-.05-.19-.07-.33-.02-.15-.02-.33-.02-.57 0-.19 0-.35.01-.48s.02-.23.05-.32c.02-.08.05-.16.09-.22.03-.06.09-.13.17-.2s.24-.18.47-.33c.24-.15.54-.29.9-.43s.78-.26 1.26-.35c.47-.1.99-.14 1.54-.14.72 0 1.37.08 1.93.25s1.03.41 1.41.73.67.71.87 1.18.29.99.29 1.58c0 .45-.06.88-.17 1.27-.12.39-.29.74-.51 1.05s-.5.57-.84.78c-.34.22-.72.38-1.16.48v.03c.52.06.99.19 1.41.4.42.2.77.46 1.06.77s.51.66.67 1.04c.16.42.23.84.23 1.28z"/><path d="m43.19 40.02c0 1.19-.1 2.27-.29 3.23s-.51 1.78-.94 2.46c-.44.68-1 1.2-1.7 1.56s-1.55.54-2.56.54c-1.03 0-1.87-.18-2.54-.53s-1.2-.85-1.6-1.51c-.39-.66-.67-1.46-.83-2.41s-.24-2.03-.24-3.23c0-1.18.1-2.26.29-3.23.2-.97.51-1.79.95-2.46.44-.68 1-1.2 1.7-1.56s1.55-.54 2.55-.54c1.03 0 1.88.18 2.55.53s1.21.85 1.6 1.51.67 1.46.82 2.41c.16.96.24 2.03.24 3.23zm-3.06.15c0-.71-.02-1.33-.06-1.88-.04-.54-.1-1.01-.18-1.41s-.18-.74-.3-1.02-.26-.5-.43-.66c-.17-.17-.36-.28-.58-.35s-.45-.1-.72-.1c-.45 0-.83.11-1.13.33s-.53.55-.71.99c-.17.44-.29.98-.36 1.64-.07.65-.1 1.42-.1 2.28 0 1.06.04 1.94.13 2.64.08.7.22 1.25.4 1.66s.41.7.7.87.63.25 1.03.25c.3 0 .57-.05.8-.14.23-.1.43-.24.61-.43.17-.19.32-.43.43-.73.12-.29.21-.63.28-1.02.07-.38.12-.82.15-1.3.02-.5.04-1.03.04-1.62z"/></g></g></svg>