<svg id="Layer_1" enable-background="new 0 0 64 64" viewBox="0 0 64 64" xmlns="http://www.w3.org/2000/svg"><g><g><path d="m60.26 35.65c-2.02 0-3.66-1.64-3.66-3.65s1.64-3.65 3.66-3.65 3.66 1.64 3.66 3.65-1.64 3.65-3.66 3.65zm0-5.98c-1.29 0-2.33 1.04-2.33 2.33 0 1.28 1.05 2.33 2.33 2.33 1.29 0 2.33-1.04 2.33-2.33.01-1.28-1.04-2.33-2.33-2.33z" fill="#e2431e"/></g><path d="m42.92 16.78h-2.85v2.03c0 .8-.65 1.44-1.45 1.44h-4.14c-.8 0-1.45-.65-1.45-1.44v-2.03h-32.95v7.6l28.2 4.69c-.33 1.67-.39 3.42-.11 5.24 1.1 7.11 7.17 12.56 14.37 12.89 8.78.39 16.01-6.62 15.96-15.3-.05-8.32-7.24-15.12-15.58-15.12z" fill="#7da4c3"/><ellipse cx="43.24" cy="32" fill="#eff3f5" rx="10.79" ry="10.76"/><path d="m51.97 32c0 4.81-3.91 8.7-8.72 8.7-4.82 0-8.72-3.9-8.72-8.7 0-4.81 3.91-8.7 8.72-8.7s8.72 3.89 8.72 8.7z" fill="#3582a8"/><path d="m51.97 32c0 4.81-3.91 8.71-8.73 8.71s-8.72-3.9-8.72-8.71c0-.2.01-.39.02-.59.3 4.54 4.08 8.13 8.7 8.13s8.41-3.59 8.71-8.13c.01.2.02.39.02.59z" fill="#255970" opacity=".5"/></g></svg>