<svg id="Layer_1" enable-background="new 0 0 64 64" viewBox="0 0 64 64" xmlns="http://www.w3.org/2000/svg"><g><g><path d="m.08 29.46h63.84v5.08h-63.84z" fill="#324a5e"/></g><g><g><g><g><path d="m18.23 18.04v27.63c0 1.4-1.14 2.54-2.55 2.54-.35 0-.69-.07-.99-.2-.91-.38-1.55-1.29-1.55-2.34v-27.63c0-1.4 1.15-2.54 2.55-2.54.58 0 1.1.19 1.53.51.61.47 1.01 1.2 1.01 2.03z" fill="#59b5ac"/></g><g><path d="m18.74 18.33v27.62c0 1.41-1.15 2.54-2.55 2.54-.56 0-1.08-.18-1.5-.48.31.14.65.2.99.2 1.41 0 2.55-1.14 2.55-2.54v-27.63c0-.83-.4-1.57-1.02-2.03.9.39 1.53 1.28 1.53 2.32z" fill="#687d87"/></g></g><g><g><path d="m12.64 20.27v23.18c0 1.41-1.14 2.54-2.55 2.54-.34 0-.67-.07-.97-.19-.93-.38-1.58-1.29-1.58-2.36v-23.17c0-1.41 1.15-2.54 2.55-2.54.55 0 1.07.17 1.49.48.02 0 .02.01.03.01.62.47 1.03 1.21 1.03 2.05z" fill="#59b5ac"/></g><g><path d="m13.14 20.55v23.18c0 1.41-1.15 2.54-2.55 2.54-.55 0-1.05-.18-1.47-.47.3.12.63.19.97.19 1.41 0 2.55-1.14 2.55-2.54v-23.18c0-.84-.41-1.58-1.04-2.05.9.39 1.54 1.29 1.54 2.33z" fill="#687d87"/></g></g><g><g><path d="m7.04 23.45v16.82c0 1.41-1.14 2.54-2.55 2.54-.35 0-.69-.07-.99-.2-.91-.38-1.55-1.29-1.55-2.34v-16.82c0-1.41 1.15-2.54 2.55-2.54.55 0 1.07.18 1.49.48.01 0 .02 0 .02.01.62.46 1.03 1.2 1.03 2.05z" fill="#59b5ac"/></g><g><path d="m7.54 23.73v16.82c0 1.41-1.15 2.54-2.55 2.54-.56 0-1.08-.18-1.5-.48.31.14.65.2.99.2 1.41 0 2.55-1.14 2.55-2.54v-16.82c0-.85-.41-1.59-1.04-2.05.91.39 1.55 1.29 1.55 2.33z" fill="#687d87"/></g></g></g><g><g><g><path d="m45.77 18.04v27.63c0 1.4 1.14 2.54 2.55 2.54.35 0 .69-.07.99-.2.91-.38 1.55-1.29 1.55-2.34v-27.63c0-1.4-1.15-2.54-2.55-2.54-.58 0-1.1.19-1.53.51-.61.47-1.01 1.2-1.01 2.03z" fill="#59b5ac"/></g><g><path d="m45.26 18.33v27.62c0 1.41 1.15 2.54 2.55 2.54.56 0 1.08-.18 1.5-.48-.31.14-.65.2-.99.2-1.41 0-2.55-1.14-2.55-2.54v-27.63c0-.83.4-1.57 1.02-2.03-.9.39-1.53 1.28-1.53 2.32z" fill="#687d87"/></g></g><g><g><path d="m51.36 20.27v23.18c0 1.41 1.14 2.54 2.55 2.54.34 0 .67-.07.97-.19.93-.38 1.58-1.29 1.58-2.36v-23.17c0-1.41-1.15-2.54-2.55-2.54-.55 0-1.07.17-1.49.48-.02 0-.02.01-.03.01-.62.47-1.03 1.21-1.03 2.05z" fill="#59b5ac"/></g><g><path d="m50.86 20.55v23.18c0 1.41 1.15 2.54 2.55 2.54.55 0 1.05-.18 1.47-.47-.3.12-.63.19-.97.19-1.41 0-2.55-1.14-2.55-2.54v-23.18c0-.84.41-1.58 1.04-2.05-.9.39-1.54 1.29-1.54 2.33z" fill="#687d87"/></g></g><g><g><path d="m56.96 23.45v16.82c0 1.41 1.14 2.54 2.55 2.54.35 0 .69-.07.99-.2.91-.38 1.55-1.29 1.55-2.34v-16.82c0-1.41-1.15-2.54-2.55-2.54-.55 0-1.07.18-1.49.48-.01 0-.02 0-.02.01-.62.46-1.03 1.2-1.03 2.05z" fill="#59b5ac"/></g><g><path d="m56.46 23.73v16.82c0 1.41 1.15 2.54 2.55 2.54.56 0 1.08-.18 1.5-.48-.31.14-.65.2-.99.2-1.41 0-2.55-1.14-2.55-2.54v-16.82c0-.85.41-1.59 1.04-2.05-.91.39-1.55 1.29-1.55 2.33z" fill="#687d87"/></g></g></g></g></g></svg>