<svg id="Layer_1" enable-background="new 0 0 64 64" viewBox="0 0 64 64" xmlns="http://www.w3.org/2000/svg"><g><g><path d="m14.43 44.92c-.67 4.09-1.11 8.58-.87 12.85.18 3.41 3.03 6.07 6.45 6.07h14.36c3.47 0 6.3-2.74 6.45-6.2.2-4.43.08-8.69-.46-12.72z" fill="#f2786b"/><path d="m49.41 10.8c-.32.76-.73 1.56-1.21 2.41-.1.18-.21.38-.32.57-.02.03-.04.06-.05.09-.19.27-.39.54-.62.8-.88 1.05-1.95 1.91-3.09 2.4-.11.04-.22.09-.33.12v.01c-.11.04-.22.07-.33.1-.1.04-.18.06-.28.08-.11.06-.22.13-.32.2-.58.41-.92.98-1.07 1.68-.08.36-.11.75-.08 1.19v.05c.02.27.03.53.04.8 0 .18.01.34.02.51v.31c.02.42.02.84-.01 1.26-.05 1.07-.13 2.2-.23 3.38-.42 5.33-1.25 11.81-2.45 18.89-.04.26-.09.53-.13.8-.01.04-.03.1-.04.14-1.38 4.62-7.96 3.18-19.09 2.24-4.22-.46-6.85-2.93-8.32-7.26-.79-2.31-1.25-5.14-1.44-8.49-.39-4.02-.87-7.38-1.53-11.09 0-.03-.01-.04-.01-.07-.07-.41-.15-.81-.23-1.23-.08-.45-.17-.89-.25-1.35-.17-.91-.35-1.85-.55-2.83-.47-2.92-.47-5.14-.04-6.92.47-2 1.48-3.43 2.95-4.61 1.14-.93 2.56-1.71 4.23-2.49 1.89-.8 4.02-1.38 6.36-1.76h.01c6.47-1.03 14.53-.53 23.38.91.32.05.66.12.98.21 5.13 1.37 5.96 4.47 4.05 8.95z" fill="#f2786b"/><path d="m22 24.85c-.93-.21-1.87-.45-2.81-.69-7.68-2.66-10.7-5.34-11.77-14.6.47-2 1.48-3.43 2.95-4.61 1.14-.93 2.56-1.71 4.23-2.49 1.89-.8 4.02-1.38 6.36-1.76-3.64 1.68-7.77 3.57-9.11 9.84.27-.17 4.83-2.59 8.18-2.75-3.46 1.16-6.73 2.47-8.61 4.99 0 0 6.41-.67 9.26.21 0 0-7.46-.53-9.37 1.45s6-.04 8.06 1.94c0 0-4.93-.71-5.88 1.06-.01-.01-.46 3.39 8.51 7.41z" fill="#f9897c"/><path d="m41.51 26.73-.11-1.78c-5.47 2.23-12.21 1.58-19.39-.1v-.01c-.93-.21-1.87-.45-2.81-.69-7.69-2.65-10.71-5.33-11.78-14.59-.43 1.78-.43 4 .04 6.92.3 1.48.56 2.85.81 4.18.08.42.16.82.23 1.23 0 .03.01.04.01.07.67 3.71 1.15 7.06 1.53 11.09.19 3.34.65 6.18 1.44 8.49 2.51 3.38 20.44 7.37 27.45 4.88 1.48-.52 2.91-1.62 3.7-2.27z" fill="#d45947"/><path d="m54.54 31.7c-3.67 5.83-8.16 10.32-13.37 13.56-.04.02-.08.05-.12.08-.33.2-.67.39-1.01.59-.06.04-.12.06-.18.1-.32.18-.64.37-.96.53-.01-.04-.02-.08-.02-.12-1.37-6.97-1.19-15.54.68-20.85v-.01c.5-1.41 1.12-2.58 1.86-3.44.11-.13.22-.25.33-.36.29-.17.58-.32.85-.48.12-.07.25-.14.36-.21.22-.12.43-.25.63-.36.14-.08.27-.16.4-.23.27-.17.53-.31.77-.47.25-.15.47-.3.69-.45.29-.18.55-.38.8-.58.19-.16.38-.32.54-.48h.01c.18-.18.34-.35.47-.53.55-.7.83-1.48.78-2.45-.05-.33-.09-.64-.12-.93-.04-.3-.05-.59-.07-.84-.04-.78 0-1.37.11-1.82.21-.82.69-1.15 1.42-1.16h.08c3.39.2 5.96 2.67 6.83 6.61 1.17 5.4.64 10-1.76 14.3z" fill="#f2786b"/><path d="m54.53 31.7c-3.66 5.83-8.15 10.33-13.37 13.56-.04.02-.07.05-.12.08-.33.2-.67.4-1.01.6-.06.03-.12.06-.18.09-.33.19-.65.37-.97.54-.01-.04-.02-.08-.02-.12-.24-1.2-.43-2.47-.57-3.75.02-.01.04-.02.06-.03.04-.03.08-.07.12-.08 5.21-3.24 9.7-7.74 13.37-13.56 2.4-4.31 2.93-8.9 1.78-14.29-.26-1.15-.66-2.19-1.2-3.07 1.91 1.05 3.3 3.06 3.89 5.75 1.15 5.38.63 9.98-1.78 14.28z" fill="#fb867b"/><g fill="#f9897c"><path d="m48.22 14.36-.28.25c-.04-.3-.05-.59-.07-.84-.02.03-.04.06-.05.09-.19.27-.39.54-.62.8-.22-1.23-1.28-4.27-6.25-7.73l1.42.2s4.52.7 5.62 4.83c.11.38.18.8.21 1.25.04.35.04.74.02 1.15z"/><path d="m44.34 16.78-.23.27c-.11.04-.22.09-.33.12-.55-2.38-5.18-8.19-5.18-8.19 3.49 1.16 5.74 7.8 5.74 7.8z"/><path d="m43.44 17.28c-.1.04-.18.06-.28.08-.11.06-.22.13-.32.2-1.44-2.76-6.58-7.71-6.58-7.71 4.34 1.54 6.8 6.61 7.18 7.43z"/><path d="m52.05 21.47s-.74-1.76-5.25-2.95c.18-.18.34-.35.47-.53 1.64.4 4.64 1.42 4.78 3.48z"/><path d="m49.76 21.99s-2.2-1.81-4.3-2.41c.29-.18.55-.38.8-.58 1.08.67 3.25 2.09 3.5 2.99z"/><path d="m47.8 23.85c-.15-.16-2.28-2.49-3.81-3.34.27-.17.53-.31.77-.47.88.56 2.39 1.77 3.04 3.81z"/><path d="m41.77 19.24c-.08.36-.11.75-.08 1.19-2.11-.35-3.09-1.55-3.09-1.55 1.28-.05 2.43.17 3.17.36z"/><path d="m42.64 21.31v.58c-.3.09-.6.16-.89.21-.11.03-.22.04-.33.05-2.88.42-5.78-.48-5.78-.48 1.69-.4 4.61-.41 6.1-.39 0 .18.01.34.02.51.29-.17.58-.32.85-.48z"/><path d="m44.09 24.42c-1.32-.8-1.27-2.45-1.13-3.32.22-.12.43-.25.63-.36-.2 1.32.5 3.68.5 3.68z"/></g></g></g></svg>