<svg id="Layer_1" enable-background="new 0 0 64 64" viewBox="0 0 64 64" xmlns="http://www.w3.org/2000/svg"><g><path d="m34.14 2.29c0 1.18-.96 2.13-2.14 2.13s-2.14-.95-2.14-2.13.96-2.13 2.14-2.13 2.14.95 2.14 2.13z" fill="#293b4e"/><path d="m37.49 6.82c0 2.1-2.46 3.8-5.49 3.8s-5.49-1.7-5.49-3.8 2.46-3.8 5.49-3.8 5.49 1.7 5.49 3.8z" fill="#255970"/><path d="m44.02 63.84h-24.04c-.82 0-1.49-.67-1.49-1.49 0-.82.67-1.49 1.49-1.49h24.05c.82 0 1.49.67 1.49 1.49-.01.83-.67 1.49-1.5 1.49z" fill="#324a5e"/><g fill="#255970"><path d="m42.5 60.87h-21c-.82 0-1.49-.67-1.49-1.49 0-.82.67-1.49 1.49-1.49h21c.82 0 1.49.67 1.49 1.49 0 .83-.67 1.49-1.49 1.49z"/><path d="m41.47 50.16h-18.94c-.82 0-1.49-.67-1.49-1.49 0-.82.67-1.49 1.49-1.49h18.93c.82 0 1.49.67 1.49 1.49.01.83-.66 1.49-1.48 1.49z"/><path d="m37.55 23.99h-11.1c-.82 0-1.49-.67-1.49-1.49 0-.82.67-1.49 1.49-1.49h11.11c.82 0 1.49.67 1.49 1.49-.01.82-.67 1.49-1.5 1.49z"/><path d="m37.55 18.04h-11.1c-.82 0-1.49-.67-1.49-1.49 0-.82.67-1.49 1.49-1.49h11.11c.82 0 1.49.67 1.49 1.49-.01.83-.67 1.49-1.5 1.49z"/></g><path d="m39.03 21.01h-14.06c-.82 0-1.49-.67-1.49-1.49 0-.82.67-1.49 1.49-1.49h14.05c.82 0 1.49.67 1.49 1.49.01.83-.66 1.49-1.48 1.49z" fill="#293b4e"/><g><path d="m42.72 57.9h-21.44s-2.17-1.42-.27-5.33c.35-.71.83-1.51 1.49-2.4h19c.66.89 1.14 1.69 1.49 2.4 1.9 3.9-.27 5.33-.27 5.33z" fill="#324a5e"/></g><path d="m23.49 47.19s5.2-7.67 3.79-20.79c-.09-.79-.19-1.58-.33-2.41h10.12c-.13.83-.24 1.63-.33 2.41-1.42 13.13 3.78 20.79 3.78 20.79z" fill="#324a5e"/><path d="m36.45 15.07s.46-4.13 4.06-9.55l-2.56 1.91c-.21.16-.53.09-.63-.14l-.74-1.62c-.12-.25-.48-.31-.68-.1l-1.67 1.73c-.18.18-.49.16-.64-.04l-1.25-1.69c-.16-.22-.51-.22-.67 0l-1.25 1.69c-.15.2-.47.22-.64.04l-1.68-1.73c-.2-.21-.57-.15-.68.1l-.74 1.62c-.1.23-.42.3-.63.14l-2.56-1.91c3.6 5.41 4.06 9.55 4.06 9.55z" fill="#324a5e"/><path d="m37.06 23.99c-.13.83-.24 1.63-.33 2.41h-9.46c-.09-.79-.19-1.58-.33-2.41z" fill="#293b4e" opacity=".8"/><path d="m42.99 52.57h-21.98c.35-.71.83-1.51 1.49-2.4h19c.66.89 1.14 1.69 1.49 2.4z" fill="#293b4e" opacity=".8"/></g></svg>