<svg id="Layer_1" enable-background="new 0 0 64 64" viewBox="0 0 64 64" xmlns="http://www.w3.org/2000/svg"><g><g><path d="m53.51 33.42c-.5-.5-.7-1.25-.46-1.95l6.75-19.92c.72-2.12.2-4.32-1.38-5.9s-3.79-2.09-5.92-1.38l-19.96 6.73c-1 .34-2.08-.2-2.42-1.19s.2-2.07 1.19-2.41l19.97-6.73c3.47-1.17 7.24-.29 9.83 2.29 2.59 2.59 3.47 6.34 2.3 9.81l-6.75 19.92c-.34.99-1.42 1.53-2.42 1.19-.28-.1-.53-.26-.73-.46z" fill="#445b69"/></g><g><g><path d="m50.01 33.57c-1.3 3.72-3.17 7.84-5.06 11.32-.5.92-1.06 1.8-1.68 2.64-5.24 7.05-7.72 12.23-4.51 13.8l2.74 1.17 2.74 1.17c3.35 1.25 5.4-4.12 6.92-12.77.18-1.03.43-2.04.76-3.04 1.23-3.76 2.94-7.95 4.74-11.45z" fill="#dd655b"/><path d="m57.31 36.69-7.95-3.4c-.34-.15-.5-.55-.36-.89l1.12-2.61c.15-.34.55-.5.89-.36l7.95 3.4c.34.15.5.55.36.89l-1.12 2.61c-.15.35-.55.51-.89.36z" fill="#f97a70"/></g><g><path d="m30.43 14.03c-3.73 1.3-7.86 3.16-11.35 5.04-.92.5-1.81 1.06-2.65 1.68-7.07 5.23-12.26 7.71-13.83 4.5l-1.17-2.73-1.17-2.73c-1.25-3.34 4.13-5.39 12.8-6.9 1.03-.18 2.05-.43 3.04-.76 3.77-1.23 7.97-2.93 11.48-4.73z" fill="#dd655b"/><path d="m27.3 6.76 3.41 7.93c.15.34.55.5.89.36l2.62-1.12c.34-.15.5-.55.36-.89l-3.41-7.94c-.15-.34-.55-.5-.89-.36l-2.62 1.12c-.35.15-.51.55-.36.9z" fill="#f97a70"/></g></g><g><path d="m47.72 16.32c-3.69-3.68-3.69-9.68 0-13.36s9.7-3.68 13.39 0 3.69 9.68 0 13.36-9.7 3.68-13.39 0zm10.7-10.67c-2.21-2.2-5.8-2.2-8 0-2.21 2.2-2.21 5.78 0 7.98s5.8 2.2 8 0 2.2-5.78 0-7.98z" fill="#59b5ac"/></g></g></svg>