<svg id="Layer_1" enable-background="new 0 0 64 64" viewBox="0 0 64 64" xmlns="http://www.w3.org/2000/svg"><g><g><g><path d="m53.31 50.2c0 7.53-6.13 13.64-13.66 13.64-7.48 0-13.57-6.01-13.68-13.44h3.48c.11 5.51 4.64 9.97 10.2 9.97 5.61 0 10.18-4.57 10.18-10.17l-.01-41.4v-4.3h3.48v4.3z" fill="#3582a8"/></g><path d="m30.1 53.21h-4.11c-.32 0-.58-.26-.58-.58v-2.54h5.28v2.54c-.01.32-.27.58-.59.58z" fill="#255970"/><g><path d="m28.05 51.1c-3.21 0-5.83-2.61-5.83-5.81 0-.6.49-1.09 1.09-1.09s1.09.49 1.09 1.09c0 2.01 1.64 3.64 3.65 3.64s3.65-1.63 3.65-3.64c0-.6.49-1.09 1.09-1.09s1.09.49 1.09 1.09c-.01 3.2-2.62 5.81-5.83 5.81z" fill="#445b69"/></g><path d="m53.65 7.79h-4.18c-.27 0-.49-.22-.49-.49v-6.65c0-.27.22-.49.49-.49h4.18c.27 0 .49.22.49.49v6.65c0 .27-.22.49-.49.49z" fill="#445b69"/><path d="m49.82 7.79h3.48v1.29h-3.48z" fill="#255970" opacity=".7"/></g><path d="m54.28 32.89h-8.17v-3.95h8.17c.36 0 .66.29.66.66v2.63c0 .36-.29.66-.66.66z" fill="#324a5e"/><g><g><path d="m33.25 35.85s-.6 2.62-3.39 4.21c-1.07.61-2.41.63-3.49.03-1.22-.67-2.74-1.93-3.5-4.24l2.47-3.71h3.09l3.76.9z" fill="#3582a8"/></g><g fill="#3582a8"><path d="m32.18 35.94c.11.47.27.91.48 1.31-.49.88-1.35 1.98-2.79 2.81-1.08.61-2.41.63-3.49.03-.96-.53-2.09-1.41-2.9-2.89.19-.4.34-.82.45-1.26.56-2.07 2.09-2.32 4.13-2.29 2.03-.02 3.56.22 4.12 2.29z"/><path d="m33.24 35.85s-.09.39-.36.96c-.32-.52-.56-1.1-.71-1.73-.56-2.07-2.08-2.31-4.13-2.3-2.04-.03-3.57.23-4.13 2.3-.15.61-.38 1.17-.68 1.68-.13-.28-.25-.59-.36-.91l2.47-3.7h3.09l3.75.9z"/></g><path d="m28.05 32.78c2.05-.01 3.57.22 4.13 2.29.55 2.25 2.26 3.97 4.25 3.97h5.45c1.23 0 2.46-.38 3.39-1.19.14-.12.28-.26.41-.39.91-.95 1.36-2.26 1.36-3.58v-5.11c0-.79-.13-1.59-.51-2.28-.64-1.2-1.77-2.03-3.41-2.39-.33-.07-.68-.09-1.02-.09h-14.05-14.05c-.34 0-.69.02-1.02.09-1.64.36-2.77 1.19-3.41 2.39-.37.7-.51 1.49-.51 2.28v5.11c0 1.32.44 2.63 1.36 3.58.13.14.27.27.41.39.93.8 2.16 1.19 3.39 1.19h5.45c1.98 0 3.69-1.72 4.25-3.97.55-2.07 2.09-2.32 4.13-2.29z" fill="#445b69"/><path d="m32.89 36.8c-.06.14-.14.29-.23.45-.21-.41-.37-.85-.48-1.31-.56-2.07-2.08-2.31-4.13-2.29-2.04-.03-3.57.22-4.13 2.29-.11.45-.26.87-.45 1.26-.08-.14-.16-.29-.23-.45.3-.51.53-1.07.68-1.68.56-2.07 2.09-2.33 4.13-2.3 2.04-.01 3.57.23 4.13 2.3.15.63.39 1.22.71 1.73z" fill="#255970" opacity=".7"/><path d="m45.61 28.77v5.11c0 1.02-.35 1.95-.96 2.6-.1.1-.2.2-.31.29-.63.55-1.5.85-2.47.85h-5.45c-.21 0-.44-.04-.65-.11-.55-.18-1.06-.59-1.47-1.14-.33-.46-.6-1.02-.75-1.64-.25-.95-.67-1.63-1.18-2.12-.9-.88-2.07-1.14-3.04-1.23-.42-.03-.8-.03-1.12-.03h-.45c-.12 0-.25 0-.4.01-.45 0-1.01.03-1.59.16-1.28.3-2.67 1.08-3.23 3.17-.42 1.7-1.62 2.93-2.87 2.93h-5.45c-.38 0-.73-.04-1.07-.13-.54-.14-1.01-.38-1.4-.72-.11-.09-.22-.19-.31-.29-.36-.36-.61-.82-.77-1.33-.13-.39-.19-.83-.19-1.28v-5.11c0-.65.11-1.19.33-1.62.47-.86 1.27-1.41 2.47-1.67.18-.04.42-.06.71-.06h28.1c.3 0 .53.02.72.06.35.07.66.17.93.3.7.3 1.2.75 1.53 1.37.23.44.34.99.34 1.63z" fill="#59cbef"/><g fill="#3eb9e3"><path d="m19.21 25.42-6.05 12.08c-.54-.14-1.01-.38-1.4-.72-.11-.09-.22-.19-.31-.29-.36-.36-.61-.82-.77-1.33l4.88-9.74z"/><path d="m35.97 25.42-3.6 7.2c-.9-.88-2.07-1.14-3.04-1.23l2.99-5.97z"/><path d="m45.61 28.77v.61l-4.14 8.25h-3.66l5.94-11.84c.7.3 1.2.75 1.53 1.37.22.42.33.97.33 1.61z"/><path d="m23.23 25.42-6.12 12.21h-2.04l6.12-12.21z"/><path d="m41.84 25.42-6.07 12.1c-.55-.18-1.06-.59-1.47-1.14l5.49-10.95h2.05z"/><path d="m30.35 25.42-2.98 5.95c-.45 0-1.01.03-1.59.16l3.06-6.11z"/></g></g></g></svg>