<svg id="Layer_1" enable-background="new 0 0 64 64" viewBox="0 0 64 64" xmlns="http://www.w3.org/2000/svg"><g><g><g fill="#f0582f"><path d="m45.37 7.39c.22-.05.57-.17.81-.32.26-.15.5-.34.68-.56s.34-.46.44-.74c.12-.27.17-.57.21-.88l.01-.06c.09-.43.48-.72.9-.72h4.37.05c.49.01.89.41.88.9v.02c-.08 2.05-.39 3.98-.87 5.93-.5 1.93-1.2 3.82-2.18 5.57-.99 1.75-2.28 3.37-3.9 4.62-1.61 1.26-3.54 2.09-5.51 2.5-.34.07-.67-.15-.75-.49-.07-.33.14-.66.47-.74h.01c1.8-.43 3.49-1.21 4.9-2.37 1.42-1.15 2.55-2.64 3.42-4.26.86-1.64 1.47-3.41 1.89-5.23.41-1.81.66-3.72.68-5.53l.92.92h-4.37l.91-.79c-.1.45-.22.9-.43 1.33-.2.43-.5.83-.84 1.17s-.74.62-1.17.82c-.44.2-.84.33-1.38.4-.41.05-.79-.24-.84-.65-.05-.39.21-.74.58-.82z"/><path d="m18.47 8.88c-.55-.07-.94-.2-1.38-.4-.42-.2-.83-.47-1.17-.82-.34-.34-.64-.74-.84-1.17-.22-.43-.34-.88-.43-1.33l.91.79h-4.37l.92-.92c.02 1.8.27 3.72.68 5.53.42 1.82 1.03 3.6 1.89 5.23.87 1.63 1.99 3.11 3.41 4.26 1.41 1.16 3.11 1.94 4.9 2.37h.01c.34.08.55.42.47.76-.08.33-.41.54-.74.47-1.97-.41-3.9-1.24-5.51-2.5-1.62-1.25-2.91-2.87-3.9-4.62-.98-1.76-1.68-3.65-2.18-5.57-.49-1.94-.8-3.87-.87-5.93-.02-.49.37-.9.86-.92h.02.05 4.37c.44 0 .81.31.9.72l.01.06c.04.31.1.61.21.88.1.28.26.52.44.74.19.22.42.41.68.56.25.15.59.27.81.32l.1.02c.4.09.66.49.57.89-.08.38-.44.63-.82.58z"/></g><path d="m21.68 51.33c.5-3.5 2.36-5.97 6.72-6.57 3.01-5.36 0-11.1 0-11.1 2.17-.26 1.27-2.95 1.27-2.95h4.67s-.9 2.69 1.27 2.95c0 0-3.01 5.74 0 11.1 4.35.61 6.22 3.08 6.72 6.57z" fill="#f8b517"/><path d="m47.03.16c0 17.17-6.73 31.08-15.03 31.08-8.31 0-15.03-13.91-15.03-31.08h30.06z" fill="#fbd303"/><g opacity=".5"><path d="m27.54 25.54c-.27-.2-8.79-6.47-9.14-25.39h3.87c-.55 3.4-1.4 13.56 5.27 25.39z" fill="#eff3f5" opacity=".7"/><path d="m45.59.16c-.35 18.92-8.86 25.19-9.13 25.39 6.67-11.83 5.82-21.99 5.26-25.39h3.87z" fill="#f8b517" opacity=".6"/></g><path d="m18.41 51.33h27.19v12.51h-27.19z" fill="#8e342d"/><path d="m28.82 47.08h6.36v21.02h-6.36z" fill="#f0582f" transform="matrix(0 1 -1 0 89.589 25.589)"/></g><g fill="#eff3f5"><g><path d="m22.88 50.92s-.36-3.93 4.28-5.19c.01 0-3.53 2.1-4.28 5.19z" opacity=".5"/><path d="m41.12 50.92s.36-3.93-4.28-5.19c-.01 0 3.53 2.1 4.28 5.19z" opacity=".5"/></g><path d="m32 5.3 2.46 4.97 5.5.8-3.98 3.87.94 5.46-4.92-2.58-4.92 2.58.94-5.46-3.98-3.87 5.5-.8z"/></g></g></svg>