<svg id="Layer_1" enable-background="new 0 0 64 64" viewBox="0 0 64 64" xmlns="http://www.w3.org/2000/svg"><g><g><path d="m57.93 15.97-.11.32-.7 2.08-6.57 19.38h-6.15l6.57-19.38.7-2.08.11-.32z" fill="#445b69"/><path d="m62.71 7.12c-.24-.1-.49-.15-.75-.15-.8 0-1.51.47-1.82 1.21l-1.75 4.18h-11.06c-1.08 0-1.97.88-1.97 1.96s.88 1.96 1.97 1.96h12.37c.8 0 1.51-.47 1.82-1.21l2.25-5.39c.42-.99-.06-2.14-1.06-2.56z" fill="#f97a70"/></g><path d="m20.88 11.29-12.11-1.18.99 6.77h4.45l.61 12.69c.03.66.58 1.17 1.23 1.17h.06c.68-.03 1.2-.61 1.17-1.28l-.61-12.57h4.21z" fill="#445b69"/><path d="m55.16 36.56v-.01l-35.72-9.86c-.39-.13-.79-.23-1.19-.33l-.29-.08v.01c-1.01-.22-2.05-.34-3.12-.34-8.15 0-14.76 6.59-14.76 14.72s6.61 14.72 14.76 14.72l38.73 1.64c5.7 0 10.33-4.61 10.33-10.3-.01-5.15-3.8-9.4-8.74-10.17z" fill="#dededf"/><g><g><path d="m27.54 48.85c-.13 0-.26-.03-.38-.09l-5.32-2.78c-.4-.21-.56-.7-.35-1.1s.71-.56 1.11-.35l5.32 2.78c.4.21.56.7.35 1.1-.15.28-.43.44-.73.44z" fill="#324a5e"/></g><g><path d="m24.5 51.31c-.25 0-.49-.11-.66-.33-.27-.36-.2-.87.16-1.15l6.04-4.54c.36-.27.88-.2 1.15.16s.2.87-.16 1.15l-6.04 4.54c-.15.11-.32.17-.49.17z" fill="#324a5e"/></g></g><path d="m23.84 40.67c0 4.96-4.03 8.98-9.01 8.98s-9.01-4.02-9.01-8.98 4.03-8.98 9.01-8.98 9.01 4.02 9.01 8.98z" fill="#324a5e"/><path d="m22.22 40.67c0 4.07-3.31 7.37-7.39 7.37s-7.39-3.3-7.39-7.37 3.31-7.37 7.39-7.37 7.39 3.3 7.39 7.37z" fill="#eff3f5"/><path d="m57.82 16.29-.7 2.08h-6.15l.7-2.08z" fill="#293b4e" opacity=".7"/></g></svg>