<svg id="Layer_1" enable-background="new 0 0 64 64" viewBox="0 0 64 64" xmlns="http://www.w3.org/2000/svg"><g><g><path d="m63.92 63.6h-36.02l11.27-28.34.94-2.35 4.6-11.56c.21-.54.7-.81 1.19-.82h.08c.08 0 .16.01.24.03h.02c.03.01.06.02.09.02h.01c.34.11.64.36.8.75l5.05 12.69 1.55 3.98z" fill="#445b69"/><path d="m48.26 31.75 4.08 17.34-7.55-16.32-2.04 11.6-1.02-13.32-2.56 4.2.94-2.35 4.6-11.56c.21-.54.7-.81 1.19-.82h.08c.08 0 .16.02.24.03h.02c.03.01.06.02.09.02h.01c.34.11.64.36.8.75l5.05 12.69 1.55 3.99z" fill="#e5e5e5"/></g><g><path d="m44.52 63.6h-44.44l13.9-34.97 1.15-2.9 5.67-14.26c.26-.67.86-1 1.46-1.01h.1c.1 0 .2.02.29.04 0 0 .02.01.03.01.04.01.08.02.12.03h.02c.42.14.79.44.98.93l6.23 15.66 1.94 4.89z" fill="#687d87"/><path d="m25.2 24.31 5.03 21.39-9.31-20.13-2.52 14.32-1.26-16.43-3.16 5.18 1.15-2.9 5.67-14.26c.26-.67.86-1 1.46-1.01h.1c.1.01.2.02.29.04 0 0 .02.01.03.01.04.01.08.02.12.03h.02c.42.14.79.44.98.93l6.23 15.66 1.94 4.89z" fill="#eff3f5"/></g><g><ellipse cx="37.43" cy="11.47" fill="#fbd303" rx="7.54" ry="7.52"/><g><g><path d="m36.97.4h.93v2.55h-.93z" fill="#ea9523"/></g><g><path d="m32.76 4.32-1.28-2.2.81-.47 1.28 2.21z" fill="#ea9523"/></g><g><path d="m29.81 7.61-2.22-1.27.47-.8 2.21 1.27z" fill="#ea9523"/></g><g><path d="m26.34 11.01h2.55v.93h-2.55z" fill="#ea9523"/></g><g><path d="m28.06 17.4-.47-.8 2.22-1.27.46.8z" fill="#ea9523"/></g><g><path d="m32.29 21.28-.81-.46 1.28-2.21.81.47z" fill="#ea9523"/></g><g><path d="m36.97 19.99h.93v2.55h-.93z" fill="#ea9523"/></g><g><path d="m42.58 21.28-1.28-2.2.8-.47 1.28 2.21z" fill="#ea9523"/></g><g><path d="m46.81 17.4-2.22-1.27.47-.8 2.21 1.27z" fill="#ea9523"/></g><g><path d="m45.97 11.01h2.55v.93h-2.55z" fill="#ea9523"/></g><g><path d="m45.06 7.61-.47-.8 2.22-1.27.46.8z" fill="#ea9523"/></g><g><path d="m42.1 4.32-.8-.46 1.28-2.21.8.47z" fill="#ea9523"/></g></g></g></g></svg>