<svg id="Layer_1" enable-background="new 0 0 64 64" viewBox="0 0 64 64" xmlns="http://www.w3.org/2000/svg"><g><g><g><g><path d="m21.33 46.03-1.58 6.76-.51 2.12-2.28 8.93h-6.73l3.16-12.48.47-1.96 1.21-5.15z" fill="#445b69"/></g></g><g><g><path d="m46.86 63.84h-6.72l-2.29-8.93-.5-2.12-1.58-6.76 6.25-1.78 1.22 5.15.47 1.96z" fill="#445b69"/></g></g></g><ellipse cx="28.55" cy="30.75" fill="#d44231" rx="23.78" ry="23.73"/><path d="m19.75 52.79-.5 2.12c-2.14-.9-4.1-2.1-5.86-3.55l.47-1.96c1.78 1.4 3.75 2.55 5.89 3.39z" fill="#324a5e"/><path d="m43.71 51.36c-1.75 1.45-3.72 2.65-5.86 3.55l-.5-2.12c2.14-.84 4.11-1.99 5.89-3.39z" fill="#324a5e"/><ellipse cx="28.55" cy="30.75" fill="#eff3f5" rx="20.47" ry="20.42"/><ellipse cx="28.55" cy="30.75" fill="#d44231" rx="17.16" ry="17.12"/><ellipse cx="28.55" cy="30.75" fill="#eff3f5" rx="13.84" ry="13.81"/><path d="m39.08 30.75c0 5.8-4.72 10.51-10.53 10.51-5.82 0-10.53-4.7-10.53-10.51 0-5.8 4.72-10.51 10.53-10.51s10.53 4.71 10.53 10.51z" fill="#d44231"/><path d="m35.77 30.75c0 3.98-3.23 7.2-7.22 7.2s-7.22-3.22-7.22-7.2 3.23-7.2 7.22-7.2c3.98 0 7.22 3.22 7.22 7.2z" fill="#eff3f5"/><path d="m32.45 30.75c0 2.15-1.75 3.9-3.91 3.9s-3.91-1.74-3.91-3.9c0-2.15 1.75-3.9 3.91-3.9s3.91 1.75 3.91 3.9z" fill="#d44231"/><g><path d="m49.83 16.4-6.06-.82-.81-6.04 7.81-9.38 2.22 6.23 6.25 2.21z" fill="#59b5ac"/><path d="m54.16 5.22c-.2-.2-.47-.31-.77-.31-.32 0-.64.13-.88.37l-24.85 24.8c-.22.22-.36.51-.37.82s.1.6.31.82c.2.2.47.31.77.31.32 0 .64-.13.88-.37l24.85-24.8c.47-.47.49-1.2.06-1.64z" fill="#445b69"/></g></g></svg>