<svg id="Layer_1" enable-background="new 0 0 64 64" viewBox="0 0 64 64" xmlns="http://www.w3.org/2000/svg"><g><g><path d="m25.67 4.15h5.32v2.72h-5.32z" fill="#324a5e"/><path d="m37.55 11.46c.96 0 1.87.47 2.39 1.27 2.03 3.17 2.44 7.27.98 12.44-1.19 3.81-1.46 8.71-1.19 12.8.2 2.92.96 5.78 2.08 8.49 2.26 5.51 1.81 10.31.47 15.27-.34 1.24-1.47 2.11-2.77 2.11h-11.18-11.18c-1.29 0-2.43-.86-2.77-2.11-1.34-4.97-1.79-9.77.47-15.27 1.11-2.71 1.88-5.57 2.08-8.49.28-4.1 0-8.99-1.19-12.8-1.45-5.17-1.04-9.27.99-12.44.52-.81 1.43-1.27 2.39-1.27z" fill="#3eb9e3"/><path d="m42.27 61.74c-.33 1.24-1.47 2.11-2.76 2.11h-2.83c1.29 0 2.43-.86 2.76-2.11 1.33-4.97 1.79-9.78-.47-15.27-1.12-2.72-1.88-5.58-2.08-8.49-.29-4.1 0-8.99 1.19-12.8 1.46-5.18 1.05-9.27-.98-12.44-.52-.81-1.44-1.27-2.4-1.27h2.84c.96 0 1.87.47 2.38 1.27 2.03 3.16 2.44 7.26.98 12.44-1.19 3.81-1.46 8.71-1.19 12.8.21 2.91.97 5.77 2.08 8.49 2.28 5.49 1.83 10.3.48 15.27z" fill="#3582a8" opacity=".5"/><g><path d="m47.24 43.9c-.49 0-.94-.16-1.31-.47-1.13-.94-1.24-2.99-1.25-3.31-.04-.48-.9-10-1-15.6-.14-7.74-7.42-16.2-7.49-16.28-.17-.2-.19-.49-.03-.7.15-.22.43-.3.68-.2.61.24 14.83 6.28 13.83 31.99-.02.2-.46 4.13-3.06 4.54-.12.02-.24.03-.37.03zm-8.23-33.89c2.27 3.18 5.72 8.91 5.82 14.49.1 5.67.99 15.44 1 15.54v.04c.01.51.19 1.94.84 2.48.21.18.45.24.77.19 1.71-.27 2.09-3.47 2.1-3.5.7-18.09-6.51-26.17-10.53-29.24z" fill="#445b69"/></g><path d="m37.63 11.46c-6.2 1.09-12.39 1.09-18.59 0v-3.79c0-1.32 1.16-2.32 2.47-2.15 4.04.51 9.46.5 13.68-.03 1.3-.16 2.43.85 2.43 2.16v3.81z" fill="#e5c06e"/><path d="m31.92 4.15h-7.17v-3.03c0-.53.43-.97.97-.97h5.24c.53 0 .97.43.97.97v3.03z" fill="#e2431e"/></g><path d="m18.67 21.78s6.18 13.45 0 25.71c0 0 2.79-13.33 0-25.71z" fill="#eff3f5" opacity=".5"/></g></svg>