<svg id="Layer_1" enable-background="new 0 0 64 64" viewBox="0 0 64 64" xmlns="http://www.w3.org/2000/svg"><g><g><g><path d="m30.14 19.21h-3.74l-14.55-18.58h3.73z" fill="#8e342d"/><path d="m33.87 19.21h-3.73l-14.56-18.58h3.74z" fill="#eff3f5"/><path d="m37.6 19.21h-3.73l-14.55-18.58h3.73z" fill="#e2431e"/></g><g><path d="m44.68.63h-3.73l-14.55 18.58h3.73z" fill="#8e342d"/><path d="m48.42.63h-3.74l-14.55 18.58h3.73z" fill="#eff3f5"/><path d="m52.15.16-3.73.47-14.56 18.58h3.74z" fill="#e2431e"/></g></g><g><path d="m40.87 26.87c-.54 0-.98-.49-.98-1.09v-6.44h-15.78v6.44c0 .6-.44 1.09-.98 1.09s-.98-.49-.98-1.09v-7.52c0-.6.44-1.09.98-1.09h17.74c.54 0 .98.49.98 1.09v7.52c-.01.61-.44 1.09-.98 1.09z" fill="#324a5e"/></g><path d="m53.65 42.24c0 1.38-2.08 2.53-2.33 3.83-.27 1.34 1.2 3.2.69 4.43-.52 1.26-2.88 1.53-3.63 2.65s-.11 3.41-1.07 4.36-3.24.31-4.37 1.06c-1.12.75-1.39 3.1-2.65 3.62-1.24.51-3.1-.96-4.44-.69-1.3.26-2.46 2.33-3.84 2.33s-2.54-2.07-3.84-2.33c-1.34-.27-3.21 1.2-4.44.69-1.26-.52-1.53-2.88-2.65-3.62-1.13-.75-3.41-.11-4.37-1.06s-.31-3.23-1.07-4.36c-.75-1.12-3.11-1.39-3.63-2.65-.51-1.23.96-3.09.69-4.43-.26-1.3-2.33-2.46-2.33-3.83 0-1.38 2.08-2.53 2.33-3.83.27-1.34-1.2-3.2-.69-4.43.52-1.26 2.88-1.53 3.63-2.65s.11-3.41 1.07-4.36 3.24-.31 4.37-1.06c1.12-.75 1.39-3.1 2.65-3.62 1.24-.51 3.1.96 4.44.69 1.3-.26 2.46-2.33 3.84-2.33s2.54 2.07 3.84 2.33c1.34.27 3.21-1.2 4.45-.69 1.26.52 1.53 2.88 2.65 3.62 1.13.75 3.41.11 4.37 1.06s.31 3.23 1.07 4.36c.75 1.12 3.11 1.39 3.63 2.65.51 1.23-.96 3.09-.69 4.43.25 1.3 2.32 2.46 2.32 3.83z" fill="#fbd303"/><g><ellipse cx="32" cy="42.24" fill="#d44231" rx="15.35" ry="15.31"/><ellipse cx="32" cy="42.24" fill="#c2382e" rx="12.6" ry="12.57"/><path d="m44.61 42.24c0 .41-.02.82-.06 1.21-.61-6.38-6-11.35-12.55-11.35-6.54 0-11.93 4.98-12.54 11.35-.04-.4-.06-.81-.06-1.21 0-6.95 5.65-12.57 12.6-12.57 6.96 0 12.61 5.63 12.61 12.57z" fill="#a6422e"/><path d="m32 31.28 3.3 6.66 7.36 1.07-5.33 5.19 1.26 7.32-6.59-3.46-6.59 3.46 1.26-7.32-5.33-5.19 7.36-1.07z" fill="#eff3f5"/></g></g></svg>