<svg id="Layer_1" enable-background="new 0 0 64 64" viewBox="0 0 64 64" xmlns="http://www.w3.org/2000/svg"><g><g><g><path d="m56.88 35.26h-22.32v-23.82h22.32l-7.29 11.91z" fill="#c2382e"/><path d="m39.85 30.72-5.29 4.54v-5.45h5.29z" fill="#a6422e"/><path d="m17.53 6.9h22.32v23.82h-22.32z" fill="#d44231"/></g><g><path d="m14.91 4.13h2.81v55.97h-2.81z" fill="#445b69"/><path d="m19.18 3.01c0 1.58-1.28 2.86-2.87 2.86s-2.87-1.28-2.87-2.86 1.28-2.86 2.87-2.86 2.87 1.29 2.87 2.86z" fill="#f4a300"/></g></g><path d="m25.51 63.84h-18.39v-1.72c0-1.22.99-2.21 2.21-2.21h13.97c1.22 0 2.21.99 2.21 2.21z" fill="#6691ad"/></g></svg>