<svg id="Layer_1" enable-background="new 0 0 64 64" viewBox="0 0 64 64" xmlns="http://www.w3.org/2000/svg"><g><path d="m61.66 21.77h-19.4v-19.36c0-1.25-1.01-2.25-2.26-2.25h-16c-1.25 0-2.26 1.01-2.26 2.25v19.36h-19.4c-1.25 0-2.26 1.01-2.26 2.25v15.96c0 1.24 1.01 2.25 2.26 2.25h19.41v19.36c0 1.25 1.01 2.25 2.26 2.25h15.99c1.25 0 2.26-1.01 2.26-2.25v-19.36h19.41c1.25 0 2.26-1.01 2.26-2.25v-15.96c-.01-1.24-1.02-2.25-2.27-2.25z" fill="#eff3f5"/><g><g><path d="m37.61 17.52-5.61 4.25-5.61-4.25v-9.12h11.22z" fill="#5ac8ae"/><path d="m32 2.42-3.41 3.91h6.82z" fill="#54af97"/></g><g><path d="m37.61 46.48-5.61-4.25-5.61 4.25v9.12h11.22z" fill="#5ac8ae"/><path d="m32 61.58-3.41-3.91h6.82z" fill="#54af97"/></g></g><g><g><path d="m17.48 37.59 4.27-5.59-4.27-5.59h-9.14v11.18z" fill="#e2431e"/><path d="m2.35 32 3.91-3.41v6.82z" fill="#d44231"/></g><g><path d="m46.52 37.59-4.27-5.59 4.27-5.59h9.14v11.18z" fill="#e2431e"/><path d="m61.65 32-3.91-3.41v6.82z" fill="#d44231"/></g></g><path d="m37.61 32c0 3.09-2.51 5.59-5.61 5.59s-5.61-2.5-5.61-5.59 2.51-5.59 5.61-5.59 5.61 2.5 5.61 5.59z" fill="#dededf"/></g></svg>