<svg id="Layer_1" enable-background="new 0 0 64 64" viewBox="0 0 64 64" xmlns="http://www.w3.org/2000/svg"><g><g><g fill="#5ac8ae"><path d="m54.81 8.82c-5.3 1.23-14.05 1.82-22.81 1.81v-7.32h20.69c.74 1.76 1.45 3.6 2.12 5.51z"/><path d="m59.56 25.68c-.13-.57-.25-1.12-.39-1.68-1.09-4.67-2.35-9.25-3.78-13.5-.18-.55-.37-1.1-.56-1.64-.01-.02-.02-.03-.02-.05-.67-1.91-1.38-3.75-2.12-5.5h-20.69-20.69c-.74 1.75-1.45 3.59-2.12 5.5 0 0 0 .01-.01.01-.2.56-.38 1.11-.57 1.68-1.43 4.25-2.69 8.83-3.78 13.5-.13.56-.26 1.12-.39 1.68-2.34 10.53-3.82 21.5-4.37 30.7 2.21 2.8 16.25 4.74 26.93 4.21l4.6-21.53.4-1.84.39 1.85 4.6 21.53c10.68.53 24.72-1.42 26.93-4.21-.54-9.21-2.02-20.18-4.36-30.71z"/></g><g fill="#dededf"><path d="m59.56 25.68h-3.91c-.72-3.79-2.95-11.55-4.84-16.13 0 0 .03-.01.09-.02.02-.01.05-.01.07-.02.75-.14 3.74-.7 3.84-.7.01.02.02.03.02.05.19.53.38 1.09.56 1.64 1.43 4.25 2.69 8.83 3.78 13.5.09.57.26 1.12.39 1.68z"/><path d="m13.19 9.52c-1.89 4.58-4.13 12.37-4.84 16.16h-3.91c.13-.57.28-1.12.39-1.68 1.09-4.67 2.35-9.25 3.78-13.5.19-.57.37-1.12.57-1.68.01 0 .03 0 .06.01l.14.02c.73.12 3.19.55 3.71.64.04.02.07.02.1.03z"/></g><path d="m34.78 10.61v13.34c0 1.53-1.25 2.78-2.78 2.78v-16.1c.93 0 1.86 0 2.78-.02z" fill="#e5e5e5"/><g><path d="m32.39 10.63v28.44l-.39-1.85-.39 1.85v-28.44z" fill="#54af97"/></g><path d="m54.81 8.82c-5.3 1.23-14.05 1.82-22.81 1.81-8.73-.02-17.47-.63-22.81-1.81.67-1.91 1.38-3.75 2.12-5.5h41.38c.74 1.75 1.45 3.59 2.12 5.5z" fill="#687d87"/></g><g fill="#5ac8ae"><path d="m36.25 6.97c0 .83-.68 1.51-1.51 1.51-.84 0-1.51-.68-1.51-1.51s.68-1.51 1.51-1.51 1.51.68 1.51 1.51z"/><path d="m30.78 6.97c0 .83-.68 1.51-1.51 1.51-.84 0-1.51-.68-1.51-1.51s.68-1.51 1.51-1.51 1.51.68 1.51 1.51z"/></g></g></svg>