<svg id="Layer_1" enable-background="new 0 0 64 64" viewBox="0 0 64 64" xmlns="http://www.w3.org/2000/svg"><g><g><path d="m18.69 53.07-3.24-3.23c-.07-.07-.07-.19 0-.26l.53-.53c.07-.07.19-.07.26 0l3.24 3.23c.07.07.07.19 0 .26l-.53.53c-.08.07-.19.07-.26 0z" fill="#f0582f"/><path d="m7.28 62.72-1.84-1.83 10.7-10.36 1.84 1.83z" fill="#c2382e"/><path d="m6.48 63.84-2.19-2.19c-.09-.09-.09-.23 0-.31l.64-.64c.09-.09.23-.09.31 0l2.19 2.19c.09.09.09.23 0 .31l-.63.64c-.09.08-.23.08-.32 0z" fill="#f0582f"/><g><path d="m59.58.1s-14.37 32.81-41.65 50.65l.87.87.84-.87c.77-.67 1.43-.38 1.43 1.05 19.55-15.24 32.75-33.8 38.51-51.7z" fill="#e5e5e5"/><path d="m59.58.1c-9.26 15.96-20.55 30.95-38.51 42.74.23 1.9-.86 2.3-2.27 2.36l.21 2.02c-.06 1.1-.91 2.04-1.9 2.72l.82.82c27.29-17.86 41.65-50.66 41.65-50.66z" fill="#c6c1c1"/></g></g><g><path d="m45.31 53.07 3.24-3.23c.07-.07.07-.19 0-.26l-.53-.53c-.07-.07-.19-.07-.26 0l-3.24 3.23c-.07.07-.07.19 0 .26l.53.53c.08.07.19.07.26 0z" fill="#f0582f"/><path d="m56.72 62.72 1.84-1.83-10.7-10.36-1.84 1.83z" fill="#c2382e"/><path d="m57.52 63.84 2.19-2.19c.09-.09.09-.23 0-.31l-.64-.64c-.09-.09-.23-.09-.31 0l-2.19 2.19c-.09.09-.09.23 0 .31l.64.64c.08.08.22.08.31 0z" fill="#f0582f"/><g><path d="m4.42.1s14.37 32.81 41.65 50.65l-.87.87-.84-.87c-.77-.67-1.43-.38-1.43 1.05-19.55-15.24-32.75-33.8-38.51-51.7z" fill="#e5e5e5"/><path d="m4.42.1c9.26 15.96 20.55 30.95 38.51 42.74-.23 1.9.86 2.3 2.27 2.36l-.21 2.02c.06 1.1.91 2.04 1.9 2.72l-.82.82c-27.29-17.86-41.65-50.66-41.65-50.66z" fill="#c6c1c1"/></g></g></g></svg>