<svg id="Layer_1" enable-background="new 0 0 64 64" viewBox="0 0 64 64" xmlns="http://www.w3.org/2000/svg"><g><g><path d="m61.85 14.8-29.85 16.05-29.85-16.05 29.85-14.64z" fill="#d44231"/><path d="m37.47 15.5c0 1.61-2.45 2.92-5.47 2.92s-5.47-1.31-5.47-2.92 2.45-2.92 5.47-2.92 5.47 1.31 5.47 2.92z" fill="#f1f3f7"/></g><g><g><path d="m32 63.84-29.85-15.21v-33.83l29.85 16.05z" fill="#c2382e"/><g fill="#f1f3f7"><path d="m12.89 26.1c1.11 1.99.92 4.21-.43 4.96s-3.34-.26-4.45-2.25-.92-4.21.43-4.96 3.34.26 4.45 2.25z"/><path d="m19.51 37.97c1.11 1.99.92 4.21-.43 4.96s-3.34-.26-4.45-2.25-.92-4.21.43-4.96 3.34.26 4.45 2.25z"/><path d="m26.14 49.84c1.11 1.99.92 4.21-.43 4.96s-3.34-.26-4.45-2.25-.92-4.21.43-4.96c1.34-.75 3.34.26 4.45 2.25z"/></g></g><g><path d="m32 63.84 29.85-15.21v-33.83l-29.85 16.05z" fill="#a6422e"/><g fill="#f1f3f7"><g><path d="m43.5 34.16c-1.08 2.28-3.05 3.62-4.4 2.99-1.35-.64-1.57-3-.49-5.29s3.05-3.62 4.4-2.99c1.35.64 1.57 3.01.49 5.29z"/><path d="m43.5 43.59c-1.08 2.28-3.05 3.62-4.4 2.99-1.35-.64-1.57-3-.49-5.29 1.08-2.28 3.05-3.62 4.4-2.99 1.35.64 1.57 3 .49 5.29z"/><path d="m43.5 53.01c-1.08 2.28-3.05 3.62-4.4 2.99-1.35-.64-1.57-3-.49-5.29 1.08-2.28 3.05-3.62 4.4-2.99 1.35.64 1.57 3.01.49 5.29z"/></g><g><path d="m55.25 27.94c-1.08 2.28-3.05 3.62-4.4 2.99-1.35-.64-1.57-3-.49-5.29 1.08-2.28 3.05-3.62 4.4-2.99 1.34.63 1.57 3 .49 5.29z"/><path d="m55.25 37.36c-1.08 2.28-3.05 3.62-4.4 2.99-1.35-.64-1.57-3-.49-5.29 1.08-2.28 3.05-3.62 4.4-2.99 1.34.64 1.57 3 .49 5.29z"/><path d="m55.25 46.78c-1.08 2.28-3.05 3.62-4.4 2.99-1.35-.64-1.57-3-.49-5.29 1.08-2.28 3.05-3.62 4.4-2.99 1.34.64 1.57 3.01.49 5.29z"/></g></g></g></g></g></svg>