<svg id="Layer_1" enable-background="new 0 0 64 64" viewBox="0 0 64 64" xmlns="http://www.w3.org/2000/svg"><g><path d="m48.25 58.46c-.02-1.09-7.29-1.97-16.25-1.97s-16.23.88-16.25 1.97v3.36c7.62 2.7 24.31 2.7 32.5 0z" fill="#255970"/><path d="m48.74 54.1c0 2.65-1.8 4.8-16.74 4.8-14.92 0-16.74-2.15-16.74-4.8 0-.75.61-1.46 1.69-2.1.01 0 .01-.01.01-.01.11-.06.23-.13.35-.19.32-.19.84-.51 1.37-.93.68-.53 1.38-1.24 1.75-2.03h23.16c.37.79 1.07 1.5 1.75 2.03.53.41 1.04.74 1.37.93.12.06.23.13.35.19l.01.01c1.06.63 1.67 1.34 1.67 2.1z" fill="#324a5e"/><path d="m43.61 48.83c-7.74 1.17-15.47 1.17-23.21 0v-2.47c0-.41.35-.72.76-.68 6.62.71 15.11.77 21.69.01.41-.05.76.27.76.68z" fill="#255970"/><path d="m45.33 50.87c-8.77 2.02-17.67 2.02-26.66 0l1.75-2.03c7.72 1.17 15.44 1.17 23.16 0 .37.79 1.07 1.49 1.75 2.03z" fill="#293b4e"/><path d="m41.26 45.86c-6.17.79-13.04.79-18.51-.01 0 0 3.19-14.66 3.12-22.11-.01-.73-.04-1.39-.12-1.96h12.51c-.08.57-.11 1.23-.12 1.96-.07 7.45 3.12 22.12 3.12 22.12z" fill="#324a5e"/><path d="m38.65 21.77h-13.3c-.67 0-1.21-.54-1.21-1.21 0-.67.54-1.21 1.21-1.21h13.3c.67 0 1.21.54 1.21 1.21 0 .67-.54 1.21-1.21 1.21z" fill="#255970"/><path d="m39.76 16.86h-15.52c-.92 0-1.67-.75-1.67-1.67 0-.92.75-1.67 1.67-1.67h15.52c.92 0 1.67.75 1.67 1.67.01.92-.74 1.67-1.67 1.67z" fill="#255970"/><path d="m25.56 16.86h12.88v2.49h-12.88z" fill="#324a5e"/><g><path d="m38.44 11.49h-12.88l-2.82-2.03h18.52z" fill="#293b4e"/><path d="m39.5.16-.63 5.07h-4.26l.27-5.07h-5.76l.27 5.07h-4.26l-.63-5.07h-4.63l2.87 9.3h18.52l2.87-9.3z" fill="#255970"/></g><path d="m25.56 11.49h12.88v2.03h-12.88z" fill="#324a5e"/><path d="m38.25 21.77c-.08.57-.11 1.23-.12 1.96h-12.26c-.01-.73-.04-1.39-.12-1.96z" fill="#293b4e"/></g></svg>