<svg id="Layer_1" enable-background="new 0 0 64 64" viewBox="0 0 64 64" xmlns="http://www.w3.org/2000/svg"><g><path d="m55.21 8.85s-1.89-1.66-1.83-3.87c.4-4.54-3.4-6.13-7.19-3.66-7.68 5.68-13.61 16.46-12.86 23.57.32 3.04 2.75 5.47 5.8 5.79 7.13.75 17.94-5.17 23.63-12.83 2.48-3.78.88-7.57-3.67-7.17-2.39.11-3.88-1.83-3.88-1.83z" fill="#5ac8ae"/><path d="m57.92 6.14-36.71 29.51 7.13 7.11z" fill="#54af97"/><path d="m.08 63.84 8.99-11.19 2.22 2.22z" fill="#c6c1c1"/><path d="m30.2 40.9-14.69 14.65c-.38.35-.79.6-1.21.77-1.76.71-3.77-.09-5.46-1.22-1.16-1.92-1.94-3.77-1.24-5.46.17-.41.42-.81.78-1.2l14.69-14.64z" fill="#e2431e"/><g fill="#d44231"><path d="m27.71 43.38-1.31 1.31-7.12-7.11 1.31-1.3z"/><path d="m25.07 46.01-1.31 1.32-7.12-7.11 1.31-1.31z"/><path d="m22.43 48.65-1.31 1.31-7.12-7.11 1.31-1.3z"/><path d="m14.31 56.33c-1.76.71-3.77-.09-5.46-1.23-1.16-1.92-1.94-3.77-1.24-5.46z"/></g></g></svg>