<svg id="Layer_1" enable-background="new 0 0 64 64" viewBox="0 0 64 64" xmlns="http://www.w3.org/2000/svg"><g><ellipse cx="32" cy="32" fill="#3582a8" rx="31.92" ry="31.84"/><path d="m56.45 52.47c-5.85 6.96-14.64 11.37-24.45 11.37-17.63 0-31.92-14.26-31.92-31.84 0-9.79 4.43-18.56 11.4-24.39-4.67 5.53-7.47 12.67-7.47 20.47 0 17.58 14.29 31.84 31.92 31.84 7.82 0 14.97-2.79 20.52-7.45z" fill="#255970" opacity=".3"/><g><ellipse cx="32" cy="38.34" fill="#eff3f5" rx="13.96" ry="13.93"/><g><path d="m25.39 42.81 3.76-.39c.11.85.42 1.52.95 2.01.53.5 1.14.74 1.83.74.79 0 1.45-.32 2-.96s.82-1.6.82-2.88c0-1.21-.27-2.11-.81-2.71s-1.25-.9-2.11-.9c-1.08 0-2.05.48-2.91 1.43l-3.06-.44 1.93-10.21h9.97v3.52h-7.11l-.59 3.33c.84-.42 1.7-.63 2.58-.63 1.67 0 3.09.61 4.25 1.82s1.74 2.79 1.74 4.73c0 1.61-.47 3.06-1.41 4.32-1.28 1.73-3.05 2.6-5.33 2.6-1.82 0-3.3-.49-4.44-1.46-1.16-.97-1.84-2.28-2.06-3.92z" fill="#d44231"/></g></g><path d="m31.87 6.9c.83 1.81-2.16 4.93-6.67 6.98s-8.83 2.24-9.65.44c-.83-1.81 2.16-4.93 6.67-6.98 4.5-2.05 8.82-2.25 9.65-.44z" fill="#f1f3f7" opacity=".4"/></g></svg>