<svg id="Layer_1" enable-background="new 0 0 64 64" viewBox="0 0 64 64" xmlns="http://www.w3.org/2000/svg"><g><path d="m4.99 41.89 48.33 20.22-.21.23c-1.19 1.32-3.05 1.83-4.75 1.29-15.54-4.96-29.36-10.71-40.96-17.49-1.09-.64-1.85-1.71-2.12-2.94z" fill="#293b4e"/><path d="m60.22 46.62c-.3 1.41-.66 2.79-1.09 4.13-.88 2.74-2.02 5.31-3.39 7.69-.74 1.28-1.55 2.51-2.42 3.67-15.39-4.94-37.63-13.89-48.33-20.22-.05-.19-.1-.38-.15-.57-3.57-13.79-2.1-23.77 2.2-30.45.99-1.54 2.14-2.9 3.41-4.1 4.79-4.51 11.34-6.6 18.2-6.61 6.12 0 12.02 1.26 17.07 4.19 3.77 2.18 7.07 5.31 9.65 9.53 1.47 2.4 2.7 5.16 3.64 8.31 1.15 3.83 1.88 8.24 2.11 13.28.17 3.86-.15 7.61-.9 11.15z" fill="#d44231"/><path d="m60.22 46.62c-1.11-.15-2.22-.31-3.3-.48-.89-.14-1.75-.29-2.61-.44-.91-.16-1.8-.34-2.69-.52-.87-.19-1.72-.38-2.56-.57-.96-.22-1.9-.46-2.83-.71-1.31-.35-2.58-.73-3.82-1.13-5.57-1.81-10.36-4.12-14.23-7.05-9.99-8-8.91-15.26-6.45-17.96 3.41-3.01 8.44-1.68 13.19 1.05 2.07 1.19 4.3 2.12 6.64 2.56l.12.02c1.26.23 2.61.41 3.99.54 1.05.1 2.12.18 3.19.24.84.04 1.68.07 2.51.08.98.02 1.95.03 2.89.03.87 0 1.7-.02 2.49-.03.81-.02 1.57-.05 2.26-.07 1.15 3.83 1.88 8.24 2.11 13.28.17 3.87-.15 7.62-.9 11.16z" fill="#324a5e"/><path d="m59.13 50.75c-.88 2.74-2.02 5.31-3.39 7.69-19.99-7.52-27.72-11.51-34.09-16.12-12.37-9.89-14.82-17.98-15.29-29.63l.69-1.82c.99-1.54 2.14-2.9 3.41-4.1.2 10.38 1.91 20.05 8.2 27.04 8.03 8.32 21.3 14.09 40.47 16.94z" fill="#c2382e"/><path d="m55.37 13.88c-.38.82-3.68.78-5.85-1.46-2.38-2.45-15.06-8.05-15.06-8.05l1.03-.8 4.61 1.45c1.08.34 2.24.35 3.33.03l2.3-.7c3.77 2.18 7.07 5.3 9.64 9.53z" fill="#c2382e"/><path d="m32.53 23.5c0 2.72-2.21 4.93-4.94 4.93s-4.94-2.21-4.94-4.93 2.21-4.92 4.94-4.92c2.73-.01 4.94 2.2 4.94 4.92z" fill="#e5e5e5"/><path d="m30.82 23.5c0 1.77-1.44 3.21-3.22 3.21s-3.22-1.44-3.22-3.21 1.44-3.21 3.22-3.21c1.77-.01 3.22 1.43 3.22 3.21z" fill="#c6c1c1"/><g fill="#293b4e"><path d="m46.23 43.9c-1.31-.35-2.58-.73-3.82-1.13.98-7.13.56-14.25-.73-21.37 1.26.23 2.61.41 3.99.54.92 7.32 1.31 14.64.56 21.96z"/><path d="m51.62 45.18c-.87-.19-1.72-.38-2.56-.57.84-7.47.63-14.95-.2-22.44.84.04 1.68.07 2.51.08.61 7.65.84 15.29.25 22.93z"/><path d="m56.92 46.14c-.89-.14-1.75-.29-2.61-.44.98-7.8.81-15.61-.05-23.41.87 0 1.7-.02 2.49-.03.63 7.96.85 15.92.17 23.88z"/></g></g></svg>