<svg id="Layer_1" enable-background="new 0 0 64 64" viewBox="0 0 64 64" xmlns="http://www.w3.org/2000/svg"><g><path d="m16.19 11.65.15 2.58 3.1-.18.91-2.4-1.92-.54z" fill="#e1dce2"/><path d="m18.28 20.17s.37 2.46.61 2.95c.23.48.48 1.66.14 2.35-.53 1.07-.85 4.37-.74 4.61-.06.47-.22 1.11-.59 2.05-.48.85-.87 1.67-.95 2.41-.9 1.15-.93 2.59.5 3.77.3.32.58.42.84.55.57.19 1.01.04.86-.58 1.25-.74 1.51-1.68.85-2.79l2.05-5.64 1.1-2.87-.34-5.3-.14-1.52-.31-1.84-.93-.15-1.69.19-.93.95z" fill="#fbd984"/><path d="m59.23 53.66s.25 1.23 1.68.65c0 0 .94-.38 1.25-1.19l-.79-.09z" fill="#bdbdbe"/><path d="m27.93 54.15s-.51.72.6 1.22 3.18.2 3.18.2 1.42-.22 1.75-.66c0 0 .41-.43.66-.75l-2.79.79-1.52-.57z" fill="#bdbdbe"/><path d="m34.15 29.26c-1.23 1.24-2.46 3.57-3.68 5.96.61 1.93 2.29 3.32 1.93 5.81l.99 2.08c-.86.77-1.95 1.27-3.29 1.47-.92-2.33-2.97-3.91-3.79-7.77-1.1-1.31-1.13-2.47-.75-3.56.31-.78.6-1.55.46-2.05l.82-1.68 4.9-1.07h2.41z" fill="#fcd880"/><path d="m50.05 32.21.88.98s2.97 1.49 4.31 4.04c0 0 .65 1.21 1.99 2.74-.16 1.02-1.31 2.09-2.48 2.26-.17-.35-2.82-2.2-3.5-3.17l-1.66-1.39c-.96-.69-3.03-.93-3.87-2.55-.41-.34-.8-.79-1.19-1.3z" fill="#fcd880"/><path d="m49.51 31.12c-.03-.41-.55-1.09-.55-1.09s-1.33-4.25-1.86-4.75c0 0-.06-.99-.52-1.7 0 0-.19-1.6-.76-2.15 0 0-.09-.33-.35-.63 0 0 .29-2.64-2.38-4.94l-12.75 7.62-3.61 3.47-.7 4.25c.77-.66 1.78-.83 2.96-.93.79-.06 1.95.02 2.82-.26.5-.16 1.06-.21 1.53.02 1.39.69 1.51 1.48 1.51 1.48l2-2.26s1.32 1.45 1.76 2.43c0 0 1.28 2.47 2.73 2.35 0 0 3.81-.03 4.95-.29 2.75-.63 3.9-1.55 3.9-1.55s-.66-.65-.68-1.07z" fill="#324a5e"/><path d="m43.09 15.86c-.2-.42-.58-.84-1.22-1.27 0 0-.66-2.43-6.66-4.67 0 0-2.13-2.16-3.91-2.28 0 0-2.42-1.74-4.88-2.14-2.46-.41-7.16.81-7.16.81l.5 4.73-.31.5c-.65 2.71-1.49 2.54-2.08.47-.4.01-1.19.01-1.61-.41l-.12 1.02c.17.53.31 1.25.38 2.26.09 1.08.51 2.17 1.2 3.29.32.42.66 1.02 1.04 2.01l2.43-1.43c1.86 1.92 4.06 3.28 6.72 3.92 3.15 1.38 6.12 2.12 8.59 1.16 3.49-.39 6.14-1.88 7.08-5.56.13-.84.14-1.65.01-2.41z" fill="#788d98"/><path d="m30.11 44.58c1.23-.14 2.62-.78 3.29-1.47l3.48 6.39-.89 1.59s-2.35-.41-2.35-.45c0-.03-3.53-6.06-3.53-6.06z" fill="#3582a8"/><path d="m57.22 39.96 5.01 5.26-1.75 2.99-1.73.23c.33.09-.53-2.44-1.73-3.81l-2.27-2.41z" fill="#3582a8"/><path d="m32.26 50.73s-.81-.69-.09-1.97c0 0 .79-.4 1.56.26 0 0 .26 1.58-.71 1.94 0 .01-.47.07-.76-.23z" fill="#e5e5e5"/><path d="m37.85 51.46s.8.57.15 1.36c0 0-1.95.97-3.59 1.02 0 0-.25.36-1.06.82s-2.14.67-2.86.62c0 0-.36-.05-.52-.28s-.18-.28-.74-.37c-.57-.08-.87-.09-1.3-.49l2.84-.16 4.35-1.53 2.59-1.24z" fill="#e5e5e5"/><path d="m19.18 12.52s-1.42-.63-2.19-.5c-.77.14-1.61-.25-1.61-.25s-.89-.23-1.97 0c0 0-1.39.77-1.64-.46 0 0-.85.2-.77-.48l1.04-.35s-1.29.06-1.34.06c-.06 0 .06 0 .06 0s-.2-.15-.24-.65c0 0-1.17.17-1.03-.44 0 0 .18-1.12.34-1.36 0 0 .24-.63-.34-.78-.59-.14-.19-2.04-.19-2.04l6.57-.3 1.78 1.21.4.14.72 4.12.86.66z" fill="#fcd880"/><path d="m59.89 47.44s.66-1.01-.29-1.58c0 0-.24.29-.95.38 0 0-1.65-.03-1.06.96 0 0 .62 1.4 1.6.77.21-.08.51-.36.7-.53z" fill="#e5e5e5"/><path d="m61.67 43.1s-1.07-.19-1.48 0c0 0-.62.45.58.77 0 0 1 .35.25 1.6-.52.34-.74.9-.89 1.46-.06.23-.21.52-.39.68-.57.51-1.14.51-1.67.25 0 0 1.05 1.06.88 2.33-.17 1.26 0 2.78 0 2.78.17 1.2 1.09 1.24 2.43.08l.7-.22 1.08-1.66.14-2.65.1-2.46-.25-2.37-.71-.4z" fill="#324a5e"/><path d="m61.67 43.1c2.01.47 1.33 3.2 1.33 3.2-.29 1.22.15 3.59.15 3.59-.12 2.49-1.78 3.15-1.78 3.15l.79.09c.34-.36.93-1.35.93-1.35.32-.41.59-1.7.4-2.97s-.07-1.12.34-2.84c.42-1.8-.67-2.47-.67-2.47-.47-.29-.98-.35-1.49-.4z" fill="#e5e5e5"/><path d="m36.79 48.78c.37.43 1.06 1.41 1.05 2.68 0 0-.55.69-2 1.04-1.07.26-1.43.45-2.26 1.13-.88.72-1.84 1.3-3.28 1.3-.13 0-.25-.03-.36-.09-.17-.08-.45-.2-.64-.2 0 0-.97-.03-1.38-.5 0 0 .21-.93 2.54-1.79 0 0 1.07-.38 1.54-2.06 0 0 .66 1.09 1.72-.1 0 0 .51-.62 1.37-.27 1.23.5 1.45-.52 1.48-1.07 0-.11.15-.16.22-.07z" fill="#324a5e"/><path d="m19.27 6.31-1.23.23.32 3.6s.17 1.57 1.14 1.34l.32-.22z" fill="#506c72"/><path d="m9.16 5.21s-2.12.89-.77-1.26 3.21-3.54 5.35-3.1c0 0 2.46.58 2.95 2.08 0 0 1.34.84 1.48 1.92 1.32 1.45.84 2.21-.36 2.7-1.2.45-1.67-.39-2.08-1.36-.46-.81-1.25-.66-1.47.18-.41.4-.51.92-.25 1.56l-.66.42c-.1-.97-.42-1.53-.86-1.89-1.22.28-1.37-.18-1.33-.99-.76.31-1.39.09-2-.26z" fill="#324a5e"/><g><path d="m6.34 52.54s-2.53 3.89-2.82 4.26c-.55.72-1.42.7-1.29-.07 0 0 .33-1.4-.86-1.56-1.23-.17-2.47 3.32.71 4.26 2.35.7 4.04-2.57 4.04-2.57.41-.74 1.13-1.93 2.02-3.39l-1.7-1.11c-.02.06-.06.12-.1.18z" fill="#e5e5e5"/><path d="m22.86 28.72s-5.43 7.66-10.11 14.37l1.39.9c3.5-5.43 6.82-10.25 7.17-10.65l2.73-3.71z" fill="#445b69"/><path d="m6.46 52.35 1.7 1.11c1.61-2.63 3.83-6.12 5.98-9.47l-1.39-.9c-2.86 4.1-5.43 7.85-6.29 9.26z" fill="#d44231"/></g><path d="m9.32 61.21c0 1.12-.91 2.02-2.03 2.02s-2.03-.9-2.03-2.02.91-2.02 2.03-2.02c1.13 0 2.03.91 2.03 2.02z" fill="#c6c1c1"/><path d="m30.92 12.16c1.71 2.68 4.27 6.1 2.61 7.86-.69 2.05-4.43 4.38-7.22 7.55-.06.51-.18.92-.41 1.16-.07.46-.56 1.52-.92 1.66-.24.06-.45.17-.62.35-.09.14-.29.23-.56.28-.19.3-.3.31-.61.33-.26 1.13-.83 1.36-1.29 1.2.25-.23.36-.84.49-1.46-.02-.55 0-1.07.13-1.52.11-.32.12-.76.1-1.21-.03.7-.18 1.22-.53 1.47-.24.18-.35.07-.36-.5.13-.22.17-.54.22-.91.02-.2.12-.38.23-.55.56-.84 1.11-1.22 1.62-1.24 1.78-1.32 3.22-2.79 4.1-4.5.48-1.21 1.07-2.38 1.97-3.47.18-.55-.22-.91-.88-1.18-.53-.12-1.48-1.26-2.35-2.2z" fill="#f0ba7a"/><path d="m25.59 7.11c.91-.07 2.38.17 3.14 2.14 0 0 1.66.44 1.09 1.29l1.18 1.64s.01 1.62-4.35 3.07l-.44-.72s-.31.21-.45-.15c0 0-2.47-1.69-2.7-4.02-.14-1.4.51-2.23 1.06-2.67.42-.36.94-.54 1.47-.58z" fill="#e1dce2"/></g></svg>