<svg id="Layer_1" enable-background="new 0 0 64 64" viewBox="0 0 64 64" xmlns="http://www.w3.org/2000/svg"><g><g fill="#f6d788"><path d="m46.24 31.49c-.21.23-.64.07-.67-.26-.1-.62-.18-.89-.27-1.17-.12-.38-.43-.9-.63-.84l.21.82c.11.55.12 1.12 0 1.69-.24.19-.56 0-.55-.26.01-.44 0-.86-.04-1.17-.01-.09-.04-.18-.08-.26-.29-.67-.48-1.12-.64-1.05-.01.36.01.78 0 1.3 0 .07-.01.13-.02.2-.11.51-.23.97-.38 1.29-.33.09-.47-.07-.47-.38.12-.64.21-1.25.13-1.73-.06-.5-.12-.92-.2-1.16l-.21-.02c.03.32.04.63.02.9-.01.17-.06.33-.15.48-.2.33-.45.63-.73.93-.47.09-.58-.09-.44-.47l.41-.63c.14-.2.19-.46.15-.7-.04-.26-.1-.5-.2-.71-.89-.89-1.34-1.87-1.45-2.92-.47-.24-.93-.5-1.39-.8-.72-.45-1.43-.95-2.13-1.52l-6.22-6.05-.45-.44.14-.2.28-.4 1.45-2.08 2.51-.79.96.64 1.08 1.66.19 1.72c2.13 2.24 3.94 4.67 5.33 7.33.99 1.19 2.22 2.3 2.98 3.28.39.51.76 1.11 1.12 1.79.02.04.04.08.05.13.14.58.24 1.19.31 1.85z"/><path d="m43.7 46.87-3.69 1.15-1.67.52c-.24-1.52-.28-2.24-.16-4.08-1.38-1.03-2.61-2.1-3.62-3.23l1.65-3.88 2.69-.63.85-.2s1.56 3.58 2.62 4.49c1.05.91.73 3.23.73 3.23z"/><path d="m37.04 34.86-.48 1.23v.02c-.02.09-.13.57-.33 1.25-.52 1.82-1.65 5.12-3.32 6.56 0 0-1.59 1.41-4.04-.43 0 0-2.16-1.41-3.26-1.92l1.65-5.14.11-.34 1.01.56-.83-3.36 1.46-1.28 1.05.16 4.83.76z"/></g><path d="m48.06 60.34-2.22.59-1.6-.69-.15-.07c.13-.51.01-.94-.24-1.49-.31-1.05-1.17-3.08-1.75-3.91-2.51-1.19-3.63-3.36-3.75-6.23l1.67-.52 3.84-1.19c.54 1.62.99 3.28 1.27 5.01.01.08.03.16.05.23.69 2.65 1.43 5.17 2.27 7.44z" fill="#3582a8"/><path d="m27.41 36.12c.71.85 1 3.87-1.89 5.57-3.03-1.78-7.18-4.32-7.93-4.96-.38-.45-1.79-.99-2.8-1.14l-1.29-.35 2.8-3.1.52.77.83.65 6.02 2.18c1.52-.15 2.98-.16 3.74.38z" fill="#3582a8"/><path d="m44.12 60.02c-.13.44-.27.85-.44 1.18-.21.55-.12 1.27.06 2.03.29.02.49.14.52.45.14.09.32.11.52.08l.1-.27c.4.09.8.1 1.2 0l.19.35c.23-.01.43-.06.56-.21v-.33l.83-.21.91.09.06.26.44-.02.21-.38c.49 0 .99-.06 1.32-.28l.04.31.54-.2.19-.38c.23-.04.43-.12.6-.25l.07.19c.22-.03.33-.18.28-.52.56-.57.07-1.12-.82-1.25l-2.18-.02-1.55-1.1c-.23-.09-.42.03-.6.3-.13.2-.34.32-.58.37-.79.13-1.98.16-2.47-.19" fill="#324a5e"/><path d="m16.82 32.9c-.08-1.25-.62-1.94-1.96-1.63l-.41-.33-.67.37-.1.82-.77.39-.67-.39-.39.21v.33l-.43.24-.9-.19-.28.24v.4l-.5.33h-.62l-.35.21.11.37-.56.73-.57-.04-.17.37.28.45c-.23 1.15-.04 2.78 1.64 1.32.89-.68 1.48-1.11 2.88-1.04.06.21.15.4.28.57.31.09.62.16.94.17.37-.29.76-.54 1.17-.75-.19-1.93.43-3.05 2.05-3.15z" fill="#324a5e"/><path d="m21.19 9.06v.82l-.79 1.39-.67 1.18-.03.06c-1.8-.33-3.64-2.66-4.75-4.24-.3-.42-.55-.79-.73-1.06-.61 0-1.18-.14-1.73-.34-.58.04-1.07.04-1.52.01-.3 0-.52-.04-.7-.09-.33-.11-.3-.37-.15-.42l1.01-.04c.29-.03.52-.08.69-.16.32-.2-.41-.24-1.32-.24l-.7-.2c-.5-.13-.43-.56-.12-.53l.86.16c.43.02.84.01 1.22-.01.12-.13-.43-.39-1.05-.65-.48-.27-.79-.51-1.03-.74-.18-.25.02-.49.25-.39.37.24.71.46 1.01.65.37.08.76.23 1.17.43.26-.1.02-.37-.7-.81-.3-.25-.52-.51-.67-.78-.17-.3-.04-.63.28-.45l.68.72c.06.07.13.12.21.16l.64.35c.45.14.91.22 1.36.27.23-.14.07-.33-.42-.55-.85-.22-.64-.82-.64-.82.22.18.85.31 1.18.34.12.01.23.05.32.13.18.15.49.41.62.55.19.2.43.51.43 1.4 0 .16.03.3.07.44.14.42.46.76.86.96 1.3.63 3.93 2.24 4.13 2.45z" fill="#f6d788"/><path d="m35.32 3.46c.09.45.11 1.03.09 1.73l-.52.38c.2.55.31 1.12.32 1.7 0 .27-.29.3-.8.16v.54c-.16.02-.3.03-.43.04.4.34.45.57-.13.62-.05.29.38 1.11-.11.93l-3.17-.68-2.49-1.12-.34-.3s.09-.84.27-1.07l1.47-2.16 1.62-1.22 3.26-.82z" fill="#f6d788"/><path d="m26.28 8.37 1.03-.93s2.57.12 3.32.93z" fill="#255970"/><path d="m31.2 7c-1.06-.64-2.13-.87-3.22-.59.2-1.29.05-2.79.11-3.71.02-.24.07-.48.16-.71.68-1.72 2.09-2.02 3.82-1.74.07.01.14.03.21.04 2.51.63 5.41 2.88 3.1 3.37-1.82-1.12-2.71-1.13-2.02.74-.28.22-.5.45-.58.7l-.02.27h-.47c-.61-1.44-1.23-1.31-1.35-.54-.02.58.05 1.09.24 1.51.27.42.23.6.02.66z" fill="#324a5e"/><path d="m39.75 36.54-3.53.82h-.01l.34-1.25v-.02c-2.11-1.94-4.21-3.12-6.3-3.25-.91-.06-1.82.08-2.73.45-.04.01-.08.03-.12.05-1.17-2.22-1.28-4.82-.34-7.79-2.06-3.55-3.55-7.19-4.26-10.98-1.67-.33-2.7-1.16-3.08-2.13-.23-.57-.23-1.19 0-1.77.24-.6.73-1.17 1.46-1.62l5.09-.69h4.35l.46.46c4.36.3 5.59 3.8 5.36 8.28l-.48-1.79c-2.11-1.91-3.9-1.31-4.59 1.33.45.83.99 1.59 1.74 2.2.21.63.39 1.3.93 1.53.84.99 1.5 1.72 2.47 2.49v2.93c1.06 2.21 1.42 4.48 1.17 6.79z" fill="#3582a8"/><path d="m30.04 32.17c.07.21.15.43.23.66v.01c-.91-.06-1.82.08-2.73.45-.04.01-.08.03-.12.05-1.17-2.22-1.28-4.82-.34-7.79-2.06-3.55-3.55-7.19-4.26-10.98-1.67-.33-2.7-1.16-3.08-2.13-.23-.57-.23-1.19 0-1.77.05.05.29.32.67.6.48.35 1.18.72 1.97.67l1.64-2.06s-.43 2.1-.22 3.74c0 0 .44 3.59 4.67 6.59 0 0-1.53.07-3.09-1.61.04.1.81 1.7 3.2 3.1 0 0-1.57-.46-2.05-.7 0 0 .55 2.13 2.49 2.97 0 0-.48.19-1.43 0l.32.86s1.64-.56 2.37-.25c-.02.02-2.16 1.74-.24 7.59z" fill="#255970"/><path d="m19.73 10.68c-.23.59-.23 1.2 0 1.77l-.03.06c-1.8-.33-3.64-2.66-4.75-4.24l-.01-.04s2.75 2.24 3.48 2.72c0 0 .36 1.03 1.08.5 0 0 .06-.61.23-.79-.01.01-.01.01 0 .02z" fill="#e5c06e"/><path d="m31.98 39.29c-.16-.11-2.64-1.92-4.14-2.06-.07-.48-.23-.87-.43-1.11l.96.53-.83-3.36c.91-.37 1.82-.51 2.73-.45-.09.2-1.23 3.29 1.71 6.45z" fill="#e5c06e"/><path d="m40.01 48.02-1.67.52c-.24-1.52-.28-2.24-.16-4.08-1.38-1.03-2.61-2.1-3.62-3.23l1.65-3.88 2.69-.63c-.92.89-3.4 3.84.3 7.11 0 0 .57.31 1.03-.26-.21.32-.85 1.53-.22 4.45z" fill="#e5c06e"/><path d="m44.92 60.24h-.67l-.15-.07c.13-.51.01-.94-.24-1.49-.31-1.05-1.17-3.08-1.75-3.91-2.51-1.19-3.63-3.36-3.75-6.23l1.67-.52c.31 1.45.94 3.33 2.08 5.73l.65-.41z" fill="#255970"/><path d="m36.52 23.04v-.17c-.96-.77-1.63-1.5-2.47-2.49-.54-.23-.72-.9-.93-1.53-.76-.61-1.29-1.37-1.74-2.2.04-.15.08-.29.12-.42.37.68 1.06 1.78 1.89 2.13 0 0 .21 1.62 1.28 1.56 0 0 1.79 2.92 3.97 4.63-.7-.44-1.42-.95-2.12-1.51z" fill="#e5c06e"/><g><path d="m52.96 34.87c.46 0 1.33.66 2.08 1.76.2.29.39.6.56.95.46.92.8 2.04.83 3.25.02 1.11-.3 2.19-.76 3.12-.19.39-.41.75-.64 1.07-.76 1.09-1.63 1.8-2.07 1.8-.01 0-.02 0-.03 0-.07 0-.15-.02-.23-.06-.47-.19-1.17-.82-1.81-1.72-.23-.33-.45-.69-.64-1.08-.46-.93-.78-2.01-.76-3.12.02-1.22.37-2.33.83-3.26.17-.35.36-.67.56-.95.62-.91 1.33-1.51 1.81-1.69.08-.03.16-.05.23-.05.02-.02.03-.02.04-.02z" fill="#8e342d"/><g><path d="m52.93 34.87c-1.6 3.91-1.6 7.92 0 11.94-.07 0-.15-.02-.23-.06-1.55-3.98-1.55-7.95 0-11.83.08-.03.16-.04.23-.05z" fill="#601a21"/></g><g fill="#f1f3f7"><path d="m55.04 36.63c.2.29.39.6.56.95-1.8-.12-3.56-.13-5.27-.01.17-.35.36-.67.56-.95 1.33-.11 2.72-.1 4.15.01z"/><path d="m55.67 43.94c-.19.39-.41.75-.64 1.07-1.52.17-2.85.17-4.14.02-.23-.33-.45-.69-.64-1.08 1.76.3 3.57.29 5.42-.01z"/></g><g><g><path d="m52.12 37.85c-.31 1.88-.31 4.07-.01 6l-.38.06c-.31-1.96-.3-4.19.01-6.12z" fill="#eff3f5"/></g><g><g><g><path d="m52.38 43.54c-.33.05-.68.05-.97 0l.03-.19c.27.04.59.04.91 0z" fill="#eff3f5"/></g><g><path d="m52.32 42.8c-.19.03-.58.06-.97 0l.03-.19c.27.04.59.04.91 0z" fill="#eff3f5"/></g><g><path d="m52.27 42.06c-.33.05-.68.05-.97 0l.03-.19c.27.04.59.04.91 0z" fill="#eff3f5"/></g><g><path d="m52.2 41.12v.19c-.22 0-.46 0-.68 0h-.25v-.19h.25z" fill="#eff3f5"/></g></g><g><g><path d="m52.38 38.14-.03.19c-.31-.04-.64-.04-.91 0l-.03-.19c.29-.04.63-.04.97 0z" fill="#eff3f5"/></g><g><path d="m52.32 38.89-.03.19c-.31-.04-.64-.04-.91 0l-.03-.19c.4-.07.78-.03.97 0z" fill="#eff3f5"/></g><g><path d="m52.27 39.63-.03.19c-.31-.04-.64-.04-.91 0l-.03-.19c.29-.05.64-.05.97 0z" fill="#eff3f5"/></g><g><path d="m52.2 40.56c-.22 0-.46 0-.69 0h-.25v-.19h.25.68z" fill="#eff3f5"/></g></g></g></g></g></g></svg>