<svg id="Layer_1" enable-background="new 0 0 64 64" viewBox="0 0 64 64" xmlns="http://www.w3.org/2000/svg"><g><path d="m48.71 23.15c0 3.1-7.48 5.61-16.71 5.61s-16.71-2.51-16.71-5.61 7.48-5.61 16.71-5.61 16.71 2.51 16.71 5.61z" fill="#f0582f"/><path d="m12.38 45.22c-4.32-.87-7.99-2.63-11.22-5.01v-11c8.57-6.34 17.9-10.03 28.87-10.03l1.97 2.6 1.97-2.6c10.97 0 20.3 3.69 28.87 10.03v11c-3.23 2.38-6.91 4.14-11.22 5.01v-17.85h-38.14z" fill="#d44231"/><path d="m32 20.32c8.81-.18 16.24 1.21 22.25 4.19 1.93.96 3.56 1.95 3.95 5.1.34 2.56.43 5.33.32 8.27.04 3.94-2.56 5.16-6.9 5.62v1.71c-2.29.38-4.65.77-7.06 1.18 0 0-4.67.88-6.78-3.57-1.35-2.78-2.55-5.74-3.46-8.83-.51-1.53-1.2-1.71-2.31-1.76-1.13.09-1.8.23-2.31 1.76-.91 3.09-2.11 6.05-3.46 8.83-2.11 4.45-6.78 3.57-6.78 3.57-2.41-.4-4.77-.79-7.06-1.18v-1.71c-4.35-.46-6.95-1.68-6.9-5.62-.11-2.94-.02-5.71.32-8.27.38-3.15 2.01-4.15 3.95-5.1 5.99-2.98 13.42-4.37 22.23-4.19z" fill="#e5c06e"/><path d="m56.79 38.86c-.05 1-.41 1.7-1.22 1.97 0 0-2.26.9-5.79 1.8-.95.25-2 .49-3.13.72-.27.05-.55.1-.83.16 0 0-.41.14-.99.25-1.08.21-2.74.32-3.38-.77 0 0-.34-.68-.84-1.7-.29-.58-.64-1.28-1.02-2.01-.25-.49-.52-1.01-.78-1.52-.9-1.76-1.81-3.49-2.3-4.32-1.03-1.75-1.64-2.53-4.51-2.53-2.85 0-3.47.78-4.51 2.53-1.22 2.07-4.93 9.55-4.93 9.55-.41.71-1.25.91-2.07.91-1.16 0-2.3-.4-2.3-.4-.16-.03-.33-.06-.48-.1-.55-.1-1.09-.22-1.6-.34-1.8-.4-3.35-.82-4.59-1.2-.56-.17-1.06-.33-1.47-.47-.47-.15-.84-.29-1.11-.38-.33-.12-.5-.19-.5-.19-.81-.26-1.17-.97-1.21-1.97-.06-2.61 0-5.22.18-7.82.07-1.63.59-2.76 1.59-3.52 1.38-.82 2.88-1.52 4.47-2.11.44-.17.9-.32 1.36-.47.57-.18 1.15-.35 1.75-.5 1.65-.44 3.41-.78 5.24-1.02.58-.08 1.18-.15 1.77-.21.98-.1 1.98-.18 3-.23 1.75-.1 3.55-.13 5.41-.1 3.89-.06 7.57.13 10.96.66.4.05.79.11 1.17.18.52.09 1.02.19 1.52.29 1.6.34 3.13.76 4.57 1.28.52.18 1.03.38 1.53.59.89.37 1.74.78 2.56 1.24.24.13.47.26.7.4.99.75 1.53 1.89 1.6 3.53.18 2.61.24 5.22.18 7.82z" fill="#324a5e"/><g fill="#f97a70"><path d="m63.6 38.84h-3.72c-.18 0-.33-.15-.33-.33v-7.62c0-.18.15-.33.33-.33h3.72c.18 0 .33.15.33.33v7.62c-.01.19-.15.33-.33.33z"/><path d="m.4 38.84h3.72c.18 0 .33-.15.33-.33v-7.62c0-.18-.15-.33-.33-.33h-3.72c-.18 0-.33.15-.33.33v7.62c.01.19.15.33.33.33z"/></g><g fill="#293b4e"><g><path d="m14.83 24.94-4.8 16.46c-.47-.15-.84-.29-1.11-.38l4.55-15.62c.45-.16.9-.31 1.36-.46z"/><path d="m26.59 22.98-6.1 20.93c-1.16 0-2.3-.4-2.3-.4-.16-.03-.33-.06-.48-.1l5.9-20.21c.96-.09 1.96-.17 2.98-.22z"/><path d="m21.82 23.41-5.72 19.66c-1.8-.4-3.35-.82-4.59-1.2l5.08-17.43c1.64-.45 3.4-.78 5.23-1.03z"/></g><g><path d="m44.12 23.72-4.54 15.57c-.25-.49-.52-1.01-.78-1.52l4.15-14.23c.4.04.79.1 1.17.18z"/><path d="m54.3 27.12-4.52 15.51c-.95.25-2 .49-3.13.72l5.09-17.47c.89.37 1.74.78 2.56 1.24z"/><path d="m50.21 25.29-5.39 18.47c-1.08.21-2.74.32-3.38-.77 0 0-.34-.68-.84-1.7l5.04-17.29c1.6.35 3.13.77 4.57 1.29z"/></g></g></g></svg>