<svg id="Layer_1" enable-background="new 0 0 64 64" viewBox="0 0 64 64" xmlns="http://www.w3.org/2000/svg"><g><path d="m51.46 17.24v43.84c0 1.53-1.24 2.76-2.77 2.76h-33.39c-1.53 0-2.77-1.24-2.77-2.76v-43.84z" fill="#eff3f5"/><path d="m12.54 17.24 4.78-9.1h29.36l4.78 9.1z" fill="#e5e5e5"/><path d="m48.78 8.14h-33.56v-5.98c0-1.1.9-2 2-2h29.57c1.1 0 2 .9 2 2v5.98z" fill="#d44231"/><path d="m46.9 7.1v-3.9h-1.04v3.9h-3.07v-3.9h-1.04v3.9h-3.07v-3.9h-1.04v3.9h-3.07v-3.9h-1.03v3.9h-3.08v-3.9h-1.03v3.9h-3.07v-3.9h-1.04v3.9h-3.07v-3.9h-1.04v3.9h-3.07v-3.9h-1.04v3.9h-2.49v1.04h34.78v-1.04z" fill="#a6422e"/><path d="m12.54 25.22h38.93v30.64h-38.93z" fill="#3582a8"/><g><path d="m38.15 46.68c-3.23 3.22-8.38 3.38-11.79.46-.05-.04-.11-.09-.16-.14-.13-.1-.24-.21-.36-.33-.11-.11-.23-.22-.32-.35-.05-.05-.1-.11-.14-.16-2.92-3.4-2.76-8.53.47-11.76 3.23-3.22 8.37-3.38 11.78-.47.05.04.11.09.16.14.13.1.24.21.35.32.12.12.23.23.33.36.05.05.09.1.14.16 2.93 3.41 2.77 8.55-.46 11.77z" fill="#eff3f5"/><g><g><path d="m38.15 34.41-12.3 12.27c-.11-.11-.23-.22-.32-.35l12.27-12.25c.13.1.24.21.35.33z" fill="#fff"/></g><g><path d="m38.48 34.76-12.28 12.25c-.13-.1-.24-.21-.36-.33l12.3-12.27c.13.11.24.23.34.35z" fill="#e5e5e5"/></g></g></g></g></svg>