<svg id="Layer_1" enable-background="new 0 0 64 64" viewBox="0 0 64 64" xmlns="http://www.w3.org/2000/svg"><g><g><path d="m22.05 15.86c-2.66-.08-5.31-.9-7.97-2.95 0-2.71 0-5.43 0-8.14 2.66 2.05 5.31 2.87 7.97 2.95z" fill="#324a5e"/><path d="m30.02 14.38c-2.66.9-5.31 1.56-7.97 1.48 0-2.71 0-5.43 0-8.14 2.66.08 5.31-.57 7.97-1.48z" fill="#eff3f5"/><path d="m37.99 11.43c-2.66.9-5.31 2.05-7.97 2.95 0-2.71 0-5.43 0-8.14 2.66-.9 5.31-2.05 7.97-2.95z" fill="#324a5e"/><path d="m45.97 9.95c-2.66-.08-5.31.57-7.97 1.48 0-2.71 0-5.43 0-8.14 2.66-.9 5.31-1.56 7.97-1.48z" fill="#eff3f5"/><path d="m53.94 12.9c-2.66-2.05-5.31-2.87-7.97-2.95 0-2.71 0-5.43 0-8.14 2.66.08 5.31.9 7.97 2.95z" fill="#324a5e"/><path d="m22.05 24c-2.66-.08-5.31-.9-7.97-2.95 0-2.71 0-5.43 0-8.14 2.66 2.05 5.31 2.87 7.97 2.95z" fill="#eff3f5"/><path d="m30.02 22.52c-2.66.9-5.31 1.56-7.97 1.48 0-2.71 0-5.43 0-8.14 2.66.08 5.31-.57 7.97-1.48z" fill="#324a5e"/><path d="m37.99 19.57c-2.66.9-5.31 2.05-7.97 2.95 0-2.71 0-5.43 0-8.14 2.66-.9 5.31-2.05 7.97-2.95z" fill="#eff3f5"/><path d="m45.97 18.09c-2.66-.08-5.31.57-7.97 1.48 0-2.71 0-5.43 0-8.14 2.66-.9 5.31-1.56 7.97-1.48z" fill="#324a5e"/><path d="m53.94 21.04c-2.66-2.05-5.31-2.87-7.97-2.95 0-2.71 0-5.43 0-8.14 2.66.08 5.31.9 7.97 2.95z" fill="#eff3f5"/><path d="m22.05 32.14c-2.66-.08-5.31-.9-7.97-2.95 0-2.71 0-5.43 0-8.14 2.66 2.05 5.31 2.87 7.97 2.95z" fill="#324a5e"/><path d="m30.02 30.66c-2.66.9-5.31 1.56-7.97 1.48 0-2.71 0-5.43 0-8.14 2.66.08 5.31-.57 7.97-1.48z" fill="#eff3f5"/><path d="m37.99 27.71c-2.66.9-5.31 2.05-7.97 2.95 0-2.71 0-5.43 0-8.14 2.66-.9 5.31-2.05 7.97-2.95z" fill="#324a5e"/><path d="m45.97 26.23c-2.66-.08-5.31.57-7.97 1.48 0-2.71 0-5.43 0-8.14 2.66-.9 5.31-1.56 7.97-1.48z" fill="#eff3f5"/><path d="m53.94 29.18c-2.66-2.05-5.31-2.87-7.97-2.95 0-2.71 0-5.43 0-8.14 2.66.08 5.31.9 7.97 2.95z" fill="#324a5e"/></g><g><path d="m12.07 63.84c-1.11 0-2.01-.9-2.01-2v-59.68c0-1.11.9-2 2.01-2s2.01.9 2.01 2v59.68c0 1.11-.9 2-2.01 2z" fill="#f97a70"/></g></g></svg>