<svg id="Layer_1" enable-background="new 0 0 64 64" viewBox="0 0 64 64" xmlns="http://www.w3.org/2000/svg"><g><path d="m8.84 63.84-.78-5.92-2.04-2.04-5.94-.78 7.95-7.93 5.08 1.64 2.04 2.03 1.64 5.07z" fill="#dededf"/><path d="m7.21 58.9-2.17-2.17 49.54-49.43 2.18 2.17z" fill="#687d87"/><path d="m61.3 2.77-12.9 4.71 6.34 1.83 1.84 6.33z" fill="#324a5e"/><path d="m63.74 54.76c-1.21-2.55-4.82-1.93-5.56-.32-1.31 2.45 1.39 5.44 2.64 2.19.46-1.75 1.57-1.19 1.33-.28-.94 2.32-2.61 2.7-3.97 2.31-3.07-1.29-3.34-4.03-2.34-7.44l4.01-16.3c1.96-6.25-2.31-12.01-6.64-12.32-3.88-.38-7.37-1.3-8.89-2.9-1.54-1.43-2.53-5-2.91-8.87-.32-4.32-6.09-8.58-12.35-6.62l-16.34 4c-3.41 1-6.16.73-7.45-2.33-.39-1.35-.01-3.02 2.32-3.96.91-.23 1.47.87-.29 1.33-3.26 1.25-.25 3.94 2.2 2.63 1.61-.74 2.23-4.35-.32-5.55-3.79-1.12-8.36 3.3-5.66 7.5 2.55 3.64 6.45 3.39 10.6 2.45l15.51-2.05c4.07-.2 6.19 2.3 7.41 6.03.97 5.7 1.81 8.37 3.36 9.36.99 1.55 3.67 2.39 9.38 3.35 3.74 1.22 6.24 3.33 6.04 7.4l-2.05 15.47c-.94 4.13-1.19 8.03 2.46 10.57 4.21 2.7 8.64-1.87 7.51-5.65z" fill="#e5c06e"/><path d="m41.71 26.51-4.2-4.2 5.96-5.95 4.2 4.2z" fill="#dd655b"/><g><path d="m55.17 59.53c-12.03-4.8-22.31-11.47-30.79-19.93-8.47-8.45-15.15-18.7-19.98-30.71.79.79 1.68 1.3 2.64 1.62 9.29 21.56 24.91 37.13 46.52 46.39.3.95.82 1.84 1.61 2.63z" fill="#dededf"/></g></g></svg>