<svg id="Layer_1" enable-background="new 0 0 64 64" viewBox="0 0 64 64" xmlns="http://www.w3.org/2000/svg"><g><path d="m32.55.16c-5.28 0-9.58 4.29-9.58 9.56s4.3 9.56 9.58 9.56 9.58-4.29 9.58-9.56c.01-5.27-4.29-9.56-9.58-9.56zm0 17.01c-4.12 0-7.48-3.35-7.48-7.46s3.35-7.46 7.48-7.46c4.12 0 7.48 3.35 7.48 7.46 0 4.12-3.35 7.46-7.48 7.46z" fill="#687d87"/><g><path d="m29.36 13.52h6.66v4.94h-6.66z" fill="#e5e5e5"/><path d="m37.45 13.52h-9.79v-3.1c0-1.1.9-2 2-2h5.79c1.1 0 2 .9 2 2z" fill="#324a5e"/></g><g><path d="m18.09 22.93-3.48 3.48-2.75-2.75 3.48-3.47z" fill="#59b5ac"/><path d="m16.85 18.68-6.67 6.65-2.3-2.29c-.3-.3-.3-.79 0-1.09l5.58-5.56c.3-.3.79-.3 1.09 0z" fill="#e5e5e5"/></g><ellipse cx="32.55" cy="40.11" fill="#3582a8" rx="23.79" ry="23.73"/><ellipse cx="32.55" cy="40.11" fill="#eff3f5" rx="19.57" ry="19.53"/><g><g><path d="m31.5 22.4h2.11v4.67h-2.11z" fill="#445b69"/></g><g><path d="m14.8 39.06h4.68v2.1h-4.68z" fill="#445b69"/></g><g><path d="m31.5 53.15h2.11v4.67h-2.11z" fill="#445b69"/></g><g><path d="m45.63 39.06h4.68v2.1h-4.68z" fill="#445b69"/></g></g><g><g><path d="m24.74 28.01-1.67-2.88 1.22-.7 1.67 2.88z" fill="#506c72"/></g><g><path d="m19.72 33.53-2.89-1.67.7-1.21 2.9 1.67z" fill="#506c72"/></g><g><path d="m17.53 49.57-.7-1.21 2.89-1.67.71 1.22z" fill="#506c72"/></g><g><path d="m24.29 55.8-1.22-.71 1.67-2.88 1.22.7z" fill="#506c72"/></g><g><path d="m40.82 55.8-1.67-2.89 1.22-.7 1.67 2.88z" fill="#506c72"/></g><g><path d="m47.57 49.57-2.89-1.66.71-1.22 2.89 1.67z" fill="#506c72"/></g><g><path d="m45.39 33.53-.71-1.21 2.89-1.67.71 1.21z" fill="#506c72"/></g><g><path d="m40.37 28.01-1.22-.7 1.67-2.88 1.22.7z" fill="#506c72"/></g></g><g><path d="m34.76 41.06c0 1.28-.99 2.31-2.21 2.31s-2.21-1.03-2.21-2.31 2.21-12.09 2.21-12.09 2.21 10.81 2.21 12.09z" fill="#c2382e"/><path d="m33.85 41.09c0 .71-.58 1.29-1.29 1.29s-1.29-.58-1.29-1.29.58-1.29 1.29-1.29 1.29.57 1.29 1.29z" fill="#e5e5e5"/></g></g></svg>