<svg id="Layer_1" enable-background="new 0 0 64 64" viewBox="0 0 64 64" xmlns="http://www.w3.org/2000/svg"><g><g><path d="m63.85 44.15c-1.02 11.71-13.3 15.51-20.94 7.89l-4.74-4.81-13.4-13.59-1.81-1.84-.43-.43-2.8-2.84-2.24-2.28-2.79-2.84-2.24-2.27-2.8-2.84-2.24-2.27-2.8-2.85-2.24-2.27-1.5-1.53c-.59-.57-.92-1.4-.76-2.2.22-1.09 1.12-1.92 2.24-2.05.07-.02.14-.02.21-.03.66-.03 1.29.26 1.77.71l.27.24 2.79 2.54 2.26 2.03 2.79 2.53 2.24 2.03 2.8 2.53 2.24 2.04 2.79 2.53 2.25 2.02 2.98 2.71 16.08 14.56 4.3 3.89c2.97 2.92 6.5.87 5.64-1.83-3.62-11.13 11.3-10.11 10.08.52z" fill="#dededf"/><g fill="#506c72"><path d="m4.61 6.05v7.14l-2.24-2.27v-5.79c.06-.02.13-.02.2-.03.66-.03 1.29.26 1.77.7z"/><path d="m9.65 10.62-.01 7.68-2.23-2.27-.01-7.44z"/><path d="m14.68 15.18.01 8.23-2.24-2.27v-7.99z"/><path d="m19.73 19.75v8.78l-2.25-2.29v-8.53z"/><path d="m24.76 24.3v9.33l-2.24-2.27v-9.08z"/></g><g><path d="m27.75 27.01-4.8 4.79 1.81 1.83 13.41 13.59 5.66-5.65z" fill="#dd655b"/></g></g><g><path d="m24.65 42.67c3.73 3.72 3.73 9.74.01 13.46-1.95 1.95-4.53 2.87-7.09 2.77-.47-.01-.93-.06-1.38-.14-.51-.09-1.01-.22-1.5-.4-.36-.12-.72-.28-1.06-.45-.89-.45-1.72-1.04-2.46-1.78-3.73-3.72-3.72-9.74.01-13.46.99-.98 2.14-1.71 3.36-2.16.31-.12.63-.22.95-.31.37-.09.74-.17 1.11-.22.43-.07.87-.1 1.31-.1.38 0 .77.02 1.14.09.11.01.21.01.31.03.29.04.57.1.85.16.11.03.21.05.31.09 1.5.41 2.94 1.22 4.13 2.42z" fill="#eff3f5"/><path d="m24.65 42.67c3.73 3.72 3.73 9.74.01 13.46-1.95 1.95-4.53 2.87-7.09 2.77-.26 0-.52-.02-.78-.05 2.1-.21 4.13-1.12 5.74-2.72 3.73-3.72 3.72-9.74-.01-13.46-1.2-1.19-2.63-2.01-4.15-2.43-.1-.03-.2-.06-.31-.09-.28-.07-.56-.12-.85-.16-.1-.02-.2-.03-.31-.03-.03-.01-.06-.01-.09-.01.35-.05.73-.07 1.08-.07.38 0 .77.02 1.14.09.11.01.21.01.31.03.29.04.57.1.85.16.11.03.21.05.31.09 1.52.41 2.96 1.22 4.15 2.42z" fill="#dededf"/><g><g><path d="m17.9 39.87c-3 3.32-4.44 6.78-4.27 10.27.19 4.19 2.66 7.39 3.94 8.76-.47-.01-.93-.06-1.38-.14-1.41-1.72-3.31-4.73-3.49-8.57-.17-3.49 1.14-6.92 3.89-10.21.43-.07.87-.11 1.31-.11z" fill="#506c72"/></g><g fill="#506c72"><path d="m9.74 49.33h1.35v1.35h-1.35z" transform="matrix(0 -1 1 0 -39.593 60.414)"/><path d="m14.96 49.27h1.45v1.36h-1.45z" transform="matrix(0 -1 1 0 -34.273 65.634)"/><path d="m15.39 51.63h1.22v1.14h-1.22z" transform="matrix(0 -1 1 0 -36.195 68.202)"/><path d="m16.04 53.72h1.22v1.14h-1.22z" transform="matrix(0 -1 1 0 -37.642 70.942)"/><path d="m17.17 55.66h1.03v.97h-1.03z" transform="matrix(0 -1 1 0 -38.458 73.833)"/><path d="m18.23 57.32h1.03v.97h-1.03z" transform="matrix(0 -1 1 0 -39.055 76.555)"/><path d="m15.17 47.1h1.23v1.16h-1.23z" transform="matrix(0 -1 1 0 -31.898 63.462)"/><path d="m15.7 44.96h1.23v1.16h-1.23z" transform="matrix(0 -1 1 0 -29.219 61.861)"/><path d="m16.55 42.88h1.04v1.16h-1.04z" transform="matrix(0 -1 1 0 -26.395 60.528)"/><path d="m17.76 41.06h1.04v1.16h-1.04z" transform="matrix(0 -1 1 0 -23.36 59.924)"/><path d="m20.19 40.15v.6h-1.16v-.8c.11.01.21.01.31.03.29.05.58.11.85.17z"/><path d="m9.92 47.16h1.27v1.27h-1.27z" transform="matrix(0 -1 1 0 -37.237 58.345)"/><path d="m10.3 51.58h1.1v1.1h-1.1z" transform="matrix(0 -1 1 0 -41.285 62.976)"/><path d="m11.03 53.74h1.1v1.1h-1.1z" transform="matrix(0 -1 1 0 -42.717 65.866)"/><path d="m12.09 55.73h1.1v1.1h-1.1z" transform="matrix(0 -1 1 0 -43.636 68.921)"/><path d="m14.72 57.26.01 1.09h-.04c-.36-.12-.72-.28-1.06-.45v-.64z"/><path d="m10.5 44.98h1.11v1.12h-1.11z" transform="matrix(0 -1 1 0 -34.485 56.595)"/><path d="m11.41 43.16h1.02v1.02h-1.02z" transform="matrix(0 -1 1 0 -31.748 55.598)"/><path d="m12.87 41.42h.94v.95h-.94z" transform="matrix(0 -1 1 0 -28.549 55.233)"/><path d="m15.48 40.19v.69l-.95.01.01-.39c.3-.12.62-.22.94-.31z"/></g></g></g><path d="m63.85 44.15c-1.02 11.71-13.3 15.51-20.94 7.89l-4.74-4.81 5.66-5.65 4.3 3.89c2.97 2.92 6.5.87 5.64-1.83-3.62-11.14 11.3-10.12 10.08.51z" fill="#e5c06e"/></g></svg>