<svg id="Layer_1" enable-background="new 0 0 64 64" viewBox="0 0 64 64" xmlns="http://www.w3.org/2000/svg"><g><g fill="#d44231"><path d="m45.68 1.08c0 9.03.49 12.3 3.12 14.22v33.4c-2.63 1.92-3.12 5.2-3.12 14.22 1.33.59 2.67.93 4.01.92 1.39-.1 2.74-.35 4.01-.92 0-9.03-.49-12.3-3.12-14.22v-33.4c2.63-1.92 3.12-5.2 3.12-14.22-1.27-.57-2.62-.83-4.01-.92-1.35-.01-2.68.33-4.01.92z"/><path d="m10.31 1.08c0 9.03.49 12.3 3.12 14.22v33.4c-2.63 1.92-3.12 5.2-3.12 14.22 1.33.59 2.67.93 4.01.92 1.39-.1 2.74-.35 4.01-.92 0-9.03-.49-12.3-3.12-14.22v-33.4c2.63-1.92 3.12-5.2 3.12-14.22-1.27-.57-2.62-.83-4.01-.92-1.35-.01-2.68.33-4.01.92z"/></g><g><path d="m21.42 32c0 22.68 10.58 31.84 10.58 31.84s10.58-9.16 10.58-31.84-10.58-31.84-10.58-31.84-10.58 9.16-10.58 31.84z" fill="#fdc87c"/><g><ellipse cx="32" cy="32" fill="#445b69" rx="6.05" ry="11.04"/><path d="m38.06 32c0 .49-.02.98-.06 1.45-.39-5.41-2.93-9.58-6-9.58s-5.61 4.18-6 9.58c-.03-.48-.06-.97-.06-1.45 0-6.1 2.72-11.04 6.06-11.04s6.06 4.95 6.06 11.04z" fill="#293b4e"/></g></g></g></svg>