<svg id="Layer_1" enable-background="new 0 0 64 64" viewBox="0 0 64 64" xmlns="http://www.w3.org/2000/svg"><g><path d="m60.92 63.84h-57.84c-1.66 0-3-1.34-3-3v-57.68c0-1.66 1.34-3 3-3h57.84c1.66 0 3 1.34 3 3v57.69c0 1.65-1.34 2.99-3 2.99z" fill="#fdc87c"/><g><g><g><path d="m8.83 27.6v-1.46c0-12.74 10.4-23.11 23.17-23.11s23.17 10.37 23.17 23.12v1.46h-46.34z" fill="#506c72"/><path d="m10.29 26.15c0-11.96 9.72-21.65 21.71-21.65s21.71 9.7 21.71 21.65z" fill="#324a5e"/><g><g><g><path d="m31.27 6.51h1.46v3.84h-1.46z" fill="#eff3f5"/></g><g><path d="m23.06 12.93-1.92-3.32 1.26-.73 1.93 3.33z" fill="#eff3f5"/></g><g><path d="m17.25 19.27-3.34-1.93.73-1.26 3.34 1.93z" fill="#eff3f5"/></g><g><path d="m46.75 19.27-.73-1.26 3.34-1.93.73 1.26z" fill="#eff3f5"/></g><g><path d="m40.94 12.93-1.27-.72 1.93-3.33 1.26.73z" fill="#eff3f5"/></g></g><g><path d="m28.28 6.8h.73v2.27h-.73z" fill="#eff3f5" transform="matrix(.985 -.174 .174 .985 -.944 5.11)"/></g><g><path d="m25.44 10-.78-2.14.68-.25.78 2.14z" fill="#eff3f5"/></g><g><path d="m20.03 13.26-1.46-1.74.55-.47 1.47 1.74z" fill="#eff3f5"/></g><g><path d="m17.84 15.54-1.75-1.46.47-.56 1.74 1.46z" fill="#eff3f5"/></g><g><path d="m14.79 21.06-2.15-.78.25-.68 2.15.78z" fill="#eff3f5"/></g><g><path d="m12.6 22.43h.73v2.28h-.73z" fill="#eff3f5" transform="matrix(.173 -.985 .985 .173 -12.496 32.262)"/></g><g><path d="m49.89 23.21h2.28v.73h-2.28z" fill="#eff3f5" transform="matrix(.985 -.174 .174 .985 -3.327 9.254)"/></g><g><path d="m49.21 21.06-.25-.68 2.15-.78.25.68z" fill="#eff3f5"/></g><g><path d="m46.16 15.54-.46-.56 1.74-1.46.47.56z" fill="#eff3f5"/></g><g><path d="m43.97 13.26-.56-.47 1.47-1.74.55.47z" fill="#eff3f5"/></g><g><path d="m38.56 10-.68-.25.78-2.14.68.25z" fill="#eff3f5"/></g><g><path d="m34.22 7.57h2.27v.73h-2.27z" fill="#eff3f5" transform="matrix(.174 -.985 .985 .174 21.407 41.379)"/></g></g></g><g><path d="m31.27 13.41h1.46v12.74h-1.46z" fill="#fbd303"/></g></g><g><path d="m8.85 31.16h46.3v29.8h-46.3z" fill="#fbd984"/><g><g><path d="m48.79 32.77h1.78v26.58h-1.78z" fill="#efb871"/></g><g><path d="m41.72 37.65h1.78v21.71h-1.78z" fill="#efb871"/></g><g><path d="m34.65 41.37h1.78v17.99h-1.78z" fill="#efb871"/></g><g><path d="m27.58 41.37h1.78v17.99h-1.78z" fill="#efb871"/></g><g><path d="m20.51 37.65h1.78v21.71h-1.78z" fill="#efb871"/></g><g><path d="m13.44 32.77h1.78v26.58h-1.78z" fill="#efb871"/></g></g></g></g></g></svg>