<svg id="Layer_1" enable-background="new 0 0 64 64" viewBox="0 0 64 64" xmlns="http://www.w3.org/2000/svg"><g><g><path d="m41.36 39.63c0 5.16-4.19 9.34-9.36 9.34s-9.36-4.18-9.36-9.34 4.19-9.34 9.36-9.34 9.36 4.18 9.36 9.34z" fill="#324a5e"/><g><path d="m47.78 15.03h-31.01c-8.6 0-16.1 6.47-16.66 15.03-.61 9.38 6.84 17.17 16.11 17.17 6.41 0 11.94-3.73 14.55-9.13.51-1.06 1.96-1.05 2.47 0 2.58 5.36 8.05 9.07 14.4 9.13 8.65.08 16.04-7.01 16.28-15.64.25-9.11-7.07-16.56-16.14-16.56z" fill="#e5e5e5"/><path d="m60.28 31.48c-.16 6.21-5.3 11.52-11.44 12.07-.35.04-.69.05-1.05.05-.02 0-.02 0-.02 0-.6 0-1.2-.05-1.78-.14-.62-.07-1.23-.22-1.82-.38-2-.6-3.8-1.67-5.23-3.12-.65-.65-1.23-1.39-1.74-2.19-.25-.4-.49-.8-.69-1.23-.04-.07-.07-.15-.13-.2-.85-1.65-2.52-2.65-4.38-2.65-1.94 0-3.67 1.09-4.5 2.84-1.36 2.81-3.72 4.98-6.56 6.12-1.04.43-2.14.72-3.27.85-.47.05-.96.09-1.45.09-.18 0-.38 0-.56-.04-2.11-.07-4.1-.67-5.87-1.74-.73-.42-1.4-.92-2.03-1.5-.24-.2-.45-.42-.67-.65-.11-.13-.22-.25-.31-.38-2.18-2.5-3.25-5.65-3.03-9 .4-6.27 5.68-11.21 12.2-11.59.27-.04.54-.04.82-.04h31.02c.2 0 .42 0 .62.02 2.09.09 4.09.71 5.85 1.79.53.29 1.04.65 1.51 1.05.35.29.67.6 1 .92.34.36.67.74.96 1.14 1.73 2.25 2.64 5.03 2.55 7.91z" fill="#7da4c3"/></g></g><g fill="#6691ad"><g><path d="m45.71 18.65-8.51 19.11c-.25-.4-.49-.8-.69-1.23-.04-.07-.07-.15-.13-.2l7.88-17.68z"/><path d="m54.25 20.46-10.08 22.61c-2-.6-3.8-1.67-5.23-3.12l9.46-21.29c2.09.1 4.09.71 5.85 1.8z"/><path d="m57.72 23.58-8.88 19.96c-.35.04-.69.05-1.05.05-.02 0-.02 0-.02 0-.6 0-1.2-.05-1.78-.14l9.77-21.94c.35.29.67.6 1 .92.34.37.67.75.96 1.15z"/></g><g><path d="m17.4 18.65-9.64 21.67c-.24-.2-.45-.42-.67-.65-.11-.13-.22-.25-.31-.38l9.17-20.6c.27-.04.54-.04.82-.04z"/><path d="m26.75 18.65-11.1 24.91c-2.11-.07-4.1-.67-5.87-1.74l10.33-23.17z"/><path d="m31.62 18.65-10.68 24c-1.04.43-2.14.72-3.27.85l11.06-24.86h2.89z"/></g></g></g></svg>