<svg id="Layer_1" enable-background="new 0 0 64 64" viewBox="0 0 64 64" xmlns="http://www.w3.org/2000/svg"><g><ellipse cx="32" cy="32" fill="#445b69" rx="31.92" ry="31.84"/><path d="m59.95 32c0 1.51-.12 2.99-.35 4.43-.7 4.37-2.42 8.41-4.91 11.85-1.75 2.42-3.87 4.55-6.29 6.3-3.46 2.51-7.51 4.24-11.92 4.94-1.46.24-2.95.36-4.47.36s-3.02-.12-4.47-.36c-4.4-.71-8.46-2.44-11.92-4.94-2.42-1.75-4.55-3.88-6.29-6.3-2.49-3.44-4.21-7.48-4.91-11.85-.25-1.44-.37-2.92-.37-4.43s.12-2.99.35-4.43c.7-4.37 2.42-8.41 4.91-11.85 1.74-2.42 3.87-4.55 6.29-6.29 3.46-2.51 7.52-4.24 11.92-4.94 1.46-.24 2.95-.36 4.47-.36s3.02.12 4.47.36c4.41.7 8.47 2.43 11.92 4.94 2.42 1.75 4.55 3.88 6.29 6.3 2.49 3.45 4.21 7.48 4.91 11.85.25 1.43.37 2.91.37 4.42z" fill="#5ac8ae"/><g fill="#c2382e"><path d="m36.47 4.48-.64 3.97c-1.25-.2-2.53-.31-3.83-.31s-2.58.1-3.83.31l-.64-3.97c1.46-.24 2.95-.36 4.47-.36s3.02.12 4.47.36z"/><path d="m17.98 12.67c-2.08 1.5-3.9 3.32-5.39 5.4l-3.27-2.36c1.74-2.42 3.87-4.55 6.29-6.29z"/><path d="m8.09 32c0 1.29.1 2.56.3 3.8l-3.99.63c-.23-1.44-.35-2.92-.35-4.43s.12-2.99.35-4.43l3.99.63c-.2 1.24-.3 2.51-.3 3.8z"/><path d="m17.98 51.32-2.37 3.25c-2.42-1.75-4.55-3.88-6.29-6.3l3.27-2.36c1.49 2.09 3.31 3.91 5.39 5.41z"/><path d="m36.47 59.52c-1.46.24-2.95.36-4.47.36s-3.02-.12-4.47-.36l.64-3.98c1.25.2 2.53.31 3.84.31s2.59-.1 3.84-.31z"/><path d="m54.69 48.28c-1.75 2.42-3.87 4.55-6.29 6.3l-2.37-3.25c2.08-1.5 3.9-3.32 5.4-5.4z"/><path d="m59.95 32c0 1.51-.12 2.99-.35 4.43l-3.99-.63c.2-1.24.31-2.51.31-3.8s-.1-2.56-.31-3.8l3.99-.63c.23 1.44.35 2.92.35 4.43z"/><path d="m54.68 15.72-3.27 2.35c-1.5-2.07-3.32-3.9-5.39-5.4l2.37-3.25c2.42 1.75 4.55 3.88 6.29 6.3z"/></g><g><ellipse cx="32" cy="32" fill="#445b69" rx="23.91" ry="23.86"/><g fill="#fbd984"><path d="m32.25 32.24-.18-.12.02.1-.06-.08-.03.21-.03-.21-.06.08.01-.1-.17.12.13-.16-.1.01.08-.06-.21-.03.21-.03-.08-.06.1.02-.13-.18.17.13-.01-.1.06.08.03-.21.03.21.06-.08-.02.1.18-.13-.13.18.09-.02-.07.06.21.03-.21.03.08.06-.1-.01z"/><path d="m29.7 18.02c-2.22.36-4.26 1.23-6.01 2.49l-5.71-7.83c2.96-2.14 6.43-3.62 10.19-4.22z"/><path d="m46.02 12.68-5.71 7.83c-1.75-1.26-3.79-2.13-6.01-2.49l1.53-9.56c3.77.59 7.23 2.07 10.19 4.22z"/><path d="m29.7 45.98-1.53 9.56c-3.76-.6-7.23-2.08-10.19-4.22l5.71-7.83c1.75 1.26 3.79 2.13 6.01 2.49z"/><path d="m20.45 40.25-7.87 5.67c-2.13-2.94-3.59-6.39-4.19-10.12l9.59-1.52c.36 2.2 1.22 4.24 2.47 5.97z"/><path d="m20.45 23.75c-1.25 1.74-2.12 3.77-2.48 5.97l-9.58-1.52c.6-3.73 2.06-7.18 4.19-10.13z"/><path d="m46.02 51.32c-2.96 2.14-6.42 3.62-10.19 4.22l-1.53-9.56c2.22-.36 4.26-1.23 6.01-2.49z"/><path d="m55.61 35.8c-.6 3.73-2.07 7.18-4.19 10.13l-7.87-5.67c1.25-1.74 2.11-3.77 2.47-5.97z"/><path d="m55.61 28.2-9.59 1.52c-.36-2.2-1.22-4.24-2.48-5.97l7.87-5.68c2.13 2.95 3.6 6.39 4.2 10.13z"/></g><ellipse cx="32" cy="32" fill="#445b69" rx="14.2" ry="14.17"/><path d="m46.02 34.28-13.8-2.19 11.33 8.16c-.9 1.25-1.99 2.34-3.24 3.23l-8.22-11.27 2.21 13.76c-.75.12-1.52.19-2.3.19s-1.55-.06-2.3-.19l2.21-13.76-8.22 11.27c-1.24-.9-2.34-1.99-3.24-3.23l11.33-8.16-13.8 2.19c-.12-.74-.18-1.5-.18-2.28s.06-1.54.18-2.28l13.8 2.19-11.33-8.16c.9-1.24 1.99-2.34 3.24-3.24l8.22 11.27-2.21-13.76c.75-.12 1.52-.19 2.3-.19s1.55.06 2.3.19l-2.21 13.76 8.22-11.27c1.25.9 2.34 1.99 3.24 3.24l-11.33 8.16 13.8-2.19c.12.74.18 1.5.18 2.28s-.06 1.54-.18 2.28z" fill="#fbd984"/><path d="m32.09 31.78-.02.1-.01.06v.04l-.01.02v.02.01.02l-.01.01v.04l-.01.04-.03.21-.03-.21-.01-.04-.01-.04v-.01-.02-.01l-.01-.02v-.02l-.01-.04-.01-.06-.01-.1.06.08.03-.21.03.21z" fill="#dd655b"/><path d="m32.25 32.24-.18-.12-.03-.02-.03-.02-.01-.01-.01-.01-.01-.01-.02-.01-.01-.01-.01-.01-.02-.01-.01-.01h-.01l-.04-.03-.08-.06.1.02-.13-.18.17.13-.01-.1.06.08.03.05.01.01.02.02v.01l.01.01.01.01v.01h.01l.01.02.01.01.02.03.02.04z" fill="#dd655b"/><path d="m32.35 32-.21.03-.04.01-.04.01h-.01-.02-.01l-.02.01h-.01-.01-.03l-.07.02-.1.01.08-.06-.21-.03.21-.03-.08-.06.1.02.05.01h.02.02.02l.01.01h.02.01.02l.01.01h.04l.04.01z" fill="#dd655b"/><path d="m32.25 31.75-.13.18-.02.03-.02.03-.01.01-.01.01-.01.01-.01.02-.01.01v.01h-.01l-.01.02-.01.01-.03.05-.06.08.01-.1-.17.12.13-.16-.1.01.08-.06.04-.03h.01l.01-.01.02-.01.01-.01.01-.01.02-.01.01-.01.01-.01.01-.01.03-.02.03-.02z" fill="#dd655b"/><path d="m32.09 32.22-.06-.08-.03.21-.03-.21-.06.08.01-.1.01-.05.01-.02v-.03-.01-.01l.01-.02v-.01-.02-.01l.01-.04.01-.04.03-.21.03.21.01.04v.04l.01.01v.02.01.02l.01.01v.01.03.02l.01.05z" fill="#dd655b"/><path d="m32.07 32.12.02.1-.06-.08-.03-.05-.01-.01-.01-.02-.01-.01-.01-.01-.01-.01v-.01l-.01-.01-.01-.01-.01-.01-.02-.03-.02-.03-.13-.18.17.13.04.02.03.02.01.01.01.01h.01v.01l.02.01.01.01.01.01.02.01.01.01.05.03.08.06-.1-.01.13.16z" fill="#dd655b"/><path d="m32.14 32.03.08.06-.1-.01-.08-.02h-.01-.02-.01l-.02-.01h-.01-.02-.01l-.04-.01-.04-.01-.21-.03.21-.03.04-.01h.04l.01-.01h.02.01.02l.01-.01h.02.01.02l.06-.01.09-.02-.07.06.21.03z" fill="#dd655b"/><path d="m32.12 31.93.09-.02-.07.06-.05.03-.01.01-.02.01-.01.01-.01.01-.02.01-.01.01-.01.01-.01.01-.03.02-.04.02-.17.12.13-.16.02-.04.02-.03.01-.01.01-.02h.01v-.01l.02-.02v-.01l.02-.02.01-.01.03-.05.06-.08-.02.1.18-.13z" fill="#dd655b"/><path d="m35.43 32c0 1.88-1.53 3.41-3.43 3.41-1.89 0-3.43-1.52-3.43-3.41 0-1.88 1.53-3.41 3.43-3.41 1.89 0 3.43 1.53 3.43 3.41z" fill="#c2382e"/></g></g></svg>