<svg id="Layer_1" enable-background="new 0 0 64 64" viewBox="0 0 64 64" xmlns="http://www.w3.org/2000/svg"><g><path d="m.08 63.84 9.21-11.46 2.28 2.27z" fill="#c6c1c1"/><path d="m51.2 12.74-6.23 3.84c-8.09 7.33-9 7.09-17.01 12.55-15.31 11.3-22.06 20.52-18.86 25.71 5.21 3.19 14.45-3.54 25.78-18.82 5.47-7.99 5.23-8.9 12.58-16.96l3.85-6.22z" fill="#eff3f5"/><g fill="#3eb9e3"><path d="m47.31.16-18.35 18.3 3.62 12.96 17.79-17.75z"/><path d="m50.37 13.67-17.79 17.75 13 3.61 18.34-18.3z"/></g><path d="m34.16 34.63-4.79-4.79 21.77-19.01 2.08 2.08z" fill="#eff3f5"/></g></svg>