<svg id="Layer_1" enable-background="new 0 0 64 64" viewBox="0 0 64 64" xmlns="http://www.w3.org/2000/svg"><g><g><path d="m34.29 32.99h24.19c1.64-4.58 1.75-8.53.5-9.4-.6-.29-1.28-.15-2.29 1.61-.96 1.68-2.49 2.96-4.28 3.69-1.23.5-2.6.88-4.03 1.24-4.64 1.17-10.25 1.93-15 2.18z" fill="#e5e5e5"/><path d="m1.4 40.22c1.19 2.03 3.15 4.65 5.69 6.35.55.37 1.2.57 1.86.57h42.82c5.63 0 10.43-3.47 12.16-6.92z" fill="#324a5e"/><path d="m63.92 40.21c-1.73 3.45-6.52 6.93-12.16 6.93h-42.81c-.67 0-1.32-.21-1.87-.58-2.53-1.69-4.5-4.32-5.69-6.35h.82c1.19 1.75 2.85 3.7 4.87 5.05.55.37 1.2.58 1.87.58h42.81c4.92 0 9.21-2.65 11.35-5.62h.81z" fill="#293b4e"/><path d="m34.29 32.99c2.94.74 7.22 1.21 11.97 1.21 4.76 0 9.04-.47 11.99-1.21z" fill="#92cebe"/><path d="m61.88 32.99h-20.23-7.34c-1.91-1.31-3.34-2.99-3.87-4.78-.18-.57-.27-1.17-.27-1.77 0-.48.07-.95.19-1.41l-7.76-3.03h-6.37c-1.95.8-3.86 1.83-5.67 3.01-1.56.99-3.01 2.08-4.33 3.19-.99.85-1.89 1.71-2.7 2.55-.71.76-1.34 1.51-1.85 2.23-1.01 1.4-1.6 2.68-1.6 3.64 0 1.6.46 2.15 1.32 3.59h38.22 24.3z" fill="#dd655b"/><g><path d="m21.44 21.58 2.87.72 2.42-2.91h-3.48z" fill="#eff3f5"/><g><path d="m29.92 16.95 1.44.67 3.82 1.82c.52.24.74.87.5 1.39-.24.53-.88.76-1.42.51l-4.3-2.05-.46-2.43c.15 0 .28.03.42.09z" fill="#c2382e"/><path d="m17.88 23.15c2.84.35 5.22.9 6.9 1.75.22.11.49.06.65-.13l4.53-5.48-.46-2.43h-6.88c-.39 0-.76.17-1.01.47l-4.09 4.96c-.25.31-.05.8.36.86zm3.56-1.57 1.81-2.2h3.48l-2.42 2.91z" fill="#324a5e"/></g></g></g><g><path d="m10.31 27.9-5.08 3.91c4.02 3.11 15.97 3.09 30.14 2.58-14.03-.64-22.29-1.98-25.06-6.49z" fill="#c2382e"/><path d="m4.55 33.16-2.71 3.82s7.46 1.8 18.46 1.4h41.73l-1.04-2.58h-40.69c0 .01-13.59-.46-15.75-2.64z" fill="#e5e5e5"/></g></g></svg>