<svg id="Layer_1" enable-background="new 0 0 64 64" viewBox="0 0 64 64" xmlns="http://www.w3.org/2000/svg"><g><g><ellipse cx="37.17" cy="40.31" fill="#687d87" rx="23.59" ry="23.53"/><path d="m60.76 40.31c0 12.99-10.56 23.53-23.59 23.53-9.89 0-18.35-6.07-21.86-14.67 4.29 5.88 11.24 9.71 19.09 9.71 13.03 0 23.6-10.54 23.6-23.53 0-3.13-.61-6.1-1.72-8.83 2.82 3.87 4.48 8.64 4.48 13.79z" fill="#506c72"/><g fill="#293b4e"><path d="m44.04 29.99c0 1.45-1.18 2.62-2.63 2.62s-2.63-1.17-2.63-2.62 1.18-2.62 2.63-2.62c1.46 0 2.63 1.17 2.63 2.62z"/><path d="m49.92 36.81c0 1.45-1.18 2.62-2.63 2.62s-2.63-1.17-2.63-2.62 1.18-2.62 2.63-2.62c1.45-.01 2.63 1.17 2.63 2.62z"/><path d="m52.98 28.82c0 1.45-1.18 2.62-2.63 2.62s-2.63-1.17-2.63-2.62 1.18-2.62 2.63-2.62c1.46 0 2.63 1.17 2.63 2.62z"/></g><g fill="#506c72"><path d="m43.25 31.86c.18-.35.28-.75.28-1.18 0-1.45-1.17-2.63-2.62-2.63-.72 0-1.37.29-1.84.76.43-.86 1.32-1.45 2.34-1.45 1.45 0 2.63 1.18 2.63 2.63 0 .73-.3 1.4-.79 1.87z"/><path d="m49.13 38.67c.18-.35.28-.76.28-1.18 0-1.45-1.18-2.63-2.63-2.63-.72 0-1.36.29-1.84.76.43-.85 1.33-1.44 2.35-1.44 1.45 0 2.63 1.17 2.63 2.62 0 .73-.3 1.4-.79 1.87z"/><path d="m52.2 30.69c.18-.35.28-.76.28-1.18 0-1.45-1.18-2.62-2.63-2.62-.72 0-1.36.29-1.84.75.43-.85 1.33-1.44 2.35-1.44 1.45 0 2.63 1.17 2.63 2.62-.01.73-.31 1.4-.79 1.87z"/></g><path d="m26.81 23.51c.88.71.02 3.23-1.92 5.63s-4.23 3.77-5.11 3.07c-.88-.71-.02-3.23 1.92-5.63s4.23-3.78 5.11-3.07z" fill="#eff3f5" opacity=".4"/></g><g><g><path d="m17.63 61.92c-.38.76-1.04 1.37-1.86 1.6-1.07.32-2.47.39-3.78.25-.62-.07-1.22-.17-1.74-.33-.88-.25-1.62-.86-2.03-1.67-5.59-11.02-6.98-20.05-1.56-30.84 1.03-2.04 1.87-4.17 2.34-6.4.02-.1.03-.19.06-.3.17-.86.3-1.73.39-2.66.09-1.03.13-2.13.07-3.34-.03-.93-.11-1.92-.25-3.02-.02-.31-.07-.63-.11-.96-.32-2.3-.99-5.11-1.29-7.84-.44-3.33 1.35-6.34 5.11-6.25 3.75-.09 5.53 2.92 5.1 6.25-.06.48-.11.96-.2 1.44-.32 2.26-.83 4.5-1.09 6.4-.05.33-.09.65-.11.96-.14 1.1-.22 2.09-.25 3.02-.05 1.22-.01 2.31.07 3.34.09.93.22 1.79.39 2.66.02.1.03.19.06.3.47 2.23 1.32 4.36 2.34 6.4 5.42 10.83 4 19.9-1.66 30.99z" fill="#eff3f5"/><g fill="#d44231"><path d="m16.93 24.53c-.71.08-1.42.14-2.13.18-1.93.09-3.87.03-5.8-.18.02-.1.03-.19.06-.3.17-.86.3-1.73.39-2.66 1.72.08 3.44.1 5.16.07.62-.01 1.25-.03 1.87-.07.09.93.22 1.79.39 2.66.03.11.04.2.06.3z"/><path d="m16.67 15.21c-.14 1.1-.22 2.09-.25 3.02-.53.06-1.04.09-1.57.11-1.78.09-3.56.06-5.33-.11-.03-.93-.11-1.92-.25-3.02 2.04.1 4.07.13 6.12.05.42 0 .85-.02 1.28-.05z"/></g></g><path d="m14.02 1.63c-.25-.73-2.17-.84-3.5.16-1.48 1.18-1.94 3.82-.94 4.36.47.24 1.36-1.07 1.73-2.14.14-.39.41-.73.77-.95.87-.52 2-.65 1.94-1.43z" fill="#fff" opacity=".5"/><path d="m16.67 15.21c-.14 1.1-.22 2.09-.25 3.02-.53.06-1.04.09-1.57.11.14-1.09.32-2.12.54-3.09.42.01.85-.01 1.28-.04z" fill="#c2382e" opacity=".5"/><path d="m16.67 15.21c-.42.02-.86.05-1.29.05.96-4.32 2.49-7.41 2.49-7.41-.32 2.26-.83 4.5-1.09 6.4-.05.33-.09.65-.11.96z" fill="#dededf" opacity=".57"/><path d="m16.93 24.53c-.71.08-1.42.14-2.13.18-.14-1.03-.18-2.05-.18-3.07.62-.01 1.25-.03 1.87-.07.09.93.22 1.79.39 2.66.02.11.03.2.05.3z" fill="#c2382e" opacity=".5"/><g fill="#dededf"><path d="m16.48 21.58c-.62.03-1.25.06-1.87.07.01-1.13.09-2.23.23-3.3.53-.02 1.04-.06 1.57-.11-.04 1.22-.01 2.31.07 3.34z" opacity=".57"/><path d="m17.63 61.92c-.38.76-1.04 1.37-1.86 1.6-1.07.32-2.47.39-3.78.25.85-1.24 12.58-18.9 4.9-32.49-1.18-2.1-1.82-4.33-2.1-6.57.71-.05 1.42-.1 2.13-.18.47 2.23 1.32 4.36 2.34 6.4 5.45 10.83 4.03 19.9-1.63 30.99z" opacity=".57"/></g></g></g></svg>