<svg id="Layer_1" enable-background="new 0 0 64 64" viewBox="0 0 64 64" xmlns="http://www.w3.org/2000/svg"><g><g><g><path d="m42.31 16.76c-1.64-.43-3.17-1.37-4.51-3.16.43-1.86.85-3.72 1.28-5.57 1.33 1.78 2.86 2.72 4.5 3.16-.42 1.85-.85 3.71-1.27 5.57z" fill="#324a5e"/><path d="m47.51 16.88c-1.8.24-3.56.31-5.2-.12.43-1.86.85-3.72 1.28-5.57 1.64.43 3.4.36 5.2.12-.43 1.85-.86 3.71-1.28 5.57z" fill="#eff3f5"/><path d="m52.94 15.99c-1.8.24-3.63.65-5.43.89.43-1.86.85-3.72 1.28-5.57 1.8-.24 3.63-.65 5.43-.89-.43 1.85-.85 3.71-1.28 5.57z" fill="#324a5e"/><path d="m58.14 16.11c-1.64-.43-3.4-.36-5.2-.12.43-1.86.85-3.72 1.28-5.57 1.8-.24 3.56-.31 5.2.12-.43 1.85-.85 3.71-1.28 5.57z" fill="#eff3f5"/><path d="m62.65 19.26c-1.33-1.78-2.86-2.72-4.5-3.16.43-1.86.85-3.72 1.28-5.57 1.64.43 3.17 1.37 4.51 3.16-.44 1.86-.87 3.72-1.29 5.57z" fill="#324a5e"/><path d="m41.03 22.33c-1.64-.43-3.17-1.37-4.5-3.16.43-1.86.85-3.72 1.28-5.57 1.33 1.78 2.86 2.72 4.51 3.16-.44 1.86-.86 3.71-1.29 5.57z" fill="#eff3f5"/><path d="m46.23 22.45c-1.8.24-3.56.31-5.2-.12.43-1.86.85-3.72 1.28-5.57 1.64.43 3.4.36 5.2.12-.43 1.86-.85 3.71-1.28 5.57z" fill="#324a5e"/><path d="m51.66 21.56c-1.8.24-3.63.65-5.43.89.43-1.86.85-3.72 1.28-5.57 1.8-.24 3.63-.65 5.43-.89-.43 1.86-.85 3.71-1.28 5.57z" fill="#eff3f5"/><path d="m56.86 21.68c-1.64-.43-3.4-.36-5.2-.12.43-1.86.85-3.72 1.28-5.57 1.8-.24 3.56-.31 5.2.12-.43 1.86-.85 3.72-1.28 5.57z" fill="#324a5e"/><path d="m61.37 24.84c-1.33-1.78-2.86-2.72-4.51-3.16.43-1.86.85-3.72 1.28-5.57 1.64.43 3.17 1.37 4.5 3.16-.42 1.85-.85 3.71-1.27 5.57z" fill="#eff3f5"/><path d="m39.76 27.9c-1.64-.43-3.17-1.37-4.51-3.16.43-1.86.85-3.72 1.28-5.57 1.33 1.78 2.86 2.72 4.5 3.16-.42 1.86-.85 3.72-1.27 5.57z" fill="#324a5e"/><path d="m44.96 28.03c-1.8.24-3.56.31-5.2-.12.43-1.86.85-3.72 1.28-5.57 1.64.43 3.4.36 5.2.12-.43 1.85-.86 3.71-1.28 5.57z" fill="#eff3f5"/><path d="m50.39 27.14c-1.8.24-3.63.65-5.43.89.43-1.86.85-3.72 1.28-5.57 1.8-.24 3.63-.65 5.43-.89-.43 1.85-.86 3.71-1.28 5.57z" fill="#324a5e"/><path d="m55.59 27.26c-1.64-.43-3.4-.36-5.2-.12.43-1.86.85-3.72 1.28-5.57 1.8-.24 3.56-.31 5.2.12-.43 1.85-.86 3.71-1.28 5.57z" fill="#eff3f5"/><path d="m60.09 30.41c-1.33-1.78-2.86-2.72-4.5-3.16.43-1.86.85-3.72 1.28-5.57 1.64.43 3.17 1.37 4.51 3.16-.44 1.86-.86 3.71-1.29 5.57z" fill="#324a5e"/></g><g><path d="m3.75 30.51h56.62v2.99h-56.62z" fill="#e5c06e" transform="matrix(.223 -.975 .975 .223 -6.293 56.102)"/></g></g><g><g><path d="m21.69 16.76c1.64-.43 3.17-1.37 4.5-3.16-.43-1.86-.85-3.72-1.28-5.57-1.33 1.78-2.86 2.72-4.51 3.16.44 1.85.87 3.71 1.29 5.57z" fill="#324a5e"/><path d="m16.49 16.88c1.8.24 3.56.31 5.2-.12-.43-1.86-.85-3.72-1.28-5.57-1.64.43-3.4.36-5.2.12.43 1.85.86 3.71 1.28 5.57z" fill="#eff3f5"/><path d="m11.06 15.99c1.8.24 3.63.65 5.43.89-.43-1.86-.85-3.72-1.28-5.57-1.8-.24-3.63-.65-5.43-.89.43 1.85.85 3.71 1.28 5.57z" fill="#324a5e"/><path d="m5.86 16.11c1.64-.43 3.4-.36 5.2-.12-.43-1.86-.85-3.72-1.28-5.57-1.8-.24-3.56-.31-5.2.12.43 1.85.85 3.71 1.28 5.57z" fill="#eff3f5"/><path d="m1.35 19.26c1.33-1.78 2.86-2.72 4.51-3.16-.43-1.86-.85-3.72-1.28-5.57-1.64.43-3.17 1.37-4.5 3.16.42 1.86.85 3.72 1.27 5.57z" fill="#324a5e"/><path d="m22.97 22.33c1.64-.43 3.17-1.37 4.5-3.16-.43-1.86-.85-3.72-1.28-5.57-1.33 1.78-2.86 2.72-4.5 3.16.43 1.86.85 3.71 1.28 5.57z" fill="#eff3f5"/><path d="m17.77 22.45c1.8.24 3.56.31 5.2-.12-.43-1.86-.85-3.72-1.28-5.57-1.64.43-3.4.36-5.2.12.43 1.86.85 3.71 1.28 5.57z" fill="#324a5e"/><path d="m12.34 21.56c1.8.24 3.63.65 5.43.89-.43-1.86-.85-3.72-1.28-5.57-1.8-.24-3.63-.65-5.43-.89.43 1.86.85 3.71 1.28 5.57z" fill="#eff3f5"/><path d="m7.14 21.68c1.64-.43 3.4-.36 5.2-.12-.43-1.86-.85-3.72-1.28-5.57-1.8-.24-3.56-.31-5.2.12.43 1.86.85 3.72 1.28 5.57z" fill="#324a5e"/><path d="m2.63 24.84c1.33-1.78 2.86-2.72 4.51-3.16-.43-1.86-.85-3.72-1.28-5.57-1.64.43-3.17 1.37-4.51 3.16.43 1.85.86 3.71 1.28 5.57z" fill="#eff3f5"/><path d="m24.24 27.9c1.64-.43 3.17-1.37 4.51-3.16-.43-1.86-.85-3.72-1.28-5.57-1.33 1.78-2.86 2.72-4.5 3.16.42 1.86.85 3.72 1.27 5.57z" fill="#324a5e"/><path d="m19.04 28.03c1.8.24 3.56.31 5.2-.12-.43-1.86-.85-3.72-1.28-5.57-1.64.43-3.4.36-5.2.12.43 1.85.86 3.71 1.28 5.57z" fill="#eff3f5"/><path d="m13.61 27.14c1.8.24 3.63.65 5.43.89-.43-1.86-.85-3.72-1.28-5.57-1.8-.24-3.63-.65-5.43-.89.43 1.85.86 3.71 1.28 5.57z" fill="#324a5e"/><path d="m8.41 27.26c1.64-.43 3.4-.36 5.2-.12-.43-1.86-.85-3.72-1.28-5.57-1.8-.24-3.56-.31-5.2.12.43 1.85.86 3.71 1.28 5.57z" fill="#eff3f5"/><path d="m3.91 30.41c1.33-1.78 2.86-2.72 4.5-3.16-.43-1.86-.85-3.72-1.28-5.57-1.64.43-3.17 1.37-4.51 3.16.44 1.86.86 3.71 1.29 5.57z" fill="#324a5e"/></g><g><path d="m30.45 3.69h2.99v56.62h-2.99z" fill="#fbd984" transform="matrix(.975 -.223 .223 .975 -6.338 7.94)"/></g></g></g></svg>