<svg id="Layer_1" enable-background="new 0 0 64 64" viewBox="0 0 64 64" xmlns="http://www.w3.org/2000/svg"><g><g><ellipse cx="48.41" cy="47.76" fill="#324a5e" rx="15.51" ry="15.48"/><path d="m60.29 57.72c-2.84 3.38-7.11 5.53-11.88 5.53-8.57 0-15.51-6.93-15.51-15.48 0-4.76 2.15-9.02 5.54-11.85-2.27 2.69-3.63 6.16-3.63 9.95 0 8.55 6.95 15.48 15.51 15.48 3.8-.01 7.27-1.37 9.97-3.63z" fill="#293b4e" opacity=".3"/><path d="m48.34 35.57c.4.88-1.05 2.4-3.24 3.39-2.19 1-4.29 1.09-4.69.21s1.05-2.4 3.24-3.39c2.19-1 4.29-1.09 4.69-.21z" fill="#f1f3f7" opacity=".4"/><g><ellipse cx="48.41" cy="47.76" fill="#eff3f5" rx="6.79" ry="6.77"/><g><path d="m46.85 47.32c-.48-.2-.82-.48-1.04-.83s-.32-.74-.32-1.15c0-.72.25-1.31.75-1.77.5-.47 1.21-.7 2.13-.7.91 0 1.62.23 2.13.7.5.47.76 1.06.76 1.77 0 .45-.12.84-.35 1.19s-.56.61-.98.79c.53.21.94.53 1.22.94s.42.88.42 1.42c0 .89-.28 1.61-.85 2.16s-1.32.83-2.26.83c-.87 0-1.6-.23-2.18-.69-.69-.54-1.03-1.28-1.03-2.22 0-.52.13-1 .39-1.43.25-.44.66-.78 1.21-1.01zm.21 2.26c0 .51.13.9.39 1.18s.58.43.97.43c.38 0 .7-.14.94-.41.25-.27.37-.67.37-1.18 0-.45-.13-.81-.38-1.08s-.58-.41-.96-.41c-.45 0-.79.15-1.01.46-.21.31-.32.64-.32 1.01zm.17-4.11c0 .37.1.65.31.86.21.2.48.31.83.31s.63-.1.84-.31.31-.49.31-.86c0-.34-.1-.62-.31-.83s-.48-.31-.82-.31c-.35 0-.64.1-.85.31-.2.21-.31.48-.31.83z" fill="#d44231"/></g></g></g><g><ellipse cx="15.59" cy="41.11" fill="#3582a8" rx="15.51" ry="15.48"/><path d="m27.48 51.06c-2.84 3.38-7.11 5.53-11.88 5.53-8.57 0-15.51-6.93-15.51-15.48 0-4.76 2.15-9.02 5.54-11.85-2.27 2.69-3.63 6.16-3.63 9.95 0 8.55 6.95 15.48 15.51 15.48 3.79-.01 7.27-1.37 9.97-3.63z" fill="#255970" opacity=".3"/><path d="m22.64 30.28c.21 1.87-2.98 3.75-7.13 4.21s-7.68-.68-7.88-2.54c-.21-1.87 2.98-3.75 7.13-4.21 4.14-.47 7.67.67 7.88 2.54z" fill="#f1f3f7" opacity=".4"/><g><path d="m17.42 51.78c-1.44 3.17-5.56 4.41-9.21 2.77-3.66-1.65-5.45-5.55-4.02-8.72 1.44-3.17 5.56-4.41 9.21-2.77 3.66 1.65 5.45 5.55 4.02 8.72z" fill="#eff3f5"/><g><g><path d="m6.82 49.24 1.86.64c-.11.37-.08.72.08 1.04s.4.55.73.7c.37.17.75.18 1.13.03s.69-.49.93-1.02c.23-.5.27-.93.12-1.3-.14-.37-.42-.64-.84-.83-.52-.23-1.07-.24-1.66-.03l-1.37-.83 2.84-3.82 4.75 2.14-.66 1.46-3.39-1.52-.91 1.25c.48.01.93.1 1.34.29.8.36 1.36.91 1.68 1.67.33.75.31 1.53-.06 2.33-.3.67-.8 1.17-1.48 1.49-.93.44-1.94.42-3.02-.07-.86-.39-1.48-.91-1.84-1.56-.35-.65-.43-1.33-.23-2.06z" fill="#293b4e"/></g></g></g></g><g><path d="m53.57 18.39c-.43 3.06-1.73 5.78-3.61 7.96-3.33 3.85-8.49 5.98-13.91 5.22s-9.79-4.23-11.93-8.84c-1.21-2.61-1.7-5.58-1.27-8.64s1.73-5.78 3.61-7.96c3.33-3.85 8.49-5.98 13.91-5.22s9.79 4.23 11.93 8.84c1.2 2.61 1.7 5.58 1.27 8.64z" fill="#eff3f5"/><path d="m53.57 18.39c-.43 3.06-1.73 5.78-3.61 7.96l-25.85-3.62c-1.21-2.61-1.7-5.58-1.27-8.64s1.73-5.78 3.61-7.96l25.85 3.62c1.2 2.61 1.7 5.58 1.27 8.64z" fill="#d44231"/><g><path d="m44.76 16.24c0 3.61-2.94 6.54-6.56 6.54s-6.56-2.93-6.56-6.54 2.94-6.54 6.56-6.54c3.63-.01 6.56 2.92 6.56 6.54z" fill="#f1f3f7"/><g><path d="m35.01 18.43 1.78-.22c.06.45.21.8.46 1.04s.55.36.91.36c.38 0 .7-.14.96-.43s.39-.68.39-1.16c0-.46-.12-.83-.37-1.1s-.55-.41-.91-.41c-.24 0-.52.05-.85.14l.2-1.5c.5.01.88-.09 1.14-.32s.39-.53.39-.91c0-.32-.1-.58-.29-.77s-.45-.29-.77-.29c-.31 0-.58.11-.81.33-.22.22-.36.54-.41.96l-1.7-.29c.12-.58.3-1.04.53-1.39.24-.35.57-.62 1-.82s.9-.3 1.43-.3c.91 0 1.63.29 2.18.86.45.47.68 1 .68 1.6 0 .84-.46 1.51-1.38 2.01.55.12.99.38 1.32.79s.5.91.5 1.49c0 .84-.31 1.56-.92 2.15-.62.59-1.38.89-2.3.89-.87 0-1.59-.25-2.16-.75-.58-.5-.91-1.16-1-1.96z" fill="#293b4e"/></g></g><path d="m41.28 2.17c-.87-.33-2.88-.37-5.19-.05-3.05.42-5.47 1.32-5.4 2s2.6.88 5.65.46c.92-.13 1.78-.3 2.54-.49 4.85-.95 8.28 2.19 8.28 2.19-2.31-3.01-5.88-4.11-5.88-4.11z" fill="#e5e5e5"/></g></g></svg>