<svg id="Layer_1" enable-background="new 0 0 64 64" viewBox="0 0 64 64" xmlns="http://www.w3.org/2000/svg"><g><path d="m50.58 63.84h-37.16c-1.66 0-3-1.34-3-3v-57.68c0-1.66 1.34-3 3-3h37.16c1.66 0 3 1.34 3 3v57.69c0 1.65-1.34 2.99-3 2.99z" fill="#59b5ac"/><path d="m6.77 11.7h50.47v38.08h-50.47z" fill="#e5e5e5" transform="matrix(0 1 -1 0 62.739 -1.262)"/><g><path d="m20.43 39.53c0 1.59-1.29 2.88-2.89 2.88s-2.89-1.29-2.89-2.88 1.29-2.88 2.89-2.88 2.89 1.29 2.89 2.88z" fill="#eff3f5"/><path d="m20.43 17.35c0 1.59-1.29 2.88-2.89 2.88s-2.89-1.29-2.89-2.88 1.29-2.88 2.89-2.88 2.89 1.29 2.89 2.88z" fill="#e2431e"/><ellipse cx="23.33" cy="17.35" fill="#5ac8ae" rx="2.89" ry="2.88"/><path d="m32 17.35c0 1.59-1.29 2.88-2.89 2.88s-2.89-1.29-2.89-2.88 1.29-2.88 2.89-2.88 2.89 1.29 2.89 2.88z" fill="#e2431e"/><ellipse cx="34.89" cy="17.35" fill="#3eb9e3" rx="2.89" ry="2.88"/><path d="m43.57 17.35c0 1.59-1.29 2.88-2.89 2.88s-2.89-1.29-2.89-2.88 1.29-2.88 2.89-2.88c1.59 0 2.89 1.29 2.89 2.88z" fill="#e2431e"/><ellipse cx="46.46" cy="17.35" fill="#3582a8" rx="2.89" ry="2.88"/><path d="m26.22 23.12c0 1.59-1.29 2.88-2.89 2.88s-2.89-1.29-2.89-2.88 1.29-2.88 2.89-2.88c1.59 0 2.89 1.29 2.89 2.88z" fill="#e2431e"/><path d="m32 23.12c0 1.59-1.29 2.88-2.89 2.88s-2.89-1.29-2.89-2.88 1.29-2.88 2.89-2.88 2.89 1.29 2.89 2.88z" fill="#f1f3f7"/><path d="m37.78 23.12c0 1.59-1.29 2.88-2.89 2.88s-2.89-1.29-2.89-2.88 1.29-2.88 2.89-2.88 2.89 1.29 2.89 2.88z" fill="#e2431e"/><path d="m43.57 23.12c0 1.59-1.29 2.88-2.89 2.88s-2.89-1.29-2.89-2.88 1.29-2.88 2.89-2.88c1.59 0 2.89 1.29 2.89 2.88z" fill="#506c72"/><path d="m37.78 28.89c0 1.59-1.29 2.88-2.89 2.88s-2.89-1.29-2.89-2.88 1.29-2.88 2.89-2.88 2.89 1.29 2.89 2.88z" fill="#3582a8"/><path d="m20.43 45.3c0 1.59-1.29 2.88-2.89 2.88s-2.89-1.29-2.89-2.88 1.29-2.88 2.89-2.88c1.6-.01 2.89 1.29 2.89 2.88z" fill="#f8b517"/><path d="m20.43 51.07c0 1.59-1.29 2.88-2.89 2.88s-2.89-1.29-2.89-2.88 1.29-2.88 2.89-2.88c1.6-.01 2.89 1.28 2.89 2.88z" fill="#59b5ac"/><path d="m26.22 39.53c0 1.59-1.29 2.88-2.89 2.88s-2.89-1.29-2.89-2.88 1.29-2.88 2.89-2.88c1.59 0 2.89 1.29 2.89 2.88z" fill="#59cbef"/><path d="m26.22 45.3c0 1.59-1.29 2.88-2.89 2.88s-2.89-1.29-2.89-2.88 1.29-2.88 2.89-2.88c1.59-.01 2.89 1.29 2.89 2.88z" fill="#59b5ac"/><ellipse cx="23.33" cy="51.07" fill="#e2431e" rx="2.89" ry="2.88"/><path d="m32 51.07c0 1.59-1.29 2.88-2.89 2.88s-2.89-1.29-2.89-2.88 1.29-2.88 2.89-2.88c1.6-.01 2.89 1.28 2.89 2.88z" fill="#3582a8"/><path d="m37.78 45.3c0 1.59-1.29 2.88-2.89 2.88s-2.89-1.29-2.89-2.88 1.29-2.88 2.89-2.88c1.6-.01 2.89 1.29 2.89 2.88z" fill="#5ac8ae"/><ellipse cx="34.89" cy="51.07" fill="#f8b517" rx="2.89" ry="2.88"/><path d="m43.57 39.53c0 1.59-1.29 2.88-2.89 2.88s-2.89-1.29-2.89-2.88 1.29-2.88 2.89-2.88c1.59 0 2.89 1.29 2.89 2.88z" fill="#f8b517"/><path d="m43.57 45.3c0 1.59-1.29 2.88-2.89 2.88s-2.89-1.29-2.89-2.88 1.29-2.88 2.89-2.88c1.59-.01 2.89 1.29 2.89 2.88z" fill="#3582a8"/><path d="m43.57 51.07c0 1.59-1.29 2.88-2.89 2.88s-2.89-1.29-2.89-2.88 1.29-2.88 2.89-2.88c1.59-.01 2.89 1.28 2.89 2.88z" fill="#e2431e"/><path d="m49.35 39.53c0 1.59-1.29 2.88-2.89 2.88s-2.89-1.29-2.89-2.88 1.29-2.88 2.89-2.88c1.59 0 2.89 1.29 2.89 2.88z" fill="#687d87"/><path d="m20.43 33.76c0 1.59-1.29 2.88-2.89 2.88s-2.89-1.29-2.89-2.88 1.29-2.88 2.89-2.88 2.89 1.29 2.89 2.88z" fill="#e2431e"/><path d="m49.35 45.3c0 1.59-1.29 2.88-2.89 2.88s-2.89-1.29-2.89-2.88 1.29-2.88 2.89-2.88c1.59-.01 2.89 1.29 2.89 2.88z" fill="#eff3f5"/><ellipse cx="46.46" cy="51.07" fill="#687d87" rx="2.89" ry="2.88"/></g><g fill="#445b69"><path d="m12.96 57.55h7.38v3.25h-7.38z"/><path d="m23.19 57.55h7.38v3.25h-7.38z"/><path d="m33.43 57.55h7.38v3.25h-7.38z"/><path d="m43.66 57.55h7.38v3.25h-7.38z"/></g><g><path d="m35.66 3.65h-7.32c-.45 0-.82-.37-.82-.82s.37-.82.82-.82h7.32c.45 0 .82.37.82.82s-.37.82-.82.82z" fill="#e5e5e5"/></g></g></svg>