<svg id="Layer_1" enable-background="new 0 0 64 64" viewBox="0 0 64 64" xmlns="http://www.w3.org/2000/svg"><g><g><g><g><path d="m55.87 33.2-24.93-24.87 1.88-1.87 24.93 24.87z" fill="#bdbdbe"/></g><g><g><path d="m61.23 31.85-4.84 4.83c-.69.68-1.72.75-2.31.15l-2.13-2.12c-.59-.59-.53-1.63.15-2.31l4.84-4.83c.69-.68 1.72-.75 2.31-.15l2.13 2.12c.6.59.53 1.62-.15 2.31z" fill="#333842"/><g fill="#bdbdbe"><path d="m60.89 29.04-7.31 7.3-.43-.43 7.31-7.3z"/><path d="m60.18 28.33-7.31 7.3-.43-.43 7.31-7.29z"/></g></g><g><path d="m36.44 7.12-4.84 4.83c-.69.68-1.72.75-2.31.15l-2.13-2.12c-.59-.59-.53-1.63.16-2.31l4.84-4.83c.69-.68 1.72-.75 2.31-.15l2.13 2.12c.6.6.53 1.63-.16 2.31z" fill="#333842"/><g fill="#bdbdbe"><path d="m36.11 4.32-7.31 7.29-.44-.43 7.31-7.29z"/><path d="m35.39 3.61-7.31 7.29-.42-.42 7.31-7.29z"/></g></g></g></g><g><g><path d="m31.33 57.68-24.93-24.87 1.87-1.86 24.93 24.86z" fill="#bdbdbe"/></g><g><g><path d="m36.69 56.33-4.84 4.83c-.69.68-1.72.75-2.31.15l-2.13-2.12c-.59-.59-.53-1.63.15-2.31l4.84-4.83c.69-.68 1.72-.75 2.31-.15l2.13 2.12c.6.6.53 1.62-.15 2.31z" fill="#333842"/><g fill="#bdbdbe"><path d="m36.35 53.53-7.31 7.29-.43-.43 7.31-7.29z"/><path d="m35.64 52.82-7.31 7.29-.43-.43 7.31-7.29z"/></g></g><g><path d="m11.9 31.6-4.84 4.83c-.69.68-1.72.75-2.31.15l-2.13-2.12c-.59-.59-.53-1.63.15-2.31l4.84-4.83c.69-.68 1.72-.75 2.31-.15l2.13 2.12c.61.6.54 1.63-.15 2.31z" fill="#333842"/><g fill="#bdbdbe"><path d="m11.56 28.8-7.31 7.3-.43-.43 7.31-7.3z"/><path d="m10.85 28.09-7.31 7.3-.42-.43 7.31-7.29z"/></g></g></g></g></g><g><path d="m6.61 60.85-3.53-3.52c-4.01-4-4.01-10.47 0-14.47l39.8-39.71c4.01-4 10.5-4 14.5 0l3.53 3.52c4.01 4 4.01 10.47 0 14.47l-39.8 39.71c-4 3.99-10.5 3.99-14.5 0z" fill="#d44231"/><path d="m62.88 14.06c-.57-2.04-1.65-3.95-3.26-5.56-4.98-4.97-13.05-4.97-18.03 0l-36.27 36.18c-2.45 2.45-3.7 5.64-3.74 8.85-1.2-4.28-.1-9.07 3.27-12.43l36.27-36.19c4.98-4.97 13.05-4.97 18.03 0 2.49 2.48 3.74 5.74 3.73 8.99z" fill="#c2382e"/></g></g></svg>