<svg id="Layer_1" enable-background="new 0 0 64 64" viewBox="0 0 64 64" xmlns="http://www.w3.org/2000/svg"><g><path d="m61.96 21.8v-1.15h-6.44v-3.99h6.44v-1.16h-6.44-1.16-4.58-1.16-4.58-1.16-4.58-1.16-4.58-1.16-4.58-1.16-4.58-1.16-4.58-1.16-4.54-1.16-6.44v1.15h6.44v3.99h-6.44v1.15h6.44v3.99h-6.44v1.15h6.44v3.99h-6.44v1.15h6.44 1.16 4.58 1.16 4.58 1.16 4.58 1.16 4.58 1.16 4.58 1.16 4.58 1.16 4.58 1.16 4.58 1.16 6.44v-1.15h-6.44v-3.99h6.44v-1.15h-6.44v-3.98zm-7.6-5.15v3.99h-4.58v-3.99zm-5.73 0v3.99h-4.58v-3.99zm-27.52 5.15h4.58v3.99h-4.58zm-1.16 3.99h-4.58v-3.99h4.58zm6.89-3.99h4.58v3.99h-4.58zm5.74 0h4.58v3.99h-4.58zm5.73 0h4.58v3.99h-4.58zm5.74 0h4.58v3.99h-4.58zm-1.16-5.15v3.99h-4.58v-3.99zm-5.73 0v3.99h-4.58v-3.99zm-5.74 0v3.99h-4.58v-3.99zm-5.73 0v3.99h-4.58v-3.99zm-5.74 0v3.99h-4.58v-3.99zm-10.31 0h4.58v3.99h-4.58zm0 5.15h4.58v3.99h-4.58zm0 9.14v-3.99h4.58v3.99zm5.73 0v-3.99h4.58v3.99zm5.74 0v-3.99h4.58v3.99zm5.73 0v-3.99h4.58v3.99zm5.74 0v-3.99h4.58v3.99zm5.73 0v-3.99h4.58v3.99zm5.74 0v-3.99h4.58v3.99zm10.31 0h-4.58v-3.99h4.58zm0-5.15h-4.58v-3.99h4.58z" fill="#dededf"/><g fill="#e5c06e"><path d="m.08 11.01h3.93v50.06h-3.93z"/><path d="m59.99 11.01h3.93v50.06h-3.93z"/></g><g><ellipse cx="13.28" cy="7.91" fill="#f1f3f7" rx="4.99" ry="4.98"/><path d="m17.72 5.63c-.04-.07-.07-.14-.11-.2-.3-.52-.7-.99-1.16-1.37-.14-.11-.29-.22-.44-.32-.78-.51-1.71-.81-2.72-.81-.08 0-.15 0-.22.01-.1 0-.2.01-.29.02-1.63.17-3.03 1.12-3.81 2.48-.04.05-.07.1-.1.16-.31.57-.5 1.22-.56 1.9l-.01.33v.01.07c0 1.16.4 2.22 1.07 3.07.08.11.17.21.27.31.91.98 2.21 1.59 3.65 1.59h.12c.86-.02 1.67-.25 2.37-.66.06-.04.13-.07.19-.11.6-.38 1.1-.87 1.49-1.46.21-.31.38-.65.51-1 .2-.54.31-1.12.31-1.72-.01-.84-.21-1.61-.56-2.3zm-1.82-1.64c.55.37 1.02.85 1.37 1.4-1.13-.09-1.99.23-2.63.67-.08.05-.15.1-.22.16-.8.62-1.19 1.41-1.3 1.66-.8.08-1.47-.1-2.02-.38 1.16-3.31 3.59-3.59 4.8-3.51zm-3.08-.77c.15-.02.31-.02.46-.02.78 0 1.51.19 2.16.53-1.37.04-3.51.62-4.58 3.64-.51-.31-.9-.7-1.19-1.05.8-1.99 2.48-2.83 3.15-3.1zm-1.02.22c-.78.48-1.73 1.3-2.31 2.63-.14-.19-.25-.35-.31-.47.57-1.01 1.5-1.79 2.62-2.16zm-3.23 4.34c.02-.68.18-1.32.46-1.9.48.78 1.82 2.5 4.14 2.27.16.17.75.86.86 1.9-.71.15-4.03.71-5.46-2.27zm1.23 3.3c-.67-.73-1.11-1.67-1.21-2.7 1.07 1.71 2.84 2.07 4.11 2.07.6 0 1.09-.08 1.34-.13.01.48-.09 1.03-.38 1.63-.35.05-2.01.29-3.86-.87zm3.46 1.53c-.94-.01-1.82-.29-2.55-.77.86.34 1.62.43 2.17.43.26 0 .47-.02.62-.04-.07.13-.15.26-.24.38zm2.48-.69c-.63.39-1.37.63-2.15.68 1.58-2.44.12-4.26-.22-4.63.11-.24.49-1 1.26-1.58 1 .84 2.39 2.65 1.11 5.53zm1.96-2.35c-.31.83-.86 1.55-1.55 2.07 1.03-2.73-.3-4.52-1.29-5.4.43-.29.97-.51 1.64-.57.24.3 1.42 1.89 1.2 3.9zm.26-1.06c-.16-1.37-.83-2.43-1.15-2.86.2 0 .41.01.62.03.37.66.57 1.42.57 2.23 0 .2-.01.4-.04.6z" fill="#5ac8ae"/></g></g></svg>