<svg id="Layer_1" enable-background="new 0 0 64 64" viewBox="0 0 64 64" xmlns="http://www.w3.org/2000/svg"><g><path d="m20.99 27.31.44 1.01 1.16-.95-.4-.92c-.01-.02-.45-1.84-2.13-2.61-1.08-.49-2.02-.54-2.56-.51-.32.02-.62.15-.79.38-.41.56-.64 1.51.29 2.62 1.17 1.38 3.99.98 3.99.98" fill="#333842"/><g><path d="m23.04 49.09-9.5-2.54 9.5-2.54c.1-.03.15-.12.13-.22-.03-.1-.12-.15-.22-.13l-9.5 2.54 6.95-6.94c.07-.07.07-.18 0-.25s-.19-.07-.26 0l-6.95 6.94 2.54-9.47c.03-.1-.03-.2-.13-.22-.09-.02-.2.03-.22.13l-2.54 9.47-2.55-9.47c-.03-.1-.12-.15-.22-.13-.1.03-.15.12-.13.22l2.55 9.47-6.95-6.93c-.07-.07-.19-.07-.26 0s-.07.18 0 .26l6.96 6.93-9.5-2.54c-.1-.02-.2.03-.22.13-.03.1.03.2.13.22l9.5 2.54-9.5 2.54c-.1.03-.15.12-.13.22.02.08.09.13.17.13.02 0 .03 0 .05-.01l9.5-2.54-6.95 6.94c-.07.07-.07.18 0 .25.04.04.08.05.13.05s.09-.02.13-.05l6.95-6.94-2.54 9.47c-.03.1.03.2.13.22.02 0 .03.01.05.01.08 0 .15-.05.17-.13l2.54-9.47 2.55 9.47c.02.08.09.13.17.13.02 0 .03 0 .05-.01.1-.03.15-.12.13-.22l-2.55-9.47 6.95 6.93c.04.04.08.05.13.05s.09-.02.13-.05c.07-.07.07-.18 0-.25l-6.96-6.93 9.5 2.54c.02 0 .03.01.05.01.08 0 .15-.05.17-.13.02-.1-.04-.2-.13-.23z" fill="#c6c1c1"/><path d="m12.84 33.83c-7.05 0-12.76 5.7-12.76 12.73s5.71 12.73 12.76 12.73 12.76-5.7 12.76-12.73-5.71-12.73-12.76-12.73zm0 24.04c-6.26 0-11.34-5.07-11.34-11.31 0-6.25 5.08-11.31 11.34-11.31s11.34 5.07 11.34 11.31-5.08 11.31-11.34 11.31z" fill="#333842"/><path d="m15.35 46.56c0 1.38-1.13 2.51-2.51 2.51-1.39 0-2.51-1.12-2.51-2.51 0-1.38 1.13-2.51 2.51-2.51 1.39 0 2.51 1.12 2.51 2.51z" fill="#d44231"/><path d="m12.84 35.24c-6.26 0-11.34 5.07-11.34 11.31 0 6.25 5.08 11.31 11.34 11.31s11.34-5.07 11.34-11.31-5.08-11.31-11.34-11.31zm0 21.67c-5.73 0-10.38-4.63-10.38-10.35s4.65-10.36 10.38-10.36 10.38 4.63 10.38 10.35-4.65 10.36-10.38 10.36z" fill="#59b5ac"/></g><g><path d="m61.36 49.09-9.5-2.54 9.5-2.54c.1-.03.15-.12.13-.22-.03-.1-.12-.15-.22-.13l-9.5 2.54 6.95-6.94c.07-.07.07-.18 0-.25s-.18-.07-.26 0l-6.95 6.94 2.54-9.47c.03-.1-.03-.2-.13-.22-.09-.02-.2.03-.22.13l-2.54 9.47-2.55-9.47c-.03-.1-.12-.15-.22-.13-.1.03-.15.12-.13.22l2.55 9.47-6.95-6.93c-.07-.07-.18-.07-.26 0-.07.07-.07.18 0 .26l6.96 6.93-9.5-2.54c-.1-.02-.2.03-.22.13-.03.1.03.2.13.22l9.5 2.54-9.5 2.54c-.1.03-.15.12-.13.22.02.08.09.13.17.13.02 0 .03 0 .05-.01l9.5-2.54-6.95 6.94c-.07.07-.07.18 0 .25.04.04.08.05.13.05s.09-.02.13-.05l6.95-6.94-2.54 9.47c-.03.1.03.2.13.22.02 0 .03.01.05.01.08 0 .15-.05.17-.13l2.54-9.47 2.55 9.47c.02.08.1.13.17.13.02 0 .03 0 .05-.01.1-.03.15-.12.13-.22l-2.55-9.47 6.95 6.93c.04.04.08.05.13.05s.09-.02.13-.05c.07-.07.07-.18 0-.25l-6.95-6.93 9.5 2.54c.02 0 .03.01.05.01.08 0 .15-.05.17-.13.01-.1-.05-.2-.14-.23z" fill="#c6c1c1"/><path d="m51.16 35.24c-6.26 0-11.34 5.07-11.34 11.31 0 6.25 5.08 11.31 11.34 11.31s11.34-5.07 11.34-11.31-5.08-11.31-11.34-11.31zm0 21.67c-5.73 0-10.38-4.63-10.38-10.35s4.65-10.36 10.38-10.36 10.38 4.63 10.38 10.35-4.65 10.36-10.38 10.36z" fill="#59b5ac"/><path d="m51.16 33.83c-7.05 0-12.76 5.7-12.76 12.73s5.71 12.73 12.76 12.73 12.76-5.7 12.76-12.73-5.71-12.73-12.76-12.73zm0 24.04c-6.26 0-11.34-5.07-11.34-11.31 0-6.25 5.08-11.31 11.34-11.31s11.34 5.07 11.34 11.31-5.08 11.31-11.34 11.31z" fill="#333842"/><path d="m53.67 46.56c0 1.38-1.13 2.51-2.51 2.51s-2.51-1.12-2.51-2.51c0-1.38 1.13-2.51 2.51-2.51s2.51 1.12 2.51 2.51z" fill="#d44231"/></g><path d="m52.03 45.97-7.33-19.52c-.14-.38-.55-.56-.93-.43s-.57.55-.43.92l1.01 2.19h-21l-.76-1.77-.4-.92-.16-.36c-.15-.36-.58-.53-.95-.38-.37.16-.54.58-.38.95l.28.65v.01l.44 1 .64 1.48-9.98 16.52c-.14.22-.14.5-.01.73.13.22.37.37.63.37h15.4c.3 0 .57-.19.67-.48l.78-2.11 3.18-.12c.17-.01.33-.08.46-.19l12.55-11.53 4.92 13.47c.11.3.38.48.68.48.09 0 .17-.01.25-.04.38-.14.57-.55.44-.92zm-24.44 0h-13.6l8.79-14.54 5.5 12.71zm4.82-2.7-2.9.11-5.53-12.8h20.9l.34.94z" fill="#f0582f"/><g><path d="m34.36 45.58c0 2.17-1.76 3.93-3.94 3.93s-3.94-1.76-3.94-3.93 1.76-3.93 3.94-3.93 3.94 1.76 3.94 3.93z" fill="#59b5ac"/><path d="m32.13 45.58c0 .94-.76 1.7-1.7 1.7s-1.7-.76-1.7-1.7.76-1.7 1.7-1.7c.93 0 1.7.76 1.7 1.7z" fill="#324a5e"/><path d="m31.44 45.58c0 .56-.45 1.01-1.01 1.01s-1.01-.45-1.01-1.01.45-1.01 1.01-1.01c.55 0 1.01.45 1.01 1.01z" fill="#eff3f5"/></g><g><g><path d="m48.38 29.79c-.24 0-.4-.07-.41-.08-.12-.06-.17-.2-.11-.33.06-.12.21-.17.33-.11.02.01.51.22 1.04-.55.6-.86.41-1.67.4-1.7-.03-.13.05-.26.18-.29s.26.05.3.18c.01.04.25 1.06-.47 2.1-.46.64-.93.78-1.26.78z" fill="#445b69"/></g><g><path d="m50.1 27.3c-1.14 0-2.27-.58-2.33-.61-2.46-.8-3.95.13-4.02.17-.15.1-.35.05-.45-.1s-.06-.35.09-.45c.07-.05 1.8-1.14 4.62-.22.06.03 1.6.82 2.69.47.37-.12.64-.35.82-.71.08-.16.28-.22.44-.14s.22.28.14.44c-.27.51-.67.86-1.21 1.03-.24.08-.51.12-.79.12z" fill="#445b69"/></g><path d="m47.84 26.19c0 .37-.3.67-.67.67s-.67-.3-.67-.67.3-.67.67-.67.67.3.67.67z" fill="#445b69"/></g><g><path d="m26.38 33.89 1.95 1.85-1.56 1.36-1.83-1.79z" fill="#3eb9e3"/><g><path d="m28.95 41.56c-.06.04-.34.21-.56.22l-1.92-2.19-.18-.2v-.01l-.17-.2-.01-.01-.17-.2v-.01l-.18-.21-2.2-2.51c.06-.23.17-.46.3-.6l2.49 2.88.18.21v.01l.18.2v.01l.17.2.01.01.18.2z" fill="#59b5ac"/><path d="m28.95 41.56-1.89-2.19-.18-.2-.01-.01-.17-.2v-.01l-.18-.2v-.01l-.18-.21-2.49-2.88c.45-.55.54-.79 1.17-1.13.67-.36.66.3.66.3s-.22.91.53 1.57 1.25.09 1.25.09.35.95.43 1.39c.01.08.05.19.06.28v.01c.02.08.03.16.05.24v.02c.02.08.03.16.06.24v.01c.02.09.03.17.06.26.14.61.45 1.27.71 1.74.46.8.12.89.12.89z" fill="#333842"/><path d="m25.09 35.94c-.16.09-.36.04-.45-.11-.09-.16-.04-.36.11-.45.16-.09.36-.04.45.11.1.15.05.36-.11.45z" fill="#eff3f5"/><path d="m25.01 35.8c-.08.05-.18.02-.23-.06s-.02-.18.06-.23.18-.02.23.06c.04.08.02.18-.06.23z" fill="#c2382e"/><g><path d="m27.95 38.17-1.43.59v-.01l-.18-.21 1.55-.66c.01.08.04.19.06.29-.01-.01-.01-.01 0 0z" fill="#d44231"/><path d="m28 38.43-1.3.54v-.01l-.18-.2v-.01l1.43-.59v.01c.02.08.03.16.05.24z" fill="#eff3f5"/><path d="m28.06 38.68-1.17.5-.01-.01-.17-.2v-.01l1.3-.55v.02c.01.08.02.16.05.25 0-.01 0-.01 0 0z" fill="#d44231"/><path d="m28.12 38.93-1.06.44-.18-.2-.01-.01 1.18-.49v.01c.03.08.04.17.07.25z" fill="#eff3f5"/></g></g></g><path d="m28.06 49.15c-.22-4.3.97-7.61.83-10.42 1.46-1.89.53-3.67-.42-5.75-.81-1.73-1.42-3.47-1.82-5.24l-4.76 2.78c.7 1.29 1.46 2.57 2.58 3.74 1.15 1.63 1.48 3.21 1.26 4.77-.56 3.13-.53 6.16.41 9.03l.02 1.64z" fill="#fcd985"/><path d="m29.65 23.02s3.91 2.97 4.67 3.49c1.47.99.89 2.54-.35 4.02-1.74 2.04-3.06 3.09-4.72 4.55l-1.27-2.62c1.92-1.58 3.24-3.18 2.17-4.21-.62-.5-2.34.39-3.11-.58z" fill="#fcd985"/><path d="m21.96 30.97s-.25-2.44-1.93-4.02c-3.95-3.23-3.65-6.67-.31-9.57l9.94 5.64-2.7 4.89.09.81z" fill="#f8b517"/><path d="m40.81 19.64c-.1 1.06-.2 2.06 0 2.92 0 0 .23 1 1.65 1.68 0 0 1.88 1.08 4.87 3.53 1.22.26 1.98 1.12 2.14 1.53.34.98-.54.5-.54.5-.05 1.07-.74.29-.74.29-.21 1.01-.8.07-.8.07-.2.83-.52.19-.52.19-.1-.26-.14-1.36-.14-1.36-6.69-2.74-8.1-5.19-8.1-5.19-.84-1.21-1.85-4.32-1.85-4.32" fill="#fcd985"/><path d="m46.57 12.89c.58 1.24-.57.79-.57.79s-.23-.17-.33.25-.61.24-.61.24c0 1.09-1.02.71-1.02.71-.21-.1-.73-.67-1.15-1.14-.15-.18-.29-.34-.38-.45-.12-.13-.18-.21-.18-.21l-1.14.77-1.95-2.05 2.44-3.53 2.22-1.17 2.42 2.62.27.31 1.34 1.46c-.27 1.13-1.36 1.4-1.36 1.4z" fill="#fcd985"/><path d="m19.72 17.37s6.74-6.23 16.67-6.7c0 0 5.04-.37 5.04 3.73 0 0-.31 4.26-.18 5.51 0 0-2.29 0-4.61 0 0 0-.41-1.79-1.03-2.23-.95-.67-8.57 2.78-9.59 4.09-.01 0-1.42-1.07-6.3-4.4z" fill="#3582a8"/><path d="m45.29 9.21c.43.17.81.44 1.17.77 0 0-2.51.17-3.06.45s-1.53-.12-1.53-.12-.61.04-1.1.36c0 0-.81-.02-.28-.7l1.18-1.7 1.45-.51 1.59.61z" fill="#445b69"/><path d="m42.67 5.11s-2.31 2.46-.99 3.15c0 0 1.64.56 2.32.11z" fill="#59b5ac"/><g><path d="m26.08 48.07 2.03-.32.05 1.68-1.93.28z" fill="#3eb9e3"/><g><path d="m32.1 50.37c-.01.06-.05.32-.15.46l-2.38.07-.22.01h-.01l-.21.01h-.01l-.21.01h-.01-.22l-2.72.09c-.11-.16-.2-.35-.22-.5l3.11-.07h.22.01l.22-.01h.01l.21-.01h.01l.22-.01z" fill="#59b5ac"/><path d="m32.1 50.37-2.36.05-.22.01h-.01l-.21.01h-.01l-.22.01h-.01-.22l-3.11.07c-.12-.57-.22-.75-.1-1.32.12-.61.53-.26.53-.26s.46.61 1.26.48c.81-.13.7-.74.7-.74s.78.27 1.1.45c.06.03.15.07.21.11h.01c.06.03.12.06.18.09.01 0 .01 0 .01.01l.18.09h.01c.06.03.13.07.19.1.46.23 1.03.37 1.47.45.75.13.62.39.62.39z" fill="#333842"/><path d="m26.56 49.88c-.02.15-.16.25-.31.23s-.25-.16-.23-.31.16-.25.31-.23c.15.03.25.17.23.31z" fill="#eff3f5"/><path d="m26.43 49.86c-.01.07-.08.12-.15.11s-.12-.08-.11-.15.08-.12.15-.11.12.08.11.15z" fill="#c2382e"/><g><path d="m29.45 49.25-.37 1.2h-.01-.22l.38-1.31c.06.03.15.06.22.11-.01-.01-.01-.01 0 0z" fill="#d44231"/><path d="m29.64 49.35-.33 1.09h-.01l-.22.01h-.01l.37-1.2h.01l.18.09s0 0 .01.01z" fill="#eff3f5"/><path d="m29.82 49.44-.3.99h-.01l-.21.01h-.01l.33-1.1c.01 0 .01 0 .01.01.07.03.12.06.19.09z" fill="#d44231"/><path d="m30.02 49.53-.27.89-.22.01h-.01l.3-1h.01c.06.04.12.08.19.1z" fill="#eff3f5"/></g></g></g><path d="m30.23 51.84-2.63.12-.02-.99 2.63-.09z" fill="#293b4e"/><g><path d="m46.58 10.03c-.01.05-.03.09-.07.12l-3.6 3.56c-.01.01-.02.02-.03.03-.15-.18-.29-.34-.38-.45l-.47-3.39c-.02-.14.07-.27.19-.29h.01c.14 0 .23.09.25.21l.46 3.22 3.28-3.26c.03-.03.06-.05.09-.05.02-.01.04-.01.06-.01.07 0 .12.03.16.08.06.06.08.15.05.23z" fill="#445b69"/></g><path d="m42.7 4.71s6.81-.1 6.72 5.95c0 0 .02.44.6 1.34 0 0-.85.07-1.76-.27-.41-.15-.76-.45-1-.82-.31-.47-.89-1.19-1.74-1.6-1.94-.89-3.12-2.28-2.82-4.6z" fill="#f4a300"/></g></svg>