<svg id="Layer_1" enable-background="new 0 0 64 64" viewBox="0 0 64 64" xmlns="http://www.w3.org/2000/svg"><g><g><path d="m60.65 61.9h-57.3c-1.1 0-2-.9-2-2v-38.96c0-1.1.9-2 2-2h57.3c1.1 0 2 .9 2 2v38.96c0 1.11-.9 2-2 2z" fill="#d44231"/><path d="m62.65 20.95v3.28c0-1.11-.91-2.02-2.02-2.02h-57.26c-1.11 0-2.02.91-2.02 2.02v-3.28c0-1.11.91-2.02 2.02-2.02h57.27c1.11.01 2.01.91 2.01 2.02z" fill="#c2382e"/><g fill="#fff"><g><g><g><path d="m17.31 33.08 1.88-1.87-.67-.67h-6.84l-.67.67 1.88 1.87z"/><path d="m12.69 43.45v-1.89l-1.15-1.14-1.39 1.39v1.4 5.56l.66.67 1.88-1.87z"/><path d="m19.39 31.41-1.88 1.87v4.23 1.64l1.27 1.27 1.27-1.27v-1.64-5.44z"/><path d="m12.88 47.77-1.87 1.87.67.66h6.84l.67-.66-1.88-1.87z"/><path d="m17.51 41.69v1.64 4.24l1.88 1.87.66-.67v-5.44-1.64l-1.27-1.27z"/><path d="m12.69 39.28v-1.89-4.11l-1.88-1.87-.66.66v5.57 1.39l1.39 1.39z"/></g><g><path d="m29.29 33.08 1.88-1.87-.67-.67h-6.84l-.67.67 1.87 1.87z"/><path d="m24.66 43.45v-1.89l-1.14-1.14-1.39 1.39v1.4 5.56l.66.67 1.87-1.87z"/><path d="m31.37 31.41-1.88 1.87v4.23 1.64l1.27 1.27 1.27-1.27v-1.64-5.44z"/><path d="m24.86 47.77-1.87 1.87.67.66h6.84l.67-.66-1.88-1.87z"/><path d="m29.49 41.69v1.64 4.24l1.88 1.87.66-.67v-5.44-1.64l-1.27-1.27z"/><path d="m24.66 39.28v-1.89-4.11l-1.87-1.87-.66.66v5.57 1.39l1.39 1.39z"/></g></g><g><g><path d="m46.5 33.08 1.87-1.87-.66-.67h-6.84l-.67.67 1.87 1.87z"/><path d="m41.87 43.45v-1.89l-1.14-1.14-1.39 1.39v1.4 5.56l.66.67 1.87-1.87z"/><path d="m48.57 31.41-1.87 1.87v4.23 1.64l1.27 1.27 1.27-1.27v-1.64-5.44z"/><path d="m42.07 47.77-1.87 1.87.67.66h6.84l.66-.66-1.87-1.87z"/><path d="m46.7 41.69v1.64 4.24l1.87 1.87.67-.67v-5.44-1.64l-1.27-1.27z"/><path d="m41.87 39.28v-1.89-4.11l-1.87-1.87-.66.66v5.57 1.39l1.39 1.39z"/></g><g><path d="m53.85 43.45v-1.89l-1.14-1.14-1.4 1.39v1.4 5.56l.67.67 1.87-1.87z"/><path d="m53.85 39.28v-1.89-4.11l-1.87-1.87-.67.66v5.57 1.39l1.4 1.39z"/></g></g></g><path d="m34.26 47.46h2.85v2.84h-2.85z"/></g></g><g><g><path d="m14.91 9.26h4.79v9.68h-4.79z" fill="#3eb9e3"/></g><g><path d="m44.3 9.26h4.79v9.68h-4.79z" fill="#3eb9e3"/></g></g><g><path d="m.08 5.84h63.84v6.84h-63.84z" fill="#445b69"/></g><g fill="#e5e5e5"><path d="m24.49 9.26c0 3.96-3.22 7.17-7.18 7.17-3.97 0-7.18-3.21-7.18-7.17s3.22-7.17 7.18-7.17c3.96.01 7.18 3.22 7.18 7.17z"/><path d="m53.88 9.26c0 3.96-3.22 7.17-7.18 7.17-3.97 0-7.18-3.21-7.18-7.17s3.22-7.17 7.18-7.17c3.97.01 7.18 3.22 7.18 7.17z"/></g></g></svg>