<svg id="Layer_1" enable-background="new 0 0 64 64" viewBox="0 0 64 64" xmlns="http://www.w3.org/2000/svg"><g><path d="m53.47 63.84h-42.94c-1.66 0-3-1.34-3-3v-9.49h48.94v9.49c0 1.66-1.34 3-3 3z" fill="#506c72"/><path d="m53.47 55.07h-42.94c-1.66 0-3-1.34-3-3v-29.38c0-1.66 1.34-3 3-3h42.94c1.66 0 3 1.34 3 3v29.38c0 1.66-1.34 3-3 3z" fill="#59b5ac"/><ellipse cx="32" cy="36.49" fill="#445b69" rx="10.41" ry="10.38"/><ellipse cx="32" cy="36.49" fill="#324a5e" rx="6.85" ry="6.84"/><g><path d="m32 39.49c-2.29 0-4.15-1.85-4.15-4.14v-27.51h8.29v27.52c.01 2.28-1.85 4.13-4.14 4.13z" fill="#eff3f5"/><g><ellipse cx="32" cy="11.21" fill="#3eb9e3" rx="11.09" ry="11.06"/><path d="m38.48 7.4c0 2.11-2.9 3.81-6.47 3.81-3.58 0-6.47-1.71-6.47-3.81s2.9-3.81 6.47-3.81 6.47 1.71 6.47 3.81z" fill="#59cbef"/><path d="m43.09 11.21c0 .28-.02.57-.05.85-.42-5.72-5.2-10.22-11.04-10.22s-10.62 4.5-11.04 10.21c-.03-.28-.05-.57-.05-.85 0-6.1 4.97-11.05 11.09-11.05s11.09 4.95 11.09 11.06z" fill="#3582a8"/></g></g><g fill="#fbd303"><path d="m52.65 48.87c0 1.26-1.03 2.29-2.29 2.29s-2.29-1.02-2.29-2.29c0-1.26 1.03-2.29 2.29-2.29s2.29 1.03 2.29 2.29z"/><path d="m45.62 48.87c0 1.26-1.03 2.29-2.29 2.29s-2.29-1.02-2.29-2.29c0-1.26 1.03-2.29 2.29-2.29s2.29 1.03 2.29 2.29z"/></g></g></svg>