<svg id="Layer_1" enable-background="new 0 0 64 64" viewBox="0 0 64 64" xmlns="http://www.w3.org/2000/svg"><g><path d="m39.22.97c-.06.99-.43 2.82-1.57 4.71-.76 1.26-1.91 2.61-3.61 3.93-.6.48-1.28.94-2.03 1.4-.75-.46-1.43-.92-2.03-1.4-1.7-1.32-2.85-2.67-3.61-3.93-1.14-1.89-1.51-3.73-1.56-4.71-.02 0 7.19 3.77 14.41 0z" fill="#506c72"/><path d="m24.79.97c.55-.36 1.03-.39 1.59-.81 3.03 1.53 7.88 1.68 11.23 0 .56.42 1.05.46 1.6.81-7.21 3.77-14.42 0-14.42 0z" fill="#eff3f5"/><g><path d="m61.08 23.34c-.29 3.15-5.43 6.16-9.74 5.57-.31-.16-.58-.36-.8-.58 6.28-1.48 9.03-4.5 9.99-5.86.17.29.35.58.55.87z" fill="#324a5e"/><path d="m60.53 22.48c-.96 1.36-3.71 4.37-9.99 5.86-.13-.11-.24-.23-.33-.37-.4-.51-.68-1.13-.87-1.83-.34-1.29-1.04-2.21-2.05-2.81 0 0 0 0 0-.01-.07-.88-.12-4.33 1.92-9.85 1.12-3.03 1.57-6.47 1.75-9.01 1.67.99 2.91 2.31 4.05 3.93 1.21 1.73 2.01 3.71 2.51 5.76.72 2.97 1.31 5.35 2.81 7.99.07.11.14.23.2.34z" fill="#445b69"/><path d="m13.46 28.34c-.22.23-.49.42-.8.58-4.31.58-9.44-2.42-9.74-5.57.2-.29.38-.58.55-.86.96 1.35 3.7 4.36 9.99 5.85z" fill="#324a5e"/></g><path d="m49.22 13.47c-2.04 5.53-1.99 8.97-1.92 9.85h-.01c-.53 10.67-.11 24.03.68 38.23-.88.25-1.76.48-2.64.69-1.2.3-2.42.54-3.62.75-1.35.24-2.7.43-4.05.56-1.2.12-2.41.21-3.61.25-1.35.05-2.71.05-4.06 0-1.2-.05-2.41-.13-3.61-.25-1.35-.13-2.7-.32-4.05-.56-1.2-.21-2.42-.45-3.62-.75-.88-.21-1.76-.43-2.64-.69.8-14.2 1.2-27.56.68-38.23h-.05c.07-.88.12-4.33-1.92-9.85-1.12-3.03-1.57-6.47-1.75-9.01 1.48-.88 3.28-1.48 5.64-1.8.28-.04.56-.07.87-.1 1.12-.1 2.01-.25 2.76-.46.23-.07.44-.13.64-.2.74-.26 1.33-.57 1.85-.93.06.99.42 2.82 1.56 4.71.76 1.26 1.91 2.61 3.61 3.93.6.48 1.28.94 2.03 1.4.75-.46 1.43-.92 2.03-1.4 1.7-1.32 2.85-2.67 3.61-3.93 1.14-1.89 1.51-3.73 1.57-4.71.53.36 1.1.67 1.84.93.2.07.41.13.64.2.74.21 1.64.36 2.77.46.29.03.58.07.86.1 2.36.32 4.17.92 5.64 1.8-.16 2.55-.61 5.98-1.73 9.01z" fill="#eff3f5"/><g><path d="m41.06 1.9c-.38 3.12-1.81 5.56-3.41 7.39-1.22 1.38-2.55 2.4-3.61 3.11-1.19.77-2.04 1.14-2.04 1.14s-.85-.37-2.03-1.14c-1.06-.7-2.39-1.73-3.61-3.11-1.61-1.82-3.04-4.26-3.41-7.39.74-.26 1.33-.57 1.85-.93.06.99.42 2.82 1.56 4.71.76 1.26 1.91 2.61 3.61 3.93.6.48 1.28.94 2.03 1.4.75-.46 1.43-.92 2.03-1.4 1.7-1.32 2.85-2.67 3.61-3.93 1.14-1.89 1.51-3.73 1.57-4.71.53.36 1.11.67 1.85.93z" fill="#324a5e"/></g><g fill="#506c72"><path d="m45.32 2.66v59.58c-1.2.3-2.42.54-3.62.75v-60.89c.74.21 1.64.36 2.77.46.29.03.58.06.85.1z"/><path d="m37.64 9.29v54.27c-1.2.12-2.41.21-3.61.25v-51.42c1.06-.7 2.39-1.73 3.61-3.1z"/><path d="m29.97 12.39v51.42c-1.2-.05-2.41-.13-3.61-.25v-54.27c1.22 1.37 2.54 2.4 3.61 3.1z"/><path d="m22.3 2.1v60.9c-1.2-.21-2.42-.45-3.62-.75v-59.59c.28-.04.56-.07.87-.1 1.11-.11 2.01-.26 2.75-.46z"/></g><path d="m39.64 1.26c-7.22 3.77-15.3 0-15.3 0 .55-.36 1.49-.68 2.04-1.1 3.03 1.53 7.88 1.68 11.23 0 .57.42 1.49.74 2.03 1.1z" fill="#324a5e"/><g><path d="m16.7 23.32c-1.01.61-1.71 1.52-2.05 2.82-.19.7-.46 1.32-.87 1.83-.08.13-.2.25-.33.37-6.28-1.48-9.03-4.5-9.99-5.86.07-.11.13-.23.2-.34 1.51-2.64 2.1-5.01 2.81-7.99.5-2.06 1.3-4.04 2.51-5.76 1.14-1.62 2.38-2.95 4.05-3.93.18 2.54.63 5.98 1.75 9.01 2.05 5.53 1.99 8.97 1.92 9.85z" fill="#445b69"/></g></g></svg>