<svg id="Layer_1" enable-background="new 0 0 64 64" viewBox="0 0 64 64" xmlns="http://www.w3.org/2000/svg"><g><path d="m16.97.16h21.9v29.03h-21.9z" fill="#d44231"/><path d="m46.24 36.79c-4.14 7.52-7.6 14.89-9.25 22.11h-13.03c.42-1.74.54-3.63.19-5.76-.61-2.48-.51-4.64.29-6.49-.29-1.86-.39-3.78-.31-5.75.06-1.67.24-3.37.52-5.09.53-3.48.41-5.62 0-7.34-.05-.14-.11-.28-.16-.42-.03-.07-.05-.15-.08-.23-.88-2.6-1.21-6.51-.82-9.33.04-.23.13-.46.26-.67.7-1.15 2.62-1.75 4.21-.31.12.18.24.36.36.55 1.32 2.03 2.42 4.21 2.37 7.11-.07.93-.06 1.82.07 2.64.07.47.18.92.33 1.34h7.69l-.03-1.34.03-5.34c1.08.48 2.19 1.35 3.14 3.27 1.07 1.93 2.2 3.45 3.46 4.42 1.64 1.47 2.12 3.56.76 6.63z" fill="#fcd985"/><path d="m25.92 31.25-1.8 9.65c-1.73.55-2.55.14-2.75-.88v-.01c-.14-.66-.03-1.57.24-2.63-.03-.01-.06-.02-.09-.03-.97-.37-1.22-1.09-.91-2.09.22-.68.71-1.51 1.44-2.43.23-.3.48-.61.75-.93-1.3-.35-1.68-1.32-1.42-2.72h4.19z" fill="#fcd985"/><g fill="#eff3f5"><path d="m28.49 20.62c-.07.42-.57.6-.57.6-.86.25-1.79.4-2.77.46-.63.07-.81-.35-.81-.35-.37-.94-.48-2.49-.49-3.5.7-1.15 2.62-1.75 4.21-.31.12.18.24.36.36.55.12.91.16 1.78.07 2.55z"/><path d="m22.3 34.97c-.51.32-1.06.3-1.67.29.22-.68.71-1.51 1.44-2.43 1.16.46 1.19 1.49.23 2.14z"/><path d="m23.28 38.59c-.13.28-1.44 1.13-1.9 1.42-.14-.66-.03-1.57.24-2.63-.03-.01-.06-.02-.09-.03h1.8c.01-.01.1.91-.05 1.24z"/></g><g fill="#e5c06e"><path d="m22.81 31.89s1.74.68 2.49-.53c0 0-.7.73-2.49.53z"/><path d="m21.49 37.33s2.69.36 3.33-1.53c0 0-.07 2.39-3.33 1.53z"/></g><g fill="#e5c06e"><g><path d="m36.15 29.18h.4c-.79.84-1.15 1.81-1.28 2.22-.02.06-.03.11-.04.15.01-.05.02-.1.03-.15.16-.96.49-1.68.89-2.22z"/><path d="m40.79 27.78c-.73-.09-1.37-.04-1.93.09v-.17c1.07-.14 1.93.08 1.93.08z"/><path d="m32.9 32.32c-.12.05 2.81-2.03 7.89-.73 0 0-3.95-.75-7.89.73z"/></g><path d="m31.1 29.18s3.16 5.08 4.26 6.92c-.01.01-1.36-4.14-4.26-6.92z"/></g><path d="m38.12 63.84h-14.28c-.57 0-1.03-.46-1.03-1.03v-6.09c0-.57.46-1.03 1.03-1.03h14.28c.57 0 1.03.46 1.03 1.03v6.09c0 .57-.46 1.03-1.03 1.03z" fill="#445b69"/></g></svg>