<svg id="Layer_1" enable-background="new 0 0 64 64" viewBox="0 0 64 64" xmlns="http://www.w3.org/2000/svg"><g><path d="m61.41 63.34h-58.82c-1.39 0-2.52-1.13-2.52-2.52v-57.64c0-1.39 1.13-2.52 2.52-2.52h58.81c1.39 0 2.52 1.13 2.52 2.52v57.64c0 1.39-1.12 2.52-2.51 2.52z" fill="#445b69"/><path d="m10.67.45h42.66v53.46h-42.66z" fill="#59b5ac" transform="matrix(0 1 -1 0 59.177 -4.823)"/><g><g><g><g><path d="m47.94 54.61c-.95 0-1.73-.77-1.73-1.72s.77-1.72 1.73-1.72c.95 0 1.73.77 1.73 1.72s-.78 1.72-1.73 1.72z" fill="#324a5e"/><path d="m49.29 52.89c0 .74-.6 1.35-1.35 1.35s-1.35-.6-1.35-1.35c0-.74.6-1.35 1.35-1.35.75.01 1.35.61 1.35 1.35z" fill="#f1f3f7"/><path d="m47.94 60.67c-.95 0-1.73-.77-1.73-1.72s.77-1.72 1.73-1.72c.95 0 1.73.77 1.73 1.72s-.78 1.72-1.73 1.72z" fill="#324a5e"/><path d="m49.29 58.95c0 .74-.6 1.35-1.35 1.35s-1.35-.6-1.35-1.35c0-.74.6-1.35 1.35-1.35s1.35.61 1.35 1.35z" fill="#f0582f"/></g><g><path d="m44.9 57.64c-.95 0-1.73-.77-1.73-1.72s.77-1.72 1.73-1.72c.95 0 1.73.77 1.73 1.72s-.77 1.72-1.73 1.72z" fill="#324a5e"/><path d="m44.9 54.58c.75 0 1.35.6 1.35 1.35 0 .74-.6 1.35-1.35 1.35s-1.35-.6-1.35-1.35.61-1.35 1.35-1.35z" fill="#0090ff"/><path d="m50.98 57.64c-.95 0-1.73-.77-1.73-1.72s.77-1.72 1.73-1.72c.95 0 1.73.77 1.73 1.72-.01.95-.78 1.72-1.73 1.72z" fill="#324a5e"/><path d="m50.98 54.58c.75 0 1.35.6 1.35 1.35 0 .74-.6 1.35-1.35 1.35s-1.35-.6-1.35-1.35.6-1.35 1.35-1.35z" fill="#fbd303"/></g></g></g><g><g><path d="m20.48 54.4h-2.89v-2.89c0-.19-.15-.34-.34-.34h-2.39c-.19 0-.34.15-.34.34v2.89h-2.89c-.19 0-.34.15-.34.34v2.38c0 .19.15.34.34.34h2.89v2.89c0 .19.15.34.34.34h2.39c.19 0 .34-.15.34-.34v-2.89h2.89c.19 0 .34-.15.34-.34v-2.38c0-.19-.15-.34-.34-.34z" fill="#fff"/><g><g><path d="m16.9 53.76-.84.64-.84-.64v-1.36h1.68z" fill="#5ac8ae"/><path d="m16.06 51.51-.51.58h1.02z" fill="#54af97"/></g><g><path d="m16.9 58.08-.84-.63-.84.63v1.36h1.68z" fill="#5ac8ae"/><path d="m16.06 60.33-.51-.58h1.02z" fill="#54af97"/></g></g><g><g><path d="m13.89 56.76.64-.84-.64-.83h-1.36v1.67z" fill="#e2431e"/><path d="m11.64 55.92.58-.51v1.02z" fill="#d44231"/></g><g><path d="m18.23 56.76-.64-.84.64-.83h1.36v1.67z" fill="#e2431e"/><path d="m20.48 55.92-.58-.51v1.02z" fill="#d44231"/></g></g><path d="m16.9 55.92c0 .46-.37.83-.84.83-.46 0-.84-.37-.84-.83s.37-.83.84-.83c.46 0 .84.37.84.83z" fill="#dededf"/></g></g></g><g><g><g><path d="m27.72 28.24-6.16 4.61v4.43l7.09-2.91z" fill="#dededf"/><g><path d="m20.63 31.11h1.08v6.31h-1.08z" fill="#445b69"/></g><g><g><path d="m20.63 25.55h1.08v3.02h-1.08z" fill="#eff3f5"/></g><g><path d="m20.63 21.49h1.08v3.02h-1.08z" fill="#eff3f5"/></g><g><path d="m20.63 17.42h1.08v3.02h-1.08z" fill="#eff3f5"/></g><g><path d="m20.63 13.35h1.08v3.02h-1.08z" fill="#eff3f5"/></g></g></g><g><path d="m36.28 28.24 6.16 4.61v4.43l-7.09-2.91z" fill="#dededf"/><g><path d="m42.29 31.11h1.08v6.31h-1.08z" fill="#445b69"/></g><g><g><path d="m42.29 25.55h1.08v3.02h-1.08z" fill="#eff3f5"/></g><g><path d="m42.29 21.49h1.08v3.02h-1.08z" fill="#eff3f5"/></g><g><path d="m42.29 17.42h1.08v3.02h-1.08z" fill="#eff3f5"/></g><g><path d="m42.29 13.35h1.08v3.02h-1.08z" fill="#eff3f5"/></g></g></g></g><g><g><path d="m31.99 10.27c-.4.38-2.65 2.26-4.06 5.94h8.14c-1.41-3.72-3.69-5.56-4.08-5.94z" fill="#324a5e"/><g><path d="m29.7 37.63h4.6c.14-.24.28-.51.41-.79h-5.42c.13.28.27.55.41.79z" fill="#445b69"/><path d="m36.08 16.21h-8.14c-.66 1.74-1.14 3.88-1.14 6.46 0 5.33.97 10.96 2.49 14.17h5.42c1.52-3.21 2.49-8.83 2.49-14.17 0-2.59-.47-4.73-1.12-6.46z" fill="#eff3f5"/></g><g><ellipse cx="32" cy="23.03" fill="#445b69" rx="3.41" ry="3.4"/><path d="m34.36 23.03c0 1.3-1.06 2.36-2.36 2.36-.08 0-.15-.01-.23-.01-.2-.02-.39-.06-.57-.13-.17-.06-.32-.13-.46-.23-.14-.08-.28-.19-.39-.3-.14-.14-.27-.29-.37-.46-.19-.29-.3-.64-.34-1-.01-.07-.01-.15-.01-.22 0-1.3 1.06-2.36 2.37-2.36.07 0 .15.01.22.01.37.03.71.15 1 .34.17.1.33.22.47.36.12.12.22.25.3.39.09.14.17.29.23.46.07.18.11.37.13.57.01.07.01.15.01.22z" fill="#59cbef"/></g><g><path d="m30.65 37.63c-2.36 1.79.2 4.51 1.35 6.45 1.16-1.94 3.72-4.67 1.35-6.45z" fill="#d44231"/><path d="m31.16 37.63c-1.47 1.11.12 2.81.84 4.02.72-1.21 2.31-2.9.84-4.02z" fill="#f0582f"/></g></g></g></g></g></svg>