<svg id="Layer_1" enable-background="new 0 0 64 64" viewBox="0 0 64 64" xmlns="http://www.w3.org/2000/svg"><g><g><path d="m46.75 45.16h-29.5c0-2.44 1.98-4.42 4.43-4.42h20.64c2.44 0 4.43 1.98 4.43 4.42z" fill="#dededf"/><path d="m28.29 11.17h7.41v29.57h-7.41z" fill="#445b69"/><path d="m28.29 20.19h7.41v5.23h-7.41z" fill="#293b4e"/><g><path d="m43.04 11.17c0 6.08-4.94 11.02-11.04 11.02s-11.04-4.93-11.04-11.02c0-6.08 4.94-11.01 11.04-11.01s11.04 4.93 11.04 11.01z" fill="#3eb9e3"/><path d="m38.45 7.37c0 2.1-2.89 3.8-6.45 3.8s-6.45-1.7-6.45-3.8 2.89-3.8 6.45-3.8c3.56.01 6.45 1.71 6.45 3.8z" fill="#59cbef"/><path d="m43.04 11.17c0 .28-.02.56-.05.84-.42-5.69-5.18-10.18-10.99-10.18s-10.58 4.49-11 10.18c-.03-.28-.05-.56-.05-.84 0-6.08 4.95-11 11.05-11 6.09-.01 11.04 4.92 11.04 11z" fill="#3582a8"/></g></g><g><path d="m60.77 63.84h-57.55v-10.29c0-3.61 2.93-6.54 6.54-6.54h44.47c3.61 0 6.54 2.93 6.54 6.54z" fill="#687d87"/><path d="m60.78 51.66v1.86c0-3.59-2.92-6.51-6.52-6.51h-44.51c-3.61 0-6.52 2.92-6.52 6.51v-1.86c0-3.59 2.91-6.5 6.52-6.5h44.5c3.6 0 6.53 2.91 6.53 6.5z" fill="#59b5ac"/><g fill="#eff3f5"><ellipse cx="12" cy="53.57" rx="2.31" ry="2.3"/><ellipse cx="17.87" cy="53.57" rx="2.31" ry="2.3"/><path d="m26.05 53.57c0 1.27-1.03 2.3-2.31 2.3s-2.31-1.03-2.31-2.3 1.03-2.3 2.31-2.3c1.27 0 2.31 1.03 2.31 2.3z"/></g></g></g></svg>