<svg id="Layer_1" enable-background="new 0 0 64 64" viewBox="0 0 64 64" xmlns="http://www.w3.org/2000/svg"><g><path d="m53.3 59.24h-42.6l2.76-31.18h37.08z" fill="#efb971"/><path d="m45.76 11.81v16.25h-27.52v-16.25h5.5v4.54h5.51v-4.54h5.5v4.54h5.51v-4.54z" fill="#ffc67e"/><g><path d="m39.8 59.24h-15.6v-13.14c0-4.31 3.49-7.8 7.8-7.8 4.31 0 7.8 3.49 7.8 7.8z" fill="#445b69"/><path d="m39.8 46.08v2.43c0-2.15-.87-4.09-2.28-5.5s-3.36-2.28-5.51-2.28c-4.31 0-7.8 3.48-7.8 7.78v-2.43c0-4.3 3.49-7.78 7.8-7.78 2.16 0 4.1.87 5.51 2.28 1.4 1.41 2.28 3.36 2.28 5.5z" fill="#293b4e"/></g><g><g><path d="m25.46 25.18h-4.43v-3.74c0-1.22.99-2.21 2.22-2.21 1.22 0 2.22.99 2.22 2.21v3.74z" fill="#445b69"/><path d="m25.46 21.44v.69c0-.61-.25-1.16-.65-1.56s-.95-.65-1.57-.65c-1.22 0-2.22.99-2.22 2.21v-.69c0-1.22.99-2.21 2.22-2.21.61 0 1.17.25 1.57.65s.65.95.65 1.56z" fill="#293b4e"/></g><g><path d="m34.22 25.18h-4.43v-3.74c0-1.22.99-2.21 2.22-2.21 1.22 0 2.22.99 2.22 2.21v3.74z" fill="#445b69"/><path d="m34.22 21.44v.69c0-.61-.25-1.16-.65-1.56s-.95-.65-1.57-.65c-1.22 0-2.22.99-2.22 2.21v-.69c0-1.22.99-2.21 2.22-2.21.61 0 1.17.25 1.57.65s.65.95.65 1.56z" fill="#293b4e"/></g><g><path d="m42.98 25.18h-4.43v-3.74c0-1.22.99-2.21 2.22-2.21 1.22 0 2.22.99 2.22 2.21v3.74z" fill="#445b69"/><path d="m42.98 21.44v.69c0-.61-.25-1.16-.65-1.56s-.95-.65-1.57-.65c-1.22 0-2.22.99-2.22 2.21v-.69c0-1.22.99-2.21 2.22-2.21.61 0 1.17.25 1.57.65s.65.95.65 1.56z" fill="#293b4e"/></g></g><path d="m7.17 59.24h49.66v4.61h-49.66z" fill="#e49a60"/><g><path d="m44.09 4.03-12.86-3.87v7.74z" fill="#d44231"/><g><path d="m31.09.16h1.83v11.65h-1.83z" fill="#e5e5e5"/></g></g></g></svg>