<svg id="Layer_1" enable-background="new 0 0 64 64" viewBox="0 0 64 64" xmlns="http://www.w3.org/2000/svg"><g><g><path d="m12.27 48.12h51.66v4.92h-51.66z" fill="#324a5e"/><g><g><g><g><path d="m25.45 41.2v18.53c0 1.13-.92 2.06-2.06 2.06-.28 0-.56-.05-.8-.16-.74-.31-1.26-1.04-1.26-1.89v-18.54c0-1.13.93-2.06 2.06-2.06.47 0 .89.16 1.24.41.5.38.82.98.82 1.65z" fill="#59b5ac"/></g><g><path d="m25.85 41.43v18.53c0 1.14-.93 2.06-2.06 2.06-.45 0-.87-.14-1.21-.39.25.11.52.16.8.16 1.14 0 2.06-.93 2.06-2.06v-18.53c0-.67-.32-1.27-.82-1.65.73.32 1.23 1.04 1.23 1.88z" fill="#687d87"/></g></g><g><g><g><path d="m20.92 41.2v18.53c0 1.14-.92 2.06-2.06 2.06-.27 0-.54-.05-.78-.15-.75-.31-1.28-1.04-1.28-1.91v-18.53c0-1.14.93-2.06 2.06-2.06.45 0 .87.14 1.2.39.01 0 .01.01.02.01.51.38.84.98.84 1.66z" fill="#59b5ac"/></g><g><path d="m21.32 41.43v18.53c0 1.14-.93 2.06-2.06 2.06-.45 0-.85-.14-1.19-.38.24.1.51.15.78.15 1.14 0 2.06-.92 2.06-2.06v-18.53c0-.68-.33-1.28-.84-1.66.74.32 1.25 1.04 1.25 1.89z" fill="#687d87"/></g></g><g><g><path d="m16.39 41.2v18.53c0 1.14-.92 2.06-2.06 2.06-.28 0-.56-.05-.8-.16-.74-.31-1.26-1.04-1.26-1.89v-18.54c0-1.14.93-2.06 2.06-2.06.45 0 .87.14 1.2.39.01 0 .01 0 .01.01.52.37.85.98.85 1.66z" fill="#59b5ac"/></g><g><path d="m16.79 41.43v18.53c0 1.14-.93 2.06-2.06 2.06-.45 0-.87-.14-1.21-.39.25.11.52.16.8.16 1.14 0 2.06-.92 2.06-2.06v-18.53c0-.69-.33-1.29-.85-1.66.75.32 1.26 1.04 1.26 1.89z" fill="#687d87"/></g></g></g></g><g><g><g><path d="m63.52 41.2v18.53c0 1.13-.92 2.06-2.06 2.06-.28 0-.56-.05-.8-.16-.74-.31-1.26-1.04-1.26-1.89v-18.54c0-1.13.93-2.06 2.06-2.06.47 0 .89.16 1.24.41.49.38.82.98.82 1.65z" fill="#59b5ac"/></g><g><path d="m63.92 41.43v18.53c0 1.14-.93 2.06-2.06 2.06-.45 0-.87-.14-1.21-.39.25.11.52.16.8.16 1.14 0 2.06-.93 2.06-2.06v-18.53c0-.67-.32-1.27-.82-1.65.72.32 1.23 1.04 1.23 1.88z" fill="#687d87"/></g></g><g><g><g><path d="m58.99 41.2v18.53c0 1.14-.92 2.06-2.06 2.06-.27 0-.54-.05-.78-.15-.75-.31-1.28-1.04-1.28-1.91v-18.53c0-1.14.93-2.06 2.06-2.06.45 0 .87.14 1.2.39.01 0 .01.01.02.01.51.38.84.98.84 1.66z" fill="#59b5ac"/></g><g><path d="m59.39 41.43v18.53c0 1.14-.93 2.06-2.06 2.06-.45 0-.85-.14-1.19-.38.24.1.51.15.78.15 1.14 0 2.06-.92 2.06-2.06v-18.53c0-.68-.33-1.28-.84-1.66.74.32 1.25 1.04 1.25 1.89z" fill="#687d87"/></g></g><g><g><path d="m54.46 41.2v18.53c0 1.14-.92 2.06-2.06 2.06-.28 0-.56-.05-.8-.16-.74-.31-1.26-1.04-1.26-1.89v-18.54c0-1.14.93-2.06 2.06-2.06.45 0 .87.14 1.2.39.01 0 .01 0 .01.01.52.37.85.98.85 1.66z" fill="#59b5ac"/></g><g><path d="m54.86 41.43v18.53c0 1.14-.93 2.06-2.06 2.06-.45 0-.87-.14-1.21-.39.25.11.52.16.8.16 1.14 0 2.06-.92 2.06-2.06v-18.53c0-.69-.33-1.29-.85-1.66.75.32 1.26 1.04 1.26 1.89z" fill="#687d87"/></g></g></g></g></g></g><g><path d="m5.63 9.25-2.26 4.38 45.95 23.55 2.25-4.37z" fill="#324a5e"/><g><g><g><g><path d="m20.52 9.11-8.49 16.48c-.52 1.01-1.76 1.41-2.78.89-.25-.13-.47-.3-.64-.51-.51-.61-.64-1.5-.25-2.26l8.49-16.48c.52-1.01 1.77-1.41 2.78-.89.42.21.72.55.91.93.28.56.29 1.24-.02 1.84z" fill="#59b5ac"/></g><g><path d="m20.78 9.5-8.49 16.48c-.52 1.01-1.77 1.41-2.78.89-.4-.21-.71-.53-.9-.9.17.21.39.38.64.51 1.01.52 2.26.12 2.78-.89l8.49-16.48c.31-.6.29-1.28.02-1.84.5.61.62 1.48.24 2.23z" fill="#687d87"/></g></g><g><g><g><path d="m16.49 7.05-8.49 16.48c-.52 1.01-1.76 1.41-2.78.89-.24-.13-.46-.3-.63-.49-.52-.62-.66-1.51-.26-2.28l8.49-16.48c.52-1.01 1.77-1.41 2.78-.89.4.2.71.52.89.9.01.01.01.01.02.02.28.55.29 1.24-.02 1.85z" fill="#59b5ac"/></g><g><path d="m16.75 7.43-8.49 16.49c-.52 1.01-1.77 1.41-2.78.89-.4-.2-.69-.52-.88-.88.17.2.38.37.63.49 1.01.52 2.25.12 2.78-.89l8.49-16.48c.31-.6.29-1.29.01-1.86.5.61.63 1.49.24 2.24z" fill="#687d87"/></g></g><g><g><path d="m12.46 4.98-8.49 16.48c-.52 1.01-1.76 1.41-2.78.89-.25-.13-.47-.3-.64-.51-.51-.61-.64-1.5-.25-2.26l8.5-16.48c.52-1.01 1.77-1.41 2.78-.89.4.2.7.52.89.9.01 0 .01.01.01.01.28.56.3 1.25-.02 1.86z" fill="#59b5ac"/></g><g><path d="m12.72 5.37-8.49 16.48c-.52 1.01-1.77 1.41-2.78.89-.4-.21-.71-.53-.9-.9.17.21.39.38.64.51 1.01.52 2.25.12 2.78-.89l8.49-16.48c.31-.61.3-1.3.01-1.86.51.61.64 1.5.25 2.25z" fill="#687d87"/></g></g></g></g><g><g><g><path d="m54.38 26.47-8.49 16.48c-.52 1.01-1.76 1.41-2.78.89-.25-.13-.47-.3-.64-.51-.51-.61-.64-1.5-.25-2.26l8.49-16.48c.52-1.01 1.77-1.41 2.78-.89.42.21.72.55.91.93.27.56.29 1.24-.02 1.84z" fill="#59b5ac"/></g><g><path d="m54.63 26.86-8.49 16.48c-.52 1.01-1.77 1.41-2.78.89-.4-.21-.71-.53-.9-.9.17.21.39.38.64.51 1.01.52 2.26.12 2.78-.89l8.49-16.48c.31-.6.29-1.28.02-1.84.51.61.63 1.48.24 2.23z" fill="#687d87"/></g></g><g><g><g><path d="m50.35 24.4-8.49 16.48c-.52 1.01-1.76 1.41-2.78.89-.24-.13-.46-.3-.63-.49-.53-.62-.66-1.51-.26-2.28l8.49-16.48c.52-1.01 1.77-1.41 2.78-.89.4.2.71.52.89.9.01.01.01.01.02.02.28.56.29 1.25-.02 1.85z" fill="#59b5ac"/></g><g><path d="m50.61 24.79-8.49 16.48c-.52 1.01-1.77 1.41-2.78.89-.4-.2-.69-.52-.88-.88.17.2.38.37.63.49 1.01.52 2.25.12 2.78-.89l8.49-16.48c.31-.6.29-1.29.01-1.86.5.62.63 1.5.24 2.25z" fill="#687d87"/></g></g><g><g><path d="m46.32 22.34-8.49 16.48c-.52 1.01-1.76 1.41-2.78.89-.25-.13-.47-.3-.64-.51-.51-.61-.64-1.5-.25-2.26l8.49-16.48c.52-1.01 1.77-1.41 2.78-.89.4.2.7.52.89.9.01 0 .01.01.01.01.29.56.31 1.25-.01 1.86z" fill="#59b5ac"/></g><g><path d="m46.58 22.72-8.49 16.48c-.52 1.01-1.77 1.41-2.78.89-.4-.21-.71-.53-.9-.9.17.21.39.38.64.51 1.01.52 2.25.12 2.78-.89l8.49-16.48c.31-.61.3-1.3.01-1.86.51.62.64 1.5.25 2.25z" fill="#687d87"/></g></g></g></g></g></g></g></svg>