<svg id="Layer_1" enable-background="new 0 0 64 64" viewBox="0 0 64 64" xmlns="http://www.w3.org/2000/svg"><g><g><path d="m19.86 44.11 1.97 1.96 39.89-41.64 2.2-4.27-4.28 2.2-41.75 39.79z" fill="#dededf"/><path d="m28.66 53.06c.18-.41.37-.83.81-1.16l.1-.08-.02-1.6c1.21-1.23 1.64-2.82 1.28-4.71l-.06-.29-.28.11c-.9.35-1.93.81-2.89 1.96-1.18-.01-2.11-.35-2.76-1-.64-.64-.67-1.23-.83-2.51l1.12-.54-.05-3.39.49-.49.03-.95h-.98l-.5.5-3.4-.05-.54 1.11c-1.28-.16-1.87-.19-2.51-.83-.65-.65-.99-1.57-1-2.75 1.15-.96 1.62-1.99 1.96-2.88l.11-.28-.29-.06c-1.89-.37-3.48.06-4.72 1.28l-1.6-.02-.08.1c-.33.44-.75.63-1.16.81-.47.21-.96.43-1.05 1.04l-.04.26.26.03c.8.08 1.44.35 1.89.8.27.27.48.61.63 1.01.69 1.82 1.63 3.31 2.86 4.54.14.14.29.28.47.45.19.19.27.41.23.61-.11.54-.64 1.23-1.58 2.08-2.44 1.65-4.98 4.39-8.23 8.93-.28.54-.48.98-.64 1.39-1.49-.74-3.3-.46-4.49.72-1.52 1.52-1.52 3.99 0 5.51s4 1.52 5.52 0c1.19-1.19 1.47-2.99.73-4.48.4-.16.86-.37 1.42-.66 4.52-3.22 7.27-5.75 8.9-8.16.87-.97 1.56-1.49 2.11-1.6.19-.04.42.04.64.26.14.15.28.3.42.44 1.25 1.25 2.7 2.16 4.55 2.86.41.15.75.36 1.01.63.45.45.72 1.09.8 1.89l.03.26.26-.04c.64-.09.86-.58 1.07-1.05z" fill="#dd655b"/></g><g><path d="m44.14 44.11-1.97 1.96-39.89-41.64-2.2-4.27 4.28 2.2 41.75 39.79z" fill="#e5e5e5"/><path d="m35.34 53.06c-.18-.41-.37-.83-.81-1.16l-.1-.08.02-1.6c-1.21-1.23-1.64-2.82-1.28-4.71l.06-.29.28.11c.9.35 1.93.81 2.89 1.96 1.18-.01 2.11-.35 2.76-1 .64-.64.67-1.23.83-2.51l-1.12-.54.05-3.39-.49-.49-.03-.95h.98l.5.5 3.4-.05.54 1.11c1.28-.16 1.87-.19 2.51-.83.65-.65.99-1.57 1-2.75-1.15-.96-1.62-1.99-1.96-2.88l-.11-.28.29-.06c1.89-.37 3.48.06 4.72 1.28l1.6-.02.08.1c.33.44.75.63 1.16.81.47.21.96.43 1.05 1.04l.04.26-.26.03c-.8.08-1.44.35-1.89.8-.27.27-.48.61-.63 1.01-.69 1.82-1.63 3.31-2.86 4.54-.14.14-.29.28-.47.45-.19.19-.27.41-.23.61.11.54.64 1.23 1.58 2.08 2.44 1.65 4.98 4.39 8.23 8.93.28.54.48.98.64 1.39 1.49-.74 3.3-.46 4.49.72 1.52 1.52 1.52 3.99 0 5.51s-4 1.52-5.52 0c-1.19-1.19-1.47-2.99-.73-4.48-.4-.16-.86-.37-1.42-.66-4.52-3.22-7.27-5.75-8.9-8.16-.87-.97-1.56-1.49-2.11-1.6-.19-.04-.42.04-.64.26-.14.15-.28.3-.42.44-1.25 1.25-2.7 2.16-4.55 2.86-.41.15-.75.36-1.01.63-.45.45-.72 1.09-.8 1.89l-.03.26-.26-.04c-.64-.09-.86-.58-1.07-1.05z" fill="#dd655b"/></g></g></svg>