<svg id="Layer_1" enable-background="new 0 0 64 64" viewBox="0 0 64 64" xmlns="http://www.w3.org/2000/svg"><g><g><path d="m49.38 17.49c0-9.57-7.78-17.33-17.38-17.33s-17.38 7.76-17.38 17.34c0 6.06 3.12 11.39 7.84 14.49h-.03v6.62h19.13v-6.62h-.03c4.73-3.11 7.85-8.44 7.85-14.5z" fill="#445b69"/><g fill="#eff3f5"><g><ellipse cx="25.23" cy="18.29" rx="4.99" ry="4.98"/><ellipse cx="38.77" cy="18.29" rx="4.99" ry="4.98"/></g><path d="m32 22.59-4.89 8.45h9.78z"/></g><g><g><path d="m24.61 35.54h1.27v3.06h-1.27z" fill="#eff3f5"/></g><g><path d="m27.99 35.54h1.27v3.06h-1.27z" fill="#eff3f5"/></g><g><path d="m31.37 35.54h1.27v3.06h-1.27z" fill="#eff3f5"/></g><g><path d="m34.75 35.54h1.27v3.06h-1.27z" fill="#eff3f5"/></g><g><path d="m38.13 35.54h1.27v3.06h-1.27z" fill="#eff3f5"/></g></g></g><g><path d="m17.93 58.72c-.05-.11-.11-.21-.16-.31l30.8-14.28c.04.11.08.22.13.33.84 1.8 2.99 2.59 4.8 1.75s2.59-2.98 1.75-4.78c-.56-1.21-1.71-1.95-2.95-2.07.71-1.02.88-2.37.32-3.58-.84-1.8-2.99-2.59-4.8-1.75s-2.59 2.98-1.75 4.78c.05.11.11.21.16.31l-30.8 14.28c-.04-.11-.08-.22-.13-.33-.84-1.8-2.99-2.59-4.8-1.75s-2.59 2.98-1.75 4.78c.56 1.21 1.71 1.95 2.95 2.07-.71 1.02-.88 2.37-.32 3.58.84 1.8 2.99 2.59 4.8 1.75 1.81-.83 2.59-2.97 1.75-4.78z" fill="#dededf"/><path d="m46.07 58.72c.05-.11.11-.21.16-.31l-30.8-14.28c-.04.11-.08.22-.13.33-.84 1.8-2.99 2.59-4.8 1.75s-2.59-2.98-1.75-4.78c.56-1.21 1.71-1.95 2.95-2.07-.71-1.02-.88-2.37-.32-3.58.84-1.8 2.99-2.59 4.8-1.75s2.59 2.98 1.75 4.78c-.05.11-.11.21-.16.31l30.8 14.28c.04-.11.08-.22.13-.33.84-1.8 2.99-2.59 4.8-1.75s2.59 2.98 1.75 4.78c-.56 1.21-1.71 1.95-2.95 2.07.71 1.02.88 2.37.32 3.58-.84 1.8-2.99 2.59-4.8 1.75-1.81-.83-2.59-2.97-1.75-4.78z" fill="#eff3f5"/></g></g></svg>