<svg id="Layer_1" enable-background="new 0 0 64 64" viewBox="0 0 64 64" xmlns="http://www.w3.org/2000/svg"><g><g fill="#333842"><path d="m52.47 43.41.61 3.35h3.84l3.36-3.74z"/><path d="m43.72 43.59.6 3.35h4.19l3.01-3.74z"/><path d="m32.16 44-.44 2.99-3.67.55-2.99-2.65z"/><path d="m23.25 44.77-.58 3.01h-3.39l-2.3-3.01z"/><path d="m15.26 44.41-1.03 2.53-3.19-.36-1.61-3.18z"/><path d="m7.8 42.65-.75 2.11c-1.2-.2-2.23-.55-2.92-1.21-.57-.66-.42-1.32-.46-2.21z"/></g><path d="m62.26 23.65c-1.04-2.59-3.87-2.66-5.31-.76-2.58 3.45-5.68 3.52-9.08 1.69-3.98-2.17-7.51-5.1-10.83-8.36l-.32 3.68 13.76 10.87 9.32-4.19z" fill="#324a5e"/><path d="m61.36 42.11-15.27.56c-.68.03-1.36.01-2.04-.08-3.06-.4-7.14 0-11.13.72-.02 0-.03.01-.05.01-9.32 2.18-20.23.88-28.62-2-.43-.15-.83-.3-1.18-.48-.11-.05-.22-.1-.32-.16-.15-.08-.28-.15-.41-.23-.01-.01-.01-.01-.02-.01-.12-.07-.22-.14-.32-.2-.3-.21-.55-.42-.77-.64-.16-.16-.3-.32-.42-.49-.06-.08-.13-.17-.18-.26-.04-.06-.08-.12-.11-.19-.06-.12-.12-.23-.17-.35-.04-.09-.07-.18-.1-.27v-.01c-.03-.08-.05-.15-.06-.23-.01-.03-.01-.05-.02-.08-.02-.07-.03-.15-.05-.22-.25-1.61.71-3.21 2.19-4.02 1.11-.83 5.94-1.73 12.5-4.2.49-.19 1-.38 1.51-.59.77-.3 1.56-.63 2.38-.99.46-.21.94-.41 1.41-.63.72-.33 1.46-.68 2.2-1.06.43-.22.87-.44 1.32-.67.7-.37 1.4-.75 2.11-1.16.41-.23.82-.46 1.23-.71.67-.39 1.35-.81 2.03-1.24.38-.24.76-.5 1.15-.75.65-.43 1.3-.89 1.96-1.36.36-.26.73-.53 1.09-.8 1.28-.97 2.58-2 3.85-3.11 1.34 3.47 6.03 7.98 12.22 11.45 2.65 1.44 5.21.93 7.75-3.55.28-.49.61-.87.97-1.15.14-.12.3-.21.45-.3.06-.04.12-.06.18-.08.06-.03.12-.05.19-.07.12-.05.25-.08.38-.1.06-.02.12-.03.19-.03.04-.01.08-.01.12-.01.08-.01.17-.01.26-.01h.04c.11 0 .22.01.33.02.1.01.2.03.3.05.08.01.15.03.23.05.05.01.08.02.13.03.17.04.34.1.5.17.17.07.32.16.45.28.31.24.54.59.65.98 1.91 7.24 2.52 13.78-1.03 18.17z" fill="#d44231"/><path d="m61.36 42.11c-.36.44-.75.81-1.18 1.02l-14.09.56c-.68.03-1.36.01-2.04-.08-2.75-.35-6.32-.07-9.91.52-.42.06-.85.14-1.27.21-9.32 2.18-20.23.88-28.62-1.99-3.34-1.13-4.4-3.1-4.12-4.85.01.07.03.15.05.22.01.03.01.06.02.08.02.08.04.15.06.23v.01c.03.09.06.18.1.27.05.12.1.23.17.35.03.06.07.12.11.19.05.08.12.17.18.26.12.17.26.33.42.49.23.23.48.44.77.64.1.07.2.14.3.2.01 0 .01.01.02.01.13.08.26.16.41.23.1.06.21.12.32.16.36.18.75.33 1.18.48 8.39 2.88 19.3 4.17 28.62 2 .02 0 .03-.01.05-.01 4-.72 8.07-1.12 11.13-.72.68.08 1.36.1 2.04.08z" fill="#a6422e"/><path d="m61.36 42.11c-.36.44-.75.81-1.18 1.02l-14.09.56c-.68.03-1.36.01-2.04-.08-2.75-.35-6.32-.07-9.91.52-.43-.25-.84-.53-1.22-.82 4-.72 8.07-1.12 11.13-.72.68.08 1.36.1 2.04.08z" fill="#bdbdbe"/><path d="m61.36 42.11-15.27.56c-.68.03-1.36.01-2.04-.08-3.06-.4-7.14 0-11.13.72-2.1-1.64-3.23-3.86-1.61-5.33 2.22-1.92 7.97-3.52 14.86-5.01 4.85-1.29 8.54-4.46 11.22-9.24.15-.31.35-.56.59-.76.14-.12.29-.22.45-.3.06-.04.12-.06.18-.08.06-.03.12-.05.19-.07.12-.05.25-.08.38-.1.06-.02.12-.03.19-.03.04-.01.08-.01.12-.01.08-.01.17-.01.26-.01h.04c.11 0 .22.01.33.02.1.01.2.03.3.05.08.01.15.03.23.05.05.01.08.02.13.03.33.1.65.24.96.45.31.24.54.59.65.98 1.91 7.23 2.52 13.77-1.03 18.16z" fill="#dededf"/><g><g><path d="m37.52 23.23c-.13.18-.32.27-.52.27-.14 0-.26-.05-.38-.12l-4.52-3.26c.36-.26.73-.53 1.09-.8l4.18 3.01c.29.21.36.61.15.9z" fill="#e5e5e5"/></g><g><path d="m33.98 25.04c-.12.17-.32.27-.52.27-.13 0-.26-.04-.37-.12l-4.1-2.96c.38-.24.76-.5 1.15-.75l3.7 2.67c.29.2.36.6.14.89z" fill="#e5e5e5"/></g><g><path d="m29.92 26.31c-.12.18-.32.28-.53.28-.13 0-.25-.03-.37-.11l-3.3-2.29c.41-.23.82-.46 1.23-.71l2.8 1.94c.31.2.38.6.17.89z" fill="#e5e5e5"/></g><g><path d="m25.97 27.7c-.12.18-.33.28-.54.28-.12 0-.25-.04-.35-.11l-2.78-1.85c.43-.22.87-.44 1.32-.67l2.18 1.45c.3.19.37.6.17.9z" fill="#e5e5e5"/></g><g><path d="m22 29.04c-.12.19-.33.3-.54.3-.12 0-.24-.03-.35-.1l-2.42-1.53c.46-.21.94-.41 1.41-.63l1.7 1.08c.3.18.39.58.2.88z" fill="#e5e5e5"/></g><g><path d="m18.32 30.7c-.12.2-.34.3-.55.3-.12 0-.23-.03-.34-.1l-2.63-1.62c.49-.19 1-.38 1.51-.59l1.8 1.11c.31.19.4.59.21.9z" fill="#e5e5e5"/></g></g></g></svg>