<svg id="Layer_1" enable-background="new 0 0 64 64" viewBox="0 0 64 64" xmlns="http://www.w3.org/2000/svg"><g><g><g><g><path d="m39.05 23.59-.75-1.44c10.08-5.21 11.82-13.26 12.12-15.82h-6.7v-1.62h8.38v.81c0 .46-.14 11.39-13.05 18.07z" fill="#f8b517"/></g><g><path d="m24.95 23.59c-12.91-6.68-13.05-17.61-13.05-18.07v-.81h8.38v1.62h-6.7c.27 2.56 1.94 10.56 12.12 15.82z" fill="#f8b517"/></g></g><path d="m32 41.38h-7.01c.02-1.61 1.4-2.4 3.52-3.19 1.17-.53 1.15-1.73.46-2.53-1.45-1.46-1.27-3.18-.35-5.01.34-.97.11-1.88-.61-2.73-6.12-8.29-13.01-12.18-9.23-27.76h13.22 13.22c3.78 15.58-3.11 19.47-9.22 27.77-.71.86-.95 1.76-.61 2.73.91 1.83 1.09 3.54-.35 5.01-.7.8-.71 2 .46 2.53 2.12.78 3.5 1.58 3.52 3.19h-7.02z" fill="#fbd303"/></g><path d="m41.88 45.89h-19.76l1.2-3.73c.15-.46.58-.77 1.06-.77h15.24c.49 0 .92.31 1.06.77z" fill="#506c72"/><path d="m18.46 45.89h27.08v15.71h-27.08z" fill="#324a5e"/><path d="m27.38 43.44h9.23v20.59h-9.23z" fill="#fbd984" transform="matrix(0 1 -1 0 85.739 21.739)"/><path d="m15.67 61.59h32.66v2.25h-32.66z" fill="#333842"/></g></svg>