<svg id="Icon" enable-background="new 0 0 100 100" height="512" viewBox="0 0 100 100" width="512" xmlns="http://www.w3.org/2000/svg"><path id="Edit" d="m75 50h6v22c0 4.962-4.038 9-9 9h-44c-4.962 0-9-4.038-9-9v-44c0-4.962 4.038-9 9-9h22v6h-22c-1.654 0-3 1.346-3 3v44c0 1.654 1.346 3 3 3h44c1.654 0 3-1.346 3-3zm-39.121-.121 29-29c1.91-1.91 4.306-2.879 7.121-2.879 2.749 0 5.127.985 7.071 2.929s2.929 4.322 2.929 7.071c0 2.815-.969 5.211-2.879 7.121l-29 29c-.562.563-1.326.879-2.121.879h-10c-1.657 0-3-1.343-3-3v-10c0-.795.316-1.559.879-2.121zm33.242-24.758-2.879 2.879 5.758 5.758 2.879-2.879c.786-.786 1.121-1.647 1.121-2.879 0-1.161-.351-2.007-1.171-2.829-.822-.82-1.668-1.171-2.829-1.171-1.232 0-2.093.335-2.879 1.121zm-28.121 33.879h5.757l21-21-5.757-5.758-21 21z"/></svg>