<svg id="Layer_1" enable-background="new 0 0 512 512" height="512" viewBox="0 0 512 512" width="512" xmlns="http://www.w3.org/2000/svg"><g clip-rule="evenodd" fill-rule="evenodd"><circle cx="417.75" cy="417.75" fill="#ff5d5d" r="78.25"/><ellipse cx="417.75" cy="408.71" fill="#f9d0b4" rx="28.16" ry="28.16" transform="matrix(.993 -.122 .122 .993 -46.808 54.105)"/><path d="m467.92 477.8c-28.97 24.26-71.37 24.26-100.34 0 2.81-21.5 21.27-38.19 43.51-38.19h13.31c22.25 0 40.72 16.69 43.52 38.19z" fill="#89df8f"/><circle cx="94.25" cy="94.25" fill="#ffb54c" r="78.25"/><ellipse cx="94.25" cy="85.21" fill="#f9d0b4" rx="28.16" ry="28.16" transform="matrix(.23 -.973 .973 .23 -10.334 157.354)"/><path d="m144.41 154.29c-28.97 24.26-71.37 24.26-100.34 0 2.81-21.5 21.27-38.19 43.51-38.19h13.31c22.25 0 40.72 16.69 43.52 38.19z" fill="#dc72a9"/><circle cx="417.75" cy="94.25" fill="#89df8f" r="78.25"/><ellipse cx="417.75" cy="85.21" fill="#f9d0b4" rx="28.16" ry="28.16" transform="matrix(.987 -.16 .16 .987 -8.254 68.017)"/><path d="m467.92 154.29c-28.97 24.26-71.37 24.26-100.34 0 2.81-21.5 21.27-38.19 43.51-38.19h13.31c22.25 0 40.72 16.69 43.52 38.19z" fill="#ff5d5d"/><circle cx="94.25" cy="417.75" fill="#2fb1d4" r="78.25"/><ellipse cx="94.25" cy="408.71" fill="#f9d0b4" rx="28.16" ry="28.16" transform="matrix(.083 -.997 .997 .083 -320.85 468.928)"/><path d="m144.41 477.8c-28.97 24.26-71.37 24.26-100.34 0 2.81-21.5 21.27-38.19 43.51-38.19h13.31c22.25 0 40.72 16.69 43.52 38.19z" fill="#ffb54c"/><path d="m316.14 169.52c2.26-1.87 5.65-1.64 7.76.47l18.12 18.12c2.15 2.15 2.23 5.51.36 7.86-4.1 5.16-4.77 11.83-1.79 17.71 2.04 4.03 3.8 8.22 5.25 12.54 2.11 6.27 7.36 10.47 13.94 11.15 2.87.3 5.05 2.86 5.05 5.81v25.62c0 3.02-2.3 5.41-5.26 5.81-6.43.87-11.47 5.06-13.48 11.23-1.45 4.44-3.22 8.73-5.28 12.86-2.92 5.84-2.26 12.41 1.77 17.55 1.77 2.26 1.52 5.57-.56 7.64l-18.12 18.12c-2.11 2.11-5.44 2.28-7.75.46-5.15-4.06-11.77-4.73-17.63-1.78-4.07 2.05-8.32 3.82-12.7 5.27-6.22 2.06-10.42 7.21-11.19 13.72-.35 2.92-2.82 5.15-5.8 5.15h-25.62c-2.98 0-5.46-2.23-5.8-5.15-.77-6.51-4.97-11.66-11.19-13.72-4.39-1.45-8.63-3.22-12.7-5.27-5.86-2.95-12.48-2.28-17.63 1.78-2.31 1.82-5.64 1.65-7.75-.46l-18.12-18.12c-2.11-2.11-2.28-5.44-.46-7.75 4.06-5.15 4.73-11.77 1.78-17.63-2.05-4.07-3.82-8.32-5.27-12.7-2.06-6.22-7.21-10.42-13.72-11.19-2.92-.35-5.15-2.82-5.15-5.8v-25.62c0-2.98 2.23-5.46 5.15-5.8 6.51-.77 11.66-4.97 13.72-11.19 1.45-4.38 3.22-8.63 5.27-12.7 2.95-5.86 2.28-12.48-1.78-17.63-1.82-2.31-1.65-5.64.46-7.75l18.12-18.12c2.11-2.11 5.44-2.28 7.75-.46 5.15 4.06 11.77 4.73 17.63 1.78 4.07-2.05 8.32-3.82 12.7-5.27 6.22-2.06 10.42-7.21 11.19-13.72.35-2.92 2.82-5.15 5.8-5.15h25.62c3.02 0 5.52 2.29 5.82 5.26.66 6.63 4.9 11.94 11.22 14.04 4.27 1.42 8.41 3.13 12.39 5.12 5.96 2.96 12.73 2.18 17.88-2.09z" fill="#fedf30"/><circle cx="256" cy="256" fill="#c9f3ff" r="63.72"/><path d="m256 225.7c12.67 0 22.94 10.27 22.94 22.94s-10.27 22.94-22.94 22.94-22.94-10.27-22.94-22.94 10.27-22.94 22.94-22.94z" fill="#f9d0b4"/><path d="m296.86 304.9c-23.59 19.76-58.12 19.76-81.72 0 2.29-17.51 17.32-31.1 35.44-31.1h10.84c18.11 0 33.15 13.59 35.44 31.1z" fill="#2fb1d4"/><path d="m11.76 260.24c-1.13-1.12-1.76-2.65-1.76-4.24s.63-3.12 1.76-4.24l25.21-25.21c2.34-2.35 6.14-2.35 8.48 0 2.35 2.34 2.35 6.14 0 8.48l-14.96 14.97h57.87c3.31 0 6 2.69 6 6s-2.69 6-6 6h-57.87l14.96 14.97c2.35 2.34 2.35 6.14 0 8.48-1.17 1.18-2.7 1.76-4.24 1.76s-3.07-.58-4.24-1.76zm454.79 16.73 14.96-14.97h-57.87c-3.31 0-6-2.69-6-6s2.69-6 6-6h57.87l-14.96-14.97c-2.35-2.34-2.35-6.14 0-8.48 2.34-2.35 6.14-2.35 8.48 0l25.21 25.21c2.35 2.34 2.35 6.14 0 8.48l-25.21 25.21c-1.17 1.17-2.7 1.76-4.24 1.76s-3.07-.59-4.24-1.76c-2.35-2.34-2.35-6.14 0-8.48zm-181.1 189.58c2.35 2.34 2.35 6.14 0 8.48l-25.21 25.21c-1.17 1.17-2.7 1.76-4.24 1.76s-3.07-.59-4.24-1.76l-25.21-25.21c-2.35-2.34-2.35-6.14 0-8.48 2.34-2.35 6.14-2.35 8.48 0l14.97 14.97v-57.88c0-3.31 2.69-6 6-6s6 2.69 6 6v57.87l14.97-14.96c2.34-2.35 6.14-2.35 8.48 0zm-58.9-421.1c-2.35-2.34-2.35-6.14 0-8.48l25.21-25.21c2.34-2.35 6.14-2.34 8.48 0l25.21 25.21c2.35 2.34 2.35 6.14 0 8.48-2.34 2.35-6.14 2.35-8.48 0l-14.97-14.97v57.88c0 3.31-2.69 6-6 6s-6-2.69-6-6v-57.87l-14.97 14.96c-1.17 1.17-2.71 1.76-4.24 1.76-1.54 0-3.07-.59-4.24-1.76zm73.37 247.99c-4.57-10.88-13.59-19.33-24.64-23.25 5.92-5.3 9.66-13 9.66-21.55 0-15.96-12.98-28.94-28.94-28.94s-28.94 12.98-28.94 28.94c0 8.55 3.74 16.25 9.66 21.55-11.05 3.92-20.07 12.37-24.64 23.25-8.92-10.44-13.8-23.56-13.8-37.44 0-15.42 6-29.92 16.9-40.82 11.26-11.25 26.04-16.88 40.82-16.88s29.56 5.63 40.82 16.88c10.9 10.9 16.91 25.4 16.91 40.82 0 13.88-4.89 27-13.81 37.44zm-43.92-27.87c9.34 0 16.94-7.59 16.94-16.93s-7.6-16.94-16.94-16.94-16.94 7.6-16.94 16.94 7.6 16.93 16.94 16.93zm-34.29 36.86c10.15 7.51 22.22 11.27 34.29 11.27s24.14-3.76 34.29-11.26c-3.22-13.11-15.1-22.64-28.87-22.64h-10.84c-13.77 0-25.65 9.53-28.87 22.63zm-15.01-95.73c-13.17 13.17-20.42 30.68-20.42 49.3s7.25 36.13 20.42 49.3c13.59 13.6 31.45 20.39 49.3 20.39s35.71-6.79 49.3-20.39c13.17-13.17 20.43-30.68 20.43-49.3s-7.26-36.13-20.43-49.3c-27.18-27.19-71.42-27.19-98.6 0zm130.98 113.04c-5.26-6.89-6.13-15.95-2.24-23.72 1.93-3.88 3.6-7.93 4.94-12.04 2.75-8.41 9.62-14.13 18.39-15.31.02 0 .04-.01.06-.01v-25.35c-8.73-1.03-15.87-6.82-18.68-15.18-1.35-4.01-3.01-7.96-4.92-11.74-4.02-7.93-3.08-17.18 2.44-24.15l-17.93-17.92c-6.93 5.62-16.18 6.63-24.18 2.63-3.74-1.86-7.64-3.48-11.6-4.79-8.5-2.82-14.35-10.09-15.29-18.99h-25.34c-1.09 8.7-6.92 15.81-15.25 18.57-4.07 1.34-8.07 3-11.9 4.93-7.85 3.95-17 3.05-23.93-2.34l-17.92 17.92c5.39 6.93 6.29 16.08 2.34 23.94-1.93 3.82-3.59 7.82-4.93 11.89-2.77 8.33-9.87 14.16-18.57 15.24v25.36c8.7 1.08 15.8 6.91 18.57 15.24 1.34 4.07 3 8.07 4.93 11.9 3.95 7.85 3.05 17-2.34 23.93l17.92 17.92c6.93-5.39 16.08-6.29 23.94-2.34 3.83 1.93 7.83 3.59 11.89 4.93 8.33 2.77 14.16 9.87 15.25 18.57h25.34c1.09-8.7 6.92-15.81 15.25-18.57 4.06-1.34 8.06-3 11.9-4.93 7.85-3.95 17-3.05 23.93 2.34zm9.62-7.19c-2.61-3.33-3.02-7.39-1.13-11.17 2.2-4.4 4.09-9 5.62-13.67 1.3-3.98 4.43-6.59 8.58-7.15 6.06-.81 10.46-5.76 10.46-11.75v-25.62c0-6.1-4.49-11.17-10.44-11.78-4.27-.44-7.5-3.03-8.87-7.1-1.53-4.56-3.41-9.05-5.59-13.34-1.93-3.82-1.51-7.92 1.14-11.27 3.79-4.78 3.44-11.58-.81-15.84l-18.12-18.11c-4.28-4.29-11.24-4.66-15.83-.85-3.3 2.74-7.56 3.23-11.39 1.31-4.25-2.11-8.68-3.95-13.18-5.44-4.05-1.34-6.72-4.68-7.14-8.93-.6-6.08-5.67-10.67-11.79-10.67h-25.62c-6 0-11.06 4.49-11.76 10.44-.5 4.22-3.1 7.4-7.13 8.74-4.61 1.53-9.16 3.41-13.51 5.6-3.79 1.91-7.88 1.5-11.22-1.13-4.71-3.72-11.46-3.32-15.71.93l-18.12 18.11c-4.24 4.25-4.64 11-.92 15.71 2.63 3.34 3.04 7.43 1.13 11.22-2.19 4.35-4.07 8.9-5.61 13.51-1.33 4.03-4.51 6.63-8.73 7.13-5.95.7-10.44 5.76-10.44 11.76v25.62c0 6 4.49 11.06 10.45 11.76 4.21.5 7.39 3.1 8.73 7.13 1.53 4.62 3.41 9.16 5.6 13.51 1.91 3.79 1.5 7.88-1.14 11.22-3.71 4.71-3.31 11.46.93 15.71l18.12 18.11c4.25 4.25 11 4.65 15.71.93 3.33-2.63 7.43-3.04 11.22-1.13 4.36 2.19 8.9 4.08 13.51 5.61 4.03 1.33 6.63 4.51 7.13 8.73.7 5.95 5.76 10.44 11.76 10.44h25.62c6 0 11.06-4.49 11.76-10.44.5-4.22 3.1-7.4 7.13-8.74 4.61-1.52 9.15-3.41 13.51-5.6 3.79-1.91 7.89-1.5 11.22 1.14 4.71 3.71 11.47 3.31 15.71-.93l18.12-18.12c4.23-4.24 4.68-10.94 1.04-15.59zm-199.57 153.77c-5.43-14.76-17.62-26.12-32.58-30.61 8.06-6.26 13.26-16.03 13.26-27 0-18.83-15.33-34.16-34.16-34.16-18.84 0-34.17 15.33-34.17 34.16 0 10.97 5.2 20.74 13.26 27-14.96 4.49-27.14 15.85-32.58 30.61-12.12-13.32-18.76-30.43-18.76-48.57 0-19.29 7.51-37.44 21.16-51.08 14.08-14.09 32.58-21.13 51.09-21.13 18.5 0 37 7.04 51.08 21.13 13.65 13.64 21.16 31.79 21.16 51.08 0 18.14-6.64 35.25-18.76 48.57zm-53.48-35.44c12.22 0 22.16-9.94 22.16-22.17 0-12.22-9.94-22.16-22.16-22.16-12.23 0-22.17 9.94-22.17 22.16 0 12.23 9.94 22.17 22.17 22.17zm-43.65 44.43c25.71 19.52 61.58 19.52 87.29 0-3.79-17.15-19.14-29.7-36.99-29.7h-13.31c-17.84 0-33.2 12.55-36.99 29.7zm-15.93-117.13c32.85-32.84 86.3-32.84 119.15 0 15.91 15.92 24.67 37.07 24.67 59.57 0 22.51-8.76 43.66-24.67 59.58-16.43 16.42-38 24.63-59.57 24.63-21.58 0-43.15-8.21-59.58-24.64-15.91-15.91-24.67-37.06-24.67-59.57 0-22.5 8.76-43.65 24.67-59.57zm332-315.02c14.08-14.08 32.58-21.13 51.08-21.13s37.01 7.05 51.09 21.13c27.34 27.34 28.14 71.33 2.39 99.65-5.43-14.76-17.61-26.12-32.57-30.61 8.06-6.26 13.26-16.03 13.26-26.99 0-18.84-15.33-34.17-34.17-34.17-18.83 0-34.16 15.33-34.16 34.17 0 10.96 5.2 20.73 13.26 26.99-14.96 4.49-27.14 15.85-32.58 30.61-25.74-28.32-24.94-72.31 2.4-99.65zm51.08 64.21c12.23 0 22.17-9.94 22.17-22.16s-9.94-22.17-22.17-22.17c-12.22 0-22.16 9.95-22.16 22.17s9.94 22.16 22.16 22.16zm-43.64 44.43c12.85 9.76 28.25 14.66 43.64 14.66 15.41 0 30.79-4.9 43.65-14.66-3.79-17.14-19.14-29.7-36.99-29.7h-13.31c-17.85 0-33.2 12.56-36.99 29.7zm43.64 26.65c-21.57 0-43.14-8.21-59.57-24.63-32.84-32.85-32.84-86.3 0-119.14 32.85-32.85 86.3-32.85 119.15 0 32.84 32.84 32.84 86.29 0 119.14-16.43 16.42-38 24.63-59.58 24.63zm-374.59-135.29c13.65-13.65 31.79-21.16 51.09-21.16 19.29 0 37.44 7.51 51.08 21.16 27.34 27.34 28.14 71.33 2.4 99.65-5.44-14.76-17.62-26.12-32.58-30.61 8.06-6.26 13.26-16.03 13.26-26.99 0-18.84-15.33-34.17-34.16-34.17-18.84 0-34.17 15.33-34.17 34.17 0 10.96 5.2 20.73 13.26 26.99-14.96 4.49-27.14 15.85-32.57 30.61-25.75-28.32-24.95-72.31 2.39-99.65zm51.09 64.21c12.22 0 22.16-9.94 22.16-22.16 0-12.23-9.94-22.17-22.16-22.17-12.23 0-22.17 9.94-22.17 22.17 0 12.22 9.94 22.16 22.17 22.16zm-43.65 44.44c12.5 9.52 27.67 14.68 43.65 14.68 15.97 0 31.14-5.16 43.64-14.68-3.78-17.15-19.14-29.71-36.99-29.71h-13.31c-17.85 0-33.2 12.56-36.99 29.71zm43.65 26.68c-22.51 0-43.66-8.76-59.58-24.67-32.84-32.85-32.84-86.3 0-119.15 15.92-15.91 37.07-24.67 59.58-24.67 22.5 0 43.65 8.76 59.57 24.67 32.84 32.85 32.84 86.3 0 119.15-15.92 15.91-37.07 24.67-59.57 24.67zm376.99 287.83c-5.43-14.76-17.62-26.12-32.58-30.61 8.06-6.26 13.26-16.03 13.26-27 0-18.83-15.33-34.16-34.17-34.16-18.83 0-34.16 15.33-34.16 34.16 0 10.97 5.2 20.74 13.26 27-14.96 4.49-27.15 15.85-32.58 30.61-12.12-13.32-18.76-30.43-18.76-48.57 0-19.29 7.51-37.44 21.16-51.08 28.17-28.17 74-28.17 102.17 0 13.65 13.64 21.16 31.79 21.16 51.08 0 18.14-6.64 35.25-18.76 48.57zm-53.49-35.44c12.23 0 22.17-9.94 22.17-22.17 0-12.22-9.94-22.16-22.17-22.16-12.22 0-22.16 9.94-22.16 22.16 0 12.23 9.94 22.17 22.16 22.17zm-43.64 44.43c25.71 19.52 61.58 19.52 87.29 0-3.79-17.15-19.14-29.7-36.99-29.7h-13.31c-17.85 0-33.2 12.55-36.99 29.7zm-15.93-117.13c32.85-32.84 86.3-32.84 119.15 0 15.91 15.92 24.67 37.07 24.67 59.57 0 22.51-8.76 43.66-24.67 59.57-16.43 16.43-38 24.64-59.58 24.64-21.57 0-43.14-8.21-59.57-24.64-15.91-15.91-24.67-37.06-24.67-59.57 0-22.5 8.76-43.65 24.67-59.57z" fill="#222124"/></g></svg>