<svg id="_x31__x2C_5" enable-background="new 0 0 24 24" height="512" viewBox="0 0 24 24" width="512" xmlns="http://www.w3.org/2000/svg"><circle cx="12" cy="12" fill="#2196f3" r="5.3"/><path d="m12 15c-.414 0-.75-.336-.75-.75v-4.5c0-.414.336-.75.75-.75s.75.336.75.75v4.5c0 .414-.336.75-.75.75z"/><path d="m14.25 12.75h-4.5c-.414 0-.75-.336-.75-.75s.336-.75.75-.75h4.5c.414 0 .75.336.75.75s-.336.75-.75.75z"/><path d="m12 18c-3.309 0-6-2.691-6-6s2.691-6 6-6 6 2.691 6 6-2.691 6-6 6zm0-10.5c-2.481 0-4.5 2.019-4.5 4.5s2.019 4.5 4.5 4.5 4.5-2.019 4.5-4.5-2.019-4.5-4.5-4.5z"/><path d="m2.8 24c-.411 0-.745-.33-.75-.742l-.05-4.5c-.002-.2.076-.393.217-.536.14-.142.333-.222.533-.222h4.5c.414 0 .75.336.75.75s-.336.75-.75.75h-3.742l.042 3.742c.005.414-.327.753-.741.758-.003 0-.006 0-.009 0z"/><path d="m21.25 6h-4.5c-.414 0-.75-.336-.75-.75s.336-.75.75-.75h3.75v-3.75c0-.414.336-.75.75-.75s.75.336.75.75v4.5c0 .414-.336.75-.75.75z"/><path d="m1.229 16c-.322 0-.62-.209-.718-.534-.339-1.128-.511-2.294-.511-3.466 0-6.617 5.383-12 12-12 3.69 0 7.108 1.653 9.379 4.536.256.325.2.797-.125 1.053-.324.256-.797.2-1.053-.125-1.985-2.519-4.973-3.964-8.201-3.964-5.79 0-10.5 4.71-10.5 10.5 0 1.025.151 2.046.448 3.034.119.396-.105.815-.502.935-.072.021-.145.031-.217.031z"/><path d="m12 24c-3.69 0-7.108-1.653-9.379-4.536-.256-.325-.2-.797.125-1.053.325-.255.797-.201 1.053.125 1.985 2.519 4.973 3.964 8.201 3.964 5.79 0 10.5-4.71 10.5-10.5 0-1.025-.151-2.046-.448-3.034-.119-.396.105-.815.502-.935.397-.118.815.106.935.502.339 1.129.511 2.295.511 3.467 0 6.617-5.383 12-12 12z"/></svg>