<svg viewBox="0 0 512 512" xmlns="http://www.w3.org/2000/svg"><g id="Layer_2" data-name="Layer 2"><g id="alarm_clock" fill="#32c6fe"><path d="m256 0c-141.38 0-256 114.62-256 256s114.62 256 256 256 256-114.62 256-256-114.62-256-256-256zm155.56 411.56a220 220 0 1 1 -311.12-311.12 220 220 0 1 1 311.12 311.12z"/><path d="m216 162.32a14.31 14.31 0 1 0 -9.27-27.08 145.62 145.62 0 0 0 -84.29 74.9 14.31 14.31 0 1 0 25.81 12.39 116.48 116.48 0 0 1 67.75-60.21z"/><path d="m389.77 214.15a145.58 145.58 0 0 0 -82-77.42 14.31 14.31 0 0 0 -10.09 26.79 116.46 116.46 0 0 1 65.91 62.23 14.31 14.31 0 0 0 26.17-11.6z"/><path d="m255.52 169.09a104.23 104.23 0 1 0 104.22 104.22 104.23 104.23 0 0 0 -104.22-104.22zm48 124.79h-54.52a14.75 14.75 0 0 1 -14.75-14.75v-54.48a14.75 14.75 0 0 1 29.49 0v39.74h39.73a14.75 14.75 0 1 1 0 29.49z"/></g></g></svg>