<svg viewBox="0 0 512 512" xmlns="http://www.w3.org/2000/svg"><g id="Layer_2" data-name="Layer 2"><g id="notification" fill="#32c6fe"><path d="m256 0c-141.38 0-256 114.62-256 256s114.62 256 256 256 256-114.62 256-256-114.62-256-256-256zm155.56 411.56a220 220 0 1 1 -311.12-311.12 220 220 0 1 1 311.12 311.12z"/><path d="m364 329.65-36.4-44.35v-58.4a71.62 71.62 0 0 0 -54.24-69.48v-19.06a17.36 17.36 0 0 0 -17.36-17.36 17.36 17.36 0 0 0 -17.36 17.36v19.06a71.62 71.62 0 0 0 -54.24 69.48v58.4l-36.4 44.35a15.78 15.78 0 0 0 12.2 25.78h55.9a40.13 40.13 0 0 0 39.9 35.57 40.13 40.13 0 0 0 39.86-35.57h55.9a15.78 15.78 0 0 0 12.24-25.78z"/></g></g></svg>