<svg enable-background="new 0 0 64 64" height="512" viewBox="0 0 64 64" width="512" xmlns="http://www.w3.org/2000/svg"><g id="Undo"><path d="m40 19h-26.59l7.29-7.29c.39-.39.39-1.02 0-1.41s-1.02-.39-1.41 0l-9 9c-.39.39-.39 1.02 0 1.41l9 9c.2.19.45.29.71.29s.51-.1.71-.29c.39-.39.39-1.02 0-1.41l-7.3-7.3h26.59c7.17 0 13 5.83 13 13 0 3.46-1.35 6.73-3.81 9.19s-5.73 3.81-9.19 3.81h-12c-.55 0-1 .45-1 1s.45 1 1 1h12c4 0 7.76-1.56 10.61-4.39 2.83-2.85 4.39-6.61 4.39-10.61 0-8.27-6.73-15-15-15z" fill="rgb(0,0,0)"/></g></svg>