<svg id="Layer_1" enable-background="new 0 0 512 512" height="512" viewBox="0 0 512 512" width="512" xmlns="http://www.w3.org/2000/svg"><path d="m423.938 88.062c-44.858-44.858-104.5-69.562-167.938-69.562s-123.08 24.704-167.937 69.562c-44.859 44.858-69.563 104.5-69.563 167.938s24.704 123.08 69.563 167.938c44.857 44.858 104.499 69.562 167.937 69.562s123.08-24.704 167.938-69.562 69.562-104.5 69.562-167.938-24.704-123.08-69.562-167.938zm-167.938 380.438c-117.173 0-212.5-95.327-212.5-212.5s95.327-212.5 212.5-212.5 212.5 95.327 212.5 212.5-95.327 212.5-212.5 212.5zm130.75-212.5c0 39.149-31.851 71-71 71h-178c-6.903 0-12.5-5.597-12.5-12.5s5.597-12.5 12.5-12.5h178c25.364 0 46-20.636 46-46s-20.636-46-46-46h-24.891l17.513 13.538c5.462 4.222 6.467 12.073 2.245 17.535-2.463 3.186-6.161 4.855-9.898 4.855-2.67 0-5.36-.852-7.636-2.611l-46.477-35.927c-3.063-2.367-4.855-6.019-4.855-9.89s1.793-7.522 4.855-9.89l46.477-35.928c5.462-4.221 13.313-3.217 17.534 2.245 4.222 5.462 3.217 13.313-2.245 17.535l-17.513 13.538h24.891c39.149 0 71 31.851 71 71z"/></svg>