<svg id="Capa_1" enable-background="new 0 0 514.314 514.314" height="512" viewBox="0 0 514.314 514.314" width="512" xmlns="http://www.w3.org/2000/svg"><g><path d="m31.157 211v180h46c8.28 0 15 6.72 15 15s-6.72 15-15 15h-61c-8.28 0-15-6.72-15-15v-210c0-8.28 6.72-15 15-15h81v30z" fill="#4ec3ff"/><path d="m513.157 196v210c0 8.28-6.72 15-15 15h-61c-8.28 0-15-6.72-15-15s6.72-15 15-15h46v-180h-67v-30h82c8.28 0 15 6.72 15 15z" fill="#4da4ff"/><path d="m91.95 151.5v99.25c0 7.747 3.139 19.22 18.095 29.884 33.869 24.152 104.559 30.366 147.112 30.366l30-99-30-60.5z" fill="#ebf1ff"/><path d="m257.157 151.5v159.5c42.545 0 113.241-6.212 147.112-30.366 14.956-10.665 18.095-22.138 18.095-29.884v-99.25z" fill="#d9e4ff"/><path d="m96.947 60.5-5 .5v90.5c0 49.94 114.05 60.5 165.21 60.5l20-43.71-20-52.29c-46.578 0-160.21-9.879-160.21-55.5z" fill="#d9e4ff"/><path d="m417.367 60.5c0 45.515-114.096 55.5-160.21 55.5v96c50.34 0 165.21-10.51 165.21-60.5v-90.5z" fill="#bfd5ff"/><path d="m231.527 266.707-12.209-13.636c-2.911-3.251-7.702-4.017-11.481-1.835l-39.402 22.749c-3.779 2.182-5.511 6.714-4.151 10.86l5.705 17.391c6.389 19.478-5.567 40.186-25.63 44.392l-17.914 3.755c-4.271.895-7.33 4.662-7.33 9.025v45.498c0 4.364 3.059 8.13 7.33 9.025l17.918 3.756c20.066 4.206 32.022 24.919 25.628 44.399l-5.706 17.383c-1.361 4.147.371 8.68 4.151 10.862l39.4 22.747c3.78 2.182 8.572 1.416 11.482-1.836l12.205-13.637c6.837-7.639 16.236-11.459 25.634-11.459l27.664-104.311-27.664-103.674c-9.396 0-18.793-3.818-25.63-11.454z" fill="#5a77b2"/><path d="m395.198 359.41c0-4.364-3.06-8.131-7.331-9.026l-17.907-3.75c-20.066-4.202-32.026-24.913-25.636-44.393l5.706-17.396c1.36-4.147-.372-8.678-4.151-10.86l-39.402-22.749c-3.779-2.182-8.57-1.416-11.481 1.835l-12.209 13.636c-6.837 7.636-16.233 11.454-25.63 11.454v207.985c9.398 0 18.797 3.82 25.634 11.459l12.204 13.637c2.911 3.252 7.702 4.018 11.482 1.836l39.399-22.747c3.78-2.182 5.512-6.715 4.151-10.862l-5.707-17.388c-6.395-19.482 5.565-40.197 25.634-44.4l17.912-3.751c4.272-.894 7.331-4.661 7.331-9.026v-45.494z" fill="#4d5b98"/><path d="m216.662 358.738c-12.934 22.403-5.258 51.049 17.144 63.983 7.369 4.254 15.412 6.265 23.35 6.27l18.443-46.714-18.443-46.953c-16.147.039-31.838 8.422-40.494 23.414z" fill="#4d5b98"/><path d="m280.646 341.594c-7.411-4.279-15.505-6.289-23.488-6.27v93.666c16.196.008 31.953-8.38 40.633-23.414 12.933-22.402 5.257-51.048-17.145-63.982z" fill="#33437d"/><path d="m91.95 60.5c0 49.94 114.05 60.5 165.207 60.5l10-60.5-10-60.5c-54.305 0-165.207 11.511-165.207 60.5z" fill="#ebf1ff"/><path d="m257.157 0v121c50.342 0 165.207-10.513 165.207-60.5 0-49.94-114.05-60.5-165.207-60.5z" fill="#d9e4ff"/></g></svg>