<?xml version="1.0" encoding="utf-8"?>
<svg xmlns="http://www.w3.org/2000/svg" height="128" width="128" viewBox="0 0 128 128">
  <g>
    <path id="path1" transform="rotate(0,64,64) translate(18,18) scale(2.875,2.875)  " fill="#FF8B00" d="M15,26.799988C15.400024,26.899994,15.900024,26.899994,16.299988,26.899994L17,26.899994 17,32 15,32z M24.600037,23.199982L28,26.599976 26.600037,28 23.100037,24.5C23.600037,24.099976,24.100037,23.699982,24.600037,23.199982z M7.7000122,22.899994C8.1000366,23.399994,8.6000366,23.899994,9.1000366,24.299988L5.4000244,28 4,26.599976z M27.400024,15L32,15 32,17 27.400024,17C27.5,16.599976 27.5,16.099976 27.5,15.699982 27.5,15.5 27.400024,15.199982 27.400024,15z M0,15L5.1000366,15 5.1000366,15.699982C5.1000366,16.099976,5.1000366,16.599976,5.2000122,17L0,17z M16.299988,7.2999878C21,7.2999878 24.799988,11.099976 24.799988,15.799988 24.799988,20.299988 21.400024,23.899994 17,24.199982L16.900024,24.199982 16.900024,21.599976C19.299988,21.199982,21.100037,19.199982,21.100037,16.699982L21.100037,16 18.799988,16 18.799988,12.299988 17.600037,12.299988 17.600037,16 14.799988,16 14.799988,12.299988 13.600037,12.299988 13.600037,16 11.299988,16 11.299988,16.599976C11.299988,19.099976,13.100037,21.099976,15.5,21.5L15.5,24.099976 15.299988,24.099976C11,23.599976 7.7999878,20 7.7999878,15.699982 7.7999878,11 11.600037,7.2999878 16.299988,7.2999878z M26.600037,4L28,5.3999939 24.799988,8.5999756C24.400024,8.0999756,23.900024,7.5999756,23.400024,7.1999817z M5.4000244,4L8.7999878,7.3999939C8.2999878,7.8999939,7.7999878,8.3999939,7.4000244,8.8999939L4,5.3999939z M15,0L17,0 17,4.5999756 16.299988,4.5999756C15.900024,4.5999756,15.400024,4.5999756,15,4.6999817z" />
  </g>
</svg>