<svg id="Capa_1" enable-background="new 0 0 512 512" height="512" viewBox="0 0 512 512" width="512" xmlns="http://www.w3.org/2000/svg"><g><circle cx="256" cy="256" fill="#f58a97" r="256"/><path d="m256 0c-5.19 0-10.339.173-15.453.478 134.188 7.991 240.548 119.327 240.548 255.522s-106.36 247.531-240.547 255.522c5.113.305 10.262.478 15.452.478 141.385 0 256-114.615 256-256s-114.615-256-256-256z" fill="#f07281"/><g fill="#fff"><g><path d="m168.817 333.652c-.093-.076-42.463-34.786-42.564-34.864-2.871-2.214-6.757-2.474-9.897-.658-3.188 1.843-4.923 5.452-4.338 9.096l8.723 54.158c.612 3.797 3.893 6.499 7.619 6.499 4.696 0 8.407-4.296 7.638-8.956l-1.326-8.232 17.929-10.351 6.424 5.262c3.302 2.704 8.17 2.219 10.873-1.08 2.704-3.302 2.22-8.17-1.081-10.874zm-36.775.718-2.017-12.52 9.799 8.027z"/><path d="m334.685 232.065c-3.069 1.796-6.308 3.682-9.019 5.255l-22.133-38.335c-2.134-3.695-6.861-4.961-10.554-2.828-3.696 2.134-4.962 6.859-2.828 10.554l25.976 44.991c1.896 3.291 5.896 4.667 9.371 3.383.787-.291 1.182-.437 16.988-9.68 3.684-2.155 4.924-6.887 2.769-10.57-2.154-3.684-6.888-4.921-10.57-2.77z"/><path d="m371.137 211.02c-3.07 1.796-6.308 3.682-9.02 5.255l-22.133-38.335c-2.134-3.696-6.859-4.96-10.554-2.828-3.696 2.134-4.962 6.859-2.828 10.554l25.976 44.991c1.896 3.291 5.896 4.667 9.371 3.383.787-.291 1.182-.437 16.988-9.68 3.684-2.155 4.924-6.887 2.769-10.57-2.154-3.684-6.887-4.922-10.569-2.77z"/><path d="m410.242 188.219-12.109 6.992-5.154-8.927 10.723-6.191c3.695-2.133 4.962-6.858 2.828-10.554-2.133-3.695-6.859-4.961-10.554-2.828l-10.723 6.19-5.154-8.927 12.109-6.991c3.695-2.134 4.962-6.859 2.828-10.554s-6.859-4.961-10.554-2.828l-18.8 10.854c-3.649 2.078-4.944 6.928-2.828 10.554l25.761 44.619c2.076 3.634 6.925 4.947 10.554 2.828l18.8-10.855c3.696-2.134 4.962-6.859 2.828-10.554-2.135-3.695-6.862-4.96-10.555-2.828z"/><path d="m298.132 252.947-12.109 6.991-5.154-8.927 10.723-6.19c3.696-2.133 4.962-6.858 2.828-10.554-2.133-3.695-6.86-4.961-10.554-2.828l-10.724 6.191-5.154-8.927 12.11-6.991c3.695-2.134 4.962-6.859 2.828-10.554-2.133-3.696-6.859-4.961-10.554-2.828l-18.801 10.854c-3.649 2.078-4.944 6.928-2.828 10.554l25.761 44.619c2.155 3.735 6.916 4.933 10.554 2.828l18.8-10.854c3.696-2.134 4.962-6.859 2.828-10.554-2.134-3.699-6.859-4.962-10.554-2.83z"/><path d="m457.523 140.099c-9.856-17.07-26.259-22.896-40.815-14.489l-12.376 7.145c-3.653 2.082-4.947 6.939-2.821 10.567 0 0 .01.018.018.031.001.001.001.002.001.003l24.793 42.942c2.204 3.775 7.265 5.703 11.078 3.473.373-.218 9.187-5.351 12.685-7.454 13.685-8.223 16.812-25.979 7.437-42.218zm-15.397 28.971c-1.36.818-3.61 2.143-5.829 3.445-7.047-12.117-10.315-17.791-17.536-30.248l5.673-3.275c10.161-5.868 17.653 5.276 19.707 8.833 4.274 7.404 5.309 16.845-2.015 21.245z"/><path d="m107.641 356.811c-4.204-.74-8.209 2.068-8.948 6.272-.112.636-.268 1.26-.464 1.851-1.005 3.036-3.126 5.506-6.304 7.341-4.226 2.44-9.152 3.088-13.865 1.825-4.715-1.263-8.655-4.287-11.095-8.513-5.037-8.725-2.037-19.923 6.688-24.96 3.172-1.83 6.766-2.663 10.4-2.406 4.257.291 7.951-2.906 8.252-7.162.301-4.257-2.906-7.952-7.162-8.253-6.714-.473-13.364 1.059-19.216 4.439-7.801 4.504-13.382 11.777-15.713 20.478s-1.135 17.79 3.369 25.591 11.776 13.381 20.478 15.713c8.639 2.315 17.771 1.146 25.591-3.369 6.466-3.733 11.047-9.22 13.247-15.868.431-1.302.772-2.658 1.013-4.03.739-4.204-2.068-8.21-6.271-8.949z"/><path d="m260.918 268.317c-4.207-.739-8.209 2.068-8.948 6.272-.112.634-.268 1.256-.464 1.85-1.005 3.036-3.126 5.506-6.304 7.341-4.226 2.441-9.152 3.089-13.865 1.826-4.714-1.264-8.654-4.287-11.095-8.513-2.44-4.226-3.089-9.151-1.825-13.865 1.263-4.714 4.286-8.654 8.513-11.095 3.172-1.832 6.77-2.662 10.4-2.406 4.258.307 7.951-2.905 8.252-7.162s-2.906-7.952-7.162-8.253c-6.717-.473-13.364 1.059-19.216 4.439-7.801 4.504-13.382 11.777-15.713 20.478s-1.135 17.79 3.369 25.591 11.776 13.381 20.477 15.712c8.638 2.314 17.771 1.145 25.59-3.369 6.467-3.733 11.048-9.22 13.247-15.866.432-1.304.773-2.66 1.014-4.031.74-4.204-2.068-8.21-6.27-8.949z"/><path d="m187.753 267.54c-2.16-3.681-6.896-4.911-10.574-2.751-3.68 2.161-4.911 6.895-2.751 10.575l9.817 16.719-21.856-13.861c-3.003-1.907-6.92-1.515-9.487.949-2.567 2.462-3.121 6.358-1.343 9.439l25.182 43.617c2.155 3.735 6.914 4.93 10.554 2.828 3.695-2.134 4.962-6.859 2.828-10.554l-9.463-16.39 20.452 12.972c3.375 2.134 7.484 1.8 10.223-.829 2.326-2.234 3.578-6.384 1.105-10.667z"/></g><g><path d="m376.574 120.358c2.463-1.422 2.787-4.863.623-6.708-32.668-27.855-75.003-44.689-121.197-44.689-103.134 0-187.039 83.905-187.039 187.039 0 11.555 1.063 22.865 3.081 33.846.513 2.792 3.656 4.222 6.114 2.803z"/><path d="m135.426 391.642c-2.463 1.422-2.787 4.863-.623 6.708 32.667 27.854 75.002 44.689 121.196 44.689 103.134 0 187.039-83.905 187.039-187.039 0-11.555-1.063-22.865-3.081-33.846-.513-2.792-3.656-4.222-6.114-2.803z"/></g></g></g></svg>