<svg id="Layer_1" enable-background="new 0 0 512 512" height="512" viewBox="0 0 512 512" width="512" xmlns="http://www.w3.org/2000/svg"><path d="m423.938 88.062c-44.858-44.858-104.5-69.562-167.938-69.562s-123.08 24.704-167.938 69.562c-44.857 44.858-69.562 104.5-69.562 167.938s24.704 123.08 69.562 167.938 104.5 69.562 167.938 69.562 123.08-24.704 167.938-69.563c44.858-44.857 69.562-104.499 69.562-167.937s-24.705-123.08-69.562-167.938zm-167.938 380.438c-117.173 0-212.5-95.327-212.5-212.5s95.327-212.5 212.5-212.5 212.5 95.327 212.5 212.5-95.327 212.5-212.5 212.5zm80.697-341.922h-161.393c-26.336 0-47.762 21.426-47.762 47.762v105.777c0 26.336 21.426 47.762 47.762 47.762h14.838v29.181c0 10.858 5.775 20.285 15.446 25.216 4.16 2.121 8.569 3.171 12.944 3.171 5.795 0 11.529-1.843 16.537-5.477l71.794-52.091h29.833c26.335 0 47.761-21.426 47.761-47.762v-105.777c.001-26.336-21.425-47.762-47.76-47.762zm22.761 153.539c0 12.551-10.21 22.762-22.761 22.762h-33.891c-2.637 0-5.207.834-7.341 2.383l-75.078 54.474c-1.134.821-2.195.904-3.443.268-1.247-.635-1.802-1.543-1.802-2.943v-41.681c0-6.903-5.597-12.5-12.5-12.5h-27.338c-12.551 0-22.762-10.211-22.762-22.762v-105.778c0-12.551 10.211-22.762 22.762-22.762h161.393c12.551 0 22.761 10.211 22.761 22.762z"/></svg>