<svg height="512" viewBox="0 0 64 64" width="512" xmlns="http://www.w3.org/2000/svg"><g id="Icon" fill="#bddbff"><path d="m14.35341 52h-9.80682a1 1 0 0 1 -.91193-1.41036l8.18068-18.17928a1 1 0 0 0 0-.82072l-8.18068-18.17928a1 1 0 0 1 .91193-1.41036h9.80682a1 1 0 0 1 .91193.58964l8.55 19a1 1 0 0 1 0 .82072l-8.55 19a1 1 0 0 1 -.91193.58964z"/><path d="m51.35341 52h-9.80682a1 1 0 0 1 -.91193-1.41036l8.18068-18.17928a1 1 0 0 0 0-.82072l-8.18068-18.17928a1 1 0 0 1 .91193-1.41036h9.80682a1 1 0 0 1 .91193.58964l8.55 19a1 1 0 0 1 0 .82072l-8.55 19a1 1 0 0 1 -.91193.58964z"/></g><g id="Line"><path d="m10.67849 32-8.18066 18.17871a2.00108 2.00108 0 0 0 1.82422 2.82129h9.80664a2.00214 2.00214 0 0 0 1.82422-1.17969l8.54882-18.99707a1.99741 1.99741 0 0 0 .001-1.64355l-8.5498-18.999a2.00143 2.00143 0 0 0 -1.82424-1.18069h-9.80664a2.00064 2.00064 0 0 0 -1.82422 2.82031zm3.4502-19 8.5498 19-8.5498 19h-9.80664l8.17968-18.17676a1.99741 1.99741 0 0 0 .001-1.64355l-8.18068-18.17969zm33.5498 19-8.18066 18.17871a2.00108 2.00108 0 0 0 1.82422 2.82129h9.80664a2.00214 2.00214 0 0 0 1.82422-1.17969l8.54882-18.99707a1.99741 1.99741 0 0 0 .001-1.64355l-8.5498-18.999a2.00143 2.00143 0 0 0 -1.82424-1.18069h-9.80664a2.00064 2.00064 0 0 0 -1.82422 2.82031zm3.4502-19 8.5498 19-8.54883 19h-9.80761l8.17968-18.17676a1.99741 1.99741 0 0 0 .001-1.64355l-8.18068-18.17969zm-21.9502 19-8.18066 18.17871a2.00108 2.00108 0 0 0 1.82422 2.82129h9.80664a2.00214 2.00214 0 0 0 1.82422-1.17969l8.54882-18.99707a1.99741 1.99741 0 0 0 .001-1.64355l-8.5498-18.999a2.00143 2.00143 0 0 0 -1.82424-1.18069h-9.80664a2.00064 2.00064 0 0 0 -1.82422 2.82031zm3.4502-19 8.5498 19-8.5498 19h-9.80664l8.17968-18.17676a1.99741 1.99741 0 0 0 .001-1.64355l-8.18068-18.17969z" fill="#3d9ae2"/></g></svg>