<svg height="464pt" viewBox="0 -8 464 464" width="464pt" xmlns="http://www.w3.org/2000/svg"><path d="m360 144h-120v-40c0-4.417969-3.582031-8-8-8s-8 3.582031-8 8v40h-120c-4.417969 0-8 3.582031-8 8v48c0 4.417969 3.582031 8 8 8s8-3.582031 8-8v-40h240v40c0 4.417969 3.582031 8 8 8s8-3.582031 8-8v-48c0-4.417969-3.582031-8-8-8zm0 0" fill="#f7cc38"/><path d="m424 320h-56v-40c0-4.417969-3.582031-8-8-8s-8 3.582031-8 8v40h-56c-4.417969 0-8 3.582031-8 8v48c0 4.417969 3.582031 8 8 8s8-3.582031 8-8v-40h112v40c0 4.417969 3.582031 8 8 8s8-3.582031 8-8v-48c0-4.417969-3.582031-8-8-8zm0 0" fill="#f7cc38"/><path d="m168 320h-56v-40c0-4.417969-3.582031-8-8-8s-8 3.582031-8 8v40h-56c-4.417969 0-8 3.582031-8 8v48c0 4.417969 3.582031 8 8 8s8-3.582031 8-8v-40h112v40c0 4.417969 3.582031 8 8 8s8-3.582031 8-8v-48c0-4.417969-3.582031-8-8-8zm0 0" fill="#f7cc38"/><path d="m56 192h96v96h-96zm0 0" fill="#60a2d7"/><path d="m176 0h112v112h-112zm0 0" fill="#5f7bad"/><path d="m408 288h-96v-96h96zm0 0" fill="#60a2d7"/><g fill="#92aeba"><path d="m0 368h80v80h-80zm0 0"/><path d="m128 368h80v80h-80zm0 0"/><path d="m256 368h80v80h-80zm0 0"/><path d="m384 368h80v80h-80zm0 0"/></g></svg>