<svg id="Layer_1" enable-background="new 0 0 512 512" viewBox="0 0 512 512" xmlns="http://www.w3.org/2000/svg"><g><path d="m358.08 341.39c-4.56 0-8.25-3.71-8.25-8.28s3.68-8.25 8.25-8.25h87.25v-114.31c0-4.54 3.69-8.25 8.25-8.25s8.25 3.71 8.25 8.25v122.57c0 4.56-3.69 8.28-8.25 8.28h-95.5zm-110.33-210.41c0-4.56 3.69-8.28 8.25-8.28s8.25 3.71 8.25 8.28v73.47c0 4.56-3.69 8.25-8.25 8.25s-8.25-3.69-8.25-8.25zm-197.6 79.57c0-4.54 3.71-8.25 8.28-8.25 4.56 0 8.25 3.71 8.25 8.25v114.32h87.25c4.56 0 8.25 3.69 8.25 8.25s-3.69 8.28-8.25 8.28h-95.5c-4.56 0-8.28-3.71-8.28-8.28z" fill="#70da40"/><g clip-rule="evenodd" fill-rule="evenodd"><path d="m357.96 421.47c0 22.2-45.67 40.17-101.96 40.17s-101.96-17.97-101.96-40.17v-118h203.92z" fill="#ffd75c"/><path d="m176.97 446.84c-14.31-6.92-22.93-15.76-22.93-25.37v-118h22.93z" fill="#e6c253"/><path d="m357.96 362.8c0 22.2-45.67 40.17-101.96 40.17s-101.96-17.97-101.96-40.17v-118.01h203.92z" fill="#fea832"/><path d="m176.97 388.19c-14.31-6.94-22.93-15.76-22.93-25.4v-118h22.93z" fill="#e5972d"/><path d="m357.96 304.03c0 22.2-45.67 40.2-101.96 40.2s-101.96-18-101.96-40.2v-59.24h203.92z" fill="#ffd75c"/><path d="m176.97 329.43c-14.31-6.92-22.93-15.76-22.93-25.4v-59.24h22.93z" fill="#e6c253"/><path d="m256 284.96c56.15 0 101.96-18.06 101.96-40.17 0-22.14-45.81-40.2-101.96-40.2s-101.96 18.06-101.96 40.2c0 22.11 45.81 40.17 101.96 40.17z" fill="#fea832"/><path d="m256 204.62c3.57 0 7.09.06 10.54.2-51.36 2.07-91.42 19.19-91.42 39.97s40.05 37.87 91.42 39.97c-3.46.11-6.97.2-10.54.2-56.3 0-101.96-17.97-101.96-40.17s45.66-40.17 101.96-40.17z" fill="#e5972d"/></g><path d="m223.86 422.75c4.51.62 7.65 4.76 7.06 9.27-.6 4.51-4.76 7.65-9.27 7.06-5.16-.71-10.12-1.56-14.85-2.52-4.76-.99-9.38-2.15-13.8-3.43-4.37-1.28-6.89-5.84-5.61-10.2 1.25-4.37 5.81-6.89 10.18-5.61 3.91 1.13 8.11 2.18 12.59 3.12 4.4.89 8.96 1.68 13.7 2.31zm0-118.83c4.51.62 7.65 4.76 7.06 9.27-.6 4.51-4.76 7.65-9.27 7.06-5.16-.71-10.12-1.56-14.85-2.52-4.76-.99-9.38-2.15-13.8-3.43-4.37-1.28-6.89-5.84-5.61-10.2 1.25-4.37 5.81-6.89 10.18-5.61 3.91 1.13 8.11 2.18 12.59 3.12 4.4.89 8.96 1.69 13.7 2.31zm0 59.41c4.51.62 7.65 4.76 7.06 9.27-.6 4.51-4.76 7.65-9.27 7.06-5.16-.71-10.12-1.56-14.85-2.52-4.76-.99-9.38-2.15-13.8-3.43-4.37-1.28-6.89-5.84-5.61-10.2 1.25-4.37 5.81-6.89 10.18-5.61 3.91 1.13 8.11 2.18 12.59 3.12 4.4.9 8.96 1.69 13.7 2.31z" fill="#fff"/><path clip-rule="evenodd" d="m208.8 50.36h94.39c6.18 0 11.23 5.05 11.23 11.23v58.17c0 6.15-5.05 11.23-11.23 11.23h-94.39c-6.18 0-11.23-5.07-11.23-11.23v-58.17c.01-6.18 5.05-11.23 11.23-11.23z" fill="#0593fc" fill-rule="evenodd"/><path clip-rule="evenodd" d="m406.38 129.96h94.39c6.18 0 11.23 5.05 11.23 11.23v58.14c0 6.18-5.05 11.23-11.23 11.23h-94.39c-6.18 0-11.23-5.05-11.23-11.23v-58.14c0-6.19 5.05-11.23 11.23-11.23z" fill="#0593fc" fill-rule="evenodd"/><path clip-rule="evenodd" d="m11.23 129.96h94.39c6.18 0 11.23 5.05 11.23 11.23v58.14c0 6.18-5.05 11.23-11.23 11.23h-94.39c-6.18-.01-11.23-5.06-11.23-11.24v-58.14c0-6.18 5.05-11.22 11.23-11.22z" fill="#0593fc" fill-rule="evenodd"/><path d="m45.36 192.55c-4.54 0-8.25-3.69-8.25-8.25s3.71-8.25 8.25-8.25h26.11c4.56 0 8.25 3.69 8.25 8.25s-3.69 8.25-8.25 8.25zm180.14-107.69c-4.56 0-8.25-3.69-8.25-8.25s3.69-8.25 8.25-8.25h61c4.56 0 8.25 3.69 8.25 8.25s-3.68 8.25-8.25 8.25zm17.46 28.09c-4.56 0-8.28-3.69-8.28-8.25s3.71-8.25 8.28-8.25h26.08c4.56 0 8.28 3.69 8.28 8.25s-3.71 8.25-8.28 8.25zm180.11 51.51c-4.56 0-8.25-3.69-8.25-8.25s3.69-8.25 8.25-8.25h61c4.56 0 8.28 3.68 8.28 8.25 0 4.56-3.71 8.25-8.28 8.25zm17.47 28.09c-4.56 0-8.28-3.69-8.28-8.25s3.71-8.25 8.28-8.25h26.11c4.54 0 8.25 3.69 8.25 8.25s-3.71 8.25-8.25 8.25zm-412.62-28.09c-4.56 0-8.28-3.69-8.28-8.25s3.71-8.25 8.28-8.25h61c4.56 0 8.25 3.68 8.25 8.25 0 4.56-3.69 8.25-8.25 8.25z" fill="#fff"/><path clip-rule="evenodd" d="m11.23 129.96h13.41c-6.18 0-11.23 5.05-11.23 11.23v58.14c0 6.18 5.05 11.23 11.23 11.23h-13.41c-6.18-.01-11.23-5.06-11.23-11.24v-58.14c0-6.18 5.05-11.22 11.23-11.22z" fill="#0584e3" fill-rule="evenodd"/><path clip-rule="evenodd" d="m406.38 129.96h13.44c-6.18 0-11.23 5.05-11.23 11.23v58.14c0 6.18 5.05 11.23 11.23 11.23h-13.44c-6.18 0-11.23-5.05-11.23-11.23v-58.14c0-6.19 5.05-11.23 11.23-11.23z" fill="#0584e3" fill-rule="evenodd"/><path clip-rule="evenodd" d="m208.8 50.36h13.41c-6.15 0-11.23 5.05-11.23 11.23v58.17c0 6.15 5.07 11.23 11.23 11.23h-13.41c-6.18 0-11.23-5.07-11.23-11.23v-58.17c.01-6.18 5.05-11.23 11.23-11.23z" fill="#0584e3" fill-rule="evenodd"/></g></svg>