<svg id="Layer_1" enable-background="new 0 0 512 512" height="512" viewBox="0 0 512 512" width="512" xmlns="http://www.w3.org/2000/svg"><path d="m423.938 88.062c-44.858-44.858-104.5-69.562-167.938-69.562s-123.08 24.704-167.938 69.562c-44.857 44.858-69.562 104.5-69.562 167.938s24.704 123.08 69.562 167.938 104.5 69.562 167.938 69.562 123.08-24.704 167.938-69.563c44.858-44.857 69.562-104.499 69.562-167.937s-24.705-123.08-69.562-167.938zm-167.938 380.438c-117.173 0-212.5-95.327-212.5-212.5s95.327-212.5 212.5-212.5 212.5 95.327 212.5 212.5-95.327 212.5-212.5 212.5zm106.478-344.039h-38.576c-8.586 0-16.326 3.682-21.732 9.547-7.374-5.98-16.588-9.547-26.58-9.547h-97.133c-21.437 0-38.525 17.243-43.534 43.928l-14.317 76.268c-2.116 11.271.968 22.6 8.685 31.899 8.646 10.42 21.673 16.641 34.85 16.641h25.444c-16.446 28.293-21.18 55.293-12.164 73.569 6.608 13.396 19.856 20.772 37.303 20.772 5.063 0 9.626-3.055 11.556-7.735 11.837-28.711 41.982-69.492 71.229-97.803 4.875 9.642 14.872 16.271 26.394 16.271h38.576c16.301 0 29.563-13.262 29.563-29.563v-114.684c-.002-16.301-13.264-29.563-29.564-29.563zm-155.399 237.104c-5.108-1.541-6.573-4.51-7.24-5.86-5.557-11.265.601-38.034 23.122-67.402 2.896-3.776 3.396-8.869 1.291-13.137s-6.451-6.97-11.21-6.97h-48.903c-5.65 0-11.777-2.984-15.61-7.604-2.038-2.456-4.275-6.415-3.354-11.322l14.317-76.268c.738-3.932 5.121-23.541 18.964-23.541h97.133c10.338 0 18.749 9.525 18.749 21.234v80.457c-33.185 27.956-69.914 74.556-87.259 110.413zm159.961-92.857c0 2.474-2.089 4.563-4.563 4.563h-38.576c-2.474 0-4.563-2.09-4.563-4.563v-114.684c0-2.474 2.089-4.563 4.563-4.563h38.576c2.473 0 4.563 2.09 4.563 4.563z"/></svg>