<svg clip-rule="evenodd" fill-rule="evenodd" height="512" image-rendering="optimizeQuality" shape-rendering="geometricPrecision" text-rendering="geometricPrecision" viewBox="0 0 512 512" width="512" xmlns="http://www.w3.org/2000/svg"><g id="Layer_x0020_1"><path d="m239 192c-3 0-6-2-6-5-12-2-20-11-20-22 0-3 3-6 6-6s6 3 6 6c0 4 3 8 8 10v-22c-12-2-20-11-20-22 0-10 8-19 20-22 0-3 3-5 6-5s5 2 6 5c11 3 19 12 19 22 0 4-2 6-6 6-3 0-6-2-6-6s-3-8-7-9v21c11 2 19 11 19 22s-8 20-19 22c-1 3-3 5-6 5zm-12 5h1 1 1 1 1v1h1 1 1 1 1 1 1 1 1 1c14-1 27-8 36-19v-1h1c6-8 9-19 9-30 0-27-22-50-49-50-28 0-50 23-50 50 0 4 0 8 1 12zm-50-51c1-33 28-60 62-60s61 28 61 62c0 5 0 10-1 14h5 3c8-22 29-37 52-37 4 0 6 3 6 6v49c23 14 40 36 48 61h11c10 0 19 9 19 19v45c0 10-9 19-19 19h-16c-6 12-13 22-22 31l35 36c30-37 48-84 48-135 0-117-96-213-213-213-51 0-98 18-135 48zm111 40c-2 1-3 3-4 4 2 1 4 3 4 5v33c0 3-3 6-6 6h-18l114 113c8-9 15-20 20-31 1-3 3-4 6-4h20c4 0 7-3 7-7v-45c0-4-3-7-7-7h-16c-2 0-5-2-5-4-8-26-24-47-47-61-2-1-3-3-3-5v-45c-17 2-32 15-36 32-1 3-4 4-7 4-2 0-4 0-6 0h-9c-2 3-4 7-6 10s-1 1-1 1zm62 240h-31c-8 0-15-7-15-16v-20h-66v20c0 9-7 16-16 16h-31c-8 0-15-7-15-16v-36c-15-9-27-21-36-34 0 0 0 0 0-1-13-18-20-40-20-63 0-8 1-16 3-23-3 0-6 1-9 1-25 0-45-20-45-45s20-45 45-45c7 0 14 1 20 5 3 1 4 5 3 8-2 3-5 4-8 2-5-2-10-3-15-3-18 0-33 15-33 33s15 33 33 33c4 0 9-1 13-3 6-18 17-35 33-49l-69-69c-30 37-48 84-48 135 0 117 96 213 213 213 51 0 98-18 135-48l-25-25v14c0 9-7 16-16 16zm-182-227c-14 12-25 28-31 46v1c-3 10-5 20-5 30 0 20 6 38 16 54h152zm-11 143c3 3 5 6 8 9h155l-8-9zm24 21c1 1 3 1 4 2 2 1 3 3 3 5v40c0 2 1 4 3 4h31c2 0 4-2 4-4v-26c0-1 0-3 2-4 1-1 2-2 4-2h3 69 6c1 0 3 1 4 2s2 2 2 4v26c0 2 1 4 3 4h31c2 0 4-2 4-4v-26l-22-21zm173 4c0-1 1-3 3-3l12-9-123-123-26-26-39-39h-1l-68-68c-4 4-9 9-13 13l240 241zm23-3c-3 3-7 6-11 8v7l34 34 13-13zm-31-94c-13 0-23-10-23-23 0-12 10-22 23-22 12 0 23 10 23 22 0 13-11 23-23 23zm0-33c-6 0-11 4-11 10s5 11 11 11 11-5 11-11-5-10-11-10zm-94-15h24v-21h-6c-4 3-9 5-14 7-1 0-1 0-2 0h-1-1s0 1-1 1h-1-1-1-1-1l-1 1h-1-1-1-1-1zm4 290c-68 0-133-27-181-75s-75-113-75-181 27-133 75-181 113-75 181-75 133 27 181 75 75 113 75 181-27 133-75 181-113 75-181 75zm0-500c-135 0-244 109-244 244s109 244 244 244 244-109 244-244-109-244-244-244zm0 469c-60 0-117-23-159-66-43-42-66-99-66-159 0-58 22-112 61-154v-1h1v-1l2-1c1-1 1-2 2-2 1-1 2-2 3-4h1v-1h1c42-39 96-61 154-61 60 0 117 23 159 66 43 42 66 99 66 159 0 58-22 113-62 155v1l-2 1c-1 1-1 2-2 2 0 1-1 1-2 2l-1 2c-42 40-98 62-156 62zm-23-340v-19c-5 1-8 5-8 9 0 5 3 8 8 10zm12 14v20c4-2 7-6 7-10s-3-8-7-10z"/><path d="m365 180c23 14 40 36 48 61h11c10 0 19 9 19 19v45c0 10-9 19-19 19h-16c-6 12-13 22-22 31l35 36c30-37 48-84 48-135 0-117-96-213-213-213-51 0-98 18-135 48l56 55c1-33 28-60 62-60 39 0 69 37 60 76h8c8-22 29-37 52-37 4 0 6 3 6 6z" fill="#fff"/><path d="m176 374c-41-25-63-73-53-121-28 5-54-16-54-44 0-34 36-55 65-40 7 3 2 14-5 10-22-11-48 5-48 30 0 23 24 39 46 30 6-18 17-35 33-49l-69-69c-30 37-48 84-48 135 0 117 96 213 213 213 51 0 98-18 135-48l-25-25v14c0 9-7 16-16 16h-31c-8 0-15-7-15-16v-20h-66v20c0 9-7 16-16 16h-31c-8 0-15-7-15-16z" fill="#fff"/><path d="m256 481c-124 0-225-101-225-225s101-225 225-225 225 101 225 225-101 225-225 225zm-244-225c0 135 109 244 244 244s244-109 244-244-109-244-244-244-244 109-244 244z" fill="#dd352e"/><path d="m148 330h152l-132-131c-14 12-25 28-31 46v1c-3 10-5 20-5 30 0 20 6 38 16 54z" fill="#ff7bac"/><path d="m332 363h-151c3 2 7 3 7 7v40c0 2 1 4 3 4h31c2 0 4-2 4-4v-26c0-3 3-6 6-6h3 69c4 0 8-1 10 2 1 1 2 2 2 4v26c0 2 1 4 3 4h31c2 0 4-2 4-4v-26z" fill="#ff7bac"/><path d="m165 351h155l-8-9h-155c3 3 5 6 8 9z" fill="#e8679c"/><path d="m264 234 114 113c8-9 15-20 20-31 1-3 3-4 6-4h20c4 0 7-3 7-7v-45c0-4-3-7-7-7h-16c-2 0-5-2-5-4-8-26-24-47-47-61-2-1-3-3-3-5v-45c-17 2-32 15-36 32-2 6-8 4-13 4h-9l-7 12c-2 1-3 3-4 4 2 1 4 3 4 5v33c0 3-3 6-6 6zm82 36c-13 0-23-10-23-23 0-12 10-22 23-22 12 0 23 10 23 22 0 13-11 23-23 23z" fill="#ff7bac"/><path d="m369 355-257-256c-4 4-9 9-13 13l255 255c0-1 1-3 3-3z" fill="#dd352e"/><path d="m377 364c-3 3-7 6-11 8v7l34 34 13-13z" fill="#6b809b"/><g fill="#ffde50"><path d="m238 198c27 0 50-22 50-50 0-27-22-50-49-50-28 0-50 23-50 50 0 4 0 8 1 12l37 37zm7-55c11 2 19 11 19 22s-8 20-19 22c-1 3-3 5-6 5s-6-2-6-5c-20-4-25-28-14-28 3 0 6 3 6 6 0 4 3 8 8 10v-22c-12-2-20-11-20-22 0-10 8-19 20-22 1-6 10-6 12 0 20 4 25 28 13 28-3 0-6-2-6-6s-3-8-7-9z"/><path d="m245 175c10-4 10-16 0-20z"/><path d="m233 141v-19c-10 4-10 15 0 19z"/></g><path d="m270 201c-4 3-9 5-14 7-5 1-11 2-16 2l12 12h24v-21z" fill="#e8679c"/><path d="m346 237c-6 0-11 4-11 10s5 11 11 11 11-5 11-11-5-10-11-10z" fill="#e8679c"/></g></svg>