<svg enable-background="new 0 0 512 512" height="512" viewBox="0 0 512 512" width="512" xmlns="http://www.w3.org/2000/svg"><g id="_x30_3_File"><g><path d="m489.346 173.717-227.858 227.857-73.426 23.332c-6.703 2.13-13.02-4.187-10.89-10.89l23.332-73.426 227.857-227.857c8.303-8.303 21.765-8.303 30.068 0l30.916 30.916c8.304 8.303 8.304 21.765.001 30.068z" fill="#ff896f"/><path d="m261.465 401.552-67.279 21.412-6.139 1.947c-3.444 1.098-6.788-.05-8.934-2.296-2.046-2.146-2.994-5.34-1.947-8.584l2.096-6.638 21.262-66.78 15.073 15.073 30.445 30.445 15.073 15.073z" fill="#fff"/><path d="m489.354 173.713-28.549 28.498-.349-.35-15.073-15.073-30.445-30.444-15.073-15.073 28.499-28.548c8.285-8.286 21.761-8.286 30.046 0l30.595 30.594c.499.5.998 1.048 1.447 1.597 7.187 8.335 6.788 20.913-1.098 28.799z" fill="#1c85e8"/><path d="m403.609 60.018v77.411l-3.793 3.793-199.291 199.39-23.358 73.417c-2.146 6.638 4.193 12.977 10.93 10.881l73.418-23.308 142.094-142.194v192.553c0 24.056-19.565 43.621-43.571 43.621h-299.96c-24.107 0-43.621-19.565-43.621-43.621v-391.943c0-24.057 19.515-43.571 43.621-43.571h299.959c24.007-.001 43.572 19.514 43.572 43.571z" fill="#fff"/><g fill="#002245"><path d="m60.101 503.055h299.923c28.162 0 51.075-22.91 51.075-51.072v-189.43c2.367-2.367 82.992-82.991 83.541-83.54 11.21-11.208 11.21-29.444 0-40.657l-30.916-30.918c-11.232-11.227-29.426-11.236-40.654.002l-11.971 11.971v-59.393c0-28.162-22.913-51.073-51.075-51.073h-299.923c-28.201 0-51.148 22.91-51.148 51.073v391.964c0 28.162 22.947 51.073 51.148 51.073zm201.388-112.068-50.395-50.395 188.751-188.755 50.397 50.397c-56.158 56.159-133.171 133.171-188.753 188.753zm-57.573-36.398 43.581 43.576-61.7 19.606c-.908.307-1.781-.551-1.487-1.489zm249.221-236.563 30.916 30.916c5.366 5.371 5.366 14.11 0 19.481l-23.225 23.225-50.397-50.397 23.224-23.225c5.206-5.201 14.277-5.201 19.482 0zm-429.211-58.008c0-19.906 16.226-36.099 36.175-36.099h299.923c19.906 0 36.102 16.194 36.102 36.099v74.365l-1.574 1.574s0 .001-.001.001c-209.998 210.114-198.836 198.619-200.009 200.194-.372.5-.764.9-1.171 2.173l-23.332 73.425c-3.954 12.434 7.779 24.269 20.291 20.293l73.427-23.332c1.265-.403 1.727-.834 2.227-1.214 1.579-1.199-7.167 7.226 130.142-129.972v174.457c0 19.906-16.196 36.099-36.102 36.099h-299.923c-19.949 0-36.175-16.194-36.175-36.099z"/><path d="m78.744 94.158h262.559c4.133 0 7.487-3.351 7.487-7.487s-3.353-7.487-7.487-7.487h-262.559c-4.133 0-7.487 3.351-7.487 7.487s3.354 7.487 7.487 7.487z"/><path d="m78.744 178.822h234.319c4.133 0 7.487-3.351 7.487-7.487s-3.353-7.486-7.487-7.486h-234.319c-4.133 0-7.487 3.351-7.487 7.486 0 4.136 3.354 7.487 7.487 7.487z"/><path d="m78.744 263.487h159.654c4.133 0 7.487-3.351 7.487-7.487s-3.353-7.487-7.487-7.487h-159.654c-4.133 0-7.487 3.351-7.487 7.487s3.354 7.487 7.487 7.487z"/><path d="m78.744 348.148h92.665c4.133 0 7.486-3.351 7.486-7.487s-3.353-7.487-7.486-7.487h-92.665c-4.133 0-7.487 3.351-7.487 7.487s3.354 7.487 7.487 7.487z"/><path d="m78.744 432.813h68.139c4.133 0 7.486-3.351 7.486-7.487s-3.353-7.487-7.486-7.487h-68.139c-4.133 0-7.487 3.351-7.487 7.487s3.354 7.487 7.487 7.487z"/></g></g></g></svg>