<svg enable-background="new 0 0 24 24" viewBox="0 0 24 24" xmlns="http://www.w3.org/2000/svg"><g id="timeline"/><g id="navigation"/><g id="align_center"/><g id="align_left_1_"/><g id="align_left"/><g id="more"/><g id="share"/><g id="music"/><g id="camera"/><g id="print"/><g id="wifi_1_"/><g id="setting"/><g id="composed"/><g id="password"/><g id="list"/><g id="voice"/><g id="open_folder"/><g id="refresh"/><g id="link"/><g id="attach"/><g id="email"><path d="m21 5h-18c-.5527 0-1 .4478-1 1v12c0 .5522.4473 1 1 1h18c.5527 0 1-.4478 1-1v-12c0-.5522-.4473-1-1-1zm-17 2.8685 4.6304 3.087-4.6304 4.6301zm8 2.9298-5.6973-3.7983h11.3947zm-1.6727 1.2884 1.118.7453c.168.1118.3613.168.5547.168s.3867-.0562.5547-.168l1.1179-.7453 4.913 4.9133h-13.1719zm5.0422-1.1312 4.6305-3.087v7.7178z"/></g><g id="bookmark"/><g id="folder"/><g id="file"/><g id="notification"/><g id="galery"/><g id="delete_1_"/><g id="update"/><g id="upload"/><g id="download"/><g id="menu"/><g id="down"/><g id="up"/><g id="backward"/><g id="forward"/><g id="zoom_out"/><g id="zoom_in"/><g id="search"/><g id="home"/><g id="user"/><g id="guide"/></svg>