<svg id="Layer_2" height="512" viewBox="0 0 512 512" width="512" xmlns="http://www.w3.org/2000/svg" data-name="Layer 2"><g id="Icon"><g id="_30" data-name="30"><rect id="Background" fill="#2492ff" height="512" rx="150" transform="matrix(-1 0 0 -1 512 512)" width="512"/><g fill="#fff"><g><path d="m386 271h-260c-8.28 0-15-6.72-15-15 0-8.28 6.72-15 15-15h260c8.28 0 15 6.72 15 15 0 8.28-6.72 15-15 15zm-300-15c0 22.09 17.91 40 40 40h260c22.09 0 40-17.91 40-40 0-22.09-17.91-40-40-40h-260c-22.09 0-40 17.91-40 40z"/><circle cx="326" cy="256" r="47.03"/></g><g><path d="m386 381h-260c-8.28 0-15-6.72-15-15 0-8.28 6.72-15 15-15h260c8.28 0 15 6.72 15 15 0 8.28-6.72 15-15 15zm-300-15c0 22.09 17.91 40 40 40h260c22.09 0 40-17.91 40-40 0-22.09-17.91-40-40-40h-260c-22.09 0-40 17.91-40 40z"/><circle cx="186" cy="366" r="47.03"/></g><g><path d="m386 161h-260c-8.28 0-15-6.72-15-15 0-8.28 6.72-15 15-15h260c8.28 0 15 6.72 15 15 0 8.28-6.72 15-15 15zm-300-15c0 22.09 17.91 40 40 40h260c22.09 0 40-17.91 40-40 0-22.09-17.91-40-40-40h-260c-22.09 0-40 17.91-40 40z"/><circle cx="236" cy="146" r="47.03"/></g></g></g></g></svg>