<svg id="Layer_1" enable-background="new 0 0 512 512" height="512" viewBox="0 0 512 512" width="512" xmlns="http://www.w3.org/2000/svg"><path d="m423.938 88.062c-44.858-44.858-104.5-69.562-167.938-69.562s-123.08 24.705-167.938 69.562c-44.858 44.858-69.562 104.5-69.562 167.938s24.704 123.08 69.562 167.938 104.5 69.562 167.938 69.562 123.08-24.704 167.938-69.563c44.858-44.857 69.562-104.499 69.562-167.937s-24.704-123.08-69.562-167.938zm-167.938 380.438c-117.173 0-212.5-95.327-212.5-212.5s95.327-212.5 212.5-212.5 212.5 95.327 212.5 212.5-95.327 212.5-212.5 212.5zm45.957-321.432c-16.771 0-32.728 5.292-45.965 15.084-30.308-22.345-73.327-19.806-100.746 7.613-30.214 30.214-30.214 79.376 0 109.592l91.915 91.914c2.44 2.44 5.64 3.661 8.839 3.661s6.398-1.221 8.839-3.661l91.914-91.914c30.214-30.215 30.214-79.378 0-109.592-14.637-14.636-34.097-22.697-54.796-22.697zm37.118 114.612-83.075 83.075-83.076-83.075c-20.467-20.467-20.467-53.77 0-74.236 9.915-9.915 23.097-15.375 37.118-15.375 14.022 0 27.204 5.46 37.119 15.375 2.345 2.344 5.523 3.661 8.839 3.661s6.495-1.317 8.839-3.661c9.914-9.915 23.097-15.375 37.118-15.375s27.203 5.46 37.118 15.375c20.467 20.466 20.467 53.768 0 74.236z"/></svg>