<svg height="512" viewBox="0 0 64 64" width="512" xmlns="http://www.w3.org/2000/svg"><g id="_08-Archive" data-name="08-Archive"><path d="m5 47h18v6h-18z" fill="#f2f6fc"/><path d="m5 50h18v3h-18z" fill="#cdd2e1"/><path d="m33 7h30v39h-30z" fill="#65b1fc"/><path d="m33 11h20a4 4 0 0 1 4 4v31a0 0 0 0 1 0 0h-24a0 0 0 0 1 0 0v-35a0 0 0 0 1 0 0z" fill="#4a98f7"/><path d="m23 14h30v39h-30z" fill="#f2f6fc"/><path d="m23 23h18a5 5 0 0 1 5 5v25a0 0 0 0 1 0 0h-23a0 0 0 0 1 0 0v-30a0 0 0 0 1 0 0z" fill="#cdd2e1"/><path d="m23 22v4h-2l-5-5h-11v-4h13z" fill="#ffa426"/><path d="m16 19h-11v2h11l5 5h2v-2h-2z" fill="#fe8205"/><path d="m43 30v23a4 4 0 0 1 -4 4h-34a4 4 0 0 1 -4-4v-32h15l5 5h18a4 4 0 0 1 4 4zm-20 23v-6h-18v6z" fill="#ffc247"/><path d="m5 53v-32h-4v32a4 4 0 0 0 4 4h4a4 4 0 0 1 -4-4z" fill="#ffa426"/><path d="m23 47h4v6h-4z" fill="#ffa426"/><g fill="#11a892"><path d="m26 17h2v2h-2z"/><path d="m30 17h8v2h-8z"/><path d="m26 21h24v2h-24z"/><path d="m8 49h2v2h-2z"/><path d="m12 49h8v2h-8z"/></g><path d="m63 6h-30a1 1 0 0 0 -1 1v6h-9a1 1 0 0 0 -1 1v5.586l-3.293-3.293a1 1 0 0 0 -.707-.293h-13a1 1 0 0 0 -1 1v3h-3a1 1 0 0 0 -1 1v32a5.006 5.006 0 0 0 5 5h34a5.009 5.009 0 0 0 4.9-4h9.1a1 1 0 0 0 1-1v-6h9a1 1 0 0 0 1-1v-39a1 1 0 0 0 -1-1zm-57 12h11.586l4.414 4.414v2.586h-.586l-4.707-4.707a1 1 0 0 0 -.707-.293h-10zm36 35a3 3 0 0 1 -3 3h-34a3 3 0 0 1 -3-3v-31h13.586l4.707 4.707a1 1 0 0 0 .707.293h18a3 3 0 0 1 3 3zm10-1h-8v-22a5.006 5.006 0 0 0 -5-5h-15v-10h28zm10-7h-8v-31a1 1 0 0 0 -1-1h-19v-5h28z"/><path d="m26 17h2v2h-2z"/><path d="m30 17h8v2h-8z"/><path d="m26 21h24v2h-24z"/><path d="m23 46h-18a1 1 0 0 0 -1 1v6a1 1 0 0 0 1 1h18a1 1 0 0 0 1-1v-6a1 1 0 0 0 -1-1zm-1 6h-16v-4h16z"/><path d="m8 49h2v2h-2z"/><path d="m12 49h8v2h-8z"/></g></svg>