<svg enable-background="new 0 0 32 32" height="512" viewBox="0 0 32 32" width="512" xmlns="http://www.w3.org/2000/svg"><g id="_x30_8_gear"><path d="m16 11c-2.757 0-5 2.243-5 5s2.243 5 5 5 5-2.243 5-5-2.243-5-5-5zm0 8c-1.654 0-3-1.346-3-3s1.346-3 3-3 3 1.346 3 3-1.346 3-3 3zm14-6h-2.387c-.279-1.092-.708-2.128-1.278-3.093l1.686-1.686c.188-.188.293-.442.293-.707s-.105-.52-.293-.707l-2.828-2.828c-.391-.391-1.023-.391-1.414 0l-1.686 1.686c-.966-.571-2.001-.999-3.093-1.278v-2.387c0-.552-.447-1-1-1h-4c-.552 0-1 .448-1 1v2.387c-1.091.279-2.126.707-3.093 1.278l-1.685-1.686c-.391-.391-1.023-.391-1.414 0l-2.829 2.829c-.391.391-.391 1.023 0 1.414l1.686 1.686c-.571.965-.998 2-1.278 3.092h-2.387c-.552 0-1 .448-1 1v4c0 .552.448 1 1 1h2.387c.279 1.091.707 2.126 1.278 3.092l-1.686 1.686c-.391.391-.391 1.023 0 1.414l2.829 2.829c.391.391 1.023.391 1.414 0l1.686-1.686c.966.571 2.002.999 3.093 1.278v2.387c0 .552.448 1 1 1h4c.553 0 1-.448 1-1v-2.387c1.092-.279 2.127-.707 3.093-1.278l1.686 1.686c.188.188.441.293.707.293s.52-.105.707-.293l2.828-2.828c.391-.391.391-1.023 0-1.414l-1.685-1.686c.57-.966.998-2.001 1.277-3.093h2.386c.553 0 1-.448 1-1v-4c0-.552-.447-1-1-1zm-1 4h-2.19c-.482 0-.896.344-.983.819-.257 1.395-.791 2.688-1.589 3.846-.273.397-.225.933.116 1.274l1.546 1.546-1.414 1.414-1.546-1.546c-.342-.341-.878-.39-1.274-.116-1.159.798-2.453 1.333-3.846 1.589-.475.087-.82.501-.82.984v2.19h-2v-2.19c0-.482-.345-.896-.819-.983-1.392-.256-2.686-.791-3.845-1.589-.397-.275-.933-.225-1.274.116l-1.548 1.546-1.414-1.415 1.547-1.547c.341-.341.39-.877.116-1.274-.798-1.158-1.333-2.452-1.589-3.845-.087-.474-.501-.819-.984-.819h-2.19v-2h2.19c.482 0 .896-.344.983-.819.257-1.394.792-2.688 1.589-3.845.274-.397.225-.933-.116-1.274l-1.546-1.547 1.415-1.415 1.546 1.546c.341.34.877.391 1.274.116 1.158-.798 2.452-1.333 3.845-1.589.475-.086.82-.5.82-.983v-2.19h2v2.19c0 .482.345.896.819.983 1.394.256 2.687.791 3.845 1.589.397.274.933.225 1.274-.116l1.547-1.546 1.414 1.414-1.547 1.546c-.342.341-.391.877-.116 1.275.798 1.157 1.333 2.451 1.59 3.846.087.475.501.819.984.819h2.19z"/></g></svg>