<svg height="512" viewBox="0 0 512 512" width="512" xmlns="http://www.w3.org/2000/svg"><g id="_25_Info" data-name="25 Info"><path d="m180.83 400.49a24.9 24.9 0 0 1 -17.58-7.22l-155.83-154.1a25 25 0 0 1 0-35.55l155.83-154.09a25 25 0 0 1 35.16 35.55l-137.86 136.32 137.86 136.32a25 25 0 0 1 -17.58 42.77z"/><path d="m374.47 469.7h-37.47a25 25 0 0 1 0-50h37.47c48.26 0 87.53-38.87 87.53-86.65s-39.27-86.65-87.53-86.65h-341.47a25 25 0 0 1 0-50h341.47c75.83 0 137.53 61.3 137.53 136.65s-61.7 136.65-137.53 136.65z"/></g></svg>