<svg id="&#x421;&#x43B;&#x43E;&#x439;_1" enable-background="new 0 0 512 512" viewBox="0 0 512 512" xmlns="http://www.w3.org/2000/svg"><g><g><path d="m367.3 269.1c-10.5 0-19.4-3.5-24.9-9.7-11.2-12.9-41.7-28.2-42-28.4-2-1-2.8-3.4-1.8-5.4s3.4-2.8 5.4-1.8c1.3.7 32.2 16.2 44.4 30.3 6.3 7.2 17.4 7.2 21.9 6.9 8.5-.6 15.4-3.8 17.1-6.4 5.2-8 13.5-27.1 13.5-27.3.9-2 3.2-3 5.3-2.1 2 .9 3 3.2 2.1 5.3-.4.8-8.6 19.9-14.2 28.5-3.9 6.1-14.5 9.4-23.3 10.1-1.1 0-2.3 0-3.5 0z" fill="#211e2f"/></g><g><path d="m237.9 366.6c-10 0-22.3-12.5-28.8-20.1-1.9-2.3-18.8-22.3-16.6-31.9 1.1-4.9 7.2-9.2 14.3-12.6l-30 .4c-.5 11.1-2.2 22.7-7 26.7-3.6 3-5.5 7.3-5.2 11.9.9 14.1-1.5 21.4-7.4 23-2 .6-7.3 2-55.8-12.6-4.3-1.3-7.8-4.1-9.8-8-2-3.8-2.4-8.1-1.2-12.2l8.7-28.7c-3.6-5.4-14.8-23.6-23-48.1-12.9-38.4-11.7-73.7 3.4-102.1 19-35.8 48.7-51.8 70.2-59 19.2-6.4 35.3-7 40.7-7 5.5-6 25.1-26.4 40.7-28.1 6.4-8.2 38-45.2 87.3-46.2 39.4-.8 52.5 13.9 63 25.7 4.2 4.7 7.8 8.7 12.5 11.5 4.9 2.8 9.1 4.9 12.9 6.6 10.1 4.9 16.8 8.1 21.3 19.4 4.1 10.3 6.6 18.2 7.7 21.6 2.6.9 8 1.6 12.2-5.4 1.4-2.4 2.6-4.7 3.8-6.8 4.8-9.2 9-17.1 23.7-16 3.9.3 7.7 2.6 11.1 7 12.7 16.2 19.3 56.7 14.2 86.7-6.3 36.4-31 66.8-60.3 73.9-12.5 3-30.6-1-46.7-6.4-1.6 7.4-6.5 20.6-22.2 25.7-5.8 1.9-9.6 0-11.8-1.9-10-8.7-5.2-37.3-4.2-43 .2-1.2 1-2.3 2.2-2.9 1.1-.6 2.5-.6 3.6 0 .3.1 13.8 6.9 30.3 12.8.1 0 .2.1.3.1 16 5.7 34.7 10.6 46.6 7.7 21.4-5.2 47.6-28.5 54.3-67.5 5.2-30.2-2.4-67.4-12.6-80.4-1.9-2.4-3.8-3.8-5.4-3.9-9.5-.7-11.4 3-16.1 11.8-1.1 2.2-2.4 4.7-4 7.2-7.6 12.6-19.2 10.5-24.3 7.7-.9-.5-1.6-1.4-1.9-2.4 0-.1-2.7-9.4-8-22.7-3.3-8.4-7.7-10.5-17.3-15.2-3.8-1.9-8.2-3.9-13.3-6.9-5.9-3.4-10.1-8.1-14.6-13.1-9.9-11.1-21.1-23.8-56.8-23-50.2 1-81.9 44-82.2 44.4-.8 1-2 1.7-3.2 1.7-11.8 0-31.5 19.4-38 26.9-.8.9-2 1.4-3.2 1.4-.2 0-18.1-.6-40 6.7-29.1 9.8-51.1 28.3-65.4 55.1-34.1 64.1 19.7 142.7 20.3 143.5.7 1 .9 2.3.5 3.5l-9.4 30.4c-.6 2-.4 4.2.6 6.1 1.1 2 2.9 3.4 5.1 4.1 33.1 9.9 48.2 12.9 51.3 12.5.3-.4 2.3-3.1 1.6-14.9-.4-7.1 2.6-14 8-18.5 2.4-2 3.9-11.9 4.2-23.4-.1-.4-.2-.7-.2-1.1l-.1-16.4c0-2.2 1.7-3.9 3.9-4 2.2 0 4 1.6 4.1 3.8.2 2.7.4 7.3.4 12.6l50.5-.6 1.7-11.3c.3-2.2 2.4-3.7 4.5-3.4 2 .3 3.4 2 3.4 4v.6l-2.2 14.7c-.3 1.6-1.5 2.9-3 3.3-16 4.1-30.8 11.1-31.6 14.8-.4 2.4 4.8 13.7 16.5 26.8 9.9 11.1 17.9 15.7 21.4 15.5 7.9-.6 8-.8 10.9-5.6 1.4-2.3 3.4-5.5 6.7-9.7 7.1-8.9 11.3-11.6 18.2-16 4.2-2.7 9.4-6 17.1-11.9 19.1-14.6 30-74.8 30.1-75.5.4-2.2 2.5-3.6 4.6-3.2 2.2.4 3.6 2.5 3.2 4.6-.5 2.6-11.6 63.9-33.1 80.4-8 6.1-13.4 9.5-17.7 12.3-6.6 4.2-10 6.4-16.2 14.2-3 3.8-4.8 6.7-6.2 8.9-4.2 6.8-6.3 8.5-17.1 9.3-.1.1-.4.1-.7.1zm124.7-149.4c-1.6 11.8-1.8 26.6 2.4 30.3.4.3 1.3 1.2 4 .3 12.7-4.1 16.1-15.4 17-20.8-9.8-3.7-18.3-7.5-23.4-9.8z" fill="#211e2f"/></g><g><path d="m84.1 323.2c-2.8 0-5.6-.6-8.5-2.1-9.2-5.1-35.6-32.1-35.6-44.4 0-9.9 6.7-15.1 13.1-20.2 1.1-.9 2.3-1.8 3.5-2.8 3.9-3.2 8.5-26.6 10.6-46.4.2-2.2 2.2-3.8 4.4-3.6s3.8 2.2 3.6 4.4c-1.1 10.4-5.2 45-13.4 51.8-1.2 1-2.4 2-3.6 2.9-6.6 5-10.2 8.2-10.2 13.9 0 7.2 22 32.2 31.4 37.3 7.9 4.3 18.2-4.9 18.3-5 1.6-1.5 4.2-1.4 5.7.2s1.4 4.2-.2 5.7c-.5.4-9.2 8.3-19.1 8.3z" fill="#211e2f"/></g><g><path d="m192.9 250.8c-12.8 0-26.9-7-31.9-22.1-2.2-6.6-.4-14.7 3-22.5-.7-.2-1.4-.5-2-1.1-.9-.9-22.1-21.7-27.7-34.8-2.1-5-.8-14.6 25.5-48 14.1-18 29.1-34.6 29.2-34.8 1.5-1.6 4-1.8 5.6-.3s1.8 4 .3 5.6c-.1.2-14.7 16.3-28.5 33.8-26 33.1-25 39.8-24.8 40.5 3.9 9 17.2 23.2 23.1 29.3l17.9-19c1.5-1.6 4-1.7 5.6-.2s1.8 3.9.3 5.6c-6.9 8-23.9 31.3-19.9 43.3 5 14.9 20.5 17.8 29.1 16.2 4.1-.8 11.1-3.8 18.5-6.9 11-4.7 23.5-10 34.6-11.9 19.5-3.3 21.5-6.3 21.5-12.3 0-7.6-7.7-65-11.8-94.2-.3-2.2 1.2-4.2 3.4-4.5s4.2 1.2 4.5 3.4c.5 3.5 11.9 85.2 11.9 95.3 0 14.3-11.7 17.4-28.2 20.2-10.1 1.7-22.2 6.9-32.8 11.4-8.1 3.5-15.1 6.5-20.1 7.4-2 .4-4.1.6-6.3.6z" fill="#211e2f"/></g><g><path d="m432.4 160.2c-.7 0-1.5-.2-2.1-.6-1.9-1.2-2.4-3.6-1.3-5.5 3.6-5.7 1.8-34.9-.6-53.9-.3-2.2 1.3-4.2 3.5-4.5s4.2 1.3 4.5 3.5c1 8.1 5.8 49.1-.6 59.2-.8 1.2-2.1 1.8-3.4 1.8z" fill="#211e2f"/></g><g><path d="m409.2 149.8h-.1c-2.2-.1-3.9-1.9-3.9-4.1.2-6.1 3.8-18.5 16-21.6l12.5-3.2c2.1-.5 4.3.8 4.9 2.9s-.8 4.3-2.9 4.9l-12.5 3.2c-9.4 2.4-9.9 13.6-10 14.1-.1 2.1-1.9 3.8-4 3.8z" fill="#211e2f"/></g><g><path d="m397.3 139.3c-.4 0-.9-.1-1.4-.2-2.1-.7-3.1-3-2.4-5.1 1.9-5.3 8.8-14.9 21.6-13.1l12.9 1.8c2.2.3 3.7 2.3 3.4 4.5s-2.3 3.7-4.5 3.4l-12.9-1.8c-9.3-1.3-12.6 6.9-13 7.9-.6 1.6-2.1 2.6-3.7 2.6z" fill="#211e2f"/></g><g><path d="m60.8 189.1c-2 0-4.2-.2-6.7-.7-10.3-1.9-12.6-13.5-12.3-21.8-3.5-2.5-8.6-8.6-5.8-21.7 5.1-24.5 33.2-28.1 34.4-28.3 1.6-.2 3.1.6 3.9 1.9.6 1.1.7 2.4.3 3.5-.2.7-1.2 5-3.6 26.5-1.3 11.9-5.9 15.9-8.9 18.1.4.5 1 1.2 1.9 2.2.1.1.2.2.2.2 2.2.4 9.7-7.3 15.4-16.9 1.1-1.9 3.6-2.5 5.5-1.4s2.5 3.6 1.4 5.5c-2.8 4.6-12.4 19.8-21.3 20.8-2.7.3-5.2-.7-7-2.7-3.1-3.3-5.3-5.9-4.9-8.9.3-2.6 2.3-3.9 3.6-4.8 2.1-1.4 5.3-3.5 6.3-12.9 1.2-10.9 2.1-17.7 2.7-21.9-7.2 2.1-19.2 7.5-21.9 20.8-2.5 11.7 3.4 14.1 3.5 14.1 1.8.6 2.9 2.3 2.7 4.2 0 .1-1.1 14.4 5.6 15.7 12.7 2.3 14.5-3.6 14.7-4.3l3.9.8 3.9.7c-.2.2-2.5 11.3-17.5 11.3z" fill="#211e2f"/></g><g><path d="m212.8 126.9c-.7 0-1.4-.2-2.1-.6-1.9-1.1-2.5-3.6-1.3-5.5 0-.1 5.2-8.6 11.4-25.6 7.4-20.3 37.3-18 38.5-17.9 2.2.2 3.8 2.1 3.7 4.3-.2 2.2-2.1 3.8-4.3 3.7-.4 0-25-1.8-30.3 12.7-6.5 17.8-11.9 26.7-12.1 27-.8 1.2-2.1 1.9-3.5 1.9z" fill="#211e2f"/></g><g><path d="m233.5 113.1c-2.1 0-3.8-1.6-4-3.7-.1-1.4-1-13.5 2.9-21 4.2-8.3 14.8-10.7 15.3-10.8 2.2-.5 4.3.9 4.8 3 .5 2.2-.9 4.3-3 4.8-2 .5-7.8 2.6-9.8 6.6-2.4 4.7-2.3 13.6-2 16.7.2 2.2-1.5 4.1-3.7 4.3-.3.1-.4.1-.5.1z" fill="#211e2f"/></g><g><path d="m304.1 340.3c-8.5 0-15.7-.5-18.4-1.7-5.6-2.5-10-5.7-10.1-5.8-1.8-1.3-2.2-3.8-.8-5.6 1.3-1.8 3.8-2.1 5.6-.8 0 0 3.9 2.8 8.6 5 4.5 1.8 39.7 1.2 47.9-2 2.9-1.1 1.1-12.5-.2-20.7-1-6.5-2.2-14-2.3-21-.4-18.2-13.7-37.5-13.9-37.7-1.3-1.8-.8-4.3 1-5.6s4.3-.8 5.6 1c.6.9 14.9 21.5 15.3 42.1.1 6.5 1.2 13.4 2.2 20 2.2 13.9 4 25.9-4.8 29.4-5.6 2.1-22.2 3.4-35.7 3.4z" fill="#211e2f"/></g><g><path d="m224.6 46.7c-.6 0-1.2-.1-1.8-.4-2-1-2.7-3.4-1.7-5.4 1.5-3 15.3-29.1 33-29.1h.2c2.2 0 4 1.8 4 4s-1.9 4-4 4h-.1c-10.9 0-22.4 17.8-25.9 24.7-.9 1.4-2.3 2.2-3.7 2.2z" fill="#211e2f"/></g><g><path d="m310.9 103.7c-.2 0-.5 0-.7-.1-2.2-.4-3.6-2.4-3.3-4.6 1.4-8.4 7.4-22.3 20.4-21.4 2.2.1 3.9 2 3.7 4.3-.1 2.2-2.1 3.9-4.3 3.7-9.2-.6-12 14.7-12 14.8-.2 1.9-1.9 3.3-3.8 3.3z" fill="#211e2f"/></g><g><path d="m327.1 135.5c-.5 0-1.1-.1-1.6-.3-2-.9-3-3.2-2.1-5.2.5-1.1 11.5-26.1 36.3-24.8 2.2.1 3.9 2 3.8 4.2s-2 3.9-4.2 3.8c-19.2-1-28.2 19.1-28.5 20-.7 1.4-2.2 2.3-3.7 2.3z" fill="#211e2f"/></g><g><path d="m341.6 150.5c-.5 0-1.1-.1-1.6-.3-2-.9-3-3.2-2.1-5.3.5-1.1 11.5-26.1 36.3-24.8 2.2.1 3.9 2 3.8 4.2s-2 3.9-4.2 3.8c-19.3-1-28.4 19.8-28.5 20-.6 1.5-2.1 2.4-3.7 2.4z" fill="#211e2f"/></g><g><path d="m344.5 145.4c-1.5 0-3-.9-3.6-2.3l-2.9-6.1c-1.9-4.1-7.1-7.8-9-8.9s-2.5-3.6-1.4-5.5 3.6-2.5 5.5-1.4c.9.5 8.9 5.4 12.2 12.4l2.8 6.1c.9 2 0 4.4-2 5.3-.5.3-1.1.4-1.6.4z" fill="#211e2f"/></g><g><path d="m364.3 129c-2.7 0-4-2.7-6.2-7.6-2.1-4.6-8.5-7.7-8.6-7.7-2-.9-2.9-3.3-2-5.3s3.3-2.9 5.3-2c.9.4 9.2 4.4 12.5 11.6 1 2.2 1.6 3.3 1.9 3.9.8.7 1.3 1.8 1.3 2.9 0 1.9-1.3 3.6-3.2 4-.3.1-.7.2-1 .2z" fill="#211e2f"/></g><g><path d="m400.8 103.7c-1.6 0-3.1-1-3.7-2.6-.8-2.1.2-4.4 2.3-5.2.8-.3 19.7-7.5 32.6-4.5 2.2.5 3.5 2.7 3 4.8-.5 2.2-2.7 3.5-4.8 3-8.8-2-23.1 2.3-27.9 4.2-.5.2-1 .3-1.5.3z" fill="#211e2f"/></g><g><path d="m433.7 117.8h-26.2c-2.2 0-4-1.8-4-4s1.8-4 4-4h26.2c2.2 0 4 1.8 4 4s-1.8 4-4 4z" fill="#211e2f"/></g><g><path d="m412.4 117.8c-2.2 0-4-1.8-4-4v-7.5c0-4.5-1.7-5.7-1.7-5.7.2.1.3.1.3.1l3.3-7.3c.6.3 6.1 3.1 6.1 12.8v7.5c0 2.3-1.8 4.1-4 4.1z" fill="#211e2f"/></g><g><path d="m445 113.1c-2 0-3.7-1.5-4-3.6-.2-2.2 1.3-4.2 3.5-4.4 6.9-.8 18.8-4 21.1-9.4 3.8-9.2 4.7-12 4.7-12 .6-2.1 2.9-3.3 5-2.7s3.3 2.8 2.7 5c-.1.3-1 3.2-5 12.8-4.8 11.5-25.3 14.1-27.6 14.3-.2 0-.3 0-.4 0z" fill="#211e2f"/></g><g><path d="m22 162.6c-1.9 0-3.6-1.4-3.9-3.4-.2-1.3-4.7-32.5 18.1-40.1 2.1-.7 4.4.4 5.1 2.5s-.4 4.4-2.5 5.1c-16.4 5.5-12.8 31.1-12.7 31.3.3 2.2-1.2 4.2-3.4 4.6-.3 0-.5 0-.7 0z" fill="#211e2f"/></g><g><path d="m12.6 144.9c-2.2 0-4-1.8-4-4 0-3 .3-18 9.7-18.9 2.2-.2 4.2 1.4 4.4 3.6s-1.4 4.2-3.6 4.4c-1.1.6-2.5 5.7-2.5 10.9 0 2.2-1.7 4-4 4z" fill="#211e2f"/></g><g><path d="m87.9 483.8h-22.7c-1.2 0-2.4-.6-3.1-1.5-.8-.9-1-2.2-.8-3.4l10.2-46.1c.2-.7-.1-1.5-.6-2.2-.2-.2-.6-.7-1.1-.7l-26.3-.9-11.7 51.7c-.4 1.8-2 3.1-3.9 3.1h-21.3c-1.2 0-2.4-.5-3.1-1.5s-1.1-2.2-.8-3.4l21.4-99c.4-1.8 2-3.2 3.9-3.2h24.1c1.2 0 2.3.5 3.1 1.4s1.1 2.1.9 3.3l-4 21.5h32.6c5.6 0 10.8 2.5 14.3 6.8s4.9 9.9 3.9 15.4l-11 55.4c-.4 2-2.1 3.3-4 3.3zm-17.7-8h14.5l10.3-52.2c.6-3.1-.2-6.3-2.2-8.7-2-2.5-5-3.9-8.2-3.9h-37.3c-1.2 0-2.3-.5-3.1-1.4s-1.1-2.1-.9-3.3l4-21.5h-16.1l-19.6 91h13.2l11.7-51.8c.4-1.9 2.1-3.2 4-3.1l29.7 1c2.8.2 5.4 1.6 7.2 3.9 1.9 2.5 2.7 5.8 2 8.7z" fill="#211e2f"/></g><g><path d="m169.9 483.8h-66.3c-4.4 0-8.5-1.9-11.2-5.3-2.8-3.4-3.9-7.8-3-12.1l3.9-19.1c2-9.7 10.6-16.7 20.5-16.7h42.9l.1-.6c.1-.6-.2-1-.4-1.2s-.5-.5-1.1-.5h-52.8c-1.2 0-2.4-.6-3.1-1.5-.8-.9-1-2.2-.8-3.4l3.5-15.8c.4-1.8 2-3.1 3.9-3.1h67.2c4.3 0 8.3 1.9 11 5.3s3.7 7.7 2.8 11.9l-13.1 59.1c-.5 1.7-2.1 3-4 3zm-56.2-45.3c-6.1 0-11.4 4.3-12.6 10.3l-3.9 19.2c-.4 1.9.1 3.9 1.3 5.4s3.1 2.4 5 2.4h63.1l12.4-56c.4-1.8 0-3.7-1.2-5.2s-2.9-2.3-4.8-2.3h-64l-1.8 7.8h47.8c2.7 0 5.3 1.1 7.1 3.1s2.7 4.7 2.4 7.3l-.4 4.3c-.2 2-1.9 3.6-4 3.6h-46.4zm40 29.1h-34.4c-4.7 0-8.6-3.8-8.6-8.6 0-6.2 5-11.2 11.2-11.2h33.8c1.2 0 2.3.5 3.1 1.4s1.1 2.1.9 3.3l-2.1 11.8c-.3 1.9-1.9 3.3-3.9 3.3zm-31.7-11.8c-1.8 0-3.2 1.5-3.2 3.2 0 .3.3.6.6.6h31l.7-3.8z" fill="#211e2f"/></g><g><path d="m251.5 483.8h-65.5c-4.3 0-8.3-1.9-11-5.3-2.7-3.3-3.8-7.7-2.9-11.9l10.2-49.4c1.6-7.5 8.2-12.9 15.9-12.9h45.7l4.1-20.9c.4-1.9 2-3.2 3.9-3.2h21.1c1.2 0 2.4.6 3.1 1.5.8.9 1 2.2.8 3.4l-21.5 95.6c-.5 1.8-2.1 3.1-3.9 3.1zm-53.4-71.4c-3.9 0-7.3 2.8-8.1 6.6l-10.2 49.4c-.4 1.8.1 3.7 1.3 5.2s3 2.3 4.8 2.3h62.3l19.7-87.6h-12.8l-4.1 20.9c-.4 1.9-2 3.2-3.9 3.2zm36.6 53.8h-25.4c-3.4 0-6.6-1.5-8.8-4s-3.1-6-2.6-9.3l2.9-18.1c1.2-7.5 7.6-13 15.2-13l26.8-.2c1.2 0 2.4.5 3.1 1.5.8.9 1.1 2.2.8 3.4l-8.2 36.6c-.3 1.8-1.9 3.1-3.8 3.1zm3.3-36.6-21.8.2c-3.7 0-6.8 2.7-7.3 6.3l-2.9 18.1c-.2 1.4.4 2.4.8 2.8.4.5 1.3 1.2 2.7 1.2h22.2z" fill="#211e2f"/></g><g><path d="m321.6 483.8h-54.5c-4.4 0-8.6-2-11.3-5.5-2.8-3.5-3.7-8-2.7-12.3l10.1-46.6c2.1-8.9 9.9-15.1 19-15.1h55.4c4.4 0 8.6 2 11.3 5.5 2.8 3.5 3.7 8 2.7 12.3l-11 46.7c-2.1 8.8-9.9 15-19 15zm-39.4-71.4c-5.3 0-9.9 3.6-11.2 8.8l-10.1 46.6c-.5 2 0 4 1.2 5.6s3.1 2.4 5 2.4h54.5c5.4 0 9.9-3.6 11.2-8.8l11-46.7c.5-1.9 0-3.9-1.2-5.5s-3.1-2.4-5-2.4zm30.4 54.6h-28.8c-2.9 0-5.7-1.3-7.5-3.6s-2.5-5.3-1.8-8.1l5.9-24.7c1.3-5.5 6.2-9.4 11.9-9.4h28.7c2.9 0 5.6 1.3 7.5 3.6s2.5 5.2 1.8 8.1l-5.8 24.7c-1.4 5.5-6.2 9.4-11.9 9.4zm-20.4-37.8c-2 0-3.6 1.3-4.1 3.2l-5.9 24.7c-.1.6.1 1.1.3 1.3s.6.6 1.2.6h28.8c2 0 3.6-1.3 4.1-3.2l5.8-24.7c.1-.6-.1-1.1-.3-1.3s-.6-.6-1.2-.6z" fill="#211e2f"/></g><g><path d="m404.3 483.8h-54.5c-4.4 0-8.6-2-11.3-5.5-2.8-3.5-3.7-8-2.7-12.3l11.1-46.7c2.2-9.1 9.2-15 18-15h55.4c4.4 0 8.6 2 11.3 5.5 2.8 3.5 3.7 8 2.7 12.3l-11 46.7c-2.1 8.8-9.9 15-19 15zm-39.5-71.4c-5 0-8.9 3.4-10.2 8.8l-11.1 46.7c-.5 1.9 0 3.9 1.2 5.5s3.1 2.4 5 2.4h54.5c5.4 0 9.9-3.6 11.2-8.8l11-46.7c.5-1.9 0-3.9-1.2-5.5s-3.1-2.4-5-2.4zm30.5 54.6h-28.8c-2.9 0-5.7-1.3-7.5-3.6s-2.5-5.3-1.8-8.1l5.9-24.7c1.3-5.5 6.2-9.4 11.9-9.4h28.8c2.9 0 5.6 1.3 7.5 3.6s2.5 5.2 1.8 8.1l-5.8 24.7c-1.5 5.5-6.4 9.4-12 9.4zm-20.4-37.8c-2 0-3.6 1.3-4.1 3.2l-5.9 24.7c-.1.6.1 1.1.3 1.3s.6.6 1.2.6h28.8c2 0 3.6-1.3 4.1-3.2l5.8-24.7c.1-.6-.1-1.1-.3-1.3s-.6-.6-1.2-.6z" fill="#211e2f"/></g><g><path d="m435.2 506.6h-20.7c-1.2 0-2.4-.6-3.1-1.5-.8-1-1-2.2-.8-3.4l21.4-94.3c.4-1.8 2-3.1 3.9-3.1h58.6c4.7 0 9.1 2.1 12 5.7s4.2 8.3 3.3 12.9l-8.6 44.8c-1.8 9.3-10 16.1-19.5 16.1h-38.4l-4.2 19.7c-.4 1.8-2 3.1-3.9 3.1zm-15.7-8h12.4l4.2-19.7c.4-1.8 2-3.2 3.9-3.2h41.7c5.7 0 10.6-4 11.7-9.6l8.6-44.8c.4-2.2-.2-4.5-1.6-6.3s-3.6-2.8-5.9-2.8h-55.5zm24.6-32.4c-1.2 0-2.4-.5-3.1-1.5-.8-.9-1.1-2.2-.8-3.4l8.2-36.6c.4-1.8 2-3.1 3.9-3.1h25.4c3.4 0 6.6 1.5 8.8 4s3.1 6 2.6 9.3l-2.9 18.1c-1.2 7.5-7.6 13-15.2 13zm11.4-36.6-6.4 28.6 21.8-.2c3.7 0 6.8-2.7 7.3-6.3l2.9-18.1c.2-1.4-.4-2.4-.8-2.8-.4-.5-1.3-1.2-2.7-1.2z" fill="#211e2f"/></g><g><path d="m387.3 225.4c-2.4.4-24.8-9.5-24.8-9.5s-9.5 30.7 9.7 28.3c13.6-1.7 15.1-18.8 15.1-18.8" fill="#211e2f"/></g><g><path d="m335.3 123 15.9-13.9 12.2 14.2-3.9 3.9z" fill="#211e2f"/></g><g><path d="m410.5 96.7 15.3 15.6 6.6 1.5-2.3-21.4z" fill="#211e2f"/></g></g></svg>