<svg id="Layer_2" height="512" viewBox="0 0 512 512" width="512" xmlns="http://www.w3.org/2000/svg" data-name="Layer 2"><g id="Icon"><g id="_14" data-name="14"><rect id="Background" fill="#2492ff" height="512" rx="150" width="512"/><path d="m405.39 136.26c-18.87-18.87-42.31-28.3-70.33-28.3-14.98 0-28.85 3.12-41.61 9.36s-25.25 16.3-37.45 30.17c-12.21-13.87-24.69-23.93-37.45-30.17s-26.63-9.36-41.61-9.36c-28.02 0-51.46 9.43-70.33 28.3s-28.3 49.95-28.3 70.33 0 46.1 31.21 83.44c21.85 26.14 78.92 73.71 115.04 102.9 18.35 14.83 44.55 14.83 62.89 0 36.11-29.19 93.19-76.76 115.04-102.9 31.21-37.34 31.21-63.06 31.21-83.44s-9.43-51.46-28.3-70.33z" fill="#fff"/></g></g></svg>