<svg id="Layer_1" viewBox="0 0 128 128" xmlns="http://www.w3.org/2000/svg" data-name="Layer 1"><path d="m66.64 26.12-.8 1.88-.84 2-4.23 10-.85 2-1.17 2.77c-20.16.05-38.52-.04-44.25-.46-14.56-1.06-11.69-18.19-11.69-18.19z" fill="#ffdb80"/><path d="m125.17 44.31s-17.1.19-37.97.33c.09-.21.18-.43005.27-.64.58-1.38 1.15-2.72 1.69-4 1.62006-3.84 3.06-7.24 4.23-10 .3-.71.58-1.38.85-2 .29-.69.55-1.31.79-1.88h21.05c11.75 0 9.09 18.19 9.09 18.19z" fill="#ffdb80"/><path d="m84.34 4.8-32.76 77.45a2.02817 2.02817 0 0 1 -3.04.82 10.8387 10.8387 0 0 0 -10.62-1.01c-5.44 2.16-10.44 7.59-13.37 14.51-4.8 11.36-2.68 23.25 4.73 26.50995a11.32647 11.32647 0 0 0 8.84-.16c5.48-2.18 10.48-7.57 13.38-14.43.79-1.86 37.65-88.99 37.65-88.99 2.17-5.12995-.07-11.52995-4.81-14.69995zm-37.69 101.09c-1.63 4.06-4.51 7.23-7.71 8.5a7.6494 7.6494 0 0 1 -6.01-.04c-4.77-2.22-6.34-9.35-3.58-16.25 1.63-4.05 4.51-7.23 7.71-8.5a7.46992 7.46992 0 0 1 6.01.05c4.77 2.21 6.34 9.35 3.58 16.24z" fill="#81d9e3"/><path d="m56.53711 49.998h-7.20642c1.16718 2.77637 2.37372 5.631 3.60083 8.52289z" fill="#81d9e3"/><path d="m51.62 19.99v.01h-14.32c-.2-.59-.36-1.1-.47-1.5-3-11 7.39-16.5 7.39-16.5z" fill="#81d9e3"/><path d="m98.67 125c-11.5 4.5-21.34-9.96-21.34-9.96s-4.29-9.81-10.09-23.2c.36-.85.72-1.71 1.1-2.6v-.01c.14-.33.28-.66.43-.99v-.01c1.47-3.5 3.05-7.22 4.67-11.05.19-.47.39-.95.6-1.42.08-.21.17-.42.26-.63l1.85 4.5c-.1-.28-.44-2.32 11.92-.3 13.24 2.17 17.76 18.17 19.27 22 1.5 3.84 2.83 19.17-8.67 23.67z" fill="#81d9e3"/><path d="m98.65 98.1c-1.63-4.05-4.51-7.23-7.71-8.5a7.46992 7.46992 0 0 0 -6.01.05c-4.77 2.21-6.34 9.35-3.58 16.24 1.31 3.28 4.19 7.06 7.7 8.52a7.19718 7.19718 0 0 0 6.02-.06c4.77-2.22 6.34-9.35 3.58-16.25zm-5.27 12.62c-3.7 1.72-7.21-3.56-8.32-6.31-2.1-5.25-.89-10 1.56-11.13 3.7-1.72 7.21 3.55 8.32 6.31 2.1 5.25.89 9.99-1.56 11.13z" fill="#2d4356"/><path d="m93.38 110.72c-3.7 1.72-7.21-3.56-8.32-6.31-2.1-5.25-.89-10 1.56-11.13 3.7-1.72 7.21 3.55 8.32 6.31 2.1 5.25.89 9.99-1.56 11.13z" fill="#e1ebf4"/><path d="m84.16.16a2.02425 2.02425 0 0 0 -2.64 1.05l-32.71 77.32q-.285-.15-.57-.27a14.99531 14.99531 0 0 0 -11.79.09c-6.42 2.55-12.25 8.78-15.58 16.66-5.65 13.36-2.6 27.59 6.8 31.73 11.78 5.18 23.3-6.73 27.52-16.69.79-1.86 37.64-89 37.64-89 3.3-7.8-.67-17.37-8.67-20.89zm4.99 19.34s-36.86 87.13-37.65 88.99c-2.9 6.86-7.9 12.25-13.38 14.43a11.32647 11.32647 0 0 1 -8.84.16c-7.41-3.26-9.53-15.15-4.73-26.51 2.93-6.92 7.93-12.35 13.37-14.51a10.8387 10.8387 0 0 1 10.62 1.01 2.02817 2.02817 0 0 0 3.04-.82l32.76-77.45c4.74 3.17 6.98 9.57 4.81 14.7z" fill="#2d4356"/><path d="m43.07 89.65a7.46992 7.46992 0 0 0 -6.01-.05c-3.2 1.27-6.08 4.45-7.71 8.5-2.75995 6.9-1.19 14.03 3.58 16.25a7.6494 7.6494 0 0 0 6.01.04c3.2-1.27 6.08-4.44 7.71-8.5 2.76-6.89 1.19-14.03-3.58-16.24zm-.13 14.76c-1.21 3-3.3 5.4-5.47 6.26a3.49925 3.49925 0 0 1 -2.85.05c-2.45-1.14-3.66-5.88-1.56-11.13 1.21-3.01 3.3-5.41 5.47-6.27a3.662 3.662 0 0 1 2.85-.04c2.45 1.13 3.66 5.88 1.56 11.13z" fill="#2d4356"/><path d="m42.94 104.41c-1.21 3-3.3 5.4-5.47 6.26a3.49925 3.49925 0 0 1 -2.85.05c-2.45-1.14-3.66-5.88-1.56-11.13 1.21-3.01 3.3-5.41 5.47-6.27a3.662 3.662 0 0 1 2.85-.04c2.45 1.13 3.66 5.88 1.56 11.13z" fill="#e1ebf4"/><g fill="#2d4356"><circle cx="63" cy="67.998" r="2"/><path d="m39.05634 19.99269-.20428-.4834c-2.16895-5.13269.06494-11.53479 4.80712-14.70367l6.41925 15.18707h4.34247l-7.937-18.77769a2.03147 2.03147 0 0 0 -2.64845-1.05184 16.45533 16.45533 0 0 0 -9.05475 19.82953z"/><path d="m51.97522 60.83651 2.17126-5.137q-1.22223-2.89178-2.40991-5.7016h-4.34257c1.47966 3.50064 3.02055 7.14621 4.58122 10.8386z"/><path d="m116 23.99788h-20.02826l-1.69067 4h21.71893c4.41113 0 8 4.87109 8 10.85742v3.14258h-35.63635q-.8205 1.94128-1.69067 4h39.32702a2.0001 2.0001 0 0 0 2-2v-5.14258c0-8.19238-5.3833-14.85742-12-14.85742z"/><path d="m59.9715 41.99788h-47.9715c-4.41113 0-8-4.87109-8-10.85742v-3.14258h61.88879l1.69067-4h-65.57946a2.0001 2.0001 0 0 0 -2 2v5.14258c0 8.19238 5.3833 14.85742 12 14.85742h46.28082z"/></g><path d="m106 109.72q-.015-.49493-.06-.99a32.02218 32.02218 0 0 0 -2.49-10.13c-2.93-6.94-7.93-12.38-13.37-14.54a11.06722 11.06722 0 0 0 -8.7-.15 9.90741 9.90741 0 0 0 -1.92 1.16 2.02817 2.02817 0 0 1 -3.04-.82c0-.01-2.12-5.03-2.98-7.07.19-.47.39-.95.6-1.42.82 2.06995 2.38 6.48 2.38 6.49a2.02817 2.02817 0 0 0 3.04.82 9.90741 9.90741 0 0 1 1.92-1.16 11.06722 11.06722 0 0 1 8.7.15c5.44 2.16 10.44 7.6 13.37 14.54a31.71664 31.71664 0 0 1 2.55 11.19c.03.66.02 1.3 0 1.93z" fill="#e8fbfc" opacity=".4"/><path d="m51.62 19.99v.01h-2.38l-5.58-13.19a12.9675 12.9675 0 0 0 -5.6 9.51 12.84343 12.84343 0 0 1 5.6-11.51l6.42 15.18z" fill="#e8fbfc" opacity=".4"/><path d="m124 38.86v2c0-.29-.01-.58-.03-.86-.32-5.59-3.77-10-7.97-10h-22.61c.3-.71.58-1.38.85-2h21.76c4.41 0 8 4.87 8 10.86z" fill="#f9edd2" opacity=".5"/><path d="m65.84 28-.84 2h-61v-2z" fill="#f9edd2" opacity=".5"/><path d="m93.38 110.72c-3.7 1.72-7.21-3.56-8.32-6.31a13.69184 13.69184 0 0 1 -1.03-6.28 14.37848 14.37848 0 0 0 1.03 4.28c1.11 2.75 4.62 8.03 8.32 6.31 1.39-.64 2.38-2.45 2.59-4.85.28 3.37-.84 6.03-2.59 6.85z" fill="#9fa5aa" opacity=".5"/><path d="m106 109.72c-.23 6.31-2.78 11.47-7.28 13.46a11.24022 11.24022 0 0 1 -8.84-.16c-5.48-2.18-10.48-7.59-13.38-14.46-.23-.55-3.57-8.45-8.16-19.32v-.01c.14-.33.28-.66.43-.99 4.37 10.36 7.51 17.79 7.73 18.32 2.9 6.87 7.9 12.28 13.38 14.46a11.24022 11.24022 0 0 0 8.84.16c4.26-1.88 6.76-6.61 7.22-12.45.03-.31.05-.62.06-.94.03.66.02 1.3 0 1.93z" fill="#0f423c" opacity=".3"/><path d="m89.94 16.31a12.96761 12.96761 0 0 0 -5.6-9.51l-32.76 77.45a2.02811 2.02811 0 0 1 -3.04.82 10.83873 10.83873 0 0 0 -10.62-1.01c-5.44 2.16-10.44 7.59-13.37 14.51a31.74609 31.74609 0 0 0 -2.55 11.11 30.99057 30.99057 0 0 1 2.55-13.11c2.93-6.92 7.93-12.35 13.37-14.51a10.83873 10.83873 0 0 1 10.62 1.01 2.02811 2.02811 0 0 0 3.04-.82l32.76-77.45a12.854 12.854 0 0 1 5.6 11.51z" fill="#e8fbfc" opacity=".4"/><path d="m89.15 19.5s-36.86 87.13-37.65 88.99c-2.9 6.86-7.9 12.25-13.38 14.43a11.32647 11.32647 0 0 1 -8.84.16c-4.96-2.18-7.55-8.23-7.28-15.4.24 6.27 2.78 11.42 7.28 13.4a11.32647 11.32647 0 0 0 8.84-.16c5.48-2.18 10.48-7.57 13.38-14.43.79-1.86 37.65-88.99 37.65-88.99a10.51547 10.51547 0 0 0 .79-3.19 10.88138 10.88138 0 0 1 -.79 5.19z" fill="#0f423c" opacity=".3"/><path d="m42.94 104.41c-1.21 3-3.3 5.4-5.47 6.26a3.49939 3.49939 0 0 1 -2.85.05c-1.75-.82-2.87-3.48-2.59-6.85.21 2.4 1.2 4.21 2.59 4.85a3.49939 3.49939 0 0 0 2.85-.05c2.17-.86 4.26-3.26 5.47-6.26a14.37868 14.37868 0 0 0 1.03-4.28 13.692 13.692 0 0 1 -1.03 6.28z" fill="#9fa5aa" opacity=".5"/><path d="m124 40v2h-35.64c-.27.65-.56 1.32-.84 2h-.05c.58-1.38 1.15-2.72 1.69-4z" fill="#ad9359" opacity=".45"/><path d="m60.77 40-.85 2h-47.92c-4.41 0-8-4.87-8-10.86v-2c0 .29.01.58.03.86.32 5.59 3.77 10 7.97 10z" fill="#ad9359" opacity=".45"/><path d="m91.55176 78.3329a14.98365 14.98365 0 0 0 -11.78857-.09q-.28857.12762-.57617.27393l-3.16235-7.49609q-1.093 2.59076-2.1712 5.14648l2.56549 6.08129a2.03057 2.03057 0 0 0 3.0459.82087 9.67349 9.67349 0 0 1 1.9116-1.15938 11.08235 11.08235 0 0 1 8.69873.14771c5.4458 2.16718 10.44482 7.60425 13.37256 14.54413 4.80371 11.38776 2.68408 23.31073-4.7251 26.58063a11.27334 11.27334 0 0 1 -8.84375-.16339c-5.47949-2.18091-10.48242-7.58667-13.38281-14.461-.23083-.54742-3.562-8.44379-8.15356-19.32758-.753 1.785-1.4787 3.50519-2.17126 5.14673 3.79413 8.99371 6.43567 15.25525 6.64026 15.74042 3.30859 7.843 9.13672 14.05786 15.59082 16.62622a15.44155 15.44155 0 0 0 11.93213.10565c9.39795-4.14648 12.44727-18.41571 6.79785-31.80725-3.33594-7.90755-9.16016-14.15377-15.58057-16.70937z" fill="#2d4356"/></svg>