<svg id="Capa_1" enable-background="new 0 0 512 512" height="512" viewBox="0 0 512 512" width="512" xmlns="http://www.w3.org/2000/svg"><g><g><path d="m225.235 20.972-213.086 347.487c-3.04 4.957-4.649 10.659-4.649 16.474 0 17.404 14.109 31.514 31.514 31.514h433.973c17.404 0 31.514-14.109 31.514-31.514 0-5.815-1.609-11.517-4.649-16.474l-213.087-347.487c-6.562-10.701-18.213-17.223-30.765-17.223-12.552 0-24.203 6.522-30.765 17.223z" fill="#ffe177"/></g><g><path d="m499.851 368.459-148.992-242.966c-9.326 54.478-27.617 112.139-55.197 169.187-21.892 45.282-47.718 86.225-75.894 121.766h253.219c17.404 0 31.514-14.109 31.514-31.514-.001-5.814-1.61-11.516-4.65-16.473z" fill="#ffd15b"/></g><g><path d="m51.29 384.121c-4.737 0-7.643-5.191-5.167-9.229l206.669-337.021c.68-1.108 1.909-1.796 3.208-1.796s2.528.688 3.208 1.796l206.669 337.021c2.477 4.039-.43 9.229-5.167 9.229z" fill="#feb237"/></g><g><g><circle cx="256" cy="332.603" fill="#5a5a5a" r="19.193"/></g><g><path d="m256 108.806c-10.6 0-19.193 8.593-19.193 19.193v133.892c0 10.6 8.593 19.193 19.193 19.193s19.193-8.593 19.193-19.193v-133.892c0-10.6-8.593-19.193-19.193-19.193z" fill="#5a5a5a"/></g></g><g fill="#5a5a5a"><path d="m87.035 448.212c-.786-3.856-4.08-6.705-8.01-6.927-3.92-.231-7.523 2.237-8.739 5.98-.028.087-.055.174-.08.262l-8.362 29.335-8.677-29.41c-.026-.09-.055-.179-.084-.268-1.254-3.731-4.862-6.152-8.803-5.891-3.929.264-7.192 3.147-7.954 7.101l-9.136 50.616c-.735 4.076 1.973 7.977 6.049 8.713 4.073.734 7.978-1.972 8.713-6.049l4.393-24.338 7.297 24.733c.026.089.054.178.084.266 1.189 3.542 4.489 5.912 8.222 5.912h.048c3.751-.021 7.048-2.432 8.204-6 .027-.085.054-.17.078-.255l7.043-24.708 4.677 24.466c.777 4.07 4.713 6.734 8.774 5.959 4.068-.778 6.736-4.706 5.958-8.774z"/><path d="m7.5 441.271c-4.143 0-7.5 3.358-7.5 7.5v51.978c0 4.142 3.357 7.5 7.5 7.5s7.5-3.358 7.5-7.5v-51.978c0-4.142-3.357-7.5-7.5-7.5z"/><path d="m196.694 441.271c-18.466 0-33.488 15.023-33.488 33.489s15.022 33.489 33.488 33.489 33.489-15.023 33.489-33.489-15.023-33.489-33.489-33.489zm0 51.978c-10.194 0-18.488-8.294-18.488-18.489s8.294-18.489 18.488-18.489c10.195 0 18.489 8.294 18.489 18.489s-8.293 18.489-18.489 18.489z"/><path d="m130.398 441.271h-13.812c-4.141 0-7.497 3.355-7.5 7.496l-.017 51.982c0 4.142 3.357 7.5 7.5 7.5s7.5-3.358 7.5-7.5v-17.441c2.407-.011 4.836-.02 6.329-.02 12.006 0 21.772-9.424 21.772-21.008s-9.766-21.009-21.772-21.009zm0 27.017c-1.493 0-3.917.009-6.324.02l.007-12.037h6.317c3.671 0 6.772 2.751 6.772 6.008s-3.101 6.009-6.772 6.009z"/><path d="m285.561 462.28c0-11.584-9.767-21.008-21.772-21.008h-13.812c-4.141 0-7.497 3.355-7.5 7.496l-.017 51.982c0 4.142 3.357 7.5 7.5 7.5s7.5-3.358 7.5-7.5v-12.056l14.972 17.011c1.482 1.685 3.553 2.545 5.633 2.545 1.76 0 3.527-.616 4.952-1.87 3.109-2.736 3.411-7.476.675-10.585l-12.204-13.866c8.215-3.009 14.073-10.68 14.073-19.649zm-28.09-6.009h6.317c3.671 0 6.772 2.751 6.772 6.008s-3.102 6.008-6.772 6.008c-1.493 0-3.917.009-6.324.02z"/><path d="m338.89 448.771c0-4.142-3.357-7.5-7.5-7.5h-28.704c-4.143 0-7.5 3.358-7.5 7.5s3.357 7.5 7.5 7.5h6.794v44.478c0 4.142 3.357 7.5 7.5 7.5s7.5-3.358 7.5-7.5v-44.478h6.91c4.142 0 7.5-3.357 7.5-7.5z"/><path d="m448.537 441.271c-4.143 0-7.5 3.358-7.5 7.5v27.979l-22.34-32.25c-1.867-2.696-5.27-3.868-8.402-2.888-3.131.979-5.263 3.878-5.263 7.159v51.978c0 4.142 3.357 7.5 7.5 7.5s7.5-3.358 7.5-7.5v-27.979l22.34 32.25c1.427 2.061 3.752 3.23 6.166 3.23.744 0 1.498-.111 2.236-.342 3.131-.979 5.263-3.878 5.263-7.159v-51.978c0-4.142-3.357-7.5-7.5-7.5z"/><path d="m504.5 441.271h-28.705c-4.143 0-7.5 3.358-7.5 7.5s3.357 7.5 7.5 7.5h6.795v44.478c0 4.142 3.357 7.5 7.5 7.5s7.5-3.358 7.5-7.5v-44.478h6.91c4.143 0 7.5-3.358 7.5-7.5s-3.357-7.5-7.5-7.5z"/><path d="m372.896 446.854c-.025-.068-.052-.136-.08-.203-1.343-3.269-4.492-5.379-8.025-5.379-.003 0-.006 0-.009 0-3.536.003-6.687 2.121-8.024 5.394-.022.056-.045.112-.066.168l-19.518 51.246c-1.475 3.871.469 8.204 4.34 9.678 3.864 1.472 8.203-.468 9.678-4.339l3.021-7.932h21.005l2.985 7.911c1.133 3.003 3.987 4.854 7.018 4.854.88 0 1.775-.156 2.647-.485 3.875-1.462 5.831-5.79 4.368-9.665zm-12.971 33.632 4.838-12.702 4.793 12.702z"/></g></g></svg>