<svg id="Capa_1" enable-background="new 0 0 511.996 511.996" height="512" viewBox="0 0 511.996 511.996" width="512" xmlns="http://www.w3.org/2000/svg"><g><g><path d="m256.007 96.467c-4.142 0-7.5-3.357-7.5-7.5v-46.655c0-4.143 3.358-7.5 7.5-7.5 4.143 0 7.5 3.357 7.5 7.5v46.654c0 4.143-3.358 7.501-7.5 7.501z" fill="#e9f1ff"/></g><path d="m7.5 88.966h496.996v186.374h-496.996z" fill="#e9f1ff"/><path d="m7.5 88.966h31.062v186.374h-31.062z" fill="#d7e4f7"/><path d="m38.562 120.029h434.834v124.249h-434.834z" fill="#d7e4f7"/><g><g fill="#bed2ee"><path d="m504.496 81.467h-496.996c-4.142 0-7.5 3.357-7.5 7.5v186.373c0 4.143 3.358 7.5 7.5 7.5h496.996c4.143 0 7.5-3.357 7.5-7.5v-186.373c0-4.143-3.357-7.5-7.5-7.5zm-14.5 186.373h-467.996c-3.866 0-7-3.134-7-7v-157.373c0-3.866 3.134-7 7-7h467.996c3.866 0 7 3.134 7 7v157.373c0 3.866-3.134 7-7 7z"/><path d="m38.562 251.777h434.834c4.143 0 7.5-3.357 7.5-7.5v-124.249c0-4.143-3.357-7.5-7.5-7.5h-310.275c-.103-.004-.205-.007-.309-.007s-.206.003-.309.007h-123.941c-4.142 0-7.5 3.357-7.5 7.5v124.249c0 4.143 3.358 7.5 7.5 7.5zm427.334-93.186v16.062h-31.649v-16.062zm-357.646 0v16.062h-16.1v-16.062zm31.1 0v16.062h-16.1v-16.062zm31.1 0v16.062h-16.1v-16.062zm31.099 0v16.062h-16.1v-16.062zm30.811 0v16.062h-15.811v-16.062zm31.389 0v16.062h-16.389v-16.062zm31.1 0v16.062h-16.1v-16.062zm31.099 0v16.062h-16.1v-16.062zm31.1 0v16.062h-16.1v-16.062zm31.099 0v16.062h-16.1v-16.062zm15.55 47.125h-15.95v-16.062h15.95zm-171.261 0v-16.062h16.062v16.062zm-31.062 0v-16.062h16.062v16.062zm-31.062 0v-16.062h16.062v16.062zm-31.063 0v-16.062h16.062v16.062zm-31.062-16.063h16.062v16.062h-16.062zm155.311 0h16.062v16.062h-16.062zm31.063 0h16.062v16.062h-16.062zm31.061 0h16.062v16.062h-16.062zm31.063 0h16.062v16.062h-16.062zm-263.498 0v16.062h-47.125v-16.062zm0 31.063v16.062h-16.062v-16.062zm15 0h16.062v16.062h-16.062zm31.062 0h140.311v16.062h-140.311zm155.312 0h16.062v16.062h-16.062zm31.061 0h16.062v16.062h-16.062zm31.063 0h16.062v16.062h-16.062zm31.062 0h15.95v16.062h-15.95zm30.95-31.063h47.199v16.062h-47.199zm.55-15h-16.1v-16.062h16.1zm-31.5-31.062v-16.062h16.062v16.062zm-15 0h-16.062v-16.062h16.062zm-31.062 0h-16.062v-16.062h16.062zm-31.063 0h-16.062v-16.062h16.062zm-31.061 0h-16.062v-16.062h16.062zm-31.063 0h-16.062v-16.062h16.062zm-31.062 0h-16.062v-16.062h16.062zm-31.062 0h-16.062v-16.062h16.062zm-31.062 0h-16.062v-16.062h16.062zm-31.063 0h-16.062v-16.062h16.062zm-31.062 0h-16.062v-16.062h16.062zm-16.037 15v16.062h-31.088v-16.062zm-31.088 62.125h16.062v16.062h-16.062zm372.635 16.061v-16.062h47.199v16.062zm47.199-93.186h-47.086v-16.062h47.087v16.062zm-403.771-16.063v16.062h-16.063v-16.062z"/></g></g><path d="m457.903 314.553c-8.578 0-15.531 6.954-15.531 15.531v-6.759c0-8.578-6.953-15.531-15.531-15.531s-15.531 6.953-15.531 15.531v-5.26c0-8.578-6.953-15.531-15.531-15.531s-15.531 6.953-15.531 15.531v-84.679c0-8.578-6.953-15.531-15.531-15.531s-15.531 6.954-15.531 15.531v108.718c0 12.729-9.379 11.985-12.746 5.855-8.832-16.083-12.912-33.031-30.855-41.317-14.977-6.916-26.992 3.015-22.997 11.371 13.791 28.843 20.735 51.695 31.523 78.77 3.863 9.696 15.188 16.029 20.863 22.362 7.558 8.435 10.586 15.417 11.272 26.977l15 10h88.626l10.457-10c.598-10.067 1.782-18.58 6.63-26.547 4.333-7.121 6.476-15.362 6.476-23.697v-57.285-8.508c-.001-8.578-6.955-15.532-15.532-15.532z" fill="#fed2a4"/><g fill="#ffbd86"><path d="m364.185 342.104v-108.718c0-5.858 3.243-10.958 8.031-13.603-2.224-1.229-4.78-1.928-7.5-1.928-8.578 0-15.531 6.954-15.531 15.531v108.718c0 .51-.015.999-.044 1.466-.001 10.511 15.044 13.678 15.044-1.466z"/><path d="m380.213 341.604c0 10.831 15 10.365 15 0v-39.059c-8.316.297-14.966 7.132-14.966 15.521v-84.679c0-.313-.01-.625-.028-.933-.004.144-.006.288-.006.433z"/><path d="m426.292 341.604v-33.8c-8.324.289-14.983 7.127-14.983 15.521v-5.26c0-.243-.006-.485-.017-.726v24.265c0 10.831 15 10.364 15 0z"/><path d="m442.372 330.084v11.519c0 10.831 15 10.365 15 0v-27.041c-8.332.281-15 7.123-15 15.522z"/><path d="m349.973 419.145c-5.675-6.333-17-12.667-20.863-22.362-10.788-27.075-17.733-49.927-31.523-78.77-2.22-4.643.503-9.772 5.931-12.227-13.992-5.14-24.741 4.259-20.931 12.227 13.791 28.843 20.735 51.695 31.523 78.77 3.863 9.696 15.188 16.029 20.863 22.362 7.558 8.435 10.586 15.417 11.272 26.977l15 10v-10c-.686-11.56-3.714-18.542-11.272-26.977z"/></g><path d="m206.412 302.003c-17.944 8.286-22.023 25.233-30.855 41.317-3.366 6.131-12.746 6.874-12.746-5.855v-108.719c0-8.578-6.953-15.531-15.531-15.531s-15.531 6.954-15.531 15.531v84.679c0-8.578-6.953-15.531-15.531-15.531s-15.531 6.953-15.531 15.531v5.26c0-8.578-6.953-15.531-15.531-15.531s-15.531 6.953-15.531 15.531v6.759c0-8.578-6.953-15.531-15.531-15.531s-15.531 6.954-15.531 15.531v8.508 57.285c0 8.336 2.143 16.576 6.476 23.697 4.848 7.967 6.032 16.48 6.63 26.547l15.33 10h80.282l18.47-10c.686-11.56 3.714-18.541 11.273-26.977 5.675-6.333 17-12.667 20.863-22.362 10.788-27.075 17.733-49.927 31.523-78.77 3.995-8.355-8.021-18.285-22.998-11.369z" fill="#fed2a4"/><path d="m66.668 441.482c-.598-10.067-1.782-18.58-6.63-26.547-4.333-7.121-6.476-15.362-6.476-23.697v-65.792-.084.084c0-5.858 3.243-10.958 8.031-13.603-2.223-1.229-4.78-1.928-7.5-1.928-8.578 0-15.531 6.954-15.531 15.531v65.792c0 8.336 2.143 16.576 6.476 23.697 4.848 7.967 6.032 16.48 6.63 26.547l15.33 10z" fill="#ffbd86"/><path d="m146.749 337.404v-108.658c0-5.858 3.243-10.958 8.031-13.603-2.223-1.229-4.78-1.928-7.5-1.928-8.578 0-15.531 6.954-15.531 15.531v108.657c0 10.213 15 10.213 15 .001z" fill="#ffbd86"/><path d="m115.687 337.404v-39.5c-8.332.28-15 7.122-15 15.522v23.978c0 10.212 15 10.212 15 0z" fill="#ffbd86"/><path d="m84.625 337.404v-34.24c-8.332.28-15 7.122-15 15.522v18.718c0 10.212 15 10.212 15 0z" fill="#ffbd86"/><path d="m190.557 343.319c8.832-16.083 12.912-33.031 30.855-41.317.695-.321 1.385-.606 2.066-.856-4.341-1.963-10.411-2.217-17.066.856-16.317 7.535-21.17 22.232-28.557 36.928.699 11.195 9.471 10.274 12.702 4.389z" fill="#ffbd86"/><path d="m38.582 465.544v-17.062c0-3.866 3.134-7 7-7h123.822c3.866 0 7 3.134 7 7v17.062c0 3.866-3.134 7-7 7h-123.822c-3.866 0-7-3.134-7-7z" fill="#ff405c"/><path d="m38.582 448.482v17.062c0 3.866 3.134 7 7 7h21.416v-31.062h-21.416c-3.866 0-7 3.134-7 7z" fill="#d0004f"/><path d="m473.414 470.184v-17.062c0-3.866-3.134-7-7-7h-123.822c-3.866 0-7 3.134-7 7v17.062c0 3.866 3.134 7 7 7h123.822c3.866 0 7-3.134 7-7z" fill="#ff405c"/><path d="m335.592 453.121v17.062c0 3.866 3.134 7 7 7h18.654v-31.062h-18.654c-3.866 0-7 3.134-7 7z" fill="#d0004f"/></g></svg>