<svg enable-background="new 0 0 32 32" height="512" viewBox="0 0 32 32" width="512" xmlns="http://www.w3.org/2000/svg"><g id="_x31_6_keys"><path d="m22.948 4.5c-1.654.029-2.976 1.399-2.948 3.053.029 1.625 1.374 2.948 2.999 2.948h.054c1.653-.029 2.975-1.399 2.947-3.053-.029-1.626-1.374-2.948-3.052-2.948zm.07 4h-.019c-.541 0-.989-.44-.999-.982-.01-.552.431-1.008 1-1.019.542.001.99.441 1 .983.009.552-.432 1.008-.982 1.018zm-.018-7.5c-4.411 0-8 3.589-8 8 0 2.906 1.517 5.505 4 6.926v1.074c0 .265.105.52.293.707l2.49 2.49-.678 1.355c-.141.282-.141.613 0 .895l.777 1.553-.776 1.553c-.07.138-.106.292-.106.447v2c0 .265.105.52.293.707l2 2c.195.195.451.293.707.293s.512-.098.707-.293l2-2c.188-.187.293-.442.293-.707v-12.074c2.483-1.421 4-4.02 4-6.926 0-4.411-3.589-8-8-8zm2.573 13.416c-.35.166-.573.518-.573.904v12.266l-1 1-1-1v-1.35l.895-1.789c.141-.282.141-.613 0-.895l-.777-1.552.776-1.553c.192-.385.117-.85-.188-1.154l-2.706-2.707v-1.266c0-.387-.223-.739-.573-.904-2.114-.999-3.427-3.074-3.427-5.416 0-3.309 2.691-6 6-6s6 2.691 6 6c0 2.342-1.313 4.417-3.427 5.416zm-7.603 2.534c0 .552-.417 1-.97 1-.791.096-1.617.062-2.431-.105l-8.862 8.862c-.187.188-.442.293-.707.293h-3c-.552 0-1-.448-1-1v-3c0-.265.105-.52.293-.707l1-1c.187-.188.442-.293.707-.293h1.279l.772-2.316c.1-.298.334-.533.632-.632l2.122-.707-.775-3.102c-.085-.341.015-.701.263-.95l1.147-1.147c-.771-2.756-.002-5.758 2.043-7.803 1.166-1.165 2.64-1.932 4.264-2.217.599-.108 1.179.375 1.179.985 0 .513-.382.936-.879.993-1.199.221-2.288.792-3.149 1.653-1.649 1.65-2.19 4.128-1.379 6.315.136.366.046.778-.23 1.055l-1.18 1.18.863 3.451c.126.507-.158 1.026-.654 1.191l-2.526.842-.842 2.526c-.137.408-.519.683-.95.683h-1.586l-.414.414v1.586h1.586l8.967-8.967c.258-.257.635-.354.983-.254.74.213 1.509.274 2.283.178.586-.071 1.151.4 1.151.993z"/></g></svg>