<svg fill="none" height="512" viewBox="0 0 120 120" width="512" xmlns="http://www.w3.org/2000/svg"><path d="m10.0343 15.8727c-.05727-3.2851 2.6148-5.98308 5.8947-5.7896 15.0023.8852 26.4198 5.7789 33.7397 15.2954.6296.8185.4697 1.9804-.3213 2.6441l-27.999 23.494c-.9328.7827-2.3469.5553-2.9599-.4969-6.3067-10.8248-8.0895-19.9491-8.3542-35.147z" fill="#e99a00"/><path d="m110.046 15.9338c.057-3.2852-2.615-5.98309-5.894-5.7896-15.0028.8852-26.4202 5.7789-33.7402 15.2954-.6296.8185-.4697 1.9804.3213 2.6441l27.999 23.494c.9329.7827 2.3469.5553 2.9599-.4969 6.307-10.8248 8.089-19.9491 8.354-35.147z" fill="#e99a00"/><path d="m91 89.4286c0-10.7301-15.1395-19.4286-31-19.4286s-31 8.6985-31 19.4286c0 24.7614 62 24.7614 62 0z" fill="#ce3b3b"/><path d="m106 54.9474c0-23.7192-22.4651-42.9474-46-42.9474s-46 19.2282-46 42.9474c0 54.7366 92 54.7366 92 0z" fill="#ffba33"/><path d="m35 48c0 3.3137 2.6863 6 6 6s6-2.6863 6-6-2.6863-6-6-6-6 2.6863-6 6z" fill="#000"/><path d="m73 48c0 3.3137 2.6863 6 6 6s6-2.6863 6-6-2.6863-6-6-6-6 2.6863-6 6z" fill="#000"/><path d="m62 61c0 2.0614 1.861 4 4.5 4s4.5-1.9386 4.5-4c0-1.1046.8954-2 2-2s2 .8954 2 2c0 4.566-3.9593 8-8.5 8-2.5491 0-4.915-1.0823-6.5-2.8395-1.585 1.7572-3.9509 2.8395-6.5 2.8395-2.6248 0-5.0086-1.1241-6.5844-2.9386-1.1847-1.3642-1.9156-3.1262-1.9156-5.0614 0-1.1046.8954-2 2-2s2 .8954 2 2c0 .9027.3363 1.7484.9357 2.4386.8067.9289 2.0837 1.5614 3.5643 1.5614 2.639 0 4.5-1.9386 4.5-4v-8h4z" fill="#000"/><path clip-rule="evenodd" d="m66 54c0 2.2091-1.7909 4-4 4h-4c-2.2091 0-4-1.7909-4-4s1.7909-4 4-4h4c2.2091 0 4 1.7909 4 4z" fill="#ce3b3b" fill-rule="evenodd"/><g fill="#000"><path d="m12.2515 56.4995c-.3778 1.0379.1574 2.1856 1.1953 2.5634l8.4573 3.0782c1.0379.3778 2.1856-.1574 2.5634-1.1954.3778-1.0379-.1574-2.1856-1.1954-2.5634l-8.4572-3.0782c-1.038-.3778-2.1856.1574-2.5634 1.1954z"/><path d="m25.1741 68.6778c1.0107-.4456 2.1913.0124 2.637 1.023.4457 1.0107-.0123 2.1913-1.023 2.637l-8.2349 3.6313c-1.0107.4457-2.1913-.0123-2.6369-1.023-.4457-1.0106.0123-2.1912 1.023-2.6369z"/><path d="m30.6314 78.7273c.7811-.7811 2.0474-.7811 2.8285 0 .781.781.781 2.0474 0 2.8284l-6.364 6.364c-.781.781-2.0474.781-2.8284 0-.7811-.7811-.7811-2.0474 0-2.8285z"/><path d="m89.5451 78.7273c-.7811-.7811-2.0474-.7811-2.8285 0-.781.781-.781 2.0474 0 2.8284l6.364 6.364c.781.781 2.0474.781 2.8284 0 .7811-.7811.7811-2.0474 0-2.8285z"/><path d="m92.3654 69.7008c.4457-1.0106 1.6263-1.4686 2.637-1.023l8.2346 3.6314c1.011.4457 1.469 1.6263 1.023 2.6369-.445 1.0107-1.626 1.4687-2.637 1.023l-8.2346-3.6313c-1.0106-.4457-1.4686-1.6263-1.023-2.637z"/><path d="m106.73 59.0629c1.038-.3778 1.573-1.5255 1.195-2.5634-.378-1.038-1.525-1.5732-2.563-1.1954l-8.4576 3.0782c-1.038.3778-1.5731 1.5255-1.1954 2.5634.3778 1.038 1.5255 1.5732 2.5635 1.1954z"/></g><path d="m69 101c0 4.971-4.0294 9-9 9s-9-4.029-9-9c0-4.9706 4.0294-9 9-9s9 4.0294 9 9z" fill="#ff7a00"/></svg>