<svg id="Capa_1" enable-background="new 0 0 512 512" height="512" viewBox="0 0 512 512" width="512" xmlns="http://www.w3.org/2000/svg"><g><g><path d="m216.887 149.838h-196.05c-11.494 0-20.811-9.317-20.811-20.811v-108.216c0-11.494 9.317-20.811 20.811-20.811h196.05c11.494 0 20.811 9.317 20.811 20.811v108.217c0 11.493-9.317 20.81-20.811 20.81z" fill="#fd8087"/><path d="m216.887 0h-31.216c11.494 0 20.811 9.317 20.811 20.811v108.217c0 11.494-9.317 20.811-20.811 20.811h31.216c11.494 0 20.811-9.317 20.811-20.811v-108.217c0-11.494-9.317-20.811-20.811-20.811z" fill="#fe646f"/></g><g><path d="m375.95 330.893h-251.059c-11.494 0-20.811-9.317-20.811-20.811v-108.216c0-11.494 9.317-20.811 20.811-20.811h251.059c11.494 0 20.811 9.317 20.811 20.811v108.217c0 11.493-9.317 20.81-20.811 20.81z" fill="#ffe177"/><path d="m375.95 181.055h-31.216c11.494 0 20.811 9.317 20.811 20.811v108.217c0 11.494-9.317 20.811-20.811 20.811h31.216c11.494 0 20.811-9.317 20.811-20.811v-108.217c0-11.494-9.317-20.811-20.811-20.811z" fill="#ffd15b"/></g><g><path d="m491.163 512h-421.504c-11.494 0-20.811-9.317-20.811-20.811v-108.216c0-11.494 9.317-20.811 20.811-20.811h421.504c11.494 0 20.811 9.317 20.811 20.811v108.217c0 11.493-9.317 20.81-20.811 20.81z" fill="#fea713"/><path d="m491.163 362.162h-31.216c11.494 0 20.811 9.317 20.811 20.811v108.217c0 11.494-9.317 20.811-20.811 20.811h31.216c11.494 0 20.811-9.317 20.811-20.811v-108.217c0-11.494-9.317-20.811-20.811-20.811z" fill="#fe9901"/><g fill="#f2fbff"><path d="m94.902 74.919c0-24.402-13.821-40.797-34.393-40.797h-18.861c-1.992 0-3.902.792-5.309 2.202s-2.195 3.321-2.191 5.313l.135 66.595c.004 1.992.8 3.899 2.212 5.304 1.406 1.397 3.307 2.181 5.288 2.181h.028c.57-.002 14.013-.054 19.38-.148 19.534-.341 33.711-17.437 33.711-40.65zm-33.973 25.652c-2.665.047-7.509.083-11.662.108l-.104-51.558h11.346c14.298 0 19.393 13.326 19.393 25.797 0 12.196-5.937 25.425-18.973 25.653z"/><path d="m144.682 113.536c1.405 1.397 3.306 2.181 5.288 2.181h.028c.57-.002 14.013-.054 19.38-.148 19.533-.341 33.71-17.437 33.71-40.65 0-24.402-13.821-40.797-34.393-40.797h-18.861c-1.992 0-3.902.792-5.309 2.202s-2.195 3.321-2.191 5.313l.135 66.595c.005 1.992.801 3.899 2.213 5.304zm24.013-64.414c14.298 0 19.393 13.326 19.393 25.797 0 12.195-5.937 25.424-18.972 25.652-2.665.047-7.509.083-11.662.108l-.105-51.558h11.346z"/><path d="m118.618 115.717c4.142 0 7.5-3.358 7.5-7.5v-66.595c0-4.142-3.358-7.5-7.5-7.5s-7.5 3.358-7.5 7.5v66.595c0 4.142 3.358 7.5 7.5 7.5z"/><path d="m331.625 296.771c5.141 0 9.965-1.117 14.336-3.319 13.784-6.941 16.678-17.426 16.678-25v-45.776c0-4.142-3.358-7.5-7.5-7.5s-7.5 3.358-7.5 7.5v45.776c0 3.427-.958 7.843-8.425 11.603-2.26 1.139-4.813 1.716-7.59 1.716-.009 0-.018 0-.027 0-3.102-.004-5.799-.767-8.247-2.331-4.961-3.17-6.985-6.339-6.985-10.939v-45.825c0-4.142-3.358-7.5-7.5-7.5s-7.5 3.358-7.5 7.5v45.825c0 9.887 4.55 17.6 13.909 23.58 4.858 3.104 10.343 4.683 16.303 4.691.016-.001.032-.001.048-.001z"/><path d="m159.391 289.253c-.01 4.142 3.339 7.508 7.481 7.519h.019c4.133 0 7.489-3.346 7.5-7.481l.078-31.801 19.888-30.552c2.26-3.472 1.277-8.118-2.194-10.377s-8.117-1.278-10.377 2.194l-14.821 22.768-14.982-22.946c-2.265-3.469-6.913-4.444-10.38-2.179-3.468 2.265-4.444 6.912-2.179 10.38l20.046 30.701z"/><path d="m284.966 255.974c0-22.496-18.302-40.798-40.797-40.798s-40.797 18.302-40.797 40.798 18.302 40.797 40.797 40.797 40.797-18.301 40.797-40.797zm-66.594 0c0-14.225 11.573-25.798 25.797-25.798s25.797 11.573 25.797 25.798-11.573 25.797-25.797 25.797-25.797-11.572-25.797-25.797z"/><path d="m404.469 396.55c-4.062-.808-8.011 1.83-8.82 5.892l-8.358 41.998-13.193-42.746c-.97-3.143-3.875-5.287-7.164-5.288-.001 0-.002 0-.003 0-3.288 0-6.192 2.142-7.165 5.282l-13.226 42.73-8.326-42.09c-.804-4.063-4.748-6.707-8.813-5.902-4.063.804-6.706 4.75-5.902 8.813l12.975 65.595c.071.358.168.711.29 1.055 1.275 3.589 4.679 5.989 8.483 5.989h.061c3.829-.026 7.23-2.479 8.463-6.104.022-.065.043-.131.064-.197l13.084-42.273 13.051 42.287c.031.1.064.2.099.299 1.275 3.589 4.679 5.989 8.483 5.989h.062c3.829-.026 7.23-2.479 8.463-6.104.106-.311.191-.629.255-.951l13.026-65.453c.811-4.064-1.827-8.013-5.889-8.821z"/><path d="m206.003 396.283c-4.142 0-7.5 3.358-7.5 7.5v42.597l-32.464-46.867c-1.868-2.697-5.271-3.867-8.403-2.888-3.131.979-5.263 3.878-5.263 7.159v66.595c0 4.142 3.358 7.5 7.5 7.5s7.5-3.358 7.5-7.5v-42.596l32.464 46.867c1.428 2.061 3.752 3.23 6.167 3.23.745 0 1.498-.111 2.236-.342 3.131-.979 5.263-3.878 5.263-7.159v-66.595c0-4.143-3.357-7.501-7.5-7.501z"/><path d="m270.517 396.283c-22.496 0-40.797 18.302-40.797 40.798s18.302 40.797 40.797 40.797c22.496 0 40.798-18.302 40.798-40.797 0-22.496-18.302-40.798-40.798-40.798zm0 66.595c-14.225 0-25.797-11.573-25.797-25.797 0-14.225 11.573-25.798 25.797-25.798 14.225 0 25.798 11.573 25.798 25.798s-11.573 25.797-25.798 25.797z"/><path d="m103.541 435.725 27.829-25.58c3.049-2.803 3.249-7.547.446-10.597-2.802-3.049-7.546-3.249-10.597-.446l-23.249 21.369v-16.688c0-4.142-3.358-7.5-7.5-7.5s-7.5 3.358-7.5 7.5v66.595c0 4.142 3.358 7.5 7.5 7.5s7.5-3.358 7.5-7.5v-19.185l25.48 24.582c1.456 1.404 3.332 2.103 5.207 2.103 1.965 0 3.927-.767 5.398-2.292 2.876-2.981 2.791-7.729-.19-10.605z"/><ellipse cx="450.88" cy="470.378" rx="7.804" ry="7.804" transform="matrix(.383 -.924 .924 .383 -156.237 706.931)"/><path d="m477.815 421.831c-.728-14.039-12.316-25.258-26.382-25.542-13.646-.256-25.379 9.704-27.264 23.212-.173 1.235-.26 2.498-.26 3.753 0 4.142 3.358 7.5 7.5 7.5s7.5-3.358 7.5-7.5c0-.563.039-1.128.116-1.679.835-5.988 6.032-10.419 12.106-10.29 6.24.125 11.381 5.099 11.704 11.322.172 3.325-.99 6.48-3.273 8.886-2.286 2.407-5.369 3.733-8.682 3.733-4.142 0-7.5 3.358-7.5 7.5v4.812c0 4.142 3.358 7.5 7.5 7.5 3.569 0 6.555-2.493 7.314-5.832 4.63-1.312 8.889-3.849 12.246-7.385 5.144-5.417 7.763-12.517 7.375-19.99z"/></g></g></g></svg>