<?xml version="1.0" encoding="UTF-8" standalone="no"?>
<!-- Created with Inkscape (http://www.inkscape.org/) -->

<svg
   version="1.1"
   id="svg4635"
   xml:space="preserve"
   width="682.66669"
   height="682.66669"
   viewBox="0 0 682.66669 682.66669"
   xmlns="http://www.w3.org/2000/svg"
   xmlns:svg="http://www.w3.org/2000/svg"><defs
     id="defs4639"><clipPath
       clipPathUnits="userSpaceOnUse"
       id="clipPath4649"><path
         d="M 0,512 H 512 V 0 H 0 Z"
         id="path4647" /></clipPath></defs><g
     id="g4641"
     transform="matrix(1.3333333,0,0,-1.3333333,0,682.66667)"><g
       id="g4643"><g
         id="g4645"
         clip-path="url(#clipPath4649)"><g
           id="g4651"
           transform="translate(52.5,128.5)"><path
             d="m 0,0 c 0,-29.271 23.729,-53 53,-53 29.271,0 53,23.729 53,53 C 106,29.271 82.271,53 53,53 23.729,53 0,29.271 0,0"
             style="fill:#8d9ca8;fill-opacity:1;fill-rule:nonzero;stroke:none"
             id="path4653" /></g><g
           id="g4655"
           transform="translate(400.5,168.5)"><path
             d="M 0,0 C 0,-25.405 20.595,-46 46,-46 71.405,-46 92,-25.405 92,0 92,25.405 71.405,46 46,46 20.595,46 0,25.405 0,0"
             style="fill:#c5d3dd;fill-opacity:1;fill-rule:nonzero;stroke:none"
             id="path4657" /></g><g
           id="g4659"
           transform="translate(366.5,392.5)"><path
             d="M 0,0 C 0,-20.987 17.013,-38 38,-38 58.987,-38 76,-20.987 76,0 76,20.987 58.987,38 38,38 17.013,38 0,20.987 0,0"
             style="fill:#e8eef2;fill-opacity:1;fill-rule:nonzero;stroke:none"
             id="path4661" /></g><g
           id="g4663"
           transform="translate(7.5,259.7461)"><path
             d="m 0,0 c 0,-30.307 25.182,-54.874 56.245,-54.874 31.063,0 56.244,24.567 56.244,54.874 0,30.306 -25.181,54.874 -56.244,54.874 C 25.182,54.874 0,30.306 0,0"
             style="fill:#798c98;fill-opacity:1;fill-rule:nonzero;stroke:none"
             id="path4665" /></g><g
           id="g4667"
           transform="translate(225.3213,107.1494)"><path
             d="m 0,0 c -28.239,0 -51.132,-22.308 -51.132,-49.825 0,-27.517 22.893,-49.824 51.132,-49.824 28.239,0 51.132,22.307 51.132,49.824 C 51.132,-22.308 28.239,0 0,0"
             style="fill:#a0adba;fill-opacity:1;fill-rule:nonzero;stroke:none"
             id="path4669" /></g><g
           id="g4671"
           transform="translate(322.3818,110.0713)"><path
             d="m 0,0 c -18.97,-18.471 -18.97,-48.418 0,-66.889 18.97,-18.47 49.726,-18.47 68.695,0 18.97,18.471 18.97,48.418 0,66.889 C 49.726,18.471 18.97,18.471 0,0"
             style="fill:#b6c4cf;fill-opacity:1;fill-rule:nonzero;stroke:none"
             id="path4673" /></g><g
           id="g4675"
           transform="translate(83.0127,430.292)"><path
             d="m 0,0 c -22.964,-22.415 -22.964,-58.757 0,-81.171 22.963,-22.415 60.194,-22.415 83.158,0 22.963,22.414 22.963,58.756 0,81.171 C 60.194,22.415 22.963,22.415 0,0"
             style="fill:#596c76;fill-opacity:1;fill-rule:nonzero;stroke:none"
             id="path4677" /></g><g
           id="g4679"
           transform="translate(430.3057,257.8613)"><path
             d="m 0,0 c 16.973,-16.658 44.491,-16.658 61.465,0 16.973,16.657 16.973,43.666 0,60.324 C 44.491,76.981 16.973,76.981 0,60.324 -16.973,43.666 -16.973,16.657 0,0"
             style="fill:#d9e7ec;fill-opacity:1;fill-rule:nonzero;stroke:none"
             id="path4681" /></g><g
           id="g4683"
           transform="translate(208.5,442.5)"><path
             d="m 0,0 c 0,-34.241 27.759,-62 62,-62 34.241,0 62,27.759 62,62 C 124,34.241 96.241,62 62,62 27.759,62 0,34.241 0,0"
             style="fill:#475a61;fill-opacity:1;fill-rule:nonzero;stroke:none"
             id="path4685" /></g><g
           id="g4687"
           transform="translate(52.5,128.5)"><path
             d="m 0,0 c 0,-29.271 23.729,-53 53,-53 29.271,0 53,23.729 53,53 C 106,29.271 82.271,53 53,53 23.729,53 0,29.271 0,0 Z"
             style="fill:none;stroke:#000000;stroke-width:15;stroke-linecap:round;stroke-linejoin:round;stroke-miterlimit:10;stroke-dasharray:none;stroke-opacity:1"
             id="path4689" /></g><g
           id="g4691"
           transform="translate(400.5244,166.9785)"><path
             d="m 0,0 c 0.803,-24.701 21.08,-44.479 45.976,-44.479 25.405,0 46,20.595 46,46 0,25.406 -20.595,46 -46,46 -13.257,0 -25.205,-5.608 -33.599,-14.581"
             style="fill:none;stroke:#000000;stroke-width:15;stroke-linecap:round;stroke-linejoin:round;stroke-miterlimit:10;stroke-dasharray:none;stroke-opacity:1"
             id="path4693" /></g><g
           id="g4695"
           transform="translate(366.5,392.5)"><path
             d="M 0,0 C 0,-20.987 17.013,-38 38,-38 58.987,-38 76,-20.987 76,0 76,20.987 58.987,38 38,38 17.013,38 0,20.987 0,0 Z"
             style="fill:none;stroke:#000000;stroke-width:15;stroke-linecap:round;stroke-linejoin:round;stroke-miterlimit:10;stroke-dasharray:none;stroke-opacity:1"
             id="path4697" /></g><g
           id="g4699"
           transform="translate(7.5,259.7461)"><path
             d="m 0,0 c 0,-30.307 25.182,-54.874 56.245,-54.874 31.063,0 56.244,24.567 56.244,54.874 0,30.306 -25.181,54.874 -56.244,54.874 C 25.182,54.874 0,30.306 0,0 Z"
             style="fill:none;stroke:#000000;stroke-width:15;stroke-linecap:round;stroke-linejoin:round;stroke-miterlimit:10;stroke-dasharray:none;stroke-opacity:1"
             id="path4701" /></g><g
           id="g4703"
           transform="translate(177.7588,38.999)"><path
             d="m 0,0 c 7.492,-18.449 25.964,-31.499 47.563,-31.499 28.239,0 51.131,22.308 51.131,49.824 0,27.518 -22.892,49.825 -51.131,49.825 -22.439,0 -41.501,-14.084 -48.386,-33.674"
             style="fill:none;stroke:#000000;stroke-width:15;stroke-linecap:round;stroke-linejoin:round;stroke-miterlimit:10;stroke-dasharray:none;stroke-opacity:1"
             id="path4705" /></g><g
           id="g4707"
           transform="translate(322.3818,110.0713)"><path
             d="m 0,0 c -18.97,-18.471 -18.97,-48.418 0,-66.889 18.97,-18.47 49.726,-18.47 68.695,0 18.97,18.471 18.97,48.418 0,66.889 C 49.726,18.471 18.97,18.471 0,0 Z"
             style="fill:none;stroke:#000000;stroke-width:15;stroke-linecap:round;stroke-linejoin:round;stroke-miterlimit:10;stroke-dasharray:none;stroke-opacity:1"
             id="path4709" /></g><g
           id="g4711"
           transform="translate(103.21,443.1895)"><path
             d="m 0,0 c -7.358,-2.799 -14.256,-7.098 -20.197,-12.897 -22.964,-22.416 -22.964,-58.757 0,-81.171 22.963,-22.415 60.194,-22.415 83.158,0 22.963,22.414 22.963,58.755 0,81.171 C 54.947,-5.075 45.197,0.017 34.922,2.38"
             style="fill:none;stroke:#000000;stroke-width:15;stroke-linecap:round;stroke-linejoin:round;stroke-miterlimit:10;stroke-dasharray:none;stroke-opacity:1"
             id="path4713" /></g><g
           id="g4715"
           transform="translate(430.3057,257.8613)"><path
             d="m 0,0 c 16.973,-16.658 44.491,-16.658 61.465,0 16.973,16.657 16.973,43.666 0,60.324 C 44.491,76.981 16.973,76.981 0,60.324 -16.973,43.666 -16.973,16.657 0,0 Z"
             style="fill:none;stroke:#000000;stroke-width:15;stroke-linecap:round;stroke-linejoin:round;stroke-miterlimit:10;stroke-dasharray:none;stroke-opacity:1"
             id="path4717" /></g><g
           id="g4719"
           transform="translate(332.3496,446.8506)"><path
             d="m 0,0 c -2.232,32.212 -29.07,57.649 -61.85,57.649 -34.241,0 -62,-27.758 -62,-62 0,-34.241 27.759,-62 62,-62 23.417,0 43.802,12.983 54.351,32.142"
             style="fill:none;stroke:#000000;stroke-width:15;stroke-linecap:round;stroke-linejoin:round;stroke-miterlimit:10;stroke-dasharray:none;stroke-opacity:1"
             id="path4721" /></g></g></g></g></svg>
