<svg xmlns="http://www.w3.org/2000/svg" version="1.1" xmlns:xlink="http://www.w3.org/1999/xlink" width="512" height="512" x="0" y="0" viewBox="0 0 512 512" style="enable-background:new 0 0 512 512" xml:space="preserve" class=""><g><g fill-rule="evenodd"><path fill="#006ce2" d="M256 0c141.386 0 256 114.614 256 256S397.386 512 256 512 0 397.389 0 256 114.617 0 256 0z" opacity="1" data-original="#2196f3" class=""></path><path fill="#ffffff" d="M98.5 346.177V167.348l107.6 95.337-107.584 83.82c0-.109-.015-.215-.015-.328zm207.4-83.492 107.6-95.337v178.829c0 .113-.014.219-.017.328zm-82.663 15.177-103.586 80.7h272.704l-103.587-80.7-25.307 22.421a11.25 11.25 0 0 1-14.92 0l-25.307-22.421zM256 276.831l139.274-123.393H116.727z" opacity="1" data-original="#ffffff"></path></g></g></svg>