<svg id="Layer_1" enable-background="new 0 0 512 512" height="512" viewBox="0 0 512 512" width="512" xmlns="http://www.w3.org/2000/svg"><path d="m423.938 88.063c-44.858-44.859-104.5-69.563-167.938-69.563s-123.08 24.704-167.938 69.563c-44.858 44.857-69.562 104.499-69.562 167.937s24.705 123.08 69.562 167.938c44.858 44.858 104.5 69.562 167.938 69.562s123.08-24.704 167.938-69.562c44.857-44.858 69.562-104.5 69.562-167.938s-24.704-123.08-69.562-167.937zm-167.938 380.437c-117.173 0-212.5-95.327-212.5-212.5s95.327-212.5 212.5-212.5 212.5 95.327 212.5 212.5-95.327 212.5-212.5 212.5zm102.485-133.979c0 6.903-5.597 12.5-12.5 12.5h-179.971c-6.903 0-12.5-5.597-12.5-12.5s5.597-12.5 12.5-12.5h179.971c6.904 0 12.5 5.596 12.5 12.5zm0-157.041c0 6.903-5.597 12.5-12.5 12.5h-179.971c-6.903 0-12.5-5.597-12.5-12.5s5.597-12.5 12.5-12.5h179.971c6.904 0 12.5 5.597 12.5 12.5zm0 78.52c0 6.903-5.597 12.5-12.5 12.5h-179.971c-6.903 0-12.5-5.597-12.5-12.5s5.597-12.5 12.5-12.5h179.971c6.904 0 12.5 5.597 12.5 12.5z"/></svg>