<svg fill="none" height="512" viewBox="0 0 24 24" width="512" xmlns="http://www.w3.org/2000/svg" xmlns:xlink="http://www.w3.org/1999/xlink"><linearGradient id="paint0_linear_3397_3795" gradientUnits="userSpaceOnUse" x1="11.995" x2="11.995" y1="2" y2="22"><stop offset="0" stop-color="#138bd7"/><stop offset="1" stop-color="#62aafb"/></linearGradient><path d="m16.19 2h-8.38c-3.64 0-5.81 2.17-5.81 5.81v8.37c0 3.65 2.17 5.82 5.81 5.82h8.37c3.64 0 5.81-2.17 5.81-5.81v-8.38c.01-3.64-2.16-5.81-5.8-5.81zm1.81 10.75h-12c-.41 0-.75-.34-.75-.75s.34-.75.75-.75h12c.41 0 .75.34.75.75s-.34.75-.75.75z" fill="url(#paint0_linear_3397_3795)"/></svg>