<svg id="Layer_1" viewBox="0 0 24 24" xmlns="http://www.w3.org/2000/svg" data-name="Layer 1"><path d="m12 1.5c-5.33 0-9.5 1.98-9.5 4.5v12c0 2.52 4.17 4.5 9.5 4.5s9.5-1.98 9.5-4.5v-12c0-2.52-4.17-4.5-9.5-4.5zm1.36 8.95c3.2-.21 5.8-1.12 7.14-2.4v3.95c0 .93-1 1.86-2.75 2.54-.08.03-.17.07-.25.09-.13.04-.23.13-.29.24l.75.66c.05-.02.11-.04.16-.06 1.02-.4 1.81-.88 2.38-1.42v3.95c0 1.69-3.42 3.5-8.5 3.5s-8.5-1.81-8.5-3.5v-3.95c.57.54 1.36 1.02 2.38 1.42 1.53.59 3.44.96 5.39 1.01h.02c.11 0 .21-.04.3-.11l-.76-.93c-1.67-.09-3.28-.41-4.58-.91-1.74-.68-2.74-1.6-2.74-2.53v-3.95c.89.85 2.34 1.55 4.25 1.99.06.01.11.01.17 0l-.43-1.11c-2.43-.65-3.98-1.77-3.98-2.93 0-1.69 3.42-3.5 8.5-3.5s8.5 1.81 8.5 3.5-3.35 3.26-7.47 3.47c-.09 0-.16.04-.23.08l.56.9z" fill="#37474f"/><g fill="#57a0d7"><path d="m13.68 10.03-.66-1.07c-.98-1.59-2.72-2.55-4.58-2.56l-.53-.51c-.43-.41-1.09-.51-1.62-.24-.46.23-.75.67-.79 1.18s.2.99.62 1.28l.7.48.51 1.02c.14.28.22.58.25.92.1 1.24.31 2.29.64 3.23.09.25.17.49.23.74.05.22.24.37.47.38.23 0 .43-.13.49-.35l.09-.29c.64 1.56 1.87 2.79 3.45 3.43.26.1.55-.02.65-.28s-.02-.55-.28-.65c-1.46-.59-2.57-1.79-3.05-3.29l-.31-.97c-.07-.21-.26-.35-.48-.35-.22 0-.41.14-.48.35l-.08.23c-.18-.68-.3-1.43-.37-2.27-.04-.47-.16-.9-.35-1.29l-.57-1.13c-.04-.08-.1-.14-.17-.19l-.81-.55c-.18-.12-.19-.31-.19-.38s.04-.26.23-.35c.16-.08.36-.05.49.07l.68.65c.1.09.23.15.36.14 1.59-.07 3.07.74 3.91 2.09l.66 1.07c.08.13.15.26.22.4l.64 1.33c.46.95 1.18 1.74 2.09 2.28l.62.37-.95.21c-.19.04-.34.19-.38.38s.03.39.18.5l2.44 1.9c.09.07.2.11.31.11.15 0 .3-.07.39-.19.17-.22.13-.53-.09-.7l-1.6-1.25 1.13-.25c.2-.04.35-.21.39-.41s-.06-.4-.24-.51l-1.69-1.01c-.74-.44-1.33-1.09-1.7-1.86l-.64-1.33c-.08-.17-.17-.33-.27-.49z"/><path d="m10.3 8.82c-.32-.32-.84-.32-1.16 0l1.16 1.16c.32-.32.32-.84 0-1.16z"/></g></svg>