<svg id="Layer_1" enable-background="new 0 0 512 512" height="512" viewBox="0 0 512 512" width="512" xmlns="http://www.w3.org/2000/svg"><path d="m423.938 88.063c-44.858-44.859-104.5-69.563-167.938-69.563s-123.08 24.704-167.938 69.563c-44.858 44.857-69.562 104.499-69.562 167.937s24.704 123.08 69.562 167.938 104.5 69.562 167.938 69.562 123.08-24.704 167.938-69.562 69.562-104.5 69.562-167.938-24.704-123.08-69.562-167.937zm-167.938 380.437c-117.173 0-212.5-95.327-212.5-212.5s95.327-212.5 212.5-212.5 212.5 95.327 212.5 212.5-95.327 212.5-212.5 212.5zm87.825-282.647-70.148 70.148 70.148 70.147c4.882 4.882 4.882 12.796 0 17.678-2.44 2.44-5.64 3.661-8.839 3.661s-6.398-1.221-8.839-3.661l-70.147-70.148-70.148 70.148c-4.881 4.881-12.797 4.881-17.678 0-4.882-4.882-4.882-12.796 0-17.678l70.148-70.147-70.148-70.148c-4.882-4.882-4.882-12.796 0-17.678 4.881-4.881 12.797-4.881 17.678 0l70.148 70.148 70.147-70.148c4.881-4.881 12.797-4.881 17.678 0 4.882 4.882 4.882 12.796 0 17.678z"/></svg>