<svg id="Layer_1" enable-background="new 0 0 512 512" height="512" viewBox="0 0 512 512" width="512" xmlns="http://www.w3.org/2000/svg"><path d="m423.938 88.062c-44.858-44.858-104.5-69.562-167.938-69.562s-123.08 24.704-167.937 69.562c-44.859 44.858-69.563 104.5-69.563 167.938s24.704 123.08 69.563 167.938c44.857 44.858 104.499 69.562 167.937 69.562s123.08-24.704 167.938-69.563c44.858-44.857 69.562-104.499 69.562-167.937s-24.704-123.08-69.562-167.938zm-167.938 380.438c-117.173 0-212.5-95.327-212.5-212.5s95.327-212.5 212.5-212.5 212.5 95.327 212.5 212.5-95.327 212.5-212.5 212.5zm89.957-260.555c0-49.603-40.354-89.957-89.957-89.957-49.602 0-89.956 40.354-89.956 89.957 0 31.465-8.856 60.021-26.323 84.873-5.299 7.539-6.609 16.504-3.69 25.241 2.917 8.739 9.35 15.118 18.116 17.963 14.64 4.748 30.454 8.402 46.996 10.919 4.072 26.616 27.121 47.069 54.857 47.069s50.785-20.453 54.857-47.069c16.543-2.517 32.357-6.171 46.997-10.919.001-.001.002-.001.002-.001 8.763-2.844 15.195-9.223 18.114-17.962 2.918-8.739 1.606-17.704-3.691-25.241-17.466-24.853-26.322-53.408-26.322-84.873zm-89.957 161.066c-12.772 0-23.729-7.896-28.263-19.061 9.296.7 18.738 1.064 28.263 1.064s18.967-.364 28.263-1.064c-4.534 11.165-15.491 19.061-28.263 19.061zm96.258-58.869c-.386 1.155-.96 1.725-2.118 2.101l.002-.001c-27.78 9.011-60.334 13.773-94.142 13.773-33.807 0-66.36-4.763-94.139-13.772-1.159-.376-1.732-.944-2.118-2.101-.386-1.153-.269-1.953.431-2.948 20.484-29.146 30.87-62.537 30.87-99.248 0-35.817 29.139-64.957 64.956-64.957s64.957 29.14 64.957 64.957c0 36.711 10.386 70.103 30.869 99.248.7.995.817 1.795.432 2.948z"/></svg>