<svg id="Layer_1" enable-background="new 0 0 512 512" height="512" viewBox="0 0 512 512" width="512" xmlns="http://www.w3.org/2000/svg"><path d="m423.938 88.062c-44.858-44.858-104.5-69.562-167.938-69.562s-123.08 24.704-167.937 69.562-69.563 104.5-69.563 167.938 24.705 123.08 69.563 167.938 104.499 69.562 167.937 69.562 123.08-24.704 167.938-69.562 69.562-104.5 69.562-167.938-24.704-123.08-69.562-167.938zm-167.938 380.438c-117.173 0-212.5-95.327-212.5-212.5s95.327-212.5 212.5-212.5 212.5 95.327 212.5 212.5-95.327 212.5-212.5 212.5zm12.5-324.06v-11.062c0-6.903-5.597-12.5-12.5-12.5s-12.5 5.597-12.5 12.5v11.062c-56.039 6.237-99.76 53.885-99.76 111.56 0 61.901 50.36 112.261 112.26 112.261 61.901 0 112.261-50.36 112.261-112.261 0-57.675-43.722-105.323-99.761-111.56zm-12.5 198.821c-48.116 0-87.26-39.145-87.26-87.261 0-43.872 32.546-80.279 74.76-86.361v50.738c0 6.903 5.597 12.5 12.5 12.5s12.5-5.597 12.5-12.5v-50.738c42.215 6.082 74.761 42.49 74.761 86.361 0 48.116-39.145 87.261-87.261 87.261z"/></svg>