<svg xmlns="http://www.w3.org/2000/svg" version="1.1" xmlns:xlink="http://www.w3.org/1999/xlink" width="512" height="512" x="0" y="0" viewBox="0 0 24 24" style="enable-background:new 0 0 512 512" xml:space="preserve" class=""><g><switch><g><circle cx="12" cy="12" r="12" fill="#006ce2" opacity="1" data-original="#03b8ff" class=""></circle><path fill="#ffffff" d="M8.5 10.6c-.4 0-.7.3-.7.7s.3.7.7.7.7-.3.7-.7-.3-.7-.7-.7zm8.4-2.8h-.7V5.7c0-.4-.3-.7-.7-.7h-7c-.4 0-.7.3-.7.7v2.1h-.7C5.9 7.8 5 8.7 5 9.9v4.2c0 1.2.9 2.1 2.1 2.1h.7v2.1c0 .4.3.7.7.7h7c.4 0 .7-.3.7-.7v-2.1h.7c1.2 0 2.1-.9 2.1-2.1V9.9c0-1.2-.9-2.1-2.1-2.1zM9.2 6.4h5.6v1.4H9.2zm5.6 11.2H9.2v-2.8h5.6zm2.8-3.5c0 .4-.3.7-.7.7h-.7v-.7c0-.4-.3-.7-.7-.7h-7c-.4 0-.7.3-.7.7v.7h-.7c-.4 0-.7-.3-.7-.7V9.9c0-.4.3-.7.7-.7h9.8c.4 0 .7.3.7.7z" opacity="1" data-original="#ffffff" class=""></path></g></switch></g></svg>