<svg id="Layer_1" height="512" viewBox="0 0 64 64" width="512" xmlns="http://www.w3.org/2000/svg" data-name="Layer 1"><path d="m46.73 17a3.09 3.09 0 0 0 -.61-.88l-10.24-10.24a3 3 0 0 0 -2.12-.88h-13.76a3 3 0 0 0 -3 3v16h30v-5.76a3 3 0 0 0 -.27-1.24z" fill="#e3fcfd"/><path d="m35 5.28v8.72a3 3 0 0 0 3 3h8.73" fill="#e3fcfd"/><rect fill="#e3fcfd" height="24" rx="6" width="60" x="2" y="24"/><path d="m18 43h29a0 0 0 0 1 0 0v13a3 3 0 0 1 -3 3h-23a3 3 0 0 1 -3-3v-13a0 0 0 0 1 0 0z" fill="#42eaf5"/><g fill="#007da1"><path d="m56 22h-7v-3.76a5.08 5.08 0 0 0 -1.47-3.53l-10.24-10.24a5 5 0 0 0 -3.53-1.47h-13.76a5 5 0 0 0 -5 5v14h-7a8 8 0 0 0 -8 8v12a8 8 0 0 0 8 8h8v6a5 5 0 0 0 5 5h23a5 5 0 0 0 5-5v-6h7a8 8 0 0 0 8-8v-12a8 8 0 0 0 -8-8zm-13.83-7h-4.17a1 1 0 0 1 -1-1v-4.17zm-23.17-7a1 1 0 0 1 1-1h13v7a5 5 0 0 0 5 5h7v3h-26zm26 48a1 1 0 0 1 -1 1h-23a1 1 0 0 1 -1-1v-11h25zm15-14a4 4 0 0 1 -4 4h-7v-3a2 2 0 0 0 -2-2h-29a2 2 0 0 0 -2 2v3h-8a4 4 0 0 1 -4-4v-12a4 4 0 0 1 4-4h48a4 4 0 0 1 4 4z"/><path d="m38 49h-12a2 2 0 0 0 0 4h12a2 2 0 0 0 0-4z"/><path d="m46 30h-7a2 2 0 0 0 0 4h7a2 2 0 0 0 0-4z"/><circle cx="54" cy="32" r="2"/></g></svg>