<svg height="512" viewBox="0 0 512 512" width="512" xmlns="http://www.w3.org/2000/svg"><g id="Layer_2" data-name="Layer 2"><g id="question_mark_"><circle id="background" cx="256" cy="256" fill="#ff2147" r="256"/><path d="m256 116a140 140 0 1 0 140 140 140 140 0 0 0 -140-140zm21.83 228.63c0 4.58-2.4 7-6.95 7h-34.31c-3.93 0-6.55-2.53-6.56-6.44 1.43-45-8.11-41.58 24.38-41.4 31.23-.24 22-3.29 23.44 40.84zm37.75-95.63c-7.27 10.27-19.58 14.74-29.22 22.23-13.57 11.44-5.05 22.21-16.18 23.05h-17c-5.66 0-11.32 0-17 0-4.61.29-5.52-5-6.17-8.45-1.61-14.95 4.61-26.56 15.61-36.13 7.72-7.38 18.29-10.47 26.46-17.14 7.61-6.57 6.86-17.65-1.28-23.49-8.82-6.33-22.87-7-31.93-1.13-6.4 4.49-11.12 11.1-16.2 17-3 3.55-6 3.94-9.65 1.14q-11.64-8.84-23.24-17.72c-3.27-2.51-3.7-5.4-1.57-8.9 21.39-39.09 75.77-51.8 111.44-24.6 23.94 15.57 34.52 50.54 15.93 74.14z" fill="#fff"/></g></g></svg>