<svg id="Layer_2" height="512" viewBox="0 0 512 512" width="512" xmlns="http://www.w3.org/2000/svg" data-name="Layer 2"><g id="Icon"><g id="_89" data-name="89"><rect id="Background" fill="#2492ff" height="512" rx="150" transform="matrix(0 -1 1 0 0 512)" width="512"/><path d="m278.4 393.89 120.21-120.21c9.76-9.76 9.76-25.59 0-35.36l-120.21-120.21c-9.76-9.76-25.59-9.76-35.36 0-9.76 9.76-9.76 25.59 0 35.36l77.53 77.53h-189.51c-13.81 0-25 11.19-25 25 0 13.81 11.19 25 25 25h189.51l-77.53 77.53c-9.76 9.76-9.76 25.59 0 35.36 9.76 9.76 25.59 9.76 35.36 0z" fill="#fff"/></g></g></svg>