<svg clip-rule="evenodd" fill-rule="evenodd" stroke-linejoin="round" stroke-miterlimit="2" viewBox="0 0 510 510" xmlns="http://www.w3.org/2000/svg"><g><path d="m325.837 450.119c-97.826-.81-259.852-2.402-291.081-2.402-1.326 0-11.136-4.482-12.074-5.419-.937-.938-6.433-8.995-6.433-10.321 0-44.872.23-351.497.23-396.369 0-1.327 7.263-13.279 8.201-14.216.938-.938 6.728-5.655 8.054-5.655 41.894 0 312.701 1.98 354.594 1.98 1.326 0 7.091 4.057 8.029 4.994.938.938 5.957 7.665 5.957 8.992 0 38.284-.35 279.849-.453 377.823h-20.684v-25.123c0-1.965-1.151-3.748-2.942-4.557-1.792-.809-3.891-.493-5.365.807l-58.152 51.28c-1.077.949-1.693 2.315-1.693 3.75s.616 2.801 1.693 3.75zm-117.912-25.985c78.464 0 142.457-63.993 142.457-142.474 0-78.464-63.993-142.456-142.457-142.456-78.481 0-142.474 63.992-142.474 142.456 0 78.481 63.993 142.474 142.474 142.474zm58.458-406.096h-108.295v88.77c0 2.761 2.239 5 5 5h98.295c2.761 0 5-2.239 5-5z" fill="#a4d4ff"/><path d="m208.79 391.352c-61.856 0-112.32-50.447-112.32-112.303s50.464-112.303 112.32-112.303 112.303 50.447 112.303 112.303-50.447 112.303-112.303 112.303zm0-98.236c7.74 0 14.05-6.31 14.05-14.067 0-7.741-6.31-14.068-14.05-14.068-7.757 0-14.067 6.327-14.067 14.068 0 7.757 6.31 14.067 14.067 14.067z" fill="#a4d4ff"/><path d="m323.715 454.544h-278.715c-20.435 0-37-16.565-37-37v-372.544c0-20.435 16.565-37 37-37h325.833c20.434 0 37 16.565 37 37v354.489h87.167c3.866 0 7 3.134 7 7v52.323c0 3.866-3.134 7-7 7h-107.823v29.188c0 2.751-1.612 5.248-4.119 6.38-2.508 1.132-5.447.69-7.51-1.13zm-172.627-432.544h-106.088c-12.703 0-23 10.297-23 23v372.544c0 12.703 10.297 23 23 23h262.839l-3.004-2.649c-1.507-1.329-2.37-3.241-2.37-5.25s.863-3.921 2.37-5.25l70.713-62.355c2.063-1.82 5.002-2.262 7.51-1.13 2.507 1.132 4.119 3.629 4.119 6.38v29.199h6.656v-354.489c0-12.703-10.298-23-23-23h-97.45v86.77c0 3.866-3.134 7-7 7h-108.295c-3.866 0-7-3.134-7-7zm56.215 0h-42.215v79.77h42.215zm52.08 0h-38.08v79.77h38.08zm228.617 391.489h-107.823c-3.866 0-7-3.134-7-7v-20.693l-53.128 46.849 53.128 46.849v-20.682c0-3.866 3.134-7 7-7h107.823zm-280.075 14.607c-82.337 0-149.474-67.136-149.474-149.473 0-82.32 67.137-149.457 149.474-149.457 82.319 0 149.457 67.137 149.457 149.457 0 82.337-67.138 149.473-149.457 149.473zm0-14c74.609 0 135.457-60.849 135.457-135.473 0-74.609-60.849-135.457-135.457-135.457-74.625 0-135.474 60.848-135.474 135.457 0 74.625 60.849 135.473 135.474 135.473zm0-16.17c-65.711 0-119.32-53.592-119.32-119.303s53.609-119.303 119.32-119.303 119.303 53.591 119.303 119.303c0 65.711-53.592 119.303-119.303 119.303zm0-14c58 0 105.303-47.303 105.303-105.303 0-58.001-47.303-105.303-105.303-105.303-58.001 0-105.32 47.302-105.32 105.303 0 58 47.319 105.303 105.32 105.303zm52.171-43.216c-2.737-2.726-2.747-7.161-.021-9.899s7.162-2.747 9.9-.021l3.971 3.954c2.737 2.726 2.747 7.162.021 9.9-2.726 2.737-7.162 2.747-9.9.021zm-45.171-142.873c0 3.863-3.137 7-7 7-3.864 0-7-3.137-7-7v-5.587c0-3.863 3.136-7 7-7 3.863 0 7 3.137 7 7zm-14 161.572c0-3.864 3.136-7 7-7 3.863 0 7 3.136 7 7v5.603c0 3.864-3.137 7-7 7-3.864 0-7-3.136-7-7zm-45.178-142.863c2.732 2.731 2.732 7.167 0 9.899s-7.168 2.732-9.899 0l-3.955-3.954c-2.732-2.732-2.732-7.168 0-9.9s7.168-2.732 9.9 0zm-9.899 114.254c2.731-2.731 7.167-2.731 9.899 0 2.732 2.732 2.732 7.168 0 9.9l-3.954 3.954c-2.732 2.732-7.168 2.732-9.9 0s-2.732-7.167 0-9.899zm124.127-104.344c-2.738 2.726-7.174 2.716-9.9-.022-2.726-2.737-2.716-7.173.021-9.899l3.971-3.954c2.738-2.726 7.174-2.717 9.9.021 2.726 2.737 2.716 7.173-.021 9.899zm-48.363 68.157c-3.684 3.164-8.469 5.077-13.687 5.077-11.617 0-21.068-9.45-21.068-21.067 0-9.145 5.881-16.972 14.068-19.87v-46.647c0-3.864 3.136-7 7-7 3.863 0 7 3.136 7 7v46.651c8.171 2.9 14.05 10.723 14.05 19.866 0 1.321-.122 2.615-.356 3.869l31.05 17.935c3.345 1.932 4.493 6.217 2.56 9.562-1.932 3.346-6.217 4.493-9.562 2.561zm-13.687-23.058c-3.897 0-7.068 3.179-7.068 7.068 0 3.897 3.171 7.067 7.068 7.067 2.564 0 4.813-1.381 6.047-3.439.019-.034.039-.068.058-.102.02-.033.039-.067.059-.1.565-1.015.886-2.184.886-3.426 0-3.887-3.164-7.068-7.05-7.068zm-80.803.068c3.863 0 7 3.136 7 7 0 3.863-3.137 7-7 7h-5.587c-3.863 0-7-3.137-7-7 0-3.864 3.137-7 7-7zm161.589 14c-3.863 0-7-3.137-7-7 0-3.864 3.137-7 7-7h5.587c3.863 0 7 3.136 7 7 0 3.863-3.137 7-7 7z" fill="#1f4571"/></g></svg>