<svg id="Layer_2" viewBox="0 0 512 512" xmlns="http://www.w3.org/2000/svg" data-name="Layer 2"><g id="Icon"><g id="_07" data-name="07"><circle cx="256" cy="256" fill="#006ce2" r="256"/><path d="m345.09 311.03-31.53 31.53-20.73-20.73c4.94-3.75 9.66-7.87 14.13-12.34 6.21-6.21 11.75-12.9 16.59-20zm-45.21-8.61c-50.07 50.07-131.26 50.07-181.33 0s-50.07-131.26 0-181.33 131.26-50.07 181.33 0 50.07 131.26 0 181.33zm-27.59-153.74c-34.83-34.83-91.31-34.83-126.14 0s-34.83 91.31 0 126.14 91.31 34.83 126.14 0 34.83-91.31 0-126.14zm151.64 225.41-56.81-56.81c-3.91-3.91-10.24-3.91-14.14 0l-33.16 33.16c-3.91 3.91-3.91 10.24 0 14.14l56.81 56.81c3.91 3.91 10.24 3.91 14.14 0l33.16-33.16c3.91-3.91 3.91-10.24 0-14.14z" fill="#fff"/></g></g></svg>