<svg id="Layer_1" enable-background="new 0 0 512 512" height="512" viewBox="0 0 512 512" width="512" xmlns="http://www.w3.org/2000/svg"><g><g><g><path d="m483.925 182.629-115.9-115.898c-17.432-17.432-31.693-11.525-31.693 13.127v54.131.002-.002c-177.46 0-321.321 143.854-321.334 321.313 73.282-97.545 189.936-160.645 321.334-160.645v54.131c0 24.652 14.262 30.561 31.693 13.129l115.9-115.902c17.431-17.429 17.431-45.954 0-63.386z" fill="#00d8e0"/></g></g><path d="m494.533 172.017-115.899-115.9c-9.563-9.563-19.263-14.412-28.829-14.412-13.134 0-28.472 9.989-28.472 38.146v39.457c-84.204 3.671-162.839 38.203-222.815 98.176-63.524 63.519-98.511 147.975-98.518 237.808-.001 6.455 4.128 12.186 10.25 14.229 1.562.521 3.163.772 4.748.772 4.627 0 9.106-2.146 11.995-5.99 70.817-94.266 177.438-149.974 294.34-154.372v38.849c0 28.155 15.337 38.146 28.471 38.146h.001c9.566 0 19.267-4.85 28.829-14.412l115.898-115.9c11.265-11.261 17.468-26.283 17.468-42.298 0-16.014-6.203-31.036-17.467-42.299zm-21.213 63.385-115.899 115.9c-2.223 2.223-4.064 3.628-5.422 4.48-.357-1.563-.666-3.857-.666-7.002v-54.13c0-8.283-6.716-15-15-15-66.647 0-130.332 15.27-189.283 45.385-42.32 21.619-81.006 50.721-113.767 85.379 21.794-147.697 149.396-261.432 303.05-261.432 8.284 0 15-6.715 15-15v-54.131c0-3.144.309-5.438.665-7.001 1.358.853 3.2 2.257 5.423 4.479l115.899 115.9c5.598 5.598 8.68 13.086 8.68 21.086s-3.082 15.489-8.68 21.087z"/></g></svg>