<svg clip-rule="evenodd" fill-rule="evenodd" image-rendering="optimizeQuality" shape-rendering="geometricPrecision" text-rendering="geometricPrecision" viewBox="0 0 2.54 2.54" xmlns="http://www.w3.org/2000/svg"><g id="&#x56FE;&#x5C42;_x0020_1"><path d="m2.16747 0h-1.79494c-.20518 0-.37253.16735-.37253.37253v1.79494c0 .20518.16735.37253.37253.37253h1.79494c.20518 0 .37253-.16735.37253-.37253v-1.79494c0-.20518-.16735-.37253-.37253-.37253z" fill="#ff4141"/><g id="_493052392" fill="#fff"><path id="_493056736" d="m.8962.57118c.04418-.0218.09768-.00366.11948.04053.0218.04418.00366.09768-.04053.11948-.1655.08144-.28234.22227-.33743.38408-.05513.16196-.04856.34486.03281.51024.08143.16551.22226.28234.38407.33743.16196.05513.34486.04856.51024-.03281l.00013-.00007c.16543-.08144.28223-.22223.3373-.384.05514-.16196.04856-.34485-.03281-.51024l-.00007-.00015c-.036-.07311-.08475-.13838-.1433-.19306-.05887-.05499-.12748-.09929-.20282-.13018-.04553-.01871-.06727-.07081-.04856-.11634.01872-.04553.07082-.06728.11635-.04856.0957.03922.18248.09518.25661.16441.07274.06793.13352.14866.17882.23892.00238.00403.00447.00825.00621.01265.10016.20805.10772.43704.03868.63985-.06915.20311-.215.38009-.42143.48372-.00408.00242-.00834.00453-.0128.00629-.20805.10016-.43704.10772-.63985.03867-.20512-.06983-.38362-.21788-.48679-.42757-.10322-.20981-.11167-.44153-.0419-.64651.06984-.20511.21789-.38361.42759-.48678z" fill-rule="nonzero"/><path id="_493082872" d="m1.26339.86518c-.04442 0-.08077-.03634-.08077-.08077v-.34098c0-.04443.03635-.08078.08077-.08078.04443 0 .08078.03642.08078.08078v.34098c0 .04436-.03635.08077-.08078.08077z"/></g></g></svg>