<svg height="512" viewBox="0 0 32 32" width="512" xmlns="http://www.w3.org/2000/svg"><g id="Layer_2" data-name="Layer 2"><path d="m27 5v3.878a2.087 2.087 0 0 1 -1.658 2.093 2.005 2.005 0 0 1 -2.342-1.971v-4a2 2 0 0 1 4 0zm-1.658 16.029a2.005 2.005 0 0 0 -2.342 1.971v4a2 2 0 0 0 4 0v-3.878a2.087 2.087 0 0 0 -1.658-2.093z" fill="#13104c"/><path d="m27 4v2h-16l6.6 8.8a2.01 2.01 0 0 1 0 2.4l-6.6 8.8h16v2a2.006 2.006 0 0 1 -2 2h-18a2 2 0 0 1 -1.6-3.2l8.1-10.8-8.1-10.8a2 2 0 0 1 1.6-3.2h18a2.006 2.006 0 0 1 2 2z" fill="#4c46c8"/></g></svg>