<svg id="Layer_8" viewBox="0 0 24 24" xmlns="http://www.w3.org/2000/svg" data-name="Layer 8"><path d="m21.363 2.639a2.163 2.163 0 0 0 -2.9-.157l-6.463 5.099a1.007 1.007 0 0 0 -.087.078 3.106 3.106 0 0 0 -.9 2.045c-.095-.007-.187-.028-.283-.028a3.751 3.751 0 0 0 -2.71 1.154c-1.157 1.194-3.058 5.08-1.32 6.87a1 1 0 0 0 1.154.2 4.874 4.874 0 0 1 2.388-.444 3.9 3.9 0 0 0 3.206-1.127 3.951 3.951 0 0 0 1.047-3.363 3.094 3.094 0 0 0 1.851-.881.926.926 0 0 0 .072-.085l5.09-6.442a2.168 2.168 0 0 0 -.145-2.919zm-9.355 12.3a2 2 0 0 1 -1.771.52 7.585 7.585 0 0 0 -2.251.254 6.494 6.494 0 0 1 1.474-3.488 1.765 1.765 0 0 1 1.274-.546 1.763 1.763 0 0 1 1.273.546 1.961 1.961 0 0 1 .001 2.71zm7.942-10.639-5.06 6.4a1.155 1.155 0 0 1 -1.561-.035 1.131 1.131 0 0 1 -.029-1.557l6.413-5.068a.174.174 0 0 1 .235.012.18.18 0 0 1 .002.248z"/><path d="m19 11a1 1 0 0 0 -1 1v5a3 3 0 0 1 -3 3h-8a3 3 0 0 1 -3-3v-8a3 3 0 0 1 3-3h5a1 1 0 0 0 0-2h-5a5.006 5.006 0 0 0 -5 5v8a5.006 5.006 0 0 0 5 5h8a5.006 5.006 0 0 0 5-5v-5a1 1 0 0 0 -1-1z"/></svg>