<svg id="Layer_1" enable-background="new 0 0 24 24" height="512" viewBox="0 0 24 24" width="512" xmlns="http://www.w3.org/2000/svg"><path d="m18 24h-12c-3.3 0-6-2.7-6-6v-12c0-3.3 2.7-6 6-6h12c3.3 0 6 2.7 6 6v12c0 3.3-2.7 6-6 6z" fill="#00adff"/><path d="m4.7 10.5h2.2v8.8h-2.2c-.4 0-.7-.3-.7-.7v-7.3c0-.4.3-.8.7-.8zm3.9-1 4.7-4.7c.1-.1.4-.1.5 0l.7.4c.4.3.5.7.4 1.2l-.9 3.4h4.6c.8 0 1.5.7 1.5 1.5v1.5c0 .2-.1.4-.1.6l-2.3 5.5c-.1.3-.4.4-.7.4h-7.9c-.4 0-.7-.3-.7-.7v-8.6c0-.1 0-.3.2-.5z" fill="#fff"/></svg>