<svg id="Layer_1" enable-background="new 0 0 512 512" viewBox="0 0 512 512" xmlns="http://www.w3.org/2000/svg"><path clip-rule="evenodd" d="m256 511.44c140.724 0 255.5-114.655 255.5-255.379s-114.776-255.501-255.5-255.501-255.5 114.776-255.5 255.5 114.776 255.38 255.5 255.38z" fill="#2da74e" fill-rule="evenodd"/><path d="m423 167.313v135.934c0 5.765-4.673 10.439-10.439 10.439s-10.439-4.673-10.439-10.439v-110.733l-114.711 114.711c-4.066 4.067-10.656 4.078-14.737.025l-60.569-60.157-105.296 104.986c-2.037 2.031-4.704 3.046-7.37 3.046-2.676 0-5.353-1.023-7.392-3.069-4.071-4.082-4.061-10.692.022-14.763l112.652-112.319c4.068-4.057 10.649-4.064 14.726-.015l60.558 60.146 107.355-107.353h-110.733c-5.765 0-10.439-4.673-10.439-10.439s4.673-10.439 10.439-10.439h135.934c5.766 0 10.439 4.674 10.439 10.439z" fill="#fff"/></svg>