<svg id="Layer_1" enable-background="new 0 0 512 512" viewBox="0 0 512 512" xmlns="http://www.w3.org/2000/svg"><path clip-rule="evenodd" d="m256 511.44c140.724 0 255.5-114.655 255.5-255.379s-114.776-255.501-255.5-255.501-255.5 114.776-255.5 255.5 114.776 255.38 255.5 255.38z" fill="#e83b2d" fill-rule="evenodd"/><path d="m423 208.753v135.934c0 5.765-4.673 10.439-10.439 10.439h-135.934c-5.765 0-10.439-4.673-10.439-10.439s4.673-10.439 10.439-10.439h110.716l-107.339-107.354-60.557 60.146c-4.077 4.047-10.659 4.042-14.726-.015l-112.652-112.32c-4.083-4.071-4.092-10.68-.022-14.763s10.68-4.093 14.762-.022l105.296 104.985 60.569-60.157c4.081-4.052 10.671-4.042 14.738.025l114.711 114.727v-110.747c0-5.765 4.673-10.439 10.439-10.439s10.438 4.674 10.438 10.439z" fill="#fff"/></svg>