<svg clip-rule="evenodd" fill-rule="evenodd" height="512" image-rendering="optimizeQuality" shape-rendering="geometricPrecision" text-rendering="geometricPrecision" viewBox="0 0 173.397 173.397" width="512" xmlns="http://www.w3.org/2000/svg"><g id="Layer_x0020_1"><circle cx="86.699" cy="86.699" fill="#f4b400" r="84.667"/><g id="_396049008" fill="#fff"><path id="_396048864" d="m119.041 71.0856h-9.2874l15.6356 31.3516 15.738-31.3516h-8.7221c-13.5919-39.7772-68.1949-44.1256-88.1381-7.4021l14.9068.0001c6.5827-7.8727 16.4765-12.8817 27.5415-12.8817 14.2276 0 26.5214 8.2798 32.3257 20.2837z"/><path id="_396048840" d="m114.26 109.688c-6.5829 7.8748-16.4782 12.8854-27.5447 12.8854-14.2079 0-26.4872-8.2567-32.3014-20.2337l9.2659-.0002-15.6385-31.4014-15.7712 31.4014h8.7717c13.5927 39.7791 68.1826 44.0755 88.1236 7.3485z"/></g></g></svg>