<svg xmlns="http://www.w3.org/2000/svg" version="1.1" xmlns:xlink="http://www.w3.org/1999/xlink" width="512" height="512" x="0" y="0" viewBox="0 0 512 512" style="enable-background:new 0 0 512 512" xml:space="preserve" class=""><g><path fill="#006ce2" fill-rule="evenodd" d="M256 0c141.385 0 256 114.615 256 256S397.385 512 256 512 0 397.385 0 256 114.615 0 256 0zm145.233 220.184a138.46 138.46 0 0 0-250.044-39.4l-8.334-31.125a18.754 18.754 0 0 0-36.226 9.723l22.871 85.407a18.811 18.811 0 0 0 22.961 13.266l85.436-22.9a18.755 18.755 0 0 0-9.723-36.227l-52.016 13.947a100.987 100.987 0 0 1 188.873 17.008 101.027 101.027 0 0 1-178.271 86.91 18.754 18.754 0 1 0-29.96 22.56 138.509 138.509 0 0 0 244.433-119.169z" opacity="1" data-original="#0291f7" class=""></path></g></svg>