<svg id="Layer_2" height="512" viewBox="0 0 512 512" width="512" xmlns="http://www.w3.org/2000/svg" data-name="Layer 2"><g id="Icon"><g id="_29" data-name="29"><rect id="Background" fill="#2492ff" height="512" rx="150" transform="matrix(0 1 -1 0 512 0)" width="512"/><g fill="#fff"><g><path d="m271 126v260c0 8.28-6.72 15-15 15-8.28 0-15-6.72-15-15v-260c0-8.28 6.72-15 15-15 8.28 0 15 6.72 15 15zm-15 300c22.09 0 40-17.91 40-40v-260c0-22.09-17.91-40-40-40-22.09 0-40 17.91-40 40v260c0 22.09 17.91 40 40 40z"/><circle cx="256" cy="186" r="47.03"/></g><g><path d="m381 126v260c0 8.28-6.72 15-15 15-8.28 0-15-6.72-15-15v-260c0-8.28 6.72-15 15-15 8.28 0 15 6.72 15 15zm-15 300c22.09 0 40-17.91 40-40v-260c0-22.09-17.91-40-40-40-22.09 0-40 17.91-40 40v260c0 22.09 17.91 40 40 40z"/><circle cx="366" cy="326" r="47.03"/></g><g><path d="m161 126v260c0 8.28-6.72 15-15 15-8.28 0-15-6.72-15-15v-260c0-8.28 6.72-15 15-15 8.28 0 15 6.72 15 15zm-15 300c22.09 0 40-17.91 40-40v-260c0-22.09-17.91-40-40-40-22.09 0-40 17.91-40 40v260c0 22.09 17.91 40 40 40z"/><circle cx="146" cy="276" r="47.03"/></g></g></g></g></svg>