<svg id="Layer_1" enable-background="new 0 0 512 512" height="512" viewBox="0 0 512 512" width="512" xmlns="http://www.w3.org/2000/svg"><path d="m423.938 88.063c-44.858-44.859-104.5-69.563-167.938-69.563s-123.08 24.704-167.938 69.563c-44.858 44.857-69.562 104.499-69.562 167.937s24.704 123.08 69.562 167.938 104.5 69.562 167.938 69.562 123.08-24.704 167.938-69.562 69.562-104.5 69.562-167.938-24.704-123.08-69.562-167.937zm-167.938 380.437c-117.173 0-212.5-95.327-212.5-212.5s95.327-212.5 212.5-212.5 212.5 95.327 212.5 212.5-95.327 212.5-212.5 212.5zm99.401-281.713c4.882 4.882 4.882 12.796 0 17.678l-120.75 120.749c-2.44 2.44-5.64 3.661-8.839 3.661s-6.398-1.221-8.839-3.661l-60.375-60.374c-4.882-4.882-4.882-12.796 0-17.678 4.881-4.881 12.795-4.881 17.678 0l51.536 51.535 111.911-111.91c4.882-4.881 12.797-4.882 17.678 0z"/></svg>